<svg height="512" viewBox="0 0 59 59" width="512" xmlns="http://www.w3.org/2000/svg"><g id="Page-1" fill="none" fill-rule="evenodd"><g id="001---Search-Data" fill-rule="nonzero"><path id="Shape" d="m55.456 49.8 1.414 1.414c.7501901.7501514 1.1716458 1.7675983 1.1716458 2.8285s-.4214557 2.0783486-1.1716458 2.8285c-.7501514.7501901-1.7675983 1.1716458-2.8285 1.1716458s-2.0783486-.4214557-2.8285-1.1716458l-1.413-1.415-12.73-12.726-2.6-2.6 5.66-5.66 2.6 2.6z" fill="#35495e"/><circle id="Oval" cx="22" cy="22" fill="#3f5c6c" r="22"/><path id="Shape" d="m40 22c.0201892 9.7312124-7.6825756 17.7240537-17.4078887 18.0634477-9.7253131.3393941-17.96652876-7.0970339-18.62476238-16.8059798s6.50385338-18.18966571 16.18598198-19.16603038c9.6821287-.97636467 18.3932243 5.90367249 19.6866691 15.54856248.1090287.781898.162496 1.570541.16 2.36z" fill="#67b9cc"/><path id="Shape" d="m40 22c.0038614 6.8285702-3.8587005 13.0706453-9.9714387 16.1142972s-13.4217121 2.3641029-18.8685613-1.7542972c-.1090287-.781898-.162496-1.570541-.16-2.36-.0038614-6.8285702 3.8587005-13.0706453 9.9714387-16.1142972s13.4217121-2.3641029 18.8685613 1.7542972c.1090287.781898.162496 1.570541.16 2.36z" fill="#2fa8cc"/><path id="Shape" d="m12 23h2c.5522847 0 1 .4477153 1 1v6h-4v-6c0-.5522847.4477153-1 1-1z" fill="#f0c419"/><path id="Shape" d="m21 20h2c.5522847 0 1 .4477153 1 1v9h-4v-9c0-.5522847.4477153-1 1-1z" fill="#f0c419"/><path id="Shape" d="m30 17h2c.5522847 0 1 .4477153 1 1v12h-4v-12c0-.5522847.4477153-1 1-1z" fill="#f0c419"/><path id="Shape" d="m27.99 9.013c.0059444-.13646559-.0165306-.27267769-.066-.4-.1561381-.37202215-.5205412-.61377445-.924-.613h-4c-.5522847 0-1 .44771525-1 1s.4477153 1 1 1h1.586l-3.586 3.586-2.293-2.293c-.3904999-.3903819-1.0235001-.3903819-1.414 0l-8 8c-.25995658.2510745-.3642126.6228779-.27269716.9725073.09151544.3496295.3645604.6226744.71418984.7141899.34962942.0915154.72143282-.0127406.97250732-.2726972l7.293-7.293 2.293 2.293c.3904999.3903819 1.0235001.3903819 1.414 0l4.293-4.293v1.648c0 .5522847.4477153 1 1 1s1-.4477153 1-1v-4c0-.017-.009-.032-.01-.049z" fill="#955ba5"/><path id="Shape" d="m55.46 49.8-5.66 5.66c-.3751365.3755541-.8841815.5865733-1.415.5865733s-1.0398635-.2110192-1.415-.5865733l-9.9-9.9c-.3755541-.3751365-.5865733-.8841815-.5865733-1.415s.2110192-1.0398635.5865733-1.415l5.66-5.66c.3751365-.3755541.8841815-.5865733 1.415-.5865733s1.0398635.2110192 1.415.5865733l1.41 1.42h.01l1.4 1.4v.01l1.42 1.41 1.41 1.41v.01l1.42 1.41 1.41 1.41v.01l1.42 1.41c.3755541.3751365.5865733.8841815.5865733 1.415s-.2110192 1.0398635-.5865733 1.415z" fill="#ff5364"/><g fill="#df4d60"><path id="Shape" d="m42.02 46.26-2.12 2.12h-.01l-1.4-1.4v-.01l2.12-2.12c.3967603-.3397768.9881942-.3169323 1.3575632.0524368.3693691.369369.3922136.9608029.0524368 1.3575632z"/><path id="Shape" d="m44.85 49.09-2.12 2.12h-.01l-1.41-1.41 2.13-2.12c.3967603-.3397768.9881942-.3169323 1.3575632.0524368.3693691.369369.3922136.9608029.0524368 1.3575632z"/><path id="Shape" d="m47.68 51.92-2.12 2.12h-.01l-1.41-1.41 2.12-2.12c.3930079-.3899779 1.0269921-.3899779 1.42 0 .3877236.3900375.3877236 1.0199625 0 1.41z"/><path id="Shape" d="m48.38 39.89v.01l-2.12 2.12c-.3900375.3877236-1.0199625.3877236-1.41 0-.3877236-.3900375-.3877236-1.0199625 0-1.41l2.12-2.12h.01z"/><path id="Shape" d="m51.21 42.72v.01l-2.12 2.12c-.3900375.3877236-1.0199625.3877236-1.41 0-.3877236-.3900375-.3877236-1.0199625 0-1.41l2.12-2.13z"/><path id="Shape" d="m54.04 45.55v.01l-2.12 2.12c-.3921222.3893607-1.0256392.3871221-1.415-.005-.3893607-.3921222-.3871221-1.0256392.005-1.415l2.12-2.12z"/></g><path id="Shape" d="m34 31h-24c-.55228475 0-1-.4477153-1-1s.44771525-1 1-1h24c.5522847 0 1 .4477153 1 1s-.4477153 1-1 1z" fill="#e57e25"/></g></g></svg>