<svg height="512" viewBox="0 0 56 58" width="512" xmlns="http://www.w3.org/2000/svg"><g id="Page-1" fill="none" fill-rule="evenodd"><g id="036---Big-Data" fill-rule="nonzero"><path id="Shape" d="m48 41h-19v-3c0-.5522847-.4477153-1-1-1s-1 .4477153-1 1v3h-19c-1.1045695 0-2 .8954305-2 2v3c0 .5522847.44771525 1 1 1s1-.4477153 1-1v-3h19v3c0 .5522847.4477153 1 1 1s1-.4477153 1-1v-3h19v3c0 .5522847.4477153 1 1 1s1-.4477153 1-1v-3c0-1.1045695-.8954305-2-2-2z" fill="#955ba5"/><g fill="#547580"><rect id="Rectangle-path" height="10" rx="2" width="36" x="10"/><rect id="Rectangle-path" height="10" rx="2" width="36" x="10" y="14"/><rect id="Rectangle-path" height="10" rx="2" width="36" x="10" y="28"/></g><path id="Rectangle-path" d="m12 24h32v4h-32z" fill="#35495e"/><path id="Rectangle-path" d="m12 10h32v4h-32z" fill="#35495e"/><circle id="Oval" cx="14" cy="5" fill="#f0c419" r="1"/><circle id="Oval" cx="18" cy="5" fill="#ff5364" r="1"/><path id="Shape" d="m42 6h-12c-.5522847 0-1-.44771525-1-1s.4477153-1 1-1h12c.5522847 0 1 .44771525 1 1s-.4477153 1-1 1z" fill="#3f5c6c"/><circle id="Oval" cx="14" cy="19" fill="#f0c419" r="1"/><circle id="Oval" cx="18" cy="19" fill="#ff5364" r="1"/><path id="Shape" d="m42 20h-12c-.5522847 0-1-.4477153-1-1s.4477153-1 1-1h12c.5522847 0 1 .4477153 1 1s-.4477153 1-1 1z" fill="#3f5c6c"/><circle id="Oval" cx="14" cy="33" fill="#f0c419" r="1"/><circle id="Oval" cx="18" cy="33" fill="#ff5364" r="1"/><path id="Shape" d="m42 34h-12c-.5522847 0-1-.4477153-1-1s.4477153-1 1-1h12c.5522847 0 1 .4477153 1 1s-.4477153 1-1 1z" fill="#3f5c6c"/><rect id="Rectangle-path" fill="#f0c419" height="12" rx="1" width="14" x="21" y="46"/><path id="Shape" d="m32 46v2c0 .5522847-.4477153 1-1 1s-1-.4477153-1-1v-2z" fill="#3f5c6c"/><path id="Shape" d="m25 58v-4c0-.5522847.4477153-1 1-1h4c.5522847 0 1 .4477153 1 1v4z" fill="#ecf0f1"/><rect id="Rectangle-path" fill="#f0c419" height="12" rx="1" width="14" x="42" y="46"/><path id="Shape" d="m46 58v-4c0-.5522847.4477153-1 1-1h4c.5522847 0 1 .4477153 1 1v4z" fill="#ecf0f1"/><path id="Shape" d="m53 46v2c0 .5522847-.4477153 1-1 1s-1-.4477153-1-1v-2z" fill="#3f5c6c"/><rect id="Rectangle-path" fill="#f0c419" height="12" rx="1" width="14" y="46"/><path id="Shape" d="m4 58v-4c0-.5522847.44771525-1 1-1h4c.55228475 0 1 .4477153 1 1v4z" fill="#ecf0f1"/><path id="Shape" d="m11 46v2c0 .5522847-.4477153 1-1 1-.55228475 0-1-.4477153-1-1v-2z" fill="#3f5c6c"/></g></g></svg>