<svg height="512" viewBox="0 0 58 58" width="512" xmlns="http://www.w3.org/2000/svg"><g id="Page-1" fill="none" fill-rule="evenodd"><g id="042---Big-Data" fill-rule="nonzero"><path id="Shape" d="m56 21.93c.0834691 6.0234809-4.7266618 10.9767972-10.75 11.07h-34.23c-5.051969-.0751287-9.0884259-4.2279358-9.02-9.28-.00060981-.5024216.03952169-1.0040654.12-1.5.65706462-4.4235956 4.42819858-7.7159227 8.9-7.77h.18c.6757016-5.03371702 4.9414894-8.80991836 10.02-8.87.9128607-.00333237 1.8216893.1212108 2.7.37 2.2677878-3.68176362 6.2758925-5.93159596 10.6-5.95 6.3112139.08073499 11.6136734 4.76662941 12.47 11.02 4.7036645.8521316 8.3106606 4.6574922 8.91 9.4.0688001.5003556.1022164 1.0049414.1 1.51z" fill="#d1d4d1"/><path id="Shape" d="m55.9 20.42c-.6446562 5.4125475-5.1996478 9.5099015-10.65 9.58h-34.23c-4.47506485-.0548452-8.2473766-3.352439-8.9-7.78.65706462-4.4235956 4.42819858-7.7159227 8.9-7.77h.18c.6757016-5.03371702 4.9414894-8.80991836 10.02-8.87.9128607-.00333237 1.8216893.1212108 2.7.37 2.2677878-3.68176362 6.2758925-5.93159596 10.6-5.95 6.3112139.08073499 11.6136734 4.76662941 12.47 11.02 4.7036645.8521316 8.3106606 4.6574922 8.91 9.4z" fill="#ecf0f1"/><path id="Shape" d="m44 37h-14v-8h7c1.6568542 0 3-1.3431458 3-3v-2c0-.5522847-.4477153-1-1-1s-1 .4477153-1 1v2c0 .5522847-.4477153 1-1 1h-7v-10c0-.5522847-.4477153-1-1-1s-1 .4477153-1 1v10h-7c-.5522847 0-1-.4477153-1-1v-2c0-.5522847-.4477153-1-1-1s-1 .4477153-1 1v2c0 1.6568542 1.3431458 3 3 3h7v8h-14c-1.6568542 0-3 1.3431458-3 3v2c0 .5522847.4477153 1 1 1s1-.4477153 1-1v-2c0-.5522847.4477153-1 1-1h30c.5522847 0 1 .4477153 1 1v2c0 .5522847.4477153 1 1 1s1-.4477153 1-1v-2c0-1.6568542-1.3431458-3-3-3z" fill="#ff5364"/><g fill="#f0c419"><circle id="Oval" cx="19" cy="21" r="3"/><circle id="Oval" cx="39" cy="21" r="3"/><circle id="Oval" cx="29" cy="14" r="3"/></g><rect id="Rectangle-path" fill="#547580" height="6" rx="2" width="24" y="52"/><rect id="Rectangle-path" fill="#547580" height="6" rx="2" width="24" y="42"/><path id="Rectangle-path" d="m2 48h20v4h-20z" fill="#35495e"/><path id="Shape" d="m5 56v2h-2v-2c0-.5522847.44771525-1 1-1s1 .4477153 1 1z" fill="#f0c419"/><path id="Shape" d="m9 56v2h-2v-2c0-.5522847.44771525-1 1-1s1 .4477153 1 1z" fill="#67b9cc"/><path id="Shape" d="m5 46v2h-2v-2c0-.5522847.44771525-1 1-1s1 .4477153 1 1z" fill="#f0c419"/><path id="Shape" d="m9 46v2h-2v-2c0-.5522847.44771525-1 1-1s1 .4477153 1 1z" fill="#67b9cc"/><rect id="Rectangle-path" fill="#547580" height="6" rx="2" width="24" x="34" y="52"/><rect id="Rectangle-path" fill="#547580" height="6" rx="2" width="24" x="34" y="42"/><path id="Rectangle-path" d="m36 48h20v4h-20z" fill="#35495e"/><path id="Shape" d="m39 56v2h-2v-2c0-.5522847.4477153-1 1-1s1 .4477153 1 1z" fill="#f0c419"/><path id="Shape" d="m43 56v2h-2v-2c0-.5522847.4477153-1 1-1s1 .4477153 1 1z" fill="#67b9cc"/><path id="Shape" d="m39 46v2h-2v-2c0-.5522847.4477153-1 1-1s1 .4477153 1 1z" fill="#f0c419"/><path id="Shape" d="m43 46v2h-2v-2c0-.5522847.4477153-1 1-1s1 .4477153 1 1z" fill="#67b9cc"/></g></g></svg>