<svg height="512" viewBox="0 0 58 58" width="512" xmlns="http://www.w3.org/2000/svg"><g id="Page-1" fill="none" fill-rule="evenodd"><g id="030---Search-Code" fill-rule="nonzero"><path id="Shape" d="m50.95 46.71 6.17 6.17c1.1698135 1.1712702 1.1698135 3.0687298 0 4.24-.5617198.5632738-1.3245087.8798486-2.12.8798486s-1.5582802-.3165748-2.12-.8798486l-6.17-6.17z" fill="#5d4c72"/><path id="Shape" d="m20.74 42h-16.74c-2.209139 0-4-1.790861-4-4v-34c0-2.209139 1.790861-4 4-4h42c2.209139 0 4 1.790861 4 4v22.05z" fill="#35495e"/><path id="Shape" d="m50 4v4h-50v-4c0-2.209139 1.790861-4 4-4h42c2.209139 0 4 1.790861 4 4z" fill="#95a5a5"/><circle id="Oval" cx="4" cy="4" fill="#e64c3c" r="1"/><circle id="Oval" cx="8" cy="4" fill="#f0c419" r="1"/><circle id="Oval" cx="12" cy="4" fill="#65ddb9" r="1"/><path id="Shape" d="m46 3c0-.55228475-.4477153-1-1-1s-1 .44771525-1 1c-.5522847 0-1 .44771525-1 1s.4477153 1 1 1c0 .55228475.4477153 1 1 1s1-.44771525 1-1c.5522847 0 1-.44771525 1-1s-.4477153-1-1-1z" fill="#35495e"/><path id="Shape" d="m40 3h-10c-.5522847 0-1 .44771525-1 1s.4477153 1 1 1h10c.5522847 0 1-.44771525 1-1s-.4477153-1-1-1z" fill="#7f8c8d"/><g fill="#ff5364"><path id="Shape" d="m8 21c-.26519481-.0000566-.51950727-.1054506-.707-.293l-4-4c-.39038194-.3904999-.39038194-1.0235001 0-1.414l4-4c.39237889-.3789722 1.01608478-.3735524 1.40181858.0121814.38573379.3857338.39115363 1.0094397.01218142 1.4018186l-3.293 3.293 3.293 3.293c.28590792.2859943.37142191.7160366.21667798 1.0896546-.15474393.3736179-.51928208.6172591-.92367798.6173454z"/><path id="Shape" d="m19 21c-.4043959-.0000863-.7689341-.2437275-.923678-.6173454-.1547439-.373618-.0692299-.8036603.216678-1.0896546l3.293-3.293-3.293-3.293c-.3789722-.3923789-.3735524-1.0160848.0121814-1.4018186s1.0094397-.3911536 1.4018186-.0121814l4 4c.3903819.3904999.3903819 1.0235001 0 1.414l-4 4c-.1874927.1875494-.4418052.2929434-.707.293z"/><path id="Shape" d="m12 21c-.1200944-.0004789-.2391947-.0217951-.352-.063-.2484247-.0931594-.4496452-.281224-.5593638-.5227925s-.1189407-.5168373-.0256362-.7652075l3-8c.1932997-.5174908.7695092-.7802997 1.287-.587s.7802997.7695092.587 1.287l-3 8c-.1457526.3913699-.5193707.6509487-.937.651z"/></g><circle id="Oval" cx="37" cy="37" fill="#955ba5" r="17"/><path id="Shape" d="m50 37c-.019385 6.9036339-5.4455446 12.5810236-12.3412369 12.9126337-6.8956923.33161-12.841598-4.7989033-13.5233455-11.6688202-.6817474-6.8699168 4.139851-13.0689611 10.9662253-14.0990829 6.8263744-1.0301218 13.2625252 3.4700921 14.6383571 10.2352694.1731087.8625844.260202 1.7402168.26 2.62z" fill="#67b9cc"/><path id="Shape" d="m50 37c-.001398 5.1438232-3.0356169 9.8030971-7.7394864 11.8845702-4.7038696 2.0814731-10.1926863 1.193662-14.0005136-2.2645702-.1731087-.8625844-.260202-1.7402168-.26-2.62.001398-5.1438232 3.0356169-9.8030971 7.7394864-11.8845702 4.7038696-2.0814731 10.1926863-1.193662 14.0005136 2.2645702.1731087.8625844.260202 1.7402168.26 2.62z" fill="#2fa8cc"/><path id="Shape" d="m45 42c-.5522847 0-1-.4477153-1-1v-5.586l-.293.293c-.3923789.3789722-1.0160848.3735524-1.4018186-.0121814s-.3911536-1.0094397-.0121814-1.4018186l2-2c.2859943-.2859079.7160366-.3714219 1.0896546-.216678.3736179.1547439.6172591.5192821.6173454.923678v8c0 .5522847-.4477153 1-1 1z" fill="#3d324c"/><path id="Shape" d="m31 42c-.5522847 0-1-.4477153-1-1v-5.586l-.293.293c-.3923789.3789722-1.0160848.3735524-1.4018186-.0121814s-.3911536-1.0094397-.0121814-1.4018186l2-2c.2859943-.2859079.7160366-.3714219 1.0896546-.216678.3736179.1547439.6172591.5192821.6173454.923678v8c0 .5522847-.4477153 1-1 1z" fill="#3d324c"/><path id="Shape" d="m37 42c-1.6568542 0-3-1.3431458-3-3v-4c0-1.6568542 1.3431458-3 3-3s3 1.3431458 3 3v4c0 1.6568542-1.3431458 3-3 3zm0-8c-.5522847 0-1 .4477153-1 1v4c0 .5522847.4477153 1 1 1s1-.4477153 1-1v-4c0-.5522847-.4477153-1-1-1z" fill="#3d324c"/></g></g></svg>