   <svg xmlns="http://www.w3.org/2000/svg" x="0px" y="0px" width="60" height="60"
                                    viewBox="0 0 172 172" style=" fill:#000000;">
                                    <g fill="none" fill-rule="nonzero" stroke="none" stroke-width="1" stroke-linecap="butt"
                                        stroke-linejoin="miter" stroke-miterlimit="10" stroke-dasharray=""
                                        stroke-dashoffset="0" font-family="none" font-weight="none" font-size="none"
                                        text-anchor="none" style="mix-blend-mode: normal">
                                        <path d="M0,172v-172h172v172z" fill="none"></path>
                                        <g fill="#007bff">
                                            <path
                                                d="M2.795,34.4c-1.63937,0.30906 -2.82187,1.76031 -2.795,3.44v96.32c0,1.89469 1.54531,3.44 3.44,3.44h165.12c1.89469,0 3.44,-1.54531 3.44,-3.44v-96.32c0,-1.89469 -1.54531,-3.44 -3.44,-3.44h-165.12c-0.1075,0 -0.215,0 -0.3225,0c-0.1075,0 -0.215,0 -0.3225,0zM6.88,41.28h158.24v89.44h-158.24zM26.5525,58.48c-1.89469,0.26875 -3.225,2.02906 -2.95625,3.92375c0.26875,1.89469 2.02906,3.225 3.92375,2.95625h72.24c1.23625,0.01344 2.39188,-0.63156 3.02344,-1.70656c0.61813,-1.075 0.61813,-2.39187 0,-3.46687c-0.63156,-1.075 -1.78719,-1.72 -3.02344,-1.70656h-72.24c-0.1075,0 -0.215,0 -0.3225,0c-0.1075,0 -0.215,0 -0.3225,0c-0.1075,0 -0.215,0 -0.3225,0zM134.16,61.92v4.085c-3.9775,1.43781 -6.88,5.22719 -6.88,9.675v5.375c-0.01344,1.10188 0.51063,2.13656 1.3975,2.795l12.3625,9.245v3.225c0,1.94844 -1.49156,3.44 -3.44,3.44c-1.94844,0 -3.44,-1.49156 -3.44,-3.44v-3.44h-6.88v3.44c0,4.44781 2.9025,8.23719 6.88,9.675v4.085h6.88v-4.085c3.9775,-1.43781 6.88,-5.22719 6.88,-9.675v-4.945c-0.02687,-1.06156 -0.5375,-2.05594 -1.3975,-2.6875l-12.3625,-9.245v-3.7625c0,-1.94844 1.49156,-3.44 3.44,-3.44c1.94844,0 3.44,1.49156 3.44,3.44v3.44h6.88v-3.44c0,-4.44781 -2.9025,-8.23719 -6.88,-9.675v-4.085zM26.5525,72.24c-1.89469,0.26875 -3.225,2.02906 -2.95625,3.92375c0.26875,1.89469 2.02906,3.225 3.92375,2.95625h58.48c1.23625,0.01344 2.39188,-0.63156 3.02344,-1.70656c0.61813,-1.075 0.61813,-2.39187 0,-3.46687c-0.63156,-1.075 -1.78719,-1.72 -3.02344,-1.70656h-58.48c-0.1075,0 -0.215,0 -0.3225,0c-0.1075,0 -0.215,0 -0.3225,0c-0.1075,0 -0.215,0 -0.3225,0zM38.915,92.235c-5.375,0 -8.93594,3.84313 -11.18,6.9875c-2.24406,3.14438 -3.44,6.235 -3.44,6.235c-0.51062,1.16906 -0.3225,2.52625 0.48375,3.52063c0.79281,0.99437 2.06938,1.46469 3.3325,1.22281c1.24969,-0.24187 2.2575,-1.15562 2.63375,-2.37844c0,0 0.92719,-2.29781 2.58,-4.6225c1.65281,-2.32469 3.655,-4.085 5.59,-4.085c0.61813,0 1.92156,0.60469 3.3325,2.4725c1.15563,1.51844 2.16344,3.87 3.01,6.1275c-0.17469,0.37625 -0.48375,0.68531 -0.645,1.075c-1.19594,2.86219 -2.01562,5.6975 -2.0425,8.385c-0.01344,1.34375 0.1075,2.66063 0.9675,4.085c0.86,1.42438 2.88906,2.58 4.6225,2.58c1.92156,0 3.91031,-1.35719 4.73,-2.795c0.81969,-1.43781 1.00781,-2.82187 1.075,-4.3c0.12094,-2.51281 -0.51062,-5.42875 -1.29,-8.2775c0.65844,-1.12875 1.23625,-2.40531 1.935,-3.225c1.33031,-1.55875 2.56656,-2.0425 2.58,-2.0425c0.12094,0 0.84656,0.215 1.8275,1.3975c0.81969,0.98094 1.62594,2.58 2.2575,4.085c-1.06156,1.89469 -1.97531,3.70875 -2.15,5.805c-0.09406,1.10188 -0.04031,2.41875 0.86,3.7625c0.90031,1.34375 2.78156,2.15 4.1925,2.15c1.62594,0 3.38625,-1.11531 4.1925,-2.365c0.80625,-1.24969 1.02125,-2.37844 1.075,-3.5475c0.06719,-1.41094 -0.41656,-2.94281 -0.7525,-4.4075c0.57781,-0.77937 1.12875,-1.70656 1.72,-2.2575c1.06156,-0.98094 2.00219,-1.1825 1.8275,-1.1825c-0.1075,0 -0.08062,-0.13437 0.43,0.43c0.51063,0.56438 1.16906,1.67969 1.8275,2.9025c0.65844,1.22281 1.38406,2.59344 2.2575,3.87c0.43,0.645 0.86,1.31688 1.6125,1.935c0.7525,0.61813 1.86781,1.1825 3.225,1.1825c2.06938,0 3.42656,-0.99437 4.515,-1.8275c1.08844,-0.83312 2.01563,-1.65281 2.9025,-2.4725c1.78719,-1.63937 3.37281,-2.58 3.87,-2.58c1.23625,0.01344 2.39188,-0.63156 3.02344,-1.70656c0.61813,-1.075 0.61813,-2.39187 0,-3.46687c-0.63156,-1.075 -1.78719,-1.72 -3.02344,-1.70656c-4.00437,0 -6.54406,2.49938 -8.4925,4.3c-0.86,0.79281 -1.57219,1.57219 -2.15,2.0425c-0.43,-0.69875 -0.98094,-1.6125 -1.6125,-2.795c-0.72562,-1.35719 -1.57219,-2.82187 -2.795,-4.1925c-1.22281,-1.37062 -3.15781,-2.795 -5.59,-2.795c-2.75469,0 -4.75687,1.45125 -6.45,3.01c-0.49719,-0.83312 -0.77937,-1.73344 -1.3975,-2.4725c-1.69312,-2.0425 -4.05812,-3.9775 -7.2025,-3.9775c-3.44,0 -5.88562,2.09625 -7.8475,4.4075c-0.59125,-1.06156 -0.90031,-2.28437 -1.6125,-3.225c-2.09625,-2.76812 -4.99875,-5.2675 -8.815,-5.2675z">
                                            </path>
                                        </g>
                                    </g>
                                </svg>