<svg xmlns="http://www.w3.org/2000/svg" x="0px" y="0px"
            width="70" height="70"
            viewBox="0 0 172 172"
            style=" fill:#000000;"><g fill="none" fill-rule="nonzero" stroke="none" stroke-width="1" stroke-linecap="butt" stroke-linejoin="miter" stroke-miterlimit="10" stroke-dasharray="" stroke-dashoffset="0" font-family="none" font-weight="none" font-size="none" text-anchor="none" style="mix-blend-mode: normal"><path d="M0,172v-172h172v172z" fill="none"></path><g fill="#3498db"><path d="M154.8,24.08h-137.6c-9.63469,0 -17.2,7.56531 -17.2,17.2v89.44c0,9.63469 7.56531,17.2 17.2,17.2h137.6c9.63469,0 17.2,-7.56531 17.2,-17.2v-89.44c0,-9.63469 -7.56531,-17.2 -17.2,-17.2zM24.08,96.32l-10.32,-10.32l10.32,-10.32zM65.36,96.32c0,2.06938 -1.37062,3.44 -3.44,3.44h-24.08c-2.06937,0 -3.44,-1.37062 -3.44,-3.44v-20.64c0,-2.06937 1.37063,-3.44 3.44,-3.44h24.08c2.06938,0 3.44,1.37063 3.44,3.44zM144.48,116.96h-55.04v-3.44c0.68531,-13.07469 17.88531,-11.00531 20.29063,-17.88531c0.34937,-2.40531 0,-3.78937 0,-6.19469c-1.02125,-0.68531 -3.09063,-4.12531 -3.44,-6.88c-0.68531,0 -2.05594,-1.03469 -2.40531,-4.12531c-0.33594,-1.72 0.68531,-2.75469 1.03469,-3.10406c-2.40531,-10.65594 -0.34937,-20.29063 12.04,-20.29063c3.09063,0 5.50938,0.68531 6.53063,2.40531c9.29875,1.38406 6.54406,13.76 5.16,17.88531c0.34937,0.34937 1.38406,1.38406 1.03469,3.10406c-0.33594,3.09063 -1.72,4.12531 -2.40531,4.12531c-0.34937,3.09063 -2.06937,6.53063 -3.44,6.88c0,2.06938 0,3.78938 0,6.19469c2.40531,6.88 19.60531,4.81063 20.29063,17.88531v3.44z"></path></g></g></svg>