<svg xmlns="http://www.w3.org/2000/svg" x="0px" y="0px"
width="70" height="70"
viewBox="0 0 172 172"
style=" fill:#000000;"><g fill="none" fill-rule="nonzero" stroke="none" stroke-width="1" stroke-linecap="butt" stroke-linejoin="miter" stroke-miterlimit="10" stroke-dasharray="" stroke-dashoffset="0" font-family="none" font-weight="none" font-size="none" text-anchor="none" style="mix-blend-mode: normal"><path d="M0,172v-172h172v172z" fill="none"></path><g fill="#ffffff"><path d="M120.4,20.64c-5.68406,0 -10.32,4.63594 -10.32,10.32v27.52c0,5.68406 4.63594,10.32 10.32,10.32h41.28c5.68406,0 10.32,-4.63594 10.32,-10.32v-27.52c0,-5.68406 -4.63594,-10.32 -10.32,-10.32zM103.2,48.16l-34.4,25.8v8.6l34.4,-25.8zM10.32,61.92c-5.68406,0 -10.32,4.63594 -10.32,10.32v27.52c0,5.68406 4.63594,10.32 10.32,10.32h41.28c5.68406,0 10.32,-4.63594 10.32,-10.32v-27.52c0,-5.68406 -4.63594,-10.32 -10.32,-10.32zM68.8,89.44v8.6l34.4,25.8v-8.6zM120.4,103.2c-5.68406,0 -10.32,4.63594 -10.32,10.32v27.52c0,5.68406 4.63594,10.32 10.32,10.32h41.28c5.68406,0 10.32,-4.63594 10.32,-10.32v-27.52c0,-5.68406 -4.63594,-10.32 -10.32,-10.32z"></path></g></g></svg>