<svg xmlns="http://www.w3.org/2000/svg" x="0px" y="0px"
                  width="80" height="80"
                  viewBox="0 0 172 172"
                  style=" fill:#000000;"><g fill="none" fill-rule="nonzero" stroke="none" stroke-width="1" stroke-linecap="butt" stroke-linejoin="miter" stroke-miterlimit="10" stroke-dasharray="" stroke-dashoffset="0" font-family="none" font-weight="none" font-size="none" text-anchor="none" style="mix-blend-mode: normal"><path d="M0,172v-172h172v172z" fill="none"></path><g fill="#ffffff"><path d="M55.04,0c-30.3408,0 -55.04,24.6992 -55.04,55.04c0,30.3408 24.6992,55.04 55.04,55.04h0.37625c1.1696,-10.5264 5.02375,-20.29788 10.83735,-28.58828c-0.6192,0.3784 -1.24028,0.72428 -1.92828,1.06828c-2.064,0.688 -4.128,1.37735 -6.88,1.37735v6.18797h-4.12531v-6.18797c-5.16,-0.344 -9.288,-2.40666 -12.04,-5.50266c-3.096,-3.096 -4.816,-7.22803 -5.16,-12.73203h6.53735c-0.344,3.784 1.02797,6.53735 2.74797,8.25735c2.064,2.064 4.47603,3.09465 7.57203,3.78265v-20.29734c-2.752,-0.688 -5.16,-1.37466 -6.88,-2.06266c-2.064,-0.688 -3.44135,-1.71597 -4.81735,-2.74797c-1.376,-1.032 -2.41069,-2.41203 -2.75469,-4.13203c-0.688,-1.72 -1.02797,-3.43731 -1.02797,-5.84531c0,-2.408 0.34534,-4.47469 1.37734,-6.19469c0.688,-2.064 2.064,-3.44 3.44,-5.16c1.376,-1.376 3.096,-2.408 5.16,-3.44c2.064,-0.688 4.12397,-1.37734 6.18797,-1.37734v-5.16h4.13203v5.16c4.128,0.344 7.56263,2.06669 9.97063,4.47469c2.408,2.408 4.128,6.19065 5.16,10.66265h-6.53063c-1.032,-5.16 -3.784,-7.91065 -8.6,-8.94265v18.92l4.46797,1.37735c1.032,0.344 2.064,0.68934 3.44,1.37734c1.376,0.688 2.75603,1.37197 4.13203,2.74797c1.376,1.032 2.40263,2.41203 3.09063,4.13203c1.032,1.72 1.37734,3.77997 1.37734,6.18797c0,2.0296 -0.23838,4.02695 -0.96078,5.64375c9.6664,-9.5976 22.49653,-16.06775 36.73813,-17.65015v-0.37625c0,-30.3408 -24.6992,-55.04 -55.04,-55.04zM138.60781,1.00781l-19.63219,19.63219l19.63219,19.63219l4.86437,-4.86437l-11.32781,-11.32781h15.77563c9.47563,0 17.2,7.72436 17.2,17.2v20.64h6.88v-20.64c0,-13.22836 -10.85163,-24.08 -24.08,-24.08h-15.77563l11.32781,-11.32781zM52.97735,33.02266c-2.06744,0 -4.47469,0.68531 -6.19469,2.40531c-1.71656,1.37944 -2.40531,3.78535 -2.40531,6.53735c0,1.37256 0.34475,2.408 0.68531,3.44c0.34744,1.032 1.03544,1.72403 1.72,2.41203c0.688,0.68456 1.71925,1.032 2.75469,1.72c1.032,0.344 2.40456,1.03006 3.44,1.37062zM57.44531,58.82265v19.26266c1.37256,-0.34744 2.75737,-0.68397 3.78937,-1.02797c1.032,-0.34744 2.40263,-1.03544 3.09063,-1.72c1.032,-0.688 1.72537,-1.72135 2.06937,-3.09735c0.34744,-1.032 0.68531,-2.74931 0.68531,-4.12531c0,-1.37256 -0.34131,-2.75737 -0.68531,-3.78937c-0.344,-1.032 -1.03737,-1.71731 -2.06937,-2.40531c-1.032,-0.688 -2.06207,-1.376 -3.09063,-1.72c-1.37256,-0.344 -2.41337,-1.03335 -3.78937,-1.37735zM116.96,61.92c-2.5112,0 -4.98935,0.17335 -7.39735,0.51735c-24.4584,3.3024 -43.82291,22.66691 -47.12531,47.12531c-0.344,2.408 -0.51735,4.88615 -0.51735,7.39735c0,30.3408 24.6992,55.04 55.04,55.04c0.9976,0 1.92748,-0.03279 2.82187,-0.06719c1.4792,-0.0344 2.81811,-0.17066 4.12531,-0.34266c0.688,-0.1032 1.34106,-0.21258 2.02906,-0.31578c0.6536,-0.1032 1.34187,-0.23865 1.99547,-0.37625c0.4472,-0.1032 0.93015,-0.20506 1.37735,-0.34266c20.4336,-4.6784 36.568,-20.8128 41.2464,-41.2464c0.1376,-0.4472 0.23945,-0.93015 0.34266,-1.37735c0.1376,-0.6536 0.27305,-1.34187 0.37625,-1.99547c0.1376,-0.6536 0.24698,-1.34106 0.31578,-2.02906c0.172,-1.3072 0.30826,-2.64611 0.34266,-4.12531c0.0344,-0.8944 0.06719,-1.82427 0.06719,-2.82187c0,-30.3408 -24.6992,-55.04 -55.04,-55.04zM109.22,85.14h5.16v8.01547h5.09281h0.06719v-8.01547h5.16v8.6336c6.2264,1.5136 9.83625,5.88079 9.83625,12.10719c0,5.2632 -3.88317,10.08485 -8.76797,10.94485v0.58453c6.9488,0.86 11.34797,5.64026 11.34797,12.38266c0,7.5336 -4.50425,12.48478 -12.41625,13.86078v8.5664h-5.16v-8.14985h-5.16v8.14985h-5.16v-8.14985h-9.21813v-50.91469h9.21813zM106.36453,98.76563v16.34h10.14531c0.9632,0 1.86969,-0.04858 2.71437,-0.13438c0.84468,-0.0858 1.63265,-0.21178 2.35828,-0.38297c0.72563,-0.1712 1.38944,-0.38209 1.99547,-0.63828c0.60603,-0.25619 1.15348,-0.55954 1.63938,-0.90031c0.4859,-0.34077 0.91133,-0.72394 1.27656,-1.1489c0.36523,-0.42496 0.66973,-0.88875 0.91375,-1.3975c0.24403,-0.50875 0.42866,-1.06069 0.55094,-1.65281c0.12228,-0.59212 0.1814,-1.2263 0.1814,-1.9014c0,-0.645 -0.05496,-1.25762 -0.16797,-1.83422c-0.11301,-0.57661 -0.28192,-1.11451 -0.5039,-1.61922c-0.22199,-0.50471 -0.49947,-0.97489 -0.82641,-1.40422c-0.32693,-0.42933 -0.70762,-0.81861 -1.13547,-1.16906c-0.42785,-0.35045 -0.89964,-0.65911 -1.42438,-0.92719c-0.52473,-0.26808 -1.10241,-0.49638 -1.72,-0.67859c-0.61759,-0.18221 -1.27562,-0.32371 -1.98203,-0.41656c-0.70641,-0.09285 -1.45958,-0.13437 -2.25078,-0.13437zM3.44,110.08v20.64c0,13.22837 10.85164,24.08 24.08,24.08h12.33563l-11.32781,11.32781l4.86437,4.86437l19.63219,-19.63219l-19.63219,-19.63219l-4.86437,4.86437l11.32781,11.32781h-12.33563c-9.47564,0 -17.2,-7.72437 -17.2,-17.2v-20.64zM106.36453,120.57469v17.88531h12.55734c0.9589,0 1.85767,-0.0516 2.70094,-0.14781c0.84327,-0.09621 1.63185,-0.23865 2.35828,-0.43c0.72643,-0.19135 1.3938,-0.42677 2.00219,-0.71219c0.60838,-0.28541 1.15697,-0.61598 1.64609,-0.99437c0.48913,-0.3784 0.91462,-0.80625 1.28328,-1.27656c0.36866,-0.47031 0.68021,-0.98416 0.92719,-1.54531c0.24698,-0.56115 0.43356,-1.16987 0.55765,-1.82078c0.12409,-0.65091 0.18813,-1.34321 0.18813,-2.08281c0,-1.4706 -0.26284,-2.76221 -0.77938,-3.87c-0.25827,-0.55389 -0.58151,-1.06257 -0.9675,-1.52515c-0.38599,-0.46259 -0.8377,-0.87881 -1.35047,-1.24969c-0.51278,-0.37088 -1.0881,-0.69546 -1.72672,-0.97422c-0.63862,-0.27876 -1.33945,-0.51251 -2.10297,-0.69875c-0.76352,-0.18625 -1.58502,-0.32996 -2.4725,-0.42328c-0.88748,-0.09332 -1.83825,-0.13438 -2.84875,-0.13438z"></path></g></g></svg>