<svg xmlns="http://www.w3.org/2000/svg" x="0px" y="0px" width="70" height="70" viewBox="0 0 172 172"
            style=" fill:#000000;">
            <g fill="none" fill-rule="nonzero" stroke="none" stroke-width="1" stroke-linecap="butt"
              stroke-linejoin="miter" stroke-miterlimit="10" stroke-dasharray="" stroke-dashoffset="0"
              font-family="none" font-weight="none" font-size="none" text-anchor="none" style="mix-blend-mode: normal">
              <path d="M0,172v-172h172v172z" fill="none"></path>
              <g fill="#2ecc71">
                <path
                  d="M137.6,17.2c-11.38296,0 -20.64,9.25704 -20.64,20.64c0,6.73208 3.25559,12.70085 8.25735,16.46765c-8.96464,4.13832 -15.13735,12.594 -15.13735,22.35328v12.16094c0,1.14552 0.569,2.21563 1.51844,2.85547c0.7052,0.47472 7.429,4.64265 26.00156,4.64265c18.57256,0 25.29636,-4.16793 26.00156,-4.64265c0.94944,-0.63984 1.51844,-1.70995 1.51844,-2.85547v-12.16094c0,-9.75584 -6.17271,-18.21496 -15.13735,-22.35328c5.00176,-3.7668 8.25735,-9.73557 8.25735,-16.46765c0,-11.38296 -9.25704,-20.64 -20.64,-20.64zM10.32,24.08c-1.892,0 -3.44,1.548 -3.44,3.44v58.48c0,1.892 1.548,3.44 3.44,3.44h61.92c1.892,0 3.44,-1.548 3.44,-3.44v-58.48c0,-1.892 -1.548,-3.44 -3.44,-3.44zM30.96,37.84h20.64c1.892,0 3.44,1.548 3.44,3.44c0,1.892 -1.548,3.44 -3.44,3.44h-20.64c-1.892,0 -3.44,-1.548 -3.44,-3.44c0,-1.892 1.548,-3.44 3.44,-3.44zM41.22625,96.27297c-1.89722,0.02966 -3.41223,1.58976 -3.38625,3.48703v48.16c0.00019,1.89978 1.54022,3.43981 3.44,3.44h95.74219c1.12302,0.19088 2.26771,-0.18649 3.05703,-1.00781c0.00224,-0.00224 0.00448,-0.00448 0.00672,-0.00672c0.00675,-0.00669 0.01347,-0.01341 0.02016,-0.02015c0.00901,-0.00891 0.01797,-0.01787 0.02687,-0.02688c0.74283,-0.77873 1.07846,-1.86019 0.90703,-2.92265v-32.43141l7.88781,7.88781c0.86281,0.89867 2.14404,1.26068 3.34956,0.94641c1.20552,-0.31427 2.14696,-1.2557 2.46122,-2.46122c0.31427,-1.20552 -0.04774,-2.48675 -0.94641,-3.34956l-13.76,-13.76c-0.65815,-0.65846 -1.55506,-1.02207 -2.48594,-1.00781c-0.89362,0.01425 -1.74663,0.37569 -2.37844,1.00781l-13.76,13.76c-0.89867,0.86281 -1.26068,2.14404 -0.94641,3.34956c0.31427,1.20552 1.2557,2.14696 2.46122,2.46122c1.20552,0.31427 2.48675,-0.04774 3.34956,-0.94641l7.88781,-7.88781v29.53563h-89.44v-44.72c0.01273,-0.92983 -0.35149,-1.82522 -1.00967,-2.48214c-0.65819,-0.65692 -1.55427,-1.01942 -2.48408,-1.00489z">
                </path>
              </g>
            </g>
          </svg>