<svg xmlns="http://www.w3.org/2000/svg" x="0px" y="0px"
            width="70" height="70"
            viewBox="0 0 172 172"
            style=" fill:#000000;"><g fill="none" fill-rule="nonzero" stroke="none" stroke-width="1" stroke-linecap="butt" stroke-linejoin="miter" stroke-miterlimit="10" stroke-dasharray="" stroke-dashoffset="0" font-family="none" font-weight="none" font-size="none" text-anchor="none" style="mix-blend-mode: normal"><path d="M0,172v-172h172v172z" fill="none"></path><g fill="#ef4106"><path d="M86,0.33594c-6.81464,0 -12.9724,3.24096 -21.49328,7.71984c-10.97704,5.77576 -26.01946,13.67938 -51.48578,19.26938l-2.70094,0.59125v2.76812c0,104.7996 73.49243,139.94022 74.23547,140.28078l1.51844,0.69875l1.48485,-0.75922c0.7396,-0.3784 74.12125,-38.91231 74.12125,-140.22031v-2.76812l-2.70094,-0.59125c-25.46632,-5.59 -40.50874,-13.49361 -51.48578,-19.26937c-8.52088,-4.47888 -14.67864,-7.71984 -21.49328,-7.71984zM79.12,41.28h14.44531l1.72,11.00531c1.032,0.344 2.408,0.68934 3.44,1.37734l8.94937,-6.53734l9.97063,9.97734l-6.18797,9.29203c0.688,1.032 1.03334,2.408 1.37734,3.44l11.00531,1.72v14.44531l-10.66265,2.06265c-0.344,1.032 -0.68935,2.40666 -1.37735,3.78266l6.53735,8.94937l-10.32,10.32l-9.29203,-6.19469c-1.376,0.688 -2.408,1.03335 -3.44,1.37735l-2.06266,10.66265h-14.10265l-1.72,-11.00531c-1.376,-0.344 -2.40665,-0.68934 -3.78265,-1.37734l-9.29203,6.18797l-10.32,-10.32l6.19469,-9.28531c-0.688,-1.032 -1.03335,-2.408 -1.37735,-3.44l-10.66265,-1.72v-14.44531l10.66265,-1.72c0.344,-1.376 1.03335,-2.41337 1.37735,-3.78937l-6.19469,-8.6l10.32,-10.32l9.29203,6.53734c1.032,-0.688 2.408,-1.03334 3.44,-1.37734zM86,68.8c-5.69958,0 -10.32,4.62042 -10.32,10.32c0,5.69958 4.62042,10.32 10.32,10.32c5.69958,0 10.32,-4.62042 10.32,-10.32c0,-5.69958 -4.62042,-10.32 -10.32,-10.32z"></path></g></g></svg>