<svg xmlns="http://www.w3.org/2000/svg" x="0px" y="0px"
              width="80" height="80"
              viewBox="0 0 172 172"
              style=" fill:#000000;"><g fill="none" fill-rule="nonzero" stroke="none" stroke-width="1" stroke-linecap="butt" stroke-linejoin="miter" stroke-miterlimit="10" stroke-dasharray="" stroke-dashoffset="0" font-family="none" font-weight="none" font-size="none" text-anchor="none" style="mix-blend-mode: normal"><path d="M0,172v-172h172v172z" fill="none"></path><g fill="#ffffff"><path d="M34.4,13.76c-13.27625,0 -24.08,10.80375 -24.08,24.08v6.88c0,1.89469 1.54531,3.44 3.44,3.44h89.44c1.90813,0 3.44,-1.54531 3.44,-3.44v-10.32c0,-8.76125 4.70313,-16.42062 11.7175,-20.64zM130.72,17.2c-9.50031,0 -17.2,7.69969 -17.2,17.2v10.32c0,5.68406 -4.63594,10.32 -10.32,10.32h-72.24v99.76c0,1.90813 1.54531,3.44 3.44,3.44h51.6v7.2025c-0.01344,1.30344 0.71219,2.49938 1.88125,3.09063c1.15563,0.59125 2.55313,0.48375 3.60125,-0.29563l11.7175,-8.815l11.7175,8.815c1.04813,0.77938 2.44563,0.88688 3.60125,0.29563c1.16906,-0.59125 1.89469,-1.78719 1.88125,-3.09063v-7.2025h24.08c1.90813,0 3.44,-1.53187 3.44,-3.44v-120.4c0,-9.50031 -7.69969,-17.2 -17.2,-17.2zM55.04,65.36h68.8v6.88h-68.8zM55.04,86h68.8v6.88h-68.8zM103.2,103.845c2.40531,0 4.15219,1.37063 4.8375,3.44c0.34938,0.34938 0.30906,0.43 0.645,0.43c0.79281,-0.48375 1.73344,-0.7525 2.6875,-0.7525c1.10188,0 2.29781,0.33594 3.225,1.075c1.72,1.37063 1.97531,3.41313 1.29,5.4825c0,0.34938 0.43,0.30906 0.43,0.645c2.06938,0.34938 3.74906,2.13656 4.085,4.1925c0.34938,2.06938 -0.645,4.12531 -2.365,5.16v0.9675c1.03469,1.37063 1.35719,3.87 0.3225,5.59c-0.90031,1.505 -2.62031,2.4725 -4.4075,2.4725c-0.26875,0 -0.49719,-0.06719 -0.7525,-0.1075c0,0.34938 -0.41656,0.30906 -0.7525,0.645c0,2.06938 -0.94062,3.82969 -3.01,4.515c-0.68531,0.34938 -1.03469,0.3225 -1.72,0.3225c-1.37062,0 -2.83531,-0.68531 -3.87,-1.72h-1.29c-1.00781,1.00781 -2.39187,1.6125 -3.87,1.6125c-0.5375,0 -1.16906,-0.02687 -1.72,-0.215c-1.72,-0.68531 -3.01,-2.44562 -3.01,-4.515c0,-0.34937 -0.40312,-0.30906 -0.7525,-0.645c-0.26875,0.04031 -0.48375,0.1075 -0.7525,0.1075c-1.78719,0 -3.50719,-0.9675 -4.4075,-2.4725c-1.03469,-1.72 -1.06156,-3.87 0.3225,-5.59v-0.9675c-1.72,-1.03469 -2.71437,-3.09062 -2.365,-5.16c0.34938,-2.06937 2.01563,-3.85656 4.085,-4.1925c0,-0.34937 0.43,-0.30906 0.43,-0.645c-0.68531,-2.06937 -0.43,-4.09844 1.29,-5.4825c0.92719,-0.73906 2.12313,-1.075 3.225,-1.075c0.95406,0 1.89469,0.26875 2.6875,0.7525c0.34938,-0.34937 0.30906,-0.43 0.645,-0.43c0.68531,-2.06937 2.76813,-3.44 4.8375,-3.44zM92.88,143.19c0.51063,0.30906 1.04813,0.52406 1.6125,0.7525c0.12094,0.05375 0.20156,0.17469 0.3225,0.215c1.23625,0.41656 2.56656,0.5375 3.87,0.5375c1.53188,0 2.98313,-0.29562 4.4075,-0.86c1.45125,0.61813 3.09063,0.9675 4.6225,0.9675c1.19594,0 2.52625,-0.06719 4.3,-0.86c0.51063,-0.18812 1.03469,-0.38969 1.505,-0.645v15.3725l-8.2775,-6.235c-1.20937,-0.90031 -2.87562,-0.90031 -4.085,0l-8.2775,6.235z"></path></g></g></svg>