<svg xmlns="http://www.w3.org/2000/svg" width="60" height="60" viewBox="0 0 172 172">
  <g fill="none" stroke-miterlimit="10" font-family="none" font-weight="none" font-size="none" text-anchor="none" style="mix-blend-mode:normal">
    <path d="M0 172V0h172v172z"/>
    <path d="M44.075 24.08a3.462 3.462 0 00-3.118 3.763 3.462 3.462 0 003.763 3.117h22.575L7.848 90.407a3.487 3.487 0 000 4.946 3.487 3.487 0 004.945 0L72.24 35.904V58.48a3.46 3.46 0 001.707 3.023 3.473 3.473 0 003.466 0 3.46 3.46 0 001.707-3.023v-34.4H44.075zm72.885 13.76V172h48.16V37.84zm6.88 6.88h34.4v120.4h-34.4zM61.92 82.56V172h48.16V82.56zm6.88 6.88h34.4v75.68H68.8zM6.88 120.4V172h48.16v-51.6zm6.88 6.88h34.4v37.84h-34.4z" fill="#2138c9"/>
  </g>
</svg>