<svg xmlns="http://www.w3.org/2000/svg" x="0px" y="0px"
width="50" height="50"
viewBox="0 0 172 172"
style=" fill:#000000;"><g fill="none" fill-rule="nonzero" stroke="none" stroke-width="1" stroke-linecap="butt" stroke-linejoin="miter" stroke-miterlimit="10" stroke-dasharray="" stroke-dashoffset="0" font-family="none" font-weight="none" font-size="none" text-anchor="none" style="mix-blend-mode: normal"><path d="M0,172v-172h172v172z" fill="none"></path><g fill="#ff4500"><path d="M86,6.88c-43.62952,0 -79.12,35.49048 -79.12,79.12c0,43.62952 35.49048,79.12 79.12,79.12c43.62952,0 79.12,-35.49048 79.12,-79.12c0,-15.6864 -4.60863,-30.30871 -12.51031,-42.61703l-4.70984,5.56313c6.5188,10.84976 10.34015,23.5003 10.34015,37.0539c0,39.83176 -32.40824,72.24 -72.24,72.24c-39.83176,0 -72.24,-32.40824 -72.24,-72.24c0,-39.83176 32.40824,-72.24 72.24,-72.24c18.72392,0 35.75504,7.22319 48.60344,18.95359l4.50156,-5.31453c-14.0524,-12.7452 -32.6886,-20.51906 -53.105,-20.51906zM148.73297,26.67344l-66.4686,78.43469l-27.97687,-26.09563l-4.68969,5.03235l33.25109,31.01375l71.13813,-83.93735z"></path></g></g></svg>