            <svg xmlns="http://www.w3.org/2000/svg" x="0px" y="0px" width="60" height="60" viewBox="0 0 172 172"
              style=" fill:#000000;">
              <g fill="none" fill-rule="nonzero" stroke="none" stroke-width="1" stroke-linecap="butt"
                stroke-linejoin="miter" stroke-miterlimit="10" stroke-dasharray="" stroke-dashoffset="0"
                font-family="none" font-weight="none" font-size="none" text-anchor="none"
                style="mix-blend-mode: normal">
                <path d="M0,172v-172h172v172z" fill="none"></path>
                <g fill="#9b59b6">
                  <path
                    d="M44.72,6.88c-9.50031,0 -17.2,7.69969 -17.2,17.2c0,9.50031 7.69969,17.2 17.2,17.2c9.50031,0 17.2,-7.69969 17.2,-17.2c0,-9.50031 -7.69969,-17.2 -17.2,-17.2zM141.04,6.88c-9.50031,0 -17.2,7.69969 -17.2,17.2c0,9.50031 7.69969,17.2 17.2,17.2c9.50031,0 17.2,-7.69969 17.2,-17.2c0,-9.50031 -7.69969,-17.2 -17.2,-17.2zM36.12,48.16c-10.32,0 -18.92,8.2775 -18.92,18.5975v33.0025h-10.32v6.88h110.08v-6.88h-44.72v-33.0025c0,-10.32 -8.6,-18.5975 -18.92,-18.5975zM84.925,99.76c1.72,0 3.48031,-0.68531 4.515,-1.72l34.4,-28.9175v89.1175c0,3.78938 3.09063,6.88 6.88,6.88h17.2c3.78938,0 6.88,-3.09062 6.88,-6.88v-44.72h3.44c3.78938,0 6.88,-3.09062 6.88,-6.88v-39.8825c0,-10.32 -8.6,-18.5975 -18.92,-18.5975h-12.04c-5.50937,0 -10.61562,2.10969 -14.405,6.235l-38.915,34.7225c-2.75469,2.40531 -2.72781,6.51719 -0.3225,8.9225c1.37063,1.03469 2.6875,1.72 4.4075,1.72zM68.8,110.08c-4.12531,0 -6.88,2.75469 -6.88,6.88v48.16h27.52v-48.16c0,-4.12531 -2.75469,-6.88 -6.88,-6.88zM68.8,116.96h13.76v3.44h-13.76zM48.16,120.4c-3.78937,0 -6.88,3.09063 -6.88,6.88v30.96c0,3.78938 3.09063,6.88 6.88,6.88h6.88v-44.72zM96.32,120.4v44.72h6.88c3.78938,0 6.88,-3.09062 6.88,-6.88v-30.96c0,-3.78937 -3.09062,-6.88 -6.88,-6.88z">
                  </path>
                </g>
              </g>
            </svg>