<svg xmlns="http://www.w3.org/2000/svg" x="0px" y="0px"
width="60" height="60"
viewBox="0 0 172 172"
style=" fill:#000000;"><g fill="none" fill-rule="nonzero" stroke="none" stroke-width="1" stroke-linecap="butt" stroke-linejoin="miter" stroke-miterlimit="10" stroke-dasharray="" stroke-dashoffset="0" font-family="none" font-weight="none" font-size="none" text-anchor="none" style="mix-blend-mode: normal"><path d="M0,172v-172h172v172z" fill="none"></path><g fill="#6600ff"><path d="M43,6.88c-10.32,0 -18.92,8.6 -18.92,18.92c0,10.32 8.6,18.92 18.92,18.92c10.32,0 18.92,-8.6 18.92,-18.92c0,-10.32 -8.6,-18.92 -18.92,-18.92zM139.32,6.88c-10.32,0 -18.92,8.6 -18.92,18.92c0,10.32 8.6,18.92 18.92,18.92c10.32,0 18.92,-8.6 18.92,-18.92c0,-10.32 -8.6,-18.92 -18.92,-18.92zM43,13.76c6.53063,0 12.04,5.50938 12.04,12.04c0,6.53063 -5.50937,12.04 -12.04,12.04c-6.53062,0 -12.04,-5.50937 -12.04,-12.04c0,-6.53062 5.50938,-12.04 12.04,-12.04zM139.32,13.76c6.53063,0 12.04,5.50938 12.04,12.04c0,6.53063 -5.50937,12.04 -12.04,12.04c-6.53062,0 -12.04,-5.50937 -12.04,-12.04c0,-6.53062 5.50938,-12.04 12.04,-12.04zM36.12,48.16c-12.38937,0 -22.36,9.97063 -22.36,22.36v29.24h-6.88v6.88h106.64v-6.88h-41.28v-29.24c0,-12.38937 -9.97062,-22.36 -22.36,-22.36zM88.365,99.76c2.40531,0 4.8375,-0.72562 6.5575,-2.795l25.4775,-17.845v75.68c0,5.50938 4.81063,10.32 10.32,10.32h13.76c5.50938,0 10.32,-4.81062 10.32,-10.32v-37.84c5.50938,0 10.32,-4.81062 10.32,-10.32v-36.12c0,-12.38937 -9.97062,-22.36 -22.36,-22.36h-8.6c-6.19469,0 -12.40281,2.39188 -16.8775,7.2025l-35.045,27.8425c-3.44,3.44 -4.16562,8.98969 -1.075,13.115l0.3225,0.3225c1.72,1.72 4.12531,3.1175 6.88,3.1175zM36.12,55.04h13.76c8.25063,0 15.48,7.22938 15.48,15.48v29.24h-44.72v-29.24c0,-8.25062 7.22938,-15.48 15.48,-15.48zM134.4825,55.04h8.6c8.25063,0 15.48,7.22938 15.48,15.48l-0.3225,36.12c0,2.06938 -1.37062,3.44 -3.44,3.44h-3.44c-2.06937,0 -3.44,1.37063 -3.44,3.44v41.28c0,2.06938 -1.37062,3.44 -3.44,3.44h-13.76c-2.06937,0 -3.44,-1.37062 -3.44,-3.44l-0.3225,-84.28c0,-2.06937 -1.37062,-3.44 -3.44,-3.44c-1.03469,0 -1.78719,0.38969 -2.4725,1.075l-30.96,24.08c-0.34937,0.34938 -1.37062,0.645 -1.72,0.645c-0.68531,0 -1.03469,-0.38969 -1.72,-1.075c-0.68531,-1.37062 -0.61812,-2.39187 0.7525,-3.7625l35.045,-27.8425c3.09063,-3.44 7.22938,-5.16 12.04,-5.16zM68.8,110.08c-1.72,0 -3.80281,0.67188 -4.8375,2.0425c-1.37062,1.03469 -2.0425,3.1175 -2.0425,4.8375v3.44h-10.32c-5.50937,0 -10.32,4.81063 -10.32,10.32v24.08c0,5.50938 4.81063,10.32 10.32,10.32h48.16c5.50938,0 10.32,-4.81062 10.32,-10.32v-24.08c0,-5.50937 -4.81062,-10.32 -10.32,-10.32h-10.32v-3.44c0,-1.72 -0.67187,-3.80281 -2.0425,-4.8375c-1.03469,-1.37062 -3.1175,-2.0425 -4.8375,-2.0425zM68.8,116.96h13.76v3.44h-13.76zM51.6,127.28h3.44v30.96h-3.44c-2.06937,0 -3.44,-1.37062 -3.44,-3.44v-24.08c0,-2.06937 1.37063,-3.44 3.44,-3.44zM61.92,127.28h27.52v30.96h-27.52zM96.32,127.28h3.44c2.06938,0 3.44,1.37063 3.44,3.44v24.08c0,2.06938 -1.37062,3.44 -3.44,3.44h-3.44z"></path></g></g></svg>