<svg xmlns="http://www.w3.org/2000/svg" x="0px" y="0px"
width="50" height="50"
viewBox="0 0 172 172"
style=" fill:#000000;"><g fill="none" fill-rule="nonzero" stroke="none" stroke-width="1" stroke-linecap="butt" stroke-linejoin="miter" stroke-miterlimit="10" stroke-dasharray="" stroke-dashoffset="0" font-family="none" font-weight="none" font-size="none" text-anchor="none" style="mix-blend-mode: normal"><path d="M0,172v-172h172v172z" fill="none"></path><g fill="#0087ff"><path d="M72.24,6.88v10.32h6.88v3.77594c-36.63491,3.47364 -65.36,34.36961 -65.36,71.90406c0,39.8563 32.3837,72.24 72.24,72.24c39.8563,0 72.24,-32.3837 72.24,-72.24c0,-37.53445 -28.72509,-68.43042 -65.36,-71.90406v-3.77594h6.88v-10.32zM138.41297,17.70391l-6.90015,6.90016l15.8764,15.87641l6.90015,-6.90016zM86,27.52c36.13808,0 65.36,29.22192 65.36,65.36c0,36.13808 -29.22192,65.36 -65.36,65.36c-36.13808,0 -65.36,-29.22192 -65.36,-65.36c0,-36.13808 29.22192,-65.36 65.36,-65.36zM51.5664,55.0064c-1.39982,0.00037 -2.65984,0.84884 -3.18658,2.14577c-0.52674,1.29693 -0.21516,2.7837 0.78799,3.76001l30.19406,30.19406c-0.15753,0.57819 -0.23884,1.17449 -0.24187,1.77375c0,3.79972 3.08028,6.88 6.88,6.88c0.60121,-0.00025 1.1998,-0.07931 1.78047,-0.23515l6.10735,6.10734c0.86281,0.89867 2.14404,1.26068 3.34956,0.94641c1.20552,-0.31427 2.14696,-1.2557 2.46122,-2.46122c0.31427,-1.20552 -0.04774,-2.48675 -0.94641,-3.34956l-6.11406,-6.11406c0.15753,-0.57819 0.23884,-1.17449 0.24187,-1.77375c0,-3.79972 -3.08028,-6.88 -6.88,-6.88c-0.60121,0.00025 -1.1998,0.07931 -1.78047,0.23515l-30.18735,-30.18734c-0.64765,-0.66575 -1.53698,-1.04135 -2.46578,-1.04141z"></path></g></g></svg>