<svg xmlns="http://www.w3.org/2000/svg" width="50" height="50" viewBox="0 0 172 172">
  <g fill="none" stroke-miterlimit="10" font-family="none" font-weight="none" font-size="none" text-anchor="none" style="mix-blend-mode:normal">
    <path d="M0 172V0h172v172z"/>
    <path d="M72.24 6.88V17.2h6.88v3.776C42.485 24.45 13.76 55.346 13.76 92.88c0 39.856 32.384 72.24 72.24 72.24 39.856 0 72.24-32.384 72.24-72.24 0-37.534-28.725-68.43-65.36-71.904V17.2h6.88V6.88zm66.173 10.824l-6.9 6.9 15.876 15.876 6.9-6.9zM86 27.52c36.138 0 65.36 29.222 65.36 65.36S122.138 158.24 86 158.24s-65.36-29.222-65.36-65.36S49.862 27.52 86 27.52zM51.566 55.006a3.44 3.44 0 00-2.398 5.906l30.194 30.194a6.88 6.88 0 00-.242 1.774 6.88 6.88 0 008.66 6.645l6.108 6.107a3.44 3.44 0 104.864-4.864l-6.114-6.114a6.88 6.88 0 00.242-1.774 6.88 6.88 0 00-8.66-6.645L54.032 56.048a3.44 3.44 0 00-2.466-1.042z" fill="#2138c9"/>
  </g>
</svg>