<svg xmlns="http://www.w3.org/2000/svg" x="0px" y="0px" width="70" height="70"
                                viewBox="0 0 172 172" style=" fill:#000000;">
                                <g fill="none" fill-rule="nonzero" stroke="none" stroke-width="1" stroke-linecap="butt"
                                    stroke-linejoin="miter" stroke-miterlimit="10" stroke-dasharray=""
                                    stroke-dashoffset="0" font-family="none" font-weight="none" font-size="none"
                                    text-anchor="none" style="mix-blend-mode: normal">
                                    <path d="M0,172v-172h172v172z" fill="none"></path>
                                    <g fill="#007bff">
                                        <path
                                            d="M89.44,3.44c-5.65719,0 -10.32,4.66281 -10.32,10.32v37.84c0,5.65719 4.66281,10.32 10.32,10.32h7.56531c0.24187,0.9675 0.41656,1.27656 0.63156,3.01c0.38969,3.09063 0.25531,6.79938 -0.95406,9.20469c-0.5375,1.075 -0.47031,2.33813 0.14781,3.35938c0.63156,1.00781 1.73344,1.62594 2.92937,1.62594c7.06813,0 12.01313,-5.38844 15.27844,-10.06469c2.51281,-3.58781 3.29219,-5.67063 3.92375,-7.13531h28.95781c5.65719,0 10.32,-4.66281 10.32,-10.32v-37.84c0,-5.65719 -4.66281,-10.32 -10.32,-10.32zM89.44,10.32h58.48c1.94844,0 3.44,1.49156 3.44,3.44v37.84c0,1.94844 -1.49156,3.44 -3.44,3.44h-30.96c-1.41094,0 -2.67406,0.86 -3.18469,2.16344c0,0 -1.6125,3.9775 -4.35375,7.90125c-1.41094,2.00219 -3.06375,3.78938 -4.77031,5.09281c0.16125,-2.19031 0.04031,-4.28656 -0.18812,-6.1275c-0.47031,-3.78937 -1.43781,-6.67844 -1.43781,-6.67844c-0.47031,-1.41094 -1.78719,-2.35156 -3.26531,-2.35156h-10.32c-1.94844,0 -3.44,-1.49156 -3.44,-3.44v-37.84c0,-1.94844 1.49156,-3.44 3.44,-3.44zM68.78656,17.3075c-0.09406,0 -0.17469,0 -0.25531,0c-13.15531,0.98094 -21.56719,7.98188 -24.84594,17.7375c-3.1175,9.27188 -2.08281,20.68031 0.81969,32.69344c-1.62594,1.69313 -3.225,4.05813 -3.23844,7.92813c-0.02688,4.55531 1.53187,8.07594 3.60125,10.32c1.1825,1.27656 2.45906,1.42437 3.70875,1.98875c0.24187,3.45344 0.83312,6.94719 2.08281,9.94375c1.12875,2.72781 2.70094,4.59562 4.36719,6.40969c0,4.39406 0.02687,7.79375 0,12.09375c-1.34375,2.88906 -4.11188,5.22719 -8.31781,7.43094c-4.36719,2.31125 -9.98406,4.38063 -15.61437,6.97406c-5.64375,2.59344 -11.38156,5.76469 -15.93688,10.60219c-4.55531,4.8375 -7.78031,11.43531 -8.29094,20.03531l-0.215,3.66844h138.05687l-0.215,-3.66844c-0.51062,-8.6 -3.73562,-15.19781 -8.30437,-20.04875c-4.56875,-4.8375 -10.30656,-7.99531 -15.96375,-10.60219c-5.65719,-2.60688 -11.26063,-4.66281 -15.62781,-6.97406c-4.1925,-2.20375 -6.94719,-4.54187 -8.26406,-7.40406c-0.04031,-4.6225 0,-8.03562 0,-12.37594c1.66625,-1.76031 3.26531,-3.58781 4.35375,-5.84531c1.45125,-3.01 2.52625,-5.85875 2.52625,-8.77469c0,-0.94062 -0.37625,-1.84094 -1.06156,-2.49937c-0.68531,-0.645 -1.59906,-0.99438 -2.55313,-0.95406c-3.72219,-0.08063 -6.71875,-3.1175 -6.71875,-6.86656v-6.88c0,-3.78937 -3.09062,-6.88 -6.88,-6.88h-3.44c-3.78937,0 -10.32,-3.44 -10.32,-10.32v-33.33844c0.29563,-1.06156 0.08063,-2.21719 -0.60469,-3.07719c-0.68531,-0.87344 -1.74688,-1.37063 -2.84875,-1.31688zM99.76,20.64v6.88h24.08v-6.88zM130.72,20.64v6.88h10.32v-6.88zM99.76,37.84v6.88h10.32v-6.88zM116.96,37.84v6.88h24.08v-6.88z">
                                        </path>
                                    </g>
                                </g>
                            </svg>