                            <svg xmlns="http://www.w3.org/2000/svg" x="0px" y="0px" width="70"
                                height="70" viewBox="0 0 172 172" style=" fill:#000000;">
                                <g fill="none" fill-rule="nonzero" stroke="none" stroke-width="1" stroke-linecap="butt"
                                    stroke-linejoin="miter" stroke-miterlimit="10" stroke-dasharray=""
                                    stroke-dashoffset="0" font-family="none" font-weight="none" font-size="none"
                                    text-anchor="none" style="mix-blend-mode: normal">
                                    <path d="M0,172v-172h172v172z" fill="none"></path>
                                    <g fill="#007bff">
                                        <path
                                            d="M86,24.08c-34.14469,0 -61.92,27.77531 -61.92,61.92c0,34.14469 27.77531,61.92 61.92,61.92c34.14469,0 61.92,-27.77531 61.92,-61.92c0,-34.14469 -27.77531,-61.92 -61.92,-61.92zM89.44,117.30938v6.53062h-6.88v-6.53062c-5.84531,-1.03469 -16.16531,-4.47469 -17.2,-19.26938h6.88c0,4.47469 3.09063,12.72531 13.76,12.72531c10.66938,0 13.07469,-5.16 13.07469,-10.66938c0,-16.50125 -31.99469,-5.16 -31.99469,-27.17062c0,-11.69063 9.97063,-16.51469 15.48,-17.2v-7.56531h6.88v7.91469c9.97063,1.72 13.41063,8.6 15.48,16.16531h-6.88c-1.03469,-5.50937 -4.47469,-9.97062 -11.69062,-9.97062c-10.32,0 -11.70406,6.88 -11.70406,9.97062c0,7.22938 6.54406,8.94938 13.76,10.66938c8.94937,2.05594 18.23469,5.16 18.23469,16.50125c0,13.76 -12.04,17.54937 -17.2,17.89875z">
                                        </path>
                                    </g>
                                </g>
                            </svg>