<svg xmlns="http://www.w3.org/2000/svg" x="0px" y="0px"
width="60" height="60"
viewBox="0 0 172 172"
style=" fill:#000000;"><g fill="none" fill-rule="nonzero" stroke="none" stroke-width="1" stroke-linecap="butt" stroke-linejoin="miter" stroke-miterlimit="10" stroke-dasharray="" stroke-dashoffset="0" font-family="none" font-weight="none" font-size="none" text-anchor="none" style="mix-blend-mode: normal"><path d="M0,172v-172h172v172z" fill="none"></path><g fill="#222da5"><path d="M53.4275,8.88219c-0.65844,0.04031 -1.30344,0.25531 -1.8275,0.645c-32.70687,22.77656 -40.76937,67.85938 -17.99281,100.55281c13.30313,19.10813 34.22531,29.72375 55.83281,30.78531v10.68281c-13.82719,0.92719 -28.76969,6.93375 -28.76969,6.93375c-1.54531,0.60469 -2.41875,2.21719 -2.12313,3.84312c0.30906,1.6125 1.72,2.795 3.37281,2.795h30.38219c0.37625,0.06719 0.7525,0.06719 1.11531,0h30.4225c1.65281,0 3.06375,-1.1825 3.37281,-2.795c0.29562,-1.62594 -0.57781,-3.23844 -2.12313,-3.84312c0,0 -14.9425,-6.00656 -28.76969,-6.93375v-10.66938c13.14188,-0.61812 26.27031,-4.74344 37.84,-12.80594c1.06156,-0.68531 1.65281,-1.88125 1.55875,-3.14438c-0.09406,-1.24969 -0.86,-2.33812 -2.00219,-2.86219c-1.14219,-0.52406 -2.4725,-0.38969 -3.48031,0.36281c-11.26062,7.83406 -24.10687,11.63687 -36.83219,11.73094c-0.20156,-0.02687 -0.38969,-0.05375 -0.57781,-0.05375c-0.09406,0.01344 -0.18812,0.01344 -0.28219,0.01344c-20.51906,-0.1075 -40.66188,-9.82281 -53.29313,-27.96344c-20.65344,-29.65656 -13.38375,-70.33187 16.27281,-90.98531c1.22281,-0.83312 1.78719,-2.35156 1.38406,-3.77594c-0.38969,-1.43781 -1.66625,-2.44562 -3.14438,-2.51281c-0.1075,0 -0.22844,0 -0.33594,0zM92.88,10.32c-12.17437,0 -23.48875,3.74906 -32.85469,10.13188c-0.18813,0.12094 -0.38969,0.22844 -0.57781,0.34937c-0.55094,0.38969 -1.06156,0.81969 -1.55875,1.26313c-14.23031,10.66937 -23.48875,27.61406 -23.48875,46.73562c0,1.20938 0.1075,2.39188 0.17469,3.57438c-0.3225,0.92719 -0.25531,1.94844 0.20156,2.82187c2.17688,20.00844 14.49906,36.98 31.7125,45.72781c0.67188,0.87344 1.73344,1.3975 2.84875,1.37062c7.21594,3.18469 15.1575,4.98531 23.5425,4.98531c12.26844,0 23.65,-3.80281 33.05625,-10.27969c0.12094,-0.08063 0.24188,-0.14781 0.36281,-0.22844c0.51062,-0.34938 0.98094,-0.72563 1.45125,-1.11531c14.2975,-10.66938 23.60969,-27.66781 23.60969,-46.85656c0,-1.1825 -0.1075,-2.32469 -0.17469,-3.49375c0.40312,-0.99437 0.3225,-2.13656 -0.215,-3.06375c-2.24406,-19.98156 -14.57969,-36.89937 -31.77969,-45.60687c-0.65844,-0.81969 -1.66625,-1.30344 -2.71438,-1.30344c-7.22937,-3.19812 -15.19781,-5.01219 -23.59625,-5.01219zM92.88,17.2c5.61688,0 11.01875,0.92719 16.07125,2.58l-12.20125,8.4925c-2.82187,-2.13656 -5.67062,-4.01781 -8.50594,-5.56312c-2.91594,-1.58563 -5.84531,-2.80844 -8.73438,-3.70875c4.27313,-1.12875 8.73438,-1.80063 13.37031,-1.80063zM116.62406,23.005c6.42312,3.3325 12.04,7.955 16.52812,13.545l-16.91781,11.78469c-4.35375,-5.84531 -9.03,-11.03219 -13.8675,-15.39937zM69.86156,24.42938c4.20594,-0.20156 9.36594,1.20937 15.09031,4.32687c1.90812,1.03469 3.85656,2.29781 5.83187,3.68188l-12.81937,8.93594l-11.42188,-16.40719c1.03469,-0.29563 2.13656,-0.49719 3.31906,-0.5375zM60.91219,28.94438l11.40844,16.36687l-12.80594,8.90906c-0.61812,-2.32469 -1.12875,-4.59563 -1.45125,-6.74563c-1.19594,-8.26406 -0.05375,-14.63344 2.84875,-18.53031zM96.54844,36.99344c4.8375,4.1925 9.62125,9.36594 14.02875,15.27844l-16.83719,11.74437l-11.75781,-16.8775zM50.80719,38.95531c-0.16125,3.02344 -0.02687,6.22156 0.45688,9.52719c0.47031,3.18469 1.24969,6.50375 2.27094,9.90344l-12.1475,8.46563c0.37625,-10.38719 3.78938,-19.96813 9.41969,-27.89625zM137.0625,42.20719c3.64156,6.04688 6.07375,12.87313 6.9875,20.19656l-14.24375,9.93031c-2.41875,-6.06031 -5.64375,-12.24156 -9.63469,-18.35563zM76.33844,51.07594l11.75781,16.86406l-16.83719,11.73094c-4.03125,-6.19469 -7.21594,-12.47 -9.48688,-18.44969zM114.52781,57.90219c4.03125,6.20813 7.2025,12.49688 9.46,18.49l-14.56625,10.14531l-11.75781,-16.8775zM55.95375,65.26594c2.40531,6.04688 5.65719,12.24156 9.63469,18.35563l-16.89094,11.77125c-3.64156,-6.04688 -6.07375,-12.87313 -6.9875,-20.21zM144.3725,70.74844c-0.37625,10.40063 -3.80281,19.98156 -9.44656,27.92313c0.17469,-3.05031 0.04031,-6.24844 -0.44344,-9.5675c-0.45687,-3.18469 -1.23625,-6.50375 -2.2575,-9.89zM92.02,73.58375l11.75781,16.8775l-14.55281,10.14531c-4.85094,-4.20594 -9.63469,-9.3525 -14.05562,-15.27844zM126.24531,83.37969c0.61812,2.31125 1.11531,4.58219 1.42437,6.71875c1.20938,8.2775 0.06719,14.63344 -2.84875,18.53031l-11.38156,-16.34zM69.51219,89.26531c4.35375,5.85875 9.04344,11.03219 13.89438,15.38594l-14.27063,9.94375c-6.42312,-3.3325 -12.04,-7.955 -16.52812,-13.545zM107.79563,96.22594l11.38156,16.34c-4.67625,1.38406 -11.04562,0.25531 -18.3825,-3.73562c-1.89469,-1.04813 -3.84312,-2.29781 -5.805,-3.68188zM89.01,109.31406c2.82188,2.13656 5.67063,4.00437 8.4925,5.54969c2.92938,1.59906 5.88563,2.83531 8.77469,3.72219c-4.27312,1.14219 -8.74781,1.81406 -13.39719,1.81406c-5.61687,0 -11.01875,-0.92719 -16.08469,-2.58z"></path></g></g></svg>