            <svg xmlns="http://www.w3.org/2000/svg" x="0px" y="0px" width="60" height="60" viewBox="0 0 172 172"
              style=" fill:#000000;">
              <g fill="none" fill-rule="nonzero" stroke="none" stroke-width="1" stroke-linecap="butt"
                stroke-linejoin="miter" stroke-miterlimit="10" stroke-dasharray="" stroke-dashoffset="0"
                font-family="none" font-weight="none" font-size="none" text-anchor="none"
                style="mix-blend-mode: normal">
                <path d="M0,172v-172h172v172z" fill="none"></path>
                <g fill="#2ecc71">
                  <path
                    d="M53.4275,8.88219c-0.65844,0.04031 -1.30344,0.25531 -1.8275,0.645c-32.70687,22.77656 -40.76937,67.85938 -17.99281,100.55281c13.30313,19.10813 34.22531,29.72375 55.83281,30.78531v10.68281c-13.82719,0.92719 -28.76969,6.93375 -28.76969,6.93375c-1.54531,0.60469 -2.41875,2.21719 -2.12313,3.84312c0.30906,1.6125 1.72,2.795 3.37281,2.795h30.38219c0.37625,0.06719 0.7525,0.06719 1.11531,0h30.4225c1.65281,0 3.06375,-1.1825 3.37281,-2.795c0.29562,-1.62594 -0.57781,-3.23844 -2.12313,-3.84312c0,0 -14.9425,-6.00656 -28.76969,-6.93375v-10.66938c13.14188,-0.61812 26.27031,-4.74344 37.84,-12.80594c1.06156,-0.68531 1.65281,-1.88125 1.55875,-3.14438c-0.09406,-1.24969 -0.86,-2.33812 -2.00219,-2.86219c-1.14219,-0.52406 -2.4725,-0.38969 -3.48031,0.36281c-11.26062,7.83406 -24.10687,11.63687 -36.83219,11.73094c-0.20156,-0.02687 -0.38969,-0.05375 -0.57781,-0.05375c-0.09406,0.01344 -0.18812,0.01344 -0.28219,0.01344c-20.51906,-0.1075 -40.66188,-9.82281 -53.29313,-27.96344c-20.65344,-29.65656 -13.38375,-70.33187 16.27281,-90.98531c1.22281,-0.83312 1.78719,-2.35156 1.38406,-3.77594c-0.38969,-1.43781 -1.66625,-2.44562 -3.14438,-2.51281c-0.1075,0 -0.22844,0 -0.33594,0zM92.88,10.32c-6.10062,0 -11.95937,0.98094 -17.48219,2.74125c3.84312,1.10188 7.92812,2.71438 12.22812,4.97188c4.31344,2.2575 8.50594,4.98531 12.55063,8.02219l15.77562,-10.97844c-7.08156,-3.05031 -14.87531,-4.75688 -23.07219,-4.75688zM65.34656,18.30188c-0.68531,0 -1.33031,0.04031 -1.94844,0.1075c-0.38969,0.24187 -0.79281,0.44344 -1.16906,0.68531l15.70844,22.42719l16.27281,-11.31438c-3.19813,-2.28437 -6.47688,-4.35375 -9.7825,-6.10062c-7.25625,-3.80281 -13.975,-5.805 -19.08125,-5.805zM122.98,18.75875l-17.0925,11.87875c5.30781,4.63594 10.11844,9.80938 14.20344,15.27844l18.83938,-13.04781c-4.4075,-5.63031 -9.80938,-10.41406 -15.95031,-14.10938zM56.58531,23.03188c-0.3225,0.24187 -0.61813,0.52406 -0.92719,0.77937c-3.31906,6.69188 -3.13094,19.29625 0.51062,32.85469l16.125,-11.20687zM46.66844,33.08313c-7.67281,9.89 -12.26844,22.26594 -12.26844,35.71687c0,0.98094 0.09406,1.935 0.14781,2.9025l15.61437,-10.8575c-2.9025,-9.87656 -4.11187,-19.60531 -3.49375,-27.76187zM100.01531,34.73594l-18.04656,12.55063l11.825,16.8775l20.64,-14.32438c-4.07156,-5.40187 -9.00312,-10.54844 -14.41844,-15.10375zM142.81375,38.53875l-18.8125,13.04781c3.60125,5.71094 6.67844,11.97281 9.11063,18.44969l17.2,-12.09375c-1.31688,-6.9875 -3.91031,-13.53156 -7.49813,-19.40375zM76.325,51.21031l-17.99281,12.49687c2.2575,6.40969 5.28094,12.81938 9.04344,18.77219l20.76094,-14.39156zM118.34406,55.51031l-20.61313,14.28406l11.77125,16.82375l17.75094,-12.47c-2.32469,-6.5575 -5.36156,-12.94031 -8.90906,-18.63781zM151.21219,65.8975l-15.77562,11.09938c1.33031,4.54187 2.37844,9.11062 3.01,13.62562c0.71219,5.20031 0.81969,9.93031 0.44344,14.14969c7.79375,-9.91687 12.47,-22.40031 12.47,-35.97219c0,-0.98094 -0.09406,-1.935 -0.14781,-2.9025zM52.50031,67.77875l-17.05219,11.85188c1.34375,7.10844 3.9775,13.73312 7.64594,19.68594l18.66469,-12.94031c-3.73562,-5.87219 -6.86656,-12.17437 -9.25844,-18.5975zM92.07375,73.71813l-20.76094,14.39156c4.16562,5.4825 9.1375,10.60219 14.62,15.07688l17.9525,-12.61781zM129.48375,81.17594l-15.95031,11.19344l15.49344,22.11812c2.96969,-4.515 3.99094,-12.80594 2.60687,-22.92437c-0.48375,-3.39969 -1.20937,-6.89344 -2.15,-10.38719zM65.65563,92.03344l-18.63781,12.94031c4.47469,5.65719 9.97062,10.45438 16.21906,14.14969l16.85062,-11.83844c-5.38844,-4.59562 -10.29312,-9.75562 -14.43187,-15.25156zM107.91656,96.32l-16.11156,11.32781c2.99656,2.05594 6.07375,3.92375 9.20469,5.53625c8.9225,4.56875 16.99844,6.35594 22.33313,5.17344zM85.87906,111.81344l-15.57406,10.93813c6.96063,2.91594 14.57969,4.52844 22.575,4.52844c6.28875,0 12.32219,-1.04812 18.00625,-2.9025c-4.07156,-1.04812 -8.43875,-2.72781 -13.0075,-5.06594c-4.11187,-2.12313 -8.12969,-4.67625 -11.99969,-7.49813z">
                  </path>
                </g>
              </g>
            </svg>