<svg xmlns="http://www.w3.org/2000/svg" x="0px" y="0px"
width="50" height="50"
viewBox="0 0 172 172"
style=" fill:#000000;"><g fill="none" fill-rule="nonzero" stroke="none" stroke-width="1" stroke-linecap="butt" stroke-linejoin="miter" stroke-miterlimit="10" stroke-dasharray="" stroke-dashoffset="0" font-family="none" font-weight="none" font-size="none" text-anchor="none" style="mix-blend-mode: normal"><path d="M0,172v-172h172v172z" fill="none"></path><g fill="#0087ff"><path d="M0.01344,10.32v110.08h6.86656v-103.2h147.92v-6.88zM13.76,24.08v110.08h79.12v-6.88h-72.24v-6.94719l44.06156,-34.84344c3.56094,3.1175 10.14531,8.84187 10.97844,9.5675c5.24063,4.56875 10.80375,5.72437 14.36469,5.72437c3.56094,0 9.12406,-1.15562 14.37813,-5.72437c4.07156,-3.5475 44.11531,-38.45813 53.81719,-46.91031v58.49344l6.88,6.88v-89.44zM20.64,30.96h137.6v8.0625c-3.56094,3.10406 -53.965,47.04469 -58.33219,50.8475c-3.85656,3.35938 -7.78031,4.03125 -9.86313,4.03125c-2.08281,0 -5.99312,-0.68531 -9.84969,-4.03125c-4.48812,-3.91031 -58.03656,-50.57875 -59.555,-51.90906zM20.64,47.085c5.83188,5.09281 23.1125,20.15625 38.78063,33.80875l-38.78063,30.66438zM137.55969,103.15969c-1.3975,0.01344 -2.64719,0.86 -3.18469,2.15c-0.52406,1.30344 -0.215,2.78156 0.79281,3.7625l18.20781,18.20781h-46.73563v6.88h46.73563l-18.20781,18.20781c-0.90031,0.86 -1.26313,2.15 -0.94063,3.34594c0.30906,1.20938 1.24969,2.15 2.45906,2.45906c1.19594,0.3225 2.48594,-0.04031 3.34594,-0.94063l26.51219,-26.51219l-26.51219,-26.51219c-0.645,-0.67188 -1.53187,-1.03469 -2.4725,-1.04813z"></path></g></g></svg>