<?xml version="1.0" encoding="utf-8"?>
<!-- Generator: Adobe Illustrator 23.0.2, SVG Export Plug-In . SVG Version: 6.00 Build 0)  -->
<svg version="1.1" id="Layer_1" xmlns="http://www.w3.org/2000/svg" xmlns:xlink="http://www.w3.org/1999/xlink" x="0px" y="0px"
viewBox="0 0 176.77 176.27" style="enable-background:new 0 0 176.77 176.27;" xml:space="preserve">
<style type="text/css">
.st0{fill:url(#SVGID_1_);}
.st1{fill:url(#SVGID_2_);}
.st2{fill:url(#SVGID_3_);}
.st3{fill-rule:evenodd;clip-rule:evenodd;fill:url(#SVGID_4_);}
.st4{fill-rule:evenodd;clip-rule:evenodd;fill:url(#SVGID_5_);}
.st5{fill-rule:evenodd;clip-rule:evenodd;fill:url(#SVGID_6_);}
.st6{fill-rule:evenodd;clip-rule:evenodd;fill:#00537D;}
.st7{fill-rule:evenodd;clip-rule:evenodd;fill:url(#SVGID_7_);}
.st8{fill-rule:evenodd;clip-rule:evenodd;fill:url(#SVGID_8_);}
.st9{fill-rule:evenodd;clip-rule:evenodd;fill:url(#SVGID_9_);}
.st10{fill-rule:evenodd;clip-rule:evenodd;fill:url(#SVGID_10_);}
.st11{fill-rule:evenodd;clip-rule:evenodd;fill:url(#SVGID_11_);}
.st12{fill-rule:evenodd;clip-rule:evenodd;fill:url(#SVGID_12_);}
.st13{fill-rule:evenodd;clip-rule:evenodd;fill:#A65F1D;}
.st14{fill-rule:evenodd;clip-rule:evenodd;fill:#008241;}
.st15{fill-rule:evenodd;clip-rule:evenodd;fill:url(#SVGID_13_);}
.st16{fill-rule:evenodd;clip-rule:evenodd;fill:url(#SVGID_14_);}
.st17{fill-rule:evenodd;clip-rule:evenodd;fill:url(#SVGID_15_);}
</style>
<g>
<linearGradient id="SVGID_1_" gradientUnits="userSpaceOnUse" x1="0" y1="124.3068" x2="103.9166" y2="124.3068">
<stop  offset="0" style="stop-color:#00699E"/>
<stop  offset="1" style="stop-color:#16ABE2"/>
</linearGradient>
<path class="st0" d="M102.02,115.77l-13.35-2.18c-0.78-2.68-1.85-5.26-3.19-7.69l7.79-11.11c0.63-0.9,0.52-2.12-0.25-2.9
l-8.79-8.78c-0.78-0.78-2.02-0.88-2.92-0.23l-10.94,7.86c-2.46-1.36-5.06-2.44-7.75-3.22l-2.33-13.3
c-0.19-1.08-1.13-1.87-2.23-1.87H45.65c-1.11,0-2.05,0.8-2.23,1.9l-2.16,13.23c-2.71,0.78-5.31,1.85-7.77,3.19l-10.91-7.79
c-0.9-0.64-2.13-0.54-2.91,0.24l-8.78,8.78c-0.77,0.77-0.88,1.99-0.25,2.89l7.68,10.99c-1.37,2.47-2.46,5.09-3.25,7.82l-13.17,2.19
C0.8,115.95,0,116.9,0,118v12.43c0,1.1,0.79,2.03,1.86,2.23l13.17,2.34c0.79,2.72,1.88,5.34,3.25,7.82l-7.77,10.87
c-0.64,0.9-0.54,2.13,0.24,2.91l8.78,8.79c0.77,0.77,2,0.88,2.89,0.25l11-7.71c2.47,1.36,5.08,2.44,7.78,3.22l2.21,13.24
c0.18,1.09,1.12,1.88,2.23,1.88h12.43c1.1,0,2.03-0.79,2.22-1.86l2.36-13.31c2.71-0.8,5.3-1.88,7.75-3.24l11.08,7.77
c0.9,0.63,2.12,0.52,2.9-0.25l8.78-8.79c0.78-0.78,0.88-2.02,0.23-2.92l-7.9-10.97c1.34-2.44,2.4-5.02,3.18-7.7l13.37-2.35
c1.08-0.19,1.87-1.13,1.87-2.23V118C103.92,116.89,103.12,115.95,102.02,115.77z M51.96,140.12c-8.73,0-15.81-7.08-15.81-15.81
s7.08-15.81,15.81-15.81s15.81,7.08,15.81,15.81S60.69,140.12,51.96,140.12z"/>
<linearGradient id="SVGID_2_" gradientUnits="userSpaceOnUse" x1="94.0225" y1="72.9597" x2="176.7683" y2="72.9597">
<stop  offset="0" style="stop-color:#00A551"/>
<stop  offset="1" style="stop-color:#A5CD39"/>
</linearGradient>
<path class="st1" d="M175.26,66.16l-10.63-1.74c-0.62-2.13-1.47-4.18-2.54-6.13l6.21-8.85c0.5-0.71,0.42-1.69-0.2-2.31l-7-6.99
c-0.62-0.62-1.61-0.7-2.32-0.19l-8.71,6.26c-1.96-1.08-4.03-1.94-6.17-2.57l-1.85-10.59c-0.15-0.86-0.9-1.49-1.77-1.49h-9.89
c-0.88,0-1.63,0.64-1.78,1.51l-1.72,10.53c-2.16,0.62-4.23,1.47-6.18,2.54L112,39.96c-0.72-0.51-1.69-0.43-2.32,0.19l-6.99,6.99
c-0.62,0.62-0.7,1.59-0.2,2.3l6.11,8.75c-1.09,1.97-1.96,4.05-2.59,6.22l-10.49,1.75c-0.87,0.14-1.5,0.9-1.5,1.77v9.89
c0,0.87,0.63,1.62,1.48,1.77L106,81.46c0.63,2.16,1.49,4.25,2.59,6.22l-6.19,8.66c-0.51,0.71-0.43,1.69,0.19,2.32l6.99,7
c0.62,0.62,1.59,0.7,2.3,0.2l8.76-6.14c1.97,1.08,4.04,1.94,6.2,2.56l1.76,10.54c0.14,0.87,0.89,1.5,1.77,1.5h9.89
c0.87,0,1.62-0.63,1.77-1.48l1.88-10.6c2.16-0.64,4.22-1.5,6.17-2.58l8.82,6.19c0.72,0.51,1.69,0.42,2.31-0.2l6.99-7
c0.62-0.62,0.7-1.61,0.19-2.32l-6.29-8.74c1.07-1.94,1.91-4,2.53-6.13l10.65-1.87c0.86-0.15,1.49-0.9,1.49-1.77v-9.89
C176.77,67.06,176.13,66.3,175.26,66.16z M135.4,85.55c-6.95,0-12.59-5.64-12.59-12.59s5.64-12.59,12.59-12.59
c6.95,0,12.59,5.64,12.59,12.59S142.35,85.55,135.4,85.55z"/>
<linearGradient id="SVGID_3_" gradientUnits="userSpaceOnUse" x1="33.1928" y1="33.5833" x2="100.3534" y2="33.5833">
<stop  offset="0" style="stop-color:#D36B26"/>
<stop  offset="1" style="stop-color:#FDBF0F"/>
</linearGradient>
<path class="st2" d="M99.13,28.07l-8.63-1.41c-0.51-1.73-1.2-3.4-2.06-4.97l5.04-7.18c0.41-0.58,0.34-1.37-0.16-1.87l-5.68-5.68
c-0.51-0.51-1.3-0.57-1.89-0.15l-7.07,5.08c-1.59-0.88-3.27-1.58-5.01-2.08l-1.51-8.59C72.04,0.51,71.43,0,70.72,0h-8.03
c-0.72,0-1.33,0.52-1.44,1.23l-1.4,8.55c-1.75,0.5-3.43,1.19-5.02,2.06L47.79,6.8c-0.58-0.42-1.38-0.35-1.88,0.15l-5.68,5.68
c-0.5,0.5-0.57,1.29-0.16,1.87l4.96,7.1c-0.88,1.6-1.59,3.29-2.1,5.05l-8.51,1.42c-0.7,0.12-1.22,0.73-1.22,1.44v8.03
c0,0.71,0.51,1.31,1.2,1.44l8.51,1.51c0.51,1.76,1.21,3.45,2.1,5.05l-5.02,7.03c-0.41,0.58-0.35,1.38,0.15,1.88l5.68,5.68
c0.5,0.5,1.29,0.57,1.87,0.16l7.11-4.98c1.6,0.88,3.28,1.57,5.03,2.08l1.43,8.56c0.12,0.7,0.72,1.22,1.44,1.22h8.03
c0.71,0,1.31-0.51,1.44-1.2l1.53-8.6c1.75-0.52,3.43-1.22,5.01-2.1l7.16,5.02c0.58,0.41,1.37,0.34,1.87-0.16l5.68-5.68
c0.51-0.51,0.57-1.31,0.15-1.89l-5.11-7.09c0.87-1.58,1.55-3.24,2.05-4.98l8.64-1.52c0.7-0.12,1.21-0.73,1.21-1.44v-8.03
C100.35,28.79,99.84,28.18,99.13,28.07z M66.77,43.8c-5.64,0-10.22-4.58-10.22-10.22s4.58-10.22,10.22-10.22
s10.22,4.58,10.22,10.22S72.42,43.8,66.77,43.8z"/>
</g>
<g>
<linearGradient id="SVGID_4_" gradientUnits="userSpaceOnUse" x1="262.0263" y1="27.08" x2="252.0327" y2="4.6341">
<stop  offset="0" style="stop-color:#00699E"/>
<stop  offset="1" style="stop-color:#16ABE2"/>
</linearGradient>
<path class="st3" d="M254.2,31.64c-3.31-5.25,10.88-15.56,2.56-27.04c7.94,2.36,11.47,10.25,8.47,19.32
C262.55,28.05,258.65,30.9,254.2,31.64z"/>
<radialGradient id="SVGID_5_" cx="256.2164" cy="18.542" r="12.5961" gradientUnits="userSpaceOnUse">
<stop  offset="0" style="stop-color:#16ABE2"/>
<stop  offset="1" style="stop-color:#00699E"/>
</radialGradient>
<path class="st4" d="M254.2,31.64c-3.31-5.25,10.88-15.56,2.56-27.04c3.86,3.11,6.33,7.89,6.33,13.23c0,5.23-2.37,9.92-6.09,13.04
C256.09,31.23,255.16,31.48,254.2,31.64z"/>
<linearGradient id="SVGID_6_" gradientUnits="userSpaceOnUse" x1="288.8871" y1="14.265" x2="255.0006" y2="1.9313">
<stop  offset="0" style="stop-color:#00699E"/>
<stop  offset="1" style="stop-color:#16ABE2"/>
</linearGradient>
<path class="st5" d="M268.52-8.48c-1.65-1.99-3.5-3.69-5.49-5.04c-0.41,0.48-0.8,0.99-1.18,1.51c-1.41,1.92-1.18,4.54,0.53,6.19
c4.01,3.85,6.59,9.86,6.59,16.61c0,4.97-1.4,9.53-3.74,13.13c-0.65,1,5.95-6.62,5.95-18.75C271.19,0.17,270.21-4.5,268.52-8.48z"/>
<path class="st6" d="M268.77,7.51c0.13,1.07,0.21,2.16,0.21,3.28c0,4.97-1.4,9.53-3.74,13.13c-0.65,1,5.95-6.62,5.95-18.75
c0-5.01-0.97-9.68-2.67-13.65c0.67,2.74,1.04,5.68,1.04,8.75C269.56,2.91,269.25,5.34,268.77,7.51L268.77,7.51z M254.2,31.64
c-0.52-0.82-0.61-1.77-0.42-2.82c1.59,1.04,4.52,0.07,6.11-1.13c2.68-2.01,4.88-4.9,6.33-8.35c-0.14,1.48-0.46,3.01-0.98,4.58
C262.55,28.05,258.65,30.9,254.2,31.64z"/>
<linearGradient id="SVGID_7_" gradientUnits="userSpaceOnUse" x1="318.8259" y1="19.5618" x2="299.9828" y2="45.497">
<stop  offset="0" style="stop-color:#00A551"/>
<stop  offset="1" style="stop-color:#A5CD39"/>
</linearGradient>
<path class="st7" d="M322.01,30.49c-2.89,5.49-18.91-1.64-24.69,11.3c-1.92-8.05,3.14-15.06,12.5-17
C314.72,25.06,319.14,27.01,322.01,30.49z"/>
<radialGradient id="SVGID_8_" cx="309.9539" cy="36.6854" r="12.4956" gradientUnits="userSpaceOnUse">
<stop  offset="0" style="stop-color:#A5CD39"/>
<stop  offset="1" style="stop-color:#00A551"/>
</radialGradient>
<path class="st8" d="M322.01,30.49c-2.89,5.49-18.91-1.64-24.69,11.3c0.77-4.9,3.66-9.42,8.29-12.1c4.54-2.62,9.77-2.9,14.34-1.24
C320.71,29.07,321.4,29.74,322.01,30.49z"/>
<linearGradient id="SVGID_9_" gradientUnits="userSpaceOnUse" x1="289.1814" y1="6.6341" x2="296.9053" y2="50.4388">
<stop  offset="0" style="stop-color:#00A551"/>
<stop  offset="1" style="stop-color:#A5CD39"/>
</linearGradient>
<path class="st9" d="M280.11,38.15c-0.9,2.43-1.45,4.87-1.62,7.28c0.62,0.11,1.26,0.2,1.9,0.27c2.36,0.26,4.52-1.25,5.09-3.55
c1.33-5.41,5.24-10.64,11.08-14.01c4.3-2.49,8.96-3.55,13.25-3.33c1.19,0.07-8.71-1.84-19.21,4.22
C286.27,31.52,282.71,34.7,280.11,38.15z"/>
<linearGradient id="SVGID_10_" gradientUnits="userSpaceOnUse" x1="283.2441" y1="-18.8349" x2="305.275" y2="-16.9075">
<stop  offset="0" style="stop-color:#D56B25"/>
<stop  offset="1" style="stop-color:#FDBD10"/>
</linearGradient>
<path class="st10" d="M287.11-27.66c6.2-0.24,8.04,17.2,22.13,15.73c-6.02,5.69-14.61,4.81-20.97-2.32
C286.05-18.63,285.54-23.43,287.11-27.66z"/>
<radialGradient id="SVGID_11_" cx="298.9944" cy="-19.5259" r="11.2264" gradientUnits="userSpaceOnUse">
<stop  offset="0" style="stop-color:#FFC30C"/>
<stop  offset="1" style="stop-color:#D16926"/>
</radialGradient>
<path class="st11" d="M287.11-27.66c6.2-0.24,8.04,17.2,22.13,15.73c-4.63,1.79-10,1.54-14.63-1.13c-4.53-2.62-7.41-7.01-8.24-11.8
C286.53-25.81,286.78-26.75,287.11-27.66z"/>
<linearGradient id="SVGID_12_" gradientUnits="userSpaceOnUse" x1="286.0539" y1="10.0358" x2="310.6902" y2="-10.6364">
<stop  offset="0" style="stop-color:#D36B26"/>
<stop  offset="1" style="stop-color:#FDBF0F"/>
</linearGradient>
<path class="st12" d="M314.7,4.8c2.55-0.43,4.94-1.18,7.11-2.24c-0.22-0.6-0.46-1.19-0.72-1.78c-0.96-2.18-3.34-3.29-5.63-2.63
c-5.34,1.55-11.83,0.78-17.67-2.59c-4.3-2.49-7.56-5.98-9.51-9.8c-0.54-1.06,2.75,8.46,13.26,14.52
C305.88,2.79,310.41,4.28,314.7,4.8z"/>
<path class="st13" d="M287.11-27.66c0.97-0.04,1.84,0.35,2.66,1.04c-1.7,0.86-2.32,3.88-2.08,5.85c0.4,3.33,1.81,6.68,4.07,9.65
c-1.21-0.86-2.38-1.9-3.48-3.14C286.05-18.63,285.54-23.43,287.11-27.66L287.11-27.66z M300.73-2.98c-1-0.42-1.98-0.9-2.94-1.46
c-4.3-2.49-7.56-5.98-9.51-9.8c-0.54-1.06,2.75,8.46,13.26,14.52c4.33,2.5,8.87,4,13.15,4.52c-2.7-0.79-5.44-1.94-8.1-3.47
C304.32,0.01,302.37-1.47,300.73-2.98z"/>
<path class="st14" d="M322.01,30.49c-0.45,0.86-1.22,1.41-2.23,1.78c0.11-1.9-2.21-3.95-4.03-4.73c-3.08-1.32-6.68-1.78-10.39-1.3
c1.35-0.62,2.84-1.1,4.46-1.44C314.72,25.06,319.14,27.01,322.01,30.49L322.01,30.49z M293.83,29.95c0.86-0.65,1.77-1.26,2.74-1.82
c4.3-2.49,8.96-3.55,13.25-3.33c1.19,0.07-8.71-1.84-19.21,4.22c-4.34,2.5-7.9,5.68-10.49,9.13c2.03-1.95,4.4-3.73,7.06-5.27
C289.45,31.55,291.71,30.62,293.83,29.95z"/>
<linearGradient id="SVGID_13_" gradientUnits="userSpaceOnUse" x1="335.9867" y1="4.6973" x2="285.0769" y2="43.0606">
<stop  offset="0" style="stop-color:#00A551"/>
<stop  offset="1" style="stop-color:#A5CD39"/>
</linearGradient>
<path class="st15" d="M324.82,12.75c-8.1-1.54-17.86,0.15-26.85,5.34c-8.79,5.08-15.05,12.46-17.86,20.06
c2.6-3.45,6.16-6.63,10.49-9.13c10.34-5.97,20.09-4.22,19.26-4.22c2.27,0.12,4.45,0.62,6.41,1.45c2.25,0.96,5.24,3.86,3.52,6.02
C325.57,30.37,326.01,17.47,324.82,12.75z"/>
<linearGradient id="SVGID_14_" gradientUnits="userSpaceOnUse" x1="257.6681" y1="-26.2275" x2="301.5687" y2="-8.4905">
<stop  offset="0" style="stop-color:#D36B26"/>
<stop  offset="1" style="stop-color:#FDBF0F"/>
</linearGradient>
<path class="st16" d="M270.35-21.22c2.72,7.78,9.06,15.39,18.05,20.58c8.79,5.08,18.31,6.8,26.3,5.44
c-4.28-0.52-8.82-2.02-13.15-4.52c-10.34-5.97-13.7-15.29-13.28-14.57c-1.03-2.03-1.68-4.16-1.94-6.27
c-0.29-2.43,0.72-6.47,3.45-6.06C285.23-30.68,273.83-24.61,270.35-21.22z"/>
<linearGradient id="SVGID_15_" gradientUnits="userSpaceOnUse" x1="268.0205" y1="44.124" x2="264.075" y2="11.99">
<stop  offset="0" style="stop-color:#00699E"/>
<stop  offset="1" style="stop-color:#16ABE2"/>
</linearGradient>
<path class="st17" d="M268.16,42.94c5.38-6.25,8.8-15.55,8.8-25.92c0-10.14-3.26-19.25-8.44-25.49c1.69,3.97,2.67,8.65,2.67,13.65
c0,11.94-6.4,19.51-5.98,18.79c-1.25,1.91-2.76,3.54-4.46,4.82c-1.96,1.47-5.96,2.61-6.97,0.05
C252.53,34.78,263.48,41.62,268.16,42.94z"/>
</g>
</svg>

	
	
	
