<svg version="1.1" id="el_zdPV8M6VH" xmlns="http://www.w3.org/2000/svg" xmlns:xlink="http://www.w3.org/1999/xlink" x="0px" y="0px" viewBox="0 0 430 430" style="enable-background:new 0 0 430.1 430.1;" xml:space="preserve"><style>@-webkit-keyframes kf_el__j5bk9z6SA_an_ZxvYUcNPY{11.11%{opacity: 1;}27.78%{opacity: 0.8;}45.56%{opacity: 1;}0%{opacity: 1;}100%{opacity: 1;}}@keyframes kf_el__j5bk9z6SA_an_ZxvYUcNPY{11.11%{opacity: 1;}27.78%{opacity: 0.8;}45.56%{opacity: 1;}0%{opacity: 1;}100%{opacity: 1;}}@-webkit-keyframes kf_el_C3NHoBQIR-7_an_GcqUbfKNs{5.56%{opacity: 0.8;}22.22%{opacity: 1;}38.89%{opacity: 1;}0%{opacity: 0.8;}100%{opacity: 1;}}@keyframes kf_el_C3NHoBQIR-7_an_GcqUbfKNs{5.56%{opacity: 0.8;}22.22%{opacity: 1;}38.89%{opacity: 1;}0%{opacity: 0.8;}100%{opacity: 1;}}@-webkit-keyframes kf_el_qS8HR-ze58Z_an_HB2Q-bL-e{0%{opacity: 1;}16.67%{opacity: 0.8;}33.33%{opacity: 1;}100%{opacity: 1;}}@keyframes kf_el_qS8HR-ze58Z_an_HB2Q-bL-e{0%{opacity: 1;}16.67%{opacity: 0.8;}33.33%{opacity: 1;}100%{opacity: 1;}}#el_zdPV8M6VH *{-webkit-animation-duration: 3s;animation-duration: 3s;-webkit-animation-iteration-count: 1;animation-iteration-count: 1;-webkit-animation-play-state: running;animation-play-state: running;-webkit-animation-timing-function: cubic-bezier(0, 0, 1, 1);animation-timing-function: cubic-bezier(0, 0, 1, 1);}#el__j5bk9z6SA{fill: #1a76d1;-webkit-animation-fill-mode: forwards;animation-fill-mode: forwards;opacity: 1;-webkit-animation-timing-function: cubic-bezier(0.42, 0, 0.58, 1);animation-timing-function: cubic-bezier(0.42, 0, 0.58, 1);}#el_zdPV8M6VH:hover #el__j5bk9z6SA{-webkit-animation-name: kf_el__j5bk9z6SA_an_ZxvYUcNPY;animation-name: kf_el__j5bk9z6SA_an_ZxvYUcNPY;}#el__vSG14wjNG{fill: #1A76D1;}#el_HSi5xaBOUK{fill: #1A76D1;}#el_A0expDWkC8{fill: #39474F;}#el_DPyfwx9vD9{fill: #39474F;}#el_sWi6x8fGpk{fill: #39474F;}#el_XXfj7ZBz-k{fill: #39474F;}#el_ON-1oXlxgu{fill: #39474F;}#el_sgDB3eOnKZ{fill: #39474F;}#el_9hymk7FH_L{fill: #39474F;}#el_74euHY6clT{fill: #39474F;}#el_Ggd1OT3451{fill: #39474F;}#el__WZox3pbDL{fill: #39474F;}#el_UeM5AaMojl{fill: #39474F;}#el_QybFdY4nFkg{fill: #39474F;}#el_KDYgs99wmi6{fill: #39474F;}#el_yjZLdgs-X__{fill: #39474F;}#el_R4_i993Uc6b{fill: #39474F;}#el_daEXSw_LJ9G{fill: #39474F;}#el_bx62x_Gv0Yq{fill: #39474F;}#el_LbNtiVvLAXb{fill: #39474F;}#el_9KXraJZmICY{fill: #39474F;}#el_JD3T_WOIf8p{fill: #39474F;}#el_Y7P7SxbJH5Z{fill: #39474F;}#el_Z37gaQQFTo8{fill: #39474F;}#el_hEBN0PPBniN{fill: #39474F;}#el_9B6ihclFB6s{fill: #39474F;}#el_wxjGcJUTNV_{fill: #39474F;}#el_ZOQdCmhuQ72{fill: #39474F;}#el_NvE-JyiGX2H{fill: #39474F;}#el_WD1pXF1MDc_{fill: #39474F;}#el_Ew-G7223j-Q{fill: #39474F;}#el_m2YPbTpejqI{fill: #39474F;}#el_ouRi5DSIA5z{fill: #39474F;}#el_yiuEoK8ImjF{fill: #39474F;}#el_-mpUZTLpc2C{fill: #39474F;}#el_i8ZFBTCLoyP{fill: #39474F;}#el_raVS4wJfKCH{fill: #39474F;}#el_I1Y7cXCQYBO{fill: #39474F;}#el_-0V49oGxhuI{fill: #39474F;}#el_W1TbKrQqvLT{fill: #39474F;}#el_myeopcAUb8F{fill: #39474F;}#el_M9RRxBPDx8g{fill: #39474F;}#el_QZy3HnfwSkN{fill: #39474F;}#el_Mc6lIS8eE8f{fill: #39474F;}#el_d2K2uC7fEkM{fill: #39474F;}#el_2tC6wYwOQS6{fill: #39474F;}#el_qDPv23wkW7D{fill: #39474F;}#el_ql24LrDsnq1{fill: #39474F;}#el_-pvpcoRv1xQ{fill: #39474F;}#el_pRE1RTLmTBu{fill: #39474F;}#el_mJP0jiY4gJK{fill: #39474F;}#el_BL7peJB4Roz{fill: #39474F;}#el_b5mT21m6JZX{fill: #39474F;}#el_DZxaI8vzOhd{fill: #39474F;}#el_6mBCZXTQ5Vu{fill: #39474F;}#el_pf0nhxdDnmn{fill: #39474F;}#el_PxFJywWfiPy{fill: #39474F;}#el_2IUxaj9kQMI{fill: #39474F;}#el_GL9SeJqF70h{fill: #39474F;}#el_62jTxvw7oV6{fill: #39474F;}#el_Nujp-BkN2Nr{fill: #39474F;}#el_Bam7RrwV1pF{fill: #39474F;}#el_sc5WIjo6cX-{fill: #39474F;}#el_75BkHZcBUzY{fill: #39474F;}#el_yniiUg4vCFc{fill: #39474F;}#el_sF8xOhzubOw{fill: #39474F;}#el_SFIVOnBfm_I{fill: #39474F;}#el_MGzvl7UScZi{fill: #39474F;}#el_piJSxPFDDud{fill: #39474F;}#el_7ln3wyJ8D8I{fill: #39474F;}#el_RTSuz0aQrVf{fill: #39474F;}#el_wzihj4tZVq1{fill: #39474F;}#el_xfWhs0QzSen{fill: #39474F;}#el_cA-cF6Tt-JR{fill: #39474F;}#el_WrE-oFxgiq8{fill: #39474F;}#el_BofXs9r4QYP{fill: #39474F;}#el_vHDgnudpqdF{fill: #39474F;}#el_wPewfopmFRg{fill: #39474F;}#el_ZlmckhS2Fxq{fill: #39474F;}#el_RGwTbNlZwIR{fill: #39474F;}#el_XAcIzoF5jas{fill: #39474F;}#el_E7rfKJ4BUcY{fill: #39474F;}#el_WxQn70vPEb0{fill: #39474F;}#el_A1jl2GZgo6p{fill: #39474F;}#el_4DxrDCv7EPc{fill: #39474F;}#el_5GHSu3NR1-2{fill: #39474F;}#el_YafgwU73iNu{fill: #42A4F3;}#el_C3NHoBQIR-7{fill: #42a4f3;-webkit-animation-fill-mode: forwards;animation-fill-mode: forwards;opacity: 0.8;-webkit-animation-timing-function: cubic-bezier(0.42, 0, 0.58, 1);animation-timing-function: cubic-bezier(0.42, 0, 0.58, 1);}#el_zdPV8M6VH:hover #el_C3NHoBQIR-7{-webkit-animation-name: kf_el_C3NHoBQIR-7_an_GcqUbfKNs;animation-name: kf_el_C3NHoBQIR-7_an_GcqUbfKNs;}#el_qS8HR-ze58Z{fill: #1a76d1;-webkit-animation-fill-mode: forwards;animation-fill-mode: forwards;opacity: 1;-webkit-animation-timing-function: cubic-bezier(0.42, 0, 0.58, 1);animation-timing-function: cubic-bezier(0.42, 0, 0.58, 1);}#el_zdPV8M6VH:hover #el_qS8HR-ze58Z{-webkit-animation-name: kf_el_qS8HR-ze58Z_an_HB2Q-bL-e;animation-name: kf_el_qS8HR-ze58Z_an_HB2Q-bL-e;}</style>

<g id="el_vf1zqV5v7h">
	
	<path d="M394.2,96.3c17.06,25.34,28.2,53.12,32.91,83.23c9.48,60.58-3.49,116.1-40.5,165.13&#10;&#9;&#9;c-34.72,45.99-81.03,73.95-138.08,82.8C136,444.93,30.98,374.12,5.54,262.96C-21.42,145.11,52.85,32.15,165.85,5.98&#10;&#9;&#9;C224.91-7.7,280.36,2.19,331.73,34.52c0.74,0.46,1.42,1.01,2.13,1.52c-3.03,4.13-5.52,8.57-7.53,13.28&#10;&#9;&#9;c-3.82,8.96-6.21,18.38-8.88,27.7c-52.32-36.98-108.7-44.35-168.03-20.58C76.79,85.55,33.97,160.95,44.72,238.3&#10;&#9;&#9;c6.4,46.08,27.91,83.89,64.61,112.35c44.4,34.43,94.77,44.8,148.92,30.86c53.95-13.89,92.44-47.56,114.89-98.69&#10;&#9;&#9;c16.21-36.92,18.14-75.19,7.6-113.98c-5.54-20.41-14.47-39.33-27.66-56.06c1.3-0.4,2.6-0.81,3.9-1.19&#10;&#9;&#9;C369.9,107.75,383.11,104.59,394.2,96.3z" id="el__j5bk9z6SA"/>
	<path d="M317.45,77.02c2.67-9.33,5.06-18.75,8.88-27.7c2.01-4.71,4.5-9.15,7.53-13.28&#10;&#9;&#9;c10.81-11.4,24.11-18.74,38.76-23.94c2.99-1.06,3.95-0.72,3.82,2.8c-0.28,7.85-0.05,15.72-0.02,23.59&#10;&#9;&#9;c-0.27,0.65-0.54,1.3-0.81,1.95c-0.25,0.25-0.5,0.51-0.74,0.76c-0.25,0.25-0.5,0.5-0.75,0.75c-0.25,0.25-0.5,0.5-0.75,0.75&#10;&#9;&#9;c-0.25,0.25-0.5,0.5-0.75,0.75c-0.25,0.25-0.5,0.5-0.75,0.75c-0.25,0.25-0.5,0.5-0.75,0.75c-0.25,0.25-0.5,0.5-0.75,0.75&#10;&#9;&#9;c-0.25,0.25-0.5,0.5-0.74,0.75c-0.25,0.25-0.5,0.5-0.75,0.75c-0.25,0.25-0.5,0.5-0.75,0.75c-0.25,0.25-0.5,0.5-0.75,0.75&#10;&#9;&#9;c-0.25,0.25-0.5,0.5-0.75,0.75c-0.25,0.25-0.5,0.5-0.75,0.75c-0.25,0.25-0.5,0.5-0.75,0.75c-0.25,0.25-0.5,0.5-0.75,0.75&#10;&#9;&#9;c-0.25,0.25-0.5,0.5-0.75,0.75c-0.25,0.25-0.5,0.5-0.75,0.75c-0.25,0.25-0.5,0.5-0.75,0.75c-0.25,0.25-0.5,0.5-0.75,0.75&#10;&#9;&#9;c-0.25,0.25-0.5,0.5-0.75,0.75c-0.25,0.25-0.5,0.5-0.75,0.75c-0.25,0.25-0.5,0.5-0.75,0.75s-0.5,0.5-0.75,0.75&#10;&#9;&#9;c-0.25,0.25-0.5,0.5-0.75,0.75c-0.25,0.25-0.5,0.5-0.75,0.75c-0.25,0.25-0.5,0.5-0.75,0.75c-0.25,0.25-0.5,0.5-0.75,0.75&#10;&#9;&#9;c-0.25,0.25-0.5,0.5-0.75,0.75c-0.25,0.25-0.5,0.5-0.75,0.75c-0.25,0.25-0.5,0.5-0.75,0.75c-0.25,0.25-0.5,0.5-0.75,0.75&#10;&#9;&#9;c-0.25,0.25-0.5,0.5-0.75,0.75c-0.25,0.25-0.5,0.5-0.75,0.75c-0.25,0.25-0.5,0.5-0.75,0.75c-0.25,0.25-0.5,0.5-0.75,0.75&#10;&#9;&#9;c-0.25,0.25-0.5,0.5-0.75,0.75c-0.25,0.25-0.5,0.5-0.75,0.75c-0.25,0.25-0.5,0.5-0.75,0.75c-0.25,0.25-0.5,0.5-0.75,0.75&#10;&#9;&#9;c-0.25,0.25-0.5,0.5-0.75,0.75c-0.25,0.25-0.5,0.5-0.75,0.75c-0.46,0.04-0.73,0.28-0.75,0.76c-0.25,0.25-0.5,0.5-0.75,0.74&#10;&#9;&#9;c-0.25,0.25-0.5,0.5-0.75,0.75c-0.47,0.03-0.71,0.29-0.75,0.75c-0.25,0.25-0.5,0.5-0.75,0.75c-0.25,0.25-0.5,0.5-0.75,0.75&#10;&#9;&#9;c-0.25,0.25-0.5,0.5-0.75,0.75c-0.25,0.25-0.5,0.5-0.75,0.75c-0.25,0.25-0.5,0.5-0.75,0.75c-0.45,0.05-0.72,0.28-0.75,0.75&#10;&#9;&#9;c-0.47,0.03-0.71,0.29-0.75,0.75c-0.25,0.25-0.5,0.5-0.75,0.75c-0.47,0.03-0.71,0.29-0.75,0.75c-0.25,0.25-0.5,0.5-0.75,0.75&#10;&#9;&#9;c-0.25,0.25-0.5,0.5-0.75,0.75c-0.25,0.25-0.5,0.5-0.75,0.75c-0.46,0.04-0.72,0.28-0.75,0.75c-0.47,0.03-0.71,0.29-0.75,0.75&#10;&#9;&#9;c-0.45,0.05-0.72,0.28-0.75,0.75c-0.47,0.02-0.71,0.29-0.75,0.75c-0.25,0.25-0.5,0.5-0.75,0.75c-0.46,0.04-0.71,0.29-0.75,0.75&#10;&#9;&#9;c-0.46,0.04-0.71,0.29-0.75,0.75c-0.46,0.04-0.71,0.29-0.75,0.75c-0.47,0.03-0.72,0.28-0.75,0.75c-0.46,0.04-0.72,0.28-0.74,0.75&#10;&#9;&#9;c-0.48,0.02-0.71,0.29-0.75,0.75c-0.46,0.05-0.72,0.28-0.75,0.75c-0.48,0.02-0.72,0.28-0.75,0.75c-0.46,0.04-0.72,0.28-0.75,0.75&#10;&#9;&#9;c-0.47,0.03-0.72,0.28-0.75,0.75c-0.47,0.03-0.72,0.28-0.75,0.75c-0.47,0.03-0.72,0.28-0.75,0.75c-0.47,0.03-0.71,0.29-0.75,0.75&#10;&#9;&#9;c-0.46,0.04-0.73,0.28-0.75,0.75c-0.48,0.02-0.71,0.29-0.75,0.75c-0.46,0.04-0.72,0.28-0.75,0.75c-0.48,0.02-0.72,0.28-0.75,0.75&#10;&#9;&#9;c-0.47,0.03-0.72,0.28-0.75,0.75c-0.47,0.03-0.72,0.28-0.75,0.75c-0.47,0.03-0.73,0.28-0.75,0.75c-0.49,0.06-0.98,0.12-1.47,0.18&#10;&#9;&#9;C313.49,93.62,315.97,85.42,317.45,77.02z" id="el__vSG14wjNG"/>
	<path d="M394.2,96.3c-11.09,8.3-24.3,11.45-37.23,15.29c-1.3,0.39-2.6,0.8-3.9,1.19c-7.57,1.13-14.9,3.51-22.54,4.26&#10;&#9;&#9;c0.11-1.85,1.64-2.72,2.75-3.84c18.21-18.25,36.45-36.47,54.66-54.72c1.1-1.1,2.7-1.94,2.66-3.85c0.4-0.26,0.81-0.52,1.21-0.77&#10;&#9;&#9;c7.86,0.03,15.72,0.2,23.57,0c3.23-0.08,4.08,0.46,2.88,3.78C413,72.27,405.6,85.51,394.2,96.3z" id="el_HSi5xaBOUK"/>
	<path d="M391.82,53.86c-0.4,0.26-0.81,0.52-1.21,0.77c-0.99-0.92-1.98-1.85-2.97-2.77c-4.08-3.75-7.5-8.21-12.06-11.46&#10;&#9;&#9;c0,0,0.03,0.03,0.03,0.03c0.27-0.65,0.54-1.3,0.81-1.95c8.08-7.96,16.17-15.92,24.25-23.88c6.49-6.39,15.66-4.2,18.22,4.43&#10;&#9;&#9;c1.38,4.65-0.82,8.26-3.94,11.4c-6.87,6.91-13.79,13.75-20.68,20.64C393.39,51.94,392.63,52.93,391.82,53.86z" id="el_A0expDWkC8"/>
	<path d="M298.05,116.45c5.46-4.17,10.02-9.24,14.58-14.32c0.49-0.06,0.98-0.12,1.47-0.18c0,0-0.03-0.03-0.03-0.03&#10;&#9;&#9;c-1.39,1.76,0.17,2.59,1.12,3.63c3.9,4.27,8.6,7.79,11.93,12.61c-4.48,4.55-8.96,9.1-13.44,13.65&#10;&#9;&#9;c-10.18,10.19-20.36,20.39-30.55,30.58c-10.51,10.04-20.79,20.31-30.83,30.83c-5.09,4.97-10.21,9.92-15.28,14.92&#10;&#9;&#9;c-4.8,4.74-9.46,9.63-14.36,14.27c-4.84,4.58-10.87,4.42-15.36-0.14c-4.05-4.12-3.91-10.04,0.37-14.83c0.66-0.74,1.4-1.43,2.1-2.14&#10;&#9;&#9;c9.06-9.13,18.12-18.27,27.18-27.4c10.51-10.03,20.77-20.32,30.82-30.81c9.33-9.25,18.67-18.49,27.99-27.75&#10;&#9;&#9;C296.66,118.47,297.73,117.75,298.05,116.45z" id="el_DPyfwx9vD9"/>
	<path d="M371.11,44.94c0.25-0.25,0.5-0.5,0.75-0.75c0,0-0.03-0.03-0.03-0.03c-0.25,0.25-0.5,0.5-0.75,0.75&#10;&#9;&#9;C371.07,44.92,371.11,44.94,371.11,44.94z" id="el_sWi6x8fGpk"/>
	<path d="M369.61,46.45c0.25-0.25,0.5-0.5,0.74-0.75l-0.03-0.03c-0.25,0.25-0.5,0.5-0.75,0.75L369.61,46.45z" id="el_XXfj7ZBz-k"/>
	<path d="M368.86,47.19c0.25-0.25,0.5-0.5,0.75-0.75c0,0-0.03-0.03-0.03-0.03c-0.25,0.25-0.5,0.5-0.75,0.75&#10;&#9;&#9;C368.82,47.17,368.86,47.19,368.86,47.19z" id="el_ON-1oXlxgu"/>
	<path d="M368.11,47.95c0.25-0.25,0.5-0.5,0.75-0.75c0,0-0.03-0.03-0.03-0.03c-0.25,0.25-0.5,0.5-0.75,0.75&#10;&#9;&#9;L368.11,47.95z" id="el_sgDB3eOnKZ"/>
	<path d="M367.36,48.69c0.25-0.25,0.5-0.5,0.75-0.75c0,0-0.03-0.03-0.03-0.03c-0.25,0.25-0.5,0.5-0.75,0.75&#10;&#9;&#9;C367.32,48.67,367.36,48.69,367.36,48.69z" id="el_9hymk7FH_L"/>
	<path d="M366.61,49.44c0.25-0.25,0.5-0.5,0.75-0.75c0,0-0.03-0.03-0.03-0.03c-0.25,0.25-0.5,0.5-0.75,0.75&#10;&#9;&#9;C366.57,49.42,366.61,49.44,366.61,49.44z" id="el_74euHY6clT"/>
	<path d="M365.86,50.19c0.25-0.25,0.5-0.5,0.75-0.75c0,0-0.03-0.03-0.03-0.03c-0.25,0.25-0.5,0.5-0.75,0.75&#10;&#9;&#9;C365.82,50.17,365.86,50.19,365.86,50.19z" id="el_Ggd1OT3451"/>
	<path d="M365.11,50.95c0.25-0.25,0.5-0.5,0.75-0.75c0,0-0.03-0.03-0.03-0.03c-0.25,0.25-0.5,0.5-0.75,0.75&#10;&#9;&#9;C365.07,50.92,365.11,50.95,365.11,50.95z" id="el__WZox3pbDL"/>
	<path d="M364.36,51.7c0.25-0.25,0.5-0.5,0.75-0.75c0,0-0.03-0.03-0.03-0.03c-0.25,0.25-0.5,0.5-0.75,0.75L364.36,51.7z&#10;&#9;&#9;" id="el_UeM5AaMojl"/>
	<path d="M363.61,52.44c0.25-0.25,0.5-0.5,0.75-0.75c0,0-0.03-0.03-0.03-0.03c-0.25,0.25-0.5,0.5-0.75,0.75&#10;&#9;&#9;C363.57,52.42,363.61,52.44,363.61,52.44z" id="el_QybFdY4nFkg"/>
	<path d="M362.86,53.2c0.25-0.25,0.5-0.5,0.75-0.75c0,0-0.03-0.03-0.03-0.03c-0.25,0.25-0.5,0.5-0.75,0.75&#10;&#9;&#9;C362.82,53.17,362.86,53.2,362.86,53.2z" id="el_KDYgs99wmi6"/>
	<path d="M362.11,53.94c0.25-0.25,0.5-0.5,0.75-0.75c0,0-0.03-0.03-0.03-0.03c-0.25,0.25-0.5,0.5-0.75,0.75&#10;&#9;&#9;C362.07,53.92,362.11,53.94,362.11,53.94z" id="el_yjZLdgs-X__"/>
	<path d="M361.36,54.7c0.25-0.25,0.5-0.5,0.75-0.75c0,0-0.03-0.03-0.03-0.03c-0.25,0.25-0.5,0.5-0.75,0.75&#10;&#9;&#9;C361.32,54.67,361.36,54.7,361.36,54.7z" id="el_R4_i993Uc6b"/>
	<path d="M360.61,55.45c0.25-0.25,0.5-0.5,0.75-0.75c0,0-0.03-0.03-0.03-0.03c-0.25,0.25-0.5,0.5-0.75,0.75&#10;&#9;&#9;L360.61,55.45z" id="el_daEXSw_LJ9G"/>
	<path d="M359.86,56.2c0.25-0.25,0.5-0.5,0.75-0.75c0,0-0.03-0.03-0.03-0.03c-0.25,0.25-0.5,0.5-0.75,0.75&#10;&#9;&#9;C359.82,56.17,359.86,56.2,359.86,56.2z" id="el_bx62x_Gv0Yq"/>
	<path d="M359.11,56.95c0.25-0.25,0.5-0.5,0.75-0.75c0,0-0.03-0.03-0.03-0.03c-0.25,0.25-0.5,0.5-0.75,0.75&#10;&#9;&#9;C359.07,56.92,359.11,56.95,359.11,56.95z" id="el_LbNtiVvLAXb"/>
	<path d="M358.36,57.7c0.25-0.25,0.5-0.5,0.75-0.75c0,0-0.03-0.03-0.03-0.03c-0.25,0.25-0.5,0.5-0.75,0.75&#10;&#9;&#9;C358.32,57.67,358.36,57.7,358.36,57.7z" id="el_9KXraJZmICY"/>
	<path d="M357.61,58.45c0.25-0.25,0.5-0.5,0.75-0.75c0,0-0.03-0.03-0.03-0.03c-0.25,0.25-0.5,0.5-0.75,0.75&#10;&#9;&#9;C357.58,58.42,357.61,58.45,357.61,58.45z" id="el_JD3T_WOIf8p"/>
	<path d="M356.86,59.2c0.25-0.25,0.5-0.5,0.75-0.75c0,0-0.03-0.03-0.03-0.03c-0.25,0.25-0.5,0.5-0.75,0.75L356.86,59.2z&#10;&#9;&#9;" id="el_Y7P7SxbJH5Z"/>
	<path d="M356.11,59.95c0.25-0.25,0.5-0.5,0.75-0.75c0,0-0.03-0.03-0.03-0.03c-0.25,0.25-0.5,0.5-0.75,0.75&#10;&#9;&#9;C356.08,59.92,356.11,59.95,356.11,59.95z" id="el_Z37gaQQFTo8"/>
	<path d="M355.36,60.7c0.25-0.25,0.5-0.5,0.75-0.75c0,0-0.03-0.03-0.03-0.03c-0.25,0.25-0.5,0.5-0.75,0.75&#10;&#9;&#9;C355.32,60.67,355.36,60.7,355.36,60.7z" id="el_hEBN0PPBniN"/>
	<path d="M354.61,61.45c0.25-0.25,0.5-0.5,0.75-0.75c0,0-0.03-0.03-0.03-0.03c-0.25,0.25-0.5,0.5-0.75,0.75&#10;&#9;&#9;C354.57,61.42,354.61,61.45,354.61,61.45z" id="el_9B6ihclFB6s"/>
	<path d="M353.86,62.2c0.25-0.25,0.5-0.5,0.75-0.75c0,0-0.03-0.03-0.03-0.03c-0.25,0.25-0.5,0.5-0.75,0.75&#10;&#9;&#9;C353.82,62.17,353.86,62.2,353.86,62.2z" id="el_wxjGcJUTNV_"/>
	<path d="M353.11,62.95c0.25-0.25,0.5-0.5,0.75-0.75c0,0-0.03-0.03-0.03-0.03c-0.25,0.25-0.5,0.5-0.75,0.75&#10;&#9;&#9;C353.07,62.92,353.11,62.95,353.11,62.95z" id="el_ZOQdCmhuQ72"/>
	<path d="M352.36,63.7c0.25-0.25,0.5-0.5,0.75-0.75c0,0-0.03-0.03-0.03-0.03c-0.25,0.25-0.5,0.5-0.75,0.75&#10;&#9;&#9;C352.32,63.67,352.36,63.7,352.36,63.7z" id="el_NvE-JyiGX2H"/>
	<path d="M351.61,64.45c0.25-0.25,0.5-0.5,0.75-0.75c0,0-0.03-0.03-0.03-0.03c-0.25,0.25-0.5,0.5-0.75,0.75&#10;&#9;&#9;L351.61,64.45z" id="el_WD1pXF1MDc_"/>
	<path d="M350.86,65.2c0.25-0.25,0.5-0.5,0.75-0.75c0,0-0.03-0.03-0.03-0.03c-0.25,0.25-0.5,0.5-0.75,0.75&#10;&#9;&#9;C350.83,65.17,350.86,65.2,350.86,65.2z" id="el_Ew-G7223j-Q"/>
	<path d="M350.11,65.95c0.25-0.25,0.5-0.5,0.75-0.75c0,0-0.03-0.03-0.03-0.03c-0.25,0.25-0.5,0.5-0.75,0.75&#10;&#9;&#9;C350.07,65.92,350.11,65.95,350.11,65.95z" id="el_m2YPbTpejqI"/>
	<path d="M349.36,66.7c0.25-0.25,0.5-0.5,0.75-0.75c0,0-0.03-0.03-0.03-0.03c-0.25,0.25-0.5,0.5-0.75,0.75&#10;&#9;&#9;C349.33,66.67,349.36,66.7,349.36,66.7z" id="el_ouRi5DSIA5z"/>
	<path d="M348.61,67.45c0.25-0.25,0.5-0.5,0.75-0.75c0,0-0.03-0.03-0.03-0.03c-0.25,0.25-0.5,0.5-0.75,0.75&#10;&#9;&#9;L348.61,67.45z" id="el_yiuEoK8ImjF"/>
	<path d="M347.86,68.2c0.25-0.25,0.5-0.5,0.75-0.75c0,0-0.04-0.03-0.04-0.03c-0.25,0.25-0.5,0.5-0.75,0.75&#10;&#9;&#9;C347.82,68.17,347.86,68.2,347.86,68.2z" id="el_-mpUZTLpc2C"/>
	<path d="M347.11,68.95c0.25-0.25,0.5-0.5,0.75-0.75c0,0-0.04-0.03-0.04-0.03c-0.25,0.25-0.5,0.5-0.75,0.75&#10;&#9;&#9;C347.07,68.92,347.11,68.95,347.11,68.95z" id="el_i8ZFBTCLoyP"/>
	<path d="M346.36,69.7c0.25-0.25,0.5-0.5,0.75-0.75c0,0-0.04-0.03-0.04-0.03c-0.25,0.25-0.5,0.5-0.75,0.75&#10;&#9;&#9;C346.32,69.67,346.36,69.7,346.36,69.7z" id="el_raVS4wJfKCH"/>
	<path d="M345.61,70.45c0.25-0.25,0.5-0.5,0.75-0.75c0,0-0.04-0.03-0.04-0.03c-0.25,0.25-0.5,0.5-0.75,0.75&#10;&#9;&#9;C345.57,70.42,345.61,70.45,345.61,70.45z" id="el_I1Y7cXCQYBO"/>
	<path d="M344.86,71.2c0.25-0.25,0.5-0.5,0.75-0.75c0,0-0.04-0.03-0.04-0.03c-0.25,0.25-0.5,0.5-0.75,0.75&#10;&#9;&#9;C344.82,71.17,344.86,71.2,344.86,71.2z" id="el_-0V49oGxhuI"/>
	<path d="M370.35,45.7c0.25-0.25,0.5-0.5,0.75-0.75c0,0-0.03-0.03-0.03-0.03c-0.25,0.25-0.5,0.5-0.75,0.75L370.35,45.7z&#10;&#9;&#9;" id="el_W1TbKrQqvLT"/>
	<path d="M343.36,72.7c0.25-0.25,0.5-0.5,0.75-0.74c0,0-0.03-0.03-0.03-0.03c-0.25,0.25-0.5,0.5-0.75,0.75L343.36,72.7z&#10;&#9;&#9;" id="el_myeopcAUb8F"/>
	<path d="M342.61,73.45c0.25-0.25,0.5-0.5,0.75-0.75c0,0-0.03-0.03-0.03-0.03c-0.25,0.25-0.5,0.5-0.75,0.75&#10;&#9;&#9;C342.58,73.42,342.61,73.45,342.61,73.45z" id="el_M9RRxBPDx8g"/>
	<path d="M341.86,74.2c0.04-0.46,0.28-0.72,0.75-0.75c0,0-0.03-0.03-0.03-0.03c-0.25,0.25-0.5,0.5-0.75,0.75&#10;&#9;&#9;L341.86,74.2z" id="el_QZy3HnfwSkN"/>
	<path d="M341.11,74.95c0.25-0.25,0.5-0.5,0.75-0.75c0,0-0.04-0.03-0.03-0.03c-0.25,0.25-0.5,0.5-0.75,0.75&#10;&#9;&#9;L341.11,74.95z" id="el_Mc6lIS8eE8f"/>
	<path d="M340.36,75.7c0.25-0.25,0.5-0.5,0.75-0.75c0,0-0.04-0.03-0.03-0.03c-0.25,0.25-0.5,0.5-0.75,0.75&#10;&#9;&#9;C340.32,75.67,340.36,75.7,340.36,75.7z" id="el_d2K2uC7fEkM"/>
	<path d="M339.61,76.45c0.25-0.25,0.5-0.5,0.75-0.75c0,0-0.04-0.03-0.04-0.03c-0.25,0.25-0.5,0.5-0.75,0.75&#10;&#9;&#9;C339.58,76.42,339.61,76.45,339.61,76.45z" id="el_2tC6wYwOQS6"/>
	<path d="M338.86,77.2c0.25-0.25,0.5-0.5,0.75-0.75c0,0-0.04-0.03-0.04-0.03c-0.25,0.25-0.5,0.5-0.75,0.75&#10;&#9;&#9;C338.83,77.17,338.86,77.2,338.86,77.2z" id="el_qDPv23wkW7D"/>
	<path d="M338.11,77.95c0.25-0.25,0.5-0.5,0.75-0.75c0,0-0.04-0.03-0.04-0.03c-0.25,0.25-0.5,0.5-0.75,0.75&#10;&#9;&#9;C338.07,77.92,338.11,77.95,338.11,77.95z" id="el_ql24LrDsnq1"/>
	<path d="M337.36,78.7c0.03-0.47,0.29-0.71,0.75-0.75c0,0-0.04-0.03-0.04-0.03c-0.25,0.25-0.5,0.5-0.75,0.75&#10;&#9;&#9;L337.36,78.7z" id="el_-pvpcoRv1xQ"/>
	<path d="M336.61,79.45c0.04-0.46,0.28-0.72,0.75-0.75c0,0-0.03-0.03-0.03-0.03c-0.25,0.25-0.5,0.5-0.75,0.75&#10;&#9;&#9;C336.57,79.42,336.61,79.45,336.61,79.45z" id="el_pRE1RTLmTBu"/>
	<path d="M335.86,80.2c0.25-0.25,0.5-0.5,0.75-0.75c0,0-0.04-0.03-0.04-0.03c-0.25,0.25-0.5,0.5-0.75,0.75&#10;&#9;&#9;C335.83,80.17,335.86,80.2,335.86,80.2z" id="el_mJP0jiY4gJK"/>
	<path d="M335.11,80.95c0.04-0.46,0.28-0.72,0.75-0.75c0,0-0.04-0.03-0.04-0.03c-0.25,0.25-0.5,0.5-0.75,0.75&#10;&#9;&#9;C335.08,80.92,335.11,80.95,335.11,80.95z" id="el_BL7peJB4Roz"/>
	<path d="M334.36,81.7c0.25-0.25,0.5-0.5,0.75-0.75c0,0-0.04-0.03-0.04-0.03c-0.25,0.25-0.5,0.5-0.75,0.75&#10;&#9;&#9;C334.33,81.67,334.36,81.7,334.36,81.7z" id="el_b5mT21m6JZX"/>
	<path d="M333.61,82.45c0.25-0.25,0.5-0.5,0.75-0.75c0,0-0.04-0.03-0.04-0.03c-0.25,0.25-0.5,0.5-0.75,0.75&#10;&#9;&#9;L333.61,82.45z" id="el_DZxaI8vzOhd"/>
	<path d="M332.86,83.2c0.25-0.25,0.5-0.5,0.75-0.75c0,0-0.04-0.03-0.04-0.03c-0.25,0.25-0.5,0.5-0.75,0.75&#10;&#9;&#9;C332.83,83.17,332.86,83.2,332.86,83.2z" id="el_6mBCZXTQ5Vu"/>
	<path d="M332.11,83.95c0.03-0.47,0.29-0.71,0.75-0.75c0,0-0.04-0.03-0.04-0.03c-0.25,0.25-0.5,0.5-0.75,0.75&#10;&#9;&#9;L332.11,83.95z" id="el_pf0nhxdDnmn"/>
	<path d="M331.36,84.7c0.05-0.46,0.28-0.72,0.75-0.75c0,0-0.03-0.03-0.03-0.03c-0.25,0.25-0.5,0.5-0.75,0.75&#10;&#9;&#9;C331.32,84.67,331.36,84.7,331.36,84.7z" id="el_PxFJywWfiPy"/>
	<path d="M330.61,85.45c0.02-0.47,0.29-0.71,0.75-0.75c0,0-0.04-0.03-0.04-0.03c-0.25,0.25-0.5,0.5-0.75,0.75&#10;&#9;&#9;C330.58,85.42,330.61,85.45,330.61,85.45z" id="el_2IUxaj9kQMI"/>
	<path d="M329.86,86.2c0.04-0.46,0.28-0.72,0.75-0.75c0,0-0.03-0.03-0.03-0.03c-0.25,0.25-0.5,0.5-0.75,0.75&#10;&#9;&#9;L329.86,86.2z" id="el_GL9SeJqF70h"/>
	<path d="M329.11,86.95c0.25-0.25,0.5-0.5,0.75-0.75c0,0-0.04-0.03-0.04-0.03c-0.25,0.25-0.5,0.5-0.75,0.75&#10;&#9;&#9;L329.11,86.95z" id="el_62jTxvw7oV6"/>
	<path d="M328.36,87.7c0.04-0.46,0.29-0.71,0.75-0.75c0,0-0.04-0.03-0.04-0.03c-0.25,0.25-0.5,0.5-0.75,0.75&#10;&#9;&#9;L328.36,87.7z" id="el_Nujp-BkN2Nr"/>
	<path d="M327.61,88.45c0.04-0.46,0.29-0.71,0.75-0.75c0,0-0.04-0.03-0.04-0.03c-0.25,0.25-0.5,0.5-0.75,0.75&#10;&#9;&#9;C327.58,88.42,327.61,88.45,327.61,88.45z" id="el_Bam7RrwV1pF"/>
	<path d="M326.86,89.2c0.04-0.46,0.29-0.71,0.75-0.75c0,0-0.04-0.03-0.04-0.03c-0.25,0.25-0.5,0.5-0.75,0.75&#10;&#9;&#9;L326.86,89.2z" id="el_sc5WIjo6cX-"/>
	<path d="M374.86,41.2c0.25-0.25,0.5-0.51,0.74-0.76c0,0-0.03-0.03-0.03-0.03c-0.25,0.25-0.5,0.51-0.75,0.76&#10;&#9;&#9;C374.82,41.17,374.86,41.2,374.86,41.2z" id="el_75BkHZcBUzY"/>
	<path d="M325.36,90.7c0.03-0.47,0.29-0.71,0.74-0.75c0,0-0.03-0.03-0.03-0.03c-0.25,0.25-0.5,0.5-0.75,0.75&#10;&#9;&#9;C325.33,90.67,325.36,90.7,325.36,90.7z" id="el_yniiUg4vCFc"/>
	<path d="M324.61,91.45c0.04-0.46,0.28-0.72,0.75-0.75c0,0-0.03-0.03-0.03-0.03c-0.25,0.25-0.5,0.5-0.75,0.75&#10;&#9;&#9;L324.61,91.45z" id="el_sF8xOhzubOw"/>
	<path d="M323.86,92.2c0.02-0.47,0.29-0.71,0.75-0.75c0,0-0.04-0.03-0.04-0.03c-0.25,0.25-0.5,0.5-0.75,0.75&#10;&#9;&#9;C323.83,92.17,323.86,92.2,323.86,92.2z" id="el_SFIVOnBfm_I"/>
	<path d="M323.11,92.95c0.04-0.47,0.28-0.72,0.75-0.75c0,0-0.03-0.03-0.03-0.03c-0.25,0.25-0.5,0.5-0.75,0.75&#10;&#9;&#9;L323.11,92.95z" id="el_MGzvl7UScZi"/>
	<path d="M322.36,93.7c0.03-0.47,0.29-0.71,0.75-0.75c0,0-0.04-0.03-0.04-0.03c-0.25,0.25-0.5,0.5-0.75,0.75&#10;&#9;&#9;L322.36,93.7z" id="el_piJSxPFDDud"/>
	<path d="M321.61,94.45c0.03-0.47,0.28-0.72,0.75-0.75c0,0-0.04-0.03-0.04-0.03c-0.25,0.25-0.5,0.5-0.75,0.75&#10;&#9;&#9;L321.61,94.45z" id="el_7ln3wyJ8D8I"/>
	<path d="M320.86,95.2c0.03-0.47,0.28-0.72,0.75-0.75c0,0-0.04-0.03-0.04-0.03c-0.25,0.25-0.5,0.5-0.75,0.75&#10;&#9;&#9;L320.86,95.2z" id="el_RTSuz0aQrVf"/>
	<path d="M320.11,95.95c0.03-0.47,0.28-0.72,0.75-0.75c0,0-0.04-0.03-0.04-0.03c-0.25,0.25-0.5,0.5-0.75,0.75&#10;&#9;&#9;L320.11,95.95z" id="el_wzihj4tZVq1"/>
	<path d="M319.36,96.7c0.04-0.46,0.28-0.72,0.75-0.75c0,0-0.04-0.03-0.04-0.03c-0.25,0.25-0.5,0.5-0.75,0.75&#10;&#9;&#9;C319.33,96.67,319.36,96.7,319.36,96.7z" id="el_xfWhs0QzSen"/>
	<path d="M318.61,97.45c0.02-0.48,0.29-0.71,0.75-0.75c0,0-0.04-0.03-0.04-0.03c-0.25,0.25-0.5,0.5-0.75,0.75&#10;&#9;&#9;L318.61,97.45z" id="el_cA-cF6Tt-JR"/>
	<path d="M344.11,71.95c0.03-0.48,0.29-0.71,0.75-0.76c0,0-0.03-0.03-0.03-0.03c-0.25,0.25-0.5,0.5-0.75,0.75&#10;&#9;&#9;C344.08,71.92,344.11,71.95,344.11,71.95z" id="el_WrE-oFxgiq8"/>
	<path d="M317.86,98.2c0.04-0.46,0.28-0.73,0.75-0.75c0,0-0.03-0.03-0.03-0.03c-0.25,0.25-0.5,0.5-0.75,0.75&#10;&#9;&#9;L317.86,98.2z" id="el_BofXs9r4QYP"/>
	<path d="M317.11,98.95c0.02-0.48,0.29-0.71,0.75-0.75c0,0-0.04-0.03-0.04-0.03c-0.25,0.25-0.5,0.5-0.75,0.75&#10;&#9;&#9;L317.11,98.95z" id="el_vHDgnudpqdF"/>
	<path d="M316.36,99.7c0.03-0.47,0.28-0.73,0.75-0.75c0,0-0.03-0.03-0.03-0.03c-0.25,0.25-0.5,0.5-0.75,0.75&#10;&#9;&#9;L316.36,99.7z" id="el_wPewfopmFRg"/>
	<path d="M315.61,100.45c0.03-0.47,0.28-0.72,0.75-0.75c0,0-0.04-0.03-0.04-0.03c-0.25,0.25-0.5,0.5-0.75,0.75&#10;&#9;&#9;L315.61,100.45z" id="el_ZlmckhS2Fxq"/>
	<path d="M314.86,101.2c0.03-0.47,0.28-0.72,0.75-0.75c0,0-0.04-0.03-0.04-0.03c-0.25,0.25-0.5,0.5-0.75,0.75&#10;&#9;&#9;L314.86,101.2z" id="el_RGwTbNlZwIR"/>
	<path d="M314.11,101.95c0.03-0.47,0.28-0.73,0.75-0.75c0,0-0.03-0.03-0.03-0.03c-0.25,0.25-0.5,0.5-0.75,0.75&#10;&#9;&#9;C314.08,101.92,314.11,101.95,314.11,101.95z" id="el_XAcIzoF5jas"/>
	<path d="M374.11,41.94c0.25-0.25,0.5-0.5,0.75-0.75c0,0-0.03-0.03-0.03-0.03c-0.25,0.25-0.5,0.5-0.75,0.75&#10;&#9;&#9;C374.07,41.92,374.11,41.94,374.11,41.94z" id="el_E7rfKJ4BUcY"/>
	<path d="M373.36,42.69c0.25-0.25,0.5-0.5,0.75-0.75c0,0-0.03-0.03-0.03-0.03c-0.25,0.25-0.5,0.5-0.75,0.75&#10;&#9;&#9;C373.32,42.67,373.36,42.69,373.36,42.69z" id="el_WxQn70vPEb0"/>
	<path d="M372.61,43.44c0.25-0.25,0.5-0.5,0.75-0.75c0,0-0.03-0.03-0.03-0.03c-0.25,0.25-0.5,0.5-0.75,0.75&#10;&#9;&#9;C372.57,43.42,372.61,43.44,372.61,43.44z" id="el_A1jl2GZgo6p"/>
	<path d="M371.85,44.2c0.25-0.25,0.5-0.5,0.75-0.75c0,0-0.03-0.03-0.03-0.03c-0.25,0.25-0.5,0.5-0.75,0.75&#10;&#9;&#9;C371.82,44.17,371.85,44.2,371.85,44.2z" id="el_4DxrDCv7EPc"/>
	<path d="M326.11,89.95c0.03-0.47,0.28-0.72,0.75-0.75c0,0-0.03-0.03-0.03-0.03c-0.25,0.25-0.5,0.5-0.75,0.75&#10;&#9;&#9;L326.11,89.95z" id="el_5GHSu3NR1-2"/>
	<path d="M326.08,89.92c0.25-0.25,0.5-0.5,0.75-0.75c0.25-0.25,0.5-0.5,0.75-0.75c0.25-0.25,0.5-0.5,0.75-0.75&#10;&#9;&#9;c0.25-0.25,0.5-0.5,0.75-0.75c0.25-0.25,0.5-0.5,0.75-0.75c0.25-0.25,0.5-0.5,0.75-0.75c0.25-0.25,0.5-0.5,0.75-0.75&#10;&#9;&#9;c0.25-0.25,0.5-0.5,0.75-0.75c0.25-0.25,0.5-0.5,0.75-0.75c0.25-0.25,0.5-0.5,0.75-0.75c0.25-0.25,0.5-0.5,0.75-0.75&#10;&#9;&#9;c0.25-0.25,0.5-0.5,0.75-0.75c0.25-0.25,0.5-0.5,0.75-0.75c0.25-0.25,0.5-0.5,0.75-0.75c0.25-0.25,0.5-0.5,0.75-0.75&#10;&#9;&#9;c0.25-0.25,0.5-0.5,0.75-0.75c0.25-0.25,0.5-0.5,0.75-0.75c0.25-0.25,0.5-0.5,0.75-0.75c0.25-0.25,0.5-0.5,0.75-0.75&#10;&#9;&#9;c0.25-0.25,0.5-0.5,0.75-0.75c0.25-0.25,0.5-0.5,0.75-0.75c0.25-0.25,0.5-0.5,0.75-0.75c0.25-0.25,0.5-0.5,0.75-0.75&#10;&#9;&#9;c0.25-0.25,0.5-0.5,0.75-0.75c0.25-0.25,0.5-0.5,0.75-0.75c0.25-0.25,0.5-0.5,0.75-0.75c0.25-0.25,0.5-0.5,0.75-0.75&#10;&#9;&#9;c0.25-0.25,0.5-0.5,0.75-0.75c0.25-0.25,0.5-0.5,0.75-0.75c0.25-0.25,0.5-0.5,0.75-0.75c0.25-0.25,0.5-0.5,0.75-0.75&#10;&#9;&#9;c0.25-0.25,0.5-0.5,0.75-0.75c0.25-0.25,0.5-0.5,0.75-0.75c0.25-0.25,0.5-0.5,0.75-0.75c0.25-0.25,0.5-0.5,0.75-0.75&#10;&#9;&#9;c0.25-0.25,0.5-0.5,0.75-0.75c0.25-0.25,0.5-0.5,0.75-0.75c0.25-0.25,0.5-0.5,0.75-0.75c0.25-0.25,0.5-0.5,0.75-0.75&#10;&#9;&#9;c0.25-0.25,0.5-0.5,0.75-0.75c0.25-0.25,0.5-0.5,0.75-0.75c0.25-0.25,0.5-0.5,0.75-0.75c0.25-0.25,0.5-0.5,0.75-0.75&#10;&#9;&#9;c0.25-0.25,0.5-0.5,0.75-0.75c0.25-0.25,0.5-0.5,0.75-0.75c0.25-0.25,0.5-0.5,0.75-0.75c0.25-0.25,0.5-0.5,0.75-0.75&#10;&#9;&#9;c0.25-0.25,0.5-0.5,0.75-0.75c0.25-0.25,0.5-0.5,0.75-0.75c0.25-0.25,0.5-0.5,0.75-0.75c0.25-0.25,0.5-0.5,0.75-0.75&#10;&#9;&#9;c0.25-0.25,0.5-0.5,0.75-0.75c0.25-0.25,0.5-0.5,0.75-0.75c0.25-0.25,0.5-0.5,0.75-0.75c0.25-0.25,0.5-0.5,0.75-0.75&#10;&#9;&#9;c0.25-0.25,0.5-0.5,0.75-0.75c0.25-0.25,0.5-0.5,0.75-0.75c0.25-0.25,0.5-0.5,0.75-0.75c0.25-0.25,0.5-0.5,0.75-0.75&#10;&#9;&#9;c0.25-0.25,0.5-0.5,0.75-0.75s0.5-0.5,0.75-0.75c0.25-0.25,0.5-0.5,0.75-0.75c0.25-0.25,0.5-0.5,0.75-0.75&#10;&#9;&#9;c0.25-0.25,0.5-0.5,0.75-0.75c0.25-0.25,0.5-0.5,0.75-0.75c0.25-0.25,0.5-0.51,0.75-0.76c4.56,3.25,7.97,7.71,12.06,11.46&#10;&#9;&#9;c1,0.92,1.98,1.85,2.97,2.77c0.04,1.92-1.56,2.75-2.66,3.85c-18.21,18.25-36.45,36.47-54.66,54.72c-1.11,1.11-2.64,1.99-2.75,3.84&#10;&#9;&#9;c-1.06,0.6-2.02,1.5-3.4,1.11c-3.33-4.82-8.03-8.33-11.93-12.61c-0.95-1.04-2.51-1.87-1.12-3.63c0.25-0.25,0.5-0.5,0.75-0.75&#10;&#9;&#9;c0.25-0.25,0.5-0.5,0.75-0.75c0.25-0.25,0.5-0.5,0.75-0.75c0.25-0.25,0.5-0.5,0.75-0.75c0.25-0.25,0.5-0.5,0.75-0.75&#10;&#9;&#9;c0.25-0.25,0.5-0.5,0.75-0.75c0.25-0.25,0.5-0.5,0.75-0.75c0.25-0.25,0.5-0.5,0.75-0.75c0.25-0.25,0.5-0.5,0.75-0.75&#10;&#9;&#9;c0.25-0.25,0.5-0.5,0.75-0.75c0.25-0.25,0.5-0.5,0.75-0.75c0.25-0.25,0.5-0.5,0.75-0.75c0.25-0.25,0.5-0.5,0.75-0.75&#10;&#9;&#9;c0.25-0.25,0.5-0.5,0.75-0.75c0.25-0.25,0.5-0.5,0.75-0.75C325.58,90.42,325.83,90.17,326.08,89.92z" id="el_YafgwU73iNu"/>
	<path d="M298.05,116.45c-0.32,1.3-1.39,2.02-2.26,2.88c-9.32,9.26-18.65,18.5-27.99,27.75&#10;&#9;&#9;c-20.73-15.56-43.94-20.82-69.31-16.13c-21.26,3.93-38.65,14.58-51.71,31.83c-15.2,20.08-20.41,42.82-16.22,67.53&#10;&#9;&#9;c3.81,22.39,14.91,40.64,33.32,54.08c19.15,13.98,40.64,18.99,64.11,15.64c21.75-3.1,39.75-13.2,53.63-30.02&#10;&#9;&#9;c25.39-30.78,25.83-75.42,1.53-107.63c10.18-10.19,20.36-20.38,30.55-30.58c13.93,16.58,23.32,35.46,27.51,56.68&#10;&#9;&#9;c7.82,39.64-0.46,75.71-25.56,107.48c-20.49,25.93-47.51,41.77-80.06,46.41c-49.26,7.03-90.41-8.84-121.99-47.61&#10;&#9;&#9;c-16.12-19.79-24.87-42.87-26.84-68.33c-3.19-41.26,10.03-76.57,39.88-105.18c21.67-20.77,47.91-32.12,77.89-34.49&#10;&#9;&#9;c33.87-2.67,64.19,6.61,90.99,27.45C296.4,114.92,297.21,115.71,298.05,116.45z" id="el_C3NHoBQIR-7"/>
	<path d="M252.32,193.21c12.37,23.07,4.37,50.43-18.67,60.84c-28.69,12.97-59.55-5.7-61.37-35.84&#10;&#9;&#9;c-2.19-36.21,34.69-56.62,64.7-40.32c-9.06,9.13-18.12,18.27-27.18,27.4c-0.7,0.71-1.44,1.39-2.1,2.14&#10;&#9;&#9;c-4.28,4.79-4.42,10.72-0.37,14.83c4.49,4.56,10.52,4.73,15.36,0.14c4.9-4.64,9.56-9.53,14.36-14.27&#10;&#9;&#9;C242.12,203.14,247.23,198.19,252.32,193.21z" id="el_qS8HR-ze58Z"/>
</g>
</svg>