<svg xmlns="http://www.w3.org/2000/svg" width="50" height="50" viewBox="0 0 172 172">
  <g fill="none" stroke-miterlimit="10" font-family="none" font-weight="none" font-size="none" text-anchor="none" style="mix-blend-mode:normal">
    <path d="M0 172V0h172v172z"/>
    <path d="M86 .215c-26.432 0-47.945 21.513-47.945 47.945 0 21.903 11.49 47.018 22.79 66.972 11.3 19.955 22.575 34.723 22.575 34.723a3.214 3.214 0 002.58 1.317 3.214 3.214 0 002.58-1.317s11.287-14.97 22.575-35.045c11.287-20.076 22.79-45.204 22.79-66.65C133.945 21.728 112.432.215 86 .215zm0 6.45c22.978 0 41.495 18.517 41.495 41.495 0 19.108-10.857 43.86-21.93 63.532-9.043 16.085-16.568 26.634-19.565 30.746-3.01-4.059-10.535-14.473-19.565-30.423-11.06-19.538-21.93-44.236-21.93-63.855C44.505 25.182 63.022 6.665 86 6.665zm0 20.963c-13.196 0-23.973 10.776-23.973 23.972 0 13.196 10.777 23.973 23.973 23.973s23.973-10.777 23.973-23.973S99.195 27.628 86 27.628zm0 6.664c9.608 0 17.308 7.7 17.308 17.308S95.608 68.907 86 68.907s-17.308-7.7-17.308-17.307c0-9.608 7.7-17.308 17.308-17.308zm-33.862 83.206c-13.76 2.015-25.397 5.2-33.97 9.352-4.287 2.07-7.835 4.38-10.428 7.095-2.593 2.714-4.3 6.087-4.3 9.675 0 4.918 3.144 9.124 7.633 12.47 4.488 3.346 10.548 6.047 17.952 8.385C43.82 169.151 63.855 172 86 172c22.145 0 42.18-2.849 56.975-7.525 7.404-2.338 13.464-5.04 17.953-8.385 4.488-3.346 7.632-7.552 7.632-12.47 0-3.574-1.707-6.96-4.3-9.675-2.593-2.714-6.14-5.026-10.428-7.095-8.573-4.152-20.21-7.337-33.97-9.352a3.489 3.489 0 00-3.977 2.902 3.489 3.489 0 002.902 3.978c13.277 1.948 24.457 5.039 32.035 8.707 3.79 1.84 6.72 3.843 8.493 5.697 1.774 1.855 2.365 3.4 2.365 4.838 0 1.975-1.317 4.246-4.838 6.88-3.52 2.634-8.99 5.227-15.91 7.418-13.84 4.367-33.378 7.202-54.932 7.202-21.554 0-41.092-2.835-54.932-7.203-6.92-2.19-12.39-4.783-15.91-7.417-3.521-2.634-4.838-4.905-4.838-6.88 0-1.438.591-2.983 2.365-4.838 1.774-1.854 4.703-3.856 8.493-5.697 7.578-3.668 18.758-6.76 32.034-8.707a3.489 3.489 0 002.903-3.978 3.489 3.489 0 00-3.978-2.902z" fill="#2138c9"/>
  </g>
</svg>