<svg xmlns="http://www.w3.org/2000/svg" x="0px" y="0px"
width="50" height="50"
viewBox="0 0 172 172"
style=" fill:#000000;"><g fill="none" fill-rule="nonzero" stroke="none" stroke-width="1" stroke-linecap="butt" stroke-linejoin="miter" stroke-miterlimit="10" stroke-dasharray="" stroke-dashoffset="0" font-family="none" font-weight="none" font-size="none" text-anchor="none" style="mix-blend-mode: normal"><path d="M0,172v-172h172v172z" fill="none"></path><g fill="#0087ff"><path d="M86,0.215c-26.43156,0 -47.945,21.51344 -47.945,47.945c0,21.90313 11.48906,47.01781 22.79,66.9725c11.30094,19.95469 22.575,34.7225 22.575,34.7225c0.60469,0.81969 1.55875,1.31688 2.58,1.31688c1.02125,0 1.97531,-0.49719 2.58,-1.31688c0,0 11.2875,-14.96937 22.575,-35.045c11.2875,-20.07562 22.79,-45.20375 22.79,-66.65c0,-26.43156 -21.51344,-47.945 -47.945,-47.945zM86,6.665c22.97813,0 41.495,18.51688 41.495,41.495c0,19.10813 -10.8575,43.86 -21.93,63.5325c-9.04344,16.08469 -16.56844,26.63313 -19.565,30.745c-3.01,-4.05812 -10.535,-14.47219 -19.565,-30.4225c-11.05906,-19.53812 -21.93,-44.23625 -21.93,-63.855c0,-22.97812 18.51688,-41.495 41.495,-41.495zM86,27.6275c-13.19562,0 -23.9725,10.77688 -23.9725,23.9725c0,13.19563 10.77688,23.9725 23.9725,23.9725c13.19563,0 23.9725,-10.77687 23.9725,-23.9725c0,-13.19562 -10.77687,-23.9725 -23.9725,-23.9725zM86,34.2925c9.60781,0 17.3075,7.69969 17.3075,17.3075c0,9.60781 -7.69969,17.3075 -17.3075,17.3075c-9.60781,0 -17.3075,-7.69969 -17.3075,-17.3075c0,-9.60781 7.69969,-17.3075 17.3075,-17.3075zM52.1375,117.4975c-13.76,2.01563 -25.39687,5.20031 -33.97,9.3525c-4.28656,2.06938 -7.83406,4.38063 -10.4275,7.095c-2.59344,2.71438 -4.3,6.08719 -4.3,9.675c0,4.91813 3.14438,9.12406 7.6325,12.47c4.48813,3.34594 10.54844,6.04688 17.9525,8.385c14.79469,4.67625 34.83,7.525 56.975,7.525c22.145,0 42.18031,-2.84875 56.975,-7.525c7.40406,-2.33812 13.46438,-5.03906 17.9525,-8.385c4.48813,-3.34594 7.6325,-7.55187 7.6325,-12.47c0,-3.57437 -1.70656,-6.96062 -4.3,-9.675c-2.59344,-2.71437 -6.14094,-5.02562 -10.4275,-7.095c-8.57312,-4.15219 -20.21,-7.33687 -33.97,-9.3525c-1.89469,-0.29562 -3.68187,1.00781 -3.9775,2.9025c-0.29562,1.89469 1.00781,3.68188 2.9025,3.9775c13.27625,1.94844 24.45625,5.03906 32.035,8.7075c3.78938,1.84094 6.71875,3.84313 8.4925,5.6975c1.77375,1.85438 2.365,3.39969 2.365,4.8375c0,1.97531 -1.31687,4.24625 -4.8375,6.88c-3.52062,2.63375 -8.98969,5.22719 -15.91,7.4175c-13.84062,4.36719 -33.37875,7.2025 -54.9325,7.2025c-21.55375,0 -41.09187,-2.83531 -54.9325,-7.2025c-6.92031,-2.19031 -12.38937,-4.78375 -15.91,-7.4175c-3.52062,-2.63375 -4.8375,-4.90469 -4.8375,-6.88c0,-1.43781 0.59125,-2.98312 2.365,-4.8375c1.77375,-1.85437 4.70313,-3.85656 8.4925,-5.6975c7.57875,-3.66844 18.75875,-6.75906 32.035,-8.7075c1.89469,-0.29562 3.19813,-2.08281 2.9025,-3.9775c-0.29562,-1.89469 -2.08281,-3.19812 -3.9775,-2.9025z"></path></g></g></svg>