                                    <svg xmlns="http://www.w3.org/2000/svg" x="0px" y="0px" width="70" height="70"
                                        viewBox="0 0 172 172" style=" fill:#000000;">
                                        <g fill="none" fill-rule="nonzero" stroke="none" stroke-width="1" stroke-linecap="butt"
                                            stroke-linejoin="miter" stroke-miterlimit="10" stroke-dasharray="" stroke-dashoffset="0"
                                            font-family="none" font-weight="none" font-size="none" text-anchor="none"
                                            style="mix-blend-mode: normal">
                                            <path d="M0,172v-172h172v172z" fill="none"></path>
                                            <g fill="#007bff">
                                                <path
                                                    d="M48.16,6.88c-1.89469,0 -3.44,1.53188 -3.44,3.44v68.8c0,1.90813 1.54531,3.44 3.44,3.44h41.28v14.405c-0.51062,0.20156 -1.00781,0.44344 -1.49156,0.73906c-2.24406,1.41094 -3.77594,3.61469 -4.28656,6.16781l-4.81063,23.09906l-14.28406,6.85313h-21.13719c-13.15531,1.00781 -15.91,9.52719 -15.91,16.50125v18.23469c0,1.90813 1.54531,3.44 3.44,3.44h44.72c1.89469,0 3.44,-1.53187 3.44,-3.44v-15.18437l13.15531,-10.34688c2.20375,-1.76031 4.13875,-4.85094 4.64937,-7.47125l5.85875,-27.56031c0.51063,-2.53969 0.04031,-5.13312 -1.31687,-7.31c-1.20938,-1.935 -3.02344,-3.29219 -5.14656,-3.9775v-14.14969h41.28c1.89469,0 3.44,-1.53187 3.44,-3.44v-68.8c0,-1.90812 -1.54531,-3.44 -3.44,-3.44zM89.44,24.08h6.88v27.52h-6.88zM92.88,58.48c1.89469,0 3.44,1.54531 3.44,3.44c0,1.89469 -1.54531,3.44 -3.44,3.44c-1.89469,0 -3.44,-1.54531 -3.44,-3.44c0,-1.89469 1.54531,-3.44 3.44,-3.44zM53.32,92.88c-10.45437,0 -18.92,8.46563 -18.92,18.92c0,10.45438 8.46563,18.92 18.92,18.92c10.45438,0 18.92,-8.46562 18.92,-18.92c0,-10.45437 -8.46562,-18.92 -18.92,-18.92z">
                                                </path>
                                            </g>
                                        </g>
                                    </svg>