<svg xmlns="http://www.w3.org/2000/svg" x="0px" y="0px"
width="50" height="50"
viewBox="0 0 172 172"
style=" fill:#000000;"><g fill="none" fill-rule="nonzero" stroke="none" stroke-width="1" stroke-linecap="butt" stroke-linejoin="miter" stroke-miterlimit="10" stroke-dasharray="" stroke-dashoffset="0" font-family="none" font-weight="none" font-size="none" text-anchor="none" style="mix-blend-mode: normal"><path d="M0,172v-172h172v172z" fill="none"></path><g fill="#2ECC71"><path d="M85.94625,10.26625c-1.89469,0.04031 -3.41312,1.59906 -3.38625,3.49375v6.88c-0.01344,1.23625 0.63156,2.39188 1.70656,3.02344c1.075,0.61813 2.39187,0.61813 3.46687,0c1.075,-0.63156 1.72,-1.78719 1.70656,-3.02344v-6.88c0.01344,-0.92719 -0.34937,-1.8275 -1.00781,-2.48594c-0.65844,-0.65844 -1.55875,-1.02125 -2.48594,-1.00781zM30.93313,27.49313c-1.41094,0 -2.66063,0.84656 -3.19813,2.13656c-0.52406,1.30344 -0.215,2.78156 0.79281,3.7625l6.88,6.88c0.86,0.90031 2.15,1.26313 3.34594,0.94063c1.20938,-0.30906 2.15,-1.24969 2.45906,-2.45906c0.3225,-1.19594 -0.04031,-2.48594 -0.94063,-3.34594l-6.88,-6.88c-0.645,-0.67188 -1.53187,-1.03469 -2.45906,-1.03469zM140.97281,27.49313c-0.90031,0.01344 -1.74688,0.38969 -2.365,1.03469l-6.88,6.88c-0.90031,0.86 -1.26313,2.15 -0.94063,3.34594c0.30906,1.20938 1.24969,2.15 2.45906,2.45906c1.19594,0.3225 2.48594,-0.04031 3.34594,-0.94063l6.88,-6.88c1.02125,-0.99437 1.31688,-2.49937 0.76594,-3.80281c-0.55094,-1.31688 -1.84094,-2.15 -3.26531,-2.09625zM75.68,34.4c-5.01219,0 -9.55406,2.75469 -11.94594,7.00094c-0.60469,-0.08062 -1.20938,-0.12094 -1.81406,-0.12094c-7.59219,0 -13.76,6.16781 -13.76,13.76c0,0.14781 0,0.29563 0,0.43c0.1075,0.91375 0.24188,1.27656 0.48375,2.01563c0.16125,0.48375 1.66625,4.43437 6.39625,4.43437c1.90813,0 3.44,1.54531 3.44,3.44c0,1.89469 -1.53187,3.44 -3.44,3.44c-7.955,0 -11.95937,-6.03344 -12.95375,-9.23156c-0.06719,-0.20156 -0.02687,-0.40312 -0.05375,-0.60469c-2.56656,2.49938 -4.1925,5.97969 -4.1925,9.83625c0,2.32469 0.57781,4.55531 1.66625,6.54406c-3.15781,2.56656 -5.10625,6.46344 -5.10625,10.65594c0,4.1925 1.94844,8.08938 5.10625,10.65594c-1.08844,1.98875 -1.66625,4.21938 -1.66625,6.54406c0,6.39625 4.38063,12.22813 10.32,13.76c0.17469,0 3.46688,0 5.16,-1.65281c1.14219,-1.08844 1.72,-2.86219 1.72,-5.22719c0,-1.89469 1.53188,-3.44 3.44,-3.44c1.90813,0 3.44,1.54531 3.44,3.44c0,4.35375 -1.30344,7.80719 -3.89687,10.26625c-2.76813,2.60688 -6.1275,3.25188 -8.00875,3.38625c2.37844,4.15219 6.78594,6.9875 11.90562,6.9875c0.60469,0 1.20938,-0.04031 1.81406,-0.12094c2.39187,4.24625 6.93375,7.00094 11.94594,7.00094c1.69313,0 3.30563,-0.34937 4.78375,-0.95406c1.29,-0.52406 2.09625,-1.80062 2.09625,-3.18469v-54.34125c-3.78937,0 -6.88,3.09063 -6.88,6.88c0,1.89469 -1.53187,3.44 -3.44,3.44c-1.90812,0 -3.44,-1.54531 -3.44,-3.44c0,-7.59219 6.16781,-13.76 13.76,-13.76v-33.70125c0,-1.3975 -0.81969,-2.67406 -2.09625,-3.18469c-1.49156,-0.60469 -3.09062,-0.95406 -4.78375,-0.95406zM96.25281,34.4c-1.66625,0 -3.23844,0.33594 -4.70313,0.91375c-1.29,0.51063 -2.10969,1.80063 -2.10969,3.18469v52.86313c2.02906,-1.19594 4.36719,-1.92156 6.88,-1.92156c1.90813,0 3.44,1.54531 3.44,3.44c0,1.89469 -1.53187,3.44 -3.44,3.44c-3.78937,0 -6.88,3.09063 -6.88,6.88v30.30156c0,1.38406 0.81969,2.67406 2.10969,3.18469c1.46469,0.57781 3.03688,0.91375 4.70313,0.91375c5.01219,0 9.54062,-2.75469 11.94594,-7.00094c0.59125,0.08062 1.20938,0.12094 1.81406,0.12094c7.59219,0 13.76,-6.16781 13.76,-13.76c0,-0.14781 0,-0.29562 0,-0.43c5.92594,-1.53187 10.32,-6.93375 10.32,-13.33c0,-2.64719 -1.85438,-4.6225 -2.32469,-5.06594c-0.68531,-0.67188 -4.39406,-3.80281 -9.01656,0.65844c-0.67188,0.645 -1.54531,0.9675 -2.40531,0.9675c-0.90031,0 -1.78719,-0.34937 -2.4725,-1.04812c-1.31687,-1.37063 -1.27656,-3.5475 0.09406,-4.86438c7.06812,-6.83969 14.33781,-4.13875 17.81812,-1.33031c1.08844,-1.96187 1.74688,-4.17906 1.74688,-6.51719c0,-4.1925 -1.94844,-8.08937 -5.10625,-10.65594c1.08844,-1.98875 1.66625,-4.21938 1.66625,-6.54406c0,-3.84312 -1.6125,-7.32344 -4.16563,-9.82281c-0.01344,0.09406 0.01344,0.18813 -0.01344,0.26875c-0.68531,3.30563 -4.28656,9.55406 -12.95375,9.55406c-1.90812,0 -3.44,-1.54531 -3.44,-3.44c0,-1.89469 1.53188,-3.44 3.44,-3.44c6.18125,0 6.88,-6.73219 6.88,-6.88c0,-7.59219 -6.235,-13.76 -13.82719,-13.76c-0.60469,0 -1.22281,0.04031 -1.81406,0.12094c-2.40531,-4.24625 -6.93375,-7.00094 -11.94594,-7.00094zM13.76,82.56c-1.23625,-0.01344 -2.39187,0.63156 -3.02344,1.70656c-0.61813,1.075 -0.61813,2.39187 0,3.46687c0.63156,1.075 1.78719,1.72 3.02344,1.70656h10.32c1.23625,0.01344 2.39188,-0.63156 3.02344,-1.70656c0.61813,-1.075 0.61813,-2.39187 0,-3.46687c-0.63156,-1.075 -1.78719,-1.72 -3.02344,-1.70656zM147.92,82.56c-1.23625,-0.01344 -2.39187,0.63156 -3.02344,1.70656c-0.61813,1.075 -0.61813,2.39187 0,3.46687c0.63156,1.075 1.78719,1.72 3.02344,1.70656h10.32c1.23625,0.01344 2.39188,-0.63156 3.02344,-1.70656c0.61813,-1.075 0.61813,-2.39187 0,-3.46687c-0.63156,-1.075 -1.78719,-1.72 -3.02344,-1.70656zM37.77281,130.67969c-0.90031,0.02688 -1.74688,0.40313 -2.365,1.04813l-6.88,6.88c-0.90031,0.86 -1.26313,2.15 -0.94063,3.34594c0.30906,1.20938 1.24969,2.15 2.45906,2.45906c1.19594,0.3225 2.48594,-0.04031 3.34594,-0.94063l6.88,-6.88c1.02125,-0.99437 1.31688,-2.49937 0.76594,-3.80281c-0.55094,-1.31688 -1.84094,-2.15 -3.26531,-2.10969zM134.11969,130.67969c-1.3975,0.01344 -2.64719,0.86 -3.18469,2.15c-0.52406,1.30344 -0.215,2.78156 0.79281,3.7625l6.88,6.88c0.86,0.90031 2.15,1.26313 3.34594,0.94063c1.20938,-0.30906 2.15,-1.24969 2.45906,-2.45906c0.3225,-1.19594 -0.04031,-2.48594 -0.94063,-3.34594l-6.88,-6.88c-0.645,-0.67188 -1.53187,-1.03469 -2.4725,-1.04813zM85.94625,147.86625c-1.89469,0.04031 -3.41312,1.59906 -3.38625,3.49375v6.88c-0.01344,1.23625 0.63156,2.39188 1.70656,3.02344c1.075,0.61813 2.39187,0.61813 3.46687,0c1.075,-0.63156 1.72,-1.78719 1.70656,-3.02344v-6.88c0.01344,-0.92719 -0.34937,-1.8275 -1.00781,-2.48594c-0.65844,-0.65844 -1.55875,-1.02125 -2.48594,-1.00781z"></path></g></g></svg>