<svg xmlns="http://www.w3.org/2000/svg" x="0px" y="0px"
width="50" height="50"
viewBox="0 0 172 172"
style=" fill:#000000;"><g fill="none" fill-rule="nonzero" stroke="none" stroke-width="1" stroke-linecap="butt" stroke-linejoin="miter" stroke-miterlimit="10" stroke-dasharray="" stroke-dashoffset="0" font-family="none" font-weight="none" font-size="none" text-anchor="none" style="mix-blend-mode: normal"><path d="M0,172v-172h172v172z" fill="none"></path><g fill="#ff4500"><path d="M86,6.88c-43.62608,0 -79.12,35.49392 -79.12,79.12c0,43.62608 35.49392,79.12 79.12,79.12c43.62608,0 79.12,-35.49392 79.12,-79.12c0,-15.81368 -4.67963,-30.54898 -12.70515,-42.9261l-3.07047,3.07047l-1.96187,1.96188c6.83872,11.03208 10.8575,23.98583 10.8575,37.89375c0,39.8352 -32.4048,72.24 -72.24,72.24c-39.8352,0 -72.24,-32.4048 -72.24,-72.24c0,-39.8352 32.4048,-72.24 72.24,-72.24c16.90183,0 32.406,5.908 44.72,15.67484v6.98078l-8.37828,8.37828c-9.70193,-8.57967 -22.40322,-13.8339 -36.34172,-13.8339c-30.34768,0 -55.04,24.69232 -55.04,55.04c0,30.34768 24.69232,55.04 55.04,55.04c30.34768,0 55.04,-24.69232 55.04,-55.04c0,-11.45176 -3.52422,-22.09625 -9.5339,-30.91297l-4.98531,4.98531c4.80912,7.49576 7.63922,16.37821 7.63922,25.92765c0,26.5568 -21.6032,48.16 -48.16,48.16c-26.5568,0 -48.16,-21.6032 -48.16,-48.16c0,-26.5568 21.6032,-48.16 48.16,-48.16c12.04446,0 23.03115,4.47797 31.47735,11.81828l-12.20125,12.20125c-5.29299,-4.24538 -11.97799,-6.81953 -19.2761,-6.81953c-17.06928,0 -30.96,13.89072 -30.96,30.96c0,17.06928 13.89072,30.96 30.96,30.96c17.06928,0 30.96,-13.89072 30.96,-30.96c0,-4.77128 -1.11703,-9.27129 -3.05031,-13.30985l-5.24734,5.24063c0.90128,2.52496 1.41765,5.2381 1.41765,8.06922c0,13.2784 -10.8016,24.08 -24.08,24.08c-13.2784,0 -24.08,-10.8016 -24.08,-24.08c0,-13.2784 10.8016,-24.08 24.08,-24.08c5.40067,0 10.37206,1.80956 14.39156,4.82406l-12.61781,12.61781c-0.57819,-0.15753 -1.17449,-0.23884 -1.77375,-0.24187c-3.79972,0 -6.88,3.08028 -6.88,6.88c0,3.79972 3.08028,6.88 6.88,6.88c3.79972,0 6.88,-3.08028 6.88,-6.88c-0.00025,-0.60121 -0.07931,-1.1998 -0.23515,-1.78047l42.93953,-42.93953h8.89563l17.2,-17.2h-13.76v-13.76l-13.32328,13.32328c-13.42317,-10.48754 -30.28098,-16.76328 -48.59672,-16.76328z"></path></g></g></svg>