<svg xmlns="http://www.w3.org/2000/svg" width="50" height="50" viewBox="0 0 172 172">
  <g fill="none" stroke-miterlimit="10" font-family="none" font-weight="none" font-size="none" text-anchor="none" style="mix-blend-mode:normal">
    <path d="M0 172V0h172v172z"/>
    <path d="M20.64 0c-5.657 0-10.32 4.663-10.32 10.32v27.52c0 7.162.968 11.865 1.827 16.555.86 4.69 1.613 9.473 1.613 17.845 0 8.372-.78 11.153-1.612 14.083-.834 2.929-1.828 6.275-1.828 13.437v30.96c0 5.657 4.663 10.32 10.32 10.32h17.2v3.44c0 15.158 12.363 27.52 27.52 27.52h3.44c15.158 0 27.52-12.363 27.52-27.52v-3.44h51.6c2.513 0 4.569-1.236 6.772-3.547 2.204-2.312 4.421-5.819 6.45-11.073 4.072-10.508 7.418-28.111 7.418-57.62 0-29.509-3.292-46.158-7.418-55.9C157.017 3.158 151.897 0 147.92 0h-68.8C73.463 0 68.8 4.663 68.8 10.32v120.4c0 5.657 4.663 10.32 10.32 10.32h10.32v3.44a20.594 20.594 0 01-20.64 20.64h-3.44a20.594 20.594 0 01-20.64-20.64v-3.44h10.32c5.657 0 10.32-4.663 10.32-10.32V99.76c0-7.162-.994-10.508-1.828-13.437-.833-2.93-1.612-5.711-1.612-14.083s.752-13.155 1.612-17.845c.86-4.69 1.828-9.393 1.828-16.555V10.32C65.36 4.663 60.697 0 55.04 0zm0 6.88h34.4c1.935 0 3.44 1.505 3.44 3.44v27.52c0 6.598-.752 10.495-1.613 15.265-.86 4.77-1.827 10.307-1.827 19.135 0 8.828.94 12.927 1.827 16.018.887 3.09 1.613 4.904 1.613 11.502v30.96c0 1.935-1.505 3.44-3.44 3.44H41.925a3.496 3.496 0 00-1.397 0H20.64c-1.935 0-3.44-1.505-3.44-3.44V99.76c0-6.598.726-8.412 1.612-11.503.887-3.09 1.828-7.189 1.828-16.017s-.968-14.365-1.828-19.135c-.86-4.77-1.612-8.667-1.612-15.265V10.32c0-1.935 1.505-3.44 3.44-3.44zm58.48 0h68.8c-.175 0 3.36.282 6.88 8.6s6.88 24.349 6.88 53.32-3.4 45.768-6.987 55.04c-1.788 4.636-3.561 7.364-4.946 8.815-1.034 1.088-1.935 1.424-2.042 1.505H79.12c-1.935 0-3.44-1.505-3.44-3.44V10.32c0-1.935 1.505-3.44 3.44-3.44zM92.235 17.2a3.44 3.44 0 00-2.795 3.44v27.52a3.447 3.447 0 003.44 3.44h48.16a3.447 3.447 0 003.44-3.44V20.64a3.447 3.447 0 00-3.44-3.44H92.235zm4.085 6.88h41.28v20.64H96.32zm-3.44 34.4a3.43 3.43 0 00-3.44 3.44v6.88a3.43 3.43 0 003.44 3.44h6.88a3.43 3.43 0 003.44-3.44v-6.88a3.43 3.43 0 00-3.44-3.44zm20.64 0a3.43 3.43 0 00-3.44 3.44v6.88a3.43 3.43 0 003.44 3.44h6.88a3.43 3.43 0 003.44-3.44v-6.88a3.43 3.43 0 00-3.44-3.44zm20.64 0a3.43 3.43 0 00-3.44 3.44v6.88a3.43 3.43 0 003.44 3.44h6.88a3.43 3.43 0 003.44-3.44v-6.88a3.43 3.43 0 00-3.44-3.44zM92.88 79.12a3.43 3.43 0 00-3.44 3.44v6.88a3.43 3.43 0 003.44 3.44h6.88a3.43 3.43 0 003.44-3.44v-6.88a3.43 3.43 0 00-3.44-3.44zm20.64 0a3.43 3.43 0 00-3.44 3.44v6.88a3.43 3.43 0 003.44 3.44h6.88a3.43 3.43 0 003.44-3.44v-6.88a3.43 3.43 0 00-3.44-3.44zm20.64 0a3.43 3.43 0 00-3.44 3.44v6.88a3.43 3.43 0 003.44 3.44h6.88a3.43 3.43 0 003.44-3.44v-6.88a3.43 3.43 0 00-3.44-3.44zM92.88 99.76a3.43 3.43 0 00-3.44 3.44v6.88a3.43 3.43 0 003.44 3.44h6.88a3.43 3.43 0 003.44-3.44v-6.88a3.43 3.43 0 00-3.44-3.44zm20.64 0a3.43 3.43 0 00-3.44 3.44v6.88a3.43 3.43 0 003.44 3.44h6.88a3.43 3.43 0 003.44-3.44v-6.88a3.43 3.43 0 00-3.44-3.44zm20.64 0a3.43 3.43 0 00-3.44 3.44v6.88a3.43 3.43 0 003.44 3.44h6.88a3.43 3.43 0 003.44-3.44v-6.88a3.43 3.43 0 00-3.44-3.44z" fill="#2138c9"/>
  </g>
</svg>