        <svg xmlns="http://www.w3.org/2000/svg" x="0px" y="0px" width="60" height="60"
                                    viewBox="0 0 172 172" style=" fill:#000000;">
                                    <g fill="none" fill-rule="nonzero" stroke="none" stroke-width="1" stroke-linecap="butt"
                                        stroke-linejoin="miter" stroke-miterlimit="10" stroke-dasharray=""
                                        stroke-dashoffset="0" font-family="none" font-weight="none" font-size="none"
                                        text-anchor="none" style="mix-blend-mode: normal">
                                        <path d="M0,172v-172h172v172z" fill="none"></path>
                                        <g fill="#007bff">
                                            <path
                                                d="M117.7125,14.19c-3.50719,0.20156 -6.96062,1.06156 -10.2125,2.6875l-18.92,9.245h-53.75l-30.53,-7.4175c-0.45687,-0.13437 -0.92719,-0.16125 -1.3975,-0.1075c-1.66625,0.20156 -2.92937,1.57219 -3.01,3.25188c-0.08062,1.66625 1.04813,3.15781 2.6875,3.52062l30.96,7.525l0.43,0.1075h40.5275l-29.24,14.2975c-0.12094,0.05375 -0.20156,0.16125 -0.3225,0.215c-4.54187,2.00219 -5.73781,8.21031 -2.365,11.825l-0.1075,0.1075c0.05375,0.05375 0.16125,0.05375 0.215,0.1075c10.23938,11.22031 26.45844,14.9425 40.7425,9.3525h0.1075l20.21,-7.8475l41.71,41.8175c3.15781,3.15781 3.15781,8.12969 0,11.2875c-3.15781,3.15781 -8.12969,3.15781 -11.2875,0c-1.37062,-1.10187 -3.34594,-0.99437 -4.59562,0.24188c-1.23625,1.24969 -1.34375,3.225 -0.24188,4.59562c3.15781,3.15781 3.15781,8.23719 0,11.395c-3.15781,3.15781 -8.12969,3.15781 -11.2875,0l-2.4725,-2.4725c-1.37062,-1.10187 -3.34594,-0.99437 -4.59562,0.24188c-1.23625,1.24969 -1.34375,3.225 -0.24188,4.59562c3.15781,3.15781 3.15781,8.23719 0,11.395c-3.15781,3.15781 -8.12969,3.15781 -11.2875,0l-2.365,-2.4725c-1.33031,-1.37062 -3.52062,-1.38406 -4.89125,-0.05375c-1.37062,1.33031 -1.38406,3.52063 -0.05375,4.89125c3.15781,3.15781 3.15781,8.23719 0,11.395c-3.15781,3.15781 -8.12969,3.15781 -11.2875,0l-4.3,-4.3l2.58,-2.58c5.03906,-5.03906 5.03906,-13.23594 0,-18.275c-2.51281,-2.51281 -5.83187,-3.7625 -9.1375,-3.7625c-0.04031,0 -0.06719,0 -0.1075,0c0.05375,-3.38625 -1.19594,-6.78594 -3.7625,-9.3525c-2.51281,-2.51281 -5.83187,-3.7625 -9.1375,-3.7625c-0.17469,0 -0.36281,-0.01344 -0.5375,0c0.1075,-3.45344 -1.12875,-6.93375 -3.7625,-9.5675c-2.51281,-2.51281 -5.83187,-3.87 -9.1375,-3.87c-0.17469,0 -0.36281,-0.01344 -0.5375,0c0.1075,-3.45344 -1.12875,-6.93375 -3.7625,-9.5675c-2.51281,-2.51281 -5.83187,-3.7625 -9.1375,-3.7625c-3.30562,0 -6.62469,1.24969 -9.1375,3.7625l-3.1175,3.1175l-13.8675,-2.365c-0.215,-0.05375 -0.43,-0.09406 -0.645,-0.1075c-1.89469,-0.12094 -3.53406,1.33031 -3.655,3.225c-0.12094,1.89469 1.33031,3.53406 3.225,3.655l11.2875,2.0425c-1.02125,4.23281 0.04031,8.85531 3.3325,12.1475c2.66063,2.66063 6.19469,3.91031 9.675,3.7625c-0.14781,3.48031 1.10188,7.01438 3.7625,9.675c2.66063,2.66063 6.19469,3.91031 9.675,3.7625c-0.1075,3.45344 1.12875,6.93375 3.7625,9.5675c2.56656,2.56656 5.96625,3.81625 9.3525,3.7625c-0.08062,3.39969 1.12875,6.82625 3.655,9.3525l0.1075,0.1075c3.58781,3.50719 8.74781,4.43438 13.2225,2.9025l5.2675,5.2675c5.77813,5.77813 15.29188,5.77813 21.07,0c2.80844,-2.80844 4.11188,-6.51719 4.1925,-10.2125c4.97188,1.31688 10.4275,0.3225 14.2975,-3.5475c2.80844,-2.80844 4.21938,-6.51719 4.3,-10.2125c4.95844,1.30344 10.4275,0.3225 14.2975,-3.5475c3.30563,-3.30562 4.55531,-7.80719 4.085,-12.1475c4.34031,0.48375 8.84188,-0.77937 12.1475,-4.085c3.69531,-3.69531 5.01219,-8.88219 3.9775,-13.6525l2.0425,-2.0425l12.685,-1.8275c1.89469,-0.29562 3.19813,-2.08281 2.9025,-3.9775c-0.29562,-1.89469 -2.08281,-3.19812 -3.9775,-2.9025l-13.76,2.15l-1.075,0.1075l-2.0425,2.0425c-0.24187,-0.28219 -0.48375,-0.59125 -0.7525,-0.86l-42.355,-42.355c-0.16125,-0.16125 -0.34937,-0.30906 -0.5375,-0.43c-0.04031,-0.04031 -0.06719,-0.06719 -0.1075,-0.1075c-0.90031,-1.33031 -2.59344,-1.85437 -4.085,-1.29l-22.36,8.6c-11.75781,4.64938 -24.99375,1.62594 -33.325,-7.6325l-0.1075,-0.1075c-0.44344,-0.44344 -0.47031,-0.7525 0.1075,-0.9675h0.215l0.1075,-0.1075l42.4625,-20.7475c0.72563,-0.1075 1.41094,-0.44344 1.935,-0.9675l18.1675,-8.9225h0.1075c6.3425,-3.17125 13.74656,-2.52625 19.565,1.3975l1.29,1.505l0.3225,0.43l0.43,0.215c6.24844,4.3 13.77344,5.44219 20.855,3.5475v0.1075l0.215,-0.1075l16.0175,-3.3325c1.86781,-0.41656 3.05031,-2.27094 2.63375,-4.13875c-0.41656,-1.86781 -2.27094,-3.05031 -4.13875,-2.63375l-16.125,3.44l-0.1075,0.1075h-0.1075c-5.13312,1.42438 -10.4275,0.48375 -15.05,-2.58l-1.29,-1.505l-0.3225,-0.3225l-0.43,-0.3225c-3.95062,-2.76812 -8.46562,-4.27312 -13.115,-4.6225c-1.16906,-0.08062 -2.37844,-0.06719 -3.5475,0zM30.1,95.7825c1.505,0 3.03688,0.67188 4.3,1.935c2.52625,2.52625 2.52625,6.07375 0,8.6l-2.6875,2.58l-0.3225,0.3225l-0.43,0.5375c-2.52625,2.52625 -6.07375,2.52625 -8.6,0c-2.06937,-2.06937 -2.37844,-4.78375 -1.075,-7.095c0.60469,-0.43 1.04813,-1.02125 1.29,-1.72l2.795,-2.6875l0.43,-0.5375c1.26313,-1.26312 2.795,-1.935 4.3,-1.935zM43.5375,109.22c1.505,0 3.03688,0.67188 4.3,1.935c2.52625,2.52625 2.52625,5.96625 0,8.4925l-3.44,3.44c-2.52625,2.52625 -6.07375,2.52625 -8.6,0c-2.52625,-2.52625 -2.52625,-5.96625 0,-8.4925l3.44,-3.44c1.26313,-1.26312 2.795,-1.935 4.3,-1.935zM56.975,122.6575c1.505,0 2.92938,0.67188 4.1925,1.935c2.08281,2.08281 2.43219,4.79719 1.075,7.095c-0.47031,0.34938 -0.9675,0.645 -1.3975,1.075l-3.44,3.44v0.1075h-0.1075c-0.37625,0.41656 -0.65844,0.84656 -0.9675,1.29c-2.29781,1.35719 -5.01219,1.00781 -7.095,-1.075c-2.52625,-2.52625 -2.52625,-5.96625 0,-8.4925l2.58,-2.6875l0.645,-0.5375l0.215,-0.215c1.26313,-1.26312 2.795,-1.935 4.3,-1.935zM69.9825,135.7725c1.505,0 3.03688,0.56438 4.3,1.8275c2.52625,2.52625 2.52625,6.07375 0,8.6l-3.44,3.44c-0.29562,0.29563 -0.5375,0.63156 -0.86,0.86c-0.02687,0.01344 -0.08062,-0.01344 -0.1075,0c-2.40531,1.66625 -5.41531,1.35719 -7.6325,-0.86c-1.62594,-1.62594 -2.00219,-4.87781 -0.86,-7.31c0.43,-0.33594 0.90031,-0.57781 1.29,-0.9675l3.44,-3.44c0.45688,-0.45687 0.80625,-0.99437 1.1825,-1.505c0.86,-0.43 1.78719,-0.645 2.6875,-0.645z">
                                            </path>
                                        </g>
                                    </g>
                                </svg>