<svg xmlns="http://www.w3.org/2000/svg" x="0px" y="0px"
width="70" height="70"
viewBox="0 0 172 172"
style=" fill:#000000;"><g fill="none" fill-rule="nonzero" stroke="none" stroke-width="1" stroke-linecap="butt" stroke-linejoin="miter" stroke-miterlimit="10" stroke-dasharray="" stroke-dashoffset="0" font-family="none" font-weight="none" font-size="none" text-anchor="none" style="mix-blend-mode: normal"><path d="M0,172v-172h172v172z" fill="none"></path><g fill="#007bff"><path d="M92.88,20.64c-14.68719,0 -25.96125,6.04688 -32.22312,14.9425c-1.45125,2.05594 -2.62031,4.27313 -3.50719,6.57094l-2.10969,-4.31344h-2.15c-11.98625,0 -20.86844,4.85094 -25.53125,12.05344c-4.25969,6.58438 -4.52844,14.82156 -1.88125,22.52125c-1.14219,1.57219 -1.98875,3.53406 -1.66625,6.28875c0.36281,3.10406 1.1825,5.40188 2.4725,7.095c0.56438,0.7525 1.3975,0.77938 2.10969,1.23625c0.45688,2.51281 1.12875,5.02563 2.15,7.10844c0.61813,1.26312 1.27656,2.39187 1.97531,3.37281c0.22844,0.30906 0.61813,0.52406 0.83313,0.79281c0.02687,2.74125 0.05375,5.11969 -0.16125,7.955c-0.63156,1.54531 -2.17688,2.98313 -5.0525,4.43438c-2.98313,1.505 -6.9875,2.88906 -11.04563,4.67625c-4.05812,1.78719 -8.25062,3.9775 -11.55625,7.49812c-3.31906,3.53406 -5.53625,8.4925 -5.53625,14.7275v3.44h24.88625c-0.49719,2.13656 -0.80625,4.42094 -0.80625,6.88v3.44h123.84v-3.44c0,-2.45906 -0.29562,-4.74344 -0.80625,-6.88h25.10125l-0.215,-3.64156c-0.37625,-6.24844 -2.87562,-11.13969 -6.3425,-14.62c-3.46687,-3.46687 -7.75344,-5.64375 -11.87875,-7.39062c-4.13875,-1.76031 -8.15656,-3.1175 -11.15312,-4.60906c-2.87563,-1.42437 -4.39406,-2.82187 -5.02563,-4.34031v-7.75344c0.24188,-0.26875 0.59125,-0.45687 0.84656,-0.7525c0.77937,-0.94062 1.57219,-2.05594 2.32469,-3.31906c1.19594,-2.01562 2.00219,-4.54187 2.58,-7.095c0.57781,-0.37625 0.84656,-0.38969 1.55875,-1.16906c1.38406,-1.505 2.76813,-3.9775 3.17125,-7.33688c0.33594,-2.9025 -0.63156,-4.85094 -1.55875,-6.18125c0.69875,-1.70656 1.55875,-3.29219 1.76031,-5.36156c0.29562,-3.18469 0.1075,-6.74562 -0.79281,-10.23937c-0.91375,-3.49375 -2.52625,-6.94719 -5.2675,-9.64813c-2.21719,-2.17687 -5.36156,-3.46687 -8.88219,-3.99094l-2.56656,-5.75125h-2.23062c-4.99875,0 -10.06469,0.645 -14.80813,2.19031c-1.15562,-2.59344 -2.64719,-5.02563 -4.63594,-7.08156c-2.62031,-2.6875 -6.28875,-4.35375 -10.40063,-4.93156l-3.69531,-7.37719zM90.85094,27.735l3.34594,6.665h2.12312c3.38625,0 5.76469,1.22281 7.83406,3.34594c2.06937,2.12313 3.68187,5.25406 4.64937,8.7075c0.98094,3.45344 1.34375,7.18906 1.15563,10.30656c-0.20156,3.1175 -1.10188,5.63031 -1.66625,6.35594l-1.89469,2.44563l2.20375,2.13656c0,0 1.58562,1.78719 1.37062,3.58781c-0.3225,2.75469 -1.30344,4.17906 -2.10969,5.0525c-0.80625,0.87344 -1.19594,0.98094 -1.19594,0.98094l-1.89469,0.77937l-0.215,2.0425c-0.25531,2.44563 -1.55875,5.83188 -3.09062,8.54625c-0.76594,1.35719 -1.57219,2.56656 -2.2575,3.42656c-0.68531,0.84656 -1.43781,1.37062 -1.06156,1.16906l-1.8275,0.9675v10.87094c-0.65844,0.56437 -1.59906,1.31687 -2.76812,2.09625c-2.28438,1.51844 -5.25406,2.86219 -7.55188,2.86219c-2.29781,0 -5.2675,-1.34375 -7.55187,-2.86219c-1.16906,-0.77938 -2.10969,-1.53188 -2.76813,-2.09625v-10.87094l-1.8275,-0.9675c0.37625,0.20156 -0.38969,-0.3225 -1.075,-1.16906c-0.67187,-0.86 -1.47812,-2.06938 -2.24406,-3.42656c-1.53187,-2.71437 -2.83531,-6.10062 -3.09062,-8.54625l-0.215,-2.0425l-1.89469,-0.77937c0,0 -0.38969,-0.1075 -1.19594,-0.98094c-0.80625,-0.87344 -1.78719,-2.29781 -2.10969,-5.0525v-0.01344c-0.215,-1.80062 1.35719,-3.57437 1.35719,-3.57437l1.73344,-1.66625l-0.98094,-2.19031c-3.73562,-8.41188 -2.75469,-17.34781 2.13656,-24.295c4.6225,-6.5575 12.9,-11.2875 24.57719,-11.81156zM126.47375,45.08281l2.19031,4.91812h2.23062c3.03688,0 4.93156,0.94063 6.50375,2.49938c1.58563,1.54531 2.75469,3.84312 3.42656,6.45c0.67188,2.60687 0.83313,5.46906 0.60469,7.86094c-0.22844,2.37844 -1.00781,4.31344 -1.31687,4.71656l-1.84094,2.41875l2.16344,2.10969c0,0 0.92719,1.15563 0.80625,2.15c-0.22844,1.98875 -0.88688,2.92938 -1.3975,3.49375c-0.52406,0.56438 -0.63156,0.55094 -0.63156,0.55094l-1.86781,0.79281l-0.215,2.02906c-0.17469,1.69312 -1.14219,4.11187 -2.27094,6.03344c-0.57781,0.95406 -1.1825,1.80063 -1.67969,2.40531c-0.49719,0.59125 -1.04813,0.92719 -0.645,0.71219l-1.81406,0.9675v8.69406c-1.20937,0.9675 -3.82969,2.75469 -6.88,2.75469h-3.44v9.98406c-3.56094,-1.51844 -6.97406,-2.96969 -9.7825,-4.42094c-3.9775,-2.06938 -6.43656,-4.1925 -7.4175,-6.46344v-8.0625c0.41656,-0.44344 0.98094,-0.76594 1.3975,-1.29c0.9675,-1.20937 1.935,-2.67406 2.86219,-4.31344c1.57219,-2.795 2.67406,-6.15437 3.3325,-9.51375c0.71219,-0.41656 1.11531,-0.48375 2.09625,-1.53187c1.69313,-1.81406 3.41313,-4.77031 3.91031,-8.93594c0.40313,-3.37281 -0.73906,-5.67062 -1.84094,-7.28312c1.02125,-2.2575 1.67969,-4.75688 1.85437,-7.61906c0.215,-3.34594 -0.09406,-7.00094 -0.91375,-10.61562c3.23844,-0.95406 6.89344,-1.33031 10.57531,-1.49156zM50.94156,45.10969l2.16344,4.43438h2.15c0.04031,0 0.06719,0 0.1075,0c-0.56437,4.93156 0.04031,10.06469 1.86781,15.00969c-1.15563,1.55875 -2.45906,3.89688 -2.02906,7.53844c0.49719,4.16563 2.21719,7.12188 3.91031,8.93594c0.9675,1.04812 1.37062,1.11531 2.08281,1.53187c0.65844,3.35938 1.77375,6.71875 3.34594,9.51375c0.91375,1.63938 1.89469,3.10406 2.86219,4.31344c0.41656,0.52406 0.98094,0.84656 1.3975,1.29v8.0625c-0.98094,2.28438 -3.45344,4.4075 -7.43094,6.49031c-2.795,1.45125 -6.22156,2.9025 -9.76906,4.42094v-10.01094h-3.44c-4.28656,0 -6.90687,-1.8275 -7.955,-2.75469c0.06719,-2.33813 0.05375,-4.515 0.05375,-6.82625v-2.06938l-1.80062,-0.9675c0.51062,0.28219 0.04031,0.02688 -0.34938,-0.5375c-0.40312,-0.55094 -0.91375,-1.3975 -1.38406,-2.365c-0.92719,-1.92156 -1.74687,-4.38062 -1.94844,-6.30219l-0.29562,-2.84875l-2.62031,-0.215c-0.02688,-0.02687 -0.01344,-0.01344 -0.09406,-0.12094c-0.28219,-0.36281 -0.84656,-1.45125 -1.11531,-3.72219c-0.14781,-1.22281 0.30906,-1.73344 0.37625,-1.80063l2.365,-1.49156l-1.1825,-2.70094c-2.80844,-6.42312 -2.37844,-13.16875 0.92719,-18.275c3.05031,-4.71656 8.97625,-7.99531 17.80469,-8.53281zM38.57906,110.92656c1.81406,1.02125 4.17906,2.01562 7.06812,2.39187l-0.55094,6.26188c-2.32469,1.11531 -4.63594,2.32469 -6.83969,3.7625l-4.15219,-8.15656c1.73344,-1.14219 3.30562,-2.51281 4.47469,-4.25969zM132.26531,111.18188c1.38406,2.01562 3.3325,3.50719 5.44219,4.74344l-3.48031,7.71312c-2.35156,-1.55875 -4.82406,-2.9025 -7.32344,-4.09844l-0.55094,-6.235c2.31125,-0.37625 4.31344,-1.22281 5.9125,-2.12312zM73.15375,111.81344c0.52406,0.38969 0.87344,0.72563 1.47813,1.12875c1.98875,1.33031 4.50156,2.6875 7.35031,3.44l-2.53969,28.09781h-1.41094c-1.78719,-4.58219 -7.14875,-19.16187 -7.61906,-29.96562c1.00781,-0.81969 1.94844,-1.69313 2.74125,-2.70094zM98.84625,111.81344c0.79281,1.00781 1.73344,1.88125 2.74125,2.70094c-0.47031,10.80375 -5.83187,25.38344 -7.61906,29.96562h-1.41094l-2.53969,-28.09781c2.84875,-0.7525 5.36156,-2.10969 7.35031,-3.44c0.60469,-0.40312 0.95406,-0.73906 1.47812,-1.12875z"></path></g></g></svg>