<svg xmlns="http://www.w3.org/2000/svg" width="70" height="70" viewBox="0 0 172 172">
  <g fill="none" stroke-miterlimit="10" font-family="none" font-weight="none" font-size="none" text-anchor="none" style="mix-blend-mode:normal">
    <path d="M0 172V0h172v172z"/>
    <path d="M92.88 20.64c-14.687 0-25.961 6.047-32.223 14.943a30.341 30.341 0 00-3.507 6.57l-2.11-4.313h-2.15c-11.986 0-20.868 4.85-25.531 12.053-4.26 6.585-4.529 14.822-1.882 22.522-1.142 1.572-1.988 3.534-1.666 6.288.363 3.104 1.183 5.402 2.473 7.095.564.753 1.397.78 2.11 1.237.456 2.513 1.128 5.025 2.15 7.108.618 1.263 1.276 2.392 1.975 3.373.228.309.618.524.833.793.027 2.741.054 5.12-.161 7.955-.632 1.545-2.177 2.983-5.053 4.434-2.983 1.505-6.987 2.89-11.046 4.676-4.058 1.788-8.25 3.978-11.556 7.499C2.217 126.407 0 131.364 0 137.6v3.44h24.886a30.178 30.178 0 00-.806 6.88v3.44h123.84v-3.44c0-2.46-.296-4.743-.806-6.88h25.101l-.215-3.642c-.376-6.248-2.876-11.14-6.343-14.62-3.466-3.466-7.753-5.643-11.878-7.39-4.139-1.76-8.157-3.118-11.153-4.61-2.876-1.424-4.394-2.821-5.026-4.34v-7.753c.242-.269.591-.457.847-.752.779-.941 1.572-2.056 2.324-3.32 1.196-2.015 2.002-4.541 2.58-7.095.578-.376.847-.39 1.559-1.169 1.384-1.505 2.768-3.977 3.171-7.336.336-2.903-.631-4.851-1.559-6.182.7-1.706 1.56-3.292 1.76-5.361.296-3.185.108-6.746-.792-10.24-.914-3.493-2.526-6.947-5.268-9.648-2.217-2.177-5.361-3.467-8.882-3.99l-2.566-5.752h-2.23c-5 0-10.066.645-14.809 2.19-1.156-2.593-2.647-5.025-4.636-7.081-2.62-2.688-6.289-4.354-10.4-4.932l-3.696-7.377zm-2.03 7.095l3.347 6.665h2.123c3.386 0 5.765 1.223 7.834 3.346 2.07 2.123 3.682 5.254 4.65 8.707.98 3.454 1.343 7.19 1.155 10.307-.202 3.118-1.102 5.63-1.666 6.356l-1.895 2.446 2.204 2.136s1.585 1.787 1.37 3.588c-.322 2.755-1.303 4.179-2.11 5.052-.805.874-1.195.981-1.195.981l-1.895.78-.215 2.042c-.255 2.446-1.559 5.832-3.09 8.546-.766 1.358-1.573 2.567-2.258 3.427-.685.847-1.438 1.37-1.062 1.17l-1.827.967v10.87c-.658.565-1.6 1.317-2.768 2.097-2.285 1.518-5.254 2.862-7.552 2.862s-5.268-1.344-7.552-2.862a28.997 28.997 0 01-2.768-2.096V94.25l-1.828-.968c.377.202-.39-.322-1.075-1.169-.671-.86-1.478-2.07-2.244-3.427-1.531-2.714-2.835-6.1-3.09-8.546l-.215-2.042-1.895-.78s-.39-.107-1.196-.98c-.806-.874-1.787-2.298-2.11-5.053v-.014c-.215-1.8 1.358-3.574 1.358-3.574l1.733-1.666-.98-2.19c-3.736-8.412-2.756-17.348 2.136-24.295 4.622-6.558 12.9-11.288 24.577-11.812zm35.624 17.348l2.19 4.918h2.23c3.038 0 4.932.94 6.504 2.5 1.586 1.545 2.755 3.842 3.427 6.45.672 2.606.833 5.468.605 7.86-.229 2.379-1.008 4.314-1.317 4.717l-1.841 2.419 2.163 2.11s.928 1.155.807 2.15c-.229 1.988-.887 2.929-1.398 3.493-.524.564-.631.55-.631.55l-1.868.794-.215 2.029c-.175 1.693-1.142 4.112-2.271 6.033-.578.954-1.183 1.8-1.68 2.406-.497.59-1.048.927-.645.712l-1.814.967v8.694c-1.21.968-3.83 2.755-6.88 2.755h-3.44v9.984c-3.56-1.518-6.974-2.97-9.783-4.42-3.977-2.07-6.436-4.193-7.417-6.464v-8.063c.417-.443.98-.766 1.397-1.29.968-1.21 1.936-2.674 2.863-4.313 1.572-2.795 2.674-6.155 3.332-9.514.712-.417 1.115-.484 2.096-1.532 1.694-1.814 3.414-4.77 3.91-8.936.404-3.373-.738-5.67-1.84-7.283 1.021-2.257 1.68-4.757 1.854-7.619.215-3.346-.094-7-.914-10.616 3.239-.954 6.894-1.33 10.576-1.491zm-75.532.027l2.163 4.434h2.258c-.565 4.932.04 10.065 1.867 15.01-1.155 1.559-2.459 3.897-2.029 7.538.497 4.166 2.217 7.122 3.91 8.936.968 1.048 1.371 1.115 2.083 1.532.659 3.36 1.774 6.719 3.346 9.514.914 1.64 1.895 3.104 2.863 4.313.416.524.98.847 1.397 1.29v8.063c-.98 2.284-3.453 4.407-7.43 6.49-2.796 1.451-6.222 2.903-9.77 4.42v-10.01h-3.44c-4.287 0-6.907-1.827-7.955-2.755.067-2.338.054-4.515.054-6.826v-2.07l-1.8-.967c.51.282.04.027-.35-.537-.403-.551-.914-1.398-1.384-2.365-.927-1.922-1.747-4.38-1.949-6.302l-.295-2.85-2.62-.214c-.028-.027-.014-.014-.095-.121-.282-.363-.846-1.451-1.115-3.722-.148-1.223.309-1.734.376-1.801l2.365-1.492-1.182-2.7c-2.809-6.424-2.379-13.17.927-18.276 3.05-4.716 8.976-7.995 17.805-8.532zm-12.363 65.817c1.814 1.02 4.18 2.015 7.068 2.391l-.55 6.262c-2.325 1.116-4.637 2.325-6.84 3.763l-4.153-8.157c1.734-1.142 3.306-2.513 4.475-4.26zm93.686.255c1.384 2.016 3.333 3.507 5.443 4.743l-3.48 7.713c-2.352-1.558-4.825-2.902-7.324-4.098l-.551-6.235c2.311-.376 4.313-1.223 5.912-2.123zm-59.111.631c.524.39.873.726 1.478 1.13 1.989 1.33 4.501 2.687 7.35 3.44l-2.54 28.097h-1.41c-1.788-4.582-7.15-19.162-7.62-29.966 1.008-.82 1.949-1.693 2.742-2.7zm25.692 0c.793 1.008 1.734 1.882 2.741 2.701-.47 10.804-5.831 25.384-7.619 29.966h-1.41l-2.54-28.098c2.849-.752 5.361-2.11 7.35-3.44.605-.403.954-.739 1.478-1.129z" fill="#2138c9"/>
  </g>
</svg>