            <svg xmlns="http://www.w3.org/2000/svg" x="0px" y="0px" width="50" height="50" viewBox="0 0 172 172"
              style=" fill:#000000;">
              <g fill="none" fill-rule="nonzero" stroke="none" stroke-width="1" stroke-linecap="butt"
                stroke-linejoin="miter" stroke-miterlimit="10" stroke-dasharray="" stroke-dashoffset="0"
                font-family="none" font-weight="none" font-size="none" text-anchor="none"
                style="mix-blend-mode: normal">
                <path d="M0,172v-172h172v172z" fill="none"></path>
                <g fill="#3498db">
                  <path
                    d="M17.2,6.88c-9.48408,0 -17.2,7.71592 -17.2,17.2v82.56c0,9.48408 7.71592,17.2 17.2,17.2h127.28v-103.2h-110.42937c-1.59616,-7.83976 -8.54302,-13.76 -16.85062,-13.76zM17.2,13.76c5.68976,0 10.32,4.63024 10.32,10.32v68.88735c-2.88272,-2.1844 -6.4328,-3.52735 -10.32,-3.52735c-3.8872,0 -7.43728,1.34295 -10.32,3.52735v-68.88735c0,-5.68976 4.63024,-10.32 10.32,-10.32zM151.36,34.4c-1.24059,-0.01754 -2.39452,0.63425 -3.01993,1.7058c-0.62541,1.07155 -0.62541,2.39684 0,3.46839c0.62541,1.07155 1.77935,1.72335 3.01993,1.7058v89.44h-120.4c-2.58728,0 -4.89907,-0.97131 -6.74562,-2.58672c-0.92096,-0.83338 -2.21961,-1.10566 -3.39775,-0.71237c-1.17814,0.39329 -2.05282,1.39107 -2.28848,2.61056c-0.23566,1.21949 0.20429,2.47132 1.15108,3.27524c2.99008,2.61579 6.93991,4.29328 11.28078,4.29328h127.28v-103.2zM99.76,44.72h20.64v20.64l-8.08265,-8.08265l-23.1125,21.86281l-17.2,-18.06l-19.29625,18.24813l-4.73,-4.99875l24.28156,-22.95797l17.2,18.06l17.99281,-17.0186zM165.12,48.16c-1.24059,-0.01754 -2.39452,0.63425 -3.01993,1.7058c-0.62541,1.07155 -0.62541,2.39684 0,3.46839c0.62541,1.07155 1.77935,1.72335 3.01993,1.7058v89.44h-120.4c-2.58729,0 -4.89906,-0.97131 -6.74563,-2.58672c-0.92095,-0.8334 -2.21962,-1.10568 -3.39777,-0.7124c-1.17815,0.39329 -2.05284,1.39108 -2.28849,2.61058c-0.23566,1.2195 0.20431,2.47134 1.15111,3.27525c2.99008,2.61579 6.93991,4.29328 11.28078,4.29328h127.28v-103.2zM48.16,92.88h72.24v6.88h-72.24z">
                  </path>
                </g>
              </g>
            </svg>