              <svg xmlns="http://www.w3.org/2000/svg" x="0px" y="0px" width="50" height="50"
                viewBox="0 0 172 172" style=" fill:#000000;">
                <g fill="none" fill-rule="nonzero" stroke="none" stroke-width="1" stroke-linecap="butt"
                  stroke-linejoin="miter" stroke-miterlimit="10" stroke-dasharray="" stroke-dashoffset="0"
                  font-family="none" font-weight="none" font-size="none" text-anchor="none"
                  style="mix-blend-mode: normal">
                  <path d="M0,172v-172h172v172z" fill="none"></path>
                  <g fill="#21c87a">
                    <path
                      d="M66.60297,6.88c-14.03176,0 -24.29064,8.54233 -27.9164,17.59641c-14.14184,3.09944 -24.92656,19.03615 -24.92656,37.44359c0,5.50056 1.0685,11.01144 3.35266,17.2h17.91891c1.42416,-3.99384 5.20956,-6.88 9.68844,-6.88c5.68976,0 10.32,4.63024 10.32,10.32c0,5.68976 -4.63024,10.32 -10.32,10.32c-4.47888,0 -8.26428,-2.88616 -9.68844,-6.88h-16.81031c-2.5284,3.45032 -4.46125,7.69528 -4.46125,13.76c0,9.55632 5.98001,17.88607 15.85625,22.44063c-2.74168,6.37776 -2.62408,12.66097 0.40312,17.98609c3.55696,6.25736 10.6963,10.36058 19.00734,11.06578c4.03512,10.8704 14.87585,13.8675 21.01625,13.8675c5.7104,0 12.51703,-2.78973 12.51703,-16.05781v-45.86219h-20.64v14.39156c3.99384,1.42416 6.88,5.20956 6.88,9.68844c0,5.68976 -4.63024,10.32 -10.32,10.32c-5.68976,0 -10.32,-4.63024 -10.32,-10.32c0,-4.47888 2.88616,-8.26428 6.88,-9.68844v-21.27156h27.52v-27.52h-20.64v-17.2h-7.51156c-1.42416,3.99384 -5.20956,6.88 -9.68844,6.88c-5.68976,0 -10.32,-4.63024 -10.32,-10.32c0,-5.68976 4.63024,-10.32 10.32,-10.32c4.47888,0 8.26428,2.88616 9.68844,6.88h14.39156v17.2h13.76v-37.195c0,-16.64272 -6.02919,-17.845 -15.95703,-17.845zM105.39703,6.88c-9.92784,0 -15.95703,1.20228 -15.95703,17.845v19.995h28.15156c1.64088,-4.59584 6.40189,-7.7242 11.75109,-6.67844c4.042,0.7912 7.32946,4.1244 8.07594,8.17672c1.20056,6.53944 -3.81244,12.26172 -10.1386,12.26172c-4.47888,0 -8.26428,-2.88616 -9.68844,-6.88h-28.15156v72.24h14.39156c1.64088,-4.59584 6.40189,-7.7242 11.75109,-6.67844c4.042,0.7912 7.32946,4.1244 8.07594,8.17672c1.20056,6.53944 -3.81244,12.26172 -10.1386,12.26172c-4.47888,0 -8.26428,-2.88616 -9.68844,-6.88h-14.39156v18.3489c0,13.26808 6.80663,16.0511 12.51703,16.0511c6.1404,0 16.98129,-2.9971 21.00953,-13.8675c8.31104,-0.7052 15.4571,-4.80842 19.01406,-11.06578c1.45168,-2.55248 2.22132,-5.32727 2.3314,-8.22375c0.1376,-3.58448 -1.39121,-6.91515 -2.94953,-10.14531c-0.20296,-0.43 -0.3225,-0.90509 -0.3225,-1.41765v-13.76h-30.96v-17.83156c-4.59584,-1.63744 -7.7242,-6.40189 -6.67844,-11.75109c0.7912,-4.042 4.1244,-7.32946 8.17672,-8.07594c6.53944,-1.20056 12.26172,3.81244 12.26172,10.1386c0,4.47888 -2.88616,8.26428 -6.88,9.68844v10.95156h30.96v19.135c6.5016,-4.76784 10.32,-11.54636 10.32,-19.135c0,-6.9316 -2.52184,-11.48949 -5.57656,-15.19781c3.84936,-8.52432 5.57656,-15.58331 5.57656,-22.64219c0,-18.40744 -10.78472,-34.34415 -24.92656,-37.44359c-3.6292,-9.05752 -13.88464,-17.59641 -27.9164,-17.59641zM44.72,44.72c-1.89986,0 -3.44,1.54014 -3.44,3.44c0,1.89986 1.54014,3.44 3.44,3.44c1.89986,0 3.44,-1.54014 3.44,-3.44c0,-1.89986 -1.54014,-3.44 -3.44,-3.44zM127.28,44.72c-1.89986,0 -3.44,1.54014 -3.44,3.44c0,1.89986 1.54014,3.44 3.44,3.44c1.89986,0 3.44,-1.54014 3.44,-3.44c0,-1.89986 -1.54014,-3.44 -3.44,-3.44zM113.52,75.68c-1.89986,0 -3.44,1.54014 -3.44,3.44c0,1.89986 1.54014,3.44 3.44,3.44c1.89986,0 3.44,-1.54014 3.44,-3.44c0,-1.89986 -1.54014,-3.44 -3.44,-3.44zM44.72,79.12c-1.89986,0 -3.44,1.54014 -3.44,3.44c0,1.89986 1.54014,3.44 3.44,3.44c1.89986,0 3.44,-1.54014 3.44,-3.44c0,-1.89986 -1.54014,-3.44 -3.44,-3.44zM58.48,123.84c-1.89986,0 -3.44,1.54014 -3.44,3.44c0,1.89986 1.54014,3.44 3.44,3.44c1.89986,0 3.44,-1.54014 3.44,-3.44c0,-1.89986 -1.54014,-3.44 -3.44,-3.44zM113.52,123.84c-1.89986,0 -3.44,1.54014 -3.44,3.44c0,1.89986 1.54014,3.44 3.44,3.44c1.89986,0 3.44,-1.54014 3.44,-3.44c0,-1.89986 -1.54014,-3.44 -3.44,-3.44z">
                    </path>
                  </g>
                </g>
              </svg>