            <svg xmlns="http://www.w3.org/2000/svg" x="0px" y="0px" width="50"
              height="50" viewBox="0 0 172 172" style=" fill:#000000;">
              <g fill="none" fill-rule="nonzero" stroke="none" stroke-width="1" stroke-linecap="butt"
                stroke-linejoin="miter" stroke-miterlimit="10" stroke-dasharray="" stroke-dashoffset="0"
                font-family="none" font-weight="none" font-size="none" text-anchor="none"
                style="mix-blend-mode: normal">
                <path d="M0,172v-172h172v172z" fill="none"></path>
                <g fill="#007bff">
                  <path
                    d="M134.32125,6.88c-2.05594,0.47031 -3.99094,0.88688 -5.9125,1.35719c-0.22844,0.05375 -0.5375,0.37625 -0.5375,0.57781c-0.05375,2.01563 -0.04031,4.03125 -0.04031,6.20813c2.15,-0.45688 4.12531,-0.84656 6.10063,-1.29c0.14781,-0.02688 0.37625,-0.26875 0.38969,-0.40313c0.01344,-2.13656 0,-4.27312 0,-6.45zM126.21844,8.7075c-1.45125,0.29563 -2.86219,0.57781 -4.25969,0.86c-2.21719,0.47031 -2.20375,0.48375 -2.20375,2.76813v4.21937c2.24406,-0.41656 4.35375,-0.80625 6.46344,-1.20937zM118.19625,10.34688c-2.13656,0.37625 -4.15219,0.71219 -6.16781,1.10187c-0.13437,0.01344 -0.30906,0.30906 -0.30906,0.47031c-0.02688,1.94844 -0.01344,3.91031 -0.01344,5.97969c2.06938,-0.33594 3.9775,-0.63156 5.85875,-0.9675c0.24188,-0.04031 0.59125,-0.33594 0.59125,-0.51062c0.05375,-1.98875 0.04031,-3.9775 0.04031,-6.07375zM101.91,13.02094c-2.20375,0.29563 -4.32687,0.56438 -6.43656,0.84656v6.18125c2.19031,-0.25531 4.31344,-0.51062 6.43656,-0.7525zM142.30313,13.41063c-2.00219,0.44344 -3.9775,0.87344 -5.93938,1.34375c-0.14781,0.02687 -0.37625,0.25531 -0.37625,0.40312c-0.02687,1.88125 -0.02687,3.7625 -0.02687,5.72438h0.01344c2.17687,-0.45688 4.23281,-0.88688 6.32906,-1.33031c0,-2.02906 0,-4.01781 0,-6.14094zM93.82063,14.05563c-2.28438,0.25531 -4.42094,0.48375 -6.57094,0.71219v6.11406c2.09625,-0.20156 4.12531,-0.38969 6.15438,-0.60469c0.14781,-0.01344 0.40312,-0.25531 0.40312,-0.38969c0.02688,-1.92156 0.01344,-3.82969 0.01344,-5.83187zM85.55656,14.91563c-2.23063,0.20156 -4.35375,0.37625 -6.47688,0.56437v6.04688c2.19031,-0.17469 4.3,-0.33594 6.47688,-0.49719zM77.35969,15.60094c-2.16344,0.12094 -4.27312,0.24188 -6.46344,0.36281v6.04688c2.21719,-0.13438 4.34031,-0.25531 6.46344,-0.37625zM46.23844,16.39375v5.89906h6.46344v-5.89906zM54.5025,16.40719v5.89906h6.45v-5.89906zM126.21844,16.85063c-2.00219,0.36281 -3.96406,0.71219 -5.9125,1.08844c-0.20156,0.04031 -0.52406,0.29562 -0.5375,0.45687c-0.02687,1.76031 -0.01344,3.52063 -0.01344,5.38844c2.23063,-0.37625 4.34031,-0.72563 6.46344,-1.075zM118.15594,18.40938c-7.59219,1.04812 -15.14406,2.09625 -22.76312,3.15781v13.69281c-4.77031,0.215 -9.48688,0.43 -14.24375,0.645v-5.45562c2.0425,-0.12094 4.04469,-0.24188 6.02,-0.34938v-7.71312c-8.21031,0.45687 -16.34,0.90031 -24.55031,1.34375v13.16875h-16.36687v6.74562h6.36937v5.21375h-6.35594v6.63813h8.18344v21.31187h6.26188v5.16h-6.235v8.11625h6.26187v5.16h-6.3425v21.285h-8.12969v13.42406h6.31562v5.14656h10.105v13.2225c5.54969,0.24187 10.97844,0.48375 16.54156,0.72562v-5.09281c2.17688,0.20156 4.21938,0.37625 6.35594,0.56438v-8.47906c3.3325,0.25531 6.54406,0.49719 9.84969,0.7525v13.63906c7.6325,1.04812 15.17094,2.09625 22.77656,3.15781v-14.28406c1.37063,0.09406 2.58,0.17469 3.78938,0.26875c4.17906,0.28219 8.31781,0.22844 12.41625,-0.86c7.55187,-2.02906 12.685,-6.51719 14.74094,-14.20344c1.27656,-4.74344 1.45125,-9.5675 0.9675,-14.43188c-0.40312,-4.00437 -1.46469,-7.80719 -3.49375,-11.34125c-0.63156,-1.08844 -1.29,-1.73344 -2.67406,-1.6125c-1.12875,0.1075 -2.28437,-0.06719 -3.44,-0.12094c-1.47812,-0.06719 -2.96969,-0.13438 -4.50156,-0.20156c0,-2.21719 -0.02688,-4.34031 0.02687,-6.45c0.01344,-0.65844 -0.215,-0.9675 -0.79281,-1.14219c-2.55312,-0.7525 -5.10625,-1.57219 -7.68625,-2.2575c-1.49156,-0.40313 -3.03687,-0.59125 -4.58219,-0.86v-2.12313c0,-2.44562 0,-2.43219 2.35156,-3.25187c4.05812,-1.41094 8.07594,-2.9025 11.52937,-5.59c3.85656,-3.02344 6.62469,-6.82625 8.26406,-11.42188c1.47813,-4.15219 1.6125,-8.47906 1.29,-12.81937c-0.22844,-3.34594 -0.99437,-6.57094 -2.56656,-9.55406c-1.23625,-2.32469 -2.99656,-4.20594 -5.25406,-5.57656c-4.78375,-2.9025 -10.03781,-3.68187 -15.52031,-3.37281c-1.6125,0.08062 -3.21156,0.18812 -4.8375,0.29562c-0.04031,-0.55094 -0.05375,-0.99437 -0.09406,-1.46469c-2.13656,0.26875 -4.17906,0.52406 -6.26187,0.79281v-5.53625c2.10969,-0.30906 4.1925,-0.60469 6.27531,-0.91375zM142.31656,21.12375c-2.13656,0.43 -4.23281,0.86 -6.31563,1.29v6.02c2.16344,-0.38969 4.24625,-0.77937 6.31563,-1.16906zM134.30781,22.73625c-2.21719,0.40313 -4.32688,0.79281 -6.38281,1.1825v5.88563c2.17688,-0.37625 4.27313,-0.71219 6.38281,-1.075zM54.46219,23.7575v5.13313h6.47688v-5.13313zM126.205,24.20094c-2.19031,0.34938 -4.3,0.69875 -6.42312,1.04813v5.76469c2.21719,-0.3225 4.32687,-0.63156 6.42312,-0.94062zM46.23844,30.34188v5.24062h6.47688v-5.24062zM54.5025,30.36875v5.18688h6.46344v-5.18688zM21.67469,35.95875v5.375c2.17688,0.1075 4.3,0.215 6.46344,0.33594v-5.36156c-2.17688,-0.12094 -4.3,-0.24188 -6.46344,-0.34938zM29.84469,36.56344v5.2675h6.39625v-5.2675zM38.04156,36.85906v5.22719h6.46344v-5.22719zM77.38656,42.75813v5.29437c-2.15,0.09406 -4.24625,0.18813 -6.40969,0.28219v-5.2675c2.16344,-0.1075 4.25969,-0.20156 6.40969,-0.30906zM142.30313,43.20156v6.20812c-2.0425,0.25531 -4.085,0.51063 -6.20813,0.77938v-6.07375c2.00219,-0.30906 4.04469,-0.59125 6.20813,-0.91375zM29.83125,43.25531v5.22719h6.42313v-5.22719zM62.83375,43.30906h6.30219v5.13312h-6.30219zM21.63438,49.63813c0,1.55875 -0.02688,3.19812 0.01344,4.82406c0,0.14781 0.30906,0.40313 0.48375,0.41656c1.97531,0.02688 3.95062,0.01344 5.97969,0.01344v-5.25406zM38.02813,50.14875v5.22719h6.47687v-5.22719zM102.79688,51.43875c13.4375,-0.34937 13.07469,5.42875 13.16875,9.62125c0.17469,7.71313 -3.03688,14.64688 -19.20219,15.89656c-0.5375,0.04031 -13.62562,0.59125 -13.81375,0.59125c0,-8.41188 0,-16.75656 0,-25.16844c0.5375,-0.04031 17.77781,-0.88688 19.84719,-0.94063zM21.67469,56.37031v5.33469h6.45v-5.33469zM38.055,56.78688v5.24062h6.43656v-5.24062zM46.23844,56.8675v5.21375h6.49031v-5.21375zM59.34,56.92125h6.38281v5.10625h-6.38281zM142.27625,59.07125v6.22156c-2.0425,0.13437 -4.09844,0.28219 -6.22156,0.41656v-6.06031c2.08281,-0.18813 4.11188,-0.38969 6.22156,-0.57781zM29.87156,63.27719v5.29438h6.36937v-5.29438zM46.25188,63.50563v5.18687h6.45v-5.18687zM68.53125,63.54594h6.3425v5.07938h-6.3425zM21.68813,69.83469v5.32125h6.45v-5.32125zM29.84469,69.99594v5.24063h6.43656v-5.24063zM38.01469,70.09v5.21375h6.47688v-5.21375zM38.01469,76.71469v5.24063h6.49031v-5.24063zM46.27875,76.76844v5.18688h6.45v-5.18688zM46.25188,83.39313v5.18687h6.47687v-5.18687zM29.85813,83.40656v5.24062h6.40969v-5.24062zM67.73844,83.42h6.32906v5.14656h-6.32906zM46.27875,90.04469v5.18688h6.46344v-5.18688zM38.00125,90.07156v5.21375h6.49031v-5.21375zM82.93625,94.66719c0.40313,0 11.91906,0.24188 13.82719,0.34938c20.21,1.06156 20.70719,4.95844 22.76313,12.21469c0.57781,2.08281 0.18812,4.28656 -0.37625,6.39625c-0.38969,1.46469 -1.49156,6.97406 -14.44531,6.96063c-3.18469,0 -21.29844,-0.73906 -21.76875,-0.73906zM38.00125,96.70969v5.16h6.51719v-5.16zM29.85813,96.79031v5.20031h6.42312v-5.20031zM21.68813,96.87094v5.22719h6.47687v-5.22719zM46.23844,103.29406v5.18687h6.49031v-5.18687zM61.15406,103.36125h6.38281v5.06594h-6.38281zM29.84469,103.49563v5.17344h6.42313v-5.17344zM21.67469,103.60313v5.25406h6.46344v-5.25406zM46.26531,109.93219v5.18688h6.45v-5.18688zM61.12719,110.01281h6.39625v5.06594h-6.39625zM38.01469,110.01281v5.17344h6.47688v-5.17344zM29.885,110.12031v5.25406h6.38281v-5.25406zM136.095,114.0575c2.02906,0.18813 4.085,0.37625 6.19469,0.59125v6.20813c-2.06937,-0.24188 -4.09844,-0.48375 -6.19469,-0.72563zM29.85813,116.82563v5.20031h6.40969v-5.20031zM38.04156,123.3025v5.17344h6.46344v-5.17344zM54.59656,123.34281h6.35594v5.11969h-6.35594zM29.84469,123.54438v5.21375h6.42313v-5.21375zM87.62594,123.85344h6.3425v5.375c-1.06156,-0.05375 -5.2675,-0.24187 -6.3425,-0.28219zM103.97938,124.52531c1.6125,0.1075 3.17125,0.215 4.75687,0.33594c0.52406,0.02688 1.04813,0.06719 1.57219,0.1075v5.42875c-1.57219,-0.12094 -5.79156,-0.45687 -6.32906,-0.49719zM38.01469,129.95406v5.17344h6.47688v-5.17344zM28.13813,130.33031c-2.20375,0.12094 -4.32688,0.22844 -6.45,0.34937v5.38844c2.17687,-0.13438 4.28656,-0.26875 6.45,-0.40313zM54.46219,136.43094v5.21375h6.47688v-5.21375zM46.26531,136.44438v5.18687h6.46344v-5.18687zM70.99031,136.525h6.40969v5.07938h-6.40969zM38.01469,136.60563v5.17344h6.47688v-5.17344zM36.26781,136.67281c-2.17688,0.09406 -4.3,0.18812 -6.42313,0.28219v5.33469c2.17688,-0.09406 4.3,-0.20156 6.42313,-0.29562zM28.13813,137.03563c-2.17688,0.13437 -4.3,0.26875 -6.46344,0.40312v5.38844c2.20375,-0.14781 4.31344,-0.28219 6.46344,-0.44344zM87.23625,137.57313v5.38844c2.23063,0.18812 4.36719,0.36281 6.47688,0.55094c0.05375,-0.17469 0.09406,-0.24187 0.09406,-0.29562c0.01344,-1.06156 0.01344,-2.10969 0.02688,-3.17125c0,-1.935 0,-1.935 -1.88125,-2.10969c-0.18813,-0.01344 -0.37625,-0.05375 -0.56438,-0.06719c-1.37062,-0.1075 -2.74125,-0.20156 -4.15219,-0.29562zM119.80875,140.98625v5.76469c2.12313,0.34938 4.20594,0.68531 6.38281,1.04813v-5.87219c-2.16344,-0.3225 -4.24625,-0.61813 -6.38281,-0.94063zM127.83094,142.19563c0,0.57781 0,1.11531 0,1.63937c0,0.51063 0,1.00781 0.01344,1.505c0.01344,0.67188 -0.13438,1.47813 -0.02688,2.08281c0.04031,0.20156 0.1075,0.37625 0.215,0.52406c0.40313,0.52406 1.58563,0.45687 2.43219,0.61812c1.26313,0.24188 2.52625,0.45688 3.80281,0.68531v-5.99313c-2.13656,-0.34937 -4.20594,-0.69875 -6.43656,-1.06156zM54.48906,143.0825v5.18688h6.45v-5.18688zM38.04156,143.24375v5.20031h6.47687v-5.20031zM135.9875,143.56625v6.02c2.10969,0.43 4.20594,0.86 6.32906,1.29v-6.14094c-2.12313,-0.40313 -4.20594,-0.77938 -6.32906,-1.16906zM87.24969,144.33219v5.41531c2.17688,0.20156 4.3,0.40313 6.51719,0.61813v-5.46906c-2.20375,-0.18813 -4.35375,-0.37625 -6.51719,-0.56438zM119.79531,148.22906v5.76469c2.13656,0.38969 4.24625,0.76594 6.40969,1.16906v-5.87219c-2.13656,-0.36281 -4.24625,-0.71219 -6.40969,-1.06156zM54.47563,149.69375v5.9125h6.47687v-5.9125zM62.68594,149.89531v5.9125h6.46344v-5.9125zM70.80219,150.01625c0,1.92156 -0.01344,3.72219 0.04031,5.52281c0,0.18812 0.38969,0.49719 0.63156,0.52406c0.94062,0.1075 1.90812,0.13437 2.86219,0.18812c1.02125,0.04031 2.02906,0.09406 3.05031,0.14781v-6.04688c-2.24406,-0.1075 -4.36719,-0.215 -6.58438,-0.33594zM79.07969,150.45969v6.07375c2.16344,0.17469 4.28656,0.34938 6.53063,0.5375v-3.99094c0,-2.0425 0,-2.05594 -2.0425,-2.2575c-1.47813,-0.13437 -2.95625,-0.24187 -4.48813,-0.36281zM95.44656,151.95125v6.18125c2.17687,0.28219 4.28656,0.56438 6.46344,0.84656v-6.27531c-2.17687,-0.25531 -4.28656,-0.49719 -6.46344,-0.7525zM103.68375,152.94563v6.28875c2.16344,0.33594 4.27313,0.65844 6.43656,0.99437v-6.36937c-2.19031,-0.30906 -4.3,-0.60469 -6.43656,-0.91375zM119.755,155.445c0,2.16344 -0.01344,4.12531 0.01344,6.07375c0,0.18813 0.215,0.48375 0.37625,0.52406c2.00219,0.43 4.00438,0.81969 6.07375,1.23625v-6.63813c-2.13656,-0.38969 -4.23281,-0.77937 -6.46344,-1.19594zM127.83094,157.00375c0,2.13656 0,4.13875 0.02688,6.1275c0,0.20156 0.215,0.55094 0.38969,0.59125c1.97531,0.48375 3.99094,0.92719 6.08719,1.3975c0,-2.17687 0.01344,-4.28656 -0.02687,-6.39625c0,-0.17469 -0.36281,-0.45687 -0.60469,-0.51062c-1.23625,-0.29563 -2.48594,-0.5375 -3.73563,-0.79281c-0.68531,-0.13438 -1.37062,-0.25531 -2.13656,-0.41656z">
                  </path>
                </g>
              </g>
            </svg>