<svg xmlns="http://www.w3.org/2000/svg" x="0px" y="0px"
width="50" height="50"
viewBox="0 0 172 172"
style=" fill:#000000;"><g fill="none" fill-rule="nonzero" stroke="none" stroke-width="1" stroke-linecap="butt" stroke-linejoin="miter" stroke-miterlimit="10" stroke-dasharray="" stroke-dashoffset="0" font-family="none" font-weight="none" font-size="none" text-anchor="none" style="mix-blend-mode: normal"><path d="M0,172v-172h172v172z" fill="none"></path><g fill="#0087ff"><path d="M129.84656,17.2c-10.75123,0 -19.5874,6.21831 -23.77094,15.45313c-1.90465,-1.01611 -4.00713,-1.69313 -6.31563,-1.69313c-6.70784,0 -12.08493,4.9726 -13.26953,11.35469c-8.50308,2.61842 -14.25047,10.29388 -14.25047,19.90766c0,11.17804 9.07741,20.33765 20.21672,20.33765h8.37828h42.57h9.86985c10.31455,0 18.72515,-8.48683 18.72515,-18.83937c0,-9.01029 -6.14941,-16.3575 -13.8339,-18.21453c0.01366,-0.50245 0.0739,-1.08818 0.0739,-1.47141c0,-15.17738 -13.58614,-26.83469 -28.39344,-26.83469zM129.84656,24.08c11.1647,0 21.51344,8.97431 21.51344,19.95469c0,0.80371 -0.10915,3.17585 -0.17469,3.71547l-0.47031,3.85656h3.88344c0.4235,0 0.49336,-0.00672 0.11422,-0.00672c4.64436,0.00016 10.40735,5.4682 10.40735,12.12063c0,6.66169 -5.27619,11.95937 -11.84515,11.95937h-9.86985h-42.57h-8.37828c-7.39541,0 -13.33672,-5.97025 -13.33672,-13.45765c0,-7.84675 4.06241,-12.81707 10.91797,-14.00188l2.85547,-0.49719v-2.89578c0,-0.66329 -0.01344,-0.69511 -0.01344,-0.1075c0,-3.84133 3.03867,-6.88 6.88,-6.88c2.09164,0 3.89975,0.9321 5.18687,2.43219l3.95735,4.60235l1.91485,-5.75797c0.24699,-0.74097 0.50712,-1.52059 0.77937,-2.365c2.86226,-7.79104 9.46763,-12.67156 18.24813,-12.67156zM24.08,27.52c-7.71592,0 -13.76,6.04408 -13.76,13.76v75.68c0,2.53668 0.70321,4.86007 1.85437,6.88h-8.73437c-1.89978,0.00019 -3.43981,1.54022 -3.44,3.44c0,9.44437 7.75564,17.2 17.2,17.2h137.6c9.44437,0 17.2,-7.75563 17.2,-17.2c-0.00019,-1.89978 -1.54022,-3.43981 -3.44,-3.44h-8.73437c1.15116,-2.01993 1.85437,-4.34332 1.85437,-6.88v-28.97797c-2.17752,0.76368 -4.48232,1.23631 -6.88,1.37734v27.60063c0,3.9216 -2.9584,6.88 -6.88,6.88h-123.84c-3.9216,0 -6.88,-2.9584 -6.88,-6.88v-75.68c0,-3.9216 2.9584,-6.88 6.88,-6.88h57.835c1.60304,-2.76576 3.82119,-5.11872 6.47687,-6.88zM8.30438,130.72h15.77562h123.84h15.77563c-1.51619,3.81564 -4.54552,6.88 -8.89563,6.88h-137.6c-4.3501,0 -7.37943,-3.06436 -8.89562,-6.88z"></path></g></g></svg>