<svg xmlns="http://www.w3.org/2000/svg" x="0px" y="0px"
width="50" height="50"
viewBox="0 0 172 172"
style=" fill:#000000;"><g fill="none" fill-rule="nonzero" stroke="none" stroke-width="1" stroke-linecap="butt" stroke-linejoin="miter" stroke-miterlimit="10" stroke-dasharray="" stroke-dashoffset="0" font-family="none" font-weight="none" font-size="none" text-anchor="none" style="mix-blend-mode: normal"><path d="M0,172v-172h172v172z" fill="none"></path><g fill="#0087ff"><path d="M99.73313,30.96c-17.8241,0 -32.25562,9.96875 -39.42563,24.96687c-3.94075,-2.59981 -8.42801,-4.32687 -13.38375,-4.32687c-12.73377,0 -21.87799,10.24846 -22.61531,22.58172c-5.97059,2.0063 -11.73995,5.10884 -16.14516,10.14531c-4.9828,5.69683 -8.16328,13.56178 -8.16328,23.44844c0,18.32962 14.93186,33.26453 33.26453,33.26453h8.01547v-6.88h-8.01547c-14.61565,0 -26.38453,-11.77272 -26.38453,-26.38453c0,-8.45198 2.55813,-14.45507 6.46344,-18.92c3.9053,-4.46493 9.29478,-7.39453 15.09031,-8.9964l2.62031,-0.72563l-0.09406,-2.71437c-0.0172,-0.48165 -0.04703,-0.71647 -0.04703,-0.73906c0,-9.80002 6.4466,-17.2 16.01078,-17.2c4.92707,0 9.14759,1.64387 12.18781,4.68969l3.79609,3.80281l1.86781,-5.03906c5.43688,-14.6929 18.29616,-24.09344 34.95766,-24.09344c21.2781,0 37.86687,16.56766 37.86687,37.84c0,1.56554 -0.13046,3.14038 -0.32922,4.75015l-0.47703,3.86328h3.89015c0.4128,0 0.47678,-0.00672 0.20156,-0.00672c12.7911,0.00016 24.23453,13.05766 24.23453,26.13594c0,13.15342 -10.58677,23.73735 -23.74406,23.73735h-14.09594v6.88h14.09594c16.87391,0 30.62406,-13.74645 30.62406,-30.61735c0,-15.75173 -12.15909,-30.19435 -27.69469,-32.22984c0.0554,-0.84078 0.17469,-1.64026 0.17469,-2.51281c0,-24.89246 -19.8533,-44.72 -44.74687,-44.72zM48.16,103.2v6.88h3.44v24.08h6.88v-30.96zM80.84,103.2c-6.60889,0 -12.04,5.43111 -12.04,12.04v6.88c0,6.60889 5.43111,12.04 12.04,12.04c6.60889,0 12.04,-5.43111 12.04,-12.04v-6.88c0,-6.60889 -5.43111,-12.04 -12.04,-12.04zM111.8,103.2c-6.60889,0 -12.04,5.43111 -12.04,12.04v6.88c0,6.60889 5.43111,12.04 12.04,12.04c6.60889,0 12.04,-5.43111 12.04,-12.04v-6.88c0,-6.60889 -5.43111,-12.04 -12.04,-12.04zM80.84,110.08c2.89239,0 5.16,2.26761 5.16,5.16v6.88c0,2.89239 -2.26761,5.16 -5.16,5.16c-2.89239,0 -5.16,-2.26761 -5.16,-5.16v-6.88c0,-2.89239 2.26761,-5.16 5.16,-5.16zM111.8,110.08c2.89239,0 5.16,2.26761 5.16,5.16v6.88c0,2.89239 -2.26761,5.16 -5.16,5.16c-2.89239,0 -5.16,-2.26761 -5.16,-5.16v-6.88c0,-2.89239 2.26761,-5.16 5.16,-5.16zM60.2,141.04c-6.60889,0 -12.04,5.43111 -12.04,12.04v6.88c0,6.60889 5.43111,12.04 12.04,12.04c6.60889,0 12.04,-5.43111 12.04,-12.04v-6.88c0,-6.60889 -5.43111,-12.04 -12.04,-12.04zM91.16,141.04c-6.60889,0 -12.04,5.43111 -12.04,12.04v6.88c0,6.60889 5.43111,12.04 12.04,12.04c6.60889,0 12.04,-5.43111 12.04,-12.04v-6.88c0,-6.60889 -5.43111,-12.04 -12.04,-12.04zM110.08,141.04v6.88h3.44v24.08h6.88v-30.96zM60.2,147.92c2.89239,0 5.16,2.26761 5.16,5.16v6.88c0,2.89239 -2.26761,5.16 -5.16,5.16c-2.89239,0 -5.16,-2.26761 -5.16,-5.16v-6.88c0,-2.89239 2.26761,-5.16 5.16,-5.16zM91.16,147.92c2.89239,0 5.16,2.26761 5.16,5.16v6.88c0,2.89239 -2.26761,5.16 -5.16,5.16c-2.89239,0 -5.16,-2.26761 -5.16,-5.16v-6.88c0,-2.89239 2.26761,-5.16 5.16,-5.16z"></path></g></g></svg>