<svg xmlns="http://www.w3.org/2000/svg" x="0px" y="0px"
width="50" height="50"
viewBox="0 0 172 172"
style=" fill:#000000;"><g fill="none" fill-rule="nonzero" stroke="none" stroke-width="1" stroke-linecap="butt" stroke-linejoin="miter" stroke-miterlimit="10" stroke-dasharray="" stroke-dashoffset="0" font-family="none" font-weight="none" font-size="none" text-anchor="none" style="mix-blend-mode: normal"><path d="M0,172v-172h172v172z" fill="none"></path><g fill="#0087ff"><path d="M137.9225,0c-1.02125,0.13438 -1.935,0.72563 -2.4725,1.6125l-5.59,9.245c-1.74687,-0.13437 -3.53406,-0.14781 -5.2675,0l-5.6975,-9.1375c-0.91375,-1.43781 -2.74125,-1.98875 -4.3,-1.29l-9.675,4.085c-1.57219,0.645 -2.43219,2.32469 -2.0425,3.9775l2.365,10.4275c-1.31687,1.14219 -2.51281,2.40531 -3.655,3.7625l-10.535,-2.365c-1.63937,-0.3225 -3.27875,0.59125 -3.87,2.15l-3.9775,9.675c-0.69875,1.55875 -0.14781,3.38625 1.29,4.3l9.1375,5.6975c-0.12094,1.76031 -0.14781,3.53406 0,5.2675l-9.03,5.6975c-1.43781,0.91375 -1.98875,2.74125 -1.29,4.3l4.085,9.675c0.63156,1.51844 2.2575,2.37844 3.87,2.0425l10.535,-2.365c1.14219,1.31688 2.40531,2.51281 3.7625,3.655l-2.365,10.535c-0.33594,1.6125 0.52406,3.23844 2.0425,3.87l9.7825,3.9775c1.53188,0.63156 3.29219,0.09406 4.1925,-1.29l5.805,-9.1375c1.80063,0.12094 3.60125,0.05375 5.375,-0.1075l5.805,9.1375c0.90031,1.38406 2.66063,1.92156 4.1925,1.29l9.7825,-4.085c1.51844,-0.68531 2.33813,-2.35156 1.935,-3.9775l-2.58,-10.535c1.29,-1.11531 2.53969,-2.33812 3.655,-3.655l10.6425,2.2575c1.67969,0.37625 3.37281,-0.5375 3.9775,-2.15l3.9775,-9.675c0.67188,-1.58562 0.08063,-3.41312 -1.3975,-4.3l-9.245,-5.6975c0.12094,-1.70656 0.02688,-3.37281 -0.1075,-5.0525l9.1375,-6.02c1.42438,-0.87344 2.01563,-2.64719 1.3975,-4.1925l-4.1925,-9.675c-0.645,-1.57219 -2.32469,-2.43219 -3.9775,-2.0425l-10.4275,2.58c-1.15562,-1.34375 -2.39187,-2.60687 -3.7625,-3.7625l2.2575,-10.535c0.38969,-1.65281 -0.47031,-3.3325 -2.0425,-3.9775l-9.7825,-3.9775c-0.55094,-0.215 -1.14219,-0.29563 -1.72,-0.215zM139.75,7.74l4.4075,1.8275l-2.0425,9.5675c-0.26875,1.30344 0.22844,2.63375 1.29,3.44c2.21719,1.62594 4.11188,3.56094 5.6975,5.6975c0.83313,1.14219 2.28438,1.65281 3.655,1.29l9.46,-2.365l1.8275,4.4075l-8.2775,5.375c-1.14219,0.7525 -1.73344,2.09625 -1.505,3.44c0.40313,2.62031 0.38969,5.25406 0,7.955c-0.20156,1.37063 0.43,2.71438 1.6125,3.44l8.385,5.16l-1.8275,4.3l-9.5675,-2.0425c-1.35719,-0.29562 -2.75469,0.25531 -3.5475,1.3975c-1.59906,2.20375 -3.46687,4.09844 -5.59,5.6975c-1.10187,0.81969 -1.59906,2.21719 -1.29,3.5475l2.365,9.5675l-4.4075,1.8275l-5.375,-8.2775c-0.72562,-1.1825 -2.06937,-1.81406 -3.44,-1.6125c-2.60687,0.43 -5.24062,0.48375 -7.955,0.1075c-1.37062,-0.20156 -2.71437,0.43 -3.44,1.6125l-5.2675,8.2775l-4.4075,-1.8275l2.15,-9.46c0.30906,-1.33031 -0.18812,-2.72781 -1.29,-3.5475c-2.21719,-1.6125 -4.20594,-3.45344 -5.805,-5.59c-0.80625,-1.06156 -2.13656,-1.55875 -3.44,-1.29l-9.46,2.15l-1.935,-4.515l8.17,-5.0525c1.1825,-0.72562 1.81406,-2.06937 1.6125,-3.44c-0.43,-2.66062 -0.49719,-5.44219 -0.1075,-8.17c0.16125,-1.33031 -0.47031,-2.63375 -1.6125,-3.3325l-8.17,-5.16l1.8275,-4.4075l9.3525,2.0425c1.33031,0.30906 2.72781,-0.18812 3.5475,-1.29c1.63938,-2.23062 3.5475,-4.1925 5.6975,-5.805c1.06156,-0.80625 1.55875,-2.13656 1.29,-3.44l-2.15,-9.46l4.4075,-1.8275l5.16,8.17c0.7525,1.14219 2.09625,1.73344 3.44,1.505c2.63375,-0.41656 5.34813,-0.40312 8.0625,0c1.37063,0.20156 2.71438,-0.43 3.44,-1.6125zM127.1725,27.09c-6.82625,0.1075 -13.30312,4.16563 -16.0175,10.8575c-3.62812,8.9225 0.7525,19.26938 9.675,22.8975c8.9225,3.62813 19.16188,-0.7525 22.79,-9.675c3.62813,-8.9225 -0.645,-19.16187 -9.5675,-22.79c-2.23062,-0.90031 -4.60906,-1.33031 -6.88,-1.29zM127.28,33.8625c1.38406,-0.01344 2.82188,0.30906 4.1925,0.86c5.4825,2.23063 8.03563,8.385 5.805,13.8675c-2.21719,5.46906 -8.385,8.03563 -13.8675,5.805c-5.4825,-2.23062 -8.03562,-8.385 -5.805,-13.8675c1.11531,-2.74125 3.19813,-4.74344 5.6975,-5.805c1.24969,-0.52406 2.59344,-0.84656 3.9775,-0.86zM49.3425,58.48c-1.46469,0.26875 -2.58,1.43781 -2.795,2.9025l-2.15,13.8675c-2.4725,0.7525 -4.8375,1.72 -7.095,2.9025l-11.5025,-8.17c-1.35719,-0.98094 -3.21156,-0.83312 -4.4075,0.3225l-9.46,9.46c-1.15562,1.19594 -1.30344,3.05031 -0.3225,4.4075l8.0625,11.5025c-1.1825,2.24406 -2.12312,4.63594 -2.9025,7.095l-13.8675,2.365c-1.65281,0.25531 -2.87562,1.66625 -2.9025,3.3325v13.33c-0.02687,1.67969 1.15563,3.13094 2.795,3.44l13.8675,2.365c0.77938,2.53969 1.77375,4.89125 3.01,7.2025l-8.17,11.395c-0.98094,1.35719 -0.83312,3.21156 0.3225,4.4075l9.46,9.46c1.19594,1.15563 3.05031,1.30344 4.4075,0.3225l11.5025,-8.0625c2.24406,1.1825 4.63594,2.13656 7.095,2.9025l2.2575,13.8675c0.26875,1.69313 1.73344,2.92938 3.44,2.9025h13.33c1.67969,0.02688 3.13094,-1.15562 3.44,-2.795l2.4725,-14.0825c2.43219,-0.76594 4.77031,-1.72 6.9875,-2.9025l11.61,8.17c1.35719,0.98094 3.21156,0.83313 4.4075,-0.3225l9.46,-9.46c1.15563,-1.19594 1.30344,-3.05031 0.3225,-4.4075l-8.2775,-11.61c1.16906,-2.24406 2.15,-4.52844 2.9025,-6.9875l14.0825,-2.365c1.63938,-0.30906 2.82188,-1.76031 2.795,-3.44v-13.33c-0.02687,-1.66625 -1.24969,-3.07719 -2.9025,-3.3325l-14.0825,-2.365c-0.7525,-2.40531 -1.63937,-4.68969 -2.795,-6.88l8.17,-11.7175c0.98094,-1.35719 0.83313,-3.21156 -0.3225,-4.4075l-9.46,-9.46c-1.19594,-1.15562 -3.05031,-1.30344 -4.4075,-0.3225l-11.5025,8.2775c-2.24406,-1.1825 -4.63594,-2.13656 -7.095,-2.9025l-2.365,-13.975c-0.26875,-1.69312 -1.73344,-2.92937 -3.44,-2.9025h-13.33c-0.1075,0 -0.215,0 -0.3225,0c-0.1075,0 -0.215,0 -0.3225,0zM52.9975,65.36h7.4175l2.2575,12.9c0.215,1.37063 1.23625,2.4725 2.58,2.795c3.44,0.86 6.71875,2.19031 9.675,3.9775c1.16906,0.71219 2.64719,0.67188 3.7625,-0.1075l10.6425,-7.6325l5.2675,5.2675l-7.525,10.8575c-0.81969,1.10188 -0.90031,2.58 -0.215,3.7625c1.77375,2.95625 3.1175,6.14094 3.9775,9.5675c0.3225,1.34375 1.42438,2.365 2.795,2.58l13.0075,2.15v7.4175l-13.0075,2.2575c-1.37062,0.215 -2.4725,1.23625 -2.795,2.58c-0.84656,3.42656 -2.20375,6.62469 -3.9775,9.5675c-0.72562,1.20938 -0.645,2.74125 0.215,3.87l7.6325,10.6425l-5.2675,5.2675l-10.75,-7.525c-1.11531,-0.77937 -2.59344,-0.81969 -3.7625,-0.1075c-2.92937,1.78719 -6.235,3.10406 -9.675,3.9775c-1.30344,0.36281 -2.27094,1.46469 -2.4725,2.795l-2.365,12.9h-7.525l-2.15,-12.9c-0.25531,-1.33031 -1.26312,-2.37844 -2.58,-2.6875c-3.45344,-0.84656 -6.70531,-2.29781 -9.675,-4.085c-1.15562,-0.63156 -2.58,-0.55094 -3.655,0.215l-10.75,7.4175l-5.2675,-5.2675l7.525,-10.535c0.83313,-1.14219 0.87344,-2.67406 0.1075,-3.87c-1.80062,-2.98312 -3.1175,-6.20812 -3.9775,-9.675c-0.3225,-1.34375 -1.42437,-2.365 -2.795,-2.58l-12.7925,-2.2575v-7.525l12.7925,-2.15c1.33031,-0.20156 2.43219,-1.16906 2.795,-2.4725c0.87344,-3.48031 2.17688,-6.79937 3.9775,-9.7825c0.71219,-1.16906 0.67188,-2.64719 -0.1075,-3.7625l-7.4175,-10.6425l5.2675,-5.375l10.6425,7.6325c1.11531,0.77938 2.59344,0.81969 3.7625,0.1075c2.95625,-1.77375 6.22156,-3.02344 9.675,-3.87c1.34375,-0.3225 2.365,-1.42437 2.58,-2.795zM56.76,94.0625c-11.67719,0 -21.1775,9.50031 -21.1775,21.1775c0,11.67719 9.50031,21.1775 21.1775,21.1775c11.67719,0 21.1775,-9.50031 21.1775,-21.1775c0,-11.67719 -9.50031,-21.1775 -21.1775,-21.1775zM56.76,100.9425c7.955,0 14.2975,6.3425 14.2975,14.2975c0,7.955 -6.3425,14.2975 -14.2975,14.2975c-7.955,0 -14.2975,-6.3425 -14.2975,-14.2975c0,-7.955 6.3425,-14.2975 14.2975,-14.2975z"></path></g></g></svg>