            <svg xmlns="http://www.w3.org/2000/svg" x="0px" y="0px" width="50"
              height="50" viewBox="0 0 172 172" style=" fill:#000000;">
              <g fill="none" fill-rule="nonzero" stroke="none" stroke-width="1" stroke-linecap="butt"
                stroke-linejoin="miter" stroke-miterlimit="10" stroke-dasharray="" stroke-dashoffset="0"
                font-family="none" font-weight="none" font-size="none" text-anchor="none"
                style="mix-blend-mode: normal">
                <path d="M0,172v-172h172v172z" fill="none"></path>
                <g fill="#fd7e14">
                  <path
                    d="M99.73313,30.96c-17.42704,0 -32.20824,9.19684 -39.58016,24.295c-3.784,-2.37704 -8.33754,-3.655 -13.22922,-3.655c-12.51128,0 -22.06991,9.51407 -22.83703,22.40031c-15.34584,5.19096 -24.08672,17.36979 -24.08672,33.77515c0,18.34208 14.92245,33.26453 33.26453,33.26453h11.45547v-27.52h-3.44v-17.2h24.08v8.07594c3.42624,-4.87792 9.0816,-8.07594 15.48,-8.07594c6.3984,0 12.05376,3.19802 15.48,8.07594c3.42624,-4.87792 9.0816,-8.07594 15.48,-8.07594c10.43352,0 18.92,8.48648 18.92,18.92v6.88c0,4.03512 -1.27968,7.77214 -3.44,10.84406v8.07594h14.09594c16.88696,0 30.62406,-13.73383 30.62406,-30.61735c0,-16.26432 -12.43775,-30.68646 -27.57375,-32.7539c0.0344,-0.68112 0.05375,-1.34203 0.05375,-1.98875c0,-25.0776 -19.65552,-44.72 -44.74687,-44.72zM48.16,103.2v6.88h3.44v24.08h6.88v-30.96zM80.84,103.2c-6.60889,0 -12.04,5.43111 -12.04,12.04v6.88c0,6.60889 5.43111,12.04 12.04,12.04c6.60889,0 12.04,-5.43111 12.04,-12.04v-6.88c0,-6.60889 -5.43111,-12.04 -12.04,-12.04zM111.8,103.2c-6.60889,0 -12.04,5.43111 -12.04,12.04v6.88c0,6.60889 5.43111,12.04 12.04,12.04c6.60889,0 12.04,-5.43111 12.04,-12.04v-6.88c0,-6.60889 -5.43111,-12.04 -12.04,-12.04zM80.84,110.08c2.89239,0 5.16,2.26761 5.16,5.16v6.88c0,2.89239 -2.26761,5.16 -5.16,5.16c-2.89239,0 -5.16,-2.26761 -5.16,-5.16v-6.88c0,-2.89239 2.26761,-5.16 5.16,-5.16zM111.8,110.08c2.89239,0 5.16,2.26761 5.16,5.16v6.88c0,2.89239 -2.26761,5.16 -5.16,5.16c-2.89239,0 -5.16,-2.26761 -5.16,-5.16v-6.88c0,-2.89239 2.26761,-5.16 5.16,-5.16zM60.2,141.04c-6.60889,0 -12.04,5.43111 -12.04,12.04v6.88c0,6.60889 5.43111,12.04 12.04,12.04c6.60889,0 12.04,-5.43111 12.04,-12.04v-6.88c0,-6.60889 -5.43111,-12.04 -12.04,-12.04zM91.16,141.04c-6.60889,0 -12.04,5.43111 -12.04,12.04v6.88c0,6.60889 5.43111,12.04 12.04,12.04c6.60889,0 12.04,-5.43111 12.04,-12.04v-6.88c0,-6.60889 -5.43111,-12.04 -12.04,-12.04zM110.08,141.04v6.88h3.44v24.08h6.88v-30.96zM60.2,147.92c2.89239,0 5.16,2.26761 5.16,5.16v6.88c0,2.89239 -2.26761,5.16 -5.16,5.16c-2.89239,0 -5.16,-2.26761 -5.16,-5.16v-6.88c0,-2.89239 2.26761,-5.16 5.16,-5.16zM91.16,147.92c2.89239,0 5.16,2.26761 5.16,5.16v6.88c0,2.89239 -2.26761,5.16 -5.16,5.16c-2.89239,0 -5.16,-2.26761 -5.16,-5.16v-6.88c0,-2.89239 2.26761,-5.16 5.16,-5.16z">
                  </path>
                </g>
              </g>
            </svg>