<svg xmlns="http://www.w3.org/2000/svg" x="0px" y="0px"
width="50" height="50"
viewBox="0 0 172 172"
style=" fill:#000000;"><g fill="none" fill-rule="nonzero" stroke="none" stroke-width="1" stroke-linecap="butt" stroke-linejoin="miter" stroke-miterlimit="10" stroke-dasharray="" stroke-dashoffset="0" font-family="none" font-weight="none" font-size="none" text-anchor="none" style="mix-blend-mode: normal"><path d="M0,172v-172h172v172z" fill="none"></path><g fill="#0087ff"><path d="M72.24,0c-19.41719,0 -37.04719,3.48031 -50.095,9.3525c-6.51719,2.92938 -11.89219,6.47688 -15.8025,10.6425c-3.72219,3.96406 -6.11406,8.64031 -6.3425,13.6525c-0.01344,0.17469 -0.01344,0.36281 0,0.5375c0,0.06719 0,0.14781 0,0.215v33.755c-0.02687,0.215 -0.02687,0.43 0,0.645v33.755c-0.02687,0.215 -0.02687,0.43 0,0.645v30.96c0,9.63469 7.64594,17.58969 18.705,23.3275c11.05906,5.73781 26.06875,9.60781 43,10.75c1.89469,0.12094 3.53406,-1.33031 3.655,-3.225c0.12094,-1.89469 -1.33031,-3.53406 -3.225,-3.655c-16.16531,-1.08844 -30.40906,-4.86437 -40.3125,-9.9975c-9.90344,-5.13312 -14.9425,-11.31437 -14.9425,-17.2v-16.0175c3.85656,3.93719 9.01656,7.29656 15.265,10.105c13.04781,5.87219 30.67781,9.3525 50.095,9.3525c1.23625,0.01344 2.39188,-0.63156 3.02344,-1.70656c0.61813,-1.075 0.61813,-2.39187 0,-3.46687c-0.63156,-1.075 -1.78719,-1.72 -3.02344,-1.70656c-18.58406,0 -35.34062,-3.48031 -47.1925,-8.815c-5.92594,-2.66062 -10.60219,-5.77812 -13.6525,-9.03c-3.05031,-3.25187 -4.515,-6.43656 -4.515,-9.675c0.02688,-0.215 0.02688,-0.43 0,-0.645v-18.8125c3.85656,3.93719 9.01656,7.29656 15.265,10.105c13.04781,5.87219 30.67781,9.3525 50.095,9.3525c9.91688,0 19.35,-0.90031 27.95,-2.58c1.86781,-0.36281 3.10406,-2.16344 2.74125,-4.03125c-0.36281,-1.86781 -2.16344,-3.10406 -4.03125,-2.74125c-8.14312,1.58563 -17.15969,2.4725 -26.66,2.4725c-18.58406,0 -35.34062,-3.48031 -47.1925,-8.815c-5.92594,-2.66062 -10.60219,-5.77812 -13.6525,-9.03c-3.05031,-3.25187 -4.515,-6.43656 -4.515,-9.675c0.02688,-0.215 0.02688,-0.43 0,-0.645v-18.8125c3.85656,3.93719 9.01656,7.29656 15.265,10.105c13.04781,5.87219 30.67781,9.3525 50.095,9.3525c19.41719,0 37.04719,-3.48031 50.095,-9.3525c6.24844,-2.80844 11.40844,-6.16781 15.265,-10.105v16.0175c-0.01344,1.23625 0.63156,2.39188 1.70656,3.02344c1.075,0.61813 2.39187,0.61813 3.46687,0c1.075,-0.63156 1.72,-1.78719 1.70656,-3.02344v-30.96c0,-0.1075 0,-0.215 0,-0.3225c0,-0.1075 0,-0.215 0,-0.3225c0,-0.04031 0,-0.06719 0,-0.1075c-0.02687,-0.06719 -0.06719,-0.14781 -0.1075,-0.215c-0.28219,-4.93156 -2.56656,-9.54062 -6.235,-13.4375c-3.91031,-4.16562 -9.28531,-7.71312 -15.8025,-10.6425c-13.04781,-5.87219 -30.67781,-9.3525 -50.095,-9.3525zM72.24,6.88c18.58406,0 35.34063,3.48031 47.1925,8.815c5.92594,2.66063 10.60219,5.77813 13.6525,9.03c3.05031,3.25188 4.515,6.43656 4.515,9.675c0,3.23844 -1.46469,6.42313 -4.515,9.675c-3.05031,3.25188 -7.72656,6.36938 -13.6525,9.03c-11.85187,5.33469 -28.60844,8.815 -47.1925,8.815c-18.58406,0 -35.34062,-3.48031 -47.1925,-8.815c-5.92594,-2.66062 -10.60219,-5.77812 -13.6525,-9.03c-3.05031,-3.25187 -4.515,-6.43656 -4.515,-9.675c0,-0.1075 0,-0.215 0,-0.3225c0.09406,-3.13094 1.55875,-6.20812 4.515,-9.3525c3.05031,-3.25187 7.72656,-6.36937 13.6525,-9.03c11.85188,-5.33469 28.60844,-8.815 47.1925,-8.815zM141.04,75.68c-17.05219,0 -30.96,13.90781 -30.96,30.96c0,2.62031 0.88688,4.98531 1.505,7.4175c-0.04031,0.04031 -0.06719,0.06719 -0.1075,0.1075l-34.83,34.83c-0.61812,0.63156 -0.95406,1.47813 -0.9675,2.365v17.2c0,1.89469 1.54531,3.44 3.44,3.44h17.2c0.91375,0.02688 1.81406,-0.3225 2.4725,-0.9675l2.4725,-2.4725h8.815c1.89469,0 3.44,-1.54531 3.44,-3.44v-6.88h6.88c1.89469,0 3.44,-1.54531 3.44,-3.44v-6.88h6.88c1.89469,0 3.44,-1.54531 3.44,-3.44v-8.2775c2.27094,0.5375 4.44781,1.3975 6.88,1.3975c17.05219,0 30.96,-13.90781 30.96,-30.96c0,-17.05219 -13.90781,-30.96 -30.96,-30.96zM141.04,82.56c13.33,0 24.08,10.73656 24.08,24.08c0,13.34344 -10.75,24.08 -24.08,24.08c-13.33,0 -24.08,-10.73656 -24.08,-24.08c0,-13.34344 10.75,-24.08 24.08,-24.08zM151.36,92.88c-3.80281,0 -6.88,3.07719 -6.88,6.88c0,3.80281 3.07719,6.88 6.88,6.88c3.80281,0 6.88,-3.07719 6.88,-6.88c0,-3.80281 -3.07719,-6.88 -6.88,-6.88zM114.165,121.1525c0.9675,1.77375 2.16344,3.39969 3.44,4.945l-23.9725,24.08c-1.02125,0.83313 -1.49156,2.16344 -1.19594,3.45344c0.29562,1.27656 1.30344,2.28438 2.58,2.58c1.29,0.29563 2.62031,-0.17469 3.45344,-1.19594l24.1875,-24.08c1.47813,1.12875 2.95625,2.16344 4.6225,3.01v7.095h-6.88c-1.89469,0 -3.44,1.54531 -3.44,3.44v6.88h-6.88c-1.89469,0 -3.44,1.54531 -3.44,3.44v6.88h-6.88c-0.91375,-0.02687 -1.81406,0.3225 -2.4725,0.9675l-2.4725,2.4725h-12.255v-12.255z"></path></g></g></svg>