<svg xmlns="http://www.w3.org/2000/svg" x="0px" y="0px" width="50"
              height="50" viewBox="0 0 172 172" style=" fill:#000000;">
              <g fill="none" fill-rule="nonzero" stroke="none" stroke-width="1" stroke-linecap="butt"
                stroke-linejoin="miter" stroke-miterlimit="10" stroke-dasharray="" stroke-dashoffset="0"
                font-family="none" font-weight="none" font-size="none" text-anchor="none"
                style="mix-blend-mode: normal">
                <path d="M0,172v-172h172v172z" fill="none"></path>
                <g fill="#ff581a">
                  <path
                    d="M129.84656,17.2c-10.60552,0 -19.56403,5.7434 -23.90531,15.25156c-1.89888,-0.97008 -4.01405,-1.49156 -6.18125,-1.49156c-6.6736,0 -12.25941,4.77681 -13.50469,11.09265c-8.6,2.60064 -14.01531,10.25561 -14.01531,20.16969c0,11.21784 9.07112,20.33765 20.21672,20.33765h60.81141c10.33032,0 18.73187,-8.45058 18.73187,-18.83937c0,-8.80984 -6.12271,-16.67535 -13.78015,-18.56391c0.01032,-0.45064 0.02015,-0.83995 0.02015,-1.12203c0,-14.54432 -13.00288,-26.83469 -28.39344,-26.83469zM24.08,27.52c-7.71592,0 -13.76,6.04408 -13.76,13.76v75.68c0,2.53872 0.70541,4.86072 1.85437,6.88h-8.73437c-1.89888,0 -3.44,1.53768 -3.44,3.44c0,9.48408 7.71592,17.2 17.2,17.2h137.6c9.48408,0 17.2,-7.71592 17.2,-17.2c0,-1.90232 -1.54112,-3.44 -3.44,-3.44h-8.73437c1.14896,-2.01928 1.85437,-4.34128 1.85437,-6.88v-28.97797c-2.17752,0.76368 -4.48232,1.23287 -6.88,1.37734v27.60063c0,3.92504 -2.9584,6.88 -6.88,6.88h-123.84c-3.9216,0 -6.88,-2.95496 -6.88,-6.88v-75.68c0,-3.92504 2.9584,-6.88 6.88,-6.88h57.82828c1.60648,-2.76232 3.82791,-5.11872 6.48359,-6.88z">
                  </path>
                </g>
              </g>
            </svg>