<svg xmlns="http://www.w3.org/2000/svg" x="0px" y="0px"
width="50" height="50"
viewBox="0 0 172 172"><g fill-rule="nonzero" stroke="none" stroke-width="1" stroke-linecap="butt" stroke-linejoin="miter" stroke-miterlimit="10" stroke-dasharray="" stroke-dashoffset="0" font-family="none" font-weight="none" font-size="none" text-anchor="none" style="mix-blend-mode: normal"><path d="M0,172v-172h172v172z" fill="none"></path><g><path d="M134.375,6.88c-2.05594,0.47031 -4.09844,0.92719 -6.02,1.3975c-0.215,0.05375 -0.5375,0.33594 -0.5375,0.5375c-0.04031,2.01563 0,4.05813 0,6.235c2.15,-0.45687 4.16563,-0.86 6.1275,-1.29c0.16125,-0.04031 0.3225,-0.28219 0.3225,-0.43c0.02688,-2.13656 0.1075,-4.27312 0.1075,-6.45zM126.205,8.7075c-1.45125,0.29563 -2.795,0.56438 -4.1925,0.86c-2.21719,0.47031 -2.2575,0.51063 -2.2575,2.795v4.1925c2.2575,-0.41656 4.34031,-0.79281 6.45,-1.1825zM118.1425,10.32c-2.13656,0.37625 -4.11187,0.69875 -6.1275,1.075c-0.13437,0.02688 -0.3225,0.37625 -0.3225,0.5375c-0.02687,1.94844 0,3.84313 0,5.9125c2.06938,-0.33594 4.01781,-0.63156 5.9125,-0.9675c0.22844,-0.04031 0.5375,-0.24187 0.5375,-0.43c0.04031,-1.98875 0,-4.03125 0,-6.1275zM101.91,13.0075c-2.19031,0.29563 -4.34031,0.57781 -6.45,0.86v6.235c2.19031,-0.25531 4.32688,-0.60469 6.45,-0.86zM142.33,13.4375c-2.00219,0.45688 -3.95062,0.83313 -5.9125,1.29c-0.16125,0.04031 -0.43,0.29563 -0.43,0.43c-0.02687,1.89469 0,3.74906 0,5.6975c2.19031,-0.45687 4.24625,-0.84656 6.3425,-1.29c0,-2.02906 0,-3.99094 0,-6.1275zM93.8475,14.0825c-2.28437,0.24188 -4.42094,0.41656 -6.5575,0.645v6.1275c2.08281,-0.20156 4.09844,-0.3225 6.1275,-0.5375c0.14781,-0.01344 0.43,-0.29562 0.43,-0.43c0.02688,-1.90812 0,-3.81625 0,-5.805zM85.57,14.9425c-2.23062,0.18813 -4.32687,0.34938 -6.45,0.5375v6.02c2.17688,-0.16125 4.28656,-0.26875 6.45,-0.43zM77.4,15.5875c-2.17687,0.12094 -4.36719,0.20156 -6.5575,0.3225v6.1275c2.21719,-0.12094 4.43438,-0.30906 6.5575,-0.43zM46.225,16.34v5.9125h6.45v-5.9125zM54.5025,16.4475v5.805h6.45v-5.805zM126.205,16.8775c-2.00219,0.36281 -3.96406,0.69875 -5.9125,1.075c-0.20156,0.04031 -0.5375,0.26875 -0.5375,0.43c-0.04031,1.76031 0,3.50719 0,5.375c2.24406,-0.37625 4.32688,-0.71219 6.45,-1.075zM118.1425,18.3825c-7.59219,1.06156 -15.17094,2.16344 -22.79,3.225v13.6525c-4.77031,0.215 -9.41969,0.43 -14.19,0.645v-5.4825c2.0425,-0.12094 4.04469,-0.215 6.02,-0.3225v-7.74c-8.21031,0.45688 -16.40719,0.94063 -24.6175,1.3975v13.115h-16.34v6.7725h6.3425v5.16h-6.3425v6.665h8.2775v21.3925h6.235v5.16h-6.235v8.0625h6.235v5.16h-6.3425v21.285h-8.17v13.4375h6.3425v5.16h10.105v13.2225c5.54969,0.24188 10.99188,0.51063 16.555,0.7525v-5.16c2.17688,0.18813 4.20594,0.34938 6.3425,0.5375v-8.385c3.3325,0.25531 6.58438,0.49719 9.89,0.7525v13.545c7.6325,1.06156 15.17094,2.16344 22.79,3.225v-14.2975c1.35719,0.09406 2.55313,0.13438 3.7625,0.215c4.17906,0.29563 8.26406,0.24188 12.3625,-0.86c7.55188,-2.01562 12.76563,-6.50375 14.835,-14.19c1.27656,-4.74344 1.45125,-9.54062 0.9675,-14.405c-0.40312,-4.00437 -1.51844,-7.76687 -3.5475,-11.2875c-0.63156,-1.10187 -1.31687,-1.74687 -2.6875,-1.6125c-1.12875,0.1075 -2.28437,-0.16125 -3.44,-0.215c-1.47812,-0.06719 -2.98312,-0.14781 -4.515,-0.215c0,-2.21719 -0.05375,-4.23281 0,-6.3425c0.01344,-0.65844 -0.17469,-1.00781 -0.7525,-1.1825c-2.55312,-0.7525 -5.0525,-1.57219 -7.6325,-2.2575c-1.49156,-0.38969 -3.06375,-0.57781 -4.6225,-0.86v-2.15c0,-2.44562 0.02688,-2.40531 2.365,-3.225c4.07156,-1.41094 8.04906,-2.9025 11.5025,-5.59c3.85656,-3.01 6.63813,-6.79937 8.2775,-11.395c1.47813,-4.15219 1.59906,-8.55969 1.29,-12.9c-0.24187,-3.3325 -1.00781,-6.47687 -2.58,-9.46c-1.23625,-2.33812 -3.01,-4.21937 -5.2675,-5.59c-4.78375,-2.9025 -9.9975,-3.74906 -15.48,-3.44c-1.59906,0.09406 -3.21156,0.22844 -4.8375,0.3225c-0.02687,-0.5375 -0.08062,-1.03469 -0.1075,-1.505c-2.13656,0.26875 -4.15219,0.60469 -6.235,0.86v-5.59c2.10969,-0.30906 4.15219,-0.55094 6.235,-0.86zM142.33,21.07c-2.13656,0.44344 -4.25969,0.86 -6.3425,1.29v6.1275c2.15,-0.40312 4.28656,-0.79281 6.3425,-1.1825zM134.2675,22.6825c-2.21719,0.40313 -4.28656,0.80625 -6.3425,1.1825v5.9125c2.19031,-0.36281 4.23281,-0.72562 6.3425,-1.075zM54.5025,23.7575v5.16h6.45v-5.16zM126.205,24.1875c-2.17687,0.34938 -4.32687,0.72563 -6.45,1.075v5.805c2.21719,-0.3225 4.35375,-0.65844 6.45,-0.9675zM46.225,30.315v5.2675h6.45v-5.2675zM54.5025,30.315v5.2675h6.45v-5.2675zM21.715,35.905v5.375c2.17688,0.12094 4.3,0.30906 6.45,0.43v-5.375c-2.17687,-0.12094 -4.28656,-0.30906 -6.45,-0.43zM29.885,36.55v5.2675h6.3425v-5.2675zM38.055,36.8725v5.2675h6.45v-5.2675zM77.4,42.785v5.2675c-2.13656,0.09406 -4.28656,0.22844 -6.45,0.3225v-5.2675c2.16344,-0.1075 4.3,-0.215 6.45,-0.3225zM29.885,43.215v5.2675h6.3425v-5.2675zM142.33,43.215v6.235c-2.0425,0.25531 -4.11187,0.49719 -6.235,0.7525v-6.1275c2.01563,-0.29562 4.07156,-0.5375 6.235,-0.86zM62.78,43.3225h6.3425v5.16h-6.3425zM21.6075,49.665c0,1.55875 -0.04031,3.19813 0,4.8375c0,0.14781 0.36281,0.3225 0.5375,0.3225c1.97531,0.02688 3.99094,0.1075 6.02,0.1075v-5.2675zM38.055,50.2025v5.16h6.45v-5.16zM102.77,51.385c13.4375,-0.33594 13.12844,5.46906 13.2225,9.675c0.17469,7.71313 -3.09062,14.66031 -19.2425,15.91c-0.55094,0.04031 -13.57187,0.5375 -13.76,0.5375c0,-8.41187 0,-16.74312 0,-25.155c0.5375,-0.04031 17.71063,-0.91375 19.78,-0.9675zM21.715,56.33v5.375h6.45v-5.375zM38.055,56.76v5.2675h6.45v-5.2675zM46.225,56.8675v5.16h6.45v-5.16zM59.34,56.8675h6.3425v5.16h-6.3425zM142.2225,59.0175v6.235c-2.0425,0.13438 -4.00437,0.29563 -6.1275,0.43v-6.02c2.06938,-0.18812 4.01781,-0.44344 6.1275,-0.645zM29.885,63.3175v5.2675h6.3425v-5.2675zM46.225,63.5325v5.16h6.45v-5.16zM68.4775,63.5325h6.3425v5.0525h-6.3425zM21.715,69.875v5.2675h6.45v-5.2675zM29.885,69.9825v5.2675h6.3425v-5.2675zM38.055,70.09v5.16h6.45v-5.16zM38.055,76.755v5.16h6.45v-5.16zM46.225,76.755v5.16h6.45v-5.16zM29.885,83.42v5.2675h6.3425v-5.2675zM46.225,83.42v5.16h6.45v-5.16zM67.725,83.42h6.3425v5.16h-6.3425zM38.055,90.085v5.16h6.45v-5.16zM46.225,90.085v5.16h6.5575v-5.16zM82.99,94.7075c0.40313,0 11.85188,0.215 13.76,0.3225c20.21,1.075 20.73406,4.99875 22.79,12.255c0.59125,2.08281 0.13438,4.23281 -0.43,6.3425c-0.38969,1.46469 -1.43781,7.00094 -14.405,6.9875c-3.17125,0 -21.24469,-0.7525 -21.715,-0.7525zM29.885,96.75v5.2675h6.45v-5.2675zM38.055,96.75v5.16h6.45v-5.16zM21.715,96.8575v5.2675h6.45v-5.2675zM46.225,103.3075v5.16h6.45v-5.16zM61.1675,103.415h6.3425v5.0525h-6.3425zM29.885,103.5225v5.16h6.3425v-5.16zM21.715,103.63v5.2675h6.45v-5.2675zM38.055,109.9725v5.2675h6.45v-5.2675zM46.225,109.9725v5.16h6.45v-5.16zM61.1675,109.9725h6.3425v5.16h-6.3425zM29.885,110.08v5.2675h6.3425v-5.2675zM136.095,114.0575c2.0425,0.20156 4.11188,0.33594 6.235,0.5375v6.235c-2.08281,-0.24187 -4.13875,-0.40312 -6.235,-0.645zM29.885,116.8525v5.16h6.3425v-5.16zM38.055,123.3025v5.16h6.45v-5.16zM54.61,123.3025h6.3425v5.16h-6.3425zM29.885,123.5175v5.2675h6.3425v-5.2675zM87.6125,123.84h6.3425v5.375c-1.06156,-0.05375 -5.2675,-0.26875 -6.3425,-0.3225zM103.9525,124.485c1.6125,0.1075 3.15781,0.215 4.73,0.3225c0.52406,0.04031 1.08844,0.06719 1.6125,0.1075v5.4825c-1.57219,-0.12094 -5.805,-0.49719 -6.3425,-0.5375zM38.055,129.9675v5.16h6.45v-5.16zM28.165,130.29c-2.21719,0.12094 -4.32687,0.30906 -6.45,0.43v5.375c2.19031,-0.13437 4.28656,-0.29562 6.45,-0.43zM46.225,136.4175v5.2675h6.5575v-5.2675zM54.5025,136.4175v5.2675h6.45v-5.2675zM70.95,136.525h6.45v5.0525h-6.45zM36.2275,136.6325c-2.17687,0.09406 -4.21937,0.22844 -6.3425,0.3225v5.375c2.17688,-0.09406 4.21938,-0.22844 6.3425,-0.3225zM38.055,136.6325v5.16h6.45v-5.16zM28.165,137.0625c-2.17687,0.13438 -4.28656,0.29563 -6.45,0.43v5.375c2.20375,-0.14781 4.3,-0.28219 6.45,-0.43zM87.1825,137.6v5.375c2.23063,0.18813 4.44781,0.36281 6.5575,0.5375c0.05375,-0.17469 0.1075,-0.26875 0.1075,-0.3225c0.01344,-1.06156 0,-2.05594 0,-3.1175c0,-1.935 -0.05375,-1.97531 -1.935,-2.15c-0.18812,-0.01344 -0.34937,-0.09406 -0.5375,-0.1075c-1.37062,-0.09406 -2.78156,-0.12094 -4.1925,-0.215zM119.755,140.9325v5.805c2.13656,0.34938 4.27313,0.72563 6.45,1.075v-5.9125c-2.16344,-0.3225 -4.3,-0.645 -6.45,-0.9675zM127.8175,142.2225c0,0.57781 0,1.10188 0,1.6125c0,0.51063 -0.01344,1.00781 0,1.505c0.01344,0.67188 -0.1075,1.43781 0,2.0425c0.04031,0.20156 0.1075,0.38969 0.215,0.5375c0.40313,0.52406 1.62594,0.48375 2.4725,0.645c1.26313,0.24188 2.48594,0.41656 3.7625,0.645v-5.9125c-2.13656,-0.34937 -4.21937,-0.71219 -6.45,-1.075zM54.5025,143.0825v5.16h6.45v-5.16zM38.055,143.19v5.2675h6.45v-5.2675zM135.9875,143.62v6.02c2.10969,0.43 4.21938,0.86 6.3425,1.29v-6.235c-2.12312,-0.38969 -4.21937,-0.68531 -6.3425,-1.075zM87.29,144.3725v5.375c2.17688,0.20156 4.23281,0.43 6.45,0.645v-5.4825c-2.20375,-0.18812 -4.28656,-0.34937 -6.45,-0.5375zM119.755,148.2425v5.6975c2.13656,0.38969 4.27313,0.79281 6.45,1.1825v-5.805c-2.15,-0.36281 -4.28656,-0.71219 -6.45,-1.075zM54.5025,149.64v5.9125h6.45v-5.9125zM62.6725,149.855v5.9125h6.45v-5.9125zM70.8425,150.07c0,1.92156 -0.05375,3.69531 0,5.4825c0,0.18813 0.40313,0.51063 0.645,0.5375c0.95406,0.1075 1.935,0.05375 2.9025,0.1075c1.00781,0.05375 1.98875,0.16125 3.01,0.215v-6.02c-2.23062,-0.1075 -4.34031,-0.215 -6.5575,-0.3225zM79.12,150.5v6.02c2.16344,0.17469 4.21938,0.34938 6.45,0.5375v-3.9775c0,-2.0425 0,-2.06937 -2.0425,-2.2575c-1.47812,-0.13437 -2.87562,-0.20156 -4.4075,-0.3225zM95.46,151.8975v6.235c2.17688,0.28219 4.28656,0.57781 6.45,0.86v-6.235c-2.16344,-0.25531 -4.27312,-0.60469 -6.45,-0.86zM103.63,152.9725v6.235c2.17688,0.33594 4.28656,0.73906 6.45,1.075v-6.45c-2.17687,-0.30906 -4.3,-0.55094 -6.45,-0.86zM119.755,155.445c0,2.16344 -0.02687,4.16563 0,6.1275c0,0.17469 0.26875,0.38969 0.43,0.43c2.00219,0.43 3.95063,0.87344 6.02,1.29v-6.665c-2.13656,-0.38969 -4.21937,-0.76594 -6.45,-1.1825zM127.8175,157.0575c0,2.13656 -0.02687,4.03125 0,6.02c0,0.215 0.25531,0.60469 0.43,0.645c1.98875,0.48375 4.03125,0.92719 6.1275,1.3975c0,-2.17687 -0.06719,-4.23281 -0.1075,-6.3425c0,-0.18812 -0.29562,-0.48375 -0.5375,-0.5375c-1.23625,-0.29562 -2.51281,-0.60469 -3.7625,-0.86c-0.68531,-0.13437 -1.38406,-0.17469 -2.15,-0.3225z"></path></g></g></svg>