            <svg xmlns="http://www.w3.org/2000/svg" x="0px" y="0px" width="50"
              height="50" viewBox="0 0 172 172" style=" fill:#000000;">
              <g fill="none" fill-rule="nonzero" stroke="none" stroke-width="1" stroke-linecap="butt"
                stroke-linejoin="miter" stroke-miterlimit="10" stroke-dasharray="" stroke-dashoffset="0"
                font-family="none" font-weight="none" font-size="none" text-anchor="none"
                style="mix-blend-mode: normal">
                <path d="M0,172v-172h172v172z" fill="none"></path>
                <g fill="#007bff">
                  <path
                    d="M72.24672,0c-43.21328,0 -72.24672,16.00648 -72.24672,30.95328c0,14.9468 29.03344,30.96672 72.24672,30.96672c43.21328,0 72.23328,-16.01304 72.23328,-30.96672c0,-14.9468 -29.02,-30.95328 -72.23328,-30.95328zM0,46.61469v19.0611c0,14.70256 29.05279,30.64422 72.30047,30.64422c4.77128,0 9.33321,-0.4249 13.73985,-0.7861c0.04128,2.60752 0.15313,5.14963 0.35609,7.59891c-4.57176,0.37152 -9.26962,0.06719 -14.09594,0.06719c-32.4048,0 -59.64831,-8.24374 -72.29375,-21.15063v18.18094c0,14.69912 29.04607,30.48969 72.29375,30.48969c7.00384,0 13.588,-0.50304 19.78,-1.2564c0.95288,2.55936 1.97983,4.99536 3.07719,7.28984c-7.21368,0.99416 -14.87639,0.84656 -22.85719,0.84656c-32.4048,0 -59.64831,-8.08578 -72.29375,-20.9961v17.86516c0,14.69912 29.04607,30.44265 72.29375,30.44265c15.06032,0 28.3442,-1.93602 39.33156,-5.04578c8.11496,7.95672 15.19168,11.45773 15.88312,11.79141l1.55875,0.7525l1.53188,-0.80625c1.68904,-0.89096 41.39422,-22.41854 41.39422,-77.9711v-2.78156l-2.71437,-0.58453c-13.74624,-2.96872 -21.87147,-7.18089 -27.80891,-10.25281c-1.7716,-0.91504 -3.3798,-1.71043 -4.945,-2.40531c0.44376,0.06536 0.89295,0.17624 1.35047,0.3964c4.31032,-3.94224 6.59781,-8.16994 6.59781,-12.3289v-19.0611c-12.642,12.91376 -39.78505,22.18531 -72.17953,22.18531c-32.4048,0 -59.65503,-9.27499 -72.30047,-22.18531zM128.99328,82.55328c2.42864,0 5.31835,1.50021 9.31219,3.56765c5.87896,3.0444 13.78134,7.13978 26.77422,10.2461c-1.12144,43.99072 -29.11207,63.93514 -36.14687,68.25578c-7.05544,-4.03856 -34.93562,-22.84778 -36.01922,-68.25578c12.98944,-3.10632 20.89526,-7.2017 26.77422,-10.2461c3.99384,-2.06744 6.87683,-3.56765 9.30547,-3.56765z">
                  </path>
                </g>
              </g>
            </svg>