<svg xmlns="http://www.w3.org/2000/svg" width="70" height="70" viewBox="0 0 172 172">
  <g fill="none" stroke-miterlimit="10" font-family="none" font-weight="none" font-size="none" text-anchor="none" style="mix-blend-mode:normal">
    <path d="M0 172V0h172v172z"/>
    <path d="M32.384 13.76l-19.121 34.4 19.121 34.4h41.898L92.92 48.093 74.282 13.76zM97.677 51.6L79.644 86l5.94 11.341 23.958-11.381-4.528-7.66 20.546 2.54-6.88 20.64-4.636-7.888L91.98 109.53l5.697 10.871h41.952l18.033-34.548L139.63 51.6zM32.371 89.44l-19.108 34.4 19.108 34.4h41.898l19.108-34.4-6.074-10.925-38.955 28.125v-14.163l-12.147-6.074 43.9-20.855-5.832-10.508z" fill="#2138c9"/>
  </g>
</svg>