            <svg xmlns="http://www.w3.org/2000/svg" x="0px" y="0px" width="50" height="50" viewBox="0 0 172 172"
              style=" fill:#000000;">
              <g fill="none" fill-rule="nonzero" stroke="none" stroke-width="1" stroke-linecap="butt"
                stroke-linejoin="miter" stroke-miterlimit="10" stroke-dasharray="" stroke-dashoffset="0"
                font-family="none" font-weight="none" font-size="none" text-anchor="none"
                style="mix-blend-mode: normal">
                <path d="M0,172v-172h172v172z" fill="none"></path>
                <g fill="#e67e22">
                  <path
                    d="M68.37,15.1575c-12.65812,0.22844 -21.90312,4.00438 -27.52,11.395c-6.65156,8.76125 -7.86094,22.10469 -3.655,39.56c-1.54531,1.89469 -2.71437,4.77031 -2.2575,8.6c0.91375,7.57875 3.85656,10.69625 6.3425,11.9325c1.1825,5.95281 4.46125,12.64469 7.6325,15.8025v1.6125c0.02688,3.49375 0.01344,6.51719 -0.3225,10.4275c-2.10969,4.8375 -9.11062,7.67281 -17.2,10.8575c-13.4375,5.29438 -30.14031,11.81156 -31.39,32.68l-0.215,3.655h138.03l-0.215,-3.655c-0.08062,-1.45125 -0.30906,-2.76812 -0.5375,-4.085c-0.06719,-0.33594 -0.14781,-0.645 -0.215,-0.9675c-0.215,-0.99437 -0.36281,-1.97531 -0.645,-2.9025c-0.08062,-0.26875 -0.24187,-0.48375 -0.3225,-0.7525c-0.33594,-0.98094 -0.65844,-2.00219 -1.075,-2.9025c-0.06719,-0.14781 -0.14781,-0.28219 -0.215,-0.43c-0.49719,-1.03469 -1.02125,-1.97531 -1.6125,-2.9025c-6.14094,-9.62125 -17.18656,-13.98844 -26.66,-17.7375c-8.04906,-3.18469 -15.09031,-6.02 -17.2,-10.8575c-0.33594,-3.89687 -0.24187,-6.83969 -0.215,-10.32v-1.72c3.09063,-3.15781 6.26188,-9.82281 7.4175,-15.8025c2.41875,-1.24969 5.44219,-4.38062 6.3425,-11.9325c0.45688,-3.74906 -0.645,-6.59781 -2.15,-8.4925c2.00219,-6.81281 6.08719,-24.55031 -0.9675,-35.905c-1.54531,-2.48594 -3.5475,-4.39406 -5.9125,-5.9125c-1.075,-0.68531 -2.20375,-1.33031 -3.44,-1.8275c-1.24969,-0.48375 -2.56656,-0.90031 -3.9775,-1.1825c-3.25187,-4.09844 -9.48687,-6.235 -17.845,-6.235zM113.1975,18.5975c-4.87781,0.09406 -9.11062,0.88688 -12.7925,2.2575c1.935,1.67969 3.655,3.66844 5.0525,5.9125c7.4175,11.94594 5.10625,28.23219 2.4725,38.485c1.46469,3.09063 1.94844,6.61125 1.505,10.32c-0.95406,7.99531 -3.89687,12.53719 -6.9875,15.1575c-1.41094,5.21375 -3.89687,10.57531 -6.665,14.2975c-0.02687,2.60688 -0.05375,4.81063 0.1075,7.4175c1.86781,2.10969 8.14313,4.56875 12.9,6.45c10.535,4.16563 25.24906,10.03781 32.035,24.1875h31.39l-0.215,-3.655c-1.075,-17.92562 -15.34562,-23.55594 -26.7675,-28.0575c-6.3425,-2.49937 -12.33562,-4.89125 -14.0825,-8.7075c-0.25531,-3.21156 -0.24187,-5.71094 -0.215,-8.6v-1.1825c2.74125,-2.86219 5.2675,-8.50594 6.235,-13.2225c2.12313,-1.19594 4.60906,-3.96406 5.375,-10.32c0.37625,-3.17125 -0.45687,-5.61687 -1.72,-7.31c1.73344,-5.97969 4.99875,-20.84156 -0.9675,-30.4225c-2.53969,-4.085 -6.36937,-6.59781 -11.395,-7.6325c-2.87562,-3.49375 -8.15656,-5.375 -15.265,-5.375z">
                  </path>
                </g>
              </g>
            </svg>