<svg xmlns="http://www.w3.org/2000/svg" x="0px" y="0px"
width="60" height="60"
viewBox="0 0 172 172"
style=" fill:#000000;"><g fill="none" fill-rule="nonzero" stroke="none" stroke-width="1" stroke-linecap="butt" stroke-linejoin="miter" stroke-miterlimit="10" stroke-dasharray="" stroke-dashoffset="0" font-family="none" font-weight="none" font-size="none" text-anchor="none" style="mix-blend-mode: normal"><path d="M0,172v-172h172v172z" fill="none"></path><g fill="#6600ff"><path d="M68.37,15.1575c-16.07125,0.29563 -26.3375,6.78594 -30.745,16.8775c-4.20594,9.60781 -3.26531,21.74188 -0.215,34.2925c-1.63937,1.92156 -2.94281,4.50156 -2.4725,8.385c0.51063,4.23281 1.67969,7.24281 3.3325,9.3525c0.91375,1.15563 2.10969,1.26313 3.225,1.8275c0.60469,3.60125 1.6125,7.2025 3.1175,10.2125c0.86,1.73344 1.84094,3.3325 2.795,4.6225c0.43,0.57781 1.04813,0.91375 1.505,1.3975c0.02688,4.24625 0.04031,7.78031 -0.3225,12.255c-1.11531,2.70094 -3.72219,4.87781 -7.955,6.9875c-4.36719,2.17688 -10.05125,4.1925 -15.8025,6.665c-5.75125,2.4725 -11.66375,5.4825 -16.34,10.2125c-4.67625,4.73 -7.98187,11.22031 -8.4925,19.78l-0.215,3.655h138.03l-0.215,-3.655c-0.36281,-5.95281 -2.0425,-10.88437 -4.6225,-14.9425h39.2375l-0.215,-3.655c-0.44344,-7.32344 -3.30562,-13.02094 -7.31,-17.0925c-4.00437,-4.07156 -9.01656,-6.61125 -13.8675,-8.7075c-4.85094,-2.09625 -9.60781,-3.66844 -13.2225,-5.4825c-3.49375,-1.74687 -5.46906,-3.50719 -6.3425,-5.59c-0.28219,-3.61469 -0.34937,-6.5575 -0.3225,-9.9975c0.33594,-0.37625 0.87344,-0.645 1.1825,-1.075c0.81969,-1.12875 1.63938,-2.49937 2.365,-3.9775c1.22281,-2.51281 2.05594,-5.4825 2.58,-8.4925c0.90031,-0.49719 1.85438,-0.57781 2.58,-1.505c1.47813,-1.88125 2.45906,-4.43437 2.9025,-8.0625v-0.1075c0.37625,-3.14437 -0.645,-5.25406 -1.935,-6.9875c1.42438,-4.66281 3.17125,-12.01312 2.58,-19.6725c-0.33594,-4.21937 -1.3975,-8.47906 -3.9775,-12.04c-2.44562,-3.38625 -6.45,-5.87219 -11.5025,-6.7725c-3.27875,-3.64156 -8.45219,-5.2675 -14.5125,-5.2675c-8.34469,0.14781 -14.82156,2.21719 -19.565,5.9125c-2.16344,-1.34375 -4.68969,-2.32469 -7.525,-2.9025c-3.61469,-4.68969 -10.11844,-6.45 -17.63,-6.45zM68.4775,22.0375c0.04031,0 0.06719,0 0.1075,0c6.92031,0.02688 11.40844,2.05594 12.685,4.3l0.86,1.3975l1.6125,0.215c4.78375,0.65844 7.525,2.59344 9.46,5.2675c1.935,2.67406 3.01,6.40969 3.3325,10.535c0.645,8.25063 -1.73344,17.85844 -3.225,22.36l-0.86,2.6875l2.365,1.3975c-0.14781,-0.09406 1.31688,0.90031 0.9675,3.7625c-0.40312,3.37281 -1.20937,5.11969 -1.8275,5.9125c-0.61812,0.79281 -0.94062,0.7525 -0.9675,0.7525l-2.9025,0.215l-0.3225,2.795c-0.3225,2.98313 -1.51844,6.61125 -2.9025,9.46c-0.69875,1.42438 -1.41094,2.67406 -2.0425,3.5475c-0.63156,0.87344 -1.30344,1.35719 -0.9675,1.1825l-1.8275,0.9675v2.0425c0,4.98531 -0.20156,9.07031 0.3225,14.835v0.43l0.215,0.43c1.96188,5.28094 6.50375,8.57313 11.5025,11.0725c4.99875,2.49938 10.73656,4.34031 16.125,6.665c4.60906,1.98875 8.82844,4.35375 12.255,7.31c0.01344,0.01344 -0.01344,0.09406 0,0.1075c0.16125,0.16125 0.34938,0.30906 0.5375,0.43c0.215,0.25531 0.47031,0.47031 0.7525,0.645c0.01344,0.01344 0.09406,-0.01344 0.1075,0c0.1075,0.1075 0.215,0.215 0.3225,0.3225c2.9025,2.94281 4.73,6.83969 5.6975,11.7175h-122.12c0.9675,-4.86437 2.78156,-8.77469 5.6975,-11.7175c3.66844,-3.70875 8.66719,-6.49031 14.0825,-8.815c5.41531,-2.32469 11.11281,-4.16562 16.125,-6.665c5.01219,-2.49937 9.64813,-5.79156 11.61,-11.0725l0.215,-0.86c0.52406,-5.76469 0.3225,-9.84969 0.3225,-14.835v-2.0425l-1.8275,-0.9675c0.30906,0.16125 -0.43,-0.30906 -1.075,-1.1825c-0.645,-0.87344 -1.43781,-2.12312 -2.15,-3.5475c-1.42437,-2.84875 -2.59344,-6.51719 -2.9025,-9.46l-0.3225,-2.795l-2.9025,-0.215c-0.02687,0 -0.34937,0.04031 -0.9675,-0.7525c-0.61812,-0.79281 -1.42437,-2.53969 -1.8275,-5.9125c-0.33594,-2.86219 1.11531,-3.85656 0.9675,-3.7625l2.2575,-1.3975l-0.645,-2.4725c-3.23844,-12.47 -3.80281,-23.79781 -0.43,-31.4975c3.35938,-7.67281 10.2125,-12.49687 24.51,-12.7925zM113.1975,25.4775c0.04031,0 0.06719,0 0.1075,0c5.72438,0.02688 9.29875,1.72 10.2125,3.3325l0.86,1.3975l1.6125,0.3225c3.91031,0.5375 6.08719,1.94844 7.6325,4.085c1.54531,2.13656 2.41875,5.18688 2.6875,8.6c0.5375,6.82625 -1.45125,14.95594 -2.6875,18.705l-0.86,2.58l2.365,1.3975c-0.30906,-0.18812 0.91375,0.47031 0.645,2.6875c-0.33594,2.78156 -1.06156,4.16563 -1.505,4.73c-0.44344,0.56438 -0.55094,0.44344 -0.43,0.43l-2.9025,0.215l-0.215,2.795c-0.25531,2.41875 -1.33031,5.38844 -2.4725,7.74c-0.57781,1.16906 -1.10187,2.20375 -1.6125,2.9025c-0.30906,0.41656 -0.52406,0.72563 -0.645,0.86h-0.1075c-0.01344,0.01344 0,0.1075 0,0.1075l-1.8275,0.86v2.0425c0,4.17906 -0.12094,7.68625 0.3225,12.5775v0.43l0.215,0.43c1.73344,4.63594 5.73781,7.43094 9.9975,9.5675c4.25969,2.13656 9.03,3.74906 13.545,5.6975c4.515,1.94844 8.61344,4.16563 11.61,7.2025c2.2575,2.29781 3.66844,5.34813 4.515,9.03h-37.41c-4.23281,-3.58781 -9.12406,-6.07375 -13.975,-8.17c-5.72437,-2.4725 -11.34125,-4.48812 -15.695,-6.665c-4.17906,-2.09625 -6.81281,-4.21937 -7.955,-6.88c-0.37625,-4.52844 -0.34937,-8.07594 -0.3225,-12.3625c0.44344,-0.48375 1.08844,-0.81969 1.505,-1.3975c0.94063,-1.30344 1.84094,-2.88906 2.6875,-4.6225c1.46469,-3.01 2.52625,-6.62469 3.1175,-10.2125c1.075,-0.56437 2.23063,-0.69875 3.1175,-1.8275c1.65281,-2.10969 2.82188,-5.11969 3.3325,-9.3525c0.45688,-3.7625 -0.80625,-6.24844 -2.365,-8.17c1.67969,-5.45562 3.82969,-14.27062 3.1175,-23.3275c-0.38969,-4.945 -1.65281,-9.87656 -4.6225,-13.975c-0.01344,-0.02687 0.01344,-0.08062 0,-0.1075c3.23844,-2.15 7.8475,-3.52062 14.405,-3.655z"></path></g></g></svg>