<svg xmlns="http://www.w3.org/2000/svg" x="0px" y="0px"
width="65" height="65"
viewBox="0 0 172 172"><g fill-rule="nonzero" stroke="none" stroke-width="1" stroke-linecap="butt" stroke-linejoin="miter" stroke-miterlimit="10" stroke-dasharray="" stroke-dashoffset="0" font-family="none" font-weight="none" font-size="none" text-anchor="none" style="mix-blend-mode: normal"><path d="M0,172v-172h172v172z" fill="none"></path><g><path d="M86,6.88c-43.62608,0 -79.12,35.49392 -79.12,79.12c0,43.62608 35.49392,79.12 79.12,79.12c43.62608,0 79.12,-35.49392 79.12,-79.12c0,-15.81368 -4.67963,-30.54898 -12.70515,-42.9261l-3.07047,3.07047l-2.01562,2.01563h-2.84875h-6.04687l-9.39953,9.39953c5.40424,8.15624 8.5664,17.92439 8.5664,28.44047c0,28.49696 -23.10304,51.6 -51.6,51.6c-28.49696,0 -51.6,-23.10304 -51.6,-51.6c0,-28.49696 23.10304,-51.6 51.6,-51.6c10.51608,0 20.28423,3.16216 28.44047,8.5664l9.39953,-9.39953v-6.04687v-2.84875l2.01563,-2.01562l3.05703,-3.05703c-12.37024,-8.02896 -27.09897,-12.71859 -42.91265,-12.71859zM147.92,10.32l-17.2,17.2v8.89563l-47.15219,47.15219c-0.89867,0.86281 -1.26068,2.14404 -0.94641,3.34956c0.31427,1.20552 1.2557,2.14696 2.46122,2.46122c1.20552,0.31427 2.48675,-0.04774 3.34956,-0.94641l47.15219,-47.15219h8.89563l17.2,-17.2h-13.76zM86,55.04c-17.06928,0 -30.96,13.89072 -30.96,30.96c0,17.06928 13.89072,30.96 30.96,30.96c17.06928,0 30.96,-13.89072 30.96,-30.96c0,-4.77128 -1.11703,-9.27129 -3.05031,-13.30985l-20.61312,20.60641c-1.94704,1.95048 -4.54112,3.02344 -7.29656,3.02344c-2.75544,0 -5.34952,-1.07296 -7.29656,-3.02344c-1.95048,-1.94704 -3.02344,-4.54112 -3.02344,-7.29656c0,-2.75544 1.07296,-5.34952 3.02344,-7.29656l20.61313,-20.61312c-4.03512,-1.9436 -8.54528,-3.05031 -13.31656,-3.05031z"></path></g></g></svg>