<svg id="flat" height="512" viewBox="0 0 512 512" width="512" xmlns="http://www.w3.org/2000/svg"><path d="m400 200h32v48h-32z" fill="#878784"/><path d="m400 200v16a32 32 0 0 1 32 32v-48z" fill="#666"/><path d="m392 168h48v40h-48z" fill="#b7b2a5"/><path d="m392 176a55.966 55.966 0 0 1 48 27.148v-35.148h-48z" fill="#999488"/><path d="m320 152h176v16h-176z" fill="#3f484f"/><path d="m320 120h176v16h-176z" fill="#3f484f"/><rect fill="#ffa511" height="64" rx="32" width="112" x="360" y="112"/><path d="m376 168c-1.768 0-3.525-.043-5.278-.106a31.879 31.879 0 0 0 21.278 8.106h48a32 32 0 0 0 32-32 31.937 31.937 0 0 0 -1.931-10.972 143.439 143.439 0 0 1 -94.069 34.972z" fill="#f08015"/><path d="m16 152h32v16h-32z" fill="#3f484f"/><path d="m16 120h32v16h-32z" fill="#3f484f"/><rect fill="#ffdc13" height="16" rx="8" width="16" x="384" y="136"/><rect fill="#ffdc13" height="16" rx="8" width="16" x="432" y="136"/><path d="m394.343 309.657-24-24a8 8 0 0 1 0-11.314l32-32 11.314 11.314-26.344 26.343 18.344 18.343z" fill="#b7b2a5"/><path d="m437.657 309.657-11.314-11.314 18.344-18.343-26.344-26.343 11.314-11.314 32 32a8 8 0 0 1 0 11.314z" fill="#b7b2a5"/><rect fill="#d1cfc3" height="240" rx="80" width="288" x="40" y="24"/><rect fill="#26bfb0" height="208" rx="64" width="256" x="56" y="40"/><path d="m283.341 50.646a344.864 344.864 0 0 1 -211.274 175.741 63.831 63.831 0 0 0 47.933 21.613h128a64 64 0 0 0 64-64v-80a63.934 63.934 0 0 0 -28.659-53.354z" fill="#1c998a"/><path d="m275.958 125.33a23.886 23.886 0 0 0 4.042-13.33 24 24 0 0 0 -40-17.889v-6.111a32 32 0 0 0 -32-32 31.981 31.981 0 0 0 -27.422 15.5 31.861 31.861 0 0 0 -20.578-7.5 32 32 0 0 0 -32 32 32 32 0 0 0 -32 32v9.014a32.005 32.005 0 0 0 -24 30.986v.018a31.983 31.983 0 0 0 31.983 31.982h112.017l-8 32h24l16-32h8a40 40 0 0 0 40-40 39.98 39.98 0 0 0 -20.042-34.67z" fill="#ff5086"/><path d="m275.958 125.33a24 24 0 0 0 -14.876-36.786 345.594 345.594 0 0 1 -124.008 111.456h78.926l-8 32h24l16-32h8a40 40 0 0 0 19.958-74.67z" fill="#e03f81"/><path d="m286.167 122.662a32.005 32.005 0 0 0 -38.75-41.493 39.973 39.973 0 0 0 -68.612-20.469 40 40 0 0 0 -58.133 27.975 40.067 40.067 0 0 0 -32.672 39.325v3.333a40.005 40.005 0 0 0 15.983 76.667h101.771l-5.515 22.06a8 8 0 0 0 7.761 9.94h24a8 8 0 0 0 7.155-4.422l13.789-27.578h3.056a48 48 0 0 0 30.167-85.338zm-30.167 69.338h-8a8 8 0 0 0 -7.155 4.422l-13.789 27.578h-8.81l5.515-22.06a8 8 0 0 0 -7.761-9.94h-112.018a24 24 0 1 1 .027-47.994h.007a23.967 23.967 0 0 1 11.979 3.2l8.01-13.85a39.983 39.983 0 0 0 -20-5.352v-.004a24.027 24.027 0 0 1 24-24 8 8 0 0 0 8-8 24 24 0 0 1 34.4-21.631 39.8 39.8 0 0 0 -2.405 13.631h16a24 24 0 0 1 48 0v6.11a8 8 0 0 0 13.335 5.962 16 16 0 1 1 10.665 27.928v16a31.856 31.856 0 0 0 21.142-8.009 31.992 31.992 0 0 1 -21.142 56.009z" fill="#d30275"/><path d="m24 456v16a16 16 0 0 0 16 16h448v-32z" fill="#878784"/><path d="m136 168v-16a24.027 24.027 0 0 0 24-24h16a40.045 40.045 0 0 1 -40 40z" fill="#d30275"/><path d="m286.167 122.662a31.984 31.984 0 0 0 -20.451-41.15q-4.734 7.377-9.827 14.493h.111a16 16 0 0 1 0 32v16a31.856 31.856 0 0 0 21.142-8.009 31.992 31.992 0 0 1 -21.142 56.004h-8a8 8 0 0 0 -7.155 4.422l-13.789 27.578h-8.81l5.515-22.06a8 8 0 0 0 -7.761-9.94h-64.707q-14.7 8.721-30.3 16h84.757l-5.515 22.06a8 8 0 0 0 7.765 9.94h24a8 8 0 0 0 7.155-4.422l13.789-27.578h3.056a48 48 0 0 0 30.167-85.338z" fill="#b2046b"/><path d="m176 208v-16a24.027 24.027 0 0 0 24-24h16a40.045 40.045 0 0 1 -40 40z" fill="#b2046b"/><path d="m232 144h-16a24.027 24.027 0 0 0 -24-24v-16a40.045 40.045 0 0 1 40 40z" fill="#d30275"/><path d="m24 352v120a16 16 0 0 1 16-16h448v-120h-448a16 16 0 0 0 -16 16z" fill="#666"/><path d="m192 336h16v120h-16z" fill="#3f484f"/><path d="m336 336h16v120h-16z" fill="#3f484f"/><path d="m232 368h80v56h-80z" fill="#9e6e4d"/><path d="m232 320h80v72h-80z" fill="#cba677"/><path d="m376 368h80v56h-80z" fill="#9e6e4d"/><path d="m88 368h80v56h-80z" fill="#9e6e4d"/><path d="m88 320h80v72h-80z" fill="#cba677"/><path d="m48 336h16v120h-16z" fill="#3f484f"/><g fill="#ededeb"><rect height="16" rx="8" width="16" x="64" y="464"/><rect height="16" rx="8" width="16" x="112" y="464"/><rect height="16" rx="8" width="16" x="160" y="464"/><rect height="16" rx="8" width="16" x="208" y="464"/><rect height="16" rx="8" width="16" x="256" y="464"/><rect height="16" rx="8" width="16" x="304" y="464"/><rect height="16" rx="8" width="16" x="352" y="464"/><rect height="16" rx="8" width="16" x="400" y="464"/><rect height="16" rx="8" width="16" x="448" y="464"/></g><path d="m480 336h8v120h-8z" fill="#3f484f"/><path d="m215.945 142.453c.033.512.055 1.027.055 1.547h16a39.77 39.77 0 0 0 -2.939-15.025q-6.373 6.918-13.116 13.478z" fill="#b2046b"/><circle cx="416" cy="248" fill="#ffa511" r="16"/><path d="m422.575 233.425a15.979 15.979 0 0 1 -21.15 21.15 15.993 15.993 0 1 0 21.15-21.15z" fill="#f08015"/><path d="m376 320h80v72h-80z" fill="#cba677"/><path d="m456 344v-24h-80v66.926a95.905 95.905 0 0 1 80-42.926z" fill="#bb9063"/><path d="m400 304h32v56h-32z" fill="#3f484f"/><path d="m400 351.2v8.8h32v-48a40.011 40.011 0 0 1 -32 39.2z" fill="#2a3135"/><rect fill="#ededeb" height="8" rx="4" width="8" x="412" y="352"/><path d="m312 344v-24h-80v66.926a95.905 95.905 0 0 1 80-42.926z" fill="#bb9063"/><path d="m168 344v-24h-80v66.926a95.905 95.905 0 0 1 80-42.926z" fill="#bb9063"/></svg>