<svg height="480pt" viewBox="0 0 480 480" width="480pt" xmlns="http://www.w3.org/2000/svg"><path d="m168 432h144c26.511719 0 48 21.488281 48 48h-240c0-26.511719 21.488281-48 48-48zm0 0" fill="#bab8b9"/><path d="m288 448h-144c-4.648438 0-9.136719.695312-13.382812 1.929688-6.632813 8.230468-10.617188 18.679687-10.617188 30.070312h213.207031c-6.589843-18.632812-24.320312-32-45.207031-32zm0 0" fill="#d9d7d8"/><path d="m184 384h112v48h-112zm0 0" fill="#bab8b9"/><path d="m184 384h88v48h-88zm0 0" fill="#d9d7d8"/><path d="m80 112h-64c-8.839844 0-16 7.160156-16 16v240c0 8.839844 7.160156 16 16 16h448c8.839844 0 16-7.160156 16-16v-240c0-8.839844-7.160156-16-16-16h-64" fill="#85b6cf"/><path d="m448 368v-240c0-8.839844-7.160156-16-16-16h-416c-8.839844 0-16 7.160156-16 16v240c0 8.839844 7.160156 16 16 16h416c8.839844 0 16-7.160156 16-16zm0 0" fill="#94cce7"/><path d="m80 16h320v240h-320zm0 0" fill="#eebc5a"/><path d="m224 224v32c0 8.839844 7.160156 16 16 16s16-7.160156 16-16v-32" fill="#bc8f6f"/><path d="m112 192v32h256v-32" fill="#bab8b9"/><path d="m240 208-1.945312-1.945312c-9-9-21.207032-14.054688-33.933594-14.054688h-92.121094v-192h92.121094c12.726562 0 24.933594 5.054688 33.941406 14.054688l1.9375 1.945312 1.945312-1.945312c9-9 21.207032-14.054688 33.933594-14.054688h92.121094v192h-92.121094c-12.726562 0-24.933594 5.054688-33.941406 14.054688zm0 0" fill="#d9d7d8"/><path d="m144 32h32v32h-32zm0 0" fill="#599072"/><path d="m304 128h32v32h-32zm0 0" fill="#599072"/><g fill="#bab8b9"><path d="m232 24h16v160h-16zm0 0"/><path d="m240 120c-2.128906 0-4.167969-.839844-5.664062-2.34375l-1.9375-1.945312c-7.558594-7.550782-17.597657-11.710938-28.277344-11.710938h-68.121094v-16h68.121094c13.261718 0 25.832031 4.585938 35.878906 13 10.0625-8.414062 22.625-13 35.878906-13h68.121094v16h-68.121094c-10.679687 0-20.726562 4.160156-28.285156 11.71875l-1.929688 1.9375c-1.496093 1.503906-3.535156 2.34375-5.664062 2.34375zm0 0"/><path d="m136 120h64v16h-64zm0 0"/><path d="m136 152h64v16h-64zm0 0"/><path d="m280 56h64v16h-64zm0 0"/><path d="m280 24h64v16h-64zm0 0"/></g><path d="m136 312h208v16h-208zm0 0" fill="#85b6cf"/><path d="m144 320c0 17.671875-14.328125 32-32 32s-32-14.328125-32-32 14.328125-32 32-32 32 14.328125 32 32zm0 0" fill="#d46b69"/><path d="m400 320c0 17.671875-14.328125 32-32 32s-32-14.328125-32-32 14.328125-32 32-32 32 14.328125 32 32zm0 0" fill="#d46b69"/><path d="m128 320c0-17.050781-10.746094-30.871094-24-30.871094s-24 13.820313-24 30.871094 10.746094 30.871094 24 30.871094 24-13.820313 24-30.871094zm0 0" fill="#ed7775"/><path d="m384 320c0-17.050781-10.746094-30.871094-24-30.871094s-24 13.820313-24 30.871094 10.746094 30.871094 24 30.871094 24-13.820313 24-30.871094zm0 0" fill="#ed7775"/></svg>