<?xml version="1.0" encoding="utf-8"?>
<!-- Generator: Adobe Illustrator 23.0.2, SVG Export Plug-In . SVG Version: 6.00 Build 0)  -->
<svg version="1.1" id="Layer_1_1_" xmlns="http://www.w3.org/2000/svg" xmlns:xlink="http://www.w3.org/1999/xlink" x="0px" y="0px"
	 viewBox="0 0 512 512" style="enable-background:new 0 0 512 512;" xml:space="preserve">
<style type="text/css">
	.st0{fill:#3098C6;}
	.st1{fill:#FFA511;}
	.st2{opacity:0.58;fill:#3098C6;}
	.st3{fill:#26BFB0;}
	.st4{fill:#EDEDEB;}
	.st5{fill:#CECECC;}
	.st6{fill:#FCCCA7;}
	.st7{fill:#B7B2A5;}
	.st8{fill:#E0300E;}
	.st9{fill:#E5B391;}
	.st10{fill:#1C998A;}
	.st11{fill:#3F484F;}
	.st12{fill:#9E6E4D;}
	.st13{fill:#7E5138;}
	.st14{fill:#2A3135;}
	.st15{fill:#F08015;}
</style>
<g>
	<path class="st0" d="M472,336h-51.3l-32-32H304v-16h91.3l32,32H472V336z"/>
	<path class="st0" d="M472,408h-51.3l-64-64H304v-16h59.3l64,64H472V408z"/>
	<path class="st0" d="M472,480h-43.3l-96-96H304v-16h35.3l96,96H472V480z"/>
	<path class="st0" d="M395.3,224H304v-16h84.7l32-32H472v16h-44.7L395.3,224z"/>
	<path class="st0" d="M363.3,184H304v-16h52.7l64-64H472v16h-44.7L363.3,184z"/>
	<path class="st0" d="M339.3,144H304v-16h28.7l96-96H472v16h-36.7L339.3,144z"/>
	<path class="st0" d="M304,248h168v16H304V248z"/>
	<path class="st0" d="M48,144h144v16H48V144z"/>
	<path class="st0" d="M43.4,54.5l9.4-13l144.1,104.1l-9.4,13L43.4,54.5z"/>
	<path class="st0" d="M43.4,158.5l9.4-13l144.1,104.1l-9.4,13L43.4,158.5z"/>
	<path class="st0" d="M43.5,353.6l144.1-104.1l9.4,13L52.8,366.6L43.5,353.6z"/>
	<path class="st0" d="M43.4,262.6l9.4-13l144.1,104.1l-9.4,13L43.4,262.6z"/>
	<path class="st0" d="M48,352h144v16H48V352z"/>
	<path class="st0" d="M48,248h144v16H48V248z"/>
	<path class="st0" d="M51.3,457.6l135.9-104.1l9.7,12.7L61,470.3L51.3,457.6z"/>
	<path class="st0" d="M43.4,249.6l144.1-104.1l9.4,13L52.8,262.5L43.4,249.6z"/>
</g>
<circle class="st1" cx="480" cy="256" r="16"/>
<circle class="st1" cx="480" cy="328" r="16"/>
<circle class="st1" cx="480" cy="400" r="16"/>
<circle class="st1" cx="480" cy="472" r="16"/>
<circle class="st1" cx="480" cy="184" r="16"/>
<circle class="st1" cx="480" cy="112" r="16"/>
<circle class="st1" cx="480" cy="40" r="16"/>
<circle class="st1" cx="48" cy="48" r="32"/>
<circle class="st1" cx="48" cy="152" r="32"/>
<circle class="st1" cx="48" cy="256" r="32"/>
<circle class="st1" cx="48" cy="360" r="32"/>
<circle class="st1" cx="48" cy="464" r="32"/>
<path class="st2" d="M216,144h72v16h-72V144z"/>
<path class="st2" d="M216,248h72v16h-72V248z"/>
<path class="st2" d="M216,352h72v16h-72V352z"/>
<path class="st3" d="M296,400c-8.8,0-16-7.2-16-16V120c0-8.8,7.2-16,16-16s16,7.2,16,16v264C312,392.8,304.8,400,296,400z"/>
<circle class="st3" cx="192" cy="152" r="32"/>
<circle class="st3" cx="192" cy="256" r="32"/>
<circle class="st3" cx="192" cy="360" r="32"/>
<path class="st2" d="M240,184h16v16h-16V184z"/>
<path class="st2" d="M240,216h16v16h-16V216z"/>
<path class="st2" d="M240,280h16v16h-16V280z"/>
<path class="st2" d="M240,312h16v16h-16V312z"/>
<path class="st4" d="M-155.8,136.7H-69l31.6,31.6v126.3h-118.4V136.7z"/>
<path class="st5" d="M-155.8,286.7v7.9h118.4v-99.3C-51.1,247.9-98.9,286.7-155.8,286.7z"/>
<path class="st6" d="M-270.3,231.5c17.4,0,31.6,14.1,31.6,31.6v11.3l11.8,28.1h-7.9v11.8l-7.9,3.9l7.9,3.9v7.9
	c0,4.4-3.5,7.9-7.9,7.9h-27.6V231.5z"/>
<path class="st7" d="M-69,168.3h31.6L-69,136.7V168.3z"/>
<path class="st8" d="M-211.6,347.9l-6.9-3.9c9-15.9,9-35.4,0-51.3l6.9-3.9C-201.2,307.1-201.2,329.5-211.6,347.9z"/>
<path class="st8" d="M-195.8,355.7l-6.9-3.8c11.6-20.9,11.6-46.3,0-67.2l6.9-3.8C-182.8,304.1-182.8,332.5-195.8,355.7L-195.8,355.7
	z"/>
<path class="st8" d="M-180,363.6l-6.9-3.8c14.2-25.9,14.2-57.2,0-83.1l6.9-3.8C-164.6,301.2-164.6,335.4-180,363.6z"/>
<g>
	<path class="st0" d="M-144,148.6h63.2v7.9H-144V148.6z"/>
	<path class="st0" d="M-144,164.4h63.2v7.9H-144V164.4z"/>
	<path class="st0" d="M-144,180.2h94.7v7.9H-144V180.2z"/>
	<path class="st0" d="M-144,195.9h94.7v7.9H-144V195.9z"/>
</g>
<path class="st9" d="M-235.2,282.7c-2.5,22.5-15.5,42.4-35.1,53.7v1.6h27.6c4.4,0,7.9-3.5,7.9-7.9v-7.9l-7.9-3.9l7.9-3.9v-11.8h7.9
	L-235.2,282.7z"/>
<circle class="st3" cx="-96.6" cy="318.3" r="47.4"/>
<path class="st10" d="M-78,274.8c15.3,21.2,10.6,50.8-10.6,66.2c-13.5,9.7-31.1,11.7-46.4,5.2c15.3,21.2,45,25.9,66.1,10.6
	c21.2-15.3,25.9-45,10.6-66.1C-63.3,283.6-70.1,278.1-78,274.8z"/>
<path class="st11" d="M-100.6,330.1h7.9v15.8h-7.9V330.1z"/>
<path class="st4" d="M-96.6,334.1c-13.1,0-23.7-10.6-23.7-23.7h7.9c0,8.7,7.1,15.8,15.8,15.8s15.8-7.1,15.8-15.8h7.9
	C-72.9,323.5-83.5,334.1-96.6,334.1z"/>
<path class="st12" d="M-116.3,342h39.5v7.9h-39.5V342z"/>
<path class="st13" d="M-116.3,349.9h39.5V342h-13.3C-97.9,347.2-107,349.9-116.3,349.9z"/>
<path class="st4" d="M-96.6,286.7L-96.6,286.7c4.4,0,7.9,3.5,7.9,7.9v15.8c0,4.4-3.5,7.9-7.9,7.9l0,0c-4.4,0-7.9-3.5-7.9-7.9v-15.8
	C-104.5,290.3-101,286.7-96.6,286.7z"/>
<path class="st5" d="M-96.6,286.7c-0.7,0-1.3,0.1-2,0.3c3.5,0.9,5.9,4,5.9,7.6v15.8c0,3.6-2.4,6.7-5.9,7.6c4.2,1.1,8.5-1.4,9.6-5.6
	c0.2-0.7,0.3-1.3,0.3-2v-15.8C-88.7,290.3-92.2,286.7-96.6,286.7z"/>
<path class="st11" d="M-104.5,302.5h15.8v7.9c0,4.4-3.5,7.9-7.9,7.9c-4.4,0-7.9-3.5-7.9-7.9V302.5z"/>
<path class="st14" d="M-92.7,302.5v3.9c0,4.4-3.5,7.9-7.9,7.9c-1.1,0-2.2-0.2-3.3-0.7c1.8,4,6.5,5.7,10.4,4c2.8-1.3,4.7-4.1,4.7-7.2
	v-7.9H-92.7z"/>
<path class="st1" d="M-104.5,255.2h15.8v-15.8h15.8l-23.7-23.7l-23.7,23.7h15.8V255.2z"/>
<path class="st15" d="M-85,227.2c-1.6,10.1-9.4,18-19.5,19.7v8.2h15.8v-15.8h15.8L-85,227.2z"/>
</svg>
