<svg height="491pt" viewBox="0 0 491 491.99878" width="491pt" xmlns="http://www.w3.org/2000/svg"><g fill="#0635c9"><path d="m191.554688 395.132812 19.886718-48.289062c1.261719-3.066406-.199218-6.574219-3.261718-7.835938-3.066407-1.261718-6.574219.199219-7.835938 3.261719l-19.890625 48.292969c-26.351563-7.414062-53.914063 7.011719-62.847656 32.890625-8.933594 25.875 3.863281 54.230469 29.179687 64.652344 25.3125 10.421875 54.363282-.703125 66.242188-25.367188 11.878906-24.667969 2.460937-54.316406-21.472656-67.605469zm11.597656 60.28125c-7.207032 17.503907-25.78125 27.476563-44.355469 23.820313-18.574219-3.652344-31.980469-19.921875-32.015625-38.851563-.039062-18.933593 13.300781-35.253906 31.859375-38.984374 18.5625-3.730469 37.171875 6.167968 44.453125 23.644531 4.074219 9.707031 4.097656 20.644531.058594 30.371093zm0 0"/><path d="m301.421875 96.859375-19.886719 48.289063c-1.261718 3.066406.199219 6.574218 3.261719 7.835937 3.066406 1.261719 6.574219-.199219 7.835937-3.261719l19.890626-48.292968c19.070312 5.371093 39.53125-.636719 52.675781-15.460938 13.140625-14.828125 16.648437-35.863281 9.03125-54.152344-8.707031-20.910156-30.015625-33.714844-52.5625-31.589844-22.550781 2.128907-41.089844 18.691407-45.730469 40.859376-4.644531 22.171874 5.691406 44.777343 25.492188 55.773437zm-11.597656-60.28125c7.207031-17.503906 25.78125-27.476563 44.355469-23.820313 18.574218 3.652344 31.980468 19.921876 32.015624 38.855469.039063 18.929688-13.300781 35.25-31.859374 38.980469-18.5625 3.730469-37.171876-6.167969-44.453126-23.644531-4.074218-9.707031-4.097656-20.644531-.058593-30.371094zm0 0"/><path d="m460.476562 278.234375c-24.246093-9.945313-52.101562-.199219-64.851562 22.695313l-48.289062-19.886719c-3.066407-1.261719-6.574219.199219-7.835938 3.265625-1.261719 3.0625.199219 6.570312 3.261719 7.832031l48.289062 19.890625c-7.515625 26.722656 7.421875 54.613281 33.835938 63.160156 26.410156 8.550782 54.859375-5.296875 64.425781-31.355468 9.566406-26.0625-3.167969-55.023438-28.835938-65.597657zm17.007813 62.902344c-7.207031 17.503906-25.78125 27.480469-44.355469 23.824219-18.574218-3.65625-31.980468-19.925782-32.019531-38.859376-.039063-18.929687 13.300781-35.253906 31.863281-38.984374 18.5625-3.730469 37.171875 6.171874 44.453125 23.648437 4.074219 9.707031 4.097657 20.644531.0625 30.371094zm0 0"/><path d="m32.5 213.757812c24.246094 9.984376 52.128906.230469 64.867188-22.691406l48.273437 19.882813c3.066406 1.261719 6.574219-.199219 7.835937-3.261719 1.261719-3.066406-.199218-6.574219-3.261718-7.835938l-48.289063-19.886718c7.515625-26.722656-7.421875-54.613282-33.835937-63.160156-26.410156-8.550782-54.859375 5.296874-64.425782 31.355468-9.566406 26.0625 3.167969 55.027344 28.835938 65.597656zm-17.011719-62.902343c7.210938-17.507813 25.78125-27.480469 44.355469-23.824219 18.578125 3.65625 31.984375 19.925781 32.023438 38.855469.035156 18.933593-13.304688 35.257812-31.863282 38.988281-18.5625 3.730469-37.175781-6.171875-44.453125-23.648438-4.078125-9.707031-4.097656-20.644531-.0625-30.371093zm0 0"/><path d="m313.097656 390.296875-20.082031-48.210937c-.796875-2.019532-2.621094-3.449219-4.773437-3.742188-2.148438-.292969-4.289063.597656-5.597657 2.332031-1.304687 1.730469-1.578125 4.03125-.707031 6.019531l20.082031 48.210938c-23.875 13.390625-33.167969 43.074219-21.1875 67.691406 11.976563 24.613282 41.074219 35.617188 66.34375 25.089844 25.269531-10.53125 37.945313-38.9375 28.902344-64.773438-9.039063-25.839843-36.660156-40.148437-62.980469-32.625zm50.890625 64.800781c-7.210937 17.503906-25.78125 27.476563-44.355469 23.820313-18.578124-3.652344-31.984374-19.921875-32.019531-38.855469-.039062-18.929688 13.300781-35.253906 31.859375-38.984375 18.5625-3.730469 37.171875 6.171875 44.453125 23.644531 4.078125 9.710938 4.097657 20.648438.0625 30.375zm0 0"/><path d="m165.75 103.695312c4.78125-.003906 9.535156-.675781 14.128906-2l20.082032 48.210938c.792968 2.019531 2.621093 3.457031 4.773437 3.75 2.148437.292969 4.292969-.597656 5.601563-2.332031 1.308593-1.734375 1.578124-4.039063.703124-6.027344l-20.082031-48.210937c22.664063-12.722657 32.347657-40.304688 22.605469-64.402344-9.738281-24.097656-35.863281-37.207032-61.003906-30.613282-25.140625 6.597657-41.46875 30.84375-38.121094 56.621094 3.34375 25.773438 25.320312 45.050782 51.3125 45.007813zm-36.761719-66.792968c7.210938-17.507813 25.78125-27.480469 44.355469-23.824219s31.980469 19.925781 32.019531 38.855469c.039063 18.933594-13.300781 35.253906-31.863281 38.984375-18.558594 3.730469-37.171875-6.167969-44.449219-23.644531-4.078125-9.710938-4.097656-20.644532-.0625-30.371094zm0 0"/><path d="m342.578125 199.46875c-2.019531.796875-3.449219 2.621094-3.742187 4.773438-.292969 2.148437.597656 4.289062 2.332031 5.597656 1.730469 1.304687 4.03125 1.578125 6.019531.707031l48.199219-20.078125c13.375 23.925781 43.082031 33.273438 67.742187 21.3125 24.664063-11.960938 35.71875-41.078125 25.210938-66.390625-10.507813-25.3125-38.933594-38.042969-64.8125-29.023437-25.882813 9.019531-40.242188 36.660156-32.738282 63.019531zm82.632813-70.910156c20.230468-8.429688 43.464843 1.140625 51.890624 21.371094 8.429688 20.230468-1.140624 43.464843-21.371093 51.890624-20.230469 8.429688-43.464844-1.140624-51.890625-21.371093-4.121094-9.707031-4.175782-20.660157-.160156-30.414063 4.015624-9.75 11.769531-17.484375 21.53125-21.476562zm0 0"/><path d="m150.398438 292.523438c2.019531-.796876 3.449218-2.621094 3.742187-4.769532.292969-2.152344-.597656-4.292968-2.332031-5.601562-1.730469-1.304688-4.03125-1.578125-6.019532-.707032l-48.210937 20.082032c-13.386719-23.878906-43.074219-33.175782-67.695313-21.195313-24.617187 11.976563-35.621093 41.074219-25.09375 66.347657 10.527344 25.269531 38.933594 37.949218 64.773438 28.910156 25.84375-9.039063 40.152344-36.660156 32.628906-62.984375zm-82.632813 70.910156c-20.230469 8.429687-43.464844-1.140625-51.890625-21.371094-8.429688-20.230469 1.140625-43.464844 21.371094-51.890625 20.230468-8.429687 43.464844 1.140625 51.890625 21.371094 4.121093 9.707031 4.175781 20.660156.160156 30.414062-4.015625 9.75-11.769531 17.484375-21.53125 21.476563zm0 0"/></g><path d="m336.988281 256.195312c-10.640625-4.390624-22.90625-.941406-29.699219 8.351563l-45.113281-18.578125 45.039063-18.761719c7.53125 10.148438 21.453125 13.078125 32.4375 6.824219 10.984375-6.25 15.574218-19.714844 10.699218-31.375-4.878906-11.660156-17.691406-17.84375-29.855468-14.410156-12.160156 3.429687-19.851563 15.402344-17.914063 27.890625l-45.019531 18.753906 18.570312-45.085937c1.226563.1875 2.46875.28125 3.710938.28125 12.378906.046874 22.953125-8.917969 24.9375-21.136719s-5.207031-24.066407-16.964844-27.941407c-11.757812-3.875-24.585937 1.375-30.257812 12.378907-5.667969 11.003906-2.496094 24.496093 7.484375 31.820312l-18.578125 45.113281-18.761719-45.039062c10.105469-7.515625 13.015625-21.390625 6.78125-32.335938-6.234375-10.945312-19.65625-15.515624-31.277344-10.652343-11.621093 4.859375-17.785156 17.628906-14.367187 29.753906 3.417968 12.121094 15.34375 19.789063 27.792968 17.867187l18.753907 45.019532-45.085938-18.570313c1.941407-12.597656-5.832031-24.664062-18.109375-28.101562-12.277344-3.441407-25.1875 2.832031-30.074218 14.605469-4.886719 11.777343-.207032 25.34375 10.894531 31.609374 11.105469 6.261719 25.136719 3.246094 32.6875-7.027343l45.113281 18.582031-45.039062 18.761719c-7.53125-10.148438-21.453126-13.078125-32.4375-6.828125-10.984376 6.25-15.574219 19.71875-10.699219 31.375 4.878906 11.660156 17.691406 17.847656 29.851562 14.414062 12.164063-3.433594 19.855469-15.402344 17.917969-27.890625l45.019531-18.753906-18.570312 45.085937c-12.601563-1.941406-24.667969 5.832032-28.105469 18.109376-3.4375 12.277343 2.832031 25.1875 14.605469 30.074218 11.777343 4.886719 25.347656.207032 31.609375-10.894531 6.261718-11.105469 3.246094-25.136719-7.027344-32.6875l18.582031-45.113281 18.761719 45.039062c-10.148438 7.53125-13.078125 21.453125-6.828125 32.4375 6.253906 10.984375 19.71875 15.574219 31.378906 10.699219 11.65625-4.878906 17.84375-17.691406 14.410157-29.855469-3.429688-12.160156-15.402344-19.851562-27.890626-17.914062l-18.753906-45.019532 45.085938 18.570313c-1.929688 12.898437 6.367187 25.121094 19.070312 28.089844 12.703125 2.964843 25.554688-4.320313 29.535156-16.742188 3.984376-12.421875-2.238281-25.820312-14.300781-30.792969zm-21.722656-48.828124c2.371094-5.75 8.46875-9.027344 14.570313-7.828126 6.101562 1.203126 10.507812 6.546876 10.519531 12.765626s-4.371094 11.578124-10.46875 12.804687c-6.09375 1.226563-12.207031-2.027344-14.597657-7.765625-1.34375-3.191406-1.351562-6.785156-.027343-9.980469zm-47.480469-47.292969c2.742188-6.65625 10.359375-9.832031 17.015625-7.089844s9.832031 10.359375 7.089844 17.019531c-2.742187 6.65625-10.359375 9.828125-17.015625 7.085938-6.652344-2.746094-9.824219-10.359375-7.09375-17.019532zm-59.925781 17.152343c-5.75-2.371093-9.027344-8.46875-7.824219-14.570312 1.199219-6.101562 6.542969-10.507812 12.761719-10.519531s11.582031 4.371093 12.808594 10.46875c1.222656 6.09375-2.027344 12.207031-7.769531 14.601562-3.191407 1.335938-6.785157 1.34375-9.980469.015625zm-47.289063 47.480469c-6.65625-2.742187-9.832031-10.359375-7.089843-17.015625 2.742187-6.65625 10.359375-9.832031 17.015625-7.089844 6.65625 2.742188 9.832031 10.359376 7.089844 17.015626-2.75 6.652343-10.363282 9.824218-17.023438 7.085937zm17.148438 59.925781c-2.367188 5.75-8.46875 9.027344-14.570312 7.824219-6.101563-1.199219-10.503907-6.542969-10.515626-12.761719-.015624-6.21875 4.367188-11.582031 10.464844-12.804687 6.097656-1.226563 12.210938 2.023437 14.601563 7.765625 1.335937 3.1875 1.339843 6.78125.015625 9.972656zm47.484375 47.289063c-2.742187 6.65625-10.359375 9.832031-17.015625 7.089844-6.65625-2.742188-9.832031-10.359375-7.089844-17.015625 2.742188-6.65625 10.359375-9.828125 17.015625-7.089844 6.644531 2.753906 9.8125 10.359375 7.082031 17.015625zm59.921875-17.148437c6.152344 2.550781 9.367188 9.355468 7.429688 15.726562-1.9375 6.375-8.390626 10.238281-14.921876 8.9375-6.535156-1.300781-11.015624-7.34375-10.359374-13.972656.652343-6.628906 6.226562-11.679688 12.890624-11.679688 1.699219 0 3.386719.332032 4.957032.984375zm54.382812-30.464844c-2.742187 6.65625-10.363281 9.828125-17.019531 7.089844-6.65625-2.742188-9.828125-10.363282-7.085937-17.019532 2.738281-6.65625 10.359375-9.828125 17.015625-7.085937 3.210937 1.296875 5.765625 3.828125 7.097656 7.023437 1.332031 3.199219 1.324219 6.796875-.015625 9.988282zm0 0" fill="#1ae5be"/></svg>