<svg id="flat" height="512" viewBox="0 0 512 512" width="512" xmlns="http://www.w3.org/2000/svg"><g fill="#3f484f"><path d="m64 160h56v16h-56z"/><path d="m146.642 86.681-45.579-38.681h-37.063v-16h40a8 8 0 0 1 5.176 1.9l47.818 40.581z"/><path d="m125.474 129.006-46.88-17.006h-30.594v-16h32a8 8 0 0 1 2.728.479l48.2 17.486z"/><path d="m392 160h56v16h-56z"/><path d="m365.358 86.681-10.352-12.2 47.818-40.581a8 8 0 0 1 5.176-1.9h40v16h-37.063z"/><path d="m386.526 129.006-5.456-15.041 48.2-17.486a8 8 0 0 1 2.73-.479h32v16h-30.594z"/></g><circle cx="56" cy="40" fill="#ffa511" r="16"/><circle cx="40" cy="104" fill="#ffa511" r="16"/><circle cx="56" cy="168" fill="#ffa511" r="16"/><circle cx="456" cy="40" fill="#ffa511" r="16"/><circle cx="472" cy="104" fill="#ffa511" r="16"/><circle cx="456" cy="168" fill="#ffa511" r="16"/><path d="m462.575 153.425a15.979 15.979 0 0 1 -21.15 21.15 15.993 15.993 0 1 0 21.15-21.15z" fill="#f08015"/><path d="m478.575 89.425a15.979 15.979 0 0 1 -21.15 21.15 15.993 15.993 0 1 0 21.15-21.15z" fill="#f08015"/><path d="m462.575 25.425a15.979 15.979 0 0 1 -21.15 21.15 15.993 15.993 0 1 0 21.15-21.15z" fill="#f08015"/><path d="m46.575 89.425a15.979 15.979 0 0 1 -21.15 21.15 15.993 15.993 0 1 0 21.15-21.15z" fill="#f08015"/><path d="m62.575 25.425a15.979 15.979 0 0 1 -21.15 21.15 15.993 15.993 0 1 0 21.15-21.15z" fill="#f08015"/><path d="m62.575 153.425a15.979 15.979 0 0 1 -21.15 21.15 15.993 15.993 0 1 0 21.15-21.15z" fill="#f08015"/><path d="m400 168a144 144 0 0 0 -142.213-143.989c-78.979-.961-144.473 62.6-145.767 141.573a145.065 145.065 0 0 0 1.98 26.416l142 8 142-8a144.911 144.911 0 0 0 2-24z" fill="#26bfb0"/><path d="m257.787 24.011c-4.626-.056-9.2.117-13.728.494a144.072 144.072 0 0 1 129.941 167.495l2 8 22-8a144.067 144.067 0 0 0 -140.213-167.989z" fill="#1c998a"/><path d="m208 456 32 32h32l32-32-48-8z" fill="#b7b2a5"/><path d="m208 456 .2.2a175 175 0 0 1 74.949 20.652l20.851-20.852-48-8z" fill="#999488"/><path d="m208 424v32h96v-32l-48-8z" fill="#878784"/><path d="m301.205 456h2.795v-40h-96v8.189a175.074 175.074 0 0 1 93.205 31.811z" fill="#70706f"/><path d="m208 384h96v40h-96z" fill="#b7b2a5"/><path d="m301.205 424h2.795v-40h-96v8.189a175.074 175.074 0 0 1 93.205 31.811z" fill="#999488"/><path d="m343.181 128.819a31.993 31.993 0 0 0 -39.773-23.643 39.991 39.991 0 0 0 -73.2-14.569 40 40 0 0 0 -54.208 37.393 32 32 0 0 0 0 64h160a32 32 0 0 0 7.181-63.181z" fill="#ff5086"/><path d="m216 152v-16a24.027 24.027 0 0 0 24-24h16a40.045 40.045 0 0 1 -40 40z" fill="#d30275"/><path d="m320 168a40.045 40.045 0 0 1 -40-40h16a24.027 24.027 0 0 0 24 24z" fill="#d30275"/><path d="m176 200v-16a16.019 16.019 0 0 0 16-16h16a32.036 32.036 0 0 1 -32 32z" fill="#d30275"/><path d="m336 200h-160a40 40 0 0 1 -7.445-79.306 48.024 48.024 0 0 1 58.551-39.4 48.007 48.007 0 0 1 82.194 14.798q1.347-.092 2.7-.092a39.766 39.766 0 0 1 37.618 26.382 40 40 0 0 1 -13.618 77.618zm-120-104a32.036 32.036 0 0 0 -32 32 8 8 0 0 1 -8 8 24 24 0 0 0 0 48h160a24 24 0 0 0 5.392-47.383 8 8 0 0 1 -6.008-6.009 24 24 0 0 0 -29.832-17.725 8 8 0 0 1 -10.028-6.352 31.991 31.991 0 0 0 -58.56-11.638 8 8 0 0 1 -9.6 3.191 31.883 31.883 0 0 0 -11.364-2.084z" fill="#d30275"/><path d="m343.181 128.819a32.042 32.042 0 0 0 -23.7-23.933 271.431 271.431 0 0 1 -157.492 83.886 31.86 31.86 0 0 0 14.011 3.228h160a32 32 0 0 0 7.181-63.181z" fill="#e03f81"/><path d="m349.618 122.382a39.7 39.7 0 0 0 -24.2-24.095q-6.158 7.089-12.789 13.74a23.849 23.849 0 0 1 22.752 18.581 8 8 0 0 0 6.008 6.009 24 24 0 0 1 -5.389 47.383h-150.331a270.934 270.934 0 0 1 -35.684 6.347 39.819 39.819 0 0 0 26.015 9.653h160a40 40 0 0 0 13.618-77.618z" fill="#b2046b"/><path d="m296 128h-.749q-6.691 5.643-13.74 10.861a40.064 40.064 0 0 0 38.489 29.139v-16a24.027 24.027 0 0 1 -24-24z" fill="#b2046b"/><path d="m176 186.217v13.783a32.049 32.049 0 0 0 30.4-22.019 269.856 269.856 0 0 1 -30.4 8.236z" fill="#b2046b"/><path d="m288 200a40.045 40.045 0 0 1 -40-40h16a24.027 24.027 0 0 0 24 24z" fill="#b2046b"/><path d="m114 192a143.715 143.715 0 0 0 44.174 81.66 106.665 106.665 0 0 1 33.826 78.34v24a16 16 0 0 0 16 16h96a16 16 0 0 0 16-16v-24.333a107.962 107.962 0 0 1 34.507-78.643 143.694 143.694 0 0 0 43.493-81.024z" fill="#ededeb"/><path d="m374.416 192a143.8 143.8 0 0 1 -41.907 73.024 107.962 107.962 0 0 0 -34.509 78.643v24.333a16 16 0 0 1 -16 16h-87.842a15.98 15.98 0 0 0 13.842 8h96a16 16 0 0 0 16-16v-24.333a107.962 107.962 0 0 1 34.507-78.643 143.694 143.694 0 0 0 43.493-81.024z" fill="#cececc"/></svg>