<svg height="472pt" viewBox="0 0 472 472" width="472pt" xmlns="http://www.w3.org/2000/svg"><path d="m440 288c-4.417969 0-8-3.582031-8-8v-16c0-4.417969-3.582031-8-8-8h-52c-13.253906 0-24-10.746094-24-24s10.746094-24 24-24h52c4.417969 0 8-3.582031 8-8s-3.582031-8-8-8h-16c-13.253906 0-24-10.746094-24-24v-16c0-4.417969 3.582031-8 8-8s8 3.582031 8 8v16c0 4.417969 3.582031 8 8 8h16c13.253906 0 24 10.746094 24 24s-10.746094 24-24 24h-52c-4.417969 0-8 3.582031-8 8s3.582031 8 8 8h52c13.253906 0 24 10.746094 24 24v16c0 4.417969-3.582031 8-8 8zm0 0" fill="#006"/><path d="m56 208c-4.417969 0-8-3.582031-8-8v-96c0-4.417969-3.582031-8-8-8h-16c-13.253906 0-24-10.746094-24-24s10.746094-24 24-24h216c13.253906 0 24 10.746094 24 24v40c0 4.417969 3.582031 8 8 8s8-3.582031 8-8v-88c0-13.253906 10.746094-24 24-24h72c13.253906 0 24 10.746094 24 24v16c0 4.417969-3.582031 8-8 8s-8-3.582031-8-8v-16c0-4.417969-3.582031-8-8-8h-72c-4.417969 0-8 3.582031-8 8v88c0 13.253906-10.746094 24-24 24s-24-10.746094-24-24v-40c0-4.417969-3.582031-8-8-8h-216c-4.417969 0-8 3.582031-8 8s3.582031 8 8 8h16c13.253906 0 24 10.746094 24 24v96c0 4.417969-3.582031 8-8 8zm0 0" fill="#006"/><path d="m216 200v96c0 4.417969-3.582031 8-8 8h-112c-4.417969 0-8-3.582031-8-8v-96h-48c-17.671875 0-32 14.328125-32 32v120c0 17.671875 14.328125 32 32 32h176c17.671875 0 32-14.328125 32-32v-120c0-17.671875-14.328125-32-32-32zm0 0" fill="#20b2ad"/><path d="m80 320h112c4.417969 0 8-3.582031 8-8v-8h-104c-4.417969 0-8-3.582031-8-8v-96h-16v112c0 4.417969 3.582031 8 8 8zm0 0" fill="#1b8984"/><path d="m328 408h128c8.835938 0 16 7.164062 16 16v32c0 8.835938-7.164062 16-16 16h-128c-8.835938 0-16-7.164062-16-16v-32c0-8.835938 7.164062-16 16-16zm0 0" fill="#20b2ad"/><path d="m424 408h32c8.835938 0 16 7.164062 16 16v32c0 8.835938-7.164062 16-16 16h-32zm0 0" fill="#ff7f00"/><path d="m328 344h128c8.835938 0 16 7.164062 16 16v32c0 8.835938-7.164062 16-16 16h-128c-8.835938 0-16-7.164062-16-16v-32c0-8.835938 7.164062-16 16-16zm0 0" fill="#20b2ad"/><path d="m424 344h32c8.835938 0 16 7.164062 16 16v32c0 8.835938-7.164062 16-16 16h-32zm0 0" fill="#ff7f00"/><path d="m328 280h128c8.835938 0 16 7.164062 16 16v32c0 8.835938-7.164062 16-16 16h-128c-8.835938 0-16-7.164062-16-16v-32c0-8.835938 7.164062-16 16-16zm0 0" fill="#20b2ad"/><path d="m408 280h48c8.835938 0 16 7.164062 16 16v32c0 8.835938-7.164062 16-16 16h-48zm0 0" fill="#ff7f00"/><path d="m152 384h-48l-16 40h80zm0 0" fill="#800080"/><path d="m96 136h112c4.417969 0 8 3.582031 8 8v152c0 4.417969-3.582031 8-8 8h-112c-4.417969 0-8-3.582031-8-8v-152c0-4.417969 3.582031-8 8-8zm0 0" fill="#ffd700"/><path d="m136 136v56l24-8 24 8v-56zm0 0" fill="#e5c200"/><path d="m192 176-24-8-24 8v-72h48zm0 0" fill="#ff7f00"/><path d="m8 336h240v16c0 17.671875-14.328125 32-32 32h-176c-17.671875 0-32-14.328125-32-32zm0 0" fill="#9c02a0"/><path d="m448 96c0 30.929688-25.070312 56-56 56s-56-25.070312-56-56 25.070312-56 56-56 56 25.070312 56 56zm0 0" fill="#20b2ad"/><path d="m376 80c-.015625-15.039062 6.042969-29.449219 16.800781-39.960938-.273437 0-.527343 0-.800781 0-25.273438.003907-47.414062 16.9375-54.035156 41.328126-6.621094 24.390624 3.914062 50.195312 25.714844 62.980468 21.804687 12.785156 49.46875 9.378906 67.519531-8.308594-30.628907-.4375-55.222657-25.40625-55.199219-56.039062zm0 0" fill="#1b8984"/><path d="m336 96c-.003906 14.199219 5.410156 27.863281 15.136719 38.207031l24.863281-14.207031v-24l-30.769531-30.769531c-6.03125 9.128906-9.242188 19.828125-9.230469 30.769531zm0 0" fill="#800080"/><path d="m420.320312 47.742188-20.320312 16.257812 8 24v24l29.34375 16.800781c9.28125-12.765625 12.726562-28.863281 9.480469-44.308593-3.242188-15.445313-12.871094-28.796876-26.503907-36.75zm0 0" fill="#9c02a0"/><g fill="#006"><path d="m392 448h-16c-4.417969 0-8-3.582031-8-8s3.582031-8 8-8h16c4.417969 0 8 3.582031 8 8s-3.582031 8-8 8zm0 0"/><path d="m392 384h-16c-4.417969 0-8-3.582031-8-8s3.582031-8 8-8h16c4.417969 0 8 3.582031 8 8s-3.582031 8-8 8zm0 0"/><path d="m360 320h-16c-4.417969 0-8-3.582031-8-8s3.582031-8 8-8h16c4.417969 0 8 3.582031 8 8s-3.582031 8-8 8zm0 0"/><path d="m448 312c0 4.417969-3.582031 8-8 8s-8-3.582031-8-8 3.582031-8 8-8 8 3.582031 8 8zm0 0"/><path d="m352 376c0 4.417969-3.582031 8-8 8s-8-3.582031-8-8 3.582031-8 8-8 8 3.582031 8 8zm0 0"/><path d="m352 440c0 4.417969-3.582031 8-8 8s-8-3.582031-8-8 3.582031-8 8-8 8 3.582031 8 8zm0 0"/></g><path d="m200 432h-144c-4.417969 0-8-3.582031-8-8s3.582031-8 8-8h144c4.417969 0 8 3.582031 8 8s-3.582031 8-8 8zm0 0" fill="#800080"/><path d="m176 232h-40c-4.417969 0-8-3.582031-8-8s3.582031-8 8-8h40c4.417969 0 8 3.582031 8 8s-3.582031 8-8 8zm0 0" fill="#006"/><path d="m176 264h-48c-4.417969 0-8-3.582031-8-8s3.582031-8 8-8h48c4.417969 0 8 3.582031 8 8s-3.582031 8-8 8zm0 0" fill="#006"/><path d="m328 424h96v-16h-96c-8.835938 0-16 7.164062-16 16v16c0-8.835938 7.164062-16 16-16zm0 0" fill="#1b8984"/><path d="m456 408h-32v16h32c8.835938 0 16 7.164062 16 16v-16c0-8.835938-7.164062-16-16-16zm0 0" fill="#db6a03"/><path d="m328 360h96v-16h-96c-8.835938 0-16 7.164062-16 16v16c0-8.835938 7.164062-16 16-16zm0 0" fill="#1b8984"/><path d="m456 344h-32v16h32c8.835938 0 16 7.164062 16 16v-16c0-8.835938-7.164062-16-16-16zm0 0" fill="#db6a03"/></svg>