<svg id="flat" height="512" viewBox="0 0 512 512" width="512" xmlns="http://www.w3.org/2000/svg"><g fill="#3f484f"><path d="m64 248h48v16h-48z"/><path d="m168 168h-16v-53.1l-35.747-42.9h-52.253v-16h56a8 8 0 0 1 6.146 2.879l40 48a8 8 0 0 1 1.854 5.121z"/><path d="m136 168h-16v-24.687l-7.313-7.313h-32.687v-16h36a8 8 0 0 1 5.657 2.343l12 12a8 8 0 0 1 2.343 5.657z"/><path d="m109.657 232.972-32.97-32.972h-28.687v-16h32a8 8 0 0 1 5.657 2.343l24 24z"/><path d="m88 328h-40v-16h36.687l37.656-37.657 11.314 11.314-40 40a8 8 0 0 1 -5.657 2.343z"/><path d="m216 152h-16v-36.687l-13.657-13.656a8 8 0 0 1 -2.343-5.657v-48h16v44.687l13.657 13.656a8 8 0 0 1 2.343 5.657z"/><path d="m248 64h16v56h-16z"/><path d="m312 152h-16v-32a8 8 0 0 1 2.343-5.657l13.657-13.656v-52.687h16v56a8 8 0 0 1 -2.343 5.657l-13.657 13.656z"/><path d="m360 168h-16v-56a8 8 0 0 1 1.854-5.121l40-48a8 8 0 0 1 6.146-2.879h56v16h-52.253l-35.747 42.9z"/><path d="m392 168h-16v-28a8 8 0 0 1 2.343-5.657l12-12a8 8 0 0 1 5.657-2.343h36v16h-32.687l-7.313 7.313z"/><path d="m88 388h-24v-16h20.5l45.625-49.426 11.756 10.852-48 52a8 8 0 0 1 -5.881 2.574z"/><path d="m80 448h-32v-16h28.32l45.606-53.206a8 8 0 0 1 6.074-2.794h56v16h-52.32l-45.606 53.206a8 8 0 0 1 -6.074 2.794z"/><path d="m160 464h-16v-32a8 8 0 0 1 2.343-5.657l24-24 11.314 11.314-21.657 21.656z"/><path d="m400 248h48v16h-48z"/><path d="m402.97 232.345-.627-22 24-24a8 8 0 0 1 5.657-2.345h32v16h-28.687z"/><path d="m464 328h-40a8 8 0 0 1 -5.657-2.343l-40-40 11.314-11.314 37.656 37.657h36.687z"/><path d="m448 388h-24a8 8 0 0 1 -5.878-2.574l-48-52 11.756-10.852 45.622 49.426h20.5z"/><path d="m464 448h-32a8 8 0 0 1 -6.074-2.794l-45.606-53.206h-52.32v-16h56a8 8 0 0 1 6.074 2.794l45.606 53.206h28.32z"/><path d="m368 464h-16v-28.687l-21.657-21.656 11.314-11.314 24 24a8 8 0 0 1 2.343 5.657z"/></g><circle cx="72" cy="128" fill="#26bfb0" r="16"/><circle cx="40" cy="192" fill="#26bfb0" r="16"/><circle cx="56" cy="256" fill="#26bfb0" r="16"/><circle cx="40" cy="320" fill="#26bfb0" r="16"/><circle cx="192" cy="40" fill="#26bfb0" r="16"/><circle cx="256" cy="56" fill="#26bfb0" r="16"/><circle cx="320" cy="40" fill="#26bfb0" r="16"/><circle cx="440" cy="128" fill="#26bfb0" r="16"/><circle cx="456" cy="64" fill="#26bfb0" r="16"/><circle cx="56" cy="380" fill="#26bfb0" r="16"/><circle cx="40" cy="440" fill="#26bfb0" r="16"/><circle cx="152" cy="472" fill="#26bfb0" r="16"/><circle cx="472" cy="192" fill="#26bfb0" r="16"/><circle cx="456" cy="256" fill="#26bfb0" r="16"/><circle cx="472" cy="320" fill="#26bfb0" r="16"/><circle cx="456" cy="380" fill="#26bfb0" r="16"/><circle cx="472" cy="440" fill="#26bfb0" r="16"/><circle cx="360" cy="472" fill="#26bfb0" r="16"/><path d="m408 168a212.451 212.451 0 0 1 -150.225-62.225l-1.775-1.775-1.775 1.775a212.451 212.451 0 0 1 -150.225 62.225v31.826a349.17 349.17 0 0 0 152 288.174 349.17 349.17 0 0 0 152-288.174z" fill="#ffa511"/><path d="m156.5 383.943a348.934 348.934 0 0 0 99.5 104.057 349.182 349.182 0 0 0 147.3-231.082 311.528 311.528 0 0 1 -246.8 127.025z" fill="#f08015"/><path d="m144 256 2.745-2.745a154.51 154.51 0 0 1 109.255-45.255 154.51 154.51 0 0 1 109.255 45.255l2.745 2.745-2.745 2.745a154.51 154.51 0 0 1 -109.255 45.255 154.51 154.51 0 0 1 -109.255-45.255z" fill="#ededeb"/><path d="m331.037 227.455a231.036 231.036 0 0 1 -147.037 52.545c-3.729 0-7.435-.1-11.121-.271a154.5 154.5 0 0 0 83.121 24.271 154.51 154.51 0 0 0 109.255-45.255l2.745-2.745-2.745-2.745a154.441 154.441 0 0 0 -34.218-25.8z" fill="#cececc"/><circle cx="256" cy="256" fill="#b7b2a5" r="48"/><path d="m304 256a48.24 48.24 0 0 0 -.838-8.908 230.506 230.506 0 0 1 -89.747 31.049 48 48 0 0 0 90.585-22.141z" fill="#999488"/><circle cx="256" cy="256" fill="#3f484f" r="16"/><path d="m249.511 270.617a15.971 15.971 0 0 0 20.638-7.157q-10.096 4.04-20.638 7.157z" fill="#2a3135"/><circle cx="56" cy="64" fill="#26bfb0" r="16"/><path d="m62.575 49.425a15.979 15.979 0 0 1 -21.15 21.15 15.993 15.993 0 1 0 21.15-21.15z" fill="#1c998a"/><path d="m78.575 113.425a15.979 15.979 0 0 1 -21.15 21.15 15.993 15.993 0 1 0 21.15-21.15z" fill="#1c998a"/><path d="m46.575 177.425a15.979 15.979 0 0 1 -21.15 21.15 15.993 15.993 0 1 0 21.15-21.15z" fill="#1c998a"/><path d="m62.575 241.425a15.979 15.979 0 0 1 -21.15 21.15 15.993 15.993 0 1 0 21.15-21.15z" fill="#1c998a"/><path d="m46.575 305.425a15.979 15.979 0 0 1 -21.15 21.15 15.993 15.993 0 1 0 21.15-21.15z" fill="#1c998a"/><path d="m62.575 365.425a15.979 15.979 0 0 1 -21.15 21.15 15.993 15.993 0 1 0 21.15-21.15z" fill="#1c998a"/><path d="m46.575 425.425a15.979 15.979 0 0 1 -21.15 21.15 15.993 15.993 0 1 0 21.15-21.15z" fill="#1c998a"/><path d="m158.575 457.425a15.979 15.979 0 0 1 -21.15 21.15 15.993 15.993 0 1 0 21.15-21.15z" fill="#1c998a"/><path d="m366.575 457.425a15.979 15.979 0 0 1 -21.15 21.15 15.993 15.993 0 1 0 21.15-21.15z" fill="#1c998a"/><path d="m478.575 425.425a15.979 15.979 0 0 1 -21.15 21.15 15.993 15.993 0 1 0 21.15-21.15z" fill="#1c998a"/><path d="m462.575 365.425a15.979 15.979 0 0 1 -21.15 21.15 15.993 15.993 0 1 0 21.15-21.15z" fill="#1c998a"/><path d="m478.575 305.425a15.979 15.979 0 0 1 -21.15 21.15 15.993 15.993 0 1 0 21.15-21.15z" fill="#1c998a"/><path d="m462.575 241.425a15.979 15.979 0 0 1 -21.15 21.15 15.993 15.993 0 1 0 21.15-21.15z" fill="#1c998a"/><path d="m478.575 177.425a15.979 15.979 0 0 1 -21.15 21.15 15.993 15.993 0 1 0 21.15-21.15z" fill="#1c998a"/><path d="m446.575 113.425a15.979 15.979 0 0 1 -21.15 21.15 15.993 15.993 0 1 0 21.15-21.15z" fill="#1c998a"/><path d="m462.575 49.425a15.979 15.979 0 0 1 -21.15 21.15 15.993 15.993 0 1 0 21.15-21.15z" fill="#1c998a"/><path d="m326.575 25.425a15.979 15.979 0 0 1 -21.15 21.15 15.993 15.993 0 1 0 21.15-21.15z" fill="#1c998a"/><path d="m262.575 41.425a15.979 15.979 0 0 1 -21.15 21.15 15.993 15.993 0 1 0 21.15-21.15z" fill="#1c998a"/><path d="m198.575 25.425a15.979 15.979 0 0 1 -21.15 21.15 15.993 15.993 0 1 0 21.15-21.15z" fill="#1c998a"/></svg>