<svg id="flat" height="512" viewBox="0 0 512 512" width="512" xmlns="http://www.w3.org/2000/svg"><rect fill="#ffdc13" height="352" rx="48" width="144" x="184" y="136"/><path d="m216 280h80v120h-80z" fill="#ffdc13"/><path d="m280 136a48 48 0 0 0 48 48 48 48 0 0 0 -48-48z" fill="#ededeb"/><path d="m216 336h-32v-112l32 56z" fill="#e5af17"/><path d="m296 336h32v-112l-32 56z" fill="#e5af17"/><g fill="#26bfb0"><path d="m298.343 117.657a59.882 59.882 0 0 0 -84.686 0l-11.314-11.314a75.968 75.968 0 0 1 107.314 0z"/><path d="m322.343 93.657a93.931 93.931 0 0 0 -132.686 0l-11.314-11.314a109.948 109.948 0 0 1 155.314 0z"/><path d="m346.343 69.657a127.908 127.908 0 0 0 -180.686 0l-11.314-11.314c56.057-56.053 147.257-56.053 203.314 0z"/><path d="m389.657 421.657-11.314-11.314a105.137 105.137 0 0 0 0-148.686l11.314-11.314a121.138 121.138 0 0 1 0 171.314z"/><path d="m413.657 445.657-11.314-11.314c54.084-54.083 54.084-142.083 0-196.166l-.265-.266 11.324-11.3.26.261c60.317 60.313 60.317 158.463-.005 218.785z"/><path d="m122.343 421.657a121.138 121.138 0 0 1 0-171.314l11.314 11.314a105.137 105.137 0 0 0 0 148.686z"/><path d="m98.343 445.657c-60.322-60.322-60.322-158.472 0-218.794l.255-.255 11.324 11.3-.26.26c-54.089 54.089-54.089 142.089-.005 196.172z"/><path d="m146.343 397.657a87.3 87.3 0 0 1 0-123.314l11.314 11.314a71.275 71.275 0 0 0 0 100.686z"/><path d="m365.657 397.657-11.314-11.314a71.275 71.275 0 0 0 0-100.686l11.314-11.314a87.3 87.3 0 0 1 0 123.314z"/></g><path d="m184 336h32v64l-8 48-24-8z" fill="#e5af17"/><path d="m296 336v64l8 48 24-8v-104z" fill="#e5af17"/><path d="m184 440 24 8 24 40a48 48 0 0 1 -48-48z" fill="#e0300e"/><path d="m280 488 24-40 24-8a48 48 0 0 1 -48 48z" fill="#e0300e"/><path d="m216 280-32-56a177.276 177.276 0 0 1 144 0l-32 56z" fill="#3098c6"/><path d="m307.626 216.418a111.862 111.862 0 0 1 -91.626 47.582c-3.155 0-6.278-.137-9.368-.393l9.368 16.393h80l32-56a177.266 177.266 0 0 0 -20.374-7.582z" fill="#2686a8"/><path d="m232 136a48 48 0 0 1 -48 48 48 48 0 0 1 48-48z" fill="#ededeb"/><path d="m216 400-8 48a151.786 151.786 0 0 0 96 0l-8-48z" fill="#3098c6"/><path d="m293.977 400a95.872 95.872 0 0 1 -77.977 40c-2.229 0-4.438-.083-6.628-.232l-1.372 8.232a151.786 151.786 0 0 0 96 0l-8-48z" fill="#2686a8"/></svg>