<svg id="flat" height="512" viewBox="0 0 512 512" width="512" xmlns="http://www.w3.org/2000/svg"><path d="m248 24h176l64 64v256h-240z" fill="#ededeb"/><path d="m248 328v16h240v-201.31c-27.771 106.61-124.691 185.31-240 185.31z" fill="#cececc"/><path d="m16 216a64 64 0 0 1 64 64v22.956l24 57.044h-16v24l-16 8 16 8v16a16 16 0 0 1 -16 16h-56z" fill="#fccca7"/><path d="m424 88h64l-64-64z" fill="#b7b2a5"/><path d="m134.946 451.969-13.892-7.938a105.286 105.286 0 0 0 0-104.062l13.892-7.938a121.354 121.354 0 0 1 0 119.938z" fill="#e0300e"/><path d="m166.993 467.885-13.986-7.77a140.26 140.26 0 0 0 0-136.23l13.986-7.77a156.255 156.255 0 0 1 0 151.77z" fill="#e0300e"/><path d="m199.023 483.831-14.046-7.662a175.068 175.068 0 0 0 0-168.338l14.046-7.662a191.776 191.776 0 0 1 0 183.662z" fill="#e0300e"/><g fill="#3098c6"><path d="m272 48h128v16h-128z"/><path d="m272 80h128v16h-128z"/><path d="m272 112h192v16h-192z"/><path d="m272 144h192v16h-192z"/></g><path d="m87.124 319.888a144.034 144.034 0 0 1 -71.124 108.844v3.268h56a16 16 0 0 0 16-16v-16l-16-8 16-8v-24h16z" fill="#e5b391"/><circle cx="368" cy="392" fill="#26bfb0" r="96"/><path d="m405.774 303.722a96.024 96.024 0 0 1 -115.548 144.556 96.006 96.006 0 1 0 115.548-144.556z" fill="#1c998a"/><path d="m360 416h16v32h-16z" fill="#3f484f"/><path d="m368 424a48.054 48.054 0 0 1 -48-48h16a32 32 0 0 0 64 0h16a48.054 48.054 0 0 1 -48 48z" fill="#ededeb"/><path d="m328 440h80v16h-80z" fill="#9e6e4d"/><path d="m328 456h80v-16h-26.926a95.54 95.54 0 0 1 -53.074 16z" fill="#7e5138"/><rect fill="#ededeb" height="64" rx="16" width="32" x="352" y="328"/><path d="m368 328a15.99 15.99 0 0 0 -4 .524 15.992 15.992 0 0 1 12 15.476v32a15.992 15.992 0 0 1 -12 15.476 15.946 15.946 0 0 0 20-15.476v-32a16 16 0 0 0 -16-16z" fill="#cececc"/><path d="m352 360h32v16a16 16 0 0 1 -16 16 16 16 0 0 1 -16-16z" fill="#3f484f"/><path d="m376 360v8a15.979 15.979 0 0 1 -22.575 14.575 15.993 15.993 0 0 0 30.575-6.575v-16z" fill="#2a3135"/><path d="m352 264h32v-32h32l-48-48-48 48h32z" fill="#ffa511"/><path d="m391.426 207.426a48.028 48.028 0 0 1 -39.426 39.898v16.676h32v-32h32z" fill="#f08015"/></svg>