<?xml version="1.0" encoding="iso-8859-1"?>
<!-- Generator: Adobe Illustrator 19.0.0, SVG Export Plug-In . SVG Version: 6.00 Build 0)  -->
<svg version="1.1" id="Capa_1" xmlns="http://www.w3.org/2000/svg" xmlns:xlink="http://www.w3.org/1999/xlink" x="0px" y="0px"
	 viewBox="0 0 409.6 409.6" style="enable-background:new 0 0 409.6 409.6;" xml:space="preserve">
<g>
	<rect x="49.044" y="336.23" style="fill:#EBF0F3;" width="25.247" height="16.829"/>
	<rect x="259.425" y="336.23" style="fill:#EBF0F3;" width="25.247" height="16.829"/>
</g>
<path style="fill:#3EA69B;" d="M328.003,121.422c0-4.75-3.85-8.6-8.6-8.6H28.307c-4.75,0-8.6,3.85-8.6,8.6v178.915h308.296V121.422z
	"/>
<path style="fill:#31978C;" d="M19.707,295.188v37.817c0,5.328,3.85,9.647,8.6,9.647h291.096c4.75,0,8.6-4.319,8.6-9.647v-37.817
	H19.707z"/>
<rect x="36.506" y="129.638" style="fill:#D5D6DB;" width="274.662" height="190.003"/>
<path style="fill:#44C4A1;" d="M347.709,341.312v20.931c0,8.7-7.984,15.753-17.832,15.753H17.832C7.984,377.996,0,370.943,0,362.243
	v-20.931H347.709z"/>
<g>
	<path style="fill:#EBF0F3;" d="M207.249,367.013H140.46c-2.853,0-5.188-2.335-5.188-5.188v-4.342c0-2.853,2.334-5.188,5.188-5.188
		h66.789c2.853,0,5.188,2.335,5.188,5.188v4.342C212.437,364.678,210.102,367.013,207.249,367.013z"/>
	<circle style="fill:#EBF0F3;" cx="169.779" cy="121.098" r="6.267"/>
</g>
<g>
	<circle style="fill:#D5D6DB;" cx="169.779" cy="121.098" r="3.799"/>
	<path style="fill:#D5D6DB;" d="M191.254,367.013h-34.799c-2.853,0-5.188-2.334-5.188-5.188v-4.342c0-2.853,2.335-5.188,5.188-5.188
		h34.799c2.853,0,5.188,2.334,5.188,5.188v4.342C196.442,364.678,194.108,367.013,191.254,367.013z"/>
</g>
<g>
	<path style="fill:#64798A;" d="M330.532,45.212l-0.171-13.602c24.182-0.302,46.745,10.338,61.916,29.114
		c13.736,17.034,19.728,39.218,16.441,60.864l-13.449-2.043c2.716-17.883-2.235-36.21-13.582-50.282
		C369.177,53.776,350.513,44.963,330.532,45.212z"/>
	<path style="fill:#64798A;" d="M329.386,74.256l-0.171-13.602c15.547-0.195,30.032,6.642,39.802,18.717
		c8.829,10.948,12.682,25.208,10.569,39.125l-13.449-2.043c1.541-10.153-1.269-20.556-7.71-28.542
		C351.327,79.087,340.733,74.113,329.386,74.256z"/>
	<path style="fill:#64798A;" d="M318.501,98.902L318.33,85.3c10.861-0.135,21.002,4.626,27.808,13.076
		c6.169,7.651,8.861,17.615,7.386,27.335l-13.449-2.039c0.904-5.961-0.746-12.068-4.526-16.757
		C331.367,101.713,325.161,98.82,318.501,98.902z"/>
</g>
<g>
</g>
<g>
</g>
<g>
</g>
<g>
</g>
<g>
</g>
<g>
</g>
<g>
</g>
<g>
</g>
<g>
</g>
<g>
</g>
<g>
</g>
<g>
</g>
<g>
</g>
<g>
</g>
<g>
</g>
</svg>
