<?xml version="1.0" encoding="iso-8859-1"?>
<!-- Generator: Adobe Illustrator 19.0.0, SVG Export Plug-In . SVG Version: 6.00 Build 0)  -->
<svg version="1.1" id="Capa_1" xmlns="http://www.w3.org/2000/svg" xmlns:xlink="http://www.w3.org/1999/xlink" x="0px" y="0px"
	 viewBox="0 0 512 512" style="enable-background:new 0 0 512 512;" xml:space="preserve">
<path style="fill:#00CEB4;" d="M361.755,243.18V458c0,29.78-24.23,54-54,54h-103.5c-29.77,0-54-24.22-54-54V243.18
	c0-29.77,24.23-53.99,54-53.99h103.5C337.525,189.19,361.755,213.41,361.755,243.18z"/>
<path style="fill:#008878;" d="M361.755,243.18V458c0,29.78-24.23,54-54,54h-51.73V189.19h51.73
	C337.525,189.19,361.755,213.41,361.755,243.18z"/>
<g>
	<path style="fill:#78777F;" d="M298.395,144.9l-28.44,9.55c-2.01-5.98-7.6-10.01-13.93-10.02c-0.01,0-0.01,0-0.02,0
		c-6.33,0-11.94,4.03-13.95,10.04l-28.45-9.53c6.11-18.25,23.15-30.51,42.4-30.51c0.01,0,0.01,0,0.02,0
		C275.255,114.44,292.275,126.69,298.395,144.9z"/>
	<path style="fill:#78777F;" d="M350.925,126.84l-28.44,9.55c-9.6-28.56-36.3-47.76-66.46-47.76h-0.01
		c-30.19,0-56.91,19.23-66.48,47.84l-28.45-9.52c13.67-40.86,51.82-68.32,94.93-68.32h0.01
		C299.095,58.63,337.225,86.04,350.925,126.84z"/>
	<path style="fill:#78777F;" d="M402.805,105.49l-28.44,9.55C357.285,64.17,309.725,30,256.025,30
		c-53.76,0-101.33,34.23-118.38,85.17l-28.45-9.52C130.345,42.46,189.355,0,256.025,0C322.625,0,381.615,42.39,402.805,105.49z"/>
</g>
<rect x="211.59" y="278.72" style="fill:#FFB74F;" width="29.667" height="29.667"/>
<rect x="270.75" y="278.72" style="fill:#FF9A00;" width="29.667" height="29.667"/>
<rect x="211.59" y="336.93" style="fill:#FFB74F;" width="29.667" height="29.667"/>
<rect x="270.75" y="336.93" style="fill:#FF9A00;" width="29.667" height="29.667"/>
<rect x="211.59" y="395.14" style="fill:#FFB74F;" width="29.667" height="29.667"/>
<rect x="270.75" y="395.14" style="fill:#FF9A00;" width="29.667" height="29.667"/>
<g>
	<path style="fill:#3C3A41;" d="M256.025,144.43v-30c19.23,0.01,36.25,12.26,42.37,30.47l-28.44,9.55
		C267.945,148.47,262.355,144.44,256.025,144.43z"/>
	<path style="fill:#3C3A41;" d="M256.025,88.63v-30c43.07,0,81.2,27.41,94.9,68.21l-28.44,9.55
		C312.885,107.83,286.185,88.63,256.025,88.63z"/>
	<path style="fill:#3C3A41;" d="M402.805,105.49l-28.44,9.55C357.285,64.17,309.725,30,256.025,30V0
		C322.625,0,381.615,42.39,402.805,105.49z"/>
</g>
<g>
</g>
<g>
</g>
<g>
</g>
<g>
</g>
<g>
</g>
<g>
</g>
<g>
</g>
<g>
</g>
<g>
</g>
<g>
</g>
<g>
</g>
<g>
</g>
<g>
</g>
<g>
</g>
<g>
</g>
</svg>
