<svg height="511pt" viewBox="-52 0 511 511.99559" width="511pt" xmlns="http://www.w3.org/2000/svg"><path d="m185.914062 416.074219c-35.660156 0-68.851562-10.242188-97.121093-27.6875v114.886719c52.339843 11.628906 141.90625 11.628906 194.246093 0v-114.886719c-28.273437 17.445312-61.460937 27.6875-97.125 27.6875zm0 0" fill="#6c4127"/><path d="m185.914062 97.015625c35.664063 0 68.851563 10.242187 97.125 27.6875v-115.980469c-52.339843-11.628906-141.90625-11.628906-194.246093 0v115.980469c28.269531-17.445313 61.460937-27.6875 97.121093-27.6875zm0 0" fill="#6c4127"/><path d="m353.675781 229.457031c1.242188 8.671875 2.109375 17.472657 2.109375 26.488281 0 9.015626-.867187 17.816407-2.109375 26.488282h52.976563v-52.976563zm0 0" fill="#839594"/><path d="m371.332031 255.945312c0 102.402344-83.011719 185.417969-185.417969 185.417969-102.402343 0-185.417968-83.015625-185.417968-185.417969 0-102.402343 83.015625-185.417968 185.417968-185.417968 102.40625 0 185.417969 83.015625 185.417969 185.417968zm0 0" fill="#e7eced"/><path d="m336.015625 255.945312c0 82.898438-67.203125 150.097657-150.101563 150.097657-82.898437 0-150.097656-67.199219-150.097656-150.097657 0-82.898437 67.199219-150.101562 150.097656-150.101562 82.898438 0 150.101563 67.203125 150.101563 150.101562zm0 0" fill="#28384c"/><path d="m203.574219 485.507812h-35.316407c-4.875 0-8.832031-3.953124-8.832031-8.828124s3.957031-8.828126 8.832031-8.828126h35.316407c4.875 0 8.828125 3.953126 8.828125 8.828126s-3.953125 8.828124-8.828125 8.828124zm0 0" fill="#f7e6a1"/><path d="m177.085938.0859375v35.1250005c0 4.871093 3.957031 8.828124 8.828124 8.828124 4.875 0 8.832032-3.957031 8.832032-8.828124v-35.1250005c-5.890625-.078125-11.769532-.078125-17.660156 0zm0 0" fill="#f7e6a1"/><g fill="#25ae88"><path d="m185.914062 291.367188c-4.871093 0-8.828124-3.953126-8.828124-8.828126v-52.976562c0-4.875 3.957031-8.828125 8.828124-8.828125 4.875 0 8.832032 3.953125 8.832032 8.828125v52.976562c0 4.875-3.957032 8.828126-8.832032 8.828126zm0 0"/><path d="m212.402344 264.878906h-52.976563c-4.871093 0-8.828125-3.953125-8.828125-8.828125s3.957032-8.828125 8.828125-8.828125h52.976563c4.875 0 8.832031 3.953125 8.832031 8.828125s-3.957031 8.828125-8.832031 8.828125zm0 0"/><path d="m185.925781 370.832031c-6.648437 0-13.316406-.574219-19.816406-1.703125-4.800781-.839844-8.015625-5.414062-7.175781-10.214844.839844-4.804687 5.429687-7.972656 10.214844-7.1875 11.054687 1.925782 22.691406 1.914063 33.726562-.035156 4.804688-.820312 9.386719 2.367188 10.226562 7.167969.847657 4.804687-2.367187 9.378906-7.167968 10.226563-6.5625 1.15625-13.289063 1.746093-20.007813 1.746093zm-52.890625-14.117187c-1.492187 0-3.011718-.378906-4.40625-1.183594-11.609375-6.691406-21.886718-15.300781-30.539062-25.570312-3.144532-3.726563-2.667969-9.296876 1.058594-12.441407 3.726562-3.140625 9.296874-2.664062 12.441406 1.0625 7.328125 8.703125 16.035156 15.988281 25.851562 21.65625 4.230469 2.4375 5.679688 7.832031 3.242188 12.0625-1.625 2.832031-4.59375 4.414063-7.648438 4.414063zm105.917969-.089844c-3.046875 0-6.011719-1.570312-7.644531-4.402344-2.445313-4.222656-1.007813-9.617187 3.210937-12.070312 9.828125-5.695313 18.515625-13 25.820313-21.703125 3.132812-3.734375 8.703125-4.210938 12.4375-1.085938 3.738281 3.132813 4.222656 8.703125 1.089844 12.441407-8.636719 10.277343-18.886719 18.902343-30.5 25.628906-1.386719.8125-2.902344 1.191406-4.414063 1.191406zm-152.5625-55.316406c-3.601563 0-6.984375-2.214844-8.292969-5.800782-4.597656-12.554687-6.9375-25.746093-6.964844-39.21875-.007812-4.875 3.9375-8.839843 8.8125-8.847656h.015626c4.875 0 8.820312 3.9375 8.832031 8.8125.015625 11.40625 2.003906 22.578125 5.886719 33.191406 1.679687 4.582032-.679688 9.648438-5.253907 11.328126-1.003906.359374-2.027343.535156-3.035156.535156zm199.121094-.191406c-1.007813 0-2.023438-.175782-3.019531-.539063-4.582032-1.667969-6.949219-6.738281-5.28125-11.320313 3.867187-10.613281 5.828124-21.789062 5.828124-33.207031 0-4.875 3.957032-9.042969 8.828126-9.042969 4.875 0 8.832031 3.738282 8.832031 8.621094v.421875c0 13.484375-2.316407 26.691407-6.886719 39.246094-1.308594 3.59375-4.699219 5.820313-8.300781 5.820313zm-199.261719-72.269532c-1 0-2.015625-.175781-3.003906-.53125-4.589844-1.660156-6.957032-6.71875-5.304688-11.300781 4.554688-12.597656 11.238282-24.21875 19.867188-34.550781 3.132812-3.734375 8.703125-4.238282 12.429687-1.101563 3.742188 3.125 4.238281 8.695313 1.113281 12.441407-7.300781 8.730468-12.960937 18.566406-16.8125 29.214843-1.289062 3.59375-4.679687 5.828125-8.289062 5.828125zm199.121094-.59375c-3.59375 0-6.976563-2.207031-8.28125-5.78125-3.914063-10.628906-9.625-20.421875-16.972656-29.109375-3.152344-3.71875-2.683594-9.296875 1.035156-12.441406 3.722656-3.160156 9.285156-2.683594 12.4375 1.03125 8.691406 10.269531 15.445312 21.84375 20.070312 34.410156 1.6875 4.582031-.660156 9.648438-5.234375 11.335938-1.015625.378906-2.050781.554687-3.054687.554687zm-152.671875-55.003906c-3.035157 0-5.992188-1.574219-7.636719-4.390625-2.453125-4.210937-1.023438-9.613281 3.1875-12.070313 11.621094-6.761718 24.210938-11.378906 37.417969-13.726562 4.789062-.859375 9.386719 2.347656 10.242187 7.140625.859375 4.804687-2.347656 9.386719-7.148437 10.242187-11.164063 1.988282-21.800781 5.890626-31.628907 11.609376-1.394531.804687-2.921874 1.195312-4.433593 1.195312zm105.882812-.320312c-1.492187 0-3-.371094-4.386719-1.171876-9.863281-5.660156-20.527343-9.5-31.707031-11.425781-4.804687-.820312-8.027343-5.394531-7.203125-10.199219.828125-4.804687 5.394532-8.050781 10.195313-7.203124 13.226562 2.269531 25.84375 6.816406 37.5 13.507812 4.230469 2.429688 5.695312 7.824219 3.265625 12.050781-1.625 2.851563-4.597656 4.441407-7.664063 4.441407zm0 0"/></g></svg>