<?xml version="1.0" encoding="iso-8859-1"?>
<!-- Generator: Adobe Illustrator 19.0.0, SVG Export Plug-In . SVG Version: 6.00 Build 0)  -->
<svg version="1.1" id="Capa_1" xmlns="http://www.w3.org/2000/svg" xmlns:xlink="http://www.w3.org/1999/xlink" x="0px" y="0px"
	 viewBox="0 0 512 512" style="enable-background:new 0 0 512 512;" xml:space="preserve">
<path style="fill:#EDEBED;" d="M430.73,337.27H24.381V28.444c0-4.488,3.639-8.127,8.127-8.127h390.095
	c4.488,0,8.127,3.639,8.127,8.127V337.27z"/>
<rect x="138.16" y="85.33" style="fill:#99E7FF;" width="178.79" height="146.29"/>
<rect x="138.16" y="85.33" style="fill:#59D8FF;" width="178.79" height="24.381"/>
<rect x="24.381" y="85.33" style="fill:#99E7FF;" width="81.27" height="146.29"/>
<rect x="24.381" y="85.33" style="fill:#59D8FF;" width="81.27" height="24.381"/>
<g>
	<rect x="138.16" y="190.98" style="fill:#9C969E;" width="178.79" height="16.254"/>
	<rect x="24.381" y="190.98" style="fill:#9C969E;" width="81.27" height="16.254"/>
</g>
<rect x="24.381" y="272.25" style="fill:#B7B2B8;" width="406.35" height="65.02"/>
<g>
	<rect x="56.889" y="304.76" style="fill:#59D8FF;" width="40.635" height="32.508"/>
	<rect x="154.41" y="304.76" style="fill:#59D8FF;" width="40.635" height="32.508"/>
	<rect x="251.94" y="304.76" style="fill:#59D8FF;" width="40.635" height="32.508"/>
</g>
<g>
	<path style="fill:#9C969E;" d="M195.048,345.397h-40.635c-4.492,0-8.127-3.639-8.127-8.127v-32.508
		c0-4.488,3.635-8.127,8.127-8.127h40.635c4.492,0,8.127,3.639,8.127,8.127v32.508C203.175,341.758,199.54,345.397,195.048,345.397z
		 M162.54,329.143h24.381v-16.254H162.54V329.143z"/>
	<path style="fill:#9C969E;" d="M292.571,345.397h-40.635c-4.492,0-8.127-3.639-8.127-8.127v-32.508
		c0-4.488,3.635-8.127,8.127-8.127h40.635c4.492,0,8.127,3.639,8.127,8.127v32.508C300.698,341.758,297.063,345.397,292.571,345.397
		z M260.063,329.143h24.381v-16.254h-24.381V329.143z"/>
	<path style="fill:#9C969E;" d="M97.524,345.397H56.889c-4.492,0-8.127-3.639-8.127-8.127v-32.508c0-4.488,3.635-8.127,8.127-8.127
		h40.635c4.492,0,8.127,3.639,8.127,8.127v32.508C105.651,341.758,102.016,345.397,97.524,345.397z M65.016,329.143h24.381v-16.254
		H65.016V329.143z"/>
</g>
<path style="fill:#C9C6CA;" d="M446.984,345.397H8.127c-4.492,0-8.127-3.639-8.127-8.127s3.635-8.127,8.127-8.127h438.857
	c4.492,0,8.127,3.639,8.127,8.127S451.476,345.397,446.984,345.397z"/>
<path style="fill:#6F6571;" d="M373.841,491.683h113.778c13.465,0,24.381-10.916,24.381-24.381V256
	c0-13.465-10.916-24.381-24.381-24.381H373.841c-13.465,0-24.381,10.916-24.381,24.381v211.302
	C349.46,480.767,360.376,491.683,373.841,491.683z"/>
<path style="fill:#5D5360;" d="M373.841,467.302V256c0-13.465,10.916-24.381,24.381-24.381h-24.381
	c-13.465,0-24.381,10.916-24.381,24.381v211.302c0,13.465,10.916,24.381,24.381,24.381h24.381
	C384.757,491.683,373.841,480.767,373.841,467.302z"/>
<path style="fill:#00C8B4;" d="M442.222,195.746c-2.079,0-4.159-0.794-5.746-2.381c-3.175-3.167-8.317-3.167-11.492,0
	c-3.175,3.175-8.317,3.175-11.492,0c-3.175-3.175-3.175-8.317,0-11.492c9.508-9.508,24.968-9.508,34.476,0
	c3.175,3.175,3.175,8.317,0,11.492C446.381,194.952,444.302,195.746,442.222,195.746z"/>
<path style="fill:#99E9DF;" d="M499.69,138.278c-2.079,0-4.159-0.794-5.746-2.381c-34.857-34.849-91.571-34.849-126.429,0
	c-3.175,3.175-8.317,3.175-11.492,0c-3.175-3.175-3.175-8.317,0-11.492c41.19-41.19,108.222-41.19,149.413,0
	c3.175,3.175,3.175,8.317,0,11.492C503.849,137.484,501.77,138.278,499.69,138.278z"/>
<path style="fill:#4BD7C8;" d="M470.96,167.012c-2.079,0-4.159-0.794-5.746-2.381c-19.016-19.008-49.952-19.008-68.968,0
	c-3.175,3.175-8.317,3.175-11.492,0c-3.175-3.175-3.175-8.321,0-11.492c25.349-25.349,66.603-25.349,91.952,0
	c3.175,3.171,3.175,8.317,0,11.492C475.119,166.218,473.04,167.012,470.96,167.012z"/>
<path style="fill:#99E9DF;" d="M491.683,459.175H369.778c-4.488,0-8.127-3.639-8.127-8.127V272.254c0-4.488,3.639-8.127,8.127-8.127
	h121.905c4.488,0,8.127,3.639,8.127,8.127v178.794C499.81,455.536,496.171,459.175,491.683,459.175z"/>
<path style="fill:#CCF4EF;" d="M455.111,345.397h-48.762c-8.977,0-16.254-7.277-16.254-16.254l0,0
	c0-8.977,7.277-16.254,16.254-16.254h48.762c8.977,0,16.254,7.277,16.254,16.254l0,0
	C471.365,338.12,464.088,345.397,455.111,345.397z"/>
<path style="fill:#FFFFFF;" d="M406.349,345.397L406.349,345.397c-8.977,0-16.254-7.277-16.254-16.254l0,0
	c0-8.977,7.277-16.254,16.254-16.254l0,0c8.977,0,16.254,7.277,16.254,16.254l0,0C422.603,338.12,415.326,345.397,406.349,345.397z"
	/>
<path style="fill:#B7B2B8;" d="M316.952,239.746H138.159c-4.492,0-8.127-3.639-8.127-8.127V85.333c0-4.488,3.635-8.127,8.127-8.127
	h178.794c4.492,0,8.127,3.639,8.127,8.127v146.286C325.079,236.107,321.444,239.746,316.952,239.746z M146.286,223.492h162.54V93.46
	h-162.54V223.492z"/>
<path style="fill:#CCF4EF;" d="M406.349,377.905h48.762c8.977,0,16.254,7.277,16.254,16.254l0,0c0,8.977-7.277,16.254-16.254,16.254
	h-48.762c-8.977,0-16.254-7.277-16.254-16.254l0,0C390.095,385.182,397.372,377.905,406.349,377.905z"/>
<path style="fill:#FFFFFF;" d="M455.111,377.905L455.111,377.905c8.977,0,16.254,7.277,16.254,16.254l0,0
	c0,8.977-7.277,16.254-16.254,16.254l0,0c-8.977,0-16.254-7.277-16.254-16.254l0,0C438.857,385.182,446.134,377.905,455.111,377.905
	z"/>
<path style="fill:#B7B2B8;" d="M113.778,231.619V85.333c0-4.488-3.635-8.127-8.127-8.127h-81.27V93.46h73.143v130.032H24.381v16.254
	h81.27C110.143,239.746,113.778,236.107,113.778,231.619z"/>
<g>
</g>
<g>
</g>
<g>
</g>
<g>
</g>
<g>
</g>
<g>
</g>
<g>
</g>
<g>
</g>
<g>
</g>
<g>
</g>
<g>
</g>
<g>
</g>
<g>
</g>
<g>
</g>
<g>
</g>
</svg>
