<svg height="511pt" viewBox="-52 0 511 511.99559" width="511pt" xmlns="http://www.w3.org/2000/svg"><path d="m185.914062 416.074219c-35.660156 0-68.851562-10.242188-97.121093-27.6875v114.886719c52.339843 11.628906 141.90625 11.628906 194.246093 0v-114.886719c-28.273437 17.445312-61.460937 27.6875-97.125 27.6875zm0 0" fill="#6c4127"/><path d="m185.914062 97.015625c35.664063 0 68.851563 10.242187 97.125 27.6875v-115.980469c-52.339843-11.628906-141.90625-11.628906-194.246093 0v115.980469c28.269531-17.445313 61.460937-27.6875 97.121093-27.6875zm0 0" fill="#6c4127"/><path d="m353.675781 229.457031c1.242188 8.671875 2.109375 17.472657 2.109375 26.488281 0 9.015626-.867187 17.816407-2.109375 26.488282h52.976563v-52.976563zm0 0" fill="#839594"/><path d="m371.332031 255.945312c0 102.402344-83.011719 185.417969-185.417969 185.417969-102.402343 0-185.417968-83.015625-185.417968-185.417969 0-102.402343 83.015625-185.417968 185.417968-185.417968 102.40625 0 185.417969 83.015625 185.417969 185.417968zm0 0" fill="#e7eced"/><path d="m336.015625 255.945312c0 82.898438-67.203125 150.097657-150.101563 150.097657-82.898437 0-150.097656-67.199219-150.097656-150.097657 0-82.898437 67.199219-150.101562 150.097656-150.101562 82.898438 0 150.101563 67.203125 150.101563 150.101562zm0 0" fill="#28384c"/><path d="m203.574219 485.507812h-35.316407c-4.875 0-8.832031-3.953124-8.832031-8.828124s3.957031-8.828126 8.832031-8.828126h35.316407c4.875 0 8.828125 3.953126 8.828125 8.828126s-3.953125 8.828124-8.828125 8.828124zm0 0" fill="#f7e6a1"/><path d="m247.722656 264.773438h-123.613281l-17.660156 70.636718h158.929687zm0 0" fill="#ebba16"/><path d="m177.085938.0859375v35.1250005c0 4.871093 3.957031 8.828124 8.828124 8.828124 4.875 0 8.832032-3.957031 8.832032-8.828124v-35.1250005c-5.890625-.078125-11.769532-.078125-17.660156 0zm0 0" fill="#f7e6a1"/><path d="m221.234375 255.945312-35.320313 35.316407-35.316406-35.316407c-20.6875-20.6875-22.832031-52.085937-2.144531-72.78125 20.6875-20.6875 54.230469-20.6875 74.917969 0 20.695312 20.6875 18.550781 52.09375-2.136719 72.78125zm0 0" fill="#dd352e"/><path d="m194.734375 238.285156h-17.628906c-4.882813 0-8.839844-3.953125-8.839844-8.835937v-17.632813c0-4.882812 3.957031-8.839844 8.839844-8.839844h17.628906c4.882813 0 8.839844 3.957032 8.839844 8.839844v17.632813c0 4.882812-3.957031 8.835937-8.839844 8.835937zm0 0" fill="#fff" fill-rule="evenodd"/></svg>