<svg xmlns="http://www.w3.org/2000/svg" width="70" height="70" viewBox="0 0 172 172">
  <g fill="none" stroke-miterlimit="10" font-family="none" font-weight="none" font-size="none" text-anchor="none" style="mix-blend-mode:normal">
    <path d="M0 172V0h172v172z"/>
    <path d="M89.44 3.44c-5.657 0-10.32 4.663-10.32 10.32V51.6c0 5.657 4.663 10.32 10.32 10.32h7.565c.242.968.417 1.277.632 3.01.39 3.09.255 6.8-.954 9.205a3.475 3.475 0 00.148 3.36 3.456 3.456 0 002.929 1.625c7.068 0 12.013-5.388 15.278-10.065 2.513-3.587 3.293-5.67 3.924-7.135h28.958c5.657 0 10.32-4.663 10.32-10.32V13.76c0-5.657-4.663-10.32-10.32-10.32zm0 6.88h58.48c1.948 0 3.44 1.492 3.44 3.44V51.6c0 1.948-1.492 3.44-3.44 3.44h-30.96c-1.41 0-2.674.86-3.185 2.163 0 0-1.612 3.978-4.353 7.902-1.411 2.002-3.064 3.79-4.77 5.093.16-2.19.04-4.287-.189-6.128-.47-3.79-1.438-6.678-1.438-6.678a3.438 3.438 0 00-3.265-2.352H89.44c-1.948 0-3.44-1.492-3.44-3.44V13.76c0-1.948 1.492-3.44 3.44-3.44zm-20.653 6.988h-.256c-13.155.98-21.567 7.981-24.846 17.737-3.117 9.272-2.083 20.68.82 32.693-1.626 1.694-3.225 4.059-3.238 7.929-.027 4.555 1.531 8.076 3.6 10.32 1.183 1.276 2.46 1.424 3.71 1.988.241 3.454.833 6.948 2.082 9.944 1.13 2.728 2.701 4.596 4.368 6.41 0 4.394.026 7.794 0 12.094-1.344 2.889-4.112 5.227-8.318 7.43-4.367 2.312-9.984 4.381-15.615 6.975-5.643 2.593-11.381 5.764-15.936 10.602-4.556 4.837-7.78 11.435-8.291 20.035l-.215 3.668h138.056l-.215-3.668c-.51-8.6-3.735-15.198-8.304-20.049-4.569-4.837-10.306-7.995-15.964-10.602-5.657-2.607-11.26-4.663-15.627-6.974-4.193-2.204-6.948-4.542-8.265-7.404-.04-4.623 0-8.036 0-12.376 1.667-1.76 3.266-3.588 4.354-5.845 1.451-3.01 2.526-5.859 2.526-8.775 0-.94-.376-1.84-1.061-2.5a3.502 3.502 0 00-2.553-.953 6.866 6.866 0 01-6.719-6.867v-6.88c0-3.79-3.09-6.88-6.88-6.88h-3.44c-3.79 0-10.32-3.44-10.32-10.32V21.702c.296-1.062.08-2.218-.605-3.078a3.42 3.42 0 00-2.848-1.316zM99.76 20.64v6.88h24.08v-6.88zm30.96 0v6.88h10.32v-6.88zm-30.96 17.2v6.88h10.32v-6.88zm17.2 0v6.88h24.08v-6.88z" fill="#2138c9"/>
  </g>
</svg>