<svg height="512" viewBox="0 0 64 64" width="512" xmlns="http://www.w3.org/2000/svg"><g id="Twotone"><g id="Color_copy" data-name="Color copy"><g><path d="m19 56a12 12 0 0 1 -12-12v-13h-1a3 3 0 0 0 -3 3v24a3 3 0 0 0 3 3h14a3 3 0 0 0 3-3v-2z" fill="#cff09e"/><path d="m21 40-2-2h-6v14h16v-12z" fill="#79bd9a"/><path d="m57 21h-22a7.991 7.991 0 0 1 -7.288-11.288 8 8 0 0 0 3.288 15.288h22a8 8 0 0 0 7.288-4.712 7.972 7.972 0 0 1 -3.288.712z" fill="#cff09e"/><path d="m13 44h16v8h-16z" fill="#a8dba8"/><path d="m43 53h18v8h-18z" fill="#79bd9a"/><path d="m43 45h18v8h-18z" fill="#79bd9a"/><circle cx="41" cy="23" fill="#a8dba8" r="9"/></g></g><g id="Stroke_Close_copy" data-name="Stroke Close copy"><g fill="#3b8686"><path d="m50.539 26h2.461a9 9 0 0 0 0-18 8.727 8.727 0 0 0 -1.542.139 11.981 11.981 0 0 0 -20.846-.131 9 9 0 0 0 .388 17.992h.461a10 10 0 0 0 19.078 0zm-19.539-2a7 7 0 1 1 .037-14l.147.007a.961.961 0 0 0 .912-.545 9.984 9.984 0 0 1 17.926.246 1 1 0 0 0 1.163.536 7 7 0 1 1 1.815 13.756h-2.051a10 10 0 1 0 -19.9 0zm10 7a8 8 0 1 1 8-8 8.009 8.009 0 0 1 -8 8z"/><path d="m46.657 20.975a8 8 0 0 0 -11.314 0 1 1 0 1 0 1.414 1.414 6 6 0 0 1 8.486 0 1 1 0 1 0 1.414-1.414z"/><path d="m38.172 23.8a1 1 0 0 0 1.414 1.414 2 2 0 0 1 2.828 0 1 1 0 0 0 1.414-1.414 4 4 0 0 0 -5.656 0z"/><circle cx="41" cy="27.632" r="1"/><path d="m29 39h-5v-5a4 4 0 0 0 -4-4h-14a4 4 0 0 0 -4 4v24a4 4 0 0 0 4 4h14a4 4 0 0 0 4-4v-5h5a1 1 0 0 0 1-1v-12a1 1 0 0 0 -1-1zm-1 4h-14v-4h4.586l1.707 1.707a1 1 0 0 0 .707.293h7zm-6 15a2 2 0 0 1 -2 2h-14a2 2 0 0 1 -2-2v-24a2 2 0 0 1 2-2h14a2 2 0 0 1 2 2v5h-.586l-1.707-1.707a1 1 0 0 0 -.707-.293h-6a1 1 0 0 0 -1 1v14a1 1 0 0 0 1 1h9zm6-7h-14v-6h14z"/><circle cx="7" cy="35" r="1"/><circle cx="11" cy="35" r="1"/><path d="m9 57a1 1 0 0 0 1 1h6a1 1 0 0 0 0-2h-6a1 1 0 0 0 -1 1z"/><path d="m39 35a1 1 0 0 0 -1 1v9h-5a1 1 0 0 0 0 2h6a1 1 0 0 0 1-1v-10a1 1 0 0 0 -1-1z"/><path d="m9 28a1 1 0 0 0 1-1v-9h7a1 1 0 0 0 0-2h-8a1 1 0 0 0 -1 1v10a1 1 0 0 0 1 1z"/><circle cx="47" cy="57" r="1"/><circle cx="51" cy="57" r="1"/><path d="m55 58h2a1 1 0 0 0 0-2h-2a1 1 0 0 0 0 2z"/><path d="m61 44h-18a1 1 0 0 0 -1 1v16a1 1 0 0 0 1 1h18a1 1 0 0 0 1-1v-16a1 1 0 0 0 -1-1zm-17 2h16v6h-16zm16 14h-16v-6h16z"/><circle cx="47" cy="49" r="1"/><circle cx="51" cy="49" r="1"/><path d="m57 48h-2a1 1 0 0 0 0 2h2a1 1 0 0 0 0-2z"/><path d="m59 42a1 1 0 0 0 1-1v-10a1 1 0 0 0 -1-1h-8a1 1 0 0 0 0 2h7v9a1 1 0 0 0 1 1z"/></g></g></g></svg>