<?xml version="1.0"?>
<svg xmlns="http://www.w3.org/2000/svg" viewBox="0 0 64 64" width="512" height="512"><g id="protection"><path d="M58,54a4,4,0,0,0-3.858,3H52V48a1,1,0,0,0-1-1H47v2h3v9a1,1,0,0,0,1,1h3.142A3.993,3.993,0,1,0,58,54Zm0,6a2,2,0,1,1,2-2A2,2,0,0,1,58,60Z"/><path d="M12,48v9H9.858a4,4,0,1,0,0,2H13a1,1,0,0,0,1-1V49h3V47H13A1,1,0,0,0,12,48ZM6,60a2,2,0,1,1,2-2A2,2,0,0,1,6,60Z"/><path d="M26,37V49c0,2.062,3.11,3,6,3s6-.938,6-3V37c0-2.062-3.11-3-6-3S26,34.938,26,37Zm2,2.306A10.864,10.864,0,0,0,32,40a10.858,10.858,0,0,0,4-.7v1.648c-.151.3-1.535,1.047-4,1.047-2.484,0-3.874-.754-4-1Zm0,4A10.864,10.864,0,0,0,32,44a10.846,10.846,0,0,0,4.005-.7V44.95c-.143.3-1.53,1.05-4.006,1.05s-3.874-.754-4-1ZM32,50c-2.484,0-3.874-.754-4-1V47.306A10.864,10.864,0,0,0,32,48a10.842,10.842,0,0,0,4.008-.7v1.643C35.874,49.246,34.484,50,32,50Zm0-12c-2.348,0-3.718-.673-3.975-1,.257-.327,1.627-1,3.975-1s3.718.673,3.975,1C35.718,37.327,34.348,38,32,38Z"/><path d="M6,37H8a2,2,0,0,1,2-2V33A4,4,0,0,0,6,37Z"/><path d="M13,26a6.915,6.915,0,0,0,.586,2.794l1.832-.8A4.938,4.938,0,0,1,15,26a5.006,5.006,0,0,1,5-5V19A7.009,7.009,0,0,0,13,26Z"/><path d="M62,14V10a1,1,0,0,0-.758-.97L59.95,8.707l.686-1.143a1,1,0,0,0-.151-1.221L57.657,3.515a1,1,0,0,0-1.221-.151l-1.143.686L54.97,2.758A1,1,0,0,0,54,2H50a1,1,0,0,0-.97.758L48.707,4.05l-1.143-.686a1,1,0,0,0-1.221.151L43.515,6.343a1,1,0,0,0-.151,1.221l.435.725A13.888,13.888,0,0,0,41,8,14.056,14.056,0,0,0,27.586,18.042,11,11,0,0,0,9.424,29.021,8,8,0,0,0,10,45h7.455a21.035,21.035,0,0,0,8.339,12.8l5.625,4.017a1,1,0,0,0,1.162,0L38.206,57.8A21.035,21.035,0,0,0,46.545,45H54a8,8,0,0,0,0-16h-.885A13.8,13.8,0,0,0,55,22c0-.257-.016-.507-.03-.757h0l.323-1.292,1.143.686a1,1,0,0,0,1.221-.151l2.828-2.829a1,1,0,0,0,.151-1.221l-.686-1.142,1.292-.323A1,1,0,0,0,62,14ZM45,40.708a19.04,19.04,0,0,1-7.956,15.461L32,59.771l-5.044-3.6A19.04,19.04,0,0,1,19,40.708V31.659l13-5.571,13,5.571ZM54,31a6,6,0,0,1,0,12H46.868A20.781,20.781,0,0,0,47,40.708V31a1,1,0,0,0-.606-.919l-14-6a1.007,1.007,0,0,0-.788,0l-14,6A1,1,0,0,0,17,31v9.708A20.781,20.781,0,0,0,17.132,43H10a6,6,0,0,1,0-12h.84a1,1,0,0,0,.916-1.4A8.889,8.889,0,0,1,11,26a9,9,0,0,1,16.325-5.22,1,1,0,0,0,1.8-.442A12.038,12.038,0,0,1,41,10c.336,0,.669.017,1,.044V14a1,1,0,0,0,.758.97l1.292.323-.686,1.142a1,1,0,0,0,.151,1.221l2.828,2.829a1,1,0,0,0,1.221.151l1.143-.686.323,1.292A1,1,0,0,0,50,22h3a11.879,11.879,0,0,1-2.557,7.384A1,1,0,0,0,51.23,31Zm6-17.781-1.844.462a1,1,0,0,0-.615,1.484l.979,1.629L56.8,18.52l-1.63-.979a1,1,0,0,0-1.484.615L53.219,20H50.781l-.462-1.844a1,1,0,0,0-1.484-.615l-1.63.979L45.48,16.794l.979-1.629a1,1,0,0,0-.615-1.484L44,13.219V10.781l1.844-.462a1,1,0,0,0,.615-1.484l-.979-1.63L47.205,5.48l1.63.979a1,1,0,0,0,1.484-.615L50.781,4h2.438l.462,1.844a1,1,0,0,0,1.484.615L56.8,5.48,58.52,7.205l-.979,1.63a1,1,0,0,0,.615,1.484L60,10.781Z"/><path d="M52,8a4,4,0,1,0,4,4A4,4,0,0,0,52,8Zm0,6a2,2,0,1,1,2-2A2,2,0,0,1,52,14Z"/><rect x="41" y="34" width="2" height="2"/><rect x="21" y="34" width="2" height="2"/><rect x="31" y="29" width="2" height="2"/><rect x="31" y="55" width="2" height="2"/></g></svg>
