<svg height="512" viewBox="0 0 64 64" width="512" xmlns="http://www.w3.org/2000/svg"><g id="Cloud"><g fill="#9bc9ff"><circle cx="56" cy="49" r="4"/><circle cx="44" cy="53" r="4"/><path d="m23 17a2.006 2.006 0 0 0 -2 2v12a2.006 2.006 0 0 0 2 2h18a2.006 2.006 0 0 0 2-2v-12a2.006 2.006 0 0 0 -2-2zm14 4a2 2 0 1 1 -2 2 2.006 2.006 0 0 1 2-2zm-8 2a2 2 0 1 1 -2-2 2.006 2.006 0 0 1 2 2z"/><circle cx="32" cy="57" r="4"/><path d="m30 11v2h4v-2a2.015 2.015 0 0 0 -2-2 2.006 2.006 0 0 0 -2 2z"/><circle cx="20" cy="53" r="4"/><circle cx="8" cy="49" r="4"/></g><path d="m57 44.1v-3.1a3 3 0 0 0 -3-3h-4a1 1 0 0 1 -1-1v-3.191a10.989 10.989 0 0 0 1.29-21.3 9.014 9.014 0 0 0 -8.29-5.509 8.877 8.877 0 0 0 -3.3.631 12.98 12.98 0 0 0 -23.363 4.5 10.991 10.991 0 0 0 -.337 21.678v3.191a1 1 0 0 1 -1 1h-4a3 3 0 0 0 -3 3v3.1a5 5 0 1 0 2 0v-3.1a1 1 0 0 1 1-1h4a3 3 0 0 0 3-3v-3h8v7a1 1 0 0 1 -1 1h-2a3 3 0 0 0 -3 3v3.1a5 5 0 1 0 2 0v-3.1a1 1 0 0 1 1-1h2a3 3 0 0 0 3-3v-7h4v18.1a5 5 0 1 0 2 0v-18.1h4v7a3 3 0 0 0 3 3h2a1 1 0 0 1 1 1v3.1a5 5 0 1 0 2 0v-3.1a3 3 0 0 0 -3-3h-2a1 1 0 0 1 -1-1v-7h8v3a3 3 0 0 0 3 3h4a1 1 0 0 1 1 1v3.1a5 5 0 1 0 2 0zm-46 4.9a3 3 0 1 1 -3-3 3 3 0 0 1 3 3zm12 4a3 3 0 1 1 -3-3 3 3 0 0 1 3 3zm12 4a3 3 0 1 1 -3-3 3 3 0 0 1 3 3zm12-4a3 3 0 1 1 -3-3 3 3 0 0 1 3 3zm-24-21a1 1 0 0 1 -1-1v-12a1 1 0 0 1 1-1h18a1 1 0 0 1 1 1v12a1 1 0 0 1 -1 1zm10-20h-2v-1a1 1 0 0 1 2 0zm3 2a1 1 0 0 1 1 1v1h-10v-1a1 1 0 0 1 1-1zm7.816 18a2.966 2.966 0 0 0 .184-1v-12a3 3 0 0 0 -3-3h-2v-1a3 3 0 0 0 -3-3h-1v-1a3 3 0 0 0 -6 0v1h-1a3 3 0 0 0 -3 3v1h-2a3 3 0 0 0 -3 3v12a2.966 2.966 0 0 0 .184 1h-3.184a9 9 0 0 1 -.745-17.961 1 1 0 0 0 .906-.835 10.981 10.981 0 0 1 20.3-3.793 1 1 0 0 0 1.321.378 6.909 6.909 0 0 1 3.218-.789 7.01 7.01 0 0 1 6.594 4.67 1 1 0 0 0 .689.634 8.995 8.995 0 0 1 -2.283 17.696zm12.184 20a3 3 0 1 1 3-3 3 3 0 0 1 -3 3z" fill="#57a4ff"/><path d="m30 23a3 3 0 1 0 -3 3 3 3 0 0 0 3-3zm-3 1a1 1 0 1 1 1-1 1 1 0 0 1 -1 1z" fill="#57a4ff"/><path d="m37 20a3 3 0 1 0 3 3 3 3 0 0 0 -3-3zm0 4a1 1 0 1 1 1-1 1 1 0 0 1 -1 1z" fill="#57a4ff"/><path d="m29 28h6v2h-6z" fill="#57a4ff"/><path d="m25 28h2v2h-2z" fill="#57a4ff"/><path d="m37 28h2v2h-2z" fill="#57a4ff"/></g></svg>