<svg height="512" viewBox="0 0 64 64" width="512" xmlns="http://www.w3.org/2000/svg"><g id="multi_server" data-name="multi server"><path d="m26 53a4 4 0 0 0 0-8h-.075a6.752 6.752 0 0 0 .075-1 7.008 7.008 0 0 0 -7-7 6.447 6.447 0 0 0 -3 .737v-5.737a1 1 0 0 0 -1-1h-9v2h8v6.328c-.1.112-.2.22-.295.339a6.3 6.3 0 0 0 -2.705-.667 6.006 6.006 0 0 0 -6 6v.126a4 4 0 0 0 1 7.874h3v6c0 2.061 3.11 3 6 3s6-.939 6-3v-6zm-20-2a2 2 0 0 1 0-4 1 1 0 0 0 1-1v-1a4 4 0 0 1 4-4 4.471 4.471 0 0 1 2.425.818 1 1 0 0 0 1.431-.3 4.842 4.842 0 0 1 4.144-2.518 5.006 5.006 0 0 1 5 5 5.061 5.061 0 0 1 -.294 1.67 1 1 0 0 0 .944 1.33h1.35a2 2 0 0 1 0 4h-5v-4c0-2.061-3.11-3-6-3s-6 .939-6 3v4zm5-1.7a10.844 10.844 0 0 0 4 .7 10.858 10.858 0 0 0 4-.7v1.648c-.151.3-1.535 1.047-4 1.047-2.484 0-3.874-.754-4-1zm.025-2.3c.257-.327 1.627-1 3.975-1s3.718.673 3.975 1c-.257.327-1.627 1-3.975 1s-3.718-.673-3.975-1zm-.025 6.305a10.844 10.844 0 0 0 4 .7 10.846 10.846 0 0 0 4-.7v1.645c-.143.3-1.53 1.05-4.006 1.05s-3.874-.754-4-1zm4 6.695c-2.484 0-3.874-.754-4-1v-1.7a10.844 10.844 0 0 0 4 .7 10.842 10.842 0 0 0 4.008-.7v1.644c-.134.302-1.524 1.056-4.008 1.056z"/><path d="m58 28h-.075a6.752 6.752 0 0 0 .075-1 7.008 7.008 0 0 0 -7-7 6.447 6.447 0 0 0 -3 .737v-2.737h10v-2h-11a1 1 0 0 0 -1 1v5.328c-.1.112-.2.22-.3.339a6.3 6.3 0 0 0 -2.7-.667 6.006 6.006 0 0 0 -6 6v.126a4 4 0 0 0 1 7.874h3v6c0 2.061 3.11 3 6 3s6-.939 6-3v-6h5a4 4 0 0 0 0-8zm-11 5a10.858 10.858 0 0 0 4-.7v1.648c-.151.3-1.535 1.047-4 1.047-2.484 0-3.874-.754-4-1v-1.7a10.844 10.844 0 0 0 4 .705zm-3.975-3c.257-.327 1.627-1 3.975-1s3.718.673 3.975 1c-.257.327-1.627 1-3.975 1s-3.718-.673-3.975-1zm-.025 6.305a11.865 11.865 0 0 0 8.005 0v1.645c-.143.3-1.53 1.05-4.006 1.05s-3.874-.754-4-1zm4 6.695c-2.484 0-3.874-.754-4-1v-1.7a11.857 11.857 0 0 0 8.008 0v1.644c-.134.302-1.524 1.056-4.008 1.056zm11-9h-5v-4c0-2.061-3.11-3-6-3s-6 .939-6 3v4h-3a2 2 0 0 1 0-4 1 1 0 0 0 1-1v-1a4 4 0 0 1 4-4 4.471 4.471 0 0 1 2.425.818 1 1 0 0 0 1.431-.3 4.842 4.842 0 0 1 4.144-2.518 5.006 5.006 0 0 1 5 5 5.061 5.061 0 0 1 -.294 1.67 1 1 0 0 0 .944 1.33h1.35a2 2 0 0 1 0 4z"/><path d="m8 14a4 4 0 0 0 4 4h3v6c0 2.061 3.11 3 6 3s6-.939 6-3v-6h5a4 4 0 0 0 0-8h-.075a6.752 6.752 0 0 0 .075-1 7.008 7.008 0 0 0 -7-7 6.657 6.657 0 0 0 -5.3 2.667 6.3 6.3 0 0 0 -2.7-.667 6.006 6.006 0 0 0 -6 6v.126a4.008 4.008 0 0 0 -3 3.874zm13 1a10.858 10.858 0 0 0 4-.7v1.648c-.151.3-1.535 1.047-4 1.047-2.484 0-3.874-.754-4-1v-1.7a10.844 10.844 0 0 0 4 .705zm-3.975-3c.257-.327 1.627-1 3.975-1s3.718.673 3.975 1c-.257.327-1.627 1-3.975 1s-3.718-.673-3.975-1zm-.025 6.305a10.844 10.844 0 0 0 4 .7 10.846 10.846 0 0 0 4-.7v1.645c-.143.3-1.53 1.05-4.006 1.05s-3.874-.754-4-1zm4 6.695c-2.484 0-3.874-.754-4-1v-1.7a10.844 10.844 0 0 0 4 .7 10.842 10.842 0 0 0 4.008-.7v1.644c-.134.302-1.524 1.056-4.008 1.056zm-9-13a1 1 0 0 0 1-1v-1a4 4 0 0 1 4-4 4.471 4.471 0 0 1 2.425.818 1 1 0 0 0 1.431-.3 4.842 4.842 0 0 1 4.144-2.518 5.006 5.006 0 0 1 5 5 5.061 5.061 0 0 1 -.294 1.67 1 1 0 0 0 .944 1.33h1.35a2 2 0 0 1 0 4h-5v-4c0-2.061-3.11-3-6-3s-6 .939-6 3v4h-3a2 2 0 0 1 0-4z"/><path d="m46 56h-6.184a3 3 0 0 0 -1.816-1.816v-11.184a1 1 0 0 0 -1-1h-7v-10a1 1 0 0 0 -1-1h-7v-2h-2v3a1 1 0 0 0 1 1h7v10a1 1 0 0 0 1 1h7v10.184a3 3 0 0 0 -1.816 1.816h-11.184v2h11.184a2.982 2.982 0 0 0 5.632 0h7.184a1 1 0 0 0 1-1v-10h-2zm-9 2a1 1 0 1 1 1-1 1 1 0 0 1 -1 1z"/><path d="m34 6h24v2h-24z"/><path d="m60 6h2v2h-2z"/><path d="m6 6h4v2h-4z"/><path d="m2 6h2v2h-2z"/><path d="m60 16h2v2h-2z"/><path d="m2 31h2v2h-2z"/></g></svg>