<svg xmlns="http://www.w3.org/2000/svg" x="0px" y="0px"
width="60" height="60"
viewBox="0 0 172 172"
style=" fill:#000000;"><g fill="none" fill-rule="nonzero" stroke="none" stroke-width="1" stroke-linecap="butt" stroke-linejoin="miter" stroke-miterlimit="10" stroke-dasharray="" stroke-dashoffset="0" font-family="none" font-weight="none" font-size="none" text-anchor="none" style="mix-blend-mode: normal"><path d="M0,172v-172h172v172z" fill="none"></path><g fill="#3498db"><path d="M13.70625,10.27297c-1.89722,0.02966 -3.41223,1.58976 -3.38625,3.48703v147.92h108.01735h21.32531h22.01735c1.24059,0.01754 2.39452,-0.63425 3.01993,-1.7058c0.62541,-1.07155 0.62541,-2.39684 0,-3.46839c-0.62541,-1.07155 -1.77935,-1.72335 -3.01993,-1.7058h-13.99515c0.14145,-0.76536 0.23515,-1.55725 0.23515,-2.40531v-71.0575c0,-0.93224 0.78776,-1.72 1.72,-1.72c0.93224,0 1.72,0.78776 1.72,1.72v28.74281c0,3.79776 3.08568,6.88 6.88,6.88c3.79432,0 6.88,-3.08224 6.88,-6.88v-39.56c0,-10.43352 -8.48648,-18.92 -18.92,-18.92h-34.4c-10.43352,0 -18.92,8.48648 -18.92,18.92v39.56c0,3.79776 3.08568,6.88 6.88,6.88c3.79432,0 6.88,-3.08224 6.88,-6.88v-29.34078c0,-0.93224 0.78776,-1.72 1.72,-1.72c0.93224,0 1.72,0.78776 1.72,1.72v71.65547c0,0.84807 0.09383,1.63995 0.23515,2.40531h-24.31515v-82.56h-20.64v82.56h-6.88v-58.48h-20.64v58.48h-6.88v-37.84h-13.76v-103.2c0.01273,-0.92983 -0.35149,-1.82522 -1.00967,-2.48214c-0.65819,-0.65692 -1.55427,-1.01942 -2.48408,-1.00489zM129,10.32c-10.43352,0 -18.92,8.48648 -18.92,18.92c0,10.43352 8.48648,18.92 18.92,18.92c10.43352,0 18.92,-8.48648 18.92,-18.92c0,-10.43352 -8.48648,-18.92 -18.92,-18.92zM129,115.24c0.94944,0 1.72,0.77056 1.72,1.72v36.43578c0.01376,0.02064 0.03999,0.03311 0.05375,0.05375c0.04627,0.46706 0.1495,0.91028 0.25531,1.35047h-4.06485c0.18565,-0.76826 0.31578,-1.55974 0.31578,-2.40531v-35.43469c0,-0.94944 0.77056,-1.72 1.72,-1.72z"></path></g></g></svg>