<svg xmlns="http://www.w3.org/2000/svg" x="0px" y="0px"
width="100" height="100"
viewBox="0 0 172 172"
style=" fill:#000000;"><g fill="none" fill-rule="nonzero" stroke="none" stroke-width="1" stroke-linecap="butt" stroke-linejoin="miter" stroke-miterlimit="10" stroke-dasharray="" stroke-dashoffset="0" font-family="none" font-weight="none" font-size="none" text-anchor="none" style="mix-blend-mode: normal"><path d="M0,172v-172h172v172z" fill="none"></path><g fill="#ffffff"><path d="M51.6,10.32c-5.68976,0 -10.32,4.63024 -10.32,10.32v130.72c0,5.68976 4.63024,10.32 10.32,10.32h68.8c5.68976,0 10.32,-4.63024 10.32,-10.32v-30.96h-6.88v13.76h-75.68v-99.76h75.68v13.76h6.88v-27.52c0,-5.68976 -4.63024,-10.32 -10.32,-10.32zM79.12,55.04v0.5039c15.72768,13.56048 36.04367,31.07272 37.43687,32.2836c1.71656,1.49296 3.37529,1.6125 3.84313,1.6125c0.602,0 2.17472,-0.16082 3.84313,-1.6125c1.36912,-1.19024 21.47871,-18.58294 37.43687,-32.3911v-0.3964zM161.68,64.5336c-7.85696,6.79744 -16.1651,13.98118 -22.48094,19.45078l22.48094,18.01297zM79.12,64.62765v37.15469l22.44063,-17.79797c-6.34336,-5.4696 -14.65935,-12.64528 -22.44063,-19.35672zM106.86172,88.55313l-27.74172,22.0039v2.96297h82.56v-2.70765l-27.7686,-22.2525c-2.8552,2.47336 -4.76128,4.12413 -5.14656,4.46125c-3.4228,2.9756 -6.99229,3.2989 -8.36485,3.2989c-1.37256,0 -4.93532,-0.32003 -8.35813,-3.29219c-0.39216,-0.34056 -2.31119,-2.00133 -5.18015,-4.47469zM75.68,144.48h20.64c1.90232,0 3.44,1.53768 3.44,3.44c0,1.90232 -1.53768,3.44 -3.44,3.44h-20.64c-1.90232,0 -3.44,-1.53768 -3.44,-3.44c0,-1.90232 1.53768,-3.44 3.44,-3.44z"></path></g></g></svg>