<svg xmlns="http://www.w3.org/2000/svg" x="0px" y="0px"
width="60" height="60"
viewBox="0 0 172 172"
style=" fill:#000000;"><g fill="none" fill-rule="nonzero" stroke="none" stroke-width="1" stroke-linecap="butt" stroke-linejoin="miter" stroke-miterlimit="10" stroke-dasharray="" stroke-dashoffset="0" font-family="none" font-weight="none" font-size="none" text-anchor="none" style="mix-blend-mode: normal"><path d="M0,172v-172h172v172z" fill="none"></path><g fill="#2ecc71"><path d="M86.27547,6.88c-43.65603,0 -79.12,35.46397 -79.12,79.12c0,43.65603 35.46397,79.12 79.12,79.12c43.65603,0 79.12,-35.46397 79.12,-79.12c0,-43.65603 -35.46397,-79.12 -79.12,-79.12zM86.27547,13.76c39.9378,0 72.24,32.30221 72.24,72.24c0,39.93779 -32.3022,72.24 -72.24,72.24c-39.93779,0 -72.24,-32.30221 -72.24,-72.24c0,-39.93779 32.30221,-72.24 72.24,-72.24zM82.83547,21.09688c-8.91648,2.19472 -16.80682,12.7566 -21.82922,27.76188c6.92472,1.41728 14.27842,2.24954 21.82922,2.44562zM89.71547,21.09688v30.2075c7.62648,-0.19264 14.98314,-1.00211 21.84938,-2.39187c-5.0224,-15.0328 -12.92602,-25.6209 -21.84938,-27.81562zM67.07328,23.52906c-11.02864,3.39528 -20.77207,9.67371 -28.46735,17.89875c4.68184,2.32888 9.93854,4.27388 15.60766,5.81844c3.20952,-9.79368 7.61025,-17.91735 12.85969,-23.71719zM105.47765,23.52906c5.25976,5.81016 9.67033,13.9599 12.87985,23.77766c5.72072,-1.55832 10.97478,-3.53234 15.57406,-5.89906c-7.69184,-8.21816 -17.43559,-14.48675 -28.45391,-17.87859zM138.43313,46.78265c-5.31824,2.88616 -11.44558,5.27476 -18.17422,7.11516c2.20504,8.66536 3.52498,18.34219 3.76922,28.66219h27.43265c-0.70176,-13.38848 -5.43214,-25.70159 -13.02765,-35.77735zM34.08422,46.82297c-7.57832,10.06888 -12.2923,22.36575 -12.99406,35.73703h27.43266c0.24424,-10.34064 1.56729,-20.03682 3.78265,-28.71594c-6.66672,-1.8232 -12.81013,-4.1831 -18.22125,-7.0211zM59.03765,55.46328c-2.1156,8.2044 -3.38372,17.41656 -3.63484,27.09672h27.43265v-24.37563c-8.21472,-0.2064 -16.24357,-1.13525 -23.79781,-2.72109zM113.52,55.51703c-7.49232,1.55832 -15.51413,2.46783 -23.80453,2.66734v24.37563h27.43266c-0.25112,-9.65952 -1.51941,-18.85233 -3.62813,-27.04297zM21.09016,89.44c0.70176,13.38848 5.43214,25.70159 13.02766,35.77735c5.31824,-2.88616 11.44558,-5.27476 18.17422,-7.11516c-2.20504,-8.66536 -3.52498,-18.34219 -3.76922,-28.66219zM55.40281,89.44c0.25112,9.65952 1.5194,18.85233 3.62812,27.04297c7.49232,-1.55832 15.51413,-2.46783 23.80453,-2.66734v-24.37563zM89.71547,89.44v24.37563c8.21472,0.2064 16.23686,1.13525 23.7911,2.72109c2.1156,-8.2044 3.39044,-17.41656 3.64156,-27.09672zM124.02813,89.44c-0.24424,10.34064 -1.5673,20.03682 -3.78266,28.71594c6.66672,1.8232 12.81013,4.1831 18.22125,7.0211c7.57832,-10.06888 12.2923,-22.36575 12.99406,-35.73703zM82.83547,120.69563c-7.62648,0.19264 -14.98313,1.00211 -21.84937,2.39187c5.0224,15.0328 12.92601,25.62091 21.84937,27.81563zM89.71547,120.69563v30.2075c8.91648,-2.19472 16.80682,-12.7566 21.82922,-27.76188c-6.92472,-1.41728 -14.27842,-2.24954 -21.82922,-2.44562zM54.19344,124.69328c-5.72072,1.55832 -10.97478,3.53234 -15.57406,5.89906c7.69184,8.21816 17.43559,14.48675 28.45391,17.87859c-5.25976,-5.81016 -9.67033,-13.95989 -12.87985,-23.77765zM118.33735,124.75375c-3.20952,9.79368 -7.61697,17.91735 -12.86641,23.71719c11.02864,-3.39528 20.77878,-9.67371 28.47406,-17.89875c-4.68184,-2.32888 -9.93853,-4.27388 -15.60765,-5.81844z"></path></g></g></svg>