<svg xmlns="http://www.w3.org/2000/svg" x="0px" y="0px"
width="100" height="100"
viewBox="0 0 172 172"
style=" fill:#000000;"><g fill="none" fill-rule="nonzero" stroke="none" stroke-width="1" stroke-linecap="butt" stroke-linejoin="miter" stroke-miterlimit="10" stroke-dasharray="" stroke-dashoffset="0" font-family="none" font-weight="none" font-size="none" text-anchor="none" style="mix-blend-mode: normal"><path d="M0,172v-172h172v172z" fill="none"></path><g fill="#ffffff"><path d="M130.72,0v13.76h17.845l-31.605,31.605l-8.9225,-8.9225l-4.8375,-4.945l-4.8375,4.945l-36.4425,36.4425l-8.9225,-8.9225l-4.8375,-4.945l-4.8375,4.945l-41.28,41.28l9.675,9.675l36.4425,-36.4425l8.9225,8.9225l4.8375,4.945l4.8375,-4.945l36.4425,-36.4425l8.9225,8.9225l4.8375,4.945l4.8375,-4.945l36.4425,-36.4425v17.845h13.76v-41.28zM151.36,51.6v120.4h13.76v-120.4zM103.2,68.8v103.2h13.76v-103.2zM127.28,68.8v103.2h13.76v-103.2zM79.12,82.56v89.44h13.76v-89.44zM55.04,103.2v68.8h13.76v-68.8zM30.96,106.64v65.36h13.76v-65.36zM6.88,130.72v41.28h13.76v-41.28z"></path></g></g></svg>