<svg xmlns="http://www.w3.org/2000/svg" x="0px" y="0px"
width="100" height="100"
viewBox="0 0 172 172"
style=" fill:#000000;"><g fill="none" fill-rule="nonzero" stroke="none" stroke-width="1" stroke-linecap="butt" stroke-linejoin="miter" stroke-miterlimit="10" stroke-dasharray="" stroke-dashoffset="0" font-family="none" font-weight="none" font-size="none" text-anchor="none" style="mix-blend-mode: normal"><path d="M0,172v-172h172v172z" fill="none"></path><g fill="#ffffff"><path d="M158.24,68.8c1.90813,0 3.44,-1.54531 3.44,-3.44v-13.76c0,-1.89469 -1.53187,-3.44 -3.44,-3.44h-34.4v-34.4c0,-1.89469 -1.53187,-3.44 -3.44,-3.44h-13.76c-1.90812,0 -3.44,1.54531 -3.44,3.44v34.4h-34.4v-34.4c0,-1.89469 -1.54531,-3.44 -3.44,-3.44h-13.76c-1.89469,0 -3.44,1.54531 -3.44,3.44v34.4h-34.4c-1.89469,0 -3.44,1.54531 -3.44,3.44v13.76c0,1.89469 1.54531,3.44 3.44,3.44h34.4v34.4h-34.4c-1.89469,0 -3.44,1.53188 -3.44,3.44v13.76c0,1.90813 1.54531,3.44 3.44,3.44h34.4v34.4c0,1.90813 1.54531,3.44 3.44,3.44h13.76c1.89469,0 3.44,-1.53187 3.44,-3.44v-34.4h34.4v34.4c0,1.90813 1.53188,3.44 3.44,3.44h13.76c1.90813,0 3.44,-1.53187 3.44,-3.44v-34.4h34.4c1.90813,0 3.44,-1.53187 3.44,-3.44v-13.76c0,-1.90812 -1.53187,-3.44 -3.44,-3.44h-34.4v-34.4zM103.2,103.2h-34.4v-34.4h34.4z"></path></g></g></svg>