<svg height="512" viewBox="0 0 512 512" width="512" xmlns="http://www.w3.org/2000/svg"><path d="m120 72h320a32 32 0 0 1 32 32v248a24 24 0 0 1 -24 24h-336a24 24 0 0 1 -24-24v-248a32 32 0 0 1 32-32z" fill="#4db7e5"/><path d="m440 72h-8v304h16v-302.992a32.066 32.066 0 0 0 -8-1.008z" fill="#48add9"/><path d="m400 24h-240a32 32 0 0 0 -32 32v336h304v-336a32 32 0 0 0 -32-32z" fill="#348fd9"/><path d="m432 100-292 292h292z" fill="#3086cd"/><g fill="#2a71ad"><path d="m159.996 48h16v16h-16z"/><path d="m191.996 48h16v16h-16z"/><path d="m223.996 48h16v16h-16z"/><path d="m160 80h240v16h-240z"/></g><path d="m384 224q0 4.035-.3 8a103.866 103.866 0 0 1 -89.22 94.99c-2.14.31-4.3.54-6.48.71q-3.96.3-8 .3t-8-.3c-2.18-.17-4.34-.4-6.48-.71a102.673 102.673 0 0 1 -24.22-6.43 103.993 103.993 0 0 1 -65-88.56q-.3-3.96-.3-8t.3-8a103.683 103.683 0 0 1 21.72-56 104.3 104.3 0 0 1 43.3-32.57 102.991 102.991 0 0 1 23.07-6.26q3.765-.57 7.61-.87 3.96-.3 8-.3t8 .3c2.18.17 4.34.4 6.48.71a102.625 102.625 0 0 1 24.2 6.42 104.352 104.352 0 0 1 53.6 48.57 103.167 103.167 0 0 1 11.42 40q.3 3.96.3 8z" fill="#4db7e5"/><path d="m383.7 232q.3-3.96.3-8t-.3-8h-39.85a203.479 203.479 0 0 0 -5.48-40h33.91a103.39 103.39 0 0 0 -10.3-16h-28.24a164.522 164.522 0 0 0 -15.06-32.57 102.625 102.625 0 0 0 -24.2-6.42l5.58 7.2a140.136 140.136 0 0 1 16.69 31.79h-28.75v-39.7q-3.96-.3-8-.3t-8 .3v39.7h-28.75a139.619 139.619 0 0 1 16.78-31.91c.1-.13.18-.27.27-.4l4.09-6.52a102.991 102.991 0 0 0 -23.07 6.26 164 164 0 0 0 -15.06 32.57h-28.24a103.39 103.39 0 0 0 -10.3 16h33.91a203.273 203.273 0 0 0 -5.48 40h-39.85q-.3 3.96-.3 8t.3 8h39.86a200.472 200.472 0 0 0 7.64 48h-31.46a104.41 104.41 0 0 0 12.62 16h24.26a155.639 155.639 0 0 0 12.08 24.56 102.673 102.673 0 0 0 24.22 6.43l-5.58-7.21a132.481 132.481 0 0 1 -13.41-23.78h25.47v31.7q3.96.3 8 .3t8-.3v-31.7h25.47a131.953 131.953 0 0 1 -13.41 23.78l-5.58 7.21a102.673 102.673 0 0 0 24.22-6.43 154.767 154.767 0 0 0 12.08-24.56h24.26a104.41 104.41 0 0 0 12.62-16h-31.46a200.792 200.792 0 0 0 7.64-48zm-111.7 48h-31.47a182.9 182.9 0 0 1 -8.36-48h39.83zm0-64h-39.84a185.906 185.906 0 0 1 5.97-40h33.87zm47.47 64h-31.47v-48h39.83a183.261 183.261 0 0 1 -8.36 48zm-31.47-64v-40h33.87a186.186 186.186 0 0 1 5.97 40z" fill="#60d1e0"/><path d="m332.686 368a27.313 27.313 0 0 1 -19.313 8h-65.373a27.317 27.317 0 0 1 -19.314-8 27.313 27.313 0 0 0 -19.313-8h-137.373v24a24 24 0 0 0 24 24h368a24 24 0 0 0 24-24v-24h-136a27.317 27.317 0 0 0 -19.314 8z" fill="#e0e0de"/><path d="m456 360v24a24 24 0 0 1 -24 24h32a24 24 0 0 0 24-24v-24z" fill="#d6d6d4"/><path d="m248 370v100a17.778 17.778 0 0 1 -2.46 9.07 17.967 17.967 0 0 1 -15.54 8.93h-188a17.967 17.967 0 0 1 -15.54-8.93 17.778 17.778 0 0 1 -2.46-9.07v-100a17.778 17.778 0 0 1 2.46-9.07 17.967 17.967 0 0 1 15.54-8.93h188a17.967 17.967 0 0 1 15.54 8.93 17.778 17.778 0 0 1 2.46 9.07z" fill="#ffb531"/><path d="m245.54 360.93c-24.77 13.79-64.61 22.74-109.54 22.74s-84.77-8.95-109.54-22.74a17.967 17.967 0 0 1 15.54-8.93h188a17.967 17.967 0 0 1 15.54 8.93z" fill="#ffcb73"/><path d="m245.54 479.07a17.967 17.967 0 0 1 -15.54 8.93h-188a17.967 17.967 0 0 1 -15.54-8.93c24.77-13.79 64.61-22.74 109.54-22.74s84.77 8.95 109.54 22.74z" fill="#ffa912"/><path d="m136 216a88 88 0 0 0 -88 88v48h32v-48a56 56 0 0 1 112 0v48h32v-48a88 88 0 0 0 -88-88z" fill="#e0e0de"/><path d="m160 416a24 24 0 1 0 -32 22.525v17.475h16v-17.474a23.96 23.96 0 0 0 16-22.526z" fill="#95573a"/></svg>