<svg height="464pt" viewBox="-16 0 464 464" width="464pt" xmlns="http://www.w3.org/2000/svg"><path d="m280 0h-80c-8.800781 0-16 7.199219-16 16v16l32 8v48h48v-48l32-8v-16c0-8.800781-7.199219-16-16-16zm0 0" fill="#878b9b"/><path d="m432 272c0 106.039062-85.960938 192-192 192s-192-85.960938-192-192 85.960938-192 192-192 192 85.960938 192 192zm0 0" fill="#4a4a56"/><path d="m216 40h48l32-8v-16c0-8.800781-7.199219-16-16-16h-80c-8.800781 0-16 7.199219-16 16v16zm0 0" fill="#4a4a56"/><path d="m240 440c-92.800781 0-168-75.199219-168-168v-8h48v16h-32c4.800781 84 76 148 160 144s148-76 144-160c-4-77.601562-66.398438-140-144-144v24h-16v-40h8c92.800781 0 168 75.199219 168 168s-75.199219 168-168 168zm0 0" fill="#878b9b"/><path d="m346.5 114.183594 32.242188-32.242188 11.316406 11.3125-32.246094 32.242188zm0 0" fill="#878b9b"/><path d="m362.5 77.820312 11.316406-11.3125 32.242188 32.242188-11.3125 11.3125zm0 0" fill="#4a4a56"/><g fill="#878b9b"><path d="m306.460938 154.222656 23.757812-23.757812 11.3125 11.3125-23.757812 23.761718zm0 0"/><path d="m368 264h32v16h-32zm0 0"/><path d="m232 400h16v32h-16zm0 0"/><path d="m322.457031 365.777344 11.316407-11.3125 23.757812 23.757812-11.3125 11.3125zm0 0"/><path d="m122.460938 386.222656 23.757812-23.761718 11.3125 11.316406-23.757812 23.757812zm0 0"/></g><path d="m240 280-32 64h-32v-32l56-40zm0 0" fill="#5da364"/><path d="m72 200h-56c-8.800781 0-16-7.199219-16-16v-104c0-8.800781 7.199219-16 16-16h152c8.800781 0 16 7.199219 16 16v104c0 8.800781-7.199219 16-16 16h-48l-24 32zm0 0" fill="#f4c167"/><path d="m32 160h16v16h-16zm0 0" fill="#4a4a56"/><path d="m32 88h16v56h-16zm0 0" fill="#4a4a56"/><path d="m72 104h80v16h-80zm0 0" fill="#4a4a56"/><path d="m72 136h80v16h-80zm0 0" fill="#4a4a56"/></svg>