<svg height="464pt" viewBox="0 -44 464 464" width="464pt" xmlns="http://www.w3.org/2000/svg"><path d="m16 0h432c8.800781 0 16 7.199219 16 16v304c0 8.800781-7.199219 16-16 16h-432c-8.800781 0-16-7.199219-16-16v-304c0-8.800781 7.199219-16 16-16zm0 0" fill="#d6d7d8"/><path d="m0 64h464v-48c0-8.800781-7.199219-16-16-16h-432c-8.800781 0-16 7.199219-16 16zm0 0" fill="#4a4a56"/><path d="m24 24h16v16h-16zm0 0" fill="#dd5b5b"/><path d="m56 24h16v16h-16zm0 0" fill="#edc17c"/><path d="m88 24h16v16h-16zm0 0" fill="#2ab793"/><path d="m120 24h320v16h-320zm0 0" fill="#878b9b"/><path d="m32 96h112v16h-112zm0 0" fill="#b4b4b5"/><path d="m40 136h208v64h-208zm0 0" fill="#edd9be"/><path d="m40 232h208v64h-208zm0 0" fill="#edd9be"/><path d="m368 136 96 32v60c0 56.800781-30.398438 109.601562-79.199219 138.398438l-16.800781 9.601562-16.800781-9.601562c-48.800781-28.796876-79.199219-81.597657-79.199219-138.398438v-60zm0 0" fill="#239172"/><path d="m364 351.199219-8-13.597657c44.800781-26.402343 68-67.203124 68-123.203124v-14.398438h16v13.601562c0 62.398438-25.601562 108-76 137.597657zm0 0" fill="#2ab793"/><g fill="#ceb195"><path d="m64 256h16v16h-16zm0 0"/><path d="m96 256h16v16h-16zm0 0"/><path d="m128 256h16v16h-16zm0 0"/><path d="m160 256h16v16h-16zm0 0"/><path d="m192 256h16v16h-16zm0 0"/><path d="m224 256h16v16h-16zm0 0"/></g></svg>