<svg id="Layer_1_1_" enable-background="new 0 0 64 64" height="512" viewBox="0 0 64 64" width="512" xmlns="http://www.w3.org/2000/svg"><path style="fill:#335EEA;" d="m61 52h-7v-6.997l3.184 2.07c.164.106.354.162.545.162.069 0 .139-.007.208-.021.259-.056.486-.211.631-.434l3.271-5.03c.301-.463.17-1.082-.293-1.383l-7.546-4.907v-32.46c0-.553-.448-1-1-1h-50c-.552 0-1 .447-1 1v54c0 2.757 2.243 5 5 5h50c2.757 0 5-2.243 5-5v-4c0-.553-.448-1-1-1zm-3.564-7.148-10.898-7.087 2.181-3.354 10.898 7.087zm-47.436 8.148v4c0 .795-.313 1.551-.872 2.118-.577.569-1.333.882-2.128.882-1.654 0-3-1.346-3-3v-53h48v30.159l-3.029-1.97c-.222-.145-.494-.195-.753-.141-.259.056-.486.211-.631.434l-1.089 1.675-4.948-3.217c.921-1.783 1.45-3.799 1.45-5.94 0-2.8-.899-5.389-2.411-7.514l3.035-2.836c.414.216.878.35 1.376.35 1.654 0 3-1.346 3-3s-1.346-3-3-3-3 1.346-3 3c0 .425.092.829.252 1.196l-2.942 2.75c-2.364-2.43-5.661-3.946-9.31-3.946-3.661 0-6.966 1.526-9.331 3.969l-1.919-1.777c.159-.366.25-.768.25-1.192 0-1.654-1.346-3-3-3s-3 1.346-3 3c0 .8.319 1.523.831 2.061l-4.45 9.977c-.126-.016-.25-.038-.381-.038-1.654 0-3 1.346-3 3s1.346 3 3 3 3-1.346 3-3c0-.8-.319-1.523-.831-2.061l4.45-9.977c.126.016.25.038.381.038.5 0 .964-.134 1.379-.352l2.012 1.864c-1.5 2.119-2.391 4.699-2.391 7.488 0 7.168 5.832 13 13 13 4.312 0 8.129-2.119 10.496-5.361l4.912 3.195-1.092 1.679c-.301.463-.17 1.082.293 1.383l7.391 4.806v8.298h-41c-.552 0-1 .447-1 1zm29.12-34.144-4.511 4.208c-.266-.63-.661-1.189-1.146-1.656l4.387-4.1c.467.477.895.993 1.27 1.548zm-9.12 3.144c1.654 0 3 1.346 3 3s-1.346 3-3 3-3-1.346-3-3 1.346-3 3-3zm1.701-1.682c-.534-.195-1.101-.318-1.701-.318-.603 0-1.174.124-1.71.321l-4.624-4.299c1.793-1.269 3.975-2.022 6.334-2.022 2.349 0 4.524.747 6.313 2.007zm-9.568-2.991 4.396 4.087c-.487.471-.88 1.036-1.145 1.67l-4.523-4.199c.376-.558.804-1.078 1.272-1.558zm-2.256 3.372 5.174 4.803c.256 2.519 2.364 4.498 4.949 4.498 2.592 0 4.706-1.991 4.951-4.52l5.157-4.811c.573 1.33.892 2.794.892 4.331 0 6.065-4.935 11-11 11s-11-4.935-11-11c0-1.526.313-2.979.877-4.301zm24.123-8.699c0-.552.449-1 1-1s1 .448 1 1-.449 1-1 1-1-.448-1-1zm-29 1c0-.552.449-1 1-1s1 .448 1 1-.449 1-1 1-1-.448-1-1zm-5 15c0 .552-.449 1-1 1s-1-.448-1-1 .449-1 1-1 1 .448 1 1zm50 29c0 1.654-1.346 3-3 3h-46c.649-.867 1-1.91 1-3v-3h48z"/><path style="fill:#335EEA;" d="m49 47h-2v-4h-2v4h-2v-7h-2v7h-2v-8h-2v8h-2v-5h-2v5h-2v-7h-2v7h-2v-4h-2v4h-2v-6h-2v6h-2v-9h-2v9h-2v-13h-2v13h-2v-5h-2v5h-2v2h42z"/></svg>