<?xml version="1.0" encoding="utf-8"?>
<!-- Generator: Adobe Illustrator 23.1.0, SVG Export Plug-In . SVG Version: 6.00 Build 0)  -->
<svg version="1.1" id="Layer_1" xmlns="http://www.w3.org/2000/svg" xmlns:xlink="http://www.w3.org/1999/xlink" x="0px" y="0px"
	 viewBox="0 0 841.9 595.3" style="enable-background:new 0 0 841.9 595.3;" xml:space="preserve">
<style type="text/css">
	.st0{fill:#F0F1F5;}
	.st1{fill:#4162AD;}
	.st2{fill:#3F3F3F;}
	.st3{fill:#8D9DCF;}
	.st4{fill:#F2AEB3;}
	.st5{fill:#686869;}
	.st6{fill:#677ABA;}
	.st7{fill:#CED5EC;}
	.st8{fill:#F6EBF0;}
	.st9{fill:#D0D1D7;}
	.st10{fill:#FEFEFE;}
	.st11{fill:#E2E3E9;}
	.st12{fill:#B5B6BA;}
	.st13{fill:#FFFFFF;}
	.st14{fill:#FAE1E7;}
</style>
<path class="st0" d="M107.2,314c-5.4-4.6-8.7-10.3-9.5-17.3c-1.1-10,2.8-18.9,5.9-28c0.6-1.9,1.5-3.7,1.3-5.7c1.1,0.3,2.1,0.7,3.2,1
	c0.1,0.5,0.5,0.6,0.9,0.4c3.6,1.4,7.3,2.5,11.1,3.1c10.7,1.7,17.2-2.8,19-13.3c1.3-7.6,7.1-13.1,14.9-13.8c5-0.5,8.5-2.7,10.3-7.4
	c1.1-2.8,1.5-5.6,1.6-8.6c10.7,4.2,21.2,8.7,29.5,17.2c5.9,6,9.2,13.6,12.7,21c2.7,5.8,6.3,10.7,11.1,14.7c3.1,2.6,7,1.9,10.4,1.3
	c7.7-1.2,14.3-5,20.1-10.2c0.9,2.9,3.8,4.5,5,7.2c-0.1,2.4,1.4,3.5,3.5,4c1,0.2,2.2-0.3,2.7,1.1c0.5,1.5-0.9,1.9-1.6,2.8
	c-2.5,3.5-7.1,5.8-6.3,11.2c-1.8-0.1-3.2,0.7-4.6,1.8c-9.8,7.2-20.4,11.1-32.9,8.9c-9.2-1.6-17.9-4.5-26.4-8.2
	c-0.4-0.6-0.9-0.8-1.6-0.8c-0.1-1.7-1.2-2.6-2.6-3.2c-3.4-1.7-6.2-4.1-8.7-6.8c-3-3.2-6.4-6-9.1-9.4c4.1,9.3,11.5,15.1,20.4,19.5
	c0,0.3,0,0.5,0,0.8c0.5,6.7,1.1,13.3,1.6,20c1.6,3.7,1.4,7.8,2.7,11.5c2.7,7.5,6.3,14.7,8.9,22.3c0.9,2.6,0.8,6,3.7,7.8
	c1.9,6.7,3.7,13.3,5.6,20c1,3.5,2.3,7,3,10.6c0.4,2.2,1.7,2.4,3.3,2.4c0.4,5.8-0.2,11.5,1.5,17.3c0.8,2.8,1.1,6.3-1.4,9
	c-4.5,2.8-9,5.7-13.5,8.5c-11.6,5.6-23.8,7.3-36.5,5.2c-7.2-0.5-13.3-2.7-16.3-10.2c-1-2.5-1-5.6-3.3-7.5c-0.9-3.7-1.7-7.4-2.8-12
	c-0.6,1.8-0.9,2.6-1.2,3.5c-1.8,6.4-3.5,12.8-6.4,18.8c-2.5,5.1-3.8,5.7-9.4,5.2c-7.4-0.7-14.6-2.7-21.8-4.7
	c-1.1-0.3-2.3-1.6-3.6-0.4c-0.8-1.6-2.3-2-3.8-2.6c-4.8-1.9-7.7-5.1-8.6-10.5c-3.2-18.6-0.6-36.5,5.8-54.1
	c4.6-12.5,8.3-25.4,12.3-38.1c0.4-1.3,0.2-2.9,0.3-4.4c2,0,2.3-1.4,2.7-2.9c2.3-9,4.6-17.9,6.8-26.9c0.4-1.8,0.9-4-0.9-6.3
	C113.8,291.1,111.3,302.8,107.2,314z"/>
<path class="st1" d="M577,143.6c-2.4-11.3-0.6-21.8,6.9-30.6c6.6-7.7,6.7-15.8,4.3-25c-2.2-8.7-5.2-17.2-2.9-26.6
	c2.4-9.8,8.9-15.7,17.9-18.3c10-2.9,19.9-1.8,28.3,5.1c7.1,5.9,9.4,14,8.4,23c-0.7,6.1-2.2,12-3.8,17.9c-2,7.2-2.7,14.4,2.4,20.9
	c0.8,1.4,1.5,2.6,1.8,4.3c1,6.4,2.6,12.7,4.1,19c1.2,4.8,3.3,9.7,1.2,14.8c-2.9,3.1-5.4,6.4-9.2,8.5c-7.4,3.9-15.3,5-23.4,4.8
	c0-7.5,0.1-14.9-0.1-22.4c0-2.5,0.6-3.6,3.3-3.5c3.7,0.1,7-1.2,10.2-3.1c4.5-2.7,7.2-9.8,5.3-14c-0.4,1.2-0.7,2.2-0.9,3.2
	c-1.4,7.5-5,11.1-12.5,12.4c-4.7,0.8-5.3,0.2-5.3-4.5c0-16.8,0-33.6,0-50.4c0-1.3,0.6-2.8-1.5-4.4c0,5.9,0,11,0,16.2
	c0,1.4,0.5,2.9-1.8,3.3c-4.6,0.7-10.1-3-11.1-7.6c-0.1-0.7,0.2-1.7-1.1-1.6c-0.8,5.8,3.4,10.3,10.4,10.6c2.6,0.1,3.7,0.7,3.7,3.6
	c-0.1,20.8-0.1,41.6-0.2,62.4c-2.7,0-5.3-0.1-8-0.1c-7.3-1.3-14.5-3-20.2-8.2C580.3,150.5,578.5,147.2,577,143.6z"/>
<path class="st2" d="M108,264c-1.1-0.3-2.1-0.7-3.2-1c-3-1.8-6.3-3.1-8.8-5.7c4.5-2.1,9.2-3.8,13-7.5c4.9-4.8,6.9-10.9,7.8-17.5
	c0.8-5.9,3.4-9.7,9.8-10.6c4.4-0.7,8.8-2.2,11.6-6.3c0.6-0.9,1.5-1.9,0.3-2.8c-0.9-0.7-1.8,0-2.4,0.8c-2.9,3.7-7.1,4.6-11.5,5.5
	c-4.7,1-8.3,3.5-9.8,8.8c-1.4,5-1.5,10.3-4.1,14.9c-3.8,6.7-10.1,10-17.1,12.1c-4.7-6-3.9-11.3,2.5-15.2c2-1.3,4.2-2.3,5.9-4
	c1.8-1.8,3-3.7,2.7-6.3c-0.9-7.7,3.3-12.5,9.2-16.4c3.3-2.1,6.9-3.5,10.4-5.1c6-2.8,6.9-4.3,6.4-10.8c-0.4-6-0.1-12,1.2-17.9
	c3.5-15.1,17.5-23.2,32.4-18.5c5.9,1.9,11.2,4.9,16.1,8.5c5.1,3.7,5,9.1,4,14.5c-0.4,2.2-1.5,4.2-2.3,6.4c-2.8,1.5-1,7.2-6.1,6.8
	c-7,7-13.2,14.3-10.4,25.3c0,0.8,0,1.6,0,2.3c-0.1,2.9-0.5,5.8-1.6,8.6c-1.9,4.7-5.4,6.9-10.3,7.4c-7.7,0.7-13.5,6.2-14.9,13.8
	c-1.8,10.4-8.3,14.9-19,13.3c-3.8-0.6-7.5-1.7-11.1-3.1c0.7-0.4,1.2-1,2-1.3c11-3.3,17.7-10.3,19-22c0.8-7.4,4.2-12.3,12.2-13.3
	c5.3-0.7,9.3-3.5,11.5-8.7c2.5-5.8,1.9-11.7,1.6-17.6c0-0.8-0.3-1.7-1.3-1.7c-1,0-1.2,0.9-1.2,1.7c0,3.1,0.1,6.1,0,9.2
	c-0.3,6.8-5.3,13.7-10.5,14.4c-10.3,1.5-13.8,4.9-15,14.9c-1.3,10.7-7,17.6-17.4,20.3C107.3,260.9,107.2,262,108,264z"/>
<path class="st2" d="M101.3,424.5c1.3-1.2,2.5,0.1,3.6,0.4c7.2,2,14.3,4,21.8,4.7c5.6,0.5,6.9-0.1,9.4-5.2c2.9-6,4.6-12.4,6.4-18.8
	c0.2-0.9,0.6-1.7,1.2-3.5c1.1,4.6,2,8.3,2.8,12c-0.2,0.4-0.4,0.7-0.5,1.1c-4.4,21.1-8.2,42.4-19.3,61.4
	c-10.7,17.1-21.3,34.2-32,51.3c-0.6,1-1.3,1.9-2,2.9c-3.2,0.1-6.4,0.6-9.4,0.1c-3.9-0.6-8-1.5-10.4-5.4c6.1-13.7,12-27.5,16.8-41.7
	c6.9-16.8,10.2-34.4,11.4-52.5C101,429,101.1,426.7,101.3,424.5z"/>
<path class="st1" d="M435.2,191.6c-0.8-0.2-1.5-0.5-2.3-0.6c-5.9-1-8.8-5.8-6.7-11.5c0.8-2.1,1.6-4.2,2.5-6.3c0.6-1.3,1.1-2.7,1.8-4
	c1.5-2.9,2.7-5.5-2.4-6c-1.6-0.2-2.4-1.9-2.5-3.7c-0.2-2,0.8-3.4,2.4-4.3c2.9-1.7,11.4-0.2,14.3,2.7c2.4-4.5,4.8-8.8,7.1-13.3
	c2.1-4.1,5.3-6,9.9-6c9.3,0,18.6,0,27.9,0c4.3,0,7.4,1.9,9.4,5.6c2.1,3.8,4,7.8,6.1,11.6c0.6,1.2,1.2,2.7,2.9,0.6
	c1.7-2.1,11-2.4,13.2-0.8c1.4,1,2.1,2.4,1.9,4.1c-0.2,1.9-1.3,3.6-3.1,3.7c-4.5,0.2-3.3,2.5-2.1,4.9c0.5,1.1,1.1,2.1,1.6,3.2
	c-0.1,0.7,0.1,1.2,0.7,1.6c0,0,0,0,0,0c0.8,2.1,1.6,4.2,2.3,6.3c1.9,5.8-0.7,10.3-6.6,11.4c-0.8,0.1-1.5,0.4-2.2,0.6
	c-3.7-1.4-7.4-0.9-11.1-0.3c-11.1-0.8-22.2-0.1-33.4-0.3c-3-0.1-6.1-0.2-9.1-0.2c0.4-1.4-0.4-3,1.1-4.3c1.1-1-0.6-1.8-1.3-2.3
	c-1-0.8-1,0.6-1.5,1.1c-1.4,1.7-1.1,4.2-3,5.6c-2.3,0.6-4.7-0.4-7,0.7C442.4,190.5,438.8,190.3,435.2,191.6z M446.5,161.3
	c4.6,0,8.7,0,12.8,0c12.4,0,24.8,0,37.1,0c1.9,0,3.9,0,2.5-2.7c-1.7-3.2-3.2-6.5-4.9-9.7c-1.8-3.4-4.2-6-9.2-5.6
	c-8.3,0.7-16.8,0.3-25.2,0.2c-4-0.1-6.4,2.3-7.6,5.4C450.7,152.9,448.4,156.6,446.5,161.3z M473.2,181.1
	C473.2,181.1,473.2,181.1,473.2,181.1c3.6,0,7.2-0.1,10.7,0c2.3,0.1,2.8-1.2,2.5-3c-0.4-1.8,1.6-4.9-1.9-5c-7.4-0.3-14.9-0.2-22.3,0
	c-3.6,0.1-1.7,3.2-2,4.9c-0.3,1.6-0.2,3.2,2.3,3.1C466,181,469.6,181.1,473.2,181.1z M511.2,175.8c-0.1-3.1-3.6-6.5-6.6-6.3
	c-3.3,0.1-6.8,3.7-6.7,6.8c0.1,3.4,3.5,6.7,6.9,6.5C508.1,182.6,511.3,179.2,511.2,175.8z M448.1,176c-0.1-3.9-2.7-6.2-6.8-6.1
	c-3.5,0.1-6.1,2.9-6.1,6.5c0,3.6,2.7,6.3,6.3,6.3C444.8,182.8,448.2,179.3,448.1,176z"/>
<path class="st3" d="M312,173.3c0,7.7,0,15.5,0,23.2c0,2,0.1,3.8-2.7,3.8c-2.8,0-2.7-1.9-2.7-3.9c0-7.7-0.1-15.5-0.1-23.2
	c0-13.3,0-26.7,0.2-40c0-2.8-1.1-3.3-3.6-3.3c-7.1,0.1-14.1,0-21.2,0.1c-2.7,0-5.1-0.7-6.4-3.2c-1.3-2.5-0.7-4.8,0.9-7.1
	c9.2-13.1,18.2-26.3,27.4-39.3c3-4.2,7.7-4.3,10.7-0.2c9.3,13.1,18.5,26.4,27.6,39.7c3.4,5,0.6,10.1-5.4,10.1
	c-7.1,0.1-14.1,0.1-21.2,0c-2.5,0-3.6,0.5-3.5,3.3C312,146.6,312,159.9,312,173.3z M322.8,124.3c2.5,0,5.1,0,7.6,0
	c1.6,0,3.2-0.2,4.2-1.7c1.1-1.8-0.1-3-1-4.3c-7-10-14-20-21.1-30c-2.8-4-4.1-4-7,0c-7.1,10.1-14.1,20.3-21.1,30.5
	c-2.2,3.2-1.2,4.6,2.6,5C299,125,310.9,123.5,322.8,124.3z"/>
<path class="st4" d="M249,266.8c-0.6-3.1,0.3-6.1,1.1-8.9c1.8-6.5,4.4-12.8,4.2-19.7c0.2,0.8,0.3,1.7,0.6,3.1c0.7-1.4,1-2.5,1.6-3.3
	c0.7-1.1,1.4-2.5,3-2.1c1.8,0.4,1.4,1.9,1.6,3.2c0.3,3.1-0.5,6.1-1.3,9c-0.4,1.7-0.2,2.8,1.4,3.5c1.4,1.7,4.2,0.4,5.4,2.4
	c3.9,2.5,7.4,5.2,4.6,10.6c-0.1,0.2,0.6,0.7,0.9,1.1c-3.9,1.7-5.1,5.9-7.6,8.8c-4.4,5-4.8,5.3-9.9,1.1c-1.2-2.7-4-4.3-5-7.2
	C249.6,267.8,249.5,267.2,249,266.8z"/>
<path class="st4" d="M165.7,222.1c-2.7-11,3.4-18.4,10.4-25.3c5,0.4,3.2-5.3,6.1-6.8c0,4.7,1.6,9,3.9,13.1c1.4,2.4,0.5,3.6-1.8,3.6
	c-2.8,0-3.7,1.3-3.9,3.7c-1.8-0.8-3.6-1.7-6.3-2.9c1.2,3.3,3.5,3.3,5.2,4.3c-1.4,5.8-2.4,6.7-7.5,5.2c-2.6-0.7-3.1,0.7-3.5,2.3
	C167.8,220.7,167.7,222.2,165.7,222.1z"/>
<path class="st5" d="M93.7,254.8c7.1-2.1,13.3-5.4,17.1-12.1c2.6-4.6,2.8-9.9,4.1-14.9c1.4-5.3,5-7.8,9.8-8.8
	c4.4-0.9,8.5-1.8,11.5-5.5c0.6-0.8,1.5-1.5,2.4-0.8c1.2,0.9,0.3,1.9-0.3,2.8c-2.8,4.1-7.2,5.6-11.6,6.3c-6.4,1-9,4.8-9.8,10.6
	c-0.9,6.6-2.9,12.6-7.8,17.5c-3.7,3.6-8.4,5.3-13,7.5C95,256.7,93.8,256.2,93.7,254.8z"/>
<path class="st1" d="M417,142.5c0-4,0.1-8,0-12c-0.1-2.2,0.5-3.1,2.9-3c8.1,0.1,16.2,0,24.4,0.1c1,0,2.3-0.5,2.4,1.2
	c0.1,1.7-1.4,1.3-2.3,1.3c-7.1,0-14.1,0.1-21.2,0c-2.5-0.1-3.5,0.6-3.4,3.3c0.2,7,0.1,14.1,0,21.2c0,1,0.6,2.7-1.3,2.7
	c-1.8,0-1.3-1.7-1.3-2.8C417,150.4,417,146.4,417,142.5z"/>
<path class="st6" d="M339.7,139.6c-2.4,0-4.8,0.2-7.2-0.1c-1.5-0.1-4.2,1.2-4.1-1.5c0.1-2.5,2.8-1.3,4.3-1.4c4.1-0.2,8.3-0.1,12.4,0
	c2.2,0.1,3.1-0.8,3-3.1c-0.1-4.7-0.1-9.3,0-14c0-1.1-0.3-2.6,1.5-2.7c1.9,0,1.5,1.5,1.5,2.6c0,5.7-0.1,11.5,0,17.2
	c0,2.3-0.8,3.1-3.1,3C345.3,139.5,342.5,139.6,339.7,139.6C339.7,139.6,339.7,139.6,339.7,139.6z"/>
<path class="st1" d="M500.2,130.1c-1.3-1.4-1.2-2.4,0.8-2.6c1.6-0.2,3.2-0.1,4.8-0.1c0.8,0,1.6,0,2.3,0c0.3,0,0.6,0,0.8,0
	c4,0,8,0,12,0c0.3,0,0.6,0,0.8,0c0.8,0,1.6,0,2.4,0c1.6,0.1,3.2,0.1,4.8,0.2c0.1,9,0.1,18.1,0.2,27.1c0,1,0.5,2.4-1.2,2.5
	c-2,0.1-1.3-1.6-1.3-2.6c-0.1-7.1-0.1-14.1,0-21.2c0.1-2.5-0.5-3.4-3.3-3.4C515.6,130.2,507.9,130.1,500.2,130.1z"/>
<path class="st6" d="M267.2,128c0-2.8,0-5.6,0-8.4c0-1.1-0.4-2.6,1.5-2.7c1.9-0.1,1.6,1.5,1.6,2.6c0,4.7,0.1,9.3,0,14
	c-0.1,2.5,0.8,3.2,3.2,3.2c4.5-0.1,9.1-0.1,13.6,0c1.1,0,2.6-0.4,2.6,1.5c0,1.9-1.5,1.5-2.6,1.5c-5.6,0-11.2-0.1-16.8,0.1
	c-2.6,0.1-3.2-1-3.1-3.3C267.3,133.6,267.2,130.8,267.2,128z"/>
<path class="st1" d="M267.3,84.6c0.3-3.1-1.5-7.7,0.7-10c2.2-2.3,6.8-0.6,10.4-0.7c3.1-0.1,6.1-0.1,9.2,0c0.8,0,2-0.4,2.1,1.1
	c0.1,1.7-1.2,1.4-2.2,1.5c-4.7,0-9.3,0.1-14-0.1c-2.7-0.1-3.5,0.9-3.4,3.5c0.2,4.5,0.1,9.1,0,13.6c0,1.1,0.4,2.7-1.4,2.7
	c-1.8,0-1.3-1.7-1.4-2.8C267.3,90.6,267.3,87.8,267.3,84.6z"/>
<path class="st1" d="M350.9,84.8c0,2.9,0,5.8,0,8.8c0,1.1,0.4,2.7-1.5,2.6c-1.5-0.1-1.3-1.5-1.3-2.5c0-4.5-0.2-9,0.1-13.6
	c0.2-3.1-1-3.9-3.9-3.7c-4.5,0.2-9,0.1-13.6,0.1c-1,0-2.4,0.3-2.3-1.3c0.1-1.6,1.5-1.2,2.4-1.2c5.8,0,11.7,0,17.5-0.1
	c1.9,0,2.6,0.7,2.5,2.6C350.9,79.2,350.9,82,350.9,84.8C350.9,84.8,350.9,84.8,350.9,84.8z"/>
<path class="st7" d="M107.2,314c4.2-11.2,6.7-22.9,8.6-35.3c1.7,2.3,1.3,4.5,0.9,6.3c-2.1,9-4.5,17.9-6.8,26.9
	c-0.4,1.5-0.7,2.9-2.7,2.9C107.2,314.6,107.2,314.3,107.2,314z"/>
<path class="st5" d="M179.3,211.7c-1.6-1-4-1.1-5.2-4.3c2.6,1.2,4.4,2.1,6.3,2.9C180.4,211,180.1,211.6,179.3,211.7z"/>
<path class="st8" d="M534.6,173.2c-0.2,0.7,0.4,2.1-1,1.9c-0.8-0.1-0.6-1.2-0.6-1.9C533.5,173.2,534,173.2,534.6,173.2z"/>
<path class="st7" d="M528.9,127.6c-1.6-0.1-3.2-0.1-4.8-0.2C525.8,126.6,527.4,126.3,528.9,127.6z"/>
<path class="st8" d="M517.7,173.2c-0.6-0.4-0.8-0.9-0.7-1.6C517.6,172,517.8,172.6,517.7,173.2z"/>
<path class="st9" d="M803.4,272.3c-0.5,0-1.1-0.1-1.6-0.1C802.4,271.6,802.9,271.6,803.4,272.3z"/>
<path class="st8" d="M530.5,173.2c-0.3,0.5-0.5,0.5-0.8,0C530,173.2,530.3,173.2,530.5,173.2z"/>
<path class="st7" d="M521.8,127.4c-0.3,0-0.6,0-0.8,0C521.2,127,521.5,127,521.8,127.4z"/>
<path class="st7" d="M509,127.4c-0.3,0-0.6,0-0.8,0C508.4,127,508.7,127,509,127.4z"/>
<path class="st9" d="M216,418.1c2.5-2.7,2.2-6.2,1.4-9c-1.7-5.7-1.1-11.5-1.5-17.3c1.6,0,3.2-0.1,4.8-0.1c120.6,0,241.2,0,361.8,0
	c-2.7,2-5,4.2-5,7.8c-6,0.3-11.7,2.6-17.6,3.2c-4.7,0.5-8.9,2.7-13.4,4.1c-9.4,2.9-11,5.4-11.3,12.9c-0.1,2.1-0.1,4.2-0.2,6.4
	c-46.9,0-93.7,0-140.6,0.1c-5.9,0-8.7,2.8-8.8,8.8c0,1.6,0.1,3.2,0.1,4.8c-1.8,0.9-2.8,2-2.6,4.3c0.3,2.5,0.3,5,0,7.5
	c-0.2,2.2,0.8,3.4,2.6,4.2c0,8,0,16,0,24.1c-1.7,0.9-2.8,1.9-2.6,4.2c0.3,2.6,0.2,5.3,0,7.9c-0.1,2.1,0.7,3.3,2.6,3.8
	c0,1.1-0.1,2.1-0.1,3.2c0,5.5,1.8,7.7,7.2,8.6c1.3,0.2,2.7,0.1,4,0.1c40.6,0,81.2,0,121.9,0.1c-0.6,5.1-3.3,9.8-3.2,15
	c-2.4,0.1-4.8,0.2-7.2,0.2c-83.5,0-167,0-250.6,0c-1.7,0-3.5-0.1-5.2-0.2c0.1-0.7,0-1.5,0.3-1.9c3-3.5,4.3-7.6,4.7-12.2
	c0.2-2,1.7-1.7,3-1.7c4.3,0,8.5,0,12.8,0c5.2-0.1,8-2.6,8.1-7.8c0.2-6,0.2-12,0-18c-0.2-5.4-2.7-7.7-8-7.7c-11.5,0-22.9,0-34.4,0
	c-5.7,0-7.9,2.2-7.9,8c-0.1,5.7,0,11.5,0,17.2c0,5.6,2.8,8.3,8.4,8.3c5.3,0,10.6,0,15.9,0c-1,6.2-2.6,11.7-6.6,16.1
	c-9.7,0-19.4-0.1-29.1,0c-3,0-3.9-0.8-3.8-3.8c0.1-13.4,0-26.8,0-40.2c0-0.3,0-0.7,0-1C216,458,216,438,216,418.1z M322.5,466.5
	c0,12.1,0,24.2,0,36.4c0,1.9-0.6,4.1,2.7,4.1c3.2,0,2.9-1.9,2.9-3.9c0-24.1,0-48.2,0-72.3c0-2.1,0.3-4-2.9-3.9
	c-3.3,0-2.7,2.2-2.7,4.1C322.5,442.8,322.5,454.6,322.5,466.5z M342.5,467c0-12.1,0-24.2,0-36.4c0-2.1,0.1-3.9-3-3.8
	c-3,0.1-2.6,2-2.6,3.8c0,24.2,0,48.5,0,72.7c0,2-0.1,3.6,2.8,3.6c2.8,0,2.8-1.6,2.8-3.6C342.5,491.2,342.5,479.1,342.5,467z
	 M314.5,466.7c0-6.8,0-13.6,0-20.4c0-2.1-0.2-3.5-2.9-3.5c-2.6,0-2.7,1.4-2.7,3.3c0,13.6,0,27.1,0,40.7c0,2,0.2,3.3,2.7,3.3
	c2.8,0,2.9-1.4,2.9-3.5C314.4,480,314.5,473.3,314.5,466.7z M348.9,466.7c0,6.8,0.1,13.6,0,20.3c0,2.2,0.6,3.1,3,3.1
	c2.2,0,2.7-1,2.7-2.9c0-13.6-0.1-27.1,0-40.7c0-2.6-1.4-3.3-3.3-3.5c-2.3-0.2-2.3,1.7-2.3,3.3C348.9,453.2,348.9,460,348.9,466.7z"
	/>
<path class="st9" d="M740.2,506c-0.6,0.5-0.9,0.9-0.1,1.5c0,3.7-0.1,7.5,0.2,11.2c0.3,3.3-0.8,4.3-4.2,4.3
	c-21.9-0.1-43.7-0.1-65.6,0c-6,0-12,0.6-18,0c-0.1-1.6-0.2-3.2-0.2-4.8c0-17.9,0-35.8,0-53.7c1.4-0.3,2.9-0.6,4.3-0.8
	c15.8-2.2,27.3-9.8,32.1-25.7c1.3-4.5,2.1-9,2.9-13.6c1.8-11,3.4-22,6.4-32.7c14.2,0,28.3,0.1,42.5,0.1c0,28.5-0.1,57-0.1,85.5
	C740.2,486.9,740.2,496.4,740.2,506z"/>
<path class="st2" d="M535.2,426c0.1-2.1,0.1-4.2,0.2-6.4c0.3-7.5,1.9-10,11.3-12.9c4.4-1.4,8.7-3.6,13.4-4.1
	c6-0.6,11.6-2.9,17.6-3.2c1.7,4.7,5.2,6,10.1,5.9c14.4-0.2,28.8-0.1,43.1,0c1.5,0,3.4-0.7,3.5,1.9c-0.8,1.2-0.5,2.6-0.5,3.9
	c0,6.9-0.1,13.9,0,20.8c0,3.4-1.3,4.9-4.8,4.6c-3.4-0.3-6.7-0.7-10-1.5c-6.7-1.5-13.5-1.9-20.4-2.3c-10.9-0.6-16.6,4.9-16.3,14.7
	c0.1,3.9,2.1,6.8,3.4,10c-0.3,6.8-0.6,13.6-0.9,20.5c-1.7,0-2.1,1.3-2.8,2.5c-3.5,6.1-7.1,12.1-11.1,17.9c-1.9,2.7-5.5,4.5-5.3,8.5
	c-3,0.6-4.3,3.3-6.1,5.3c-0.7,0.7-2.1,1.7-1.3,3c0.6,1,1.9,0.5,3,0.5c4.8,0,9.6,0,14.5,0c-0.7,1.9-2.3,2.4-2.1,4
	c-1.4-0.2-2.6,0.4-3.7,1.2c-3.7,2.6-7.8,3.8-12.2,4.4c-0.8,0.1-1.6,0-1.9,1.1c5.1,0.9,13-2.1,17.7-6.7c2.2-0.7,4.6-2.1,4.2-4.4
	c-0.4-2.1-3.2-0.9-4.9-1.2c-3.5-0.5-6.8,0.8-10.2,0.7c-0.8,0-1.7,0.3-2.2-0.5c-0.6-1.1,0.6-1.6,1.1-2.3c1.3-1.8,3.6-2.7,4-5.2
	c1.6-0.9,2.7-2.4,3.9-3.9c5.8-7.3,10.2-15.6,15.3-23.3c0.6,8.8-0.4,17.6-0.7,26.4c0,0.5-0.1,1.1-0.1,1.6c-0.7,5.3-1.5,10.7-2.2,16
	c-0.2,1-0.3,2.1-0.5,3.1c-1.7,0.8-3.3,1.5-5,2.3c-6.8,3.2-14,2.6-21.2,2.6c0.5-3.5-3-5.5-3-8.8c3.8-5.1,2.7-10.2,0.1-16
	c-3.5,5.7-6.6,10.8-9.8,16c-1.4,2.1-2.9,4.2-4.3,6.3c-8.1,0.6-15.2-2.7-22.1-6.4c-0.2-0.1-0.4-0.1-0.6-0.1c-0.2-5.3,2.6-9.9,3.2-15
	c0.6-0.4,0.5-1.1,0.4-1.7c4.4-15.9,8.5-31.8,13.2-47.6c3.1-10.2,5.5-20.2,2.8-30.8C535.2,427.1,535.2,426.6,535.2,426z"/>
<path class="st2" d="M166,431.8c12.7,2.2,24.9,0.4,36.5-5.2c1.2,0.7,1.2,2.1,1.3,3.2c1.3,7.8,2.2,15.8,2.6,23.7
	c0.5,11.2-0.6,22.3-1.5,33.4c-0.1,0.8-0.1,1.7-0.2,2.5c-1.3,9.5-2.4,19.1-4,28.6c-0.8,4.9-0.5,10.1-3.7,14.4
	c-7.2,2.2-14.2,1.2-21.1-1.6c0.5-13,0.9-25.9,1.4-38.9c0.2-5.2,0-10.3-0.4-15.4c-0.2-3.4-0.1-6.9-0.7-10.3
	c-1.6-10.6-6-20.3-9.6-30.2C166.2,434.6,165.1,433.4,166,431.8z"/>
<path class="st9" d="M581.9,523.7c0.7-5.3,1.5-10.7,2.2-16c4,0,8,0.1,12-0.1c6.1-0.2,8-2.3,8-8.3c0-10.3,0-20.5,0-30.8
	c0-1.4-0.5-3,0.8-4.2c11.2,1,22.3,0.8,33.5,1c0,8.1,0,16.3,0,24.4c-0.1,11.1-0.2,22.1-0.2,33.2c-5.5-0.5-10.9,1-16.3,0.6
	c-11.5-0.9-23-0.5-34.5-0.7C585.5,522.9,583.7,523.1,581.9,523.7z"/>
<path class="st3" d="M638.3,523c0.1-11.1,0.2-22.1,0.2-33.2c0-8.1,0-16.3,0-24.4c4.6-0.3,9.1-0.6,13.7-0.9c0,17.9,0,35.8,0,53.7
	c0,1.6,0.1,3.2,0.2,4.8c-0.6,2.5-0.1,3.6,3,4.1c10.5,1.8,19.8,6.1,26.9,14.3c1.1,1.3,2.2,2.7,3,4.2c1,2,0.3,3.4-2,3.7
	c-0.9,0.1-1.9,0.1-2.8,0.1c-23.7,0-47.4,0-71.1,0c-0.9,0-1.9,0.1-2.8,0c-3.2-0.3-4-1.7-2.2-4.5c3.7-5.7,8.7-10,14.8-13
	c5-2.5,10.3-4.3,15.9-4.9C637.9,526.7,638.7,525.4,638.3,523z"/>
<path class="st3" d="M176,530.8c6.9,2.8,13.8,3.8,21.1,1.6c5.7,5.3,12,8.6,20.3,7.4c12.6-1.8,23.8-5.9,31.5-16.9
	c4.1-4.4,5.6-9.9,6.6-16.1c-5.3,0-10.6,0-15.9,0c-5.6,0-8.3-2.7-8.4-8.3c0-5.7-0.1-11.5,0-17.2c0.1-5.9,2.2-8,7.9-8
	c11.5,0,22.9,0,34.4,0c5.2,0,7.8,2.4,8,7.7c0.2,6,0.2,12,0,18c-0.1,5.2-2.9,7.8-8.1,7.8c-4.3,0-8.5,0-12.8,0c-1.3,0-2.9-0.3-3,1.7
	c-0.3,4.5-1.7,8.6-4.7,12.2c-0.4,0.4-0.2,1.3-0.3,1.9c-2.9,0.8-3.7,3.7-5.6,5.5c-9.4,8.6-20.4,13.2-33.2,13.1c-1.1,0-2.3,0-4.6,0
	c4.3,2.7,8.1,3,11.7,4.1c2.3,0.7,6.2,0.4,6.1,3.9c-0.2,3.2-4,3-6.2,3c-14.2,0.1-28.4,0.9-42.6-1.4c-4.6-0.8-5.8-2.1-5.4-6.6
	C173.3,539.7,174.1,535.1,176,530.8z M255.1,489.4c0.9,0.8,1.6,1.1,1.8,1.6c1.3,5.3,5.5,4.7,9.5,4.7c2,0,3.6-1,3.9-2.7
	c0.4-2.1,1.1-4.8-0.6-6.4c-0.8-0.8-2.6-1.6-4.8-1c-5.2,1.2-10.8,0.2-16.1,0c-5.2-0.3-7,0.1-7.2,5.2c0,1.1-0.1,2.1-0.3,3.2
	c-0.1,0.7-0.1,1.2,0.6,1.6C246.4,498,253.9,494.8,255.1,489.4z"/>
<path class="st5" d="M555.3,531.7c7.2,0,14.4,0.6,21.2-2.6c1.7-0.8,3.3-1.5,5-2.3c1.6,5.2,2.6,10.6,3.1,16c0.3,3.1-0.8,4.9-3.9,5.9
	c-5.8,1.9-11.8,2.5-17.8,1.9c-9.4-1.1-18.6,0.8-27.9,1.4c-2.7,0.2-5.3,0.3-8,0.3c-1.8,0-4.3,0-5-1.8c-1.5-3.7-4.3-2.9-6.9-2.7
	c-9.8,0.5-19.7,1-29.5,1.4c-2.6,0.1-5.3-0.1-8-0.3c-1.6-0.1-3.3-0.4-3.8-2.4c-0.4-1.9,0.6-3.4,2.1-4.5c2.6-2,5.6-3,8.8-3.5
	c11.6-1.7,21.1-7.8,30.5-14.2c0.6-0.4,1.1-0.8,1.1-1.6c6.9,3.6,14,6.9,22.1,6.4c0.2,2.1,0.5,4.2,0.6,6.3c0.1,2.6,1.3,3,3.6,2.2
	C547,536.3,551.3,534.3,555.3,531.7z"/>
<path class="st10" d="M166,431.8c-0.9,1.6,0.3,2.8,0.7,4.1c3.6,10,8,19.7,9.6,30.2c0.5,3.4,0.5,6.9,0.7,10.3
	c-7.6-0.5-15.2-1.2-22.8-1.6c-9.2-0.4-18.4,0.3-27.6,1.6c11.2-19,14.9-40.3,19.3-61.4c0.1-0.4,0.3-0.7,0.5-1.1c2.3,2,2.3,5,3.3,7.5
	C152.6,429.1,158.8,431.3,166,431.8z"/>
<path class="st3" d="M72.7,525.4c2.4,3.9,6.4,4.8,10.4,5.4c3.1,0.5,6.3,0,9.4-0.1c2.3,2.1,3.8,4.7,5.5,7.3
	c4.1,6.2,10.1,9.6,16.6,12.7c1.9,0.9,5.1,1.6,4.1,4.4c-0.8,2.3-3.7,2-6,1.6c-13.7-2.5-27.3-5.6-40.5-10.2c-6.2-2.1-7-4.2-4.7-10.3
	C69,532.5,71,529,72.7,525.4z"/>
<path class="st3" d="M633,204.4c-4.5-9.1-4.2-18.4-1.4-27.8c0.3-0.9,0.3-1.8,0.5-2.7c3.4-6.1,7.6-11.7,11.3-17.6
	c1.4-2.3,4.2-4.8,2.2-8.2c2.1-5.1,0-10-1.2-14.8c-1.6-6.3-3.1-12.6-4.1-19c-0.3-1.7-1.1-2.9-1.8-4.3c1.8-0.1,1.6-1.4,1.6-2.6
	c0-13,6.4-21.7,17.8-27.4c13-6.4,32.3-3.2,41.4,7.3c6.3,7.3,8.2,15.9,7,25.8c-1.3,10.5-5.4,20.4-6.1,31c-0.4,5.7,1.1,11,4.7,15.1
	c3.5,4.1,5.8,8.8,8.8,13.1c0.9,3.4,2.1,6.8,2.7,10.3c1.7,10.5,0.4,20.4-7.9,28.1c-6.3,5.9-14.1,8.5-22.5,9.6
	c-3.9,0.5-7.9,0-11.6,1.7c0,0-0.3,0.1-0.3,0.1s-0.2-0.2-0.2-0.2c-0.1-3.8,0-7.7-0.2-11.5c-0.1-1.4,0.9-3.2-1-4.3
	c-0.2-0.1-0.4-0.1-0.6,0l0-0.2c-0.4-2.5-2.4-1.6-3.8-1.6C656.6,204.4,644.8,204.4,633,204.4z"/>
<path class="st11" d="M209.7,378.9c-1.9-6.7-3.7-13.3-5.6-20c0.3-0.2,0.7-0.4,1-0.7c10.6-13.6,21.2-27.3,31.8-40.9
	c1.4-1.5,3.3-0.8,4.9-0.8c81.8,0,163.5,0,245.3,0c5.1,0,5.1,0,5.1-5.3c0-0.5,0-1.1,0-1.6c0.2-2.1-0.8-2.8-2.8-2.7
	c-2.5,0.1-5.1,0-7.6,0c-1.8,0-3.5-0.5-3.6-2.4c-0.2-2.1,1.6-3,3.4-3.2c2.5-0.2,5.1-0.2,7.6-0.1c2.2,0.1,3.1-0.7,3.1-3
	c0-2.2-1-2.7-2.9-2.7c-2.8,0.1-5.6,0.1-8.4,0c-1.6-0.1-2.9-1.1-2.9-2.7c0-1.7,1.3-2.6,2.9-2.8c1.7-0.1,3.5-0.2,5.2,0
	c3.8,0.4,6.9,0,6.6-4.9c0,0,0.4-0.1,1.2-0.3c0,1.4,0,2.7,0,4c0,7.7,0.2,15.5-0.1,23.2c-0.1,3.5,0.9,4.5,4.5,4.5
	c23.9-0.2,47.7-0.1,71.6-0.1c-5.6,2.6-9.7,7.3-14.4,11.2c-19.2,0-38.4,0.1-57.6-0.1c-3.4,0-5.1,1-5.7,4.5
	c-1.6,9.8-3.4,19.6-5.2,29.3c-0.9,5,0.6,7.1,5.7,7.1c44.4,0,88.8,0,133.2,0c-0.3,3.5-0.6,7-0.9,10.6c-1.9-0.1-3.7-0.2-5.6-0.2
	c-64.1,0-128.3,0-192.4,0C354.5,378.8,282.1,378.8,209.7,378.9z M265.5,346.8c0,0.5,0,1.1,0,1.6c-0.1,0.1-0.3,0.2-0.2,0.2
	c0,0.2,0.2,0.4,0.2,0.5c0,2.4,0,4.8,0,7.2c-3.2,3-4.6,7-6.4,10.8c-0.7,1.4-0.1,1.8,1.3,2c3.8,0.6,6.2-0.9,7.9-4.3
	c3.1-6.2,6.5-12.1,9.8-18.2c1.6-2.9,3.2-5.8,4.7-8.7c1.2-2.2,2.3-1.4,3.5,0c1,3.9,3.4,6.5,7.4,7.3c-0.1,4-0.1,7.9-0.2,11.9
	c-2.7,2.7-3.8,6.3-5.1,9.7c-0.4,1-0.4,2.1,0.8,2.1c2.5,0,5.3,1.3,6.8-2.2c4.1-9,8.3-17.9,12.5-26.9c1.4-3.1,2.8-6.2,4.3-9.3
	c1.3-2.6,0.9-3.6-2.3-4c-3.8-0.5-5,2.2-6.7,4.4c-5.4-5.2-8-5.5-15.7-1.6c0.3-1,0.6-2.3-0.9-2.4c-2.9-0.3-5.9-0.9-8.1,2.2
	c-0.8,1.2-1.1,3.1-3.1,3.2c-2.1-3.8-5.2-6-9.6-5.6c-3.7,0.3-6.4,2.2-8,5.6c-2.3,5.1,0,9.8,6.4,12.8
	C265.1,345.8,265.3,346.3,265.5,346.8z M326.5,341.8c-0.6,0-1.1,0-1.7,0c-1.1-0.8-2.1-0.8-3.1,0.1c-1.8,0.8-2.7,2.2-2.1,4.1
	c0.8,2.6,3.2,2.3,5.3,2.5c-2,5.4-4.1,10.8-6.1,16.2c-0.5,1.3-2.5,2.4-1.4,3.8c1.2,1.5,3.2,0.6,4.9,0.6c2.8,0.1,3.2-2.4,4.2-4.2
	c1.2-2.2,2.3-4.6,2.8-7c0.7-3.4,3.5-5.9,3.7-9.4c1.1-0.1,2.1-0.1,3.2-0.2c2-0.1,3.8-0.6,4.1-2.9c0.3-2.3-1.1-3.4-3.3-3.7
	c0.5-4.5,3.2-8,4.8-12.1c0.4-1.2,1.4-2.1-0.5-2.8c-3.9-1.4-6.7,0.5-8.5,4.4C331,335,330.6,339.5,326.5,341.8z M345.6,357.4
	c-0.5,1.1-2.4,0.1-2.8,1.6c2.1,1.6,3.8-0.4,6.2-0.4c-0.6,1.8-1.2,3.3-1.6,4.9c-1.5,5.5-0.7,6.2,4.8,5.7c3.1-0.3,2.6-2.8,2.9-4.4
	c0.8-4.2,1.7-7.9,7.2-7c0.2,0,0.6-0.5,0.9-0.7c2.6-4.2,1.6-5.7-3.9-6.4c1.8-6.5,3.6-13,5.4-19.5c0.4-1.4,2.1-3.8-0.7-4.1
	c-2.1-0.2-5.3-2.1-6.4,2.2c-1.8,7.2-4.1,14.3-6.2,21.4c-1.1,0.1-2.1,0.1-3.2,0.2c-1.5,0.1-3.3-0.4-4,1.6
	C343.4,354.5,343.8,356.2,345.6,357.4z M445.8,369c2.6,0,5-0.6,7.4-1.6c2.6-1,2.8-3.1,0.5-4.8c-2.9-2.2-12.6-2.3-15.7-0.1
	c-2.5,1.8-2.4,3.8,0.4,5C440.8,368.4,443.3,369,445.8,369z M396,334.8c2.6,0.2,5.2-0.2,7.7-1.4c1.1-0.5,2.1-1.3,2-2.7
	c-0.1-1.2-0.8-1.9-1.9-2.3c-5-2-10.1-2.1-15-0.1c-2.7,1.1-2.7,3.6-0.1,5.1C390.9,334.6,393.4,335,396,334.8z M424.5,334.8
	c2.5,0.2,5.2-0.3,7.7-1.7c2.1-1.2,2.3-2.9,0.3-4.4c-3.3-2.6-13.3-2.3-16.4,0.3c-1.7,1.4-1.4,2.6,0.1,3.9
	C418.5,334.7,421.3,334.8,424.5,334.8z M422.3,344.4c-3.6,0-6.4-0.3-8.9,1.4c-0.9,0.6-2,1-1.9,2.3c0,1.4,1,2.1,2.2,2.6
	c4.9,1.9,9.8,1.8,14.6,0.1c1.1-0.4,2.3-0.9,2.2-2.5c-0.1-1.4-1-2.1-2-2.7C426.3,344.1,423.9,344.5,422.3,344.4z M452,334.8
	c2.3,0.2,4.6-0.3,6.8-1.3c1.1-0.5,2.1-1.2,2.1-2.6c0-1.4-1-2.1-2.1-2.6c-4.8-1.8-9.5-1.8-14.3,0c-1.2,0.5-2.1,1.2-2,2.6
	c0,1.4,0.9,2.1,2.1,2.6C446.9,334.5,449.4,335,452,334.8z M418,369c2.7-0.5,5.5-0.3,8.1-1.7c2.5-1.3,2.6-3.7,0-4.8
	c-4.8-2-9.8-1.9-14.8-0.3c-1.2,0.4-2.5,1.3-2.3,2.9c0.2,1.5,1.4,2.2,2.7,2.6C413.8,368.1,415.9,368.5,418,369z M390.5,361.2
	c-2.5,0.1-5.1-0.3-7.4,1c-1,0.6-2.2,1-2.1,2.6c0.1,1.4,1,2.2,2.1,2.6c4.9,1.7,9.9,1.8,14.8-0.1c1.1-0.4,2.1-1.3,2-2.7
	c-0.1-1.2-1-1.9-2-2.3C395.6,361.2,393,361.1,390.5,361.2z M392.9,344.4c-2.7-0.2-5.4-0.1-7.7,1.3c-2.2,1.3-2.5,3-0.1,4.6
	c3,2.1,12.7,2.1,15.8,0c2.3-1.5,2.3-3-0.2-4.5C398.2,344.4,395.6,344.3,392.9,344.4z M448.1,351.7c2.8,0,5.6,0.3,8.1-1.4
	c2-1.3,2.2-2.9,0.2-4.4c-2.8-2.1-12.9-2.1-15.8-0.1c-2.1,1.5-2,3.7,0.4,4.9C443.3,351.8,445.8,351.8,448.1,351.7z"/>
<path class="st12" d="M569.7,316.4c-23.9,0-47.7-0.1-71.6,0.1c-3.6,0-4.6-1-4.5-4.5c0.3-7.7,0.1-15.5,0.1-23.2c0-1.3,0-2.6,0-4
	c-0.7,0.2-1.2,0.2-1.2,0.3c0.3,5-2.7,5.4-6.6,4.9c-1.7-0.2-3.5-0.1-5.2,0c-1.6,0.1-2.9,1.1-2.9,2.8c0,1.6,1.3,2.6,2.9,2.7
	c2.8,0.1,5.6,0.1,8.4,0c2-0.1,2.9,0.5,2.9,2.7c0,2.3-0.9,3.1-3.1,3c-2.5-0.1-5.1-0.1-7.6,0.1c-1.9,0.1-3.6,1.1-3.4,3.2
	c0.1,1.9,1.8,2.4,3.6,2.4c2.5,0,5.1,0.1,7.6,0c2-0.1,3,0.6,2.8,2.7c-0.1,0.5,0,1.1,0,1.6c0,5.3,0,5.3-5.1,5.3
	c-81.8,0-163.5,0-245.3,0c-1.6,0-3.5-0.7-4.9,0.8c-16,0-32,0-48,0c-0.5-6.7-1.1-13.3-1.6-20c0.5,0,1.1,0,1.6,0
	c8.5,3.7,17.2,6.5,26.4,8.2c12.5,2.2,23.2-1.6,32.9-8.9c1.5-1.1,2.8-1.9,4.6-1.8c63,0,126.1,0,189.1,0.1c7.2,0,14.4,0,21.6,0
	c1.9,0,2.7-0.7,4.1-2.4c5.1-6.5,10.3-13.4,20.2-12.8c5.1,0.3,5.1,0,5.1-5.2c0-21.3,0-42.7,0-64c0-4.8,0.4-5.1,5.3-5.2
	c9.4,0,18.9,0,28.3,0c2.4,0.5,2.5-1,2.5-2.8c0-5.2,0.1-10.4,0.2-15.5c1.2,4.9,0.4,10,0.5,15c0,2.5,0.7,3.6,3.4,3.5
	c4.8-0.2,9.5-0.1,14.3-0.1c21.4,0,42.7,0,64.1,0c1.1,0,2.1,0,3.2,0c5.9,0,11.8,0.1,17.7,0.1c1.2,1.2,2.7,0.7,4.1,0.7
	c11.9,0.1,23.8,0.1,35.7,0.1c0,0,0,0.2,0,0.2c0,5.2,0,10.4,0.1,15.6c-2.9,0.3-5.4-0.9-7.9-1.8c-0.3-6-0.3-6-6.1-5.3
	c-1.2,0.1-2.4,0-3.5,0c-1.6-0.3-3.2-1.6-4.8-0.1c-2.1,0-4.3,0.1-6.4,0.1c-45.5,0-90.9,0-136.4-0.1c-3.4,0-4.6,0.7-4.5,4.3
	c0.2,27.9,0.1,55.7,0,83.6c0,3.2,0.7,4.3,4.2,4.3c46.9-0.1,93.8-0.1,140.8-0.1c-1.1,3.2-2.1,6.4-3.2,9.6c-22.7,0-45.4,0-68.1,0
	C574,316.5,571.8,316.4,569.7,316.4z"/>
<path class="st12" d="M209.7,378.9c72.4,0,144.8,0,217.2-0.1c64.1,0,128.3,0,192.4,0c1.9,0,3.7,0.1,5.6,0.2
	c-0.2,2.3,0.6,4.3,1.7,6.2c-0.8,2.1-1.5,4.2-2.3,6.3c-13.9,0-27.8,0.1-41.7,0.1c-120.6,0-241.2,0-361.8,0c-1.6,0-3.2,0.1-4.8,0.1
	c-1.7,0-2.9-0.2-3.3-2.4C211.9,385.8,210.7,382.4,209.7,378.9z"/>
<path class="st10" d="M188.8,317.2c16,0,32,0,48,0c-10.6,13.6-21.2,27.3-31.8,40.9c-0.2,0.3-0.6,0.5-1,0.7c-2.8-1.8-2.8-5.2-3.7-7.8
	c-2.6-7.6-6.2-14.8-8.9-22.3C190.2,325,190.5,320.9,188.8,317.2z"/>
<path class="st10" d="M204.9,486.8c0.9-11.1,2-22.2,1.5-33.4c-0.4-8-1.2-15.9-2.6-23.7c-0.2-1.1-0.2-2.4-1.3-3.2
	c4.5-2.8,9-5.7,13.5-8.5c0,19.9,0,39.9,0,59.8c-2.3,0-4.3,0.9-5.8,2.7C208.4,482.6,206.7,484.8,204.9,486.8z"/>
<path class="st5" d="M108,264c-0.8-1.9-0.7-3,1.8-3.7c10.4-2.7,16.1-9.6,17.4-20.3c1.2-10,4.7-13.4,15-14.9
	c5.2-0.7,10.2-7.6,10.5-14.4c0.1-3.1,0-6.1,0-9.2c0-0.8,0.2-1.7,1.2-1.7c1,0,1.2,0.9,1.3,1.7c0.2,5.9,0.8,11.9-1.6,17.6
	c-2.2,5.2-6.2,8-11.5,8.7c-8,1-11.4,5.9-12.2,13.3c-1.3,11.7-8,18.7-19,22c-0.7,0.2-1.3,0.8-2,1.3C108.4,264.5,108.1,264.4,108,264z
	"/>
<path class="st7" d="M187.2,296.5c-8.9-4.3-16.3-10.2-20.4-19.5c2.8,3.4,6.1,6.2,9.1,9.4c2.6,2.7,5.3,5.2,8.7,6.8
	C186,293.8,187.2,294.7,187.2,296.5C187.3,296.4,187.2,296.5,187.2,296.5z"/>
<path class="st7" d="M188.9,297.2c-0.5,0-1.1,0-1.6,0c0-0.3,0-0.5,0-0.8c0,0,0,0,0,0C187.9,296.4,188.5,296.6,188.9,297.2z"/>
<path class="st1" d="M272,265.6c-0.3-0.4-1-0.9-0.9-1.1c2.7-5.4-0.7-8.1-4.6-10.6c-0.1-3.7,1.5-5.4,5.3-4.8c1.4,0.2,2.9,0.2,4.4,0
	c2.8-0.3,5,0.1,5.4,3.5c0.2,1.3,1,2.4,2.4,1.8c1.4-0.5,0.7-1.8,0.4-2.8c-2.5-7.7-5-15.4-7.6-23.1c-0.5-1.3-0.4-3.3-2.8-3.3
	c-2.2,0-2.4,1.7-2.9,3.2c-2.2,6.8-4.4,13.6-6.6,20.5c-0.6,1.8-1.2,3.3-3.6,2.5c-1.6-0.7-1.9-1.8-1.4-3.5c0.7-2.9,1.6-5.9,1.3-9
	c-0.1-1.3,0.2-2.8-1.6-3.2c-1.7-0.4-2.3,1-3,2.1c-0.6,0.9-0.9,1.9-1.6,3.3c-0.3-1.4-0.4-2.2-0.6-3.1c0-0.7,0-1.3,0-2
	c0-3.6,0-7.1,0-10.7c0-0.7,0-1.4,0-2.1c0-1.4,0-2.9,0-4.3c0-0.7,0-1.4,0-2c0-0.4,0-0.9,0-1.3c0.3-2.9,2.6-1.7,4-1.7
	c26.6-0.1,53.2,0,79.9-0.1c1.5,0,2.9-0.1,4.4-0.1c22.7,0,45.3,0.2,68,0.1c3.4,0,4.7,0.6,4.5,4.3c-0.4,6.4,0,12.8-0.1,19.2
	c0,2.5,0.5,3.7,3.3,3.5c4.4-0.2,8.8-0.1,13.2,0c1.5,0,2.9,0,3.6-1.7c3.6-9.3,7.2-18.5,11-28.3c-8.7,0-16.8-0.2-24.8,0.1
	c-3.5,0.1-4.2-1-4.1-4.2c0.2-7.2,0-14.4,0.1-21.6c0-1.3-0.8-3.5,1.2-3.6c2.2-0.1,1.3,2.2,1.3,3.5c0.1,6.7,0.1,13.3,0,20
	c-0.1,2.5,0.5,3.5,3.3,3.4c7.1-0.2,14.1-0.2,21.2,0c2.3,0.1,3.4-0.7,4-2.8c1.4-5,4.6-9.4,5-14.8c1.9-1.4,1.6-3.9,3-5.6
	c0.4-0.5,0.4-1.8,1.5-1.1c0.7,0.5,2.4,1.3,1.3,2.3c-1.6,1.4-0.7,2.9-1.1,4.3c-2.2,1.1-2.2,3.5-3,5.4c-5.9,14.7-11.6,29.4-17.2,44.1
	c-1,2.5-2.1,3.5-4.9,3.4c-4.8-0.2-9.6,0.1-14.4-0.1c-2.8-0.1-3.4,1-3.4,3.5c0.1,4.8-0.2,9.6,0.1,14.4c0.2,3.4-1,4.6-4.1,4.5
	c-0.7-0.4-1.4-0.4-2.1,0c-0.5-0.1-1.1-0.2-1.6-0.2C362,265.6,317,265.6,272,265.6z M389.7,250c0,0.4-0.1,0.8-0.1,1.2
	c0.1,1-0.5,2.4,1,2.6c1.7,0.3,1.3-1.3,1.6-2.2c0.3-1,0.5-2.1,0.6-3.1c0.1-1.6,1-2.2,2.6-2.4c4-0.4,4.4,0.1,4,4.4
	c-0.1,1.2-0.9,3,1,3.3c1.8,0.3,1.9-1.5,2-2.8c0.3-2.4,0.1-4.9,3.5-5.3c0.8-0.1,1.5-1.1,0.2-2c-3.3-2.5-3-5.3,0.7-7.3
	c0.9-0.5,1.5-1.5,0.9-1.7c-3.3-1.3-1.9-4.1-2.1-6.4c-0.1-0.7-0.2-1.3-1-1.5c-0.8-0.1-1.3,0.2-1.5,0.9c-0.3,1.1-0.7,2.3-0.7,3.5
	c0,2.1-0.9,2.6-2.9,2.8c-3.6,0.3-4.9-0.7-3.7-4.4c0.3-1,0.7-2.6-1.1-2.9c-1.7-0.2-1.7,1.1-1.9,2.4c-0.4,2.1,0.1,4.6-3.2,5.1
	c-1.1,0.1-0.8,1.2,0,2.1c2.6,2.6,2.2,5.7-1,7.2c-1.3,0.6-2,1.6-0.7,2.1C390.3,246.7,389.7,248.4,389.7,250z M316,251.7
	c1.1-1.4,1.6-2,2.1-2.6c3.2-4.4,7.4-8.1,9.5-13.2c1.1-2.9,1.3-5.9-1-8.2c-2.6-2.8-6.2-3-9.6-2.2c-3.2,0.8-4.6,3.3-5.3,6.4
	c-0.2,1.1-0.2,1.9,1,2.1c0.8,0.2,1.6-0.1,1.8-1.1c0.2-0.6,0.3-1.3,0.6-1.9c1.5-2.9,3.7-4.1,6.9-2.9c3.4,1.3,3.5,4.1,2.6,7
	c-0.5,1.6-1.7,3-2.7,4.4c-2.9,3.7-5.8,7.3-8.7,10.8c-0.8,1-1.3,2.1-0.9,3.3c0.5,1.6,2,1.1,3.1,1.1c3.7,0.1,7.4,0,11.2,0
	c1,0,2.4,0.2,2.4-1.3c0.1-1.9-1.4-1.6-2.5-1.6C323.1,251.7,319.9,251.7,316,251.7z M345.7,228.3c-2,2.4-3.5,4.2-5,6.1
	c-2.8,3.6-2.8,3.7,1.7,4.3c4.1,0.6,4.4,3.8,4.7,6.8c0.3,3.6-2,6.6-4.9,6.7c-2.8,0.1-4.8-1.2-5.5-4.1c-0.3-1.3-0.7-2.5-2.3-2
	c-1.3,0.5-0.8,1.8-0.6,2.8c0.2,1.3,0.9,2.5,1.9,3.5c3.2,3.4,9,3.3,12.1-0.2c3.1-3.5,3.3-12.4-0.5-14.1c-5.9-2.6-1.8-4.5-0.2-6.7
	c0.5-0.8,1.3-1.3,1.8-2.1c1.6-2.5,0.9-4-2-4.1c-3.6-0.1-7.2,0-10.8,0c-1,0-2.3-0.1-2.3,1.5c0,1.5,1.2,1.5,2.3,1.5
	C339,228.3,341.9,228.3,345.7,228.3z M361.7,246.7c5.8,0,5.8,0,6.4,5.6c0,0.1,0,0.3,0,0.4c0.1,0.8,0.1,1.7,1.1,1.8
	c1.4,0.1,1.4-1,1.4-1.9c0.1-2.4-0.6-5.1,2.2-6.7c0.5-0.3,0.3-1.5-0.3-1.7c-2.3-0.8-1.7-2.6-1.9-4.3c-0.1-1.2,0.7-3.2-1.3-3.2
	c-1.9,0-1.3,2.1-1.2,3.2c0.4,3.4-1.2,4.2-4.1,3.9c-0.9-0.1-1.9-0.1-2.8,0c-2.4,0.2-2.8-0.7-1.8-2.7c2.1-4.2,4.1-8.3,6-12.6
	c0.3-0.8,1.8-2.2,0-3c-1.4-0.6-2.1,0.5-2.7,1.7c-1.9,4.1-3.8,8.2-5.7,12.3C353.5,246.8,353.5,246.7,361.7,246.7z M305.6,239.8
	c0-3.9-0.1-7.7,0-11.6c0.1-3.1-1.4-3.4-3.8-2.5c-1.1,0.4-2.2,1-3.2,1.6c-0.8,0.5-1.8,1.1-1.3,2.1c0.4,0.9,1.4,0.6,2.1,0.3
	c3.1-1.5,2.9,0.7,2.9,2.6c0,6.3-0.1,12.5,0,18.8c0,1.2-0.8,3.4,1.5,3.3c2.1-0.1,1.5-2.1,1.6-3.5
	C305.6,247.2,305.6,243.5,305.6,239.8z"/>
<path class="st2" d="M500.1,191.3c3.7-0.7,7.4-1.1,11.1,0.3c0,0.5,0,1.1,0,1.6c0,6-3,8-8.9,6.2c-1.4-0.4-2.3-1.3-2.2-2.9
	C500.2,194.8,500.1,193,500.1,191.3z"/>
<path class="st1" d="M529.2,186.9c-0.1,5.2-0.2,10.4-0.2,15.5c0,1.8-0.1,3.3-2.5,2.8c0-6.8,0-13.7,0-20.5c0-1.4-0.1-2.9,0.9-4.1
	c0.6,0.4,1.2,0.9,1.7,1.3c0,1.1,0.1,2.1,0.1,3.2C529.3,185.7,529.2,186.3,529.2,186.9z"/>
<path class="st4" d="M408.6,265.8c0.7-0.4,1.4-0.4,2.1,0C410.1,265.8,409.3,265.8,408.6,265.8z"/>
<path class="st4" d="M254.2,225.5c0,3.6,0,7.1,0,10.7C253.4,232.6,253.5,229,254.2,225.5z"/>
<path class="st4" d="M254.2,219.1c0,1.4,0,2.9,0,4.3C253.4,222,253.5,220.5,254.2,219.1z"/>
<path class="st4" d="M254.2,215.8c0,0.4,0,0.9,0,1.3C253.6,216.6,253.6,216.2,254.2,215.8z"/>
<path class="st2" d="M613,161.4c0,4.2,0,8.4,0.1,12.5c0,9.2,0,18.3,0,27.5c-0.6,0-1.2,0-1.8,0c0-9.1,0-18.3,0-27.4c0-0.5,0-1,0-1.6
	c0-3.7,0-7.3,0.1-11c0-20.8,0-41.6,0.2-62.4c0-2.9-1.1-3.5-3.7-3.6c-7-0.3-11.2-4.8-10.4-10.6c1.3-0.2,1,0.9,1.1,1.6
	c1,4.6,6.5,8.3,11.1,7.6c2.3-0.4,1.8-1.9,1.8-3.3c0-5.1,0-10.3,0-16.2c2.1,1.6,1.5,3.2,1.5,4.4c0,16.8,0,33.6,0,50.4
	c0,4.7,0.6,5.3,5.3,4.5c7.5-1.2,11.1-4.9,12.5-12.4c0.2-1,0.6-2,0.9-3.2c1.9,4.2-0.8,11.3-5.3,14c-3.1,1.9-6.5,3.2-10.2,3.1
	c-2.7-0.1-3.4,1-3.3,3.5C613,146.5,613,153.9,613,161.4z"/>
<path class="st3" d="M647.4,306.8c-46.9,0-93.8,0-140.8,0.1c-3.4,0-4.2-1.1-4.2-4.3c0.1-27.9,0.1-55.7,0-83.6c0-3.7,1.2-4.4,4.5-4.3
	c45.5,0.1,90.9,0.1,136.4,0.1c2.1,0,4.3,0,6.4-0.1c-1.2,4,0.9,6.8,3.7,9.4c-1.4,0.5-2.3,0.1-3.4-0.3c-2.4-0.8-5.1-2-6.8,0.8
	c-1.7,2.8-0.2,5.2,1.6,7.6c2.5,3.3,6.5,4,9.8,5.8c-0.6,7.4-5.7,12.5-9.6,18.2c-2.2,3.2-1.8,5,2.1,5.6c2.5,0.4,3.3,1.8,4,3.8
	c1.5,1.2-2.4,2.9,0.4,3.9c-0.3,6.7,0.6,7.9,5.3,8.5c2.2,0.3,4.7-1.8,6.3,0c1.5,1.7-0.9,4.2-0.2,6.5c-5.1,1.6-7.4,5.4-8.4,10.3
	c-1.5,1-1.5,2.6-1.9,4.1c0,0-0.3,0.2-0.3,0.2c-0.2,0.2-0.5,0.4-0.7,0.6C649.7,301.8,648.7,304.4,647.4,306.8z M583.4,232.5
	c-2.5,0-5.1-0.3-7.6,0.1c-18.7,2.9-33.7,12.9-47.2,25.5c-2.3,2.1-2.1,3.7,0.2,5.9c7,6.4,14.3,12.4,22.6,16.9
	c13.2,7.1,27,11,42.1,7.8c17.8-3.7,32.3-13.2,44.9-25.9c1.6-1.6,1.2-2.4-0.1-3.8c-4.6-4.8-9.8-9-15.3-12.7
	C611,238.1,598.4,231.9,583.4,232.5z"/>
<path class="st0" d="M647.4,306.8c1.3-2.4,2.3-5,4.2-7.2c0.2-0.2,0.5-0.4,0.7-0.6c0,0,0.3-0.2,0.3-0.2c2.7-1.2,4.2-3.5,5.9-5.8
	c1.2-1.6,2.3-1.7,3.1,0.3c0.8,2,2,3.8,2.4,5.9c0.5,3,1.9,2.9,4.2,2c6.8-2.6,12.9-6.3,18.4-11c3.1-2.7,3.8-1.5,5.2,1.5
	c3,6.7,4.8,13.7,5.4,21.1c0.1,1.2,0.5,2.3,0.8,3.5c-0.4,2.7,0.7,5.6-1.2,8.3c-0.8,1.1-0.1,2.7,1.1,3.7c-6.3,11.4-11.1,23.4-14.6,36
	c-2.1,7.4-4.2,14.8-6.2,22.1c-16.8-0.5-33.5-1.4-50.3-1.3c-1.1-1.9-1.9-3.9-1.7-6.2c0.3-3.5,0.6-7,0.9-10.5c0.6-2.1,1.1-4.2,1.7-6.3
	c3.6,0,7.1-0.5,10.7-0.8c14.6-1.3,28.1-5.1,39-15.7c6.6-6.4,11.3-13.8,12.3-23.3c-1.6,0.1-1.8,1.2-1.9,2
	c-2.8,13.4-11.6,22.1-23.2,28.3c-11.5,6.2-24.2,7.5-37,7.8c-11.2-0.3-22.1-2.4-32.2-7.5c-6.6-3.3-12.9-7.3-16.8-14.1
	c2.3-3.6,5.7-6.5,7.5-10.5c0.2-0.3,0.4-0.5,0.6-0.8c0-0.3,0.1-0.5,0.1-0.8c1.3,0,2.6,0,3.9,0c0,1,0.6,1.6,1.6,1.6
	c0.2,0.1,0.5,0.2,0.7,0.3c8.8,3.9,18,5.9,27.6,5.3c6.5-0.4,12.3-3,18-5.7c-1,8.4-3.7,16.5-3.6,25.1c-3.8-4.6-7.8-8.9-10.2-14.3
	c-0.6-1.4-1.1-3.3-3.3-2.5c-3.5,1.2-7,8.3-5.9,12.8c1.5-4.5,2.7-8.6,6.7-11c3.4,5.7,6.4,11.3,10.8,16c0.8,0.8,1.5,2.2,2.9,1.6
	c1.3-0.6,1.1-2,1.1-3.2c-0.4-5.5,0.8-10.9,1.9-16.2c0.8-3.9,0.8-8.4,4.4-11.2c2.7-2.2,5.2-4.6,7.5-7.2c2.1-2.5,4.7-4.9,5.1-8.6
	c-4.5,4.1-7.3,9.7-12.4,13.1c-0.4-2.2,0.8-4.2,0.8-6.4C645.2,313.2,646.3,310,647.4,306.8z"/>
<path class="st1" d="M676.9,386.5c2.1-7.4,4.2-14.8,6.2-22.1c3.5-12.5,8.3-24.6,14.6-36c3.6-4.7,7.1-9.5,12.8-11.9
	c3.1-0.4,5.9,0.8,8.7,1.8c0.5,0.5,1.1,1,1.6,1.4c0.3,0.5,0.6,1,0.9,1.5c0,0,0,0.1,0,0.1c0.1,2.6-0.7,4.9-2.2,7
	c-10.9,15.1-14.5,33-18.8,50.5c-1.2,4.2-2.5,8.4-2.9,12.8c-3,10.7-4.6,21.7-6.4,32.7c-0.7,4.6-1.5,9.1-2.9,13.6
	c-4.8,15.9-16.2,23.5-32.1,25.7c-1.4,0.2-2.9,0.5-4.3,0.8c-4.6,0.3-9.1,0.6-13.7,0.9c-11.2-0.3-22.4,0-33.5-1
	c-0.7-0.7-1.6-0.6-2.4-0.5c-6.1-0.8-11.7-2.8-16.7-6.3c-1.3-3.3-3.3-6.1-3.4-10c-0.3-9.8,5.3-15.3,16.3-14.7
	c6.9,0.4,13.7,0.8,20.4,2.3c3.4,0.8,6.6,1.2,10,1.5c3.5,0.3,4.8-1.2,4.8-4.6c-0.1-6.9,0-13.9,0-20.8c0-1.3-0.3-2.7,0.5-3.9
	c0.1,14.2,0.1,28.4,0.2,42.7c0,3.8,2.4,6.5,5.5,6.5c3.1,0,4.9-2.2,5-6.4c0.1-4.5,0.2-9,0.3-13.5c0.5,0.4,1,1.2,1.4,1.2
	c6.1-1,11.5-4.2,15.4-8.5c4.8-5.5,7.8-12.5,9.8-19.6C674,402,675.3,394.2,676.9,386.5z"/>
<path class="st0" d="M654.4,294.8c1-4.9,3.4-8.8,8.4-10.3c1.3,0,2.5-0.4,3.8-0.8c4.7-1.5,9.3-3.5,14.2-4.1c0.3-0.2,0.6-0.4,0.9-0.7
	c0,0,0.1,0,0.1,0c0.3-0.2,0.5-0.5,0.8-0.7c0.2-0.1,0.5-0.1,0.7-0.1c1.2,0.2,1.7-1.2,2.7-1.4c0.8-0.2,2.2,0.2,1.7,0.8
	c-1.9,2.2,0.7,3.6,0.5,5.4c0.6,3-1,5-3.2,6.7c-5,3.9-10.4,7.2-16.3,9.8c-1.6,0.7-2.8,0.9-3.5-1.4c-0.7-2.1-1.4-4.2-2.7-6.1
	c-2.4-3.4-2.8-3.4-5.3-0.2C656.4,292.8,656,294.4,654.4,294.8z"/>
<path class="st11" d="M710.6,316.4c-5.7,2.4-9.2,7.2-12.8,11.9c-1.2-1-1.9-2.6-1.1-3.7c1.9-2.7,0.8-5.5,1.2-8.3
	C702.1,316.4,706.3,316.4,710.6,316.4z"/>
<path class="st2" d="M435.2,191.6c3.6-1.3,7.2-1.1,10.9-0.1c0,0.5,0,1.1,0,1.6c0,6-3,8.2-8.7,6.2c-1.4-0.5-2.2-1.4-2.1-3
	C435.2,194.8,435.2,193.2,435.2,191.6z"/>
<path class="st8" d="M529.2,186.9c0-0.6,0-1.1,0-1.7c0.8-0.9,0.4-2.1,0.5-3.1c3.5,4.7,7.1,9.5,10.6,14.2c2.3,3,4,6.4,6.9,9
	c-4.8,0-9.5-0.1-14.3,0.1c-2.7,0.1-3.3-0.9-3.4-3.5C529.6,196.8,530.4,191.8,529.2,186.9z"/>
<path class="st9" d="M672.1,206.1c-11.9,0-23.8,0-35.7-0.1c-1.4,0-2.9,0.6-4.1-0.7c0.2-0.3,0.5-0.6,0.7-0.9c11.8,0,23.6,0,35.3,0.1
	C669.7,204.5,671.7,203.5,672.1,206.1z"/>
<path class="st8" d="M611.3,172.4c0,0.5,0,1,0,1.6c-1.6,0-3.2,0-4.8,0C607.4,171.2,609.7,172.9,611.3,172.4z"/>
<path class="st9" d="M529.8,182c-0.2,1,0.3,2.2-0.5,3.1c0-1.1-0.1-2.1-0.1-3.2C529.4,182,529.6,182,529.8,182z"/>
<path class="st8" d="M614.5,205.2c-1.1,0-2.1,0-3.2,0C612.4,204.1,613.5,204.1,614.5,205.2z"/>
<path class="st3" d="M446.5,161.3c2-4.7,4.2-8.4,5.7-12.4c1.2-3.1,3.6-5.5,7.6-5.4c8.4,0.1,16.8,0.5,25.2-0.2c5-0.4,7.3,2.1,9.2,5.6
	c1.7,3.2,3.2,6.4,4.9,9.7c1.4,2.7-0.6,2.7-2.5,2.7c-12.4,0-24.8,0-37.1,0C455.2,161.3,451.1,161.3,446.5,161.3z"/>
<path class="st8" d="M473.2,181.1c-3.6,0-7.2-0.1-10.7,0c-2.5,0.1-2.6-1.5-2.3-3.1c0.3-1.7-1.6-4.8,2-4.9c7.4-0.2,14.9-0.2,22.3,0
	c3.5,0.1,1.6,3.2,1.9,5c0.4,1.8-0.2,3.1-2.5,3C480.4,181,476.8,181.1,473.2,181.1C473.2,181.1,473.2,181.1,473.2,181.1z"/>
<path class="st3" d="M511.2,175.8c0.1,3.3-3.1,6.8-6.5,6.9c-3.3,0.1-6.7-3.1-6.9-6.5c-0.1-3,3.5-6.6,6.7-6.8
	C507.5,169.4,511.1,172.8,511.2,175.8z"/>
<path class="st3" d="M448.1,176c0.1,3.3-3.3,6.7-6.5,6.7c-3.6,0-6.3-2.7-6.3-6.3c0-3.6,2.6-6.4,6.1-6.5
	C445.5,169.8,448.1,172.2,448.1,176z"/>
<path class="st13" d="M261,251.5c2.3,0.7,3-0.7,3.6-2.5c2.2-6.8,4.4-13.7,6.6-20.5c0.5-1.5,0.6-3.2,2.9-3.2c2.4,0,2.3,2,2.8,3.3
	c2.6,7.7,5.1,15.4,7.6,23.1c0.3,1,1,2.2-0.4,2.8c-1.5,0.6-2.3-0.5-2.4-1.8c-0.4-3.4-2.6-3.8-5.4-3.5c-1.4,0.2-3,0.2-4.4,0
	c-3.8-0.6-5.4,1.1-5.3,4.8C265.2,251.9,262.5,253.2,261,251.5z M274.5,230.4c-0.3,0-0.6,0-0.9,0.1c-1.4,4.6-2.9,9.3-4.3,13.9
	c-0.2,0.8-0.6,1.8,0.4,2c2.9,0.7,5.8,0.4,8.7,0.2c0.7,0,1-0.8,0.9-1.5c0-0.1-0.1-0.2-0.1-0.4C277.5,239.9,276,235.2,274.5,230.4z"/>
<path class="st3" d="M645.4,436.5c-0.1,4.5-0.2,9-0.3,13.5c-0.1,4.1-1.8,6.4-5,6.4c-3.1,0-5.5-2.7-5.5-6.5
	c-0.1-14.2-0.1-28.4-0.2-42.7c-0.1-2.6-2-1.9-3.5-1.9c-14.4,0-28.8-0.2-43.1,0c-4.8,0.1-8.3-1.2-10.1-5.9c0-3.7,2.3-5.9,5-7.8
	c13.9,0,27.8-0.1,41.7-0.1c10.5,0.1,21,0.1,31.5,0.2c4.4,0,7.1,2.6,7.1,6.7c0,4.3-2.3,6.7-7,6.9c-2.3,0.1-4.5,0.2-6.8,0
	c-3.1-0.4-3.9,0.9-3.9,3.8C645.4,418.2,645.3,427.4,645.4,436.5z"/>
<path class="st12" d="M322.5,466.5c0-11.9,0-23.7,0-35.6c0-1.9-0.7-4.1,2.7-4.1c3.2,0,2.9,1.8,2.9,3.9c0,24.1,0,48.2,0,72.3
	c0,2.1,0.3,4-2.9,3.9c-3.3,0-2.7-2.2-2.7-4.1C322.5,490.7,322.5,478.6,322.5,466.5z"/>
<path class="st12" d="M342.5,467c0,12.1,0,24.2,0,36.4c0,2,0,3.6-2.8,3.6c-2.9,0-2.8-1.6-2.8-3.6c0-24.2,0-48.5,0-72.7
	c0-1.8-0.4-3.7,2.6-3.8c3.1-0.1,3,1.7,3,3.8C342.5,442.8,342.5,454.9,342.5,467z"/>
<path class="st12" d="M314.5,466.7c0,6.7,0,13.3,0,20c0,2.1-0.1,3.6-2.9,3.5c-2.5,0-2.7-1.3-2.7-3.3c0-13.6,0-27.1,0-40.7
	c0-1.9,0.1-3.3,2.7-3.3c2.7,0,3,1.4,2.9,3.5C314.4,453.1,314.5,459.9,314.5,466.7z"/>
<path class="st12" d="M348.9,466.7c0-6.8,0-13.6,0-20.3c0-1.6,0-3.5,2.3-3.3c1.9,0.2,3.4,0.8,3.3,3.5c-0.1,13.6-0.1,27.1,0,40.7
	c0,2-0.5,2.9-2.7,2.9c-2.3,0-3-0.9-3-3.1C348.9,480.3,348.9,473.5,348.9,466.7z"/>
<path class="st12" d="M535.2,426c0,0.6,0,1.1,0,1.7c-45.1,0-90.2,0-135.3,0c-12.2,0-12.2,0-12.7,12c-0.5,0-0.9,0-1.4,0
	c0-1.6-0.1-3.2-0.1-4.8c0.1-6,2.9-8.8,8.8-8.8C441.4,426.1,488.3,426,535.2,426z"/>
<path class="st12" d="M519.2,506.1c0.1,0.6,0.1,1.2-0.4,1.7c-40.6,0-81.2,0-121.9-0.1c-1.3,0-2.7,0.1-4-0.1
	c-5.4-0.9-7.2-3.1-7.2-8.6c0-1.1,0.1-2.1,0.1-3.2c0.5,0,0.9,0,1.4,0c0.3,9.4,1.4,10.4,10.8,10.4
	C438.4,506.1,478.8,506.1,519.2,506.1z"/>
<path class="st3" d="M387.2,495.7c-0.5,0-0.9,0-1.4,0c-1.9-0.6-2.7-1.8-2.6-3.8c0.2-2.6,0.3-5.3,0-7.9c-0.2-2.3,0.9-3.4,2.6-4.2
	c0.4,0,0.9,0,1.3,0c3,0.6,3.7,2.6,3.3,5.4c-0.2,1.9-0.3,3.9,0,5.9C390.9,493.7,389.8,495.1,387.2,495.7z"/>
<path class="st3" d="M385.8,439.7c0.5,0,0.9,0,1.4,0c2.6,0.7,3.7,2.3,3.3,5.1c-0.3,1.9-0.3,4,0,5.9c0.4,2.8-0.7,4.4-3.3,5
	c-0.5,0-0.9,0-1.4,0c-1.8-0.8-2.8-2-2.6-4.2c0.3-2.5,0.3-5,0-7.5C383,441.7,384,440.5,385.8,439.7z"/>
<path class="st12" d="M385.8,455.6c0.5,0,0.9,0,1.4,0c0,8,0,16,0,24c-0.4,0-0.9,0-1.3,0C385.8,471.7,385.8,463.7,385.8,455.6z"/>
<path class="st3" d="M216,478.9c-2.9,0.6-4.8,2.4-6.5,4.8c-1.4,2-2.5,4.4-4.8,5.7c0.1-0.8,0.1-1.7,0.2-2.5c1.7-2.1,3.4-4.2,5.2-6.2
	c1.5-1.8,3.5-2.6,5.8-2.7C216,478.3,216,478.6,216,478.9z"/>
<path class="st12" d="M697.8,391.7c0.4-4.4,1.7-8.6,2.9-12.8c18.2,0,36.3,0,54.5-0.1c3.3,0,6.6,0.4,9.9-0.3c3,1.7,1.5,4.5,1.5,6.8
	c0.1,7.4,1,6.4-6.5,6.5c-6.6,0.1-13.2,0-19.8,0.1C726.1,391.8,712,391.7,697.8,391.7z"/>
<path class="st9" d="M387.2,479.7c0-8,0-16,0-24c2.7-0.6,3.7-2.3,3.3-5c-0.3-1.9-0.3-4,0-5.9c0.4-2.8-0.7-4.4-3.3-5.1
	c0.5-12,0.5-12,12.7-12c45.1,0,90.2,0,135.3,0c2.7,10.6,0.3,20.6-2.8,30.8c-4.8,15.8-8.8,31.7-13.2,47.6c-40.4,0-80.8,0-121.2,0
	c-9.4,0-10.4-1-10.8-10.4c2.6-0.6,3.7-2,3.3-4.7c-0.3-1.9-0.2-3.9,0-5.9C390.9,482.3,390.2,480.3,387.2,479.7z"/>
<path class="st9" d="M585.9,457.6c5,3.5,10.7,5.5,16.7,6.3c0,11.7,0,23.5,0,35.2c0,4.7-2.3,6.9-7.1,7c-3.7,0.1-7.5,0-11.2,0
	c0.3-8.8,1.2-17.6,0.7-26.4c0-0.5,0-1.1,0-1.6C585.2,471.3,585.6,464.4,585.9,457.6z"/>
<path class="st9" d="M552.3,522.9c-3.2,0-6.4,0-9.7,0c3.2-5.2,6.3-10.3,9.8-16C555,512.7,556.1,517.9,552.3,522.9z"/>
<path class="st12" d="M584.3,506.1c3.7,0,7.5,0.1,11.2,0c4.8-0.1,7.1-2.3,7.1-7c0-11.7,0-23.5,0-35.2c0.9-0.1,1.7-0.2,2.4,0.5
	c-1.3,1.2-0.8,2.7-0.8,4.2c0,10.3,0,20.5,0,30.8c0,6-1.9,8.1-8,8.3c-4,0.2-8,0-12,0.1C584.2,507.1,584.2,506.6,584.3,506.1z"/>
<path class="st2" d="M584.9,478.1c0,0.5,0,1.1,0,1.6c-5.1,7.8-9.5,16-15.3,23.3c-1.1,1.4-2.3,2.9-3.9,3.9l0,0
	c-0.1-4,3.5-5.8,5.3-8.5c4-5.8,7.6-11.8,11.1-17.9C582.8,479.4,583.3,478.1,584.9,478.1z"/>
<path class="st2" d="M565.8,506.9c-0.4,2.5-2.7,3.4-4,5.2c-0.5,0.7-1.7,1.2-1.1,2.3c0.5,0.8,1.4,0.5,2.2,0.5
	c3.4,0.1,6.8-1.2,10.2-0.7c1.7,0.2,4.5-1,4.9,1.2c0.4,2.3-2,3.7-4.2,4.4l0,0c-0.2-1.6,1.4-2.1,2.1-4c-5,0-9.8,0-14.5,0
	c-1,0-2.4,0.5-3-0.5c-0.8-1.3,0.6-2.3,1.3-3C561.5,510.2,562.7,507.5,565.8,506.9L565.8,506.9z"/>
<path class="st2" d="M573.8,519.7c-4.8,4.6-12.6,7.6-17.7,6.7c0.2-1.1,1.1-1,1.9-1.1c4.4-0.6,8.5-1.8,12.2-4.4
	C571.1,520.1,572.3,519.5,573.8,519.7L573.8,519.7z"/>
<path class="st12" d="M255.1,489.4c-1.2,5.4-8.6,8.6-13.1,6.1c-0.7-0.4-0.7-0.9-0.6-1.6c0.2-1,0.3-2.1,0.3-3.2
	c0.1-5.1,2-5.5,7.2-5.2c5.3,0.3,10.9,1.3,16.1,0c2.3-0.5,4,0.2,4.8,1c1.7,1.6,1,4.3,0.6,6.4c-0.3,1.7-1.9,2.7-3.9,2.7
	c-4,0-8.1,0.7-9.5-4.7C256.7,490.5,255.9,490.2,255.1,489.4z"/>
<path class="st2" d="M654.6,238.1c-3.3-1.8-7.3-2.4-9.8-5.8c-1.8-2.4-3.3-4.8-1.6-7.6c1.7-2.8,4.4-1.6,6.8-0.8c1,0.3,2,0.8,3.4,0.3
	c-2.7-2.6-4.9-5.5-3.7-9.4c1.6-1.5,3.2-0.2,4.8,0.1c3.1,2,6.2,4,9.7,5.3c2.6,0.9,5.1,2.2,7.9,1.8c0.3,0,0.6,0,0.8,0
	c0.3,0.1,0.6,0.1,0.9,0.2l0.2,0.2c0,0,0.3-0.1,0.3-0.1c4.2,0.5,8.5,0.7,12.6,1.5c4.8,1,8.6,3.4,9.3,9c0.1,0.8,0.1,1.7,1.3,2.1
	c5,1.7,6.9,5.4,5.5,10.7c-0.4,1.5-1.1,3-1.9,4.4c-2.5,4.1-5,7.9-5.7,12.9c-0.7,4.6-3.7,8.2-8.3,10c-1.2-0.7-3.7,1-3.7-1.7
	c0-2.1-1-4.7,2.3-6c3.8-1.5,5.6-6.3,5-10.4c-0.4-2.4-1.9-3.4-4-3.7c-1.9-0.3-3.7-0.2-4.5,2.1c-0.4,1.1-1.2,2-1.9,3
	c-0.7,1-1.3,2.2-2.7,2c-1.7-0.2-1.8-1.9-2.1-3.1c-0.8-3.8-1.2-7.6-1.1-11.5c0-2.2-0.8-3.4-3.2-3.4
	C665.6,239.9,660.1,239.1,654.6,238.1z"/>
<path class="st14" d="M673,221.9c-0.3,0-0.6,0-0.8,0c0-5.2,0-10.4-0.1-15.6c0.2,0,0.4,0,0.6,0C672.8,211.5,672.9,216.7,673,221.9z"
	/>
<path class="st9" d="M673,221.9c-0.1-5.2-0.2-10.4-0.3-15.6c1.9,1,1,2.8,1,4.3c0.2,3.8,0.1,7.7,0.2,11.5
	C673.6,222,673.3,222,673,221.9z"/>
<path class="st4" d="M654.6,238.1c5.5,1,11,1.8,16.6,2c2.4,0.1,3.2,1.2,3.2,3.4c-0.1,3.9,0.3,7.7,1.1,11.5c0.3,1.2,0.4,2.8,2.1,3.1
	c1.4,0.2,2-1,2.7-2c0.7-1,1.5-1.9,1.9-3c0.8-2.3,2.6-2.4,4.5-2.1c2.2,0.3,3.6,1.3,4,3.7c0.7,4.1-1.2,8.9-5,10.4
	c-3.3,1.3-2.3,3.9-2.3,6c0,2.7,2.5,1,3.7,1.7c-3.3,0.2-4.5,2-3.9,5.2c-0.2,0-0.5,0.1-0.7,0.1c-0.3,0.2-0.5,0.5-0.8,0.7
	c0,0-0.1,0-0.1,0c-0.3,0.2-0.6,0.4-0.9,0.7c-5,0.6-9.5,2.6-14.2,4.1c-1.3,0.4-2.5,0.8-3.8,0.8c-0.7-2.2,1.7-4.8,0.2-6.5
	c-1.6-1.8-4.1,0.3-6.3,0c-4.6-0.6-5.5-1.8-5.3-8.5c3.1,0.6,6.1,0.6,8.6-1.8c-2.1-0.2-4,0.2-6.1,0.3c-2.1,0.1-2.4-0.3-2.9-2.3
	c-0.7-1.9-1.5-3.4-4-3.8c-3.9-0.6-4.3-2.4-2.1-5.6C648.9,250.6,654,245.5,654.6,238.1z"/>
<path class="st12" d="M578.4,338.9c3.9,6.7,10.2,10.7,16.8,14.1c10,5.1,20.9,7.2,32.2,7.5c0,0.6,0,1.1,0.1,1.7
	c-0.6,2.1-1.1,4.2-1.7,6.3c-44.4,0-88.8,0-133.2,0c-5.1,0-6.6-2.1-5.7-7.1c1.8-9.8,3.6-19.5,5.2-29.3c0.6-3.5,2.3-4.5,5.7-4.5
	c19.2,0.1,38.4,0.1,57.6,0.1c-0.1,0.8,0,1.7-0.3,2.4c-2.1,5.1-1.3,8.4,2.8,12.2c1.3,1.2,2.3,1.7,4.1,0.6c2.5-1.5,5.5-3.8,8.4-2
	C574.2,343.2,576.2,341.5,578.4,338.9z"/>
<path class="st4" d="M578.4,338.9c-2.2,2.6-4.3,4.3-8,1.9c-2.9-1.8-5.9,0.5-8.4,2c-1.8,1.1-2.8,0.6-4.1-0.6
	c-4.1-3.8-4.9-7.1-2.8-12.2c0.3-0.7,0.2-1.6,0.3-2.4c4.7-3.8,8.7-8.5,14.4-11.2c2.1,0,4.3,0,6.4,0c0.1,0.9,0.7,1.2,1.4,1.7
	c3.7,2.3,7,4.9,9.2,8.8c0,0.3-0.1,0.5-0.1,0.8c-0.2,0.3-0.4,0.5-0.6,0.8C584.1,332.4,580.8,335.3,578.4,338.9z"/>
<path class="st9" d="M276.1,332.5c2-0.1,2.3-2,3.1-3.2c2.2-3.1,5.1-2.5,8.1-2.2c1.5,0.1,1.2,1.4,0.9,2.4c0.1,1.6-1.1,2.5-1.7,3.8
	c-0.1,0.1-0.3,0.2-0.3,0.2c0,0.2,0.1,0.4,0.2,0.6c0,1.3,0,2.7,0,4c-1.2-1.4-2.3-2.2-3.5,0c-1.5,2.9-3.1,5.8-4.7,8.7
	c-3.3,6.1-6.7,12-9.8,18.2c-1.7,3.4-4.1,5-7.9,4.3c-1.4-0.2-2-0.6-1.3-2c1.8-3.8,3.2-7.9,6.4-10.8c0,0.5,0.1,1,0.1,1.6
	c0.2,1.3-0.6,3.3,1.8,3.1c2-0.2,1.4-1.9,1.4-3.1c0.1-4.2,0-8.4,0-12.6C275.4,343.4,277.6,339.5,276.1,332.5z"/>
<path class="st1" d="M276.1,332.5c1.5,7-0.7,11-7.2,12.9c-1.1,0-2.1,0-3.2,0c-0.3-0.1-0.5-0.1-0.8,0c-6.4-3-8.7-7.8-6.4-12.8
	c1.6-3.5,4.3-5.3,8-5.6C270.9,326.5,274,328.6,276.1,332.5z"/>
<path class="st1" d="M286.4,333.2c0.6-1.2,1.9-2.2,1.7-3.8c7.7-3.8,10.3-3.6,15.7,1.6c2.1,8.4,0.3,12.1-6.9,14.4c-1.1,0-2.2,0-3.2,0
	c-4-0.9-6.4-3.4-7.4-7.3c0-1.3,0-2.7,0-4C286.3,333.8,286.4,333.5,286.4,333.2z"/>
<path class="st9" d="M297,345.4c7.2-2.3,8.9-5.9,6.9-14.4c1.8-2.2,2.9-4.8,6.7-4.4c3.2,0.4,3.6,1.4,2.3,4c-1.5,3.1-2.9,6.2-4.3,9.3
	c-4.2,9-8.5,17.9-12.5,26.9c-1.6,3.5-4.4,2.2-6.8,2.2c-1.3,0-1.2-1.2-0.8-2.1c1.3-3.4,2.4-7,5.1-9.7c0.5,1.4-0.9,3.9,2,3.9
	c2.9,0,1.9-2.4,1.9-3.8C297.5,353.4,298,349.4,297,345.4z"/>
<path class="st9" d="M351.3,350.7c2.1-7.1,4.3-14.2,6.2-21.4c1.1-4.3,4.3-2.5,6.4-2.2c2.9,0.3,1.1,2.7,0.7,4.1
	c-1.7,6.5-3.6,13-5.4,19.5C356.6,350.7,354,350.7,351.3,350.7z"/>
<path class="st9" d="M332.9,348.6c-0.2,3.5-3,6-3.7,9.4c-0.5,2.4-1.7,4.8-2.8,7c-0.9,1.8-1.4,4.3-4.2,4.2c-1.7,0-3.7,0.9-4.9-0.6
	c-1.1-1.5,0.9-2.5,1.4-3.8c2-5.4,4.1-10.8,6.1-16.2C327.5,348.5,330.2,348.6,332.9,348.6z"/>
<path class="st1" d="M445.8,369c-2.6,0-5-0.6-7.4-1.5c-2.8-1.1-2.9-3.2-0.4-5c3-2.1,12.8-2,15.7,0.1c2.2,1.7,2.1,3.7-0.5,4.8
	C450.9,368.3,448.4,369,445.8,369z"/>
<path class="st1" d="M351.3,350.7c2.7,0,5.3,0,8,0c5.6,0.8,6.5,2.3,3.9,6.4c-5.9,0.1-11.7,0.2-17.6,0.2c-1.8-1.2-2.2-2.9-1.6-4.8
	c0.7-2,2.5-1.5,4-1.6C349.2,350.9,350.2,350.8,351.3,350.7z"/>
<path class="st1" d="M332.9,348.6c-2.7,0-5.4,0-8.1,0c-2.1-0.2-4.5,0.1-5.3-2.5c-0.6-1.9,0.4-3.3,2.1-4.1c1,0,2.1-0.1,3.1-0.1
	c0.6,0,1.1,0,1.7,0c3.5,0,6.9,0,10.4,0c2.1,0.3,3.5,1.4,3.3,3.7c-0.3,2.3-2,2.9-4.1,2.9C335,348.4,334,348.5,332.9,348.6z"/>
<path class="st9" d="M336.9,341.8c-3.5,0-6.9,0-10.4,0c4.1-2.3,4.5-6.8,6.2-10.5c1.8-3.9,4.6-5.8,8.5-4.4c1.9,0.7,0.9,1.6,0.5,2.8
	C340.1,333.7,337.4,337.3,336.9,341.8z"/>
<path class="st3" d="M396,334.8c-2.6,0.2-5.1-0.2-7.4-1.4c-2.6-1.4-2.6-3.9,0.1-5.1c5-2.1,10-1.9,15,0.1c1,0.4,1.8,1.1,1.9,2.3
	c0.1,1.4-0.9,2.1-2,2.7C401.2,334.6,398.6,335,396,334.8z"/>
<path class="st3" d="M424.5,334.8c-3.2,0-6-0.1-8.3-2c-1.6-1.2-1.8-2.5-0.1-3.9c3.2-2.6,13.2-2.8,16.4-0.3c2,1.6,1.8,3.2-0.3,4.4
	C429.7,334.6,426.9,335.1,424.5,334.8z"/>
<path class="st3" d="M422.3,344.4c1.5,0,4-0.3,6.1,1.1c1,0.6,2,1.4,2,2.7c0.1,1.5-1.1,2.1-2.2,2.5c-4.9,1.8-9.8,1.8-14.6-0.1
	c-1.1-0.4-2.1-1.2-2.2-2.6c0-1.3,1.1-1.7,1.9-2.3C415.9,344.2,418.7,344.4,422.3,344.4z"/>
<path class="st3" d="M452,334.8c-2.7,0.3-5.1-0.3-7.4-1.3c-1.2-0.5-2.1-1.2-2.1-2.6c0-1.4,0.8-2.1,2-2.6c4.8-1.9,9.5-1.9,14.3,0
	c1.2,0.4,2.1,1.2,2.1,2.6c0,1.4-0.9,2.1-2.1,2.6C456.7,334.5,454.4,335,452,334.8z"/>
<path class="st3" d="M418,369c-2.1-0.4-4.2-0.8-6.3-1.3c-1.3-0.3-2.6-1.1-2.7-2.6c-0.2-1.6,1.1-2.5,2.3-2.9c4.9-1.6,10-1.7,14.8,0.3
	c2.6,1.1,2.5,3.4,0,4.8C423.6,368.6,420.7,368.5,418,369z"/>
<path class="st3" d="M390.5,361.2c2.6-0.1,5.1,0.1,7.4,1.2c1,0.5,1.9,1.2,2,2.3c0.1,1.4-0.9,2.3-2,2.7c-4.9,1.8-9.9,1.8-14.8,0.1
	c-1.1-0.4-2-1.2-2.1-2.6c-0.1-1.6,1.1-2,2.1-2.6C385.4,360.9,388,361.3,390.5,361.2z"/>
<path class="st3" d="M392.9,344.4c2.7-0.2,5.3,0,7.7,1.4c2.4,1.5,2.5,3,0.2,4.5c-3.1,2.1-12.7,2.1-15.8,0c-2.3-1.6-2.1-3.3,0.1-4.6
	C387.5,344.3,390.2,344.2,392.9,344.4z"/>
<path class="st3" d="M448.1,351.7c-2.4,0-4.8,0.1-7-1c-2.4-1.2-2.6-3.4-0.4-4.9c2.9-2,13-2,15.8,0.1c2,1.5,1.8,3.1-0.2,4.4
	C453.8,352,450.9,351.7,448.1,351.7z"/>
<path class="st9" d="M345.6,357.4c5.9-0.1,11.7-0.2,17.6-0.2c-0.3,0.3-0.6,0.8-0.9,0.7c-5.6-0.9-6.4,2.8-7.2,7
	c-0.3,1.6,0.2,4.1-2.9,4.4c-5.6,0.5-6.3-0.2-4.8-5.7c0.4-1.6,1-3.2,1.6-4.9c-2.4-0.1-4.1,1.9-6.2,0.4
	C343.2,357.5,345.1,358.5,345.6,357.4z"/>
<path class="st3" d="M297,345.4c1,3.9,0.5,7.9,0.5,11.9c0,1.5,1,3.9-1.9,3.8c-2.9,0-1.5-2.5-2-3.9c0.1-4,0.1-7.9,0.2-11.9
	C294.8,345.4,295.9,345.4,297,345.4z"/>
<path class="st3" d="M265.6,345.4c1.1,0,2.1,0,3.2,0c0,4.2,0.1,8.4,0,12.6c0,1.2,0.6,3-1.4,3.1c-2.4,0.2-1.6-1.8-1.8-3.1
	c-0.1-0.5-0.1-1-0.1-1.6c0-2.4,0-4.8,0-7.2c0.1-0.3,0.1-0.5,0-0.8c0-0.5,0-1.1,0-1.6C265.6,346.4,265.6,345.9,265.6,345.4z"/>
<path class="st9" d="M324.8,341.8c-1,0-2.1,0.1-3.1,0.1C322.7,341,323.8,341,324.8,341.8z"/>
<path class="st9" d="M265.6,345.4c0,0.5-0.1,1-0.1,1.5c-0.2-0.5-0.4-1-0.7-1.5C265.1,345.2,265.4,345.3,265.6,345.4z"/>
<path class="st9" d="M265.5,348.5c0.1,0.3,0.1,0.5,0,0.8c-0.1-0.2-0.2-0.4-0.2-0.5C265.3,348.6,265.4,348.5,265.5,348.5z"/>
<path class="st11" d="M586.7,326.9c-2.2-3.9-5.5-6.5-9.2-8.8c-0.7-0.4-1.3-0.8-1.4-1.7c22.7,0,45.4,0,68.1,0c0,2.2-1.2,4.2-0.8,6.4
	c-1.6,1.3-3.2,2.6-4.8,3.9c-15.5,0.8-31,1-46.5,0.7c-0.4-0.6-1-0.7-1.6-0.7C589.2,326.9,588,326.9,586.7,326.9z"/>
<path class="st3" d="M664.3,220.1c-3.5-1.3-6.6-3.2-9.7-5.3c1.2,0,2.4,0.1,3.5,0C663.9,214.1,663.9,214.1,664.3,220.1z"/>
<path class="st2" d="M645.4,436.5c0-9.2,0-18.3-0.1-27.5c0-2.9,0.8-4.1,3.9-3.8c2.2,0.3,4.5,0.1,6.8,0c4.6-0.2,7-2.5,7-6.9
	c0-4.1-2.7-6.7-7.1-6.7c-10.5-0.1-21-0.1-31.5-0.2c0.8-2.1,1.5-4.2,2.3-6.3c16.8-0.1,33.6,0.8,50.3,1.3c-1.6,7.7-2.9,15.5-5,23
	c-1.9,7.1-4.9,14.2-9.8,19.6c-3.8,4.3-9.3,7.5-15.4,8.5C646.4,437.8,645.9,436.9,645.4,436.5z"/>
<path class="st13" d="M389.7,250c0-1.6,0.6-3.3-1.7-4.3c-1.3-0.5-0.6-1.5,0.7-2.1c3.2-1.5,3.6-4.7,1-7.2c-0.9-0.9-1.1-1.9,0-2.1
	c3.3-0.4,2.9-3,3.2-5.1c0.2-1.2,0.2-2.6,1.9-2.4c1.8,0.3,1.4,1.9,1.1,2.9c-1.2,3.7,0.1,4.7,3.7,4.4c2-0.2,2.9-0.7,2.9-2.8
	c0-1.2,0.4-2.3,0.7-3.5c0.2-0.7,0.8-1.1,1.5-0.9c0.8,0.1,0.9,0.8,1,1.5c0.2,2.3-1.2,5,2.1,6.4c0.6,0.2-0.1,1.2-0.9,1.7
	c-3.8,2-4,4.8-0.7,7.3c1.2,0.9,0.6,1.9-0.2,2c-3.4,0.4-3.3,2.9-3.5,5.3c-0.1,1.3-0.2,3.1-2,2.8c-1.9-0.3-1.2-2.1-1-3.3
	c0.5-4.3,0-4.8-4-4.4c-1.6,0.2-2.4,0.8-2.6,2.4c-0.1,1-0.4,2.1-0.6,3.1c-0.2,0.9,0.1,2.5-1.6,2.2c-1.5-0.2-0.9-1.6-1-2.6
	C389.6,250.8,389.7,250.4,389.7,250z M396.2,243.4c5.7,1.3,4.7-2.6,5.2-4.8c0.6-2.7-1.8-1.8-3.2-2c-4.7-0.9-3.9,3-4.3,5.3
	C393.5,244.6,396.1,243.3,396.2,243.4z"/>
<path class="st13" d="M316,251.7c4,0,7.1,0,10.3,0c1.1,0,2.7-0.3,2.5,1.6c-0.1,1.5-1.4,1.3-2.4,1.3c-3.7,0-7.4,0.1-11.2,0
	c-1.1,0-2.6,0.5-3.1-1.1c-0.4-1.2,0.1-2.3,0.9-3.3c3-3.6,5.9-7.2,8.7-10.8c1.1-1.4,2.2-2.8,2.7-4.4c0.9-2.8,0.9-5.6-2.6-7
	c-3.2-1.2-5.4,0-6.9,2.9c-0.3,0.6-0.5,1.2-0.6,1.9c-0.3,1-1,1.2-1.8,1.1c-1.2-0.2-1.2-1.1-1-2.1c0.6-3.1,2.1-5.6,5.3-6.4
	c3.5-0.8,7-0.6,9.6,2.2c2.2,2.4,2.1,5.4,1,8.2c-2.1,5.2-6.3,8.8-9.5,13.2C317.6,249.8,317.1,250.3,316,251.7z"/>
<path class="st13" d="M345.7,228.3c-3.8,0-6.7,0-9.6,0c-1.1,0-2.3,0-2.3-1.5c0-1.6,1.2-1.5,2.3-1.5c3.6,0,7.2-0.1,10.8,0
	c3,0.1,3.7,1.6,2,4.1c-0.5,0.8-1.3,1.4-1.8,2.1c-1.6,2.2-5.7,4.1,0.2,6.7c3.8,1.7,3.7,10.6,0.5,14.1c-3.1,3.5-8.9,3.5-12.1,0.2
	c-0.9-1-1.6-2.1-1.9-3.5c-0.2-1-0.7-2.3,0.6-2.8c1.6-0.6,2.1,0.7,2.3,2c0.6,3,2.6,4.3,5.5,4.1c2.9-0.1,5.2-3.1,4.9-6.7
	c-0.2-3-0.6-6.3-4.7-6.8c-4.6-0.6-4.6-0.7-1.7-4.3C342.2,232.5,343.7,230.8,345.7,228.3z"/>
<path class="st13" d="M361.7,246.7c-8.2,0-8.2,0-4.7-7.3c1.9-4.1,3.8-8.2,5.7-12.3c0.5-1.2,1.2-2.3,2.7-1.7c1.8,0.8,0.3,2.2,0,3
	c-1.9,4.3-3.9,8.4-6,12.6c-1,2.1-0.6,2.9,1.8,2.7c0.9-0.1,1.9-0.1,2.8,0c3,0.4,4.5-0.5,4.1-3.9c-0.1-1.1-0.7-3.2,1.2-3.2
	c2,0,1.2,2,1.3,3.2c0.1,1.7-0.4,3.5,1.9,4.3c0.6,0.2,0.8,1.4,0.3,1.7c-2.8,1.7-2,4.3-2.2,6.7c0,0.9,0,2-1.4,1.9
	c-1-0.1-1.1-1-1.1-1.8c0-0.1,0-0.3,0-0.4C367.5,246.7,367.5,246.7,361.7,246.7z"/>
<path class="st13" d="M305.6,239.8c0,3.7,0,7.5,0,11.2c0,1.4,0.5,3.4-1.6,3.5c-2.4,0.1-1.5-2.1-1.5-3.3c-0.1-6.3,0-12.5,0-18.8
	c0-2,0.2-4.1-2.9-2.6c-0.7,0.3-1.7,0.6-2.1-0.3c-0.5-1.1,0.5-1.7,1.3-2.1c1-0.6,2.1-1.2,3.2-1.6c2.3-0.9,3.9-0.6,3.8,2.5
	C305.5,232.1,305.6,235.9,305.6,239.8z"/>
<path class="st11" d="M765.1,378.5c-3.3,0.7-6.6,0.3-9.9,0.3c-18.2,0.1-36.3,0-54.5,0.1c4.3-17.6,7.9-35.4,18.8-50.5
	c1.5-2.1,2.4-4.4,2.2-7c4.9,4.6,8.6,10.3,12.7,15.6c9.3,11.8,18.5,23.8,27.7,35.7C763.6,374.3,765.3,376,765.1,378.5z"/>
<path class="st11" d="M721.8,321.2c-0.3-0.5-0.6-1-0.9-1.5C721.6,319.9,721.8,320.5,721.8,321.2z"/>
<path class="st7" d="M583.4,232.5c14.9-0.6,27.6,5.6,39.6,13.6c5.5,3.7,10.7,7.9,15.3,12.7c1.3,1.4,1.7,2.2,0.1,3.8
	c-12.6,12.7-27.1,22.2-44.9,25.9c-15.1,3.2-28.9-0.7-42.1-7.8c-8.4-4.5-15.7-10.4-22.6-16.9c-2.3-2.1-2.5-3.7-0.2-5.9
	c13.5-12.6,28.5-22.6,47.2-25.5C578.3,232.2,580.9,232.5,583.4,232.5z M578.5,241.1L578.5,241.1c-2.6-0.2-4.7,1.5-7.2,1.8
	c-1-0.5-1.6-2.3-2.9-1.4c-1.8,1.3-3.5,2.9-4.7,4.7c-1.1,1.7,1.7,2.3,2,3.8c-2.1,1.6-2.2,3.9-2.5,6.2c-4-0.3-4.5,1.8-4.6,5.3
	c-0.1,3.9,2,3.8,4.6,3.9c-0.4,2.6,1.4,4.7,1.9,7.1c-2.7,2.1-1.2,3.5,0.5,5.4c2.1,2.3,3.9,3.4,6.3,0.6c2.1,1.3,4.1,2.7,6.7,2.7
	c-0.4,4.7,2.9,3.8,5.7,4c3.4,0.3,3.1-1.8,3.2-3.9c2.6-0.1,4.6-2.1,7.1-2.6c1.7,1.7,3.3,2.4,5.1,0c1.5-2,4.4-3.1,1.3-6.3
	c-2.7-2.8-0.7-7.1,3.3-7.1c2.9,0,3.5-1.3,3.1-3.6c-0.4-2.1,1.7-5.3-2.9-5.4c-4.4-0.1-6.1-4.1-3.1-7.4c2.7-3,0.1-4-1.2-5.7
	c-1.8-2.3-3.5-2.6-5.4-0.3c-2.4-0.9-4.8-1.7-7.2-2.6c-0.1-2,0.4-4.3-3-3.9c-2.7,0.3-6.2-0.9-5.6,3.9
	C578.7,240.6,578.6,240.8,578.5,241.1z"/>
<path class="st5" d="M651,265.6c0.5,2.1,0.8,2.4,2.9,2.3c2-0.1,4-0.4,6.1-0.3c-2.5,2.4-5.5,2.4-8.6,1.8
	C648.6,268.5,652.5,266.8,651,265.6z"/>
<path class="st9" d="M652.2,299.1c-0.2,0.2-0.5,0.4-0.7,0.6C651.8,299.5,652,299.3,652.2,299.1z"/>
<path class="st12" d="M592.1,327.5c15.5,0.3,31,0.1,46.5-0.7c0,0.5,0,1.1,0,1.6c-5.7,2.7-11.5,5.3-18,5.7
	c-9.7,0.6-18.8-1.4-27.6-5.3c-0.2-0.1-0.5-0.2-0.7-0.3C592.2,328.1,592.1,327.8,592.1,327.5z"/>
<path class="st9" d="M638.5,328.4c0-0.5,0-1.1,0-1.6c1.6-1.3,3.2-2.6,4.8-3.9c5.1-3.4,7.9-9.1,12.4-13.1c-0.5,3.7-3,6.1-5.1,8.6
	c-2.2,2.6-4.7,5-7.5,7.2c-3.6,2.8-3.6,7.3-4.4,11.2c-1,5.3-2.3,10.6-1.9,16.2c0.1,1.2,0.2,2.6-1.1,3.2c-1.4,0.7-2.1-0.8-2.9-1.6
	c-4.4-4.7-7.4-10.3-10.8-16c-4,2.3-5.3,6.5-6.7,11c-1.1-4.5,2.4-11.6,5.9-12.8c2.3-0.8,2.7,1.1,3.3,2.5c2.4,5.4,6.4,9.6,10.2,14.3
	C634.9,344.9,637.6,336.8,638.5,328.4z"/>
<path class="st9" d="M627.4,362.1c0-0.6,0-1.1-0.1-1.7c12.8-0.3,25.5-1.6,37-7.8c11.5-6.2,20.3-14.8,23.2-28.3
	c0.2-0.8,0.3-1.9,1.9-2c-1.1,9.5-5.7,16.9-12.3,23.3c-10.9,10.5-24.4,14.4-39,15.7C634.6,361.7,631,362.1,627.4,362.1z"/>
<path class="st9" d="M592.1,327.5c0,0.3,0,0.6,0,0.9c-1.1,0-1.6-0.5-1.6-1.6C591.2,326.9,591.8,326.9,592.1,327.5z"/>
<path class="st11" d="M585.9,328.4c0.2-0.3,0.4-0.5,0.6-0.8C586.3,327.9,586.1,328.2,585.9,328.4z"/>
<path class="st14" d="M680.8,279.5c0.3-0.2,0.6-0.4,0.9-0.7C681.5,279.1,681.2,279.3,680.8,279.5z"/>
<path class="st14" d="M681.8,278.8c0.3-0.2,0.5-0.5,0.8-0.7C682.3,278.4,682.1,278.6,681.8,278.8z"/>
<path class="st1" d="M274.5,230.4c1.5,4.8,3,9.5,4.5,14.3c0,0.1,0.1,0.2,0.1,0.4c0.1,0.7-0.1,1.5-0.9,1.5c-2.9,0.2-5.8,0.5-8.7-0.2
	c-1-0.2-0.6-1.3-0.4-2c1.4-4.6,2.9-9.3,4.3-13.9C273.8,230.4,274.1,230.4,274.5,230.4z"/>
<path class="st11" d="M286.4,333.2c0,0.3-0.1,0.5-0.1,0.8c-0.1-0.2-0.2-0.4-0.2-0.6C286.1,333.4,286.3,333.3,286.4,333.2z"/>
<path class="st1" d="M396.2,243.4c-0.2-0.1-2.7,1.2-2.3-1.5c0.4-2.3-0.4-6.2,4.3-5.3c1.4,0.3,3.8-0.7,3.2,2
	C401,240.7,402,244.6,396.2,243.4z"/>
<path class="st1" d="M571.9,278.5c-2.4,2.8-4.2,1.7-6.3-0.6c-1.7-1.9-3.2-3.3-0.5-5.4c1.2-1,2.8-1.9,1.5-3.8
	c-0.9-1.3-0.4-4.1-3.4-3.3c-2.6-0.1-4.7,0-4.6-3.9c0.1-3.5,0.6-5.6,4.6-5.3c2.9,0.8,2.5-1.9,3.4-3.1c0.9-1.3,0.6-2.4-0.9-3.1
	c-0.3-1.5-3.1-2.1-2-3.8c1.2-1.8,2.9-3.4,4.7-4.7c1.3-1,1.9,0.9,2.9,1.4c0.9,1,1.6,2.8,3.4,1.7c1.4-0.9,4.4-0.3,3.8-3.5
	c0,0,0.1-0.1,0.1-0.1c0.5-0.1,0.6-0.3,0.4-0.7c-0.5-4.8,2.9-3.6,5.6-3.9c3.5-0.4,2.9,1.9,3,3.9c-0.6,2.4,0.9,3.1,2.7,3.8
	c1.9,0.8,3.5,0.8,4.5-1.2c2-2.3,3.7-1.9,5.4,0.3c1.4,1.7,4,2.8,1.2,5.7c-3,3.3-1.3,7.2,3.1,7.4c4.6,0.1,2.6,3.3,2.9,5.4
	c0.4,2.3-0.1,3.6-3.1,3.6c-4,0-6,4.2-3.3,7.1c3.1,3.2,0.2,4.4-1.3,6.3c-1.8,2.4-3.4,1.8-5.1,0c-1-1.7-2.3-2-4-1.1
	c-1.6,0.8-3.8,1-3.1,3.7c-0.1,2.1,0.1,4.2-3.2,3.9c-2.8-0.3-6.1,0.6-5.7-4c0.7-2.8-1.6-3-3.3-3.9
	C573.6,276.3,572.7,276.9,571.9,278.5z M588.4,250.7L588.4,250.7c-5.1-3.2-11.2-1.4-14.6,2.7c-3.4,4.1-3.6,10.7,0,15.1
	c3,3.6,7.1,5.3,11.7,4.3c5.3-1.1,8.5-4.7,9.6-10c0.9-3.9-1.3-8.5-4.7-10.9c-0.2-0.7-0.8-0.8-1.4-0.9
	C588.9,250.7,588.6,250.6,588.4,250.7z"/>
<path class="st3" d="M571.9,278.5c0.7-1.5,1.7-2.1,3.4-1.2c1.6,0.9,4,1.1,3.3,3.9C576,281.2,574,279.8,571.9,278.5z"/>
<path class="st3" d="M594.7,242.9c-1.1,2-2.6,2-4.5,1.2c-1.8-0.7-3.3-1.5-2.7-3.8C589.9,241.2,592.3,242.1,594.7,242.9z"/>
<path class="st3" d="M563.2,265.4c3-0.8,2.5,2,3.4,3.3c1.3,1.9-0.4,2.8-1.5,3.8C564.6,270.1,562.8,268.1,563.2,265.4z"/>
<path class="st3" d="M578.4,241.1c0.7,3.2-2.3,2.6-3.8,3.5c-1.7,1.1-2.5-0.7-3.4-1.7C573.7,242.6,575.8,240.9,578.4,241.1z"/>
<path class="st3" d="M565.7,250c1.5,0.7,1.9,1.7,0.9,3.1c-0.9,1.3-0.5,4-3.4,3.1C563.5,253.9,563.6,251.6,565.7,250z"/>
<path class="st3" d="M587.5,281.3c-0.7-2.7,1.6-2.9,3.1-3.7c1.7-0.9,3-0.6,4,1.1C592.1,279.2,590.1,281.2,587.5,281.3z"/>
<path class="st3" d="M578.8,240.3c0.3,0.4,0.1,0.7-0.4,0.7C578.6,240.8,578.7,240.6,578.8,240.3z"/>
<path class="st3" d="M590.4,251.9c3.5,2.3,5.6,7,4.7,10.9c-1.2,5.3-4.3,8.9-9.6,10c-4.7,1-8.7-0.7-11.7-4.3c-3.7-4.4-3.4-11,0-15.1
	c3.4-4.2,9.5-5.9,14.5-2.8c-2.7,0.3-4.8,1.5-5.5,4.3c-0.2-1.3-0.7-1.7-2.2-1.3c-3.6,1.1-5,3.8-5.2,7.2c-0.2,3.6,2.6,6.8,5.9,7.5
	c4.8,1,10.6-2,9.2-10.3C591.5,256,590.9,253.9,590.4,251.9z"/>
<path class="st7" d="M582.8,254.9c0.8-2.8,2.8-4,5.5-4.3c0,0,0.1,0.1,0.1,0.1c-0.1,0.7,0.1,0.8,0.6,0.3c0.6,0.1,1.2,0.2,1.4,0.9
	c0.5,2,1.1,4.1,0.1,6.2C585.6,260.3,583.9,259.6,582.8,254.9z"/>
<path class="st3" d="M589,251c-0.5,0.5-0.7,0.4-0.6-0.3C588.6,250.6,588.9,250.7,589,251z"/>
<path class="st1" d="M582.8,254.9c1.2,4.7,2.8,5.3,7.8,3.1c1.4,8.3-4.4,11.3-9.2,10.3c-3.4-0.7-6.1-3.9-5.9-7.5
	c0.2-3.4,1.5-6.1,5.2-7.2C582,253.2,582.5,253.6,582.8,254.9z"/>
</svg>
