<svg xmlns="http://www.w3.org/2000/svg" width="60" height="60" viewBox="0 0 172 172">
  <g fill="none" stroke-miterlimit="10" font-family="none" font-weight="none" font-size="none" text-anchor="none" style="mix-blend-mode:normal">
    <path d="M0 172V0h172v172z"/>
    <path d="M2.795 34.4A3.44 3.44 0 000 37.84v96.32a3.447 3.447 0 003.44 3.44h165.12a3.447 3.447 0 003.44-3.44V37.84a3.447 3.447 0 00-3.44-3.44H2.795zm4.085 6.88h158.24v89.44H6.88zm19.672 17.2a3.48 3.48 0 00-2.956 3.924 3.48 3.48 0 003.924 2.956h72.24a3.46 3.46 0 003.023-1.707 3.473 3.473 0 000-3.466 3.46 3.46 0 00-3.023-1.707H26.552zm107.608 3.44v4.085c-3.978 1.438-6.88 5.227-6.88 9.675v5.375a3.432 3.432 0 001.397 2.795l12.363 9.245v3.225c0 1.948-1.492 3.44-3.44 3.44s-3.44-1.492-3.44-3.44v-3.44h-6.88v3.44c0 4.448 2.903 8.237 6.88 9.675v4.085h6.88v-4.085c3.978-1.438 6.88-5.227 6.88-9.675v-4.945a3.438 3.438 0 00-1.397-2.688l-12.363-9.244V75.68c0-1.948 1.492-3.44 3.44-3.44s3.44 1.492 3.44 3.44v3.44h6.88v-3.44c0-4.448-2.902-8.237-6.88-9.675V61.92zM26.552 72.24a3.48 3.48 0 00-2.956 3.924 3.48 3.48 0 003.924 2.956H86a3.46 3.46 0 003.023-1.707 3.473 3.473 0 000-3.466A3.46 3.46 0 0086 72.24H26.552zm12.363 19.995c-5.375 0-8.936 3.843-11.18 6.987-2.244 3.145-3.44 6.236-3.44 6.236a3.418 3.418 0 00.484 3.52 3.424 3.424 0 003.332 1.223 3.442 3.442 0 002.634-2.379s.927-2.297 2.58-4.622c1.653-2.325 3.655-4.085 5.59-4.085.618 0 1.922.605 3.332 2.473 1.156 1.518 2.164 3.87 3.01 6.127-.174.376-.483.685-.645 1.075-1.195 2.862-2.015 5.697-2.042 8.385-.013 1.344.107 2.66.967 4.085.86 1.424 2.89 2.58 4.623 2.58 1.922 0 3.91-1.357 4.73-2.795.82-1.438 1.008-2.822 1.075-4.3.12-2.513-.51-5.429-1.29-8.278.658-1.128 1.236-2.405 1.935-3.225 1.33-1.558 2.567-2.042 2.58-2.042.12 0 .847.215 1.828 1.397.82.981 1.625 2.58 2.257 4.085-1.062 1.895-1.975 3.71-2.15 5.805-.094 1.102-.04 2.42.86 3.763.9 1.344 2.782 2.15 4.193 2.15 1.625 0 3.386-1.115 4.192-2.365.806-1.25 1.021-2.378 1.075-3.547.067-1.411-.417-2.943-.752-4.408.577-.78 1.128-1.707 1.72-2.257 1.061-.981 2.002-1.183 1.827-1.183-.107 0-.08-.134.43.43.51.564 1.17 1.68 1.828 2.903.658 1.222 1.384 2.593 2.257 3.87.43.645.86 1.316 1.613 1.935.752.618 1.867 1.182 3.225 1.182 2.069 0 3.426-.994 4.514-1.827a40.2 40.2 0 002.903-2.473c1.787-1.64 3.373-2.58 3.87-2.58a3.46 3.46 0 003.023-1.707 3.473 3.473 0 000-3.466 3.46 3.46 0 00-3.023-1.707c-4.004 0-6.544 2.5-8.492 4.3-.86.793-1.573 1.572-2.15 2.043-.43-.7-.981-1.613-1.613-2.795-.726-1.358-1.572-2.822-2.795-4.193-1.223-1.37-3.158-2.795-5.59-2.795-2.755 0-4.757 1.451-6.45 3.01-.497-.833-.78-1.733-1.397-2.472-1.694-2.043-4.059-3.978-7.203-3.978-3.44 0-5.886 2.096-7.847 4.408-.592-1.062-.9-2.285-1.613-3.225-2.096-2.769-4.999-5.268-8.815-5.268z" fill="#2138c9"/>
  </g>
</svg>