<svg xmlns="http://www.w3.org/2000/svg" width="60" height="60" viewBox="0 0 172 172">
  <g fill="none" stroke-miterlimit="10" font-family="none" font-weight="none" font-size="none" text-anchor="none" style="mix-blend-mode:normal">
    <path d="M0 172V0h172v172z"/>
    <path d="M117.713 14.19c-3.508.202-6.961 1.062-10.213 2.688l-18.92 9.244H34.83L4.3 18.705a3.508 3.508 0 00-1.398-.108 3.426 3.426 0 00-3.01 3.252A3.435 3.435 0 002.58 25.37l30.96 7.525.43.107h40.528L45.258 47.3c-.121.054-.202.161-.323.215-4.542 2.002-5.738 8.21-2.365 11.825l-.107.107c.053.054.16.054.215.108 10.239 11.22 26.458 14.943 40.742 9.353h.108l20.21-7.848 41.71 41.818c3.157 3.157 3.157 8.13 0 11.287-3.158 3.158-8.13 3.158-11.288 0a3.454 3.454 0 00-4.596.242 3.454 3.454 0 00-.241 4.595 8.037 8.037 0 010 11.395c-3.158 3.158-8.13 3.158-11.288 0l-2.472-2.472a3.454 3.454 0 00-4.596.242 3.454 3.454 0 00-.242 4.595 8.037 8.037 0 010 11.395c-3.158 3.158-8.13 3.158-11.287 0l-2.365-2.472c-1.33-1.37-3.521-1.384-4.892-.054-1.37 1.33-1.384 3.52-.053 4.891a8.037 8.037 0 010 11.396c-3.158 3.157-8.13 3.157-11.288 0l-4.3-4.3 2.58-2.58c5.04-5.04 5.04-13.236 0-18.276-2.513-2.512-5.832-3.762-9.137-3.762h-.108c.054-3.386-1.196-6.786-3.762-9.352-2.513-2.513-5.832-3.763-9.138-3.763-.175 0-.363-.013-.537 0 .107-3.453-1.13-6.934-3.763-9.568-2.513-2.512-5.832-3.87-9.137-3.87-.175 0-.363-.013-.538 0 .108-3.453-1.129-6.933-3.762-9.567-2.513-2.513-5.832-3.762-9.138-3.762s-6.625 1.25-9.137 3.762l-3.118 3.118-13.867-2.365a3.592 3.592 0 00-.645-.108A3.453 3.453 0 00-.322 96.75a3.453 3.453 0 003.225 3.655l11.287 2.043c-1.021 4.232.04 8.855 3.333 12.147a12.867 12.867 0 009.675 3.763 12.867 12.867 0 003.762 9.675 12.867 12.867 0 009.675 3.762c-.107 3.453 1.129 6.934 3.763 9.568 2.566 2.566 5.966 3.816 9.352 3.762-.08 3.4 1.129 6.826 3.655 9.352l.108.108c3.587 3.507 8.747 4.434 13.222 2.902l5.268 5.268c5.778 5.778 15.291 5.778 21.07 0 2.808-2.808 4.111-6.517 4.192-10.213 4.972 1.317 10.428.323 14.298-3.547 2.808-2.808 4.219-6.517 4.3-10.213 4.958 1.304 10.427.323 14.297-3.547 3.306-3.306 4.555-7.807 4.085-12.148 4.34.484 8.842-.779 12.148-4.085 3.695-3.695 5.012-8.882 3.977-13.652l2.043-2.043 12.685-1.827A3.489 3.489 0 00172 97.502a3.489 3.489 0 00-3.977-2.902l-13.76 2.15-1.075.107-2.043 2.043c-.242-.282-.484-.591-.752-.86l-42.355-42.355a3.281 3.281 0 00-.538-.43l-.107-.108a3.454 3.454 0 00-4.085-1.29l-22.36 8.6c-11.758 4.65-24.994 1.626-33.325-7.632l-.108-.108c-.443-.443-.47-.752.108-.967h.215l.107-.108 42.463-20.747a3.458 3.458 0 001.935-.968l18.167-8.922h.108c6.342-3.171 13.746-2.526 19.565 1.397l1.29 1.505.322.43.43.215c6.248 4.3 13.773 5.443 20.855 3.548v.107l.215-.107 16.018-3.333a3.472 3.472 0 002.633-4.138 3.472 3.472 0 00-4.138-2.634l-16.125 3.44-.108.107h-.107c-5.134 1.425-10.428.484-15.05-2.58l-1.29-1.505-.323-.322-.43-.323c-3.95-2.768-8.466-4.273-13.115-4.622a28.408 28.408 0 00-3.547 0zM30.1 95.783c1.505 0 3.037.671 4.3 1.934 2.526 2.527 2.526 6.074 0 8.6l-2.688 2.58-.322.323-.43.537c-2.526 2.527-6.074 2.527-8.6 0-2.07-2.069-2.378-4.783-1.075-7.095a3.497 3.497 0 001.29-1.72l2.795-2.687.43-.537c1.263-1.264 2.795-1.936 4.3-1.936zm13.438 13.437c1.505 0 3.036.672 4.3 1.935 2.526 2.526 2.526 5.966 0 8.492l-3.44 3.44c-2.527 2.527-6.074 2.527-8.6 0-2.527-2.526-2.527-5.966 0-8.492l3.44-3.44c1.263-1.263 2.794-1.935 4.3-1.935zm13.437 13.438c1.505 0 2.93.671 4.192 1.934 2.083 2.083 2.433 4.798 1.076 7.096-.47.349-.968.645-1.398 1.075l-3.44 3.44v.107h-.107c-.377.417-.659.847-.968 1.29-2.298 1.357-5.012 1.008-7.095-1.075-2.526-2.526-2.526-5.966 0-8.493l2.58-2.687.645-.538.215-.215c1.263-1.263 2.795-1.935 4.3-1.935zm13.008 13.115c1.504 0 3.036.564 4.3 1.827 2.526 2.526 2.526 6.074 0 8.6l-3.44 3.44c-.296.296-.538.632-.86.86-.027.013-.081-.013-.108 0-2.405 1.666-5.415 1.357-7.633-.86-1.625-1.626-2.002-4.878-.86-7.31.43-.336.9-.578 1.29-.968l3.44-3.44c.457-.456.807-.994 1.183-1.505a6.034 6.034 0 012.688-.645z" fill="#2138c9"/>
  </g>
</svg>