<svg height="512pt" viewBox="0 0 512 512" width="512pt" xmlns="http://www.w3.org/2000/svg"><path d="m512 256c0 52.390625-15.738281 101.101562-42.738281 141.671875-45.882813 68.917969-124.273438 114.328125-213.261719 114.328125s-167.378906-45.410156-213.261719-114.328125c-27-40.570313-42.738281-89.28125-42.738281-141.671875 0-141.378906 114.621094-256 256-256s256 114.621094 256 256zm0 0" fill="#9e69e2"/><path d="m512 256c0 26.050781-3.890625 51.191406-11.128906 74.871094-32.011719 104.847656-129.542969 181.128906-244.871094 181.128906-104.558594 0-194.488281-62.699219-234.230469-152.550781-14-31.628907-21.769531-66.628907-21.769531-103.449219 0-46.21875 12.25-89.570312 33.679688-127 44.121093 77.070312 127.160156 129 222.320312 129s178.210938-51.929688 222.320312-129c21.429688 37.429688 33.679688 80.78125 33.679688 127zm0 0" fill="#8e4fd2"/><path d="m427.199219 90.328125c-.808594-.132813-1.628907-.25-2.445313-.34375-.414062-.046875-.828125-.089844-1.242187-.125-.40625-.039063-.8125-.066406-1.222657-.097656-.308593-.023438-.621093-.035157-.929687-.050781-.191406-.007813-.382813-.015626-.582031-.023438-.332032-.007812-.671875-.015625-1.011719-.023438-.222656-.003906-.445313-.003906-.664063-.003906-27.175781 0-49.203124 22.023438-49.203124 49.199219v35.777344c2.28125 2.285156 3.554687 3.5625 5.835937 5.839843h86.734375c2.277344-2.277343 3.554688-3.554687 5.832031-5.839843v-35.046875c0-24.503906-17.664062-45.3125-41.101562-49.261719zm28.5625 77.609375h-73.320313v-29.078125c0-9.882813 3.871094-19.148437 10.902344-26.089844 6.917969-6.832031 16.050781-10.570312 25.757812-10.570312h.488282c19.945312.257812 36.171875 17.03125 36.171875 37.390625zm0 0" fill="#ff3445"/><path d="m468.300781 138.859375v25.757813h-12.539062v-25.027344c0-20.359375-16.226563-37.132813-36.171875-37.390625h-.488282v-12.539063c.21875 0 .441407 0 .664063.003906.339844.007813.679687.015626 1.011719.023438.199218.007812.390625.015625.582031.023438.308594.015624.621094.027343.929687.050781.414063.027343.820313.058593 1.222657.097656.414062.035156.828125.078125 1.242187.125.816406.085937 1.636719.207031 2.445313.34375 23.316406 3.851563 41.101562 24.117187 41.101562 48.53125zm0 0" fill="#dd1265"/><path d="m455.761719 164.617188v3.320312h-73.320313v-29.078125c0-9.882813 3.871094-19.148437 10.902344-26.089844 6.917969-6.832031 16.050781-10.570312 25.757812-10.570312v62.417969zm0 0" fill="#f75454"/><path d="m455.761719 139.589844v25.027344h-36.660157v-62.417969h.488282c19.945312.257812 36.171875 17.03125 36.171875 37.390625zm0 0" fill="#ff3445"/><path d="m369.898438 164.617188h98.402343v10.023437h-98.402343zm0 0" fill="#323b5a"/><path d="m369.898438 174.640625c2.28125 2.277344 3.558593 3.554687 5.839843 5.835937h86.726563c2.277344-2.277343 3.558594-3.558593 5.835937-5.835937zm0 0" fill="#474f6f"/><path d="m444.296875 127.140625-25.195313 4.035156-25.199218-4.035156v24.570313l25.199218-4.039063 25.195313 4.039063zm0 0" fill="#dd1265"/><path d="m408.480469 140.328125h21.242187v24.289063h-21.242187zm0 0" fill="#dd1265"/><g fill="#fff"><path d="m384.863281 194.46875v18.515625c0 1.078125-.875 1.953125-1.949219 1.953125h-3.519531c-1.078125 0-1.949219-.875-1.949219-1.953125v-12.664063c0-1.078124-.875-1.949218-1.953124-1.949218-1.078126 0-1.949219-.875-1.949219-1.953125v-1.949219c0-1.078125.875-1.949219 1.949219-1.949219h7.421874c1.074219 0 1.949219.871094 1.949219 1.949219zm0 0"/><path d="m409.597656 203.710938c0 7.355468-3.230468 11.417968-9.050781 11.417968-5.886719 0-9.082031-4.0625-9.082031-11.417968 0-7.355469 3.195312-11.417969 9.082031-11.417969 5.820313 0 9.050781 4.0625 9.050781 11.417969zm-11.128906 0c0 4.703124.480469 6.429687 2.078125 6.429687 1.566406 0 2.046875-1.726563 2.046875-6.429687 0-4.730469-.480469-6.425782-2.046875-6.425782-1.601563 0-2.078125 1.695313-2.078125 6.425782zm0 0"/><path d="m424.351562 194.46875v18.515625c0 1.078125-.875 1.953125-1.953124 1.953125h-3.515626c-1.078124 0-1.949218-.875-1.949218-1.953125v-12.664063c0-1.078124-.875-1.949218-1.953125-1.949218s-1.949219-.875-1.949219-1.953125v-1.949219c0-1.078125.871094-1.949219 1.949219-1.949219h7.417969c1.078124 0 1.953124.871094 1.953124 1.949219zm0 0"/><path d="m449.085938 203.710938c0 7.355468-3.230469 11.417968-9.054688 11.417968-5.882812 0-9.082031-4.0625-9.082031-11.417968 0-7.355469 3.199219-11.417969 9.082031-11.417969 5.824219 0 9.054688 4.0625 9.054688 11.417969zm-11.132813 0c0 4.703124.480469 6.429687 2.078125 6.429687 1.566406 0 2.046875-1.726563 2.046875-6.429687 0-4.730469-.476563-6.425782-2.046875-6.425782-1.597656 0-2.078125 1.695313-2.078125 6.425782zm0 0"/><path d="m463.839844 194.46875v18.515625c0 1.078125-.875 1.953125-1.953125 1.953125h-3.515625c-1.078125 0-1.953125-.875-1.953125-1.953125v-12.664063c0-1.078124-.871094-1.949218-1.949219-1.949218s-1.953125-.875-1.953125-1.953125v-1.949219c0-1.078125.875-1.949219 1.953125-1.949219h7.417969c1.078125 0 1.953125.871094 1.953125 1.949219zm0 0"/><path d="m136.867188 217h-86.976563c-3.660156 0-6.628906-2.96875-6.628906-6.628906v-10.992188c0-3.660156 2.964843-6.628906 6.628906-6.628906h86.976563c3.660156 0 6.625 2.96875 6.625 6.628906v10.992188c0 3.660156-2.964844 6.628906-6.625 6.628906zm0 0"/></g><path d="m70.339844 202.878906c-.578125-1.011718-1.84375-1.414062-2.949219-1.046875l-2.808594.933594-.003906-3.09375c-.003906-1.335937-1.089844-2.421875-2.425781-2.421875-1.339844 0-2.425782 1.089844-2.425782 2.429688l.003907 3.082031-2.910157-.960938c-1.367187-.453125-2.847656.378907-3.140624 1.832031-.246094 1.214844.527343 2.410157 1.703124 2.800782l2.847657.941406-1.75 2.382812c-.6875.9375-.691407 2.265626.09375 3.125 1.074219 1.171876 2.875 1.027344 3.765625-.183593l1.8125-2.472657 1.804687 2.46875c.472657.648438 1.210938.992188 1.957031.992188.613282 0 1.234376-.230469 1.722657-.714844.855469-.855468.898437-2.234375.183593-3.210937l-1.742187-2.386719 2.929687-.972656c1.425782-.472656 2.121094-2.140625 1.332032-3.523438zm0 0" fill="#323b5a"/><path d="m93.320312 202.878906c-.578124-1.011718-1.84375-1.414062-2.949218-1.046875l-2.808594.933594-.003906-3.09375c-.003906-1.335937-1.089844-2.421875-2.425782-2.421875-1.339843 0-2.429687 1.089844-2.425781 2.429688l.003907 3.082031-2.910157-.960938c-1.367187-.453125-2.847656.378907-3.140625 1.832031-.246094 1.214844.527344 2.410157 1.703125 2.800782l2.847657.941406-1.75 2.382812c-.6875.9375-.691407 2.265626.09375 3.125 1.074218 1.171876 2.875 1.027344 3.765624-.183593l1.8125-2.472657 1.804688 2.46875c.472656.648438 1.210938.992188 1.957031.992188.613281 0 1.234375-.230469 1.722657-.714844.855468-.855468.898437-2.234375.183593-3.210937l-1.742187-2.386719 2.925781-.972656c1.429687-.472656 2.121094-2.140625 1.335937-3.523438zm0 0" fill="#323b5a"/><path d="m106.179688 198.75-2.910157 6.984375c-.160156.382813.121094.808594.539063.808594.320312 0 .582031-.261719.582031-.585938v-1.726562c0-.324219.261719-.585938.585937-.585938h3.359376c.320312 0 .582031.261719.582031.585938v1.726562c0 .324219.261719.585938.585937.585938h.546875c.320313 0 .585938.261719.585938.582031v2.375c0 .320312-.261719.582031-.585938.582031h-.546875c-.324218 0-.585937.261719-.585937.585938v1.746093c0 .324219-.261719.585938-.582031.585938h-3.359376c-.324218 0-.585937-.261719-.585937-.585938v-1.746093c0-.324219-.257813-.585938-.582031-.585938h-5.246094c-.324219 0-.585938-.261719-.585938-.582031v-2.515625c0-.078125.015626-.15625.050782-.230469l3.660156-8.460937c.089844-.214844.300781-.351563.535156-.351563h3.417969c.414063 0 .699219.425782.539063.808594zm0 0" fill="#323b5a"/><path d="m126.167969 203.238281c3.648437 0 6.007812 1.78125 6.007812 4.527344 0 3.238281-2.511719 5.339844-6.394531 5.339844-1.601562 0-3.355469-.441407-4.839844-1.164063-.800781-.390625-1.121094-1.371094-.707031-2.160156l.296875-.570312c.453125-.863282 1.554688-1.101563 2.347656-.539063.71875.507813 1.488282.765625 2.300782.765625 1.09375 0 1.632812-.449219 1.632812-1.332031 0-.8125-.535156-1.242188-1.632812-1.242188h-2.660157c-.875 0-1.585937-.710937-1.585937-1.585937v-5.859375c0-.875.710937-1.585938 1.585937-1.585938h7.359375c.878906 0 1.585938.710938 1.585938 1.585938v.648437c0 .875-.707032 1.585938-1.585938 1.585938h-2.8125c-.875 0-1.585937.707031-1.585937 1.585937zm0 0" fill="#323b5a"/><path d="m167.820312 97.261719v25.179687c0 2.425782-1.96875 4.398438-4.394531 4.398438-2.429687 0-4.398437-1.972656-4.398437-4.398438v-25.179687c0-9.960938-7.929688-18.109375-17.8125-18.460938-.21875-.003906-.441406-.011719-.664063-.011719-10.1875 0-18.472656 8.285157-18.472656 18.472657v29.238281c0 .1875-.148437.335938-.335937.335938h-8.121094c-.1875 0-.339844-.148438-.339844-.335938v-29.410156c0-15.023438 12.226562-27.097656 27.25-27.097656.230469 0 .453125 0 .683594.011718 14.730468.347656 26.605468 12.445313 26.605468 27.257813zm0 0" fill="#d0f6ff"/><path d="m167.820312 97.261719v25.179687c0 2.425782-1.96875 4.398438-4.394531 4.398438-2.429687 0-4.398437-1.972656-4.398437-4.398438v-25.179687c0-9.855469-7.761719-17.933594-17.492188-18.445313-.179687-.011718-.320312-.15625-.320312-.332031v-8.128906c0-.191407.164062-.347657.351562-.339844 14.570313.527344 26.253906 12.550781 26.253906 27.246094zm0 0" fill="#fff"/><path d="m79.121094 112.253906h-15.457032c-2.125 0-3.851562 1.726563-3.851562 3.855469v3.261719c0 2.125 1.726562 3.851562 3.851562 3.851562h15.457032c2.128906 0 3.855468-1.726562 3.855468-3.851562v-3.261719c0-2.128906-1.722656-3.855469-3.855468-3.855469zm0 0" fill="#f8c706"/><path d="m125.242188 112.253906h-15.457032c-2.128906 0-3.851562 1.726563-3.851562 3.855469v3.261719c0 2.125 1.722656 3.851562 3.851562 3.851562h15.457032c2.128906 0 3.851562-1.726562 3.851562-3.851562v-3.261719c0-2.128906-1.722656-3.855469-3.851562-3.855469zm0 0" fill="#ffe955"/><path d="m145.222656 132.820312v37.183594c0 7.519532-6.097656 13.617188-13.617187 13.617188h-73.71875c-7.519531 0-13.617188-6.09375-13.617188-13.613282v-37.191406c0-7.519531 6.097657-13.617187 13.617188-13.617187h73.714843c7.523438.003906 13.621094 6.101562 13.621094 13.621093zm0 0" fill="#f8c706"/><path d="m145.222656 132.816406v37.1875c0 7.523438-6.097656 13.621094-13.617187 13.621094h-36.328125c-.183594 0-.335938-.152344-.335938-.339844v-63.746094c0-.1875.152344-.335937.335938-.335937h36.332031c7.519531 0 13.613281 6.09375 13.613281 13.613281zm0 0" fill="#ffe955"/><path d="m145.222656 132.816406v1.535156c0 .1875-.148437.339844-.335937.339844h-100.277344c-.1875 0-.335937-.152344-.335937-.339844v-1.535156c0-7.519531 6.09375-13.613281 13.613281-13.613281h73.722656c7.519531 0 13.613281 6.09375 13.613281 13.613281zm0 0" fill="#eb7722"/><path d="m145.222656 132.820312v1.53125c0 .1875-.148437.339844-.335937.339844h-49.609375c-.183594 0-.335938-.152344-.335938-.339844v-14.8125c0-.1875.152344-.335937.335938-.335937h36.328125c7.519531 0 13.617187 6.097656 13.617187 13.617187zm0 0" fill="#f8c706"/><path d="m101.273438 164.753906c.84375 1.917969-.554688 4.066406-2.648438 4.066406h-7.753906c-2.09375 0-3.5-2.148437-2.652344-4.066406l2.105469-4.765625c.359375-.8125.125-1.761719-.574219-2.3125-1.882812-1.480469-3.089844-3.777343-3.089844-6.351562 0-4.535157 3.722656-8.195313 8.28125-8.078125.128906 0 .25.007812.378906.011718 3.925782.269532 7.125 3.402344 7.480469 7.328126.257813 2.917968-1.046875 5.558593-3.164062 7.171874-.644531.492188-.847657 1.371094-.519531 2.113282zm0 0" fill="#323b5a"/><path d="m101.273438 164.753906c.84375 1.917969-.554688 4.066406-2.648438 4.066406h-3.347656c-.183594 0-.335938-.148437-.335938-.335937v-24.878906c.144532-.136719.21875-.210938.363282-.347657 3.929687.261719 7.140624 3.398438 7.496093 7.328126.257813 2.917968-1.042969 5.558593-3.160156 7.171874-.648437.492188-.851563 1.371094-.523437 2.113282zm0 0" fill="#535e89"/><path d="m469.261719 397.671875c-45.882813 68.917969-124.273438 114.328125-213.261719 114.328125s-167.378906-45.410156-213.261719-114.328125zm0 0" fill="#ebf0f3"/><path d="m351.457031 366.625c-20.554687 11.796875-43.488281 19.898438-67.917969 23.414062-2.148437.304688-4.3125.582032-6.503906.8125-6.910156.757813-13.921875 1.136719-21.035156 1.136719s-14.125-.378906-21.035156-1.136719c-2.179688-.230468-4.355469-.507812-6.507813-.8125-24.429687-3.519531-47.363281-11.617187-67.917969-23.414062zm0 0" fill="#535e89"/><path d="m375.191406 327.550781v22.988281c-7.480468 5.929688-15.402344 11.3125-23.730468 16.082032-20.5625 11.800781-43.492188 19.898437-67.921876 23.417968-2.148437.300782-4.308593.582032-6.5.8125-6.917968.757813-13.929687 1.136719-21.039062 1.136719s-14.121094-.378906-21.039062-1.136719c-2.171876-.230468-4.351563-.511718-6.5-.8125-24.429688-3.519531-47.359376-11.617187-67.921876-23.417968-8.328124-4.769532-16.25-10.152344-23.730468-16.082032v-22.988281c0-.929687.011718-1.878906.042968-2.820312.148438-6.011719.828126-11.902344 2.007813-17.589844 2.109375-10.378906 5.859375-20.160156 10.941406-29.109375 6.648438-11.792969 15.640625-22.101562 26.300781-30.382812 9.347657-7.277344 20.007813-12.96875 31.527344-16.707032 10.082032-3.269531 20.832032-5.050781 31.941406-5.050781h32.859376c11.589843 0 22.789062 1.929687 33.25 5.480469 11.011718 3.738281 21.210937 9.277344 30.21875 16.277344 10.660156 8.28125 19.652343 18.589843 26.320312 30.382812 5.0625 8.949219 8.792969 18.730469 10.921875 29.109375 1.179687 5.6875 1.859375 11.578125 2.007813 17.589844.03125.941406.042968 1.890625.042968 2.820312zm0 0" fill="#d0f6ff"/><path d="m375.191406 327.550781v22.988281c-7.480468 5.929688-15.402344 11.3125-23.730468 16.082032-20.5625 11.800781-43.492188 19.898437-67.921876 23.417968-2.148437.300782-4.308593.582032-6.5.8125-6.917968.757813-13.929687 1.136719-21.039062 1.136719v-166.097656h16.429688c11.589843 0 22.789062 1.929687 33.25 5.480469 11.011718 3.738281 21.210937 9.277344 30.21875 16.277344 10.660156 8.28125 19.652343 18.589843 26.320312 30.382812 5.0625 8.949219 8.792969 18.730469 10.921875 29.109375 1.179687 5.6875 1.859375 11.578125 2.007813 17.589844.03125.941406.042968 1.890625.042968 2.820312zm0 0" fill="#fff"/><path d="m362.214844 278.027344h-212.417969c6.65625-11.785156 15.644531-22.097656 26.300781-30.375h159.804688c10.65625 8.277344 19.644531 18.589844 26.3125 30.375zm0 0" fill="#535e89"/><path d="m375.1875 327.554688v9.960937h-238.375v-9.960937c0-.9375.011719-1.886719.035156-2.824219.152344-6.011719.835938-11.898438 2.011719-17.59375h234.28125c1.175781 5.695312 1.859375 11.582031 2.011719 17.59375.023437.9375.035156 1.886719.035156 2.824219zm0 0" fill="#535e89"/><path d="m306.511719 240.46875c0 27.570312-22.339844 49.910156-49.890625 49.910156-.210938 0-.410156 0-.621094-.007812-27.28125-.332032-49.289062-22.542969-49.289062-49.902344 0-3.257812.320312-6.4375.917968-9.527344 10.082032-3.269531 20.832032-5.050781 31.941406-5.050781h32.859376c11.589843 0 22.789062 1.929687 33.25 5.480469.550781 2.949218.832031 5.988281.832031 9.097656zm0 0" fill="#323b5a"/><path d="m306.511719 240.46875c0 27.570312-22.339844 49.910156-49.890625 49.910156-.210938 0-.410156 0-.621094-.007812v-64.480469h16.429688c11.589843 0 22.789062 1.929687 33.25 5.480469.550781 2.949218.832031 5.988281.832031 9.097656zm0 0" fill="#474f6f"/><path d="m256 265.285156c-15.738281 0-28.496094-12.757812-28.496094-28.496094v-59.6875h56.992188v59.6875c0 15.738282-12.757813 28.496094-28.496094 28.496094zm0 0" fill="#e3835a"/><path d="m172.742188 134.859375c-11.3125 0-20.484376 9.171875-20.484376 20.484375 0 15.75 12.765626 28.515625 28.511719 28.515625h12.921875v-48.554687s-19.664062-.445313-20.949218-.445313zm0 0" fill="#e3835a"/><path d="m339.257812 134.859375c11.3125 0 20.484376 9.171875 20.484376 20.484375 0 15.75-12.765626 28.515625-28.511719 28.515625h-12.921875v-48.554687s19.664062-.445313 20.949218-.445313zm0 0" fill="#e3835a"/><path d="m333.488281 142.851562c0 14.726563-2.410156 28.898438-6.867187 42.117188-2.082032 6.210938-4.632813 12.210938-7.582032 17.960938-12.109374 23.648437-36.46875 38.480468-63.039062 38.480468-26.550781 0-50.921875-14.832031-63.03125-38.480468-2.917969-5.691407-5.429688-11.628907-7.507812-17.75-4.5-13.289063-6.949219-27.519532-6.949219-42.328126 0-5.421874.328125-10.730468.96875-15.980468.210937-1.722656.449219-3.449219.730469-5.140625 6.890624-42.929688 41.347656-64.390625 75.789062-64.378907 4.730469 0 9.449219.410157 14.101562 1.21875 10.796876 1.859376 21.199219 5.898438 30.328126 12.109376 15.660156 10.621093 27.628906 27.648437 31.371093 51.050781.859375 5.347656 1.417969 10.839843 1.597657 16.410156.070312 1.570313.089843 3.140625.089843 4.710937zm0 0" fill="#ffa87a"/><path d="m333.488281 142.851562c0 14.726563-2.410156 28.898438-6.867187 42.117188-2.082032 6.210938-4.632813 12.210938-7.582032 17.960938-12.109374 23.648437-36.46875 38.480468-63.039062 38.480468v-184.058594c4.730469 0 9.449219.410157 14.101562 1.21875 10.796876 1.859376 21.199219 5.898438 30.328126 12.109376 15.660156 10.621093 27.628906 27.648437 31.371093 51.050781.859375 5.347656 1.417969 10.839843 1.597657 16.410156.070312 1.570313.089843 3.140625.089843 4.710937zm0 0" fill="#ffc0a4"/><path d="m256 143.484375v33.261719" fill="none" stroke="#e3835a" stroke-linecap="round" stroke-miterlimit="10" stroke-width="13.2442"/><path d="m333.058594 134.578125v8.292969c0 11.679687-7.039063 22.199218-17.839844 26.648437-6.078125 2.511719-12.5 3.742188-18.878906 3.742188-10.03125 0-19.988282-3.050781-28.449219-8.980469l-11.890625-8.339844-11.890625 8.339844c-13.847656 9.707031-31.6875 11.6875-47.328125 5.238281-5.402344-2.21875-9.859375-5.96875-12.972656-10.609375-3.109375-4.648437-4.867188-10.199218-4.867188-16.039062v-8.292969zm0 0" fill="#323b5a"/><path d="m333.058594 134.578125v8.292969c0 11.679687-7.039063 22.199218-17.839844 26.648437-6.078125 2.511719-12.5 3.742188-18.878906 3.742188-10.03125 0-19.988282-3.050781-28.449219-8.980469l-11.890625-8.339844v-21.363281zm0 0" fill="#474f6f"/><path d="m209.519531 147.671875c.914063 4.585937 4.460938 8.421875 9.328125 9.464844 4.863282 1.042969 9.671875-1 12.386719-4.8125zm0 0" fill="#fff"/><path d="m301.984375 147.671875c-.914063 4.585937-4.460937 8.421875-9.328125 9.464844-4.863281 1.042969-9.671875-1-12.386719-4.8125zm0 0" fill="#fff"/><path d="m323.589844 88.75h-135.179688c0-31.859375 25.828125-57.691406 57.691406-57.691406h19.796876c15.929687 0 30.351562 6.460937 40.792968 16.902344 10.4375 10.4375 16.898438 24.859374 16.898438 40.789062zm0 0" fill="#474f6f"/><path d="m323.589844 88.75h-67.589844v-57.691406h9.898438c15.929687 0 30.351562 6.460937 40.792968 16.902344 10.4375 10.4375 16.898438 24.859374 16.898438 40.789062zm0 0" fill="#535e89"/><path d="m336 121.730469h-160l1.808594-30.082031c.210937-3.367188 3.011718-6.007813 6.390625-6.007813h142.621093c3.300782 0 6.058594 2.519531 6.371094 5.800781zm0 0" fill="#323b5a"/><path d="m336 121.730469h-80v-36.089844h70.820312c3.300782 0 6.058594 2.519531 6.371094 5.800781zm0 0" fill="#474f6f"/><path d="m295.007812 188.242188c-4.703124 13.753906-18.972656 22.300781-33.320312 19.972656-6.472656-1.050782-12.074219-4.035156-16.363281-8.238282-1.886719-1.851562-.035157-4.960937 2.535156-4.335937.027344.007813.054687.015625.085937.019531 16.777344 4.039063 33.628907-2.289062 43.820313-14.863281 1.671875-2.0625 4.953125-.492187 4.546875 2.136719-.269531 1.769531-.703125 3.542968-1.304688 5.308594zm0 0" fill="#323b5a"/><path d="m218.820312 458.070312h74.359376v38.75h-74.359376zm0 0" fill="#323b5a"/><path d="m256 458.070312h37.179688v38.75h-37.179688zm0 0" fill="#474f6f"/><path d="m327.960938 501.738281c-22.832032 6.683594-46.972657 10.261719-71.960938 10.261719s-49.128906-3.578125-71.960938-10.261719c3.511719-6.660156 10.5-11.199219 18.550782-11.199219h106.820312c8.050782 0 15.039063 4.539063 18.550782 11.199219zm0 0" fill="#474f6f"/><path d="m327.960938 501.738281c-22.832032 6.683594-46.972657 10.261719-71.960938 10.261719v-21.460938h53.410156c8.050782 0 15.039063 4.539063 18.550782 11.199219zm0 0" fill="#535e89"/><path d="m387.601562 307.441406v134.449219c0 9.417969-7.640624 17.058594-17.0625 17.058594h-229.078124c-9.421876 0-17.0625-7.640625-17.0625-17.058594v-134.449219c0-9.421875 7.640624-17.0625 17.0625-17.0625h229.078124c9.421876 0 17.0625 7.640625 17.0625 17.0625zm0 0" fill="#474f6f"/><path d="m387.601562 307.441406v134.449219c0 9.417969-7.640624 17.058594-17.0625 17.058594h-114.539062v-168.570313h114.539062c9.421876 0 17.0625 7.640625 17.0625 17.0625zm0 0" fill="#535e89"/><path d="m285.164062 361.636719c0 10.027343-5.261718 13.777343-13.226562 15.179687-2.136719.375-3.683594 2.210938-3.683594 4.339844v2.667969c0 1.105469-.898437 2-2 2-1.105468 0-2-.894531-2-2v-.546875c0-.785156-.636718-1.421875-1.417968-1.421875-.785157 0-1.421876.636719-1.421876 1.421875v.546875c0 1.105469-.894531 2-2 2-1.101562 0-1.996093-.894531-1.996093-2v-.546875c0-.785156-.636719-1.421875-1.421875-1.421875-.78125 0-1.417969.636719-1.417969 1.421875v.546875c0 1.105469-.894531 2-2 2-1.101563 0-1.996094-.894531-1.996094-2v-.546875c0-.785156-.636719-1.421875-1.421875-1.421875-.78125 0-1.417968.636719-1.417968 1.421875v.546875c0 1.105469-.894532 2-2 2-1.101563 0-1.996094-.894531-1.996094-2v-2.667969c0-2.132812-1.550782-3.964844-3.6875-4.339844-3.566406-.628906-6.589844-1.726562-8.839844-3.648437-2.78125-2.367188-4.386719-5.992188-4.386719-11.53125 0-15.792969 13.058594-28.597657 29.164063-28.597657 16.105468 0 29.167968 12.804688 29.167968 28.597657zm0 0" fill="#fff"/><path d="m251.78125 363.320312c0 4.570313-3.703125 5.128907-8.273438 5.128907-4.570312 0-8.273437-.558594-8.273437-5.128907 0-4.570312 3.703125-8.273437 8.273437-8.273437 4.570313 0 8.273438 3.703125 8.273438 8.273437zm0 0" fill="#323b5a"/><path d="m276.765625 363.320312c0 4.570313-3.703125 5.128907-8.273437 5.128907-4.566407 0-8.273438-.558594-8.273438-5.128907 0-4.570312 3.707031-8.273437 8.273438-8.273437 4.570312 0 8.273437 3.703125 8.273437 8.273437zm0 0" fill="#323b5a"/><path d="m254.734375 369.46875-2.207031 3.824219c-.5625.972656.140625 2.191406 1.265625 2.191406h4.414062c1.125 0 1.828125-1.21875 1.265625-2.191406l-2.207031-3.824219c-.5625-.972656-1.96875-.972656-2.53125 0zm0 0" fill="#323b5a"/><path d="m280.613281 387.800781c.863281.523438 1.5625 1.339844 1.925781 2.378907.761719 2.160156-.238281 4.582031-2.300781 5.578124-1.375.664063-2.894531.570313-4.125-.089843-1.777343-.957031-3.878906-1.113281-5.75-.347657l-26.394531 10.785157c-1.871094.761719-3.261719 2.347656-3.863281 4.277343-.414063 1.332032-1.433594 2.460938-2.878907 2.949219-2.167968.734375-4.578124-.292969-5.550781-2.367187-.464843-.996094-.539062-2.066406-.289062-3.042969-.867188-.527344-1.5625-1.34375-1.925781-2.382813-.761719-2.160156.238281-4.582031 2.300781-5.574218 1.375-.664063 2.894531-.574219 4.125.085937 1.777343.957031 3.878906 1.113281 5.75.351563l26.394531-10.785156c1.871094-.765626 3.257812-2.347657 3.859375-4.277344.417969-1.332032 1.4375-2.460938 2.882813-2.953125 2.167968-.734375 4.578124.292969 5.550781 2.367187.46875 1 .539062 2.070313.289062 3.046875zm0 0" fill="#e4ebf8"/><path d="m280.519531 408.152344c.238281.980468.15625 2.050781-.320312 3.042968-.992188 2.066407-3.414063 3.070313-5.574219 2.316407-1.441406-.503907-2.453125-1.644531-2.851562-2.980469-.582032-1.933594-1.957032-3.53125-3.820313-4.3125l-26.292969-11.039062c-1.863281-.78125-3.964844-.644532-5.753906.296874-1.234375.648438-2.753906.722657-4.125.046876-2.050781-1.011719-3.027344-3.445313-2.25-5.597657.375-1.035156 1.082031-1.84375 1.949219-2.359375-.242188-.980468-.15625-2.050781.320312-3.042968.992188-2.0625 3.410157-3.070313 5.570313-2.3125 1.441406.503906 2.453125 1.640624 2.855468 2.976562.582032 1.933594 1.957032 3.53125 3.820313 4.316406l26.289063 11.035156c1.863281.78125 3.964843.644532 5.753906-.296874 1.234375-.644532 2.757812-.722657 4.125-.046876 2.054687 1.011719 3.03125 3.445313 2.25 5.597657-.371094 1.035156-1.078125 1.84375-1.945313 2.359375zm0 0" fill="#fff"/></svg>