<svg height="512" viewBox="0 0 64 64" width="512" xmlns="http://www.w3.org/2000/svg"><g id="Processor_security" data-name="Processor security"><path d="m9.895 48.447-1.79-.894 4.277-8.553h6.618v2h-5.382z" fill="#4e901e"/><path d="m31 9h2v10h-2z" fill="#4e901e"/><path d="m25 19h-2v-7.586l-4.707-4.707 1.414-1.414 5.293 5.293z" fill="#4e901e"/><path d="m39.788 59.799-8.788-5.231v-9.568h2v8.432l7.812 4.649z" fill="#4e901e"/><path d="m48 54h-9v-9h2v7h7z" fill="#4e901e"/><path d="m19.707 58.707-1.414-1.414 4.707-4.707v-7.586h2v8.414z" fill="#4e901e"/><path d="m51.236 33h-6.236v-2h5.764l7.789-3.895.894 1.79z" fill="#4e901e"/><path d="m57.293 43.707-2.707-2.707h-9.586v-2h10.414l3.293 3.293z" fill="#4e901e"/><path d="m6.641 33.768-1.282-1.536 6.279-5.232h7.362v2h-6.638z" fill="#4e901e"/><path d="m19 25h-5.414l-5.293-5.293 1.414-1.414 4.707 4.707h4.586z" fill="#4e901e"/><rect fill="#ffb655" height="26" rx="4" width="26" x="19" y="19"/><path d="m44 43h-18a4 4 0 0 1 -4-4v-18a3.959 3.959 0 0 1 .529-1.953 3.986 3.986 0 0 0 -3.529 3.953v18a4 4 0 0 0 4 4h18a3.981 3.981 0 0 0 3.471-2.047 4.061 4.061 0 0 1 -.471.047z" fill="#ffa733"/><g fill="#7ed63e"><circle cx="32" cy="8" r="2"/><circle cx="48" cy="7" r="2"/><circle cx="18" cy="5" r="2"/><circle cx="40" cy="59" r="2"/><circle cx="49" cy="53" r="2"/><circle cx="18" cy="59" r="2"/><circle cx="55" cy="19" r="2" transform="matrix(.963 -.27 .27 .963 -3.086 15.529)"/><circle cx="59" cy="44" r="2" transform="matrix(.963 -.27 .27 .963 -9.677 17.532)"/><circle cx="59" cy="28" r="2" transform="matrix(.963 -.27 .27 .963 -5.364 16.94)"/><circle cx="9" cy="19" r="2" transform="matrix(.27 -.963 .963 .27 -11.723 22.545)"/><circle cx="9" cy="48" r="2" transform="matrix(.207 -.978 .978 .207 -39.824 46.883)"/><path d="m4.921 36a2 2 0 0 0 1.529-3.375l-.45.375.45-.375a2 2 0 1 0 -1.529 3.375z"/></g><path d="m27 11h2v2h-2z" fill="#4e901e"/><path d="m53 35h2v2h-2z" fill="#4e901e"/><path d="m35 51h2v2h-2z" fill="#4e901e"/><path d="m27 54h2v2h-2z" fill="#4e901e"/><path d="m11 31h2v2h-2z" fill="#4e901e"/><path d="m35 11h2v2h-2z" fill="#4e901e"/><path d="m51 27h2v2h-2z" fill="#4e901e"/><path d="m46 17h2v2h-2z" fill="#4e901e"/><path d="m16 17h2v2h-2z" fill="#4e901e"/><path d="m46 45h2v2h-2z" fill="#4e901e"/><path d="m16 45h2v2h-2z" fill="#4e901e"/><path d="m37 30h-2v-3a3 3 0 0 0 -6 0v3h-2v-3a5 5 0 0 1 10 0z" fill="#004fac"/><path d="m35 15h2v4h-2z" fill="#4e901e"/><path d="m41 19h-2v-4.414l7.293-7.293 1.414 1.414-6.707 6.707z" fill="#4e901e"/><path d="m27 15h2v4h-2z" fill="#4e901e"/><path d="m35 45h2v4h-2z" fill="#4e901e"/><path d="m27 45h2v7h-2z" fill="#4e901e"/><path d="m45 35h6v2h-6z" fill="#4e901e"/><path d="m45 27h4v2h-4z" fill="#4e901e"/><path d="m50.414 25h-5.414v-2h4.586l3.707-3.707 1.414 1.414z" fill="#4e901e"/><path d="m9 35h10v2h-10z" fill="#4e901e"/><path d="m15 31h4v2h-4z" fill="#4e901e"/><rect fill="#006df0" height="12" rx="2" width="12" x="26" y="29"/><path d="m28 37v-8a2.006 2.006 0 0 0 -2 2v8a2.006 2.006 0 0 0 2 2h8a2.006 2.006 0 0 0 2-2h-8a2.006 2.006 0 0 1 -2-2z" fill="#005ece"/><circle cx="32" cy="34" fill="#f1f2f2" r="2" transform="matrix(.963 -.27 .27 .963 -7.98 9.884)"/><path d="m31.882 31a2.994 2.994 0 0 0 -.882 5.822v2.178h2v-2.185a2.993 2.993 0 0 0 -1.118-5.815zm1.118 2.961a1 1 0 0 1 -.96 1.039 1 1 0 0 1 -.719-.266 1 1 0 0 1 .639-1.734h.04a1 1 0 0 1 1 .96z" fill="#004fac"/></g></svg>