<svg height="480pt" viewBox="0 -8 480 480" width="480pt" xmlns="http://www.w3.org/2000/svg"><path d="m64 200h352v136h-352zm0 0" fill="#264b74"/><path d="m69.601562 146.398438c1.597657-1.597657 2.398438-3.199219 2.398438-5.597657v-20.800781h-48v20.800781c0 2.398438.800781 4 2.398438 5.597657l5.601562 5.601562v232l-5.601562 5.601562c-1.597657 1.597657-2.398438 3.199219-2.398438 5.597657v20.800781h48v-20.800781c0-2.398438-.800781-4-2.398438-5.597657l-5.601562-5.601562v-232zm0 0" fill="#b4b4b5"/><path d="m154.398438 146.398438 5.601562 5.601562v48h32v-48l5.601562-5.601562c1.597657-1.597657 2.398438-3.199219 2.398438-5.597657v-20.800781h-48v20.800781c0 2.398438.800781 4 2.398438 5.597657zm0 0" fill="#b4b4b5"/><path d="m282.398438 146.398438 5.601562 5.601562v48h32v-48l5.601562-5.601562c1.597657-1.597657 2.398438-3.199219 2.398438-5.597657v-20.800781h-48v20.800781c0 2.398438.800781 4 2.398438 5.597657zm0 0" fill="#b4b4b5"/><path d="m8 416h464v48h-464zm0 0" fill="#8c8c8c"/><path d="m453.601562 146.398438c1.597657-1.597657 2.398438-3.199219 2.398438-5.597657v-20.800781h-48v20.800781c0 2.398438.800781 4 2.398438 5.597657l5.601562 5.601562v232l-5.601562 5.601562c-1.597657 1.597657-2.398438 3.199219-2.398438 5.597657v20.800781h48v-20.800781c0-2.398438-.800781-4-2.398438-5.597657l-5.601562-5.601562v-232zm0 0" fill="#b4b4b5"/><path d="m24 88v32h432v-32l-216-88z" fill="#8c8c8c"/><g fill="#edc17c"><path d="m208 312h-40v-88h40c13.601562 0 24 10.398438 24 24v40c0 13.601562-10.398438 24-24 24zm-24-16h24c4.800781 0 8-3.199219 8-8v-40c0-4.800781-3.199219-8-8-8h-24zm0 0"/><path d="m264 312h-16v-88h40c13.601562 0 24 10.398438 24 24v8c0 13.601562-10.398438 24-24 24h-24zm0-48h24c4.800781 0 8-3.199219 8-8v-8c0-4.800781-3.199219-8-8-8h-24zm0 0"/><path d="m392 312h-16v-17.601562c0-2.398438-.800781-4-2.398438-5.597657l-11.203124-11.199219 11.203124-11.203124 11.199219 11.203124c4.800781 4.796876 7.199219 10.398438 7.199219 16.796876zm0 0"/><path d="m128 312h-16c-13.601562 0-24-10.398438-24-24v-40c0-13.601562 10.398438-24 24-24h16c13.601562 0 24 10.398438 24 24v8h-16v-8c0-4.800781-3.199219-8-8-8h-16c-4.800781 0-8 3.199219-8 8v40c0 4.800781 3.199219 8 8 8h16c4.800781 0 8-3.199219 8-8v-8h-16v-16h32v24c0 13.601562-10.398438 24-24 24zm0 0"/></g><path d="m240 32-144 56h288zm0 0" fill="#b4b4b5"/><path d="m344 312h-16v-88h40c13.601562 0 24 10.398438 24 24v8c0 13.601562-10.398438 24-24 24h-24zm0-48h24c4.800781 0 8-3.199219 8-8v-8c0-4.800781-3.199219-8-8-8h-24zm0 0" fill="#edc17c"/><path d="m325.601562 389.601562-5.601562-5.601562v-48h-32v48l-5.601562 5.601562c-1.597657 1.597657-2.398438 3.199219-2.398438 5.597657v20.800781h48v-20.800781c0-2.398438-.800781-4-2.398438-5.597657zm0 0" fill="#b4b4b5"/><path d="m197.601562 389.601562-5.601562-5.601562v-48h-32v48l-5.601562 5.601562c-1.597657 1.597657-2.398438 3.199219-2.398438 5.597657v20.800781h48v-20.800781c0-2.398438-.800781-4-2.398438-5.597657zm0 0" fill="#b4b4b5"/><path d="m0 112h480v16h-480zm0 0" fill="#7a7a7a"/><path d="m0 80h480v16h-480zm0 0" fill="#7a7a7a"/></svg>