<svg id="Layer_1" enable-background="new 0 0 64 64" height="512" viewBox="0 0 64 64" width="512" xmlns="http://www.w3.org/2000/svg"><g fill="#5b627c"><path d="m28 14h-2v-4.2c0-.3-.1-.5-.3-.7l-2.4-2.4 1.4-1.4 2.4 2.4c.6.6.9 1.3.9 2.1z"/><path d="m19 17h-2v-5.2c0-.3-.1-.5-.3-.7l-4.4-4.4 1.4-1.4 4.4 4.4c.6.6.9 1.3.9 2.1z"/><path d="m6 31h11v2h-11z"/><path d="m6.7 47.7-1.4-1.4 5.4-5.4c.6-.6 1.3-.9 2.1-.9h6.2v2h-6.2c-.3 0-.5.1-.7.3z"/><path d="m31 50h2v8h-2z"/><path d="m48 56h-2v-4.2c0-.3-.1-.5-.3-.7l-5.4-5.4 1.4-1.4 5.4 5.4c.6.6.9 1.3.9 2.1z"/><path d="m53.2 30h-5.2v-2h5.2c.3 0 .5-.1.7-.3l3.4-3.4 1.4 1.4-3.4 3.4c-.6.6-1.3.9-2.1.9z"/><path d="m18 56h-2v-3.2c0-.8.3-1.6.9-2.1l5.4-5.4 1.4 1.4-5.4 5.4c-.2.2-.3.4-.3.7z"/><path d="m16.3 26.7-6.4-6.4c-.2-.2-.5-.3-.7-.3h-3.2v-2h3.2c.8 0 1.6.3 2.1.9l6.4 6.4z"/><path d="m47.7 24.7-1.4-1.4 7.4-7.4c.2-.2.3-.4.3-.7v-9.2h2v9.2c0 .8-.3 1.6-.9 2.1z"/><path d="m57.3 43.7-4.4-4.4c-.2-.2-.4-.3-.7-.3h-6.2v-2h6.2c.8 0 1.6.3 2.1.9l4.4 4.4z"/><path d="m38 14h-2v-4.2c0-.8.3-1.6.9-2.1l2.4-2.4 1.4 1.4-2.4 2.4c-.2.2-.3.5-.3.7z"/></g><circle cx="23" cy="5" fill="#3a3a51" r="2"/><circle cx="12" cy="5" fill="#3a3a51" r="2"/><circle cx="41" cy="5" fill="#3a3a51" r="2"/><circle cx="55" cy="5" fill="#3a3a51" r="2"/><circle cx="5" cy="19" fill="#3a3a51" r="2"/><circle cx="5" cy="32" fill="#3a3a51" r="2"/><circle cx="5" cy="48" fill="#3a3a51" r="2"/><circle cx="17" cy="57" fill="#3a3a51" r="2"/><circle cx="32" cy="59" fill="#3a3a51" r="2"/><circle cx="59" cy="24" fill="#3a3a51" r="2"/><circle cx="47" cy="57" fill="#3a3a51" r="2"/><circle cx="59" cy="44" fill="#3a3a51" r="2"/><path d="m32 11 16 5.6v14.6c0 6.4-3.1 12.4-8.2 16.2l-7.8 5.6-7.8-5.7c-5.2-3.8-8.2-9.8-8.2-16.2v-14.5z" fill="#1b4666"/><path d="m27 20h2v3h-2z" fill="#e0af00"/><path d="m31 20h2v3h-2z" fill="#e0af00"/><path d="m35 20h2v3h-2z" fill="#e0af00"/><path d="m27 39h2v3h-2z" fill="#e0af00"/><path d="m31 39h2v3h-2z" fill="#e0af00"/><path d="m35 39h2v3h-2z" fill="#e0af00"/><path d="m40 26h3v2h-3z" fill="#e0af00"/><path d="m40 30h3v2h-3z" fill="#e0af00"/><path d="m40 34h3v2h-3z" fill="#e0af00"/><path d="m21 26h3v2h-3z" fill="#e0af00"/><path d="m21 30h3v2h-3z" fill="#e0af00"/><path d="m21 34h3v2h-3z" fill="#e0af00"/><path d="m26 23h12c1.1 0 2 .9 2 2v12c0 1.1-.9 2-2 2h-12c-1.1 0-2-.9-2-2v-12c0-1.1.9-2 2-2z" fill="#ffc700"/><path d="m29 28h6v6h-6z" fill="#e0af00"/></svg>