<?xml version="1.0" encoding="utf-8"?>
<!-- Generator: Adobe Illustrator 23.0.2, SVG Export Plug-In . SVG Version: 6.00 Build 0)  -->
<svg version="1.1" id="layer" xmlns="http://www.w3.org/2000/svg" xmlns:xlink="http://www.w3.org/1999/xlink" x="0px" y="0px"
	 viewBox="0 0 600.7 219.7" style="enable-background:new 0 0 600.7 219.7;" xml:space="preserve">
<style type="text/css">
	.st0{clip-path:url(#SVGID_2_);fill:url(#SVGID_3_);}
	.st1{opacity:0.3;}
	.st2{clip-path:url(#SVGID_5_);fill:url(#SVGID_6_);}
	.st3{fill:#404041;}
	.st4{fill:#F79837;}
</style>
<g>
	<g>
		<g>
			<defs>
				<path id="SVGID_1_" d="M179.5,200.8l-0.2-0.5l-0.5-1l-11.7-31.5c11.1,5.1,21.4,11.8,30.7,20.1l0,0c1.2,0.9,2.2,2.2,3,3.7
					c0.9,1.7,1.4,3.5,1.4,5.5c0,6.4-5.2,11.6-11.6,11.6C185.5,208.7,181.1,205.5,179.5,200.8 M83.3,17.7c1.5-4.1,4.9-6.9,8.7-7h0.1
					c3.8,0.2,7.2,2.9,8.7,7l48.3,132.6c-10.7-2.7-21.7-4.1-32.9-4.1c-23.5,0-46.7,6.2-66.9,18c-9.8,5.7-18.8,12.7-26.9,20.6
					L83.3,17.7z M90.9,0.1c-7.8,0.6-14.7,6-17.6,14L1,212.6c-1,2.8,0.4,5.8,3.2,6.8c0.6,0.2,1.2,0.3,1.8,0.3c1.7,0,3.3-0.8,4.3-2.2
					c0.2-0.2,0.3-0.4,0.5-0.7c10.7-18,25.8-33.1,43.9-43.6c18.6-10.8,39.9-16.6,61.6-16.6c12.9,0,25.6,2,37.6,5.9l15.3,41.1l0.5,0.9
					c3.2,8.8,11.5,14.7,20.9,14.7c12.3,0,22.2-10,22.2-22.2c0-3.6-0.9-7.3-2.6-10.5c-0.7-1.2-1.4-2.3-2.2-3.4c-0.3-0.5-0.6-1-1-1.4
					c-13.1-12.2-28.4-21.5-44.9-27.6l-1.1-2.8h-0.1L110.8,14.1c-2.9-7.9-9.7-13.3-17.6-14c-0.3,0-0.6-0.1-0.9-0.1
					c-0.1,0-0.2,0-0.2,0c-0.1,0-0.2,0-0.2,0C91.5,0,91.2,0.1,90.9,0.1"/>
			</defs>
			<clipPath id="SVGID_2_">
				<use xlink:href="#SVGID_1_"  style="overflow:visible;"/>
			</clipPath>
			
				<linearGradient id="SVGID_3_" gradientUnits="userSpaceOnUse" x1="2.1487" y1="-204.934" x2="9.0659" y2="-204.934" gradientTransform="matrix(30.658 0 0 30.658 -65.1837 6392.7173)">
				<stop  offset="0" style="stop-color:#FFDD15"/>
				<stop  offset="3.427713e-02" style="stop-color:#FED217"/>
				<stop  offset="0.1663" style="stop-color:#FAAD1C"/>
				<stop  offset="0.3049" style="stop-color:#F68F20"/>
				<stop  offset="0.45" style="stop-color:#F37824"/>
				<stop  offset="0.6045" style="stop-color:#F16726"/>
				<stop  offset="0.7747" style="stop-color:#F05D28"/>
				<stop  offset="0.991" style="stop-color:#F05A28"/>
				<stop  offset="1" style="stop-color:#F05A28"/>
			</linearGradient>
			<rect class="st0" width="212.8" height="219.7"/>
		</g>
	</g>
	<g>
		<g class="st1">
			<g>
				<g>
					<g>
						<defs>
							<path id="SVGID_4_" d="M167.3,168.4c11.1,5.1,21.4,11.8,30.7,20l0,0c1.2,1,2.2,2.2,3,3.7c0.9,1.7,1.4,3.5,1.4,5.5H213
								c0-3.6-0.9-7.3-2.6-10.5c-0.6-1.2-1.4-2.3-2.2-3.4c-0.3-0.5-0.6-1-1-1.4c-13.1-12.2-28.4-21.5-44.9-27.6L167.3,168.4z
								 M49.5,164.8c-9.8,5.7-18.8,12.7-26.9,20.6l-12.2,32.8c0.2-0.2,0.3-0.4,0.5-0.7c10.7-18,25.9-33.1,43.9-43.6
								c18.6-10.8,39.9-16.6,61.6-16.6c12.1,0,25.1,1.9,37.6,5.9l-4.7-12.4c-10.7-2.7-21.7-4.1-32.9-4.1
								C92.9,146.8,69.8,153,49.5,164.8"/>
						</defs>
						<clipPath id="SVGID_5_">
							<use xlink:href="#SVGID_4_"  style="overflow:visible;"/>
						</clipPath>
						
							<linearGradient id="SVGID_6_" gradientUnits="userSpaceOnUse" x1="1.6391" y1="-203.237" x2="8.5563" y2="-203.237" gradientTransform="matrix(29.2748 0 0 29.2748 -37.4832 6132.2222)">
							<stop  offset="0" style="stop-color:#FFFFFF"/>
							<stop  offset="0.3285" style="stop-color:#FFFFFF"/>
							<stop  offset="0.3745" style="stop-color:#FBFBFB"/>
							<stop  offset="0.4233" style="stop-color:#EEEEEE"/>
							<stop  offset="0.4735" style="stop-color:#D9D9D9"/>
							<stop  offset="0.5246" style="stop-color:#BCBBBB"/>
							<stop  offset="0.5764" style="stop-color:#969595"/>
							<stop  offset="0.6288" style="stop-color:#686666"/>
							<stop  offset="0.6808" style="stop-color:#332F30"/>
							<stop  offset="0.6948" style="stop-color:#231F20"/>
							<stop  offset="0.9301" style="stop-color:#FFFFFF"/>
							<stop  offset="1" style="stop-color:#FFFFFF"/>
						</linearGradient>
						<rect x="10.5" y="146.8" class="st2" width="202.5" height="71.4"/>
					</g>
				</g>
			</g>
		</g>
	</g>
	<path class="st3" d="M206,51.2h3.3l21.4,46.3H227l-5.8-12.9H194l-5.9,12.9h-3.5L206,51.2z M219.7,81.6L207.6,55l-12.1,26.6H219.7z"
		/>
	<g>
		<path class="st3" d="M250.7,98.3c-2.8,0-5.3-0.4-7.6-1.3c-2.3-0.9-4.3-2.1-6-3.8c-1.7-1.7-3-3.8-3.9-6.2c-0.9-2.5-1.4-5.3-1.4-8.5
			V51.6h3.4v26.5c0,5.5,1.4,9.7,4.1,12.6c2.7,3,6.6,4.4,11.5,4.4c4.7,0,8.4-1.4,11.2-4.2c2.8-2.8,4.1-7,4.1-12.5V51.5h3.4V78
			c0,3.3-0.5,6.2-1.4,8.7s-2.2,4.6-3.9,6.3c-1.7,1.7-3.6,3-5.9,3.9C256,97.8,253.5,98.3,250.7,98.3"/>
		<polygon class="st3" points="289.6,54.6 273.6,54.6 273.6,51.5 309.1,51.5 309.1,54.6 293,54.6 293,97.5 289.6,97.5 		"/>
		<path class="st3" d="M333.3,98.3c-3.5,0-6.6-0.7-9.5-1.9c-2.8-1.3-5.3-3-7.3-5.2s-3.6-4.7-4.7-7.5s-1.6-5.8-1.6-9v-0.1
			c0-3.2,0.6-6.2,1.7-9c1.1-2.9,2.7-5.4,4.7-7.6s4.5-3.9,7.3-5.2c2.9-1.3,6-1.9,9.5-1.9s6.7,0.7,9.5,1.9c2.8,1.3,5.3,3,7.3,5.2
			s3.6,4.7,4.7,7.5s1.6,5.8,1.6,9v0.1c0,3.2-0.6,6.2-1.7,9c-1.1,2.9-2.7,5.4-4.7,7.6s-4.4,3.9-7.3,5.2
			C340,97.7,336.8,98.3,333.3,98.3 M333.4,95.2c2.8,0,5.5-0.5,7.9-1.6s4.4-2.5,6.2-4.4c1.7-1.9,3.1-4,4-6.5c1-2.5,1.4-5.2,1.4-8
			v-0.1c0-2.8-0.5-5.5-1.5-8s-2.3-4.7-4.1-6.6c-1.7-1.9-3.8-3.3-6.2-4.4c-2.4-1.1-5-1.6-7.9-1.6s-5.5,0.5-7.9,1.6s-4.4,2.5-6.2,4.4
			c-1.7,1.9-3.1,4-4,6.5c-1,2.5-1.4,5.2-1.4,8v0.1c0,2.8,0.5,5.5,1.5,8s2.3,4.7,4.1,6.6c1.7,1.9,3.8,3.3,6.2,4.4
			C327.9,94.7,330.6,95.2,333.4,95.2"/>
		<polygon class="st3" points="362.5,51.5 365.7,51.5 384.2,78.7 402.7,51.5 405.9,51.5 405.9,97.5 402.5,97.5 402.5,57.6 
			384.2,84.1 384,84.1 365.7,57.6 365.7,97.5 362.5,97.5 		"/>
		<path class="st3" d="M434,51.2h3.3l21.4,46.3H455l-5.8-12.9H422l-5.9,12.9h-3.5L434,51.2z M447.7,81.6L435.6,55l-12.1,26.6H447.7z
			"/>
		<polygon class="st3" points="470,54.6 454,54.6 454,51.5 489.4,51.5 489.4,54.6 473.4,54.6 473.4,97.5 470,97.5 		"/>
		<rect x="496" y="51.5" class="st3" width="3.4" height="46"/>
		<path class="st3" d="M531.3,98.3c-3.5,0-6.6-0.7-9.5-1.9c-2.8-1.3-5.3-3-7.3-5.2s-3.6-4.7-4.7-7.5c-1.1-2.8-1.6-5.8-1.6-9v-0.1
			c0-3.2,0.6-6.2,1.7-9c1.1-2.9,2.7-5.4,4.7-7.6s4.5-3.9,7.3-5.2c2.9-1.3,6-1.9,9.5-1.9s6.7,0.7,9.5,1.9c2.8,1.3,5.2,3,7.3,5.2
			c2,2.2,3.6,4.7,4.7,7.5c1.1,2.8,1.6,5.8,1.6,9v0.1c0,3.2-0.6,6.2-1.7,9c-1.1,2.9-2.7,5.4-4.7,7.6s-4.4,3.9-7.3,5.2
			C538,97.7,534.8,98.3,531.3,98.3 M531.5,95.2c2.8,0,5.5-0.5,7.9-1.6s4.4-2.5,6.2-4.4c1.7-1.9,3.1-4,4-6.5c1-2.5,1.4-5.2,1.4-8
			v-0.1c0-2.8-0.5-5.5-1.5-8s-2.3-4.7-4.1-6.6c-1.7-1.9-3.8-3.3-6.2-4.4s-5-1.6-7.9-1.6c-2.8,0-5.5,0.5-7.9,1.6s-4.4,2.5-6.2,4.4
			c-1.7,1.9-3.1,4-4,6.5c-1,2.5-1.4,5.2-1.4,8v0.1c0,2.8,0.5,5.5,1.5,8s2.3,4.7,4.1,6.6c1.7,1.9,3.8,3.3,6.2,4.4
			S528.6,95.2,531.5,95.2"/>
		<polygon class="st3" points="561,51.5 564.2,51.5 596,91.5 596,51.5 599.2,51.5 599.2,97.5 596.6,97.5 564.2,56.7 564.2,97.5 
			561,97.5 		"/>
		<path class="st3" d="M225.6,107.5h9.6l20.2,47.5h-10.8l-4.3-10.6h-19.9l-4.3,10.6h-10.6L225.6,107.5z M236.5,135.3l-6.3-15.3
			l-6.3,15.3H236.5z"/>
		<polygon class="st3" points="258.3,107.8 267.8,107.8 289.9,136.9 289.9,107.8 300.2,107.8 300.2,155 291.4,155 268.5,125 
			268.5,155 258.3,155 		"/>
		<polygon class="st3" points="321.7,136.4 303.6,107.8 315.7,107.8 327,126.8 338.4,107.8 350.2,107.8 332.1,136.2 332.1,155 
			321.7,155 		"/>
		<polygon class="st3" points="350,107.8 361.1,107.8 370.9,139.8 381.5,107.7 390.4,107.7 401,139.8 410.7,107.8 421.6,107.8 
			405.5,155.3 396.4,155.3 385.8,124.5 375.1,155.3 366.1,155.3 		"/>
		<polygon class="st3" points="427.6,107.8 437.9,107.8 437.9,126.5 457.1,126.5 457.1,107.8 467.4,107.8 467.4,155 457.1,155 
			457.1,136.1 437.9,136.1 437.9,155 427.6,155 		"/>
		<polygon class="st3" points="475.7,107.8 511.2,107.8 511.2,117.1 486,117.1 486,126.6 508.2,126.6 508.2,135.9 486,135.9 
			486,145.8 511.6,145.8 511.6,155 475.7,155 		"/>
		<path class="st3" d="M519.2,107.8h21.6c6,0,10.6,1.6,13.7,4.8c2.7,2.7,4,6.3,4,10.8v0.1c0,3.8-0.9,6.9-2.8,9.3
			c-1.9,2.4-4.3,4.2-7.3,5.3l11.5,16.8h-12.1l-10.1-15.1h-0.1h-8v15.1h-10.4L519.2,107.8L519.2,107.8z M540.1,130.8
			c2.6,0,4.5-0.6,5.9-1.8c1.4-1.2,2-2.8,2-4.9V124c0-2.3-0.7-4-2.2-5.1c-1.4-1.1-3.4-1.7-6-1.7h-10.3v13.6H540.1z"/>
		<polygon class="st3" points="564.9,107.8 600.4,107.8 600.4,117.1 575.1,117.1 575.1,126.6 597.3,126.6 597.3,135.9 575.1,135.9 
			575.1,145.8 600.7,145.8 600.7,155 564.9,155 		"/>
		<path class="st4" d="M384.6,173.3c4.8,0,7.3,2.5,7.3,2.5l-1.8,2.6c0,0-2.1-1.9-5.2-1.9c-4.4,0-6.7,3-6.7,6.7c0,4.3,2.9,7,6.6,7
			c3,0,4.9-2,4.9-2v-2.3h-3v-3.1h6.2v10.3h-3v-0.9c0-0.4,0-0.8,0-0.8h-0.1c0,0-2,2.1-5.7,2.1c-5.2,0-9.6-4-9.6-10.2
			C374.5,177.7,378.8,173.3,384.6,173.3"/>
		<path class="st4" d="M403,178.8c4.3,0,7.8,3.1,7.8,7.4s-3.5,7.4-7.7,7.4c-4.3,0-7.8-3-7.8-7.4C395.2,181.9,398.7,178.8,403,178.8
			 M403,190.6c2.3,0,4.2-1.8,4.2-4.4s-1.9-4.4-4.2-4.4c-2.3,0-4.2,1.8-4.2,4.4S400.7,190.6,403,190.6"/>
		<path class="st4" d="M420.3,173.6h3.5v6.1c0,0.7-0.1,1.2-0.1,1.2h0.1c0,0,1.2-2,4.2-2c3.8,0,6.2,3,6.2,7.4c0,4.5-2.7,7.4-6.5,7.4
			c-2.9,0-4.2-2.1-4.2-2.1h-0.1c0,0,0.1,0.4,0.1,1v0.8h-3.3L420.3,173.6L420.3,173.6z M427.2,190.6c1.9,0,3.5-1.6,3.5-4.4
			c0-2.7-1.4-4.4-3.5-4.4c-1.8,0-3.5,1.3-3.5,4.5C423.7,188.4,424.9,190.6,427.2,190.6"/>
		<path class="st4" d="M443.3,178.8c4.1,0,6.3,3,6.3,6.7c0,0.4-0.1,1.4-0.1,1.4h-9.7c0.2,2.5,2.1,3.7,4.2,3.7c2.3,0,4.1-1.5,4.1-1.5
			l1.3,2.5c0,0-2.2,2-5.7,2c-4.7,0-7.6-3.4-7.6-7.4C436.2,181.8,439.1,178.8,443.3,178.8 M446,184.4c-0.1-1.9-1.2-2.9-2.8-2.9
			c-1.8,0-3,1.1-3.4,2.9H446z"/>
		<path class="st4" d="M464.5,196c2.2,0,4-0.9,4-3.4v-0.8c0-0.3,0.1-0.7,0.1-0.7h-0.1c-0.8,1.2-2,1.9-3.9,1.9c-4,0-6.3-3.3-6.3-7.1
			c0-3.9,2.2-7,6.2-7c3.1,0,4.2,1.8,4.2,1.8h0.1c0,0,0-0.2,0-0.4v-1.2h3.3v13.2c0,4.8-3.8,6.7-7.4,6.7c-1.8,0-3.7-0.5-5-1.2l1.1-2.7
			C460.6,195.1,462.4,196,464.5,196 M468.6,185.8c0-3.2-1.6-4.1-3.5-4.1c-2.1,0-3.3,1.5-3.3,3.9c0,2.5,1.3,4.3,3.5,4.3
			C467,190,468.6,189,468.6,185.8"/>
		<path class="st4" d="M475.9,179.1h3.4v2.4c0,0.5,0,1,0,1l0,0c0.6-2,2.3-3.6,4.5-3.6c0.3,0,0.6,0.1,0.6,0.1v3.5
			c0,0-0.4-0.1-0.8-0.1c-1.5,0-3.2,0.9-3.8,3c-0.2,0.7-0.3,1.5-0.3,2.3v5.6H476v-14.2H475.9z"/>
		<path class="st4" d="M492.9,178.8c4.1,0,6.3,3,6.3,6.7c0,0.4-0.1,1.4-0.1,1.4h-9.7c0.2,2.5,2.1,3.7,4.2,3.7c2.3,0,4.1-1.5,4.1-1.5
			l1.3,2.5c0,0-2.2,2-5.7,2c-4.7,0-7.6-3.4-7.6-7.4C485.8,181.8,488.7,178.8,492.9,178.8 M495.6,184.4c-0.1-1.9-1.2-2.9-2.8-2.9
			c-1.8,0-3,1.1-3.4,2.9H495.6z"/>
		<path class="st4" d="M509.2,184.4h0.5v-0.2c0-1.9-1.2-2.5-2.7-2.5c-2,0-3.9,1.4-3.9,1.4l-1.3-2.5c0,0,2.2-1.7,5.5-1.7
			c3.7,0,5.9,2,5.9,5.6v8.8H510v-1.2c0-0.6,0.1-1,0.1-1H510c0,0-1.1,2.5-4.3,2.5c-2.5,0-4.8-1.6-4.8-4.4
			C500.9,184.7,506.9,184.4,509.2,184.4 M506.6,190.8c1.9,0,3.2-2,3.2-3.7v-0.3h-0.6c-1.8,0-4.7,0.2-4.7,2.2
			C504.4,189.9,505.1,190.8,506.6,190.8"/>
		<path class="st4" d="M517.4,182.1h-1.8v-2.8h1.9v-4.1h3.4v4.1h3.2v2.8h-3.2v5.5c0,2.3,1.8,2.7,2.8,2.7c0.4,0,0.6-0.1,0.6-0.1v3.1
			c0,0-0.4,0.1-1.1,0.1c-2,0-5.9-0.6-5.9-5.3L517.4,182.1L517.4,182.1z"/>
		<rect x="527" y="189.7" class="st4" width="3.5" height="3.5"/>
	</g>
</g>
</svg>
