<svg id="Layer_1_1_" enable-background="new 0 0 64 64" height="512" viewBox="0 0 64 64" width="512" xmlns="http://www.w3.org/2000/svg"><path d="m51 29v-22c0-2.21-1.79-4-4-4h-40c-2.21 0-4 1.79-4 4v22s47.87-.062 48 0z" fill="#d5dbdb"/><path d="m27.15 29h2.402l.006-.006-.966-3.187 1.153-.836c1.11-.805 2.326-1.512 3.613-2.1l1.312-.6 2.293 2.461c.251-.074.504-.142.76-.205l.76-3.256 1.401-.159c.671-.075 1.362-.112 2.116-.112s1.445.037 2.115.113l.885.1v-14.213h-36v22h16.512l.294-.405z" fill="#edfcfc"/><path d="m9 7h36v8h-36z" fill="#fda22e"/><path d="m22.27 49.333 1.428-1.333h-14.698c0 2.21 1.79 4 4 4h10.557c-.237-.433-.467-.884-.683-1.354z" fill="#4bbee5"/><path d="m24.732 47.035c-.074-.25-.142-.503-.204-.758l-3.259-.76-.157-1.405c-.075-.674-.112-1.364-.112-2.112s.037-1.438.112-2.112l.157-1.405 3.258-.76c.059-.242.126-.483.197-.723h-5.724l-4 11h8.698z" fill="#3c7eb0"/><path d="m24.734 36.961-2.442-2.287.583-1.302c.573-1.28 1.278-2.5 2.096-3.627l.541-.745h-22.512v4c0 2.21 1.79 4 4 4h17.724c.004-.013.007-.026.01-.039z" fill="#4bbee5"/><path d="m28.996 29.557c.182-.19.367-.375.556-.557h-2.402z" fill="#4bbee5"/><path d="m49.316 22.3-2.276 2.433c-.253-.074-.507-.143-.764-.206l-.76-3.256-.516-.058v7.787h6v-5.94c-.13-.062-.254-.133-.388-.192z" fill="#b9baba"/><path d="m44.115 21.113c-.67-.076-1.361-.113-2.115-.113s-1.445.037-2.115.113l-1.401.159-.76 3.256c-.256.062-.509.131-.76.205l-2.293-2.461-1.312.6c-1.287.588-2.503 1.294-3.613 2.1l-1.153.836.966 3.187c-.002.002-.004.004-.006.006h2.098 13.349v-7.787z" fill="#d5dbdb"/><path d="m25.807 28.595-.295.405h1.638z" fill="#d5dbdb"/><path d="m24.69 49.81 1.94-1.81h-2.932l-1.429 1.333.604 1.312c.216.47.447.921.683 1.354h2.313c-.439-.699-.829-1.429-1.179-2.189z" fill="#4198ce"/><path d="m24.527 37.723-3.258.76-.157 1.405c-.075.674-.112 1.364-.112 2.112s.037 1.438.112 2.112l.157 1.405 3.259.76c.062.255.13.508.204.758l-1.034.965h2.932l.41-.38c-.37-.96-.64-1.96-.81-3l-3.13-.73c-.07-.62-.1-1.25-.1-1.89s.03-1.27.1-1.89l3.13-.73c.13-.82.33-1.61.59-2.38h-2.096c-.071.24-.137.481-.197.723z" fill="#296991"/><path d="m28.996 29.557-1.846-.557h-1.638l-.541.745c-.817 1.127-1.522 2.348-2.096 3.627l-.583 1.302 2.442 2.287c-.004.013-.007.026-.01.039h2.096c.07-.21.14-.42.22-.62l-2.34-2.19c.52-1.16 1.15-2.25 1.89-3.27l3.05.92c.66-.8 1.4-1.54 2.2-2.2l-.19-.64h-2.098c-.189.182-.374.367-.556.557z" fill="#4198ce"/><path d="m26.63 48 .41-.38c-.37-.96-.64-1.96-.81-3l-3.13-.73c-.07-.62-.1-1.25-.1-1.89s.03-1.27.1-1.89l3.13-.73c.13-.82.33-1.61.59-2.38.07-.21.14-.42.22-.62l-2.34-2.19c.52-1.16 1.15-2.25 1.89-3.27l3.05.92c.66-.8 1.4-1.54 2.2-2.2l-.19-.64-.73-2.41c1.02-.74 2.11-1.37 3.27-1.9l2.19 2.35c.96-.37 1.96-.64 3-.81l.73-3.13c.62-.07 1.25-.1 1.89-.1s1.27.03 1.89.1l.73 3.13c1.04.17 2.04.44 3 .81l2.19-2.34c.41.18.8.38 1.19.59.72.38 1.42.82 2.08 1.3l-.92 3.05c.8.66 1.54 1.4 2.2 2.2l3.05-.92c.74 1.02 1.37 2.11 1.9 3.27l-2.35 2.19c.37.96.64 1.96.81 3l3.13.73c.07.62.1 1.25.1 1.89s-.03 1.27-.1 1.89l-3.13.73c-.17 1.04-.44 2.04-.81 3l2.34 2.19c-.52 1.16-1.15 2.25-1.89 3.27l-3.05-.92c-.66.8-1.4 1.54-2.2 2.2l.92 3.05c-1.02.74-2.11 1.37-3.27 1.9l-2.19-2.35c-.96.37-1.96.64-3 .81l-.73 3.13c-.62.07-1.25.1-1.89.1s-1.27-.03-1.89-.1l-.73-3.13c-1.04-.17-2.04-.44-3-.81l-2.19 2.34c-1.16-.52-2.25-1.15-3.27-1.89l.92-3.05c-.8-.66-1.54-1.4-2.2-2.2l-3.05.92c-.25-.35-.5-.71-.72-1.08-.44-.7-.83-1.43-1.18-2.19zm21.37-6c0-3.31-2.69-6-6-6s-6 2.69-6 6 2.69 6 6 6 6-2.69 6-6z" fill="#f82f45"/><path d="m42 34c-4.418 0-8 3.582-8 8s3.582 8 8 8 8-3.582 8-8-3.582-8-8-8zm0 14c-3.314 0-6-2.686-6-6s2.686-6 6-6 6 2.686 6 6-2.686 6-6 6z" fill="#d22435"/><g fill="#2d366d"><path d="m37.707 11.293-1.414 1.414 2.293 2.293h-12.586c-2.757 0-5 2.243-5 5v6h2v-6c0-1.654 1.346-3 3-3h12.586l-2.293 2.293 1.414 1.414 4.707-4.707z"/><path d="m12 10h2v2h-2z"/><path d="m16 10h2v2h-2z"/><path d="m20 10h2v2h-2z"/></g><path d="m42.549 53.988-.09-1.998c.599-.027 1.196-.108 1.776-.24l.445 1.95c-.697.158-1.413.255-2.131.288zm-3.205-.283c-.699-.158-1.389-.38-2.049-.662l.785-1.84c.549.234 1.122.42 1.703.551zm8.35-1.14-.949-1.76c.523-.283 1.026-.616 1.494-.989l1.248 1.562c-.56.449-1.164.848-1.793 1.187zm-13.163-1.172c-.561-.446-1.084-.945-1.557-1.484l1.504-1.318c.394.449.83.866 1.297 1.237zm17.18-2.342-1.617-1.177c.351-.482.66-1 .92-1.538l1.801.868c-.311.647-.683 1.268-1.104 1.847zm-20.516-1.825c-.313-.648-.569-1.326-.759-2.013l1.928-.532c.158.571.37 1.134.632 1.674zm22.615-3.085-1.969-.355c.105-.583.159-1.184.159-1.786l2-.043v.043c0 .721-.064 1.441-.19 2.141zm-23.81-2.119v-.022c0-.711.062-1.423.187-2.117l1.969.351c-.103.578-.156 1.173-.156 1.766zm21.631-2.721c-.158-.572-.372-1.134-.634-1.672l1.797-.876c.315.647.573 1.324.765 2.013zm-18.653-1.619-1.803-.865c.31-.646.68-1.268 1.101-1.848l1.619 1.173c-.35.483-.659 1.002-.917 1.54zm16.531-2.286c-.396-.449-.834-.865-1.302-1.236l1.244-1.566c.56.444 1.084.942 1.558 1.48zm-13.763-1.2-1.252-1.56c.56-.449 1.161-.849 1.789-1.19l.955 1.758c-.524.284-1.026.618-1.492.992zm10.153-1.407c-.546-.232-1.12-.417-1.704-.548l.438-1.951c.702.157 1.392.378 2.05.658zm-6.153-.534-.449-1.949c.697-.161 1.414-.259 2.131-.292l.094 1.998c-.598.028-1.195.11-1.776.243z" fill="#d5dbdb"/></svg>