<?xml version="1.0" encoding="utf-8"?>
<!-- Generator: Adobe Illustrator 23.0.2, SVG Export Plug-In . SVG Version: 6.00 Build 0)  -->
<svg version="1.1" id="Layer_1" xmlns="http://www.w3.org/2000/svg" xmlns:xlink="http://www.w3.org/1999/xlink" x="0px" y="0px"
	 viewBox="0 0 706.7 706.7" style="enable-background:new 0 0 706.7 706.7;" xml:space="preserve">
<style type="text/css">
	.st0{fill:#587399;}
	.st1{fill:#6586B2;}
	.st2{fill:#BCD4E8;}
	.st3{fill:#FC6056;}
	.st4{fill:#FEDE80;}
	.st5{fill:#4B5A68;}
</style>
<g>
	<g>
		<rect x="307.3" y="132.6" class="st0" width="93.6" height="58.4"/>
		<rect x="307.3" y="517.2" class="st0" width="93.6" height="58.4"/>
		
			<rect x="495.3" y="324.6" transform="matrix(-1.836970e-16 1 -1 -1.836970e-16 895.8775 -188.2759)" class="st0" width="93.6" height="58.4"/>
		
			<rect x="110.6" y="324.6" transform="matrix(-1.836970e-16 1 -1 -1.836970e-16 511.2109 196.3907)" class="st0" width="93.6" height="58.4"/>
		
			<rect x="170.6" y="188.5" transform="matrix(0.7071 -0.7071 0.7071 0.7071 -90.2626 217.442)" class="st0" width="93.6" height="58.4"/>
		
			<rect x="442.6" y="460.5" transform="matrix(0.7071 -0.7071 0.7071 0.7071 -202.9289 489.4423)" class="st0" width="93.6" height="58.4"/>
		
			<rect x="170.8" y="460.9" transform="matrix(-0.7071 -0.7071 0.7071 -0.7071 24.8259 990.4302)" class="st0" width="93.6" height="58.4"/>
		
			<rect x="442.8" y="188.9" transform="matrix(-0.7071 -0.7071 0.7071 -0.7071 681.4929 718.4298)" class="st0" width="93.6" height="58.4"/>
		<circle class="st0" cx="353.8" cy="354.4" r="187.2"/>
		<circle class="st1" cx="353.4" cy="353.8" r="135.9"/>
		<circle class="st2" cx="354.1" cy="353.5" r="113.7"/>
		<polygon class="st3" points="404.8,352.7 325.2,306.8 325.2,398.7 		"/>
	</g>
	<g>
		<circle class="st4" cx="35.8" cy="39" r="35.2"/>
		<path class="st5" d="M114.1,51.3H93.6c-1.1,0-2-0.9-2-2V28.8c0-1.1,0.9-2,2-2h20.4c1.1,0,2,0.9,2,2v20.4
			C116.1,50.4,115.2,51.3,114.1,51.3z"/>
		<path class="st5" d="M153.9,51.3h-20.4c-1.1,0-2-0.9-2-2V28.8c0-1.1,0.9-2,2-2h20.4c1.1,0,2,0.9,2,2v20.4
			C155.9,50.4,155,51.3,153.9,51.3z"/>
		<path class="st5" d="M193.6,51.3h-20.4c-1.1,0-2-0.9-2-2V28.8c0-1.1,0.9-2,2-2h20.4c1.1,0,2,0.9,2,2v20.4
			C195.6,50.4,194.7,51.3,193.6,51.3z"/>
		<path class="st5" d="M233.4,51.3H213c-1.1,0-2-0.9-2-2V28.8c0-1.1,0.9-2,2-2h20.4c1.1,0,2,0.9,2,2v20.4
			C235.4,50.4,234.5,51.3,233.4,51.3z"/>
		<path class="st5" d="M273.2,51.3h-20.4c-1.1,0-2-0.9-2-2V28.8c0-1.1,0.9-2,2-2h20.4c1.1,0,2,0.9,2,2v20.4
			C275.2,50.4,274.3,51.3,273.2,51.3z"/>
		<path class="st5" d="M312.9,51.3h-20.4c-1.1,0-2-0.9-2-2V28.8c0-1.1,0.9-2,2-2h20.4c1.1,0,2,0.9,2,2v20.4
			C314.9,50.4,314,51.3,312.9,51.3z"/>
		<path class="st5" d="M352.7,51.3h-20.4c-1.1,0-2-0.9-2-2V28.8c0-1.1,0.9-2,2-2h20.4c1.1,0,2,0.9,2,2v20.4
			C354.7,50.4,353.8,51.3,352.7,51.3z"/>
		<path class="st5" d="M352.7,91.8h-20.4c-1.1,0-2-0.9-2-2V69.3c0-1.1,0.9-2,2-2h20.4c1.1,0,2,0.9,2,2v20.4
			C354.7,90.9,353.8,91.8,352.7,91.8z"/>
	</g>
	<g>
		<circle class="st4" cx="39.6" cy="671.8" r="35.2"/>
		<path class="st5" d="M51.8,593.5v20.4c0,1.1-0.9,2-2,2H29.4c-1.1,0-2-0.9-2-2v-20.4c0-1.1,0.9-2,2-2h20.4
			C50.9,591.5,51.8,592.4,51.8,593.5z"/>
		<path class="st5" d="M51.8,553.7v20.4c0,1.1-0.9,2-2,2H29.4c-1.1,0-2-0.9-2-2v-20.4c0-1.1,0.9-2,2-2h20.4
			C50.9,551.7,51.8,552.6,51.8,553.7z"/>
		<path class="st5" d="M51.8,514v20.4c0,1.1-0.9,2-2,2H29.4c-1.1,0-2-0.9-2-2V514c0-1.1,0.9-2,2-2h20.4
			C50.9,512,51.8,512.9,51.8,514z"/>
		<path class="st5" d="M51.8,474.2v20.4c0,1.1-0.9,2-2,2H29.4c-1.1,0-2-0.9-2-2v-20.4c0-1.1,0.9-2,2-2h20.4
			C50.9,472.2,51.8,473.1,51.8,474.2z"/>
		<path class="st5" d="M51.8,434.4v20.4c0,1.1-0.9,2-2,2H29.4c-1.1,0-2-0.9-2-2v-20.4c0-1.1,0.9-2,2-2h20.4
			C50.9,432.4,51.8,433.3,51.8,434.4z"/>
		<path class="st5" d="M51.8,394.7v20.4c0,1.1-0.9,2-2,2H29.4c-1.1,0-2-0.9-2-2v-20.4c0-1.1,0.9-2,2-2h20.4
			C50.9,392.7,51.8,393.6,51.8,394.7z"/>
		<path class="st5" d="M51.8,354.9v20.4c0,1.1-0.9,2-2,2H29.4c-1.1,0-2-0.9-2-2v-20.4c0-1.1,0.9-2,2-2h20.4
			C50.9,352.9,51.8,353.8,51.8,354.9z"/>
		<path class="st5" d="M92.3,354.9v20.4c0,1.1-0.9,2-2,2H69.9c-1.1,0-2-0.9-2-2v-20.4c0-1.1,0.9-2,2-2h20.4
			C91.5,352.9,92.3,353.8,92.3,354.9z"/>
	</g>
	<g>
		<circle class="st4" cx="672.4" cy="668" r="35.2"/>
		<path class="st5" d="M594.1,655.8h20.4c1.1,0,2,0.9,2,2v20.4c0,1.1-0.9,2-2,2h-20.4c-1.1,0-2-0.9-2-2v-20.4
			C592.1,656.7,593,655.8,594.1,655.8z"/>
		<path class="st5" d="M554.3,655.8h20.4c1.1,0,2,0.9,2,2v20.4c0,1.1-0.9,2-2,2h-20.4c-1.1,0-2-0.9-2-2v-20.4
			C552.3,656.7,553.2,655.8,554.3,655.8z"/>
		<path class="st5" d="M514.5,655.8H535c1.1,0,2,0.9,2,2v20.4c0,1.1-0.9,2-2,2h-20.4c-1.1,0-2-0.9-2-2v-20.4
			C512.5,656.7,513.4,655.8,514.5,655.8z"/>
		<path class="st5" d="M474.8,655.8h20.4c1.1,0,2,0.9,2,2v20.4c0,1.1-0.9,2-2,2h-20.4c-1.1,0-2-0.9-2-2v-20.4
			C472.8,656.7,473.7,655.8,474.8,655.8z"/>
		<path class="st5" d="M435,655.8h20.4c1.1,0,2,0.9,2,2v20.4c0,1.1-0.9,2-2,2H435c-1.1,0-2-0.9-2-2v-20.4
			C433,656.7,433.9,655.8,435,655.8z"/>
		<path class="st5" d="M395.2,655.8h20.4c1.1,0,2,0.9,2,2v20.4c0,1.1-0.9,2-2,2h-20.4c-1.1,0-2-0.9-2-2v-20.4
			C393.2,656.7,394.1,655.8,395.2,655.8z"/>
		<path class="st5" d="M355.5,655.8h20.4c1.1,0,2,0.9,2,2v20.4c0,1.1-0.9,2-2,2h-20.4c-1.1,0-2-0.9-2-2v-20.4
			C353.5,656.7,354.4,655.8,355.5,655.8z"/>
		<path class="st5" d="M355.5,615.2h20.4c1.1,0,2,0.9,2,2v20.4c0,1.1-0.9,2-2,2h-20.4c-1.1,0-2-0.9-2-2v-20.4
			C353.5,616.1,354.4,615.2,355.5,615.2z"/>
	</g>
	<g>
		<circle class="st4" cx="668.6" cy="35.2" r="35.2"/>
		<path class="st5" d="M656.3,113.5V93.1c0-1.1,0.9-2,2-2h20.4c1.1,0,2,0.9,2,2v20.4c0,1.1-0.9,2-2,2h-20.4
			C657.2,115.5,656.3,114.6,656.3,113.5z"/>
		<path class="st5" d="M656.3,153.3v-20.4c0-1.1,0.9-2,2-2h20.4c1.1,0,2,0.9,2,2v20.4c0,1.1-0.9,2-2,2h-20.4
			C657.2,155.3,656.3,154.4,656.3,153.3z"/>
		<path class="st5" d="M656.3,193.1v-20.4c0-1.1,0.9-2,2-2h20.4c1.1,0,2,0.9,2,2v20.4c0,1.1-0.9,2-2,2h-20.4
			C657.2,195,656.3,194.2,656.3,193.1z"/>
		<path class="st5" d="M656.3,232.8v-20.4c0-1.1,0.9-2,2-2h20.4c1.1,0,2,0.9,2,2v20.4c0,1.1-0.9,2-2,2h-20.4
			C657.2,234.8,656.3,233.9,656.3,232.8z"/>
		<path class="st5" d="M656.3,272.6v-20.4c0-1.1,0.9-2,2-2h20.4c1.1,0,2,0.9,2,2v20.4c0,1.1-0.9,2-2,2h-20.4
			C657.2,274.6,656.3,273.7,656.3,272.6z"/>
		<path class="st5" d="M656.3,312.4v-20.4c0-1.1,0.9-2,2-2h20.4c1.1,0,2,0.9,2,2v20.4c0,1.1-0.9,2-2,2h-20.4
			C657.2,314.4,656.3,313.5,656.3,312.4z"/>
		<path class="st5" d="M656.3,352.1v-20.4c0-1.1,0.9-2,2-2h20.4c1.1,0,2,0.9,2,2v20.4c0,1.1-0.9,2-2,2h-20.4
			C657.2,354.1,656.3,353.2,656.3,352.1z"/>
		<path class="st5" d="M615.8,352.1v-20.4c0-1.1,0.9-2,2-2h20.4c1.1,0,2,0.9,2,2v20.4c0,1.1-0.9,2-2,2h-20.4
			C616.7,354.1,615.8,353.2,615.8,352.1z"/>
	</g>
</g>
</svg>
