<?xml version="1.0" encoding="iso-8859-1"?>
<!-- Generator: Adobe Illustrator 19.0.0, SVG Export Plug-In . SVG Version: 6.00 Build 0)  -->
<svg xmlns="http://www.w3.org/2000/svg" xmlns:xlink="http://www.w3.org/1999/xlink" version="1.1" id="Layer_1" x="0px" y="0px" viewBox="0 0 495.813 495.813" style="enable-background:new 0 0 495.813 495.813;" xml:space="preserve" width="512" height="512">
<g>
	<path style="fill:#2880BD;" d="M92.811,0H15.465c-8.284,0-15,6.716-15,15v77.346c0,8.284,6.716,15,15,15s15-6.716,15-15V30h62.346   c8.284,0,15-6.716,15-15S101.095,0,92.811,0z"/>
	<path style="fill:#0D4D73;" d="M480.348,0h-77.346c-8.284,0-15,6.716-15,15s6.716,15,15,15h62.346v62.346c0,8.284,6.716,15,15,15   s15-6.716,15-15V15C495.348,6.716,488.632,0,480.348,0z"/>
	<path style="fill:#0D4D73;" d="M480.348,388.467c-8.284,0-15,6.716-15,15v62.346h-62.346c-8.284,0-15,6.716-15,15s6.716,15,15,15   h77.346c8.284,0,15-6.716,15-15v-77.346C495.348,395.183,488.632,388.467,480.348,388.467z"/>
	<path style="fill:#2880BD;" d="M92.811,465.813H30.465v-62.346c0-8.284-6.716-15-15-15s-15,6.716-15,15v77.346   c0,8.284,6.716,15,15,15h77.346c8.284,0,15-6.716,15-15S101.095,465.813,92.811,465.813z"/>
	<path style="fill:#5691ED;" d="M396.727,210.336v180.43c0,8.28-6.71,15-15,15c-8.28,0-15-6.72-15-15v-180.43   c0-39.54-19.58-76.38-52.4-98.54c-19.64-13.27-42.61-20.29-66.42-20.29h-0.5c-21.57,0.09-42.63,6.01-60.98,17.12   c-7.08,4.29-16.3,2.03-20.6-5.06c-4.29-7.08-2.03-16.31,5.06-20.6c23.03-13.95,49.47-21.37,76.52-21.46h0.5   c29.82,0,58.6,8.8,83.22,25.43C372.207,114.686,396.727,160.816,396.727,210.336z"/>
	<path style="fill:#2674D9;" d="M396.727,210.336v180.43c0,8.28-6.71,15-15,15c-8.28,0-15-6.72-15-15v-180.43   c0-39.54-19.58-76.38-52.4-98.54c-19.64-13.27-42.61-20.29-66.42-20.29h-0.5v-30h0.5c29.82,0,58.6,8.8,83.22,25.43   C372.207,114.686,396.727,160.816,396.727,210.336z"/>
	<path style="fill:#5691ED;" d="M137.875,132.682c-7.255-4.001-16.378-1.359-20.378,5.894   c-12.047,21.852-18.415,46.665-18.415,71.76v164.301c0,8.284,6.716,15,15,15s15-6.716,15-15V210.335   c0-20.043,5.079-39.848,14.687-57.275C147.768,145.805,145.13,136.682,137.875,132.682z"/>
	<path style="fill:#5691ED;" d="M207.906,404.303h-1.089c-8.688,0-15.755-7.068-15.755-15.756v-23.411c0-8.284-6.716-15-15-15   s-15,6.716-15,15v23.411c0,25.229,20.526,45.756,45.755,45.756h1.089c8.284,0,15-6.716,15-15S216.191,404.303,207.906,404.303z"/>
	<path style="fill:#2674D9;" d="M319.75,211.516c-8.284,0-15,6.716-15,15v162.031c0,8.688-7.067,15.756-15.755,15.756h-26.589   c-8.284,0-15,6.716-15,15s6.716,15,15,15h26.589c25.229,0,45.755-20.526,45.755-45.756V226.516   C334.75,218.231,328.034,211.516,319.75,211.516z"/>
	<path style="fill:#5691ED;" d="M309.316,186.326c-5.86,5.85-15.36,5.85-21.21,0c-10.74-10.74-25.02-16.65-40.2-16.65   c-0.17,0-0.34,0-0.5,0.01c-31.11,0.26-56.34,25.66-56.34,56.83v87.45c0,8.29-6.72,15-15,15c-8.29,0-15-6.71-15-15v-87.45   c0-47.72,38.68-86.57,86.34-86.83c0.17-0.01,0.33-0.01,0.5-0.01c23.2,0,45,9.03,61.41,25.43   C315.177,170.966,315.177,180.466,309.316,186.326z"/>
	<path style="fill:#2674D9;" d="M309.316,165.106c5.86,5.86,5.86,15.36,0,21.22c-5.86,5.85-15.36,5.85-21.21,0   c-10.74-10.74-25.02-16.65-40.2-16.65c-0.17,0-0.34,0-0.5,0.01v-30c0.17-0.01,0.33-0.01,0.5-0.01   C271.106,139.676,292.906,148.706,309.316,165.106z"/>
	<path style="fill:#5691ED;" d="M262.906,215.136v143.5c0,8.28-6.72,15-15,15c-0.17,0-0.34,0-0.5-0.01   c-8.05-0.26-14.5-6.88-14.5-14.99v-143.5c0-8.11,6.45-14.73,14.5-14.99c0.16-0.01,0.33-0.01,0.5-0.01   C256.187,200.136,262.906,206.856,262.906,215.136z"/>
	<path style="fill:#2674D9;" d="M262.906,215.136v143.5c0,8.28-6.72,15-15,15c-0.17,0-0.34,0-0.5-0.01V200.146   c0.16-0.01,0.33-0.01,0.5-0.01C256.187,200.136,262.906,206.856,262.906,215.136z"/>
	<path style="fill:#FFE6B9;" d="M462.786,260.226c0,8.28-6.71,15-15,15H48.026c-8.29,0-15-6.72-15-15c0-8.28,6.71-15,15-15h399.76   C456.076,245.226,462.786,251.946,462.786,260.226z"/>
	<path style="fill:#FFCD76;" d="M462.786,260.226c0,8.28-6.71,15-15,15h-200.38v-30h200.38   C456.076,245.226,462.786,251.946,462.786,260.226z"/>
</g>















</svg>
