<?xml version="1.0" encoding="iso-8859-1"?>
<!-- Generator: Adobe Illustrator 19.0.0, SVG Export Plug-In . SVG Version: 6.00 Build 0)  -->
<svg xmlns="http://www.w3.org/2000/svg" xmlns:xlink="http://www.w3.org/1999/xlink" version="1.1" id="Layer_1" x="0px" y="0px" viewBox="0 0 494 494" style="enable-background:new 0 0 494 494;" xml:space="preserve" width="512" height="512">
<g>
	<path style="fill:#A8D384;" d="M92.508,0H15.463c-8.284,0-15,6.716-15,15v77.045c0,8.284,6.716,15,15,15s15-6.716,15-15V30h62.045   c8.284,0,15-6.716,15-15S100.792,0,92.508,0z"/>
	<path style="fill:#80C469;" d="M478.537,0h-77.045c-8.284,0-15,6.716-15,15s6.716,15,15,15h62.045v62.045c0,8.284,6.716,15,15,15   s15-6.716,15-15V15C493.537,6.716,486.821,0,478.537,0z"/>
	<path style="fill:#80C469;" d="M478.537,386.955c-8.284,0-15,6.716-15,15V464h-62.045c-8.284,0-15,6.716-15,15s6.716,15,15,15   h77.045c8.284,0,15-6.716,15-15v-77.045C493.537,393.671,486.821,386.955,478.537,386.955z"/>
	<path style="fill:#A8D384;" d="M92.508,464H30.463v-62.045c0-8.284-6.716-15-15-15s-15,6.716-15,15V479c0,8.284,6.716,15,15,15   h77.045c8.284,0,15-6.716,15-15S100.792,464,92.508,464z"/>
	<path style="fill:#C2E5E6;" d="M426.03,254.14c-22.04,21.62-93.85,84.93-179.03,84.93S90.01,275.76,67.97,254.14   c-4-3.93-4-10.35,0-14.28c22.04-21.62,93.85-84.93,179.03-84.93s156.99,63.31,179.03,84.93   C430.03,243.79,430.03,250.21,426.03,254.14z"/>
	<path style="fill:#98D5D2;" d="M426.03,254.14c-22.04,21.62-93.85,84.93-179.03,84.93V154.93c85.18,0,156.99,63.31,179.03,84.93   C430.03,243.79,430.03,250.21,426.03,254.14z"/>
	<circle style="fill:#3B9AD6;" cx="247" cy="247" r="76.5"/>
	<path style="fill:#2880BD;" d="M323.5,247c0,42.25-34.25,76.5-76.5,76.5v-153C289.25,170.5,323.5,204.75,323.5,247z"/>
	<path style="fill:#154864;" d="M286.32,247c0,21.72-17.6,39.32-39.32,39.32s-39.32-17.6-39.32-39.32   c0-21.72,17.6-39.32,39.32-39.32S286.32,225.28,286.32,247z"/>
	<path style="fill:#04293E;" d="M286.32,247c0,21.72-17.6,39.32-39.32,39.32v-78.64C268.72,207.68,286.32,225.28,286.32,247z"/>
	<path style="fill:#A8D384;" d="M315.11,49.94l-58.55,58.55c-2.66,2.66-6.08,4.11-9.56,4.35c-0.35,0.03-0.7,0.04-1.05,0.04   c-3.84,0-7.68-1.46-10.61-4.39l-31.81-31.81c-5.86-5.86-5.86-15.36,0-21.22s15.36-5.85,21.22,0l21.2,21.21l47.94-47.94   c5.86-5.86,15.36-5.86,21.22,0C320.96,34.58,320.96,44.08,315.11,49.94z"/>
	<path style="fill:#80C469;" d="M315.11,49.94l-58.55,58.55c-2.66,2.66-6.08,4.11-9.56,4.35V75.62l46.89-46.89   c5.86-5.86,15.36-5.86,21.22,0C320.96,34.58,320.96,44.08,315.11,49.94z"/>
	<path style="fill:#F8A73D;" d="M319.5,386.67c0,8.28-6.72,15-15,15H191.18c-8.29,0-15-6.72-15-15c0-8.29,6.71-15,15-15H304.5   C312.78,371.67,319.5,378.38,319.5,386.67z"/>
	<path style="fill:#F48558;" d="M304.5,401.67H247v-30h57.5c8.28,0,15,6.71,15,15C319.5,394.95,312.78,401.67,304.5,401.67z"/>
	<path style="fill:#F8A73D;" d="M381.3,440.48c0,8.28-6.72,15-15,15H140.7c-8.28,0-15-6.72-15-15c0-8.29,6.72-15,15-15h225.6   C374.58,425.48,381.3,432.19,381.3,440.48z"/>
	<path style="fill:#F48558;" d="M381.3,440.48c0,8.28-6.72,15-15,15H247v-30h119.3C374.58,425.48,381.3,432.19,381.3,440.48z"/>
	<path style="fill:#F8A73D;" d="M155.699,384.1c0-8.284-6.716-15-15-15h-30.208l20.271-111.134   c1.486-8.149-3.915-15.961-12.065-17.448c-8.146-1.483-15.961,3.915-17.448,12.065L77.751,381.409   c-1.68,9.215,5.413,17.691,14.757,17.691h48.191C148.983,399.1,155.699,392.384,155.699,384.1z"/>
</g>















</svg>
