<?xml version="1.0" encoding="utf-8"?>
<!-- Generator: Adobe Illustrator 23.0.2, SVG Export Plug-In . SVG Version: 6.00 Build 0)  -->
<svg version="1.1" id="Capa_1" xmlns="http://www.w3.org/2000/svg" xmlns:xlink="http://www.w3.org/1999/xlink" x="0px" y="0px"
	 viewBox="0 0 480 322.4" style="enable-background:new 0 0 480 322.4;" xml:space="preserve">
<style type="text/css">
	.st0{opacity:0.46;fill:#4CB9FC;}
	.st1{fill:#DCDCDA;}
	.st2{fill:#4CB9FC;}
	.st3{fill:#167EB2;}
	.st4{fill:#FFFFFF;}
	.st5{font-family:'ArialMT';}
	.st6{font-size:40.8627px;}
	.st7{fill:#C67F00;}
</style>
<path class="st0" d="M407.6,66.2c-9-33-48.2-57.3-92.2-57.3c-43.5,0-76,24.8-85.6,57.3C203,66.5,177.8,78.5,170.4,98
	c-2-0.1-4.5,0-6.6,0C126.7,98,98,124,98,155.3s28.7,57.3,65.9,57.3h230.5c47.2-1.6,85.6-36.8,85.6-76.4C480,100,449,72.3,407.6,66.2
	z"/>
<path class="st1" d="M-172.4,20.9c-11.3-41.5-60.6-72-115.9-72c-54.6,0-95.5,31.2-107.6,72c-33.6,0.4-65.2,15.4-74.5,40
	c-2.5-0.2-5.7,0-8.3,0c-46.6,0-82.8,32.7-82.8,72s36.1,72,82.8,72H-189c59.3-2,107.6-46.2,107.6-96
	C-81.4,63.3-120.4,28.5-172.4,20.9z"/>
<path class="st2" d="M309.6,168c-9-33-48.2-57.3-92.2-57.3c-43.5,0-76,24.8-85.6,57.3c-26.7,0.3-51.9,12.3-59.3,31.8
	c-2-0.1-4.5,0-6.6,0c-37.1,0-65.9,26-65.9,57.3s28.7,57.3,65.9,57.3h230.5c47.2-1.6,85.6-36.8,85.6-76.4
	C382,201.8,351,174.1,309.6,168z"/>
<path class="st3" d="M378.3,217.2c-4.8,37.8-37.2,66-75.3,65.5H39.5c-12.9,0-25.5-3.2-36.8-9.3c7.9,23.6,32.7,41.1,63.2,41.1h230.5
	c47.2-1.6,85.6-36.8,85.6-76.4C382,230.9,380.7,223.9,378.3,217.2z"/>
<text transform="matrix(1 0 0 1 135.5674 247.4701)" class="st4 st5 st6">VMware</text>
<g>
	<g>
		<g>
			<path d="M334.7,100.4c-1-1.3-2.6-1.9-4-1.9c-2,0-4,1-4.8,3.3c-1-2.2-2.3-3.3-4.5-3.3c-2.1,0-3.7,1-4.6,3.3h-0.1v-2.3
				c0-0.3-0.3-0.6-0.6-0.6h-3.2c-0.4,0-0.7,0.3-0.7,0.6v17.8c0,0.3,0.3,0.6,0.6,0.6h3.5c0.4,0,0.7-0.3,0.7-0.6v-9.4
				c0-2.1-0.1-4.9,2.4-4.9c2.5,0,2.1,2.9,2.1,4.9v9.4c0,0.3,0.3,0.6,0.6,0.6h3.5c0.4,0,0.7-0.3,0.7-0.6v-9.4c0-1,0-2.5,0.3-3.4
				c0.4-0.9,1.2-1.5,2.1-1.5c1,0,1.8,0.3,2,1.5c0.2,0.7,0.1,2.6,0.1,3.3v9.4c0,0.3,0.3,0.6,0.6,0.6h3.5c0.4,0,0.7-0.3,0.7-0.6
				l0-11.2C335.6,104.1,335.8,101.9,334.7,100.4z"/>
		</g>
	</g>
	<g>
		<g>
			<path d="M380.4,98.5c-5,0-7.8,4.3-7.8,9.8c0,5.5,2.7,9.9,7.8,9.9c4.9,0,7.9-4.3,7.9-9.7C388.3,102.9,385.5,98.5,380.4,98.5z
				 M380.4,114.6c-2.7,0-2.7-4.6-2.7-6.8c0-2.2,0.2-5.6,2.7-5.6c1.1,0,1.9,0.5,2.3,1.7c0.5,1.4,0.5,3.2,0.5,4.7
				C383.2,110.9,383.1,114.6,380.4,114.6z"/>
		</g>
	</g>
	<g>
		<g>
			<path d="M355,114.6c-0.6-0.9-1.3-1.6-1.3-3.2V106c0-2.3,0.2-4.4-1.5-6c-1.3-1.3-3.5-1.7-5.2-1.7c-3.3,0-7,1.2-7.8,5.3
				c-0.1,0.4,0.2,0.7,0.5,0.7l3.4,0.4c0.3,0,0.5-0.3,0.6-0.6c0.3-1.4,1.5-2.1,2.8-2.1c0.7,0,1.5,0.3,1.9,0.9
				c0.5,0.7,0.4,1.7,0.4,2.5l0,0.4c-2,0.2-4.6,0.4-6.5,1.2c-2.2,0.9-3.7,2.9-3.7,5.7c0,3.6,2.3,5.4,5.2,5.4c2.5,0,3.8-0.6,5.7-2.5
				c0.6,0.9,0.8,1.4,2,2.3c0.3,0.1,0.6,0.1,0.8-0.1l0,0c0.7-0.6,1.9-1.7,2.7-2.3C355.3,115.3,355.2,115,355,114.6z M348.8,109.4
				c0,1.4,0,2.5-0.7,3.7c-0.5,1-1.4,1.6-2.4,1.6c-1.3,0-2.1-1-2.1-2.5c0-3,2.6-3.5,5.2-3.5C348.8,108.7,348.8,109.4,348.8,109.4z"/>
		</g>
	</g>
	<g>
		<g>
			<path d="M404.3,100.6c-1-1.5-2.5-2.1-4.1-2.1c-2.4,0-3.8,1.2-4.7,3.6h-0.1v-2.7c-0.1-0.3-0.3-0.5-0.6-0.5h-3.2
				c-0.4,0-0.6,0.3-0.7,0.6l0,17.8c0,0.3,0.3,0.6,0.6,0.6h3.4c0.4,0,0.7-0.3,0.7-0.6v-9.6c0-1.2,0.1-2.3,0.6-3.4
				c0.4-0.9,1.2-1.4,2-1.4c2.4,0,2.2,2.8,2.2,4.8v9.7c0,0.3,0.3,0.5,0.6,0.6h3.5c0.3,0,0.6-0.3,0.7-0.6v-11.2
				C405.2,104.4,405.2,102,404.3,100.6z"/>
		</g>
	</g>
	<g>
		<g>
			<path d="M370.3,113.1c-2-1.1-4.3-1.4-6.5-1.4l5.9-8.4c0.5-0.8,0.9-1.2,0.9-1.6v-2.2c0-0.4-0.3-0.6-0.7-0.6h-11.4
				c-0.4,0-0.6,0.3-0.6,0.6v2.5c0,0.4,0.3,0.6,0.7,0.6h6l-6.8,9.8c-0.4,0.6-0.4,1.3-0.4,1.7v2.6c0,0.4,0.4,0.8,0.8,0.6
				c3.9-2.1,8.5-1.9,12,0c0.4,0.2,0.8-0.2,0.8-0.6v-2.7C370.9,113.7,370.8,113.3,370.3,113.1z"/>
		</g>
	</g>
	<g>
		<g>
			<path class="st7" d="M368.1,119.5c-0.7-0.9-6.8-1.6-10.5,1c-0.6,0.4-0.5,1,0.2,0.9c2.1-0.2,6.8-0.8,7.6,0.3
				c0.8,1.1-0.9,5.5-1.7,7.4c-0.2,0.6,0.3,0.8,0.8,0.4C367.9,126.5,368.8,120.4,368.1,119.5z"/>
		</g>
	</g>
	<g>
		<g>
			<path class="st7" d="M361.7,123.2c-7.3,3.1-15.2,4.6-22.4,4.6c-10.7,0-21-2.9-29.4-7.8c-0.7-0.4-1.3,0.3-0.7,0.9
				c7.8,7,18,11.2,29.4,11.2c8.1,0,17.6-2.6,24.1-7.4C363.7,123.9,362.8,122.7,361.7,123.2z"/>
		</g>
	</g>
	<g>
		<g>
			<path d="M309.5,114.6c-0.6-0.9-1.3-1.6-1.3-3.2V106c0-2.3,0.2-4.4-1.5-6c-1.3-1.3-3.5-1.7-5.2-1.7c-3.3,0-7,1.2-7.8,5.3
				c-0.1,0.4,0.2,0.7,0.5,0.7l3.4,0.4c0.3,0,0.5-0.3,0.6-0.6c0.3-1.4,1.5-2.1,2.8-2.1c0.7,0,1.5,0.3,1.9,0.9
				c0.5,0.7,0.4,1.7,0.4,2.5v0.4c-2,0.2-4.6,0.4-6.5,1.2c-2.2,0.9-3.7,2.8-3.7,5.7c0,3.6,2.3,5.4,5.2,5.4c2.5,0,3.8-0.6,5.7-2.5
				c0.6,0.9,0.8,1.4,2,2.3c0.3,0.1,0.6,0.1,0.8-0.1l0,0c0.7-0.6,1.9-1.7,2.7-2.3C309.8,115.3,309.8,115,309.5,114.6z M303.4,109.4
				c0,1.4,0,2.5-0.6,3.7c-0.5,1-1.4,1.6-2.4,1.6c-1.3,0-2.1-1-2.1-2.5c0-3,2.6-3.5,5.1-3.5V109.4z"/>
		</g>
	</g>
	<g>
	</g>
	<g>
	</g>
	<g>
	</g>
	<g>
	</g>
	<g>
	</g>
	<g>
	</g>
	<g>
	</g>
	<g>
	</g>
	<g>
	</g>
	<g>
	</g>
	<g>
	</g>
	<g>
	</g>
	<g>
	</g>
	<g>
	</g>
	<g>
	</g>
</g>
</svg>
