<?xml version="1.0" encoding="iso-8859-1"?>
<!-- Generator: Adobe Illustrator 19.0.0, SVG Export Plug-In . SVG Version: 6.00 Build 0)  -->
<svg version="1.1" id="Capa_1" xmlns="http://www.w3.org/2000/svg" xmlns:xlink="http://www.w3.org/1999/xlink" x="0px" y="0px"
	 viewBox="0 0 441.2 441.2" style="enable-background:new 0 0 441.2 441.2;" xml:space="preserve">
<g>
	<path style="fill:#D4E1F4;" d="M230.6,385.2h-20V283.77l20-0.02V385.2z"/>
	<path style="fill:#D4E1F4;" d="M350.6,375.2h-20c-22.081-0.025-39.975-17.919-40-40V230.99l20-0.06V335.2
		c0.013,11.04,8.96,19.987,20,20h20V375.2z"/>
	<path style="fill:#D4E1F4;" d="M110.6,375.2h-20v-20h20c11.04-0.013,19.987-8.96,20-20V231.1h20v104.1
		C150.575,357.281,132.681,375.175,110.6,375.2z"/>
</g>
<path style="fill:#00EFD1;" d="M364.78,116.47c0.593-4.896,0.934-9.819,1.02-14.75C365.811,45.553,320.287,0.011,264.12,0
	c-0.013,0-0.027,0-0.04,0c-41.19,0-76.28,24.42-92.56,59.51c-5.361-1.038-10.81-1.551-16.27-1.53c-36.11,0-66.62,24.41-76.8,57.47
	c-7.363,3.38-14.075,8.027-19.83,13.73c-26.419,26.369-26.459,69.161-0.091,95.58c12.694,12.718,29.931,19.858,47.901,19.84h21.5
	l0.33-0.085L312.6,244.6h22.17c37.311,0.051,67.599-30.155,67.65-67.466C402.455,151.393,387.859,127.869,364.78,116.47z"/>
<path style="fill:#00ACEA;" d="M308.46,163.39v50.97c-0.015,49.82-29.905,94.773-75.84,114.06l-13.56,5.86l-12.02-5.24
	c-45.126-19.668-74.302-64.214-74.3-113.44v-52.21l86.63-52.47L308.46,163.39z"/>
<g>
	<circle style="fill:#00EFD1;" cx="376.6" cy="365.2" r="30"/>
	<circle style="fill:#00EFD1;" cx="220.6" cy="411.2" r="30"/>
	<circle style="fill:#00EFD1;" cx="64.6" cy="365.2" r="30"/>
</g>
<path style="fill:#D4E1F4;" d="M269.047,197.329c-3.485-4.284-9.784-4.931-14.068-1.446l-46.986,38.228L190.9,214.105
	c-3.651-4.144-9.97-4.543-14.114-0.891c-4.056,3.574-4.537,9.725-1.086,13.886l23.43,27.43c0.107,0.126,0.226,0.235,0.338,0.354
	s0.242,0.265,0.37,0.387c0.144,0.138,0.3,0.261,0.447,0.389c0.134,0.114,0.265,0.233,0.4,0.338c0.159,0.121,0.325,0.227,0.489,0.337
	c0.141,0.094,0.278,0.194,0.423,0.281c0.174,0.1,0.355,0.193,0.534,0.285c0.143,0.075,0.283,0.156,0.429,0.222
	c0.189,0.087,0.385,0.157,0.579,0.232c0.142,0.055,0.282,0.117,0.427,0.165c0.2,0.068,0.408,0.117,0.613,0.171
	c0.143,0.037,0.282,0.084,0.426,0.115c0.216,0.047,0.435,0.074,0.654,0.107c0.136,0.02,0.271,0.05,0.407,0.065
	c0.264,0.028,0.529,0.035,0.793,0.043c0.093,0,0.184,0.015,0.277,0.015c0.284,0,0.569-0.013,0.853-0.038
	c0.046,0,0.091-0.012,0.136-0.017c0.236-0.023,0.472-0.051,0.707-0.091c0.085-0.015,0.17-0.037,0.256-0.054
	c0.193-0.039,0.385-0.077,0.576-0.127c0.106-0.027,0.21-0.063,0.315-0.095c0.168-0.05,0.337-0.1,0.5-0.157
	c0.117-0.042,0.231-0.092,0.347-0.138c0.151-0.06,0.3-0.119,0.453-0.187c0.122-0.056,0.242-0.121,0.363-0.182
	c0.139-0.07,0.277-0.138,0.413-0.216s0.245-0.149,0.366-0.225s0.258-0.159,0.384-0.247s0.236-0.173,0.353-0.262
	c0.093-0.07,0.189-0.134,0.28-0.208L267.6,211.4c4.285-3.484,4.934-9.783,1.45-14.068
	C269.049,197.331,269.048,197.33,269.047,197.329L269.047,197.329z"/>
<g>
</g>
<g>
</g>
<g>
</g>
<g>
</g>
<g>
</g>
<g>
</g>
<g>
</g>
<g>
</g>
<g>
</g>
<g>
</g>
<g>
</g>
<g>
</g>
<g>
</g>
<g>
</g>
<g>
</g>
</svg>
