<?xml version="1.0" encoding="utf-8"?>
<!-- Generator: Adobe Illustrator 23.0.2, SVG Export Plug-In . SVG Version: 6.00 Build 0)  -->
<svg version="1.1" id="Capa_1" xmlns="http://www.w3.org/2000/svg" xmlns:xlink="http://www.w3.org/1999/xlink" x="0px" y="0px"
	 viewBox="0 0 480 480" style="enable-background:new 0 0 480 480;" xml:space="preserve">
<style type="text/css">
	.st0{fill:#ABAEA7;}
	.st1{fill:#DCDCDA;}
	.st2{fill:#C9C9C0;}
	.st3{font-family:'MyriadPro-Regular';}
	.st4{font-size:53.8638px;}
</style>
<path class="st0" d="M407.6,157.6c-9-33-48.2-57.3-92.2-57.3c-43.5,0-76,24.8-85.6,57.3c-26.7,0.3-51.9,12.3-59.3,31.8
	c-2-0.1-4.5,0-6.6,0c-37.1,0-65.9,26-65.9,57.3s28.7,57.3,65.9,57.3h230.5c47.2-1.6,85.6-36.8,85.6-76.4
	C480,191.4,449,163.7,407.6,157.6z"/>
<path class="st1" d="M-172.4,112.3c-11.3-41.5-60.6-72-115.9-72c-54.6,0-95.5,31.2-107.6,72c-33.6,0.4-65.2,15.4-74.5,40
	c-2.5-0.2-5.7,0-8.3,0c-46.6,0-82.8,32.7-82.8,72s36.1,72,82.8,72H-189c59.3-2,107.6-46.2,107.6-96
	C-81.4,154.7-120.4,119.9-172.4,112.3z"/>
<path class="st2" d="M309.6,259.4c-9-33-48.2-57.3-92.2-57.3c-43.5,0-76,24.8-85.6,57.3c-26.7,0.3-51.9,12.3-59.3,31.8
	c-2-0.1-4.5,0-6.6,0c-37.1,0-65.9,26-65.9,57.3s28.7,57.3,65.9,57.3h230.5c47.2-1.6,85.6-36.8,85.6-76.4
	C382,293.2,351,265.5,309.6,259.4z"/>
<path class="st0" d="M378.3,308.6c-4.8,37.8-37.2,66-75.3,65.5H39.5c-12.9,0-25.5-3.2-36.8-9.3c7.9,23.6,32.7,41.1,63.2,41.1h230.5
	c47.2-1.6,85.6-36.8,85.6-76.4C382,322.3,380.7,315.3,378.3,308.6z"/>
<text transform="matrix(1 0 0 1 117 319)" class="st3 st4">VMware</text>
</svg>
