<?xml version="1.0" encoding="iso-8859-1"?>
<!-- Generator: Adobe Illustrator 19.0.0, SVG Export Plug-In . SVG Version: 6.00 Build 0)  -->
<svg version="1.1" id="Capa_1" xmlns="http://www.w3.org/2000/svg" xmlns:xlink="http://www.w3.org/1999/xlink" x="0px" y="0px"
	 viewBox="0 0 396.139 396.139" style="enable-background:new 0 0 396.139 396.139;" xml:space="preserve">
<path style="fill:#00ACEA;" d="M355.14,142.759c0.648-5.334,1.019-10.698,1.11-16.07c0.019-61.18-49.562-110.791-110.742-110.81
	c-0.023,0-0.045,0-0.068,0c-44.88,0-83.11,26.59-100.84,64.82c-5.842-1.128-11.78-1.684-17.73-1.66
	c-39.33,0-72.58,26.59-83.66,62.61c-8.025,3.68-15.34,8.744-21.61,14.96c-28.797,28.793-28.8,75.48-0.007,104.277
	c13.817,13.819,32.555,21.588,52.097,21.6h248.76c40.696,0.001,73.688-32.989,73.689-73.685
	C396.14,180.783,380.251,155.188,355.14,142.759z"/>
<path style="fill:#00CEB4;" d="M273.06,301.339v51.78c0,10.41-16.16,19.44-39.9,24c-11.573,2.137-23.321,3.188-35.09,3.14
	c-41.42,0-74.99-12.14-74.99-27.14v-51.78c0,15,33.57,27.14,74.99,27.14S273.06,316.339,273.06,301.339L273.06,301.339z"/>
<path style="fill:#00EFD1;" d="M123.08,282.379v-32.46c0,15,33.57,27.14,74.99,27.14s74.99-12.14,74.99-27.14v51.42
	c0,15-33.57,27.14-74.99,27.14s-74.99-12.14-74.99-27.14L123.08,282.379z"/>
<path style="fill:#00CEB4;" d="M273.06,198.499v51.42c0,15-33.57,27.14-74.99,27.14s-74.99-12.14-74.99-27.14v-51.42
	c0,14.99,33.57,27.14,74.99,27.14S273.06,213.486,273.06,198.499z"/>
<ellipse style="fill:#00EFD1;" cx="198.07" cy="198.496" rx="74.99" ry="27.14"/>
<g>
	<path style="fill:#D4E1F4;" d="M211.07,260.069h-26c-5.523,0-10-4.477-10-10s4.477-10,10-10h26c5.523,0,10,4.477,10,10
		S216.593,260.069,211.07,260.069z"/>
	<path style="fill:#D4E1F4;" d="M211.07,313.069h-26c-5.523,0-10-4.477-10-10s4.477-10,10-10h26c5.523,0,10,4.477,10,10
		S216.593,313.069,211.07,313.069z"/>
	<path style="fill:#D4E1F4;" d="M211.07,365.069h-26c-5.523,0-10-4.477-10-10s4.477-10,10-10h26c5.523,0,10,4.477,10,10
		S216.593,365.069,211.07,365.069z"/>
</g>
<g>
</g>
<g>
</g>
<g>
</g>
<g>
</g>
<g>
</g>
<g>
</g>
<g>
</g>
<g>
</g>
<g>
</g>
<g>
</g>
<g>
</g>
<g>
</g>
<g>
</g>
<g>
</g>
<g>
</g>
</svg>
