<?xml version="1.0" encoding="iso-8859-1"?>
<!-- Generator: Adobe Illustrator 19.0.0, SVG Export Plug-In . SVG Version: 6.00 Build 0)  -->
<svg version="1.1" id="Capa_1" xmlns="http://www.w3.org/2000/svg" xmlns:xlink="http://www.w3.org/1999/xlink" x="0px" y="0px"
	 viewBox="0 0 463.974 463.974" style="enable-background:new 0 0 463.974 463.974;" xml:space="preserve">
<path style="fill:#78B9EB;" d="M463.974,239.984c-0.027-48.957-34.194-91.266-82.048-101.6
	c-11.89-65.145-74.34-108.316-139.485-96.426c-36.327,6.631-67.573,29.63-84.699,62.346c-1.92-0.144-3.824-0.32-5.768-0.32
	c-48.13,0.021-88.795,35.698-95.08,83.416c-42.296,12.773-66.229,57.415-53.456,99.712c10.193,33.752,41.279,56.851,76.536,56.872
	h280C417.411,343.984,463.974,297.422,463.974,239.984z"/>
<path style="fill:#FFB655;" d="M247.974,263.984l-16-16h-96v160c0.026,8.826,7.174,15.974,16,16h8c8.826-0.026,15.974-7.174,16-16
	v-112h120v-32H247.974z"/>
<path style="fill:#FFEB99;" d="M175.974,375.984v32c-0.026,8.826-7.174,15.974-16,16h144c8.826-0.026,15.974-7.174,16-16v-112h-144
	V375.984z"/>
<g>
</g>
<g>
</g>
<g>
</g>
<g>
</g>
<g>
</g>
<g>
</g>
<g>
</g>
<g>
</g>
<g>
</g>
<g>
</g>
<g>
</g>
<g>
</g>
<g>
</g>
<g>
</g>
<g>
</g>
</svg>
