<?xml version="1.0" encoding="iso-8859-1"?>
<!-- Generator: Adobe Illustrator 19.0.0, SVG Export Plug-In . SVG Version: 6.00 Build 0)  -->
<svg version="1.1" id="Capa_1" xmlns="http://www.w3.org/2000/svg" xmlns:xlink="http://www.w3.org/1999/xlink" x="0px" y="0px"
	 viewBox="0 0 469.72 469.72" style="enable-background:new 0 0 469.72 469.72;" xml:space="preserve">
<g>
	<path style="fill:#D4E1F4;" d="M101.01,85.76h20v33.5h-20L101.01,85.76z"/>
	<path style="fill:#D4E1F4;" d="M111.01,229.7c-5.523,0-10-4.477-10-10v-28.79c0-5.523,4.477-10,10-10c5.523,0,10,4.477,10,10v28.79
		C121.01,225.223,116.533,229.7,111.01,229.7L111.01,229.7z"/>
	<path style="fill:#D4E1F4;" d="M187.49,249.64h-56.06c-5.523,0-10-4.477-10-10c0-5.523,4.477-10,10-10h56.06
		c5.523,0,10,4.477,10,10C197.49,245.163,193.013,249.64,187.49,249.64z"/>
	<path style="fill:#D4E1F4;" d="M90.94,249.64H33.92c-5.523,0-10-4.477-10-10c0-5.523,4.477-10,10-10h57.02c5.523,0,10,4.477,10,10
		C100.94,245.163,96.463,249.64,90.94,249.64z"/>
	<path style="fill:#D4E1F4;" d="M368.71,304.41l-20,1v-34.5h20V304.41z"/>
	<path style="fill:#D4E1F4;" d="M358.71,414.85c-5.523,0-10-4.477-10-10v-28.79c0-5.523,4.477-10,10-10c5.523,0,10,4.477,10,10
		v28.79C368.71,410.373,364.233,414.85,358.71,414.85z"/>
	<path style="fill:#D4E1F4;" d="M435.18,434.79h-56.06c-5.523,0-10-4.477-10-10s4.477-10,10-10h56.06c5.523,0,10,4.477,10,10
		S440.703,434.79,435.18,434.79z"/>
	<path style="fill:#D4E1F4;" d="M338.64,434.79h-57.03c-5.523,0-10-4.477-10-10s4.477-10,10-10h57.03c5.523,0,10,4.477,10,10
		S344.163,434.79,338.64,434.79z"/>
</g>
<g>
	<path style="fill:#00ACEA;" d="M458.52,327.76v22.9c0.003,13.749-11.139,24.897-24.888,24.9c-0.001,0-0.001,0-0.002,0H283.78
		c-13.749-0.002-24.892-11.149-24.89-24.898c0-0.001,0-0.001,0-0.002v-22.9c-0.003-13.744,11.136-24.887,24.88-24.89
		c0.003,0,0.007,0,0.01,0h149.85c13.744-0.003,24.887,11.136,24.89,24.88C458.52,327.753,458.52,327.757,458.52,327.76
		L458.52,327.76z"/>
	<path style="fill:#00ACEA;" d="M458.52,225.04v22.91c0.003,13.744-11.136,24.887-24.88,24.89c-0.003,0-0.007,0-0.01,0H283.78
		c-13.744,0.003-24.887-11.136-24.89-24.88c0-0.003,0-0.007,0-0.01v-22.91c0.001-13.746,11.144-24.889,24.89-24.89h149.85
		C447.376,200.151,458.519,211.294,458.52,225.04L458.52,225.04z"/>
	<circle style="fill:#00ACEA;" cx="447.76" cy="424.79" r="11.96"/>
	<circle style="fill:#00ACEA;" cx="269.65" cy="424.79" r="11.96"/>
</g>
<g>
	<path style="fill:#00EFD1;" d="M210.83,142.61v22.9c0.003,13.749-11.139,24.897-24.888,24.9c-0.001,0-0.001,0-0.002,0H36.09
		c-13.749-0.002-24.892-11.149-24.89-24.898c0-0.001,0-0.001,0-0.002v-22.9c-0.003-13.744,11.136-24.887,24.88-24.89
		c0.003,0,0.007,0,0.01,0h149.85c13.744-0.003,24.887,11.136,24.89,24.88C210.83,142.603,210.83,142.607,210.83,142.61z"/>
	<path style="fill:#00EFD1;" d="M210.83,39.89V62.8c0.003,13.744-11.136,24.887-24.88,24.89c-0.003,0-0.007,0-0.01,0H36.09
		C22.346,87.693,11.203,76.554,11.2,62.81c0-0.003,0-0.007,0-0.01V39.89C11.201,26.144,22.344,15.001,36.09,15h149.85
		C199.686,15.001,210.829,26.144,210.83,39.89z"/>
	<circle style="fill:#00EFD1;" cx="200.07" cy="239.64" r="11.96"/>
	<circle style="fill:#00EFD1;" cx="21.96" cy="239.64" r="11.96"/>
</g>
<g>
	<path style="fill:#00ACEA;" d="M139.51,70.83c-5.523,0-10-4.477-10-10V41.86c0-5.523,4.477-10,10-10s10,4.477,10,10v18.97
		C149.51,66.353,145.033,70.83,139.51,70.83z"/>
	<path style="fill:#00ACEA;" d="M179.59,70.83c-5.523,0-10-4.477-10-10V41.86c0-5.523,4.477-10,10-10s10,4.477,10,10v18.97
		C189.59,66.353,185.113,70.83,179.59,70.83z"/>
	<path style="fill:#00ACEA;" d="M139.51,173.54c-5.523,0-10-4.477-10-10v-18.96c0-5.523,4.477-10,10-10s10,4.477,10,10v18.96
		C149.51,169.063,145.033,173.54,139.51,173.54L139.51,173.54z"/>
	<path style="fill:#00ACEA;" d="M179.59,173.54c-5.523,0-10-4.477-10-10v-18.96c0-5.523,4.477-10,10-10s10,4.477,10,10v18.96
		C189.59,169.063,185.113,173.54,179.59,173.54L179.59,173.54z"/>
	<path style="fill:#00ACEA;" d="M111.01,269.57c-16.478-0.057-29.79-13.46-29.733-29.938c0.057-16.478,13.46-29.79,29.938-29.733
		s29.79,13.46,29.733,29.938c-0.027,7.877-3.168,15.424-8.738,20.994C126.582,266.44,118.956,269.583,111.01,269.57z"/>
	<path style="fill:#00ACEA;" d="M21.96,261.6C9.832,261.6,0,251.768,0,239.64s9.832-21.96,21.96-21.96s21.96,9.832,21.96,21.96l0,0
		C43.906,251.762,34.082,261.586,21.96,261.6z"/>
	<path style="fill:#00ACEA;" d="M200.07,261.6c-12.128,0-21.96-9.832-21.96-21.96c0-12.128,9.832-21.96,21.96-21.96
		s21.96,9.832,21.96,21.96C222.016,251.762,212.192,261.586,200.07,261.6L200.07,261.6z"/>
</g>
<g>
	<path style="fill:#00EFD1;" d="M387.2,255.98c-5.523,0-10-4.477-10-10v-18.96c0-5.523,4.477-10,10-10c5.523,0,10,4.477,10,10v18.96
		C397.2,251.503,392.723,255.98,387.2,255.98z"/>
	<path style="fill:#00EFD1;" d="M427.28,255.98c-5.523,0-10-4.477-10-10v-18.96c0-5.523,4.477-10,10-10c5.523,0,10,4.477,10,10
		v18.96C437.28,251.503,432.803,255.98,427.28,255.98z"/>
	<path style="fill:#00EFD1;" d="M387.2,358.69c-5.523,0-10-4.477-10-10v-18.96c0-5.523,4.477-10,10-10c5.523,0,10,4.477,10,10v18.96
		C397.2,354.213,392.723,358.69,387.2,358.69z"/>
	<path style="fill:#00EFD1;" d="M427.28,358.69c-5.523,0-10-4.477-10-10v-18.96c0-5.523,4.477-10,10-10c5.523,0,10,4.477,10,10
		v18.96C437.28,354.213,432.803,358.69,427.28,358.69z"/>
	<path style="fill:#00EFD1;" d="M358.71,454.72c-16.478-0.051-29.796-13.45-29.745-29.929c0.051-16.478,13.45-29.796,29.929-29.745
		c16.478,0.051,29.796,13.45,29.745,29.929c-0.024,7.876-3.162,15.424-8.729,20.996C374.283,451.583,366.657,454.73,358.71,454.72z"
		/>
	<path style="fill:#00EFD1;" d="M269.65,446.75c-12.128,0-21.96-9.832-21.96-21.96c0-12.128,9.832-21.96,21.96-21.96
		c12.128,0,21.96,9.832,21.96,21.96l0,0C291.596,436.912,281.772,446.736,269.65,446.75z"/>
	<path style="fill:#00EFD1;" d="M447.76,446.75c-12.128,0-21.96-9.832-21.96-21.96s9.832-21.96,21.96-21.96
		c12.128,0,21.96,9.832,21.96,21.96l0,0C469.706,436.912,459.882,446.736,447.76,446.75z"/>
</g>
<g>
	<path style="fill:#D4E1F4;" d="M437.96,109.026c-3.986-3.919-10.371-3.943-14.387-0.054l-9.711,9.4V80.56
		c0.192-31.1-24.865-56.467-55.965-56.659c-0.082-0.001-0.165-0.001-0.247-0.001h-42.76c-5.523,0.003-9.997,4.483-9.994,10.006
		c0.003,5.518,4.476,9.99,9.994,9.994h42.76c20.043,0.044,36.256,16.329,36.212,36.372c0,0.096-0.001,0.192-0.002,0.288v37.671
		L384.878,109c-3.823-3.871-10.06-3.911-13.931-0.088c-0.029,0.029-0.059,0.058-0.088,0.088c-3.889,3.921-3.863,10.253,0.058,14.142
		l26.33,26.31c3.904,3.896,10.221,3.908,14.14,0.028l26.513-26.31c3.922-3.888,3.95-10.22,0.062-14.142
		C437.961,109.027,437.961,109.027,437.96,109.026z"/>
	<path style="fill:#D4E1F4;" d="M154.83,415.9h-42.76c-20.236,0-36.21-16.5-36.21-36.74v-37.671l8.982,9.231
		c3.824,3.871,10.061,3.91,13.933,0.086c0.029-0.029,0.058-0.057,0.086-0.086c3.889-3.921,3.863-10.253-0.058-14.142l-26.33-26.31
		c-3.901-3.895-10.216-3.908-14.132-0.028l-26.517,26.31c-3.921,3.889-3.947,10.221-0.058,14.142
		c1.876,1.892,4.43,2.956,7.094,2.958c2.712,0.007,5.322-1.032,7.288-2.9l9.71-9.4v37.81c0.002,31.265,24.947,56.74,56.212,56.74
		h42.76c5.523,0,10-4.477,10-10S160.353,415.9,154.83,415.9z"/>
</g>
<g>
	<path style="fill:#00ACEA;" d="M49.12,75.3c-13.23-0.003-23.953-10.73-23.95-23.96S35.9,27.387,49.13,27.39
		s23.953,10.73,23.95,23.96C73.062,64.574,62.344,75.288,49.12,75.3z"/>
	<path style="fill:#00ACEA;" d="M49.12,178.02c-13.233,0-23.96-10.727-23.96-23.96s10.727-23.96,23.96-23.96
		s23.96,10.727,23.96,23.96l0,0C73.065,167.287,62.347,178.005,49.12,178.02z"/>
</g>
<g>
	<path style="fill:#00EFD1;" d="M296.81,260.46c-13.233,0-23.96-10.727-23.96-23.96c0-13.233,10.727-23.96,23.96-23.96
		s23.96,10.727,23.96,23.96l0,0C320.755,249.727,310.037,260.445,296.81,260.46z"/>
	<path style="fill:#00EFD1;" d="M296.81,363.17c-13.233,0-23.96-10.727-23.96-23.96c0-13.233,10.727-23.96,23.96-23.96
		c13.233,0,23.96,10.727,23.96,23.96l0,0C320.755,352.437,310.037,363.155,296.81,363.17z"/>
</g>
<g>
</g>
<g>
</g>
<g>
</g>
<g>
</g>
<g>
</g>
<g>
</g>
<g>
</g>
<g>
</g>
<g>
</g>
<g>
</g>
<g>
</g>
<g>
</g>
<g>
</g>
<g>
</g>
<g>
</g>
</svg>
