<?xml version="1.0" standalone="no"?>
<svg
  width="600"
  height="600"
  viewBox="0 0 600 600"
  xmlns="http://www.w3.org/2000/svg"
>
  <g transform="translate(300,300)">
    <path d="M122.8,-146.7C164.1,-111.6,206.2,-77.7,222.8,-32.1C239.3,13.5,230.5,70.7,204.3,119.5C178,168.3,134.3,208.7,84.3,223.4C34.2,238.1,-22.2,227.1,-71.8,205.5C-121.4,183.9,-164.2,151.7,-185.4,109.6C-206.6,67.6,-206.2,15.6,-195.3,-32.4C-184.4,-80.4,-162.9,-124.5,-128.6,-160.7C-94.3,-197,-47.1,-225.5,-3.2,-221.7C40.7,-217.8,81.4,-181.7,122.8,-146.7Z" fill="#ffd4c4" />
  </g>
</svg>
  