<svg id="Capa_1" enable-background="new 0 0 512 512" height="512" viewBox="0 0 512 512" width="512" xmlns="http://www.w3.org/2000/svg"><path d="m483.091 194.79c-5.271-19.601-13.088-38.463-23.241-56.076 11.13-11.484 11.021-29.882-.328-41.23l-45.006-45.005c-11.344-11.345-29.735-11.458-41.23-.328-17.613-10.153-36.475-17.97-56.076-23.241-.257-15.986-13.341-28.91-29.386-28.91h-63.647c-16.045 0-29.129 12.924-29.386 28.909-19.601 5.271-38.462 13.087-56.076 23.241-11.485-11.129-29.883-11.02-41.23.328l-45.007 45.005c-11.346 11.346-11.458 29.737-.328 41.23-10.153 17.613-17.971 36.475-23.241 56.076-15.985.258-28.909 13.342-28.909 29.387v63.647c0 16.045 12.924 29.129 28.909 29.386 5.271 19.601 13.088 38.463 23.241 56.076-11.13 11.484-11.021 29.882.328 41.23l45.006 45.006c11.345 11.346 29.736 11.458 41.23.328 17.613 10.153 36.475 17.971 56.076 23.241.257 15.986 13.341 28.91 29.386 28.91h63.647c16.045 0 29.129-12.924 29.386-28.909 19.602-5.271 38.463-13.088 56.075-23.241 11.485 11.129 29.884 11.021 41.231-.328l45.006-45.006c11.349-11.349 11.458-29.746.328-41.23 10.153-17.613 17.97-36.475 23.241-56.076 15.986-.257 28.91-13.341 28.91-29.386v-63.647c0-16.046-12.924-29.13-28.909-29.387z" fill="#73a3ff"/><path d="m483.091 194.79c-5.271-19.601-13.088-38.463-23.241-56.076 11.13-11.484 11.021-29.882-.328-41.23l-45.006-45.005c-11.344-11.345-29.735-11.458-41.23-.328-17.613-10.153-36.475-17.97-56.076-23.241-.257-15.986-13.341-28.91-29.386-28.91h-31.824v512h31.824c16.045 0 29.129-12.924 29.386-28.909 19.602-5.271 38.463-13.088 56.075-23.241 11.485 11.129 29.884 11.021 41.231-.328l45.006-45.006c11.349-11.349 11.458-29.746.328-41.23 10.153-17.613 17.97-36.475 23.241-56.076 15.985-.257 28.909-13.341 28.909-29.386v-63.647c0-16.046-12.924-29.13-28.909-29.387z" fill="#4b6fb3"/><path d="m341.109 227.609c-1.337-4.008-2.957-7.919-4.849-11.701.987-2.305 1.506-4.808 1.506-7.391 0-5.013-1.952-9.726-5.497-13.272l-15.514-15.514c-3.545-3.546-8.258-5.498-13.272-5.498-2.583 0-5.086.518-7.391 1.506-3.782-1.891-7.693-3.513-11.701-4.849-2.777-6.898-9.539-11.781-17.42-11.781h-21.942c-7.88 0-14.643 4.882-17.42 11.781-4.008 1.336-7.918 2.957-11.701 4.849-2.305-.987-4.808-1.506-7.391-1.506-5.014 0-9.727 1.952-13.271 5.497l-15.515 15.515c-3.545 3.545-5.497 8.258-5.497 13.271 0 2.583.518 5.086 1.506 7.391-1.892 3.782-3.513 7.693-4.849 11.701-6.898 2.777-11.781 9.539-11.781 17.42v21.942c0 7.88 4.882 14.643 11.781 17.42 1.336 4.008 2.957 7.919 4.849 11.701-.987 2.305-1.506 4.808-1.506 7.391 0 5.013 1.952 9.726 5.497 13.272l15.514 15.514c3.545 3.546 8.258 5.498 13.272 5.498 2.583 0 5.086-.518 7.391-1.506 3.783 1.892 7.693 3.513 11.701 4.849 2.777 6.898 9.539 11.781 17.42 11.781h21.942c7.88 0 14.643-4.882 17.42-11.781 4.008-1.336 7.918-2.956 11.701-4.848 2.305.987 4.808 1.506 7.391 1.506 5.014 0 9.727-1.952 13.271-5.497l15.515-15.515c3.545-3.545 5.497-8.258 5.497-13.271 0-2.583-.518-5.086-1.506-7.391 1.892-3.782 3.513-7.693 4.849-11.701 6.898-2.777 11.781-9.539 11.781-17.42v-21.942c0-7.881-4.882-14.643-11.781-17.421zm-85.109 60.364c-17.658 0-31.973-14.315-31.973-31.973s14.315-31.973 31.973-31.973 31.973 14.315 31.973 31.973-14.315 31.973-31.973 31.973z" fill="#ffb43b"/><path d="m341.109 227.609c-1.337-4.008-2.957-7.919-4.849-11.701.987-2.305 1.506-4.808 1.506-7.391 0-5.013-1.952-9.726-5.497-13.272l-15.514-15.514c-3.545-3.546-8.258-5.498-13.272-5.498-2.583 0-5.086.518-7.391 1.506-3.782-1.891-7.693-3.513-11.701-4.849-2.777-6.898-9.539-11.781-17.42-11.781h-10.971v64.917c17.658 0 31.973 14.315 31.973 31.973s-14.315 31.974-31.973 31.974v64.917h10.971c7.88 0 14.643-4.882 17.42-11.781 4.008-1.336 7.918-2.956 11.701-4.848 2.305.987 4.808 1.506 7.391 1.506 5.014 0 9.727-1.952 13.271-5.497l15.515-15.515c3.545-3.545 5.497-8.258 5.497-13.271 0-2.583-.518-5.086-1.506-7.391 1.892-3.782 3.513-7.693 4.849-11.701 6.898-2.777 11.781-9.539 11.781-17.42v-21.942c0-7.881-4.882-14.643-11.781-17.421z" fill="#ff6a00"/><path d="m256 87.405c-40.487 0-78.888 14.33-109.11 40.052-2.283-5.381-7.612-9.147-13.809-9.147-.041 0-.083 0-.124 0-8.284.067-14.945 6.837-14.878 15.121l.244 30.22c.034 4.158 1.792 8.115 4.854 10.927 2.777 2.551 6.402 3.952 10.145 3.952.384 0 .769-.015 1.155-.044l30.131-2.325c8.26-.637 14.439-7.85 13.802-16.109-.435-5.639-3.935-10.303-8.74-12.496 24.303-19.399 54.536-30.15 86.33-30.15 76.421 0 138.595 62.173 138.595 138.595 0 8.284 6.716 15 15 15s15-6.716 15-15c0-92.964-75.632-168.596-168.595-168.596z" fill="#f0f3fa"/><path d="m256 87.405v30c76.421 0 138.595 62.173 138.595 138.595 0 8.284 6.716 15 15 15s15-6.716 15-15c0-92.963-75.632-168.595-168.595-168.595z" fill="#a1ccff"/><path d="m371.349 353.051c-3.063-2.813-7.155-4.224-11.3-3.908l-30.132 2.325c-8.26.637-14.439 7.85-13.802 16.109.33 4.277 2.431 7.985 5.518 10.489-20.035 10.768-42.578 16.528-65.634 16.528-76.421 0-138.595-62.173-138.595-138.595 0-8.284-6.716-15-15-15s-15 6.716-15 15c0 92.963 75.631 168.595 168.595 168.595 32.377 0 63.928-9.337 90.914-26.614 1.638 6.519 7.523 11.339 14.53 11.339h.124c8.284-.067 14.945-6.836 14.878-15.121l-.244-30.22c-.033-4.157-1.79-8.115-4.852-10.927z" fill="#f0f3fa"/><path d="m376.202 363.978c-.034-4.157-1.791-8.115-4.854-10.927-3.063-2.813-7.155-4.224-11.3-3.908l-30.132 2.325c-8.26.637-14.439 7.85-13.802 16.109.33 4.277 2.431 7.985 5.518 10.489-20.035 10.768-42.578 16.528-65.634 16.528v30c32.377 0 63.928-9.337 90.914-26.614 1.638 6.519 7.523 11.339 14.53 11.339h.124c8.284-.067 14.945-6.836 14.878-15.121z" fill="#a1ccff"/></svg>