<svg height="502pt" viewBox="-3 0 502 502" width="502pt" xmlns="http://www.w3.org/2000/svg"><path d="m326.894531 14v474c0 5.519531-4.480469 10-10 10h-302.898437c-5.519532 0-10-4.480469-10-10v-474c0-5.519531 4.480468-10 10-10h302.898437c5.519531 0 10 4.480469 10 10zm0 0" fill="#d8d6d7"/><path d="m326.894531 14v474c0 5.519531-4.480469 10-10 10h-262.898437c-5.519532 0-10-4.480469-10-10v-474c0-5.519531 4.480468-10 10-10h262.898437c5.519531 0 10 4.480469 10 10zm0 0" fill="#fff"/><path d="m97.984375 327.402344c0 8.0625-6.535156 14.597656-14.59375 14.597656-8.0625 0-14.597656-6.535156-14.597656-14.597656 0-8.058594 6.535156-14.59375 14.597656-14.59375 8.058594 0 14.59375 6.535156 14.59375 14.59375zm0 0" fill="#f85252"/><path d="m197.136719 264.363281c0 8.058594-6.535157 14.59375-14.597657 14.59375-8.058593 0-14.59375-6.535156-14.59375-14.59375 0-8.0625 6.535157-14.597656 14.59375-14.597656 8.0625 0 14.597657 6.535156 14.597657 14.597656zm0 0" fill="#f85252"/><path d="m296.042969 214.335938c0 8.058593-6.535157 14.59375-14.597657 14.59375-8.058593 0-14.59375-6.535157-14.59375-14.59375 0-8.0625 6.535157-14.597657 14.59375-14.597657 8.0625 0 14.597657 6.535157 14.597657 14.597657zm0 0" fill="#f85252"/><path d="m371.988281 355.449219c-48.261719 0-91.207031 22.726562-118.742187 58.054687-2.402344 3.085938-2.402344 7.441406 0 10.527344 27.535156 35.324219 70.492187 58.035156 118.738281 58.035156 48.261719 0 91.210937-22.710937 118.753906-58.035156 2.40625-3.085938 2.410157-7.445312.003907-10.53125-27.53125-35.328125-70.492188-58.050781-118.753907-58.050781zm0 0" fill="#fff"/><path d="m435.316406 418.761719c0 28.617187-19.019531 52.816406-45.101562 60.636719-5.757813 1.742187-11.878906 2.660156-18.21875 2.660156-34.960938 0-63.300782-28.339844-63.300782-63.296875 0-34.960938 28.339844-63.320313 63.300782-63.320313 6.339844 0 12.460937.917969 18.21875 2.660156 26.082031 7.839844 45.101562 32.039063 45.101562 60.660157zm0 0" fill="#1c868e"/><path d="m435.316406 418.761719c0 28.617187-19.019531 52.816406-45.101562 60.636719-26.078125-7.839844-45.078125-32.019532-45.078125-60.636719 0-28.621094 19-52.820313 45.078125-60.660157 26.082031 7.839844 45.101562 32.039063 45.101562 60.660157zm0 0" fill="#40c4df"/><path d="m408.445312 390.5c0 8.007812-6.492187 14.5-14.5 14.5-8.007812 0-14.5-6.492188-14.5-14.5s6.492188-14.5 14.5-14.5c8.007813 0 14.5 6.492188 14.5 14.5zm0 0" fill="#fff"/><g fill="#491352"><path d="m300.046875 214.335938c0-10.257813-8.34375-18.597657-18.597656-18.597657-19.570313 0-25.933594 26.757813-8 35.359375l-32.074219 138.296875-46.394531-91.246093c12.648437-11.425782 4.492187-32.378907-12.4375-32.378907-10.253907 0-18.59375 8.339844-18.59375 18.59375 0 4.957031 1.957031 9.453125 5.128906 12.789063l-42.007813 71.308594-25.832031-15.871094c3.464844-11.898438-5.484375-23.78125-17.84375-23.78125-15.300781 0-24.0625 17.558594-14.828125 29.777344l-31.84375 39.921874c-2.105468 2.636719-.179687 6.496094 3.125 6.496094 3.660156 0 2.292969-1.375 34.789063-41.203125 7.523437 4.035157 16.949219 2.457031 22.75-4.1875 30.597656 18.550781 29.015625 18.390625 31.0625 18.390625 1.410156 0 2.722656-.746094 3.445312-1.972656l43.820313-74.386719c4.078125 1.621094 8.398437 1.703125 12.316406.488281 53.324219 102.980469 50.082031 102.867188 54.757812 102.867188 1.863282 0 3.476563-1.285156 3.898438-3.097656l34.546875-148.980469c10.316406.136719 18.8125-8.238281 18.8125-18.585937zm-216.652344 123.664062c-5.84375 0-10.597656-4.753906-10.597656-10.597656 0-5.839844 4.753906-10.59375 10.597656-10.59375 5.839844 0 10.59375 4.753906 10.59375 10.59375 0 5.84375-4.753906 10.597656-10.59375 10.597656zm99.148438-63.042969c-5.839844 0-10.59375-4.753906-10.59375-10.59375 0-5.84375 4.753906-10.597656 10.59375-10.597656 5.84375 0 10.597656 4.753906 10.597656 10.597656 0 5.839844-4.753906 10.59375-10.597656 10.59375zm96.460937-50.339843c-12.214844-2.910157-10.011718-20.878907 2.445313-20.878907 5.839843 0 10.59375 4.753907 10.59375 10.597657 0 6.652343-6.167969 11.878906-12.992188 10.289062-.015625-.003906-.03125-.003906-.046875-.007812zm0 0"/><path d="m49.824219 53.859375h231.25c5.289062 0 5.296875-8 0-8h-231.25c-5.289063 0-5.296875 8 0 8zm0 0"/><path d="m49.824219 84h231.25c5.289062 0 5.296875-8 0-8h-231.25c-2.207031 0-4 1.792969-4 4s1.789062 4 4 4zm0 0"/><path d="m281.074219 106.140625h-231.25c-5.289063 0-5.296875 8 0 8h231.25c2.207031 0 4-1.792969 4-4s-1.789063-4-4-4zm0 0"/><path d="m281.074219 136.277344h-231.25c-5.289063 0-5.296875 8 0 8h231.25c2.207031 0 4-1.792969 4-4 0-2.207032-1.789063-4-4-4zm0 0"/><path d="m493.902344 411.039062c-41.589844-53.359374-107.253906-69.355468-163.023438-54.078124v-342.960938c0-7.71875-6.277344-14-14-14h-302.878906c-7.71875 0-14 6.28125-14 14v474c0 7.71875 6.28125 14 14 14h302.878906c7.722656 0 14-6.28125 14-14v-7.445312c13.210938 3.617187 27.003906 5.511718 41.113282 5.511718h.003906.007812.011719c47.941406-.007812 92.367187-21.71875 121.886719-59.578125 3.542968-4.546875 3.546875-10.898437 0-15.449219zm-171.023438 76.960938c0 3.308594-2.691406 6-6 6h-302.878906c-3.308594 0-6-2.691406-6-6v-474c0-3.308594 2.691406-6 6-6h302.878906c3.308594 0 6 2.691406 6 6v345.386719c-28.429687 9.484375-53.71875 27.195312-72.78125 51.652343-3.542968 4.550782-3.542968 10.902344 0 15.449219 19.058594 24.453125 44.347656 42.15625 72.78125 51.640625zm-66.472656-66.429688c-1.285156-1.652343-1.285156-3.957031 0-5.613281 19.402344-24.890625 45.597656-42.417969 74.984375-50.835937-35.582031 27.007812-35.605469 80.25.003906 107.273437-29.390625-8.414062-55.589843-25.9375-74.988281-50.824219zm115.589844 56.496094c-32.699219-.003906-59.304688-26.609375-59.304688-59.308594 0-32.703124 26.605469-59.308593 59.304688-59.308593h.015625c32.699219.003906 59.296875 26.609375 59.296875 59.308593 0 32.695313-26.597656 59.300782-59.296875 59.308594-.003907 0-.007813 0-.015625 0zm115.59375-56.496094c-19.398438 24.878907-45.59375 42.398438-74.976563 50.816407 35.574219-27.007813 35.597657-80.234375.003907-107.261719 29.386718 8.421875 55.578124 25.945312 74.972656 50.832031 1.289062 1.652344 1.289062 3.960938 0 5.613281zm0 0"/><path d="m393.949219 372c-10.203125 0-18.5 8.296875-18.5 18.5s8.296875 18.5 18.5 18.5 18.5-8.296875 18.5-18.5-8.300781-18.5-18.5-18.5zm0 29c-5.789063 0-10.5-4.710938-10.5-10.5s4.710937-10.5 10.5-10.5c5.789062 0 10.5 4.710938 10.5 10.5s-4.710938 10.5-10.5 10.5zm0 0"/></g></svg>