<svg height="512" viewBox="0 0 64 64" width="512" xmlns="http://www.w3.org/2000/svg"><g id="Robotic_Process" data-name="Robotic Process"><path d="m57 12a2.006 2.006 0 0 0 -2 2v12h4v-12a2.006 2.006 0 0 0 -2-2z" fill="#d8d7da"/><path d="m54.77 26h-.77-6v4h6 .77.23v-4z" fill="#d8d7da"/><path d="m48 23v16l-5 2h-22l-5-2v-16z" fill="#898890"/><path d="m61 51v4h-4v-2-2z" fill="#898890"/><path d="m59 25.77a2.94 2.94 0 0 1 1 2.23 3 3 0 0 1 -3 3 3 3 0 0 1 -2.23-5 2.5 2.5 0 0 1 .23-.23 2.982 2.982 0 0 1 4 0z" fill="#bcbec0"/><path d="m47 57v-10a2.006 2.006 0 0 1 2-2h6a2.006 2.006 0 0 1 2 2v12a2.006 2.006 0 0 1 -2 2h-6a2.006 2.006 0 0 1 -2-2z" fill="#c6c5ca"/><path d="m47 53v3h-6l2-6h4z" fill="#898890"/><path d="m41.68 18.47a9.8 9.8 0 0 1 -1.09 2.62l1.43 1.91h-20.04l1.43-1.91a9.8 9.8 0 0 1 -1.09-2.62l-3.32-.47v-4l3.32-.47a9.8 9.8 0 0 1 1.09-2.62l-2.02-2.69 2.83-2.83 2.69 2.02a9.8 9.8 0 0 1 2.62-1.09l.47-3.32h4l.47 3.32a9.8 9.8 0 0 1 2.62 1.09l2.69-2.02 2.83 2.83-2.02 2.69a9.8 9.8 0 0 1 1.09 2.62l3.32.47v4z" fill="#ff9811"/><path d="m43 41v9l-3 9h-16l-3-9v-9z" fill="#acabb1"/><circle cx="32" cy="16" fill="#ff5023" r="5"/><circle cx="32" cy="50" fill="#d1d3d4" r="5"/><path d="m34.14 28h-4.28-8.86v8h22v-8z" fill="#e6e7e8"/><path d="m21 50 2 6h-6v-3-3z" fill="#898890"/><path d="m17 57v2a2.006 2.006 0 0 1 -2 2h-6a2.006 2.006 0 0 1 -2-2v-12a2.006 2.006 0 0 1 2-2h6a2.006 2.006 0 0 1 2 2z" fill="#c6c5ca"/><path d="m16 26v4h-7v-4z" fill="#d8d7da"/><path d="m9 14v12h-4v-12a2 2 0 0 1 4 0z" fill="#d8d7da"/><path d="m7 53v2h-4v-4h4z" fill="#898890"/><path d="m9.23 26a3 3 0 0 1 -2.23 5 3 3 0 0 1 -3-3 3 3 0 0 1 5-2.23 2.5 2.5 0 0 1 .23.23z" fill="#bcbec0"/><path d="m21 41h22v2h-22z" fill="#9c9ba1"/><g fill="#acabb1"><path d="m47 48h3v2h-3z"/><path d="m54 48h3v2h-3z"/><path d="m47 52h3v2h-3z"/><path d="m47 56h3v2h-3z"/><path d="m54 56h3v2h-3z"/><path d="m54 52h3v2h-3z"/><path d="m14 48h3v2h-3z"/><path d="m7 48h3v2h-3z"/><path d="m14 52h3v2h-3z"/><path d="m14 56h3v2h-3z"/><path d="m7 56h3v2h-3z"/><path d="m7 52h3v2h-3z"/></g><path d="m32 56a6 6 0 1 1 6-6 6.006 6.006 0 0 1 -6 6zm0-10a4 4 0 1 0 4 4 4 4 0 0 0 -4-4z" fill="#e6e7e8"/><path d="m57 13a5.006 5.006 0 0 1 -5-5h2a3 3 0 0 0 6 0h2a5.006 5.006 0 0 1 -5 5z" fill="#bcbec0"/><path d="m7 13a5.006 5.006 0 0 1 -5-5h2a3 3 0 0 0 6 0h2a5.006 5.006 0 0 1 -5 5z" fill="#bcbec0"/><path d="m31 31h2v2h-2z" fill="#bcbec0"/><path d="m35 31h2v2h-2z" fill="#bcbec0"/><path d="m27 31h2v2h-2z" fill="#bcbec0"/><path d="m32 22a6 6 0 1 1 6-6 6.006 6.006 0 0 1 -6 6zm0-10a4 4 0 1 0 4 4 4 4 0 0 0 -4-4z" fill="#ee8700"/><path d="m31 6h2v2h-2z" fill="#cc7400"/><path d="m24.636 8.636h2v2h-2z" fill="#cc7400" transform="matrix(.707 -.707 .707 .707 .693 20.945)"/><path d="m22 15h2v2h-2z" fill="#cc7400"/><path d="m40 15h2v2h-2z" fill="#cc7400"/><path d="m37.364 8.636h2v2h-2z" fill="#cc7400" transform="matrix(.707 -.707 .707 .707 4.423 29.95)"/></g></svg>