<?xml version="1.0" encoding="iso-8859-1"?>
<!-- Generator: Adobe Illustrator 19.0.0, SVG Export Plug-In . SVG Version: 6.00 Build 0)  -->
<svg version="1.1" id="Capa_1" xmlns="http://www.w3.org/2000/svg" xmlns:xlink="http://www.w3.org/1999/xlink" x="0px" y="0px"
	 viewBox="0 0 468.293 468.293" style="enable-background:new 0 0 468.293 468.293;" xml:space="preserve">
<path style="fill:#EBF0F3;" d="M424.381,173.41L241.829,3.028c-4.326-4.038-11.039-4.038-15.365,0L43.911,173.41
	c-7.471,6.973-2.537,19.491,7.683,19.491l365.105,0C426.918,192.902,431.852,180.383,424.381,173.41z"/>
<circle style="fill:#64798A;" cx="234.146" cy="111.966" r="61.865"/>
<path style="fill:#E1E6E9;" d="M286.944,111.972c0,29.151-23.64,52.791-52.791,52.791c-16.283,0-30.85-7.374-40.517-18.955
	l76.745-72.241C280.577,83.184,286.944,96.827,286.944,111.972z"/>
<path style="fill:#EBF0F3;" d="M270.381,73.566l-76.745,72.241c-7.671-9.156-12.274-20.951-12.274-33.836
	c0-29.167,23.624-52.791,52.791-52.791C248.159,59.181,260.912,64.641,270.381,73.566z"/>
<path style="fill:#64798A;" d="M245.011,111.965c3.721-2.831,5.901-7.174,5.901-11.896c0-8.265-6.724-14.989-14.989-14.989h-1.685
	v-6.186h-3.093v6.186h-3.609v-6.186h-3.093v6.186h-3.093h-3.969v6.186h3.969v17.605h-3.969v6.186h3.969v17.605h-3.969v6.186h3.969
	h3.093v6.186h3.093v-6.186h3.609v6.186h3.093v-6.186h1.685c8.265,0,14.989-6.724,14.989-14.989
	C250.912,119.14,248.732,114.797,245.011,111.965z M235.923,132.664h-8.387v-17.605h8.387c4.853,0,8.802,3.949,8.802,8.802
	C244.725,128.714,240.776,132.664,235.923,132.664z M235.923,108.872h-8.387V91.267h8.387c4.853,0,8.802,3.949,8.802,8.802
	C244.725,104.923,240.776,108.872,235.923,108.872z"/>
<rect x="90.462" y="192.899" style="fill:#D5D6DB;" width="51.687" height="214.846"/>
<g>
	<path style="fill:#EBF0F3;" d="M149.258,212.097H83.353c-3.448,0-6.244-2.796-6.244-6.244v-12.952h78.392v12.952
		C155.502,209.302,152.706,212.097,149.258,212.097z"/>
	<path style="fill:#EBF0F3;" d="M155.502,426.941H77.11v-12.952c0-3.448,2.795-6.244,6.244-6.244h65.904
		c3.448,0,6.244,2.795,6.244,6.244V426.941z"/>
</g>
<rect x="208.303" y="192.899" style="fill:#D5D6DB;" width="51.687" height="214.846"/>
<g>
	<path style="fill:#EBF0F3;" d="M267.099,212.097h-65.904c-3.448,0-6.244-2.796-6.244-6.244v-12.952h78.392v12.952
		C273.342,209.302,270.547,212.097,267.099,212.097z"/>
	<path style="fill:#EBF0F3;" d="M273.342,426.941H194.95v-12.952c0-3.448,2.795-6.244,6.244-6.244h65.904
		c3.448,0,6.244,2.795,6.244,6.244V426.941z"/>
</g>
<rect x="326.144" y="192.899" style="fill:#D5D6DB;" width="51.687" height="214.846"/>
<g>
	<path style="fill:#EBF0F3;" d="M384.939,212.097h-65.904c-3.448,0-6.244-2.796-6.244-6.244v-12.952h78.392v12.952
		C391.183,209.302,388.388,212.097,384.939,212.097z"/>
	<path style="fill:#EBF0F3;" d="M391.183,426.941h-78.392v-12.952c0-3.448,2.795-6.244,6.244-6.244h65.904
		c3.448,0,6.244,2.795,6.244,6.244V426.941z"/>
</g>
<path style="fill:#D5D6DB;" d="M427.981,468.293H40.312v-19.601c0-3.448,2.795-6.244,6.244-6.244h375.182
	c3.448,0,6.244,2.796,6.244,6.244V468.293z"/>
<path style="fill:#E1E6E9;" d="M415.059,442.448H53.234v-9.263c0-3.448,2.795-6.244,6.244-6.244h349.337
	c3.448,0,6.244,2.796,6.244,6.244V442.448z"/>
<g>
</g>
<g>
</g>
<g>
</g>
<g>
</g>
<g>
</g>
<g>
</g>
<g>
</g>
<g>
</g>
<g>
</g>
<g>
</g>
<g>
</g>
<g>
</g>
<g>
</g>
<g>
</g>
<g>
</g>
</svg>
