<?xml version="1.0" encoding="iso-8859-1"?>
<!-- Generator: Adobe Illustrator 19.0.0, SVG Export Plug-In . SVG Version: 6.00 Build 0)  -->
<svg version="1.1" id="Capa_1" xmlns="http://www.w3.org/2000/svg" xmlns:xlink="http://www.w3.org/1999/xlink" x="0px" y="0px"
	 viewBox="0 0 468.293 468.293" style="enable-background:new 0 0 468.293 468.293;" xml:space="preserve">
<circle style="fill:#64798A;" cx="234.146" cy="234.146" r="137.366"/>
<circle style="fill:#D5D6DB;" cx="234.146" cy="234.146" r="115.125"/>
<circle style="fill:#EBF0F3;" cx="234.146" cy="234.146" r="102.706"/>
<path style="fill:#E1E6E9;" d="M131.44,234.146c0,56.723,45.983,102.706,102.706,102.706V131.44
	C177.423,131.44,131.44,177.423,131.44,234.146z"/>
<path style="fill:#E56353;" d="M255.285,234.146c7.238-5.509,11.48-13.958,11.48-23.143c0-16.079-13.082-29.161-29.161-29.161
	h-3.278v-12.036h-6.018v12.036h-7.021v-12.036h-6.018v12.036h-6.018h-7.721v12.036h7.721v34.251h-7.721v12.036h7.721v34.25h-7.721
	v12.036h7.721h6.018v12.036h6.018v-12.036h7.021v12.036h6.018v-12.036h3.278c16.079,0,29.161-13.082,29.161-29.161
	C266.764,248.104,262.523,239.655,255.285,234.146z M237.603,274.415h-16.317v-34.25h16.317c9.442,0,17.125,7.683,17.125,17.125
	S247.045,274.415,237.603,274.415z M237.603,228.128h-16.317v-34.251h16.317c9.442,0,17.125,7.683,17.125,17.125
	C254.728,220.445,247.045,228.128,237.603,228.128z"/>
<g>
	<polygon style="fill:#E1E6E9;" points="468.293,51.233 401.501,0 414.86,31.834 334.71,31.834 334.71,70.632 414.86,70.632 
		401.501,102.466 	"/>
	<rect x="311.196" y="31.831" style="fill:#E1E6E9;" width="11.014" height="38.8"/>
	<rect x="146.07" y="397.674" style="fill:#E1E6E9;" width="11.014" height="38.8"/>
	<polygon style="fill:#E1E6E9;" points="0,417.06 66.791,365.827 53.433,397.661 133.583,397.661 133.583,436.459 53.433,436.459 
		66.791,468.293 	"/>
</g>
<g>
</g>
<g>
</g>
<g>
</g>
<g>
</g>
<g>
</g>
<g>
</g>
<g>
</g>
<g>
</g>
<g>
</g>
<g>
</g>
<g>
</g>
<g>
</g>
<g>
</g>
<g>
</g>
<g>
</g>
</svg>
