<?xml version="1.0" encoding="iso-8859-1"?>
<!-- Generator: Adobe Illustrator 22.1.0, SVG Export Plug-In . SVG Version: 6.00 Build 0)  -->
<svg xmlns="http://www.w3.org/2000/svg" xmlns:xlink="http://www.w3.org/1999/xlink" version="1.1" id="Layer_3" x="0px" y="0px" viewBox="0 0 64 64" style="enable-background:new 0 0 64 64;" xml:space="preserve" width="512" height="512">
<g>
	<path style="fill:#9D8980;" d="M33,57c-0.64-0.64-1-1.509-1-2.414V44c0-6.848-4.92-12.538-11.416-13.752L24,20H12l3.416,10.248   C8.92,31.462,4,37.152,4,44v10.586C4,55.491,3.64,56.36,3,57c-0.64,0.64-1,1.509-1,2.414V62h32v-2.586C34,58.509,33.64,57.64,33,57   z"/>
	<path style="fill:#B9ABA5;" d="M7,59c12.15,0,22-9.85,22-22c0-0.584-0.03-1.16-0.074-1.732c-2.054-2.562-4.983-4.392-8.342-5.02   l2.686-8.057c-0.715-0.785-1.485-1.517-2.306-2.192H12l3.416,10.248C8.92,31.462,4,37.152,4,44v10.586C4,55.491,3.64,56.36,3,57   c-0.408,0.408-0.687,0.914-0.846,1.458C3.714,58.809,5.334,59,7,59z"/>
	<circle style="fill:#F7CA6A;" cx="47" cy="17" r="15"/>
	<circle style="fill:#EBB652;" cx="43" cy="21" r="15"/>
	<circle style="fill:#F7CA6A;" cx="43" cy="21" r="11"/>
	<g>
		<rect x="11" y="26" style="fill:#9D8980;" width="14" height="2"/>
	</g>
	<path style="fill:#657B88;" d="M50,18c0-2.206-1.794-4-4-4v-2h-2v2h-1v-2h-2v2h-4v2h2v4v2v4h-2v2h4v2h2v-2h1v2h2v-2   c2.206,0,4-1.794,4-4c0-1.2-0.542-2.266-1.382-3C49.458,20.266,50,19.2,50,18z M48,24c0,1.103-0.897,2-2,2h-5v-4h5   C47.103,22,48,22.897,48,24z M41,20v-4h5c1.103,0,2,0.897,2,2s-0.897,2-2,2H41z"/>
	<path style="fill:#657B88;" d="M24,44c0-2.206-1.794-4-4-4v-2h-2v2h-1v-2h-2v2h-4v2h2v4v2v4h-2v2h4v2h2v-2h1v2h2v-2   c2.206,0,4-1.794,4-4c0-1.2-0.542-2.266-1.382-3C23.458,46.266,24,45.2,24,44z M22,50c0,1.103-0.897,2-2,2h-5v-4h5   C21.103,48,22,48.897,22,50z M15,46v-4h5c1.103,0,2,0.897,2,2s-0.897,2-2,2H15z"/>
	<path style="fill:#657B88;" d="M18,33v2c4.962,0,9,4.038,9,9h2C29,37.935,24.065,33,18,33z"/>
	<rect x="27" y="46" style="fill:#657B88;" width="2" height="2"/>
</g>
</svg>
