<?xml version="1.0" encoding="iso-8859-1"?>
<!-- Generator: Adobe Illustrator 19.0.0, SVG Export Plug-In . SVG Version: 6.00 Build 0)  -->
<svg version="1.1" id="Capa_1" xmlns="http://www.w3.org/2000/svg" xmlns:xlink="http://www.w3.org/1999/xlink" x="0px" y="0px"
	 viewBox="0 0 468.293 468.293" style="enable-background:new 0 0 468.293 468.293;" xml:space="preserve">
<path style="fill:#64798A;" d="M0,349.94V52.964c0-6.897,5.591-12.488,12.488-12.488h443.317c6.897,0,12.488,5.591,12.488,12.488
	V349.94c0,6.897-5.591,12.488-12.488,12.488H12.488C5.591,362.428,0,356.837,0,349.94z"/>
<rect x="18.295" y="59.442" style="fill:#EBF0F3;" width="431.703" height="283.973"/>
<circle style="fill:#F6C358;" cx="234.146" cy="201.453" r="112.39"/>
<circle style="fill:#FCD462;" cx="234.146" cy="201.453" r="95.906"/>
<path style="fill:#F6C358;" d="M234.197,285.369c-5.541,0-11.008-0.531-16.324-1.578l1.245-6.332
	c4.915,0.966,9.971,1.456,15.029,1.456l0.077,5.834l-0.002,0.619C234.213,285.369,234.205,285.369,234.197,285.369z M250.593,283.76
	l-1.261-6.332c4.968-0.988,9.852-2.473,14.518-4.411l2.477,5.96C261.271,281.079,255.975,282.688,250.593,283.76z M202.127,279.045
	c-5.065-2.093-9.946-4.698-14.507-7.744l3.584-5.368c4.211,2.81,8.715,5.215,13.388,7.146L202.127,279.045z M280.819,271.204
	l-3.593-5.362c4.198-2.815,8.143-6.058,11.724-9.643l4.567,4.561C289.64,264.643,285.367,268.156,280.819,271.204z M174.9,260.885
	c-3.882-3.869-7.399-8.137-10.457-12.684l5.358-3.603c2.823,4.2,6.072,8.142,9.656,11.716L174.9,260.885z M303.947,248.053
	l-5.365-3.59c2.816-4.211,5.226-8.714,7.16-13.382l5.964,2.471C309.609,238.61,306.999,243.489,303.947,248.053z M156.655,233.716
	c-2.11-5.062-3.724-10.356-4.797-15.731l6.329-1.264c0.991,4.96,2.479,9.842,4.425,14.512L156.655,233.716z M316.469,217.813
	l-6.332-1.251c0.977-4.945,1.472-10.03,1.472-15.109v-0.339h6.455v0.339C318.064,206.951,317.529,212.456,316.469,217.813z
	 M150.228,201.623v-0.17c0-5.445,0.525-10.892,1.56-16.187l6.335,1.239c-0.955,4.889-1.44,9.918-1.44,14.948L150.228,201.623z
	 M310.074,186.024c-1.002-4.956-2.501-9.834-4.458-14.501l5.954-2.496c2.121,5.057,3.746,10.346,4.83,15.72L310.074,186.024z
	 M162.489,171.974l-5.97-2.459c2.085-5.065,4.685-9.949,7.727-14.516l5.374,3.577C166.812,162.792,164.414,167.3,162.489,171.974z
	 M298.401,158.17c-2.829-4.189-6.085-8.123-9.681-11.694l4.548-4.58c3.893,3.864,7.42,8.126,10.482,12.661L298.401,158.17z
	 M179.228,146.821l-4.577-4.551c3.867-3.888,8.132-7.41,12.676-10.471l3.606,5.355C186.738,139.978,182.799,143.231,179.228,146.821
	z M276.953,136.882c-4.222-2.805-8.733-5.199-13.405-7.117l2.452-5.973c5.064,2.08,9.951,4.674,14.524,7.713L276.953,136.882z
	 M204.291,129.952l-2.49-5.957c5.057-2.113,10.348-3.732,15.724-4.813l1.273,6.329C213.837,126.507,208.956,128.001,204.291,129.952
	z M249.014,125.415c-4.867-0.946-9.869-1.425-14.868-1.425l-0.178-4.501l0.118-1.954c5.35,0.024,10.888,0.518,16.16,1.544
	L249.014,125.415z"/>
<path style="fill:#DC8744;" d="M253.885,201.452c6.759-5.144,10.72-13.034,10.72-21.611c0-15.015-12.216-27.23-27.23-27.23h-3.061
	v-11.239h-5.62v11.239h-6.556v-11.239h-5.62v11.239h-5.62h-7.21v11.239h7.21v31.983h-7.21v11.239h7.21v31.983h-7.21v11.239h7.21
	h5.62v11.239h5.62v-11.239h6.556v11.239h5.62v-11.239h3.061c15.015,0,27.23-12.216,27.23-27.23
	C264.605,214.486,260.644,206.596,253.885,201.452z M237.374,239.054h-15.237v-31.983h15.237c8.817,0,15.991,7.174,15.991,15.991
	C253.366,231.88,246.191,239.054,237.374,239.054z M237.374,195.832h-15.237V163.85h15.237c8.817,0,15.991,7.174,15.991,15.991
	C253.366,188.658,246.191,195.832,237.374,195.832z"/>
<path style="fill:#3A556A;" d="M330.507,415.865l-18.394-15.514c-6.478-5.463-10.215-13.505-10.215-21.979v-15.944H166.395v15.944
	c0,8.474-3.737,16.516-10.215,21.979l-18.394,15.514c-4.828,4.072-1.948,11.952,4.367,11.952H326.14
	C332.455,427.816,335.335,419.936,330.507,415.865z"/>
<g>
</g>
<g>
</g>
<g>
</g>
<g>
</g>
<g>
</g>
<g>
</g>
<g>
</g>
<g>
</g>
<g>
</g>
<g>
</g>
<g>
</g>
<g>
</g>
<g>
</g>
<g>
</g>
<g>
</g>
</svg>
