<?xml version="1.0" encoding="iso-8859-1"?>
<!-- Generator: Adobe Illustrator 19.0.0, SVG Export Plug-In . SVG Version: 6.00 Build 0)  -->
<svg version="1.1" id="Capa_1" xmlns="http://www.w3.org/2000/svg" xmlns:xlink="http://www.w3.org/1999/xlink" x="0px" y="0px"
	 viewBox="0 0 468.324 468.324" style="enable-background:new 0 0 468.324 468.324;" xml:space="preserve">
<path style="fill:#E56353;" d="M216.193,468.324H54.44c-3.448,0-6.244-2.795-6.244-6.244v-65.552c0-3.448,2.795-6.244,6.244-6.244
	h161.753c3.448,0,6.244,2.795,6.244,6.244v65.552C222.437,465.528,219.641,468.324,216.193,468.324z"/>
<path style="fill:#FCD462;" d="M246.917,256.528c11.676,11.675,11.801,30.72,0.312,42.583l-35.062,35.622
	c-5.755,4.687-9.096,11.715-9.096,19.138l-3.608,36.402H71.151V288.184l0.437,0.125c0.937-7.243,4.059-14.299,9.553-19.918
	L196.154,151.63c13.487-13.736,35.528-13.861,49.202-0.375c13.737,13.487,13.924,35.528,0.375,49.203L140.882,306.983
	c-2.346,2.383-1.989,6.303,0.749,8.223h0c2.169,1.521,5.12,1.248,6.972-0.645l56.48-57.72
	C216.572,244.976,235.303,244.851,246.917,256.528z"/>
<circle style="fill:#64798A;" cx="259.941" cy="160.187" r="160.187"/>
<path style="fill:#E1E6E9;" d="M396.636,160.233c0,75.479-61.212,136.691-136.691,136.691c-42.161,0-79.879-19.094-104.911-49.081
	L353.749,60.79C380.148,85.694,396.636,121.02,396.636,160.233z"/>
<path style="fill:#EBF0F3;" d="M353.749,60.79L155.034,247.844c-19.863-23.707-31.781-54.249-31.781-87.61
	c0-75.522,61.169-136.691,136.691-136.691C296.211,23.542,329.23,37.681,353.749,60.79z"/>
<path style="fill:#64798A;" d="M288.059,160.216c9.634-7.331,15.278-18.576,15.278-30.801c0-21.4-17.411-38.81-38.81-38.81h-4.363
	V74.586h-8.009v16.019h-9.344V74.586h-8.009v16.019h-8.009h-10.276v16.019h10.276v45.584h-10.276v16.019h10.276v45.584h-10.276
	v16.019h10.276h8.009v16.019h8.009v-16.019h9.344v16.019h8.009v-16.019h4.363c21.4,0,38.81-17.411,38.81-38.81
	C303.337,178.792,297.693,167.548,288.059,160.216z M264.527,213.81H242.81v-45.584h21.717c12.567,0,22.792,10.225,22.792,22.792
	C287.319,203.584,277.093,213.81,264.527,213.81z M264.527,152.207H242.81v-45.584h21.717c12.567,0,22.792,10.225,22.792,22.792
	S277.093,152.207,264.527,152.207z"/>
<circle style="fill:#E1E6E9;" cx="180.437" cy="429.299" r="22.634"/>
<path style="fill:#FCD462;" d="M246.934,256.507c-11.649-11.676-30.391-11.535-41.861,0.33l-55.157,56.346
	c-2.178,2.225-1.43,5.946,1.44,7.156l51.728,21.809l44.174-43.032C258.724,287.258,258.579,268.184,246.934,256.507z"/>
<g>
</g>
<g>
</g>
<g>
</g>
<g>
</g>
<g>
</g>
<g>
</g>
<g>
</g>
<g>
</g>
<g>
</g>
<g>
</g>
<g>
</g>
<g>
</g>
<g>
</g>
<g>
</g>
<g>
</g>
</svg>
