<?xml version="1.0" encoding="iso-8859-1"?>
<!-- Generator: Adobe Illustrator 19.0.0, SVG Export Plug-In . SVG Version: 6.00 Build 0)  -->
<svg version="1.1" id="Capa_1" xmlns="http://www.w3.org/2000/svg" xmlns:xlink="http://www.w3.org/1999/xlink" x="0px" y="0px"
	 viewBox="0 0 468.293 468.293" style="enable-background:new 0 0 468.293 468.293;" xml:space="preserve">
<path style="fill:#64798A;" d="M234.146,0L57.889,74.038v207.309c0,0-0.898,109.324,176.257,186.945
	c177.155-77.621,176.257-186.945,176.257-186.945V74.038L234.146,0z"/>
<path style="fill:#E1E6E9;" d="M385.411,90.606v190.752c-0.063,3.621-3.434,91.036-151.29,159.532V27.105L385.411,90.606z"/>
<path style="fill:#EBF0F3;" d="M234.121,27.105v413.784C86.39,372.33,82.832,282.481,82.894,281.544V90.606L234.121,27.105z"/>
<circle style="fill:#27A2DB;" cx="234.146" cy="218.936" r="112.39"/>
<path style="fill:#1C75A1;" d="M330.066,218.945c0,52.958-42.948,95.906-95.906,95.906c-29.581,0-56.045-13.397-73.608-34.437
	l139.424-131.242C318.498,166.646,330.066,191.432,330.066,218.945z"/>
<path style="fill:#2D93BA;" d="M299.976,149.173L160.552,280.415c-13.936-16.634-22.298-38.063-22.298-61.47
	c0-52.988,42.918-95.906,95.906-95.906C259.605,123.039,282.772,132.959,299.976,149.173z"/>
<path style="fill:#E1E6E9;" d="M253.886,218.934c6.759-5.144,10.72-13.034,10.72-21.611c0-15.015-12.216-27.23-27.23-27.23h-3.061
	v-11.239h-5.62v11.239h-6.556v-11.239h-5.62v11.239h-5.62h-7.21v11.239h7.21v31.983h-7.21v11.239h7.21v31.983h-7.21v11.239h7.21
	h5.62v11.239h5.62v-11.239h6.556v11.239h5.62v-11.239h3.061c15.015,0,27.23-12.216,27.23-27.23
	C264.605,231.967,260.645,224.077,253.886,218.934z M237.375,256.536h-15.237v-31.983h15.237c8.817,0,15.991,7.174,15.991,15.991
	S246.192,256.536,237.375,256.536z M237.375,213.314h-15.237v-31.983h15.237c8.817,0,15.991,7.174,15.991,15.991
	S246.192,213.314,237.375,213.314z"/>
<g>
</g>
<g>
</g>
<g>
</g>
<g>
</g>
<g>
</g>
<g>
</g>
<g>
</g>
<g>
</g>
<g>
</g>
<g>
</g>
<g>
</g>
<g>
</g>
<g>
</g>
<g>
</g>
<g>
</g>
</svg>
