<?xml version="1.0" encoding="iso-8859-1"?>
<!-- Generator: Adobe Illustrator 19.0.0, SVG Export Plug-In . SVG Version: 6.00 Build 0)  -->
<svg version="1.1" id="Capa_1" xmlns="http://www.w3.org/2000/svg" xmlns:xlink="http://www.w3.org/1999/xlink" x="0px" y="0px"
	 viewBox="0 0 468.293 468.293" style="enable-background:new 0 0 468.293 468.293;" xml:space="preserve">
<path style="fill:#E1E6E9;" d="M414.71,115.931l23.748-7.728h18.827c6.079,0,11.008-4.928,11.008-11.008v0
	c0-6.079-4.928-11.008-11.008-11.008h-18.827l-23.748-7.721h-24.884V53.583l-7.728-23.747V11.008C382.098,4.928,377.17,0,371.091,0
	h0c-6.079,0-11.008,4.928-11.008,11.008v18.828l-7.72,23.747v24.885h-53.835V53.583L290.8,29.835V11.008
	C290.8,4.928,285.872,0,279.793,0h0c-6.079,0-11.008,4.928-11.008,11.008v18.828l-7.721,23.747v24.885H207.23V53.583l-7.727-23.747
	V11.008C199.503,4.928,194.575,0,188.495,0h0c-6.079,0-11.008,4.928-11.008,11.008v18.828l-7.721,23.747v24.885h-53.835V53.583
	l-7.727-23.747V11.008C108.204,4.928,103.276,0,97.197,0h0c-6.079,0-11.008,4.928-11.008,11.008v18.828l-7.721,23.747v24.885H53.583
	l-23.748,7.721H11.008c-6.079,0-11.008,4.928-11.008,11.008v0c0,6.079,4.928,11.008,11.008,11.008h18.827l23.748,7.728h24.885
	v53.835H53.583l-23.748,7.721H11.008c-6.079,0-11.008,4.928-11.008,11.008v0c0,6.079,4.928,11.008,11.008,11.008h18.827
	l23.748,7.728h24.885v53.834H53.583l-23.748,7.721H11.008C4.928,268.785,0,273.713,0,279.792v0c0,6.079,4.928,11.008,11.008,11.008
	h18.828l23.748,7.727h24.885v53.835H53.583l-23.748,7.721l-18.828,0C4.928,360.082,0,365.011,0,371.09v0
	c0,6.079,4.928,11.008,11.008,11.008h18.828l23.748,7.728h24.885v24.885l7.721,23.747v18.828c0,6.079,4.928,11.008,11.008,11.008h0
	c6.079,0,11.008-4.928,11.008-11.008v-18.828l7.727-23.747v-24.885h53.835v24.885l7.721,23.747v18.828
	c0,6.079,4.928,11.008,11.008,11.008h0c6.079,0,11.008-4.928,11.008-11.008v-18.828l7.727-23.747v-24.885h53.834v24.885
	l7.721,23.747v18.828c0,6.079,4.928,11.008,11.008,11.008h0c6.079,0,11.008-4.928,11.008-11.008v-18.828l7.727-23.747v-24.885
	h53.835v24.885l7.72,23.747v18.828c0,6.079,4.928,11.008,11.008,11.008h0c6.079,0,11.008-4.928,11.008-11.008v-18.828l7.728-23.747
	v-24.885h24.884l23.747-7.727h18.828c6.079,0,11.008-4.928,11.008-11.008v0c0-6.079-4.928-11.008-11.008-11.008h-18.828
	l-23.747-7.721h-24.884v-53.835h24.884l23.747-7.727h18.828c6.079,0,11.008-4.928,11.008-11.008v0
	c0-6.079-4.928-11.008-11.008-11.008h-18.828l-23.747-7.721h-24.884v-53.834h24.884l23.747-7.728h18.828
	c6.079,0,11.008-4.928,11.008-11.008v0c0-6.079-4.928-11.008-11.008-11.008h-18.828l-23.747-7.721h-24.884v-53.835H414.71z
	 M261.064,115.931v53.835H207.23v-53.835H261.064z M261.064,207.229v53.834H207.23v-53.834H261.064z M115.931,115.931h53.835v53.835
	h-53.835V115.931z M115.931,207.229h53.835v53.834h-53.835V207.229z M115.931,352.362v-53.835h53.835v53.835H115.931z
	 M207.23,352.362v-53.835h53.834v53.835H207.23z M352.363,352.362h-53.835v-53.835h53.835V352.362z M352.363,261.064h-53.835
	v-53.834h53.835V261.064z M352.363,169.766h-53.835v-53.835h53.835V169.766z"/>
<path style="fill:#64798A;" d="M402.732,421.463H65.561c-10.345,0-18.732-8.387-18.732-18.732V65.561
	c0-10.345,8.386-18.732,18.732-18.732h337.171c10.345,0,18.732,8.386,18.732,18.732v337.171
	C421.463,413.077,413.077,421.463,402.732,421.463z"/>
<rect x="71.805" y="71.805" style="fill:#FFFFFF;" width="324.683" height="324.683"/>
<circle style="fill:#FCD462;" cx="234.146" cy="234.146" r="131.122"/>
<circle style="fill:#DC8744;" cx="234.146" cy="234.146" r="117.741"/>
<circle style="fill:#FCD462;" cx="234.146" cy="234.146" r="105.041"/>
<path style="fill:#F6C358;" d="M129.104,234.146c0,58.012,47.028,105.04,105.04,105.04V129.105
	C176.132,129.105,129.104,176.133,129.104,234.146z"/>
<path style="fill:#E56353;" d="M255.763,234.146c7.403-5.634,11.74-14.275,11.74-23.669c0-16.445-13.379-29.824-29.824-29.824
	h-3.353v-12.309h-6.155v12.309h-7.18v-12.309h-6.155v12.309h-6.155h-7.897v12.309h7.897v35.029h-7.897V240.3h7.897v35.029h-7.897
	v12.309h7.897h6.155v12.309h6.155v-12.309h7.18v12.309h6.155v-12.309h3.353c16.445,0,29.824-13.379,29.824-29.824
	C267.504,248.42,263.166,239.779,255.763,234.146z M237.68,275.329h-16.688V240.3h16.688c9.657,0,17.514,7.858,17.514,17.514
	C255.194,267.471,247.337,275.329,237.68,275.329z M237.68,227.991h-16.688v-35.029h16.688c9.657,0,17.514,7.858,17.514,17.514
	C255.194,220.133,247.337,227.991,237.68,227.991z"/>
<g>
</g>
<g>
</g>
<g>
</g>
<g>
</g>
<g>
</g>
<g>
</g>
<g>
</g>
<g>
</g>
<g>
</g>
<g>
</g>
<g>
</g>
<g>
</g>
<g>
</g>
<g>
</g>
<g>
</g>
</svg>
