<svg xmlns="http://www.w3.org/2000/svg" height="511pt" version="1.1" viewBox="1 0 511.99917 511" width="511pt">
<g id="surface1">
<path d="M 35.308594 105.382812 L 476.6875 105.382812 C 496.191406 105.382812 512 121.191406 512 140.691406 L 512 387.863281 L 0 387.863281 L 0 140.691406 C 0 121.191406 15.808594 105.382812 35.308594 105.382812 Z M 35.308594 105.382812 " style=" stroke:none;fill-rule:nonzero;fill:rgb(74.117647%,85.882353%,100%);fill-opacity:1;" />
<path d="M 0 405.519531 C 0 425.023438 15.808594 440.832031 35.308594 440.832031 L 476.6875 440.832031 C 496.191406 440.832031 512 425.023438 512 405.519531 L 512 387.867188 L 0 387.867188 Z M 0 405.519531 " style=" stroke:none;fill-rule:nonzero;fill:rgb(57.647059%,58.431373%,59.607843%);fill-opacity:1;" />
<path d="M 203.035156 511.453125 L 308.964844 511.453125 L 291.308594 440.832031 L 220.6875 440.832031 Z M 203.035156 511.453125 " style=" stroke:none;fill-rule:nonzero;fill:rgb(50.196078%,50.980392%,52.156863%);fill-opacity:1;" />
<path d="M 237.746094 185.429688 L 275.039062 148.136719 L 264.386719 137.480469 L 245.652344 156.203125 L 264.386719 137.480469 L 251.902344 124.996094 C 245.007812 118.105469 245.003906 106.925781 251.898438 100.03125 C 251.902344 100.027344 251.902344 100.027344 251.902344 100.023438 L 264.386719 87.542969 C 271.28125 80.648438 282.457031 80.648438 289.351562 87.542969 C 282.457031 80.648438 282.457031 69.472656 289.351562 62.578125 L 301.832031 50.097656 C 308.726562 43.199219 319.90625 43.199219 326.800781 50.089844 C 326.800781 50.09375 326.804688 50.09375 326.804688 50.097656 L 349.941406 73.234375 L 387.132812 36.042969 C 385.746094 34.488281 384.429688 32.902344 382.941406 31.410156 C 341.507812 -9.894531 274.433594 -9.789062 233.128906 31.644531 C 201.53125 63.34375 193.265625 111.480469 212.476562 151.90625 C 212.921875 152.875 213.449219 153.847656 213.980469 154.816406 C 218.933594 164.570312 225.402344 173.476562 233.136719 181.210938 C 234.621094 182.695312 236.191406 184.054688 237.746094 185.429688 Z M 358.011719 43.847656 L 339.289062 62.578125 Z M 358.011719 43.847656 " style=" stroke:none;fill-rule:nonzero;fill:rgb(100%,73.333333%,37.647059%);fill-opacity:1;" />
<path d="M 349.941406 73.234375 L 364.253906 87.542969 L 382.984375 106.265625 L 364.253906 87.542969 L 326.804688 124.996094 L 289.347656 162.445312 L 308.082031 181.175781 L 289.359375 162.445312 L 283.117188 156.203125 L 264.234375 174.742188 L 283.117188 156.203125 L 275.050781 148.136719 L 237.753906 185.429688 C 245.175781 192.046875 253.496094 197.582031 262.46875 201.867188 C 263.070312 202.171875 263.691406 202.433594 264.324219 202.664062 C 317.503906 226.851562 380.21875 203.351562 404.410156 150.171875 C 421.742188 112.0625 414.96875 67.3125 387.132812 36.042969 Z M 358.011719 81.300781 L 376.550781 62.417969 Z M 358.011719 81.300781 " style=" stroke:none;fill-rule:nonzero;fill:rgb(100%,65.490196%,20%);fill-opacity:1;" />
<path d="M 275.039062 148.136719 L 283.109375 156.203125 L 289.351562 162.445312 L 326.804688 124.996094 L 312.496094 110.679688 Z M 275.039062 148.136719 " style=" stroke:none;fill-rule:nonzero;fill:rgb(100%,65.490196%,20%);fill-opacity:1;" />
<path d="M 289.351562 87.542969 C 282.457031 80.648438 271.28125 80.648438 264.386719 87.542969 L 251.902344 100.023438 C 245.007812 106.917969 245.003906 118.097656 251.898438 124.992188 C 251.902344 124.996094 251.902344 124.996094 251.902344 124.996094 L 264.386719 137.480469 L 275.039062 148.136719 L 312.496094 110.679688 Z M 289.351562 87.542969 " style=" stroke:none;fill-rule:nonzero;fill:rgb(100%,73.333333%,37.647059%);fill-opacity:1;" />
<path d="M 312.488281 110.679688 L 349.9375 73.226562 L 364.253906 87.539062 L 326.800781 124.992188 Z M 312.488281 110.679688 " style=" stroke:none;fill-rule:nonzero;fill:rgb(100%,65.490196%,20%);fill-opacity:1;" />
<path d="M 301.832031 50.097656 L 289.351562 62.578125 C 282.457031 69.472656 282.457031 80.648438 289.351562 87.542969 L 312.496094 110.679688 L 349.941406 73.234375 L 326.804688 50.097656 C 319.910156 43.199219 308.734375 43.199219 301.835938 50.089844 C 301.835938 50.09375 301.835938 50.09375 301.832031 50.097656 Z M 301.832031 50.097656 " style=" stroke:none;fill-rule:nonzero;fill:rgb(100%,73.333333%,37.647059%);fill-opacity:1;" />
<path d="M 233.136719 181.210938 C 225.402344 173.476562 218.9375 164.570312 213.980469 154.816406 L 167.722656 202.484375 L 167.722656 246.625 L 123.585938 246.625 L 123.585938 281.933594 L 88.273438 281.933594 L 70.621094 299.589844 L 70.621094 352.554688 L 237.746094 185.429688 C 236.191406 184.054688 234.621094 182.695312 233.136719 181.210938 Z M 233.136719 181.210938 " style=" stroke:none;fill-rule:nonzero;fill:rgb(90.196078%,90.588235%,90.980392%);fill-opacity:1;" />
<path d="M 237.746094 185.429688 L 70.621094 352.554688 L 118.996094 352.554688 L 264.296875 202.664062 C 263.664062 202.4375 263.046875 202.171875 262.445312 201.867188 C 253.476562 197.582031 245.160156 192.046875 237.746094 185.429688 Z M 237.746094 185.429688 " style=" stroke:none;fill-rule:nonzero;fill:rgb(84.705882%,84.313725%,85.490196%);fill-opacity:1;" />
<path d="M 260.730469 137.480469 L 248.242188 149.972656 L 260.722656 162.453125 L 273.214844 149.960938 L 279.394531 156.140625 L 266.859375 168.5 L 279.214844 181.089844 L 291.847656 168.660156 L 291.902344 168.710938 L 310.625 187.433594 L 323.105469 174.953125 L 310.625 162.472656 L 373.054688 100.042969 L 385.535156 112.535156 L 398.015625 100.050781 L 379.292969 81.320312 L 379.242188 81.273438 L 391.671875 68.632812 L 379.082031 56.273438 L 366.722656 68.800781 L 360.542969 62.621094 L 373.035156 50.128906 L 360.605469 37.605469 L 348.113281 50.09375 L 341.875 43.84375 C 331.390625 33.847656 314.902344 33.847656 304.417969 43.84375 L 291.9375 56.328125 C 287.269531 61.027344 284.542969 67.3125 284.300781 73.929688 C 277.8125 74.152344 271.636719 76.78125 266.972656 81.300781 L 254.472656 93.792969 C 244.167969 104.148438 244.167969 120.882812 254.472656 131.238281 Z M 304.417969 68.808594 L 316.910156 56.328125 C 318.566406 54.671875 320.808594 53.742188 323.152344 53.742188 C 325.492188 53.730469 327.738281 54.664062 329.382812 56.328125 L 360.617188 87.542969 L 335.640625 112.515625 L 304.429688 81.300781 C 300.976562 77.855469 300.976562 72.265625 304.421875 68.816406 C 304.421875 68.816406 304.425781 68.8125 304.429688 68.808594 Z M 266.964844 106.265625 L 279.464844 93.785156 C 282.910156 90.34375 288.492188 90.34375 291.9375 93.785156 L 323.140625 124.988281 L 298.175781 149.960938 L 266.972656 118.75 C 263.523438 115.304688 263.519531 109.714844 266.964844 106.265625 Z M 266.964844 106.265625 " style=" stroke:none;fill-rule:nonzero;fill:rgb(100%,38.431373%,26.27451%);fill-opacity:1;" />
<path d="M 211.863281 343.726562 C 211.863281 348.601562 215.8125 352.554688 220.6875 352.554688 L 476.6875 352.554688 C 481.566406 352.554688 485.515625 348.601562 485.515625 343.726562 C 485.515625 338.851562 481.566406 334.898438 476.6875 334.898438 L 220.6875 334.898438 C 215.8125 334.898438 211.863281 338.851562 211.863281 343.726562 Z M 211.863281 343.726562 " style=" stroke:none;fill-rule:nonzero;fill:rgb(60.784314%,78.823529%,100%);fill-opacity:1;" />
<path d="M 167.722656 334.898438 C 162.847656 334.898438 158.898438 338.851562 158.898438 343.726562 C 158.898438 348.601562 162.847656 352.554688 167.722656 352.554688 L 185.378906 352.554688 C 190.253906 352.554688 194.207031 348.601562 194.207031 343.726562 C 194.207031 338.851562 190.253906 334.898438 185.378906 334.898438 Z M 167.722656 334.898438 " style=" stroke:none;fill-rule:nonzero;fill:rgb(60.784314%,78.823529%,100%);fill-opacity:1;" />
</g>
</svg>