<svg height="512" viewBox="0 0 64 64" width="512" xmlns="http://www.w3.org/2000/svg"><g fill="#7ed63e"><path d="m19.5 43.368h2v15.264h-2z" transform="matrix(.524 -.852 .852 .524 -33.679 41.73)"/><path d="m49.474 19.12-.948 1.76-13-7 .948-1.76"/><path d="m31 18h2v7h-2z"/><path d="m31 38h2v9h-2z"/><path d="m53 25h2v13h-2z"/><path d="m9 25h2v14h-2z"/><path d="m14.292 16h13.416v2h-13.416z" transform="matrix(.894 -.447 .447 .894 -5.386 11.186)"/><path d="m36.292 50h13.416v2h-13.416z" transform="matrix(.894 -.447 .447 .894 -18.268 24.614)"/></g><path d="m47 15 7 4 7-4-7-4z" fill="#ff5023"/><path d="m47 15v4 4l7 4v-8z" fill="#ff9811"/><path d="m54 27 7-4v-8l-7 4z" fill="#ffb655"/><path d="m32 19 7-4v-8l-7 4z" fill="#ffb655"/><path d="m39 7-7-4-7 4 7 4z" fill="#ff5023"/><path d="m32 11-7-4v8l7 4z" fill="#ff9811"/><path d="m3 15v8l7 4v-8z" fill="#ff9811"/><path d="m17 15-7-4-7 4 7 4z" fill="#ff5023"/><path d="m17 19v-4l-7 4v8l7-4z" fill="#ffb655"/><path d="m32 32 7-4-7-4-7 4z" fill="#ff5023"/><path d="m32 40 7-4v-8l-7 4z" fill="#ffb655"/><path d="m25 28v8l7 4v-8z" fill="#ff9811"/><path d="m54 53 7-4v-8l-7 4z" fill="#ffb655"/><path d="m54 45 7-4-7-4-7 4z" fill="#ff5023"/><path d="m47 41v8l7 4v-8z" fill="#ff9811"/><path d="m32 53 7-4-7-4-7 4z" fill="#ff5023"/><path d="m32 53v8l7-4v-3-5z" fill="#ffb655"/><path d="m25 49v5 3l7 4v-8z" fill="#ff9811"/><path d="m17 41-7-4-7 4 7 4z" fill="#ff5023"/><path d="m3 41v8l7 4v-8z" fill="#ff9811"/><path d="m10 45v8l7-4v-8z" fill="#ffb655"/></svg>