<?xml version="1.0" encoding="iso-8859-1"?>
<!-- Generator: Adobe Illustrator 19.0.0, SVG Export Plug-In . SVG Version: 6.00 Build 0)  -->
<svg version="1.1" id="Capa_1" xmlns="http://www.w3.org/2000/svg" xmlns:xlink="http://www.w3.org/1999/xlink" x="0px" y="0px"
	 viewBox="0 0 496 496" style="enable-background:new 0 0 496 496;" xml:space="preserve">
<path style="fill:#E6E9ED;" d="M344.08,96v112.08c-9.832-7.44-20.552-13.76-32.08-18.72v-0.08V96c0-35.36-28.72-64-64-64
	c-35.36,0-64,28.64-64,64v93.28v0.08c-11.44,4.96-22.16,11.28-32,18.64V96c0-53.04,42.96-96,96-96c52.96,0,96,42.96,96,96H344.08z"
	/>
<path style="fill:#CCD1D9;" d="M344,96c0-53.04-43.04-96-96-96c-5.472,0-10.792,0.56-16.008,1.44C277.344,9.072,312,48.432,312,96
	h0.08v93.4c11.496,4.952,22.184,11.256,32,18.68V96H344z"/>
<path style="fill:#FFCE54;" d="M336,336c0,16-4.32,31.04-11.832,44c-7.68,13.36-18.808,24.48-32.168,32.16
	c-12.96,7.52-27.92,11.84-44,11.84c-16,0-31.04-4.24-44-11.768c-13.36-7.76-24.48-18.872-32.24-32.232
	c-7.44-12.96-11.76-28-11.76-44s4.32-31.04,11.76-44c7.768-13.36,18.88-24.488,32.24-32.24c12.96-7.528,28-11.76,44-11.76
	s31.04,4.232,43.92,11.76c13.44,7.76,24.56,18.88,32.24,32.24C331.68,304.96,336,320,336,336z"/>
<path style="fill:#F6BB42;" d="M336,336c0-16-4.32-31.04-11.832-44c-7.68-13.36-18.808-24.488-32.24-32.24
	C279.04,252.232,264,248,248,248s-31.04,4.232-44,11.76c-13.36,7.76-24.48,18.88-32.24,32.24c-7.44,12.96-11.76,28-11.76,44
	s4.32,31.04,11.76,44c7.768,13.36,18.88,24.48,32.24,32.232C216.96,419.76,232,424,248,424c16.08,0,31.04-4.32,44-11.84
	c13.36-7.68,24.488-18.8,32.168-32.16C331.68,367.04,336,352,336,336z M248,216c66.24,0,120,53.76,120,120
	c0,66.232-53.76,120-120,120c-66.32,0-120-53.768-120-120C128,269.76,181.68,216,248,216z"/>
<path style="fill:#656D78;" d="M344.08,208.08C382.88,237.28,408,283.68,408,336c0,88.32-71.68,160-160,160
	c-88.4,0-160-71.68-160-160c0-52.32,25.12-98.808,64-127.92V208c9.84-7.36,20.56-13.68,32-18.64c19.6-8.56,41.2-13.36,64-13.36
	c22.808,0,44.4,4.8,64,13.36C323.52,194.32,334.24,200.64,344.08,208.08z M368,336c0-66.24-53.76-120-120-120
	c-66.32,0-120,53.76-120,120c0,66.232,53.68,120,120,120C314.24,456,368,402.232,368,336z"/>
<path style="fill:#434A54;" d="M344.08,208.08c-9.832-7.44-20.552-13.76-32.08-18.72C292.4,180.8,270.808,176,248,176
	c-5.408,0-10.736,0.312-16,0.832c16.92,1.696,33.048,5.992,48,12.52c11.52,4.96,22.24,11.28,32.08,18.72
	C350.88,237.28,376,283.68,376,336c0,82.92-63.184,151.16-144.008,159.184c5.264,0.528,10.6,0.816,16.008,0.816
	c88.32,0,160-71.68,160-160C408,283.68,382.88,237.28,344.08,208.08z"/>
<path style="fill:#EDAB37;" d="M275.048,326.424c3.064-4.024,4.952-8.992,4.952-14.432C280,298.768,269.232,288,256.008,288H248
	c0-4.424-3.576-8-8-8s-8,3.576-8,8h-16c-4.424,0-8,3.576-8,8s3.576,8,8,8v64c-4.424,0-8,3.576-8,8s3.576,8,8,8h16
	c0,4.424,3.576,8,8,8s8-3.576,8-8h7.992C273.64,384,288,369.648,288,352C288,341.504,282.856,332.264,275.048,326.424z M256.008,304
	c4.408,0,7.992,3.584,7.992,7.992s-3.584,7.992-7.992,7.992H232V304H256.008z M255.992,368H232v-32.016h23.992
	c8.832,0,16.008,7.184,16.008,16.016C272,360.824,264.824,368,255.992,368z"/>
<g>
	<path style="fill:#FFCE54;" d="M248,256c-4.424,0-8-3.576-8-8v-8c0-4.424,3.576-8,8-8c4.424,0,8,3.576,8,8v8
		C256,252.424,252.424,256,248,256z"/>
	<path style="fill:#FFCE54;" d="M248,440c-4.424,0-8-3.576-8-8v-8c0-4.424,3.576-8,8-8c4.424,0,8,3.576,8,8v8
		C256,436.424,252.424,440,248,440z"/>
	<path style="fill:#FFCE54;" d="M204.008,267.792c-2.768,0-5.456-1.44-6.936-4l-4-6.928c-2.208-3.832-0.896-8.72,2.928-10.928
		c3.816-2.208,8.72-0.896,10.928,2.928l4,6.928c2.208,3.832,0.896,8.72-2.928,10.928
		C206.744,267.448,205.368,267.792,204.008,267.792z"/>
	<path style="fill:#FFCE54;" d="M296.008,427.144c-2.768,0-5.464-1.44-6.936-4.008l-4-6.936c-2.208-3.824-0.888-8.72,2.936-10.92
		c3.832-2.216,8.728-0.888,10.92,2.936l4,6.936c2.208,3.824,0.888,8.72-2.936,10.92C298.736,426.8,297.36,427.144,296.008,427.144z"
		/>
	<path style="fill:#FFCE54;" d="M171.784,300c-1.36,0-2.736-0.344-3.992-1.072l-6.928-4c-3.832-2.208-5.144-7.104-2.928-10.928
		s7.104-5.144,10.928-2.928l6.928,4c3.832,2.208,5.144,7.104,2.928,10.928C177.232,298.56,174.544,300,171.784,300z"/>
	<path style="fill:#FFCE54;" d="M331.136,392c-1.36,0-2.736-0.344-3.992-1.072l-6.936-4.008c-3.832-2.208-5.144-7.112-2.928-10.928
		c2.208-3.832,7.104-5.144,10.928-2.928l6.936,4.008c3.832,2.208,5.144,7.112,2.928,10.928C336.584,390.568,333.896,392,331.136,392
		z"/>
	<path style="fill:#FFCE54;" d="M160,344h-8c-4.424,0-8-3.576-8-8s3.576-8,8-8h8c4.424,0,8,3.576,8,8S164.424,344,160,344z"/>
	<path style="fill:#FFCE54;" d="M344,344h-8.016c-4.424,0-8-3.576-8-8s3.576-8,8-8H344c4.424,0,8,3.576,8,8S348.424,344,344,344z"/>
	<path style="fill:#FFCE54;" d="M164.864,392c-2.768,0-5.456-1.44-6.936-4c-2.208-3.832-0.896-8.72,2.928-10.928l6.928-4
		c3.816-2.208,8.72-0.896,10.928,2.928s0.896,8.72-2.928,10.928l-6.928,4C167.6,391.656,166.224,392,164.864,392z"/>
	<path style="fill:#FFCE54;" d="M324.2,300.008c-2.768,0-5.456-1.44-6.936-4c-2.208-3.832-0.896-8.72,2.928-10.928l6.944-4.008
		c3.816-2.208,8.712-0.896,10.928,2.928c2.208,3.832,0.896,8.72-2.928,10.928l-6.944,4.008
		C326.936,299.664,325.56,300.008,324.2,300.008z"/>
	<path style="fill:#FFCE54;" d="M199.992,427.144c-1.36,0-2.728-0.344-3.984-1.072c-3.832-2.2-5.152-7.104-2.936-10.92l4-6.936
		c2.192-3.832,7.104-5.144,10.92-2.936c3.832,2.2,5.152,7.104,2.936,10.92l-4,6.936C205.456,425.704,202.76,427.144,199.992,427.144
		z"/>
	<path style="fill:#FFCE54;" d="M291.976,267.8c-1.36,0-2.736-0.344-4-1.08c-3.824-2.208-5.136-7.112-2.912-10.928l4.016-6.936
		c2.208-3.832,7.08-5.16,10.928-2.912c3.824,2.208,5.136,7.112,2.912,10.928l-4.016,6.936
		C297.424,266.368,294.744,267.8,291.976,267.8z"/>
</g>
<g>
</g>
<g>
</g>
<g>
</g>
<g>
</g>
<g>
</g>
<g>
</g>
<g>
</g>
<g>
</g>
<g>
</g>
<g>
</g>
<g>
</g>
<g>
</g>
<g>
</g>
<g>
</g>
<g>
</g>
</svg>
