<?xml version="1.0" encoding="iso-8859-1"?>
<!-- Generator: Adobe Illustrator 19.0.0, SVG Export Plug-In . SVG Version: 6.00 Build 0)  -->
<svg version="1.1" id="Capa_1" xmlns="http://www.w3.org/2000/svg" xmlns:xlink="http://www.w3.org/1999/xlink" x="0px" y="0px"
	 viewBox="0 0 512 512" style="enable-background:new 0 0 512 512;" xml:space="preserve">
<g>
	<g>
		<path style="fill:#4482C3;" d="M59.733,119.467h-51.2c-4.713,0-8.533-3.821-8.533-8.533c0-4.713,3.821-8.533,8.533-8.533h51.2
			c4.713,0,8.533,3.821,8.533,8.533C68.267,115.646,64.446,119.467,59.733,119.467z"/>
		<path style="fill:#4482C3;" d="M170.667,119.467H128c-4.713,0-8.533-3.821-8.533-8.533c0-4.713,3.821-8.533,8.533-8.533h42.667
			c4.713,0,8.533,3.821,8.533,8.533C179.2,115.646,175.38,119.467,170.667,119.467z"/>
		<path style="fill:#4482C3;" d="M128,93.867c-2.263,0.001-4.434-0.898-6.035-2.499s-2.499-3.771-2.499-6.035h-51.2
			c0,4.713-3.821,8.533-8.533,8.533S51.2,90.046,51.2,85.333V76.8c-0.001-2.263,0.898-4.434,2.499-6.035
			c1.6-1.6,3.771-2.499,6.035-2.499H128c2.263-0.001,4.434,0.898,6.035,2.499c1.6,1.6,2.499,3.771,2.499,6.035v8.533
			c0.001,2.263-0.898,4.434-2.499,6.035C132.434,92.968,130.263,93.867,128,93.867z"/>
		<path style="fill:#4482C3;" d="M128,153.6H59.733c-2.263,0.001-4.434-0.898-6.035-2.499s-2.499-3.771-2.499-6.035v-8.533
			c0-4.713,3.821-8.533,8.533-8.533s8.533,3.821,8.533,8.533h51.2c0-4.713,3.82-8.533,8.533-8.533s8.533,3.821,8.533,8.533v8.533
			c0.001,2.263-0.898,4.434-2.499,6.035C132.434,152.702,130.263,153.601,128,153.6z"/>
		<path style="fill:#4482C3;" d="M503.467,119.467h-51.2c-4.713,0-8.533-3.821-8.533-8.533c0-4.713,3.82-8.533,8.533-8.533h51.2
			c4.713,0,8.533,3.821,8.533,8.533C512,115.646,508.18,119.467,503.467,119.467z"/>
		<path style="fill:#4482C3;" d="M384,119.467h-42.667c-4.713,0-8.533-3.821-8.533-8.533c0-4.713,3.82-8.533,8.533-8.533H384
			c4.713,0,8.533,3.821,8.533,8.533C392.533,115.646,388.713,119.467,384,119.467z"/>
		<path style="fill:#4482C3;" d="M452.267,93.867c-2.263,0.001-4.434-0.898-6.035-2.499c-1.6-1.6-2.499-3.771-2.499-6.035h-51.2
			c0,4.713-3.82,8.533-8.533,8.533s-8.533-3.821-8.533-8.533V76.8c-0.001-2.263,0.898-4.434,2.499-6.035
			c1.6-1.6,3.771-2.499,6.035-2.499h68.267c2.263-0.001,4.434,0.898,6.035,2.499c1.6,1.6,2.499,3.771,2.499,6.035v8.533
			c0.001,2.263-0.898,4.434-2.499,6.035C456.701,92.968,454.53,93.867,452.267,93.867z"/>
		<path style="fill:#4482C3;" d="M452.267,153.6H384c-2.263,0.001-4.434-0.898-6.035-2.499s-2.499-3.771-2.499-6.035v-8.533
			c0-4.713,3.821-8.533,8.533-8.533s8.533,3.821,8.533,8.533h51.2c0-4.713,3.82-8.533,8.533-8.533s8.533,3.821,8.533,8.533v8.533
			c0.001,2.263-0.898,4.434-2.499,6.035C456.701,152.702,454.53,153.601,452.267,153.6z"/>
	</g>
	<path style="fill:#95A5A5;" d="M341.333,93.867v128H307.2v-128c0-28.277-22.923-51.2-51.2-51.2c-28.277,0-51.2,22.923-51.2,51.2
		v128h-34.133v-128c0-47.128,38.205-85.333,85.333-85.333S341.333,46.738,341.333,93.867z"/>
	<path style="fill:#B19046;" d="M170.667,452.267h170.667V486.4c0,9.426-7.641,17.067-17.067,17.067H187.733
		c-9.426,0-17.067-7.641-17.067-17.067V452.267z"/>
	<path style="fill:#E4C05C;" d="M162.133,204.8h187.733c9.426,0,17.067,7.641,17.067,17.067v230.4
		c0,9.426-7.641,17.067-17.067,17.067H162.133c-9.426,0-17.067-7.641-17.067-17.067v-230.4
		C145.067,212.441,152.708,204.8,162.133,204.8z"/>
	<rect x="145.067" y="238.933" style="fill:#F3D55B;" width="221.867" height="196.267"/>
	<path style="fill:#F9EAB0;" d="M292.574,330.195c3.919-4.928,6.065-11.032,6.093-17.328v-2.8
		c-0.098-14.543-11.132-26.679-25.6-28.156v-8.844c0-4.713-3.82-8.533-8.533-8.533s-8.533,3.82-8.533,8.533v8.533h-17.067v-8.533
		c0-4.713-3.821-8.533-8.533-8.533s-8.533,3.82-8.533,8.533v8.533h-8.533c-4.713,0-8.533,3.821-8.533,8.533
		c0,4.713,3.82,8.533,8.533,8.533h56.633c6.358-0.058,11.562,5.042,11.633,11.4v2.8c-0.071,6.358-5.276,11.458-11.633,11.4h-31.033
		c0-4.713-3.821-8.533-8.533-8.533s-8.533,3.821-8.533,8.533v25.6c0,4.713,3.82,8.533,8.533,8.533s8.533-3.821,8.533-8.533v-8.533
		h34.492c9.104-0.109,16.578,7.171,16.708,16.275v1.583c-0.13,9.104-7.604,16.384-16.708,16.275h-60.092
		c-4.713,0-8.533,3.821-8.533,8.533s3.82,8.533,8.533,8.533h8.533v8.533c0,4.713,3.82,8.533,8.533,8.533s8.533-3.821,8.533-8.533
		v-8.533H256v8.533c0,4.713,3.821,8.533,8.533,8.533s8.533-3.821,8.533-8.533v-8.533h0.358
		c18.525,0.098,33.634-14.817,33.775-33.342v-1.583C307.167,346.612,301.69,336.345,292.574,330.195z"/>
</g>
<g>
</g>
<g>
</g>
<g>
</g>
<g>
</g>
<g>
</g>
<g>
</g>
<g>
</g>
<g>
</g>
<g>
</g>
<g>
</g>
<g>
</g>
<g>
</g>
<g>
</g>
<g>
</g>
<g>
</g>
</svg>
