<svg xmlns="http://www.w3.org/2000/svg" height="512.00003pt" version="1.1" viewBox="0 0 512.00003 512.00003" width="512.00003pt">
<g id="surface1">
<path d="M 494.34375 485.515625 L 17.65625 485.515625 L 17.65625 158.894531 C 17.65625 149.144531 25.558594 141.242188 35.308594 141.242188 L 476.6875 141.242188 C 486.441406 141.242188 494.34375 149.144531 494.34375 158.894531 Z M 494.34375 485.515625 " style=" stroke:none;fill-rule:nonzero;fill:rgb(65.490196%,66.27451%,67.45098%);fill-opacity:1;" />
<path d="M 459.035156 274.863281 C 437.195312 351.109375 377.59375 410.710938 301.347656 432.550781 L 459.035156 432.550781 Z M 459.035156 274.863281 " style=" stroke:none;fill-rule:nonzero;fill:rgb(58.823529%,78.431373%,93.72549%);fill-opacity:1;" />
<path d="M 52.964844 176.550781 L 52.964844 432.550781 L 301.347656 432.550781 C 377.59375 410.710938 437.195312 351.109375 459.035156 274.863281 L 459.035156 176.550781 Z M 52.964844 176.550781 " style=" stroke:none;fill-rule:nonzero;fill:rgb(47.058824%,72.54902%,92.156863%);fill-opacity:1;" />
<path d="M 300.136719 459.035156 C 300.109375 468.773438 292.222656 476.660156 282.484375 476.6875 L 220.691406 476.6875 C 210.949219 476.660156 203.0625 468.773438 203.035156 459.035156 L 0 459.035156 L 0 476.6875 C 0 496.191406 15.808594 512 35.3125 512 L 476.6875 512 C 496.191406 512 512 496.191406 512 476.6875 L 512 459.035156 Z M 300.136719 459.035156 " style=" stroke:none;fill-rule:nonzero;fill:rgb(42.745098%,43.137255%,44.313725%);fill-opacity:1;" />
<path d="M 370.757812 229.515625 C 370.789062 239.253906 378.675781 247.144531 388.414062 247.171875 L 494.34375 247.171875 C 504.082031 247.144531 511.96875 239.253906 512 229.515625 L 512 211.863281 L 370.757812 211.863281 Z M 370.757812 229.515625 " style=" stroke:none;fill-rule:nonzero;fill:rgb(42.745098%,43.137255%,44.313725%);fill-opacity:1;" />
<path d="M 494.34375 0 L 388.414062 0 C 378.675781 0.0273438 370.789062 7.917969 370.757812 17.65625 L 370.757812 35.308594 L 512 35.308594 L 512 17.65625 C 511.96875 7.917969 504.082031 0.0273438 494.34375 0 Z M 494.34375 0 " style=" stroke:none;fill-rule:nonzero;fill:rgb(42.745098%,43.137255%,44.313725%);fill-opacity:1;" />
<path d="M 459.035156 123.585938 C 468.785156 123.585938 476.6875 115.683594 476.6875 105.929688 C 476.6875 96.179688 468.785156 88.277344 459.035156 88.277344 L 423.722656 88.277344 L 423.722656 123.585938 Z M 459.035156 123.585938 " style=" stroke:none;fill-rule:nonzero;fill:rgb(100%,68.627451%,27.45098%);fill-opacity:1;" />
<path d="M 423.722656 158.894531 L 459.035156 158.894531 C 468.785156 158.894531 476.6875 150.992188 476.6875 141.242188 C 476.6875 131.492188 468.785156 123.585938 459.035156 123.585938 L 423.722656 123.585938 Z M 423.722656 158.894531 " style=" stroke:none;fill-rule:nonzero;fill:rgb(100%,68.627451%,27.45098%);fill-opacity:1;" />
<path d="M 264.828125 300.136719 L 220.691406 300.136719 C 215.816406 300.136719 211.863281 296.183594 211.863281 291.308594 L 211.863281 238.34375 C 211.863281 233.46875 215.816406 229.515625 220.691406 229.515625 L 264.828125 229.515625 C 284.328125 229.515625 300.136719 245.324219 300.136719 264.828125 C 300.136719 284.328125 284.328125 300.136719 264.828125 300.136719 Z M 229.515625 282.480469 L 264.828125 282.480469 C 274.578125 282.480469 282.480469 274.578125 282.480469 264.828125 C 282.480469 255.078125 274.578125 247.171875 264.828125 247.171875 L 229.515625 247.171875 Z M 229.515625 282.480469 " style=" stroke:none;fill-rule:nonzero;fill:rgb(100%,38.431373%,26.27451%);fill-opacity:1;" />
<path d="M 273.65625 370.757812 L 220.691406 370.757812 C 215.816406 370.757812 211.863281 366.804688 211.863281 361.929688 L 211.863281 291.308594 C 211.863281 286.433594 215.816406 282.480469 220.691406 282.480469 L 273.65625 282.480469 C 298.03125 282.480469 317.792969 302.242188 317.792969 326.621094 C 317.792969 350.996094 298.03125 370.757812 273.65625 370.757812 Z M 229.515625 353.105469 L 273.65625 353.105469 C 288.28125 353.105469 300.136719 341.246094 300.136719 326.621094 C 300.136719 311.996094 288.28125 300.136719 273.65625 300.136719 L 229.515625 300.136719 Z M 229.515625 353.105469 " style=" stroke:none;fill-rule:nonzero;fill:rgb(100%,38.431373%,26.27451%);fill-opacity:1;" />
<path d="M 220.691406 247.171875 L 203.035156 247.171875 C 198.160156 247.171875 194.207031 243.21875 194.207031 238.34375 C 194.207031 233.46875 198.160156 229.515625 203.035156 229.515625 L 220.691406 229.515625 C 225.566406 229.515625 229.519531 233.46875 229.519531 238.34375 C 229.515625 243.21875 225.566406 247.171875 220.691406 247.171875 Z M 220.691406 247.171875 " style=" stroke:none;fill-rule:nonzero;fill:rgb(100%,38.431373%,26.27451%);fill-opacity:1;" />
<path d="M 220.691406 370.757812 L 203.035156 370.757812 C 198.160156 370.757812 194.207031 366.804688 194.207031 361.929688 C 194.207031 357.054688 198.160156 353.101562 203.035156 353.101562 L 220.691406 353.101562 C 225.566406 353.101562 229.519531 357.054688 229.519531 361.929688 C 229.515625 366.804688 225.566406 370.757812 220.691406 370.757812 Z M 220.691406 370.757812 " style=" stroke:none;fill-rule:nonzero;fill:rgb(100%,38.431373%,26.27451%);fill-opacity:1;" />
<path d="M 238.34375 247.171875 C 233.46875 247.171875 229.515625 243.21875 229.515625 238.34375 L 229.515625 220.691406 C 229.515625 215.816406 233.46875 211.863281 238.34375 211.863281 C 243.21875 211.863281 247.171875 215.816406 247.171875 220.691406 L 247.171875 238.34375 C 247.171875 243.21875 243.21875 247.171875 238.34375 247.171875 Z M 238.34375 247.171875 " style=" stroke:none;fill-rule:nonzero;fill:rgb(100%,38.431373%,26.27451%);fill-opacity:1;" />
<path d="M 264.828125 247.171875 C 259.953125 247.171875 256 243.21875 256 238.34375 L 256 220.691406 C 256 215.816406 259.953125 211.863281 264.828125 211.863281 C 269.703125 211.863281 273.65625 215.816406 273.65625 220.691406 L 273.65625 238.34375 C 273.65625 243.21875 269.703125 247.171875 264.828125 247.171875 Z M 264.828125 247.171875 " style=" stroke:none;fill-rule:nonzero;fill:rgb(100%,38.431373%,26.27451%);fill-opacity:1;" />
<path d="M 238.34375 388.414062 C 233.46875 388.414062 229.515625 384.460938 229.515625 379.585938 L 229.515625 361.929688 C 229.515625 357.054688 233.46875 353.101562 238.34375 353.101562 C 243.21875 353.101562 247.171875 357.054688 247.171875 361.929688 L 247.171875 379.585938 C 247.171875 384.460938 243.21875 388.414062 238.34375 388.414062 Z M 238.34375 388.414062 " style=" stroke:none;fill-rule:nonzero;fill:rgb(100%,38.431373%,26.27451%);fill-opacity:1;" />
<path d="M 264.828125 388.414062 C 259.953125 388.414062 256 384.460938 256 379.585938 L 256 361.929688 C 256 357.054688 259.953125 353.101562 264.828125 353.101562 C 269.703125 353.101562 273.65625 357.054688 273.65625 361.929688 L 273.65625 379.585938 C 273.65625 384.460938 269.703125 388.414062 264.828125 388.414062 Z M 264.828125 388.414062 " style=" stroke:none;fill-rule:nonzero;fill:rgb(100%,38.431373%,26.27451%);fill-opacity:1;" />
<path d="M 414.894531 211.863281 L 512 211.863281 L 512 114.757812 C 512 168.386719 468.523438 211.863281 414.894531 211.863281 Z M 414.894531 211.863281 " style=" stroke:none;fill-rule:nonzero;fill:rgb(100%,73.333333%,37.647059%);fill-opacity:1;" />
<path d="M 470.625 35.3125 L 370.757812 35.3125 L 370.757812 211.863281 L 414.894531 211.863281 C 468.523438 211.863281 512 168.386719 512 114.757812 L 512 35.3125 Z M 476.6875 141.242188 C 476.6875 150.992188 468.785156 158.894531 459.035156 158.894531 L 423.722656 158.894531 L 423.722656 88.277344 L 459.035156 88.277344 C 468.785156 88.277344 476.6875 96.179688 476.6875 105.929688 C 476.6875 115.683594 468.785156 123.585938 459.035156 123.585938 C 468.785156 123.585938 476.6875 131.492188 476.6875 141.242188 Z M 476.6875 141.242188 " style=" stroke:none;fill-rule:nonzero;fill:rgb(100%,68.627451%,27.45098%);fill-opacity:1;" />
<path d="M 485.515625 105.929688 C 485.515625 91.304688 473.660156 79.449219 459.035156 79.449219 L 450.207031 79.449219 L 450.207031 70.621094 C 450.207031 65.746094 446.253906 61.792969 441.378906 61.792969 C 436.503906 61.792969 432.550781 65.746094 432.550781 70.621094 L 432.550781 79.449219 L 406.066406 79.449219 C 401.191406 79.449219 397.242188 83.402344 397.242188 88.277344 C 397.242188 93.152344 401.191406 97.105469 406.066406 97.105469 L 414.894531 97.105469 L 414.894531 150.070312 L 406.066406 150.070312 C 401.191406 150.070312 397.242188 154.023438 397.242188 158.898438 C 397.242188 163.773438 401.191406 167.726562 406.066406 167.726562 L 432.550781 167.726562 L 432.550781 176.554688 C 432.550781 181.429688 436.503906 185.382812 441.378906 185.382812 C 446.253906 185.382812 450.207031 181.429688 450.207031 176.554688 L 450.207031 167.726562 L 459.035156 167.726562 C 473.597656 167.789062 485.453125 156.035156 485.519531 141.472656 C 485.546875 134.859375 483.089844 128.472656 478.632812 123.585938 C 483.039062 118.761719 485.492188 112.464844 485.515625 105.929688 Z M 467.863281 105.929688 C 467.863281 110.804688 463.910156 114.757812 459.035156 114.757812 L 432.550781 114.757812 L 432.550781 97.105469 L 459.035156 97.105469 C 463.910156 97.101562 467.863281 101.054688 467.863281 105.929688 Z M 459.035156 150.070312 L 432.550781 150.070312 L 432.550781 132.414062 L 459.035156 132.414062 C 463.910156 132.414062 467.863281 136.367188 467.863281 141.242188 C 467.863281 146.117188 463.910156 150.070312 459.035156 150.070312 Z M 459.035156 150.070312 " style=" stroke:none;fill-rule:nonzero;fill:rgb(100%,38.431373%,26.27451%);fill-opacity:1;" />
</g>
</svg>