
<svg id="edtjjbmnz7ea1" xmlns="http://www.w3.org/2000/svg" xmlns:xlink="http://www.w3.org/1999/xlink" viewBox="0 0 1000 1000" shape-rendering="geometricPrecision" text-rendering="geometricPrecision">
<rect id="edtjjbmnz7ea2" width="1000" height="1000" rx="0" ry="0" fill="none" stroke="none" stroke-width="1"/>
<g id="edtjjbmnz7ea3">
<g id="edtjjbmnz7ea4">
<path id="edtjjbmnz7ea5" d="M79.600000,259.719000L106.317000,247.019000L125.123000,254.809000L135.035000,282.681000C136.168629,285.868097,139.184294,287.997721,142.567000,288L177.433000,288C180.817541,287.999835,183.835756,285.869825,184.970000,282.681000L194.882000,254.809000L213.688000,247.019000L240.405000,259.719000C243.462635,261.170470,247.102683,260.542309,249.497000,258.150000L274.150000,233.500000C276.543977,231.106547,277.172330,227.465380,275.719000,224.408000L263.019000,197.691000L270.809000,178.885000L298.681000,168.973000C301.870862,167.838387,304.001105,164.818641,304,161.433000L304,126.567000C303.999835,123.182459,301.869825,120.164244,298.681000,119.030000L270.809000,109.118000L263.019000,90.312000L275.719000,63.595000C277.173761,60.536830,276.545325,56.893983,274.150000,54.500000L249.500000,29.850000C247.106547,27.456023,243.465380,26.827670,240.408000,28.281000L213.691000,40.981000L194.885000,33.191000L184.970000,5.319000C183.835756,2.130175,180.817541,0.000165,177.433000,-0L142.567000,-0C139.182459,0.000165,136.164244,2.130175,135.030000,5.319000L125.118000,33.191000L106.312000,40.981000L79.600000,28.281000C76.540514,26.823852,72.894864,27.452426,70.500000,29.850000L45.850000,54.500000C43.452426,56.894864,42.823852,60.540514,44.281000,63.600000L56.981000,90.317000L49.191000,109.123000L21.319000,119.030000C18.130175,120.164244,16.000165,123.182459,16,126.567000L16,161.433000C16.000165,164.817541,18.130175,167.835756,21.319000,168.970000L49.191000,178.882000L56.981000,197.688000L44.281000,224.405000C42.826239,227.463170,43.454675,231.106017,45.850000,233.500000L70.500000,258.150000C72.895731,260.545902,76.540257,261.174283,79.600000,259.719000ZM73.124000,194.850000L62.612000,169.474000C61.745597,167.382805,60.033255,165.756952,57.900000,165L32,155.787000L32,132.213000L57.900000,123C60.032895,122.242119,61.744508,120.615542,62.610000,118.524000L73.124000,93.150000C73.991677,91.057678,73.931716,88.695605,72.959000,86.650000L61.159000,61.821000L77.825000,45.156000L102.654000,56.956000C104.699365,57.929719,107.061866,57.989690,109.154000,57.121000L134.530000,46.609000C136.619055,45.742343,138.243232,44.031325,139,41.900000L148.213000,16L171.787000,16L181,41.900000C181.757881,44.032895,183.384458,45.744508,185.476000,46.610000L210.850000,57.124000C212.942134,57.992690,215.304635,57.932719,217.350000,56.959000L242.179000,45.159000L258.848000,61.828000L247.048000,86.657000C246.075284,88.702605,246.015323,91.064678,246.883000,93.157000L257.395000,118.533000C258.261455,120.620089,259.970783,122.242952,262.100000,123L288,132.211000L288,155.785000L262.100000,165C259.967105,165.757881,258.255492,167.384458,257.390000,169.476000L246.876000,194.850000C246.008323,196.942322,246.068284,199.304395,247.041000,201.350000L258.841000,226.179000L242.172000,242.848000L217.343000,231.048000C215.297635,230.074281,212.935134,230.014310,210.843000,230.883000L185.467000,241.395000C183.379911,242.261455,181.757048,243.970783,181,246.100000L171.787000,272L148.213000,272L139,246.100000C138.242119,243.967105,136.615542,242.255492,134.524000,241.390000L109.150000,230.876000C107.057866,230.007310,104.695365,230.067281,102.650000,231.041000L77.821000,242.841000L61.156000,226.175000L72.956000,201.346000C73.928501,199.301949,73.989545,196.941587,73.124000,194.850000Z" transform="matrix(1 0 0 1 -328.04232799999988 -120.00000082000003)" fill="rgb(255,255,255)" stroke="none" stroke-width="1"/>
<path id="edtjjbmnz7ea6" d="M160,216C199.764502,216,232,183.764502,232,144C232,104.235498,199.764502,72,160,72C120.235498,72,88,104.235498,88,144C88.044639,183.745997,120.254003,215.955361,160,216ZM160,88C190.927946,88,216,113.072054,216,144C216,174.927946,190.927946,200,160,200C129.072054,200,104,174.927946,104,144C104.034719,113.086447,129.086447,88.034719,160,88Z" transform="matrix(1 0 0 1 -328.04232799999988 -120.00000082000003)" fill="rgb(255,255,255)" stroke="none" stroke-width="1"/>
<path id="edtjjbmnz7ea7" d="M314.800000,385.474000L304.290000,410.850000C303.422323,412.942322,303.482284,415.304395,304.455000,417.350000L316.255000,442.179000L299.586000,458.848000L274.757000,447.048000C272.711395,446.075284,270.349322,446.015323,268.257000,446.883000L242.890000,457.388000C240.798515,458.253897,239.171764,459.965310,238.413000,462.098000L229.200000,488L205.629000,488L196.417000,462.100000C195.659119,459.967105,194.032542,458.255492,191.941000,457.390000L166.565000,446.878000C164.472866,446.009310,162.110365,446.069281,160.065000,447.043000L135.236000,458.843000L118.567000,442.174000L130.367000,417.345000C131.339716,415.299395,131.399677,412.937322,130.532000,410.845000L120.022000,385.469000C119.155597,383.381792,117.446833,381.758394,115.318000,381L89.418000,371.790000L89.418000,348.213000L115.318000,339.002000C117.450870,338.243700,119.162647,336.617312,120.029000,334.526000L130.539000,309.150000C131.406677,307.057678,131.346716,304.695605,130.374000,302.650000L116.147000,272.722000L101.700000,279.600000L114.400000,306.317000L106.611000,325.123000L78.739000,335.034000C75.549829,336.168367,73.419742,339.187093,73.420000,342.572000L73.420000,377.438000C73.419742,380.822907,75.549829,383.841633,78.739000,384.976000L106.611000,394.887000L114.400000,413.693000L101.700000,440.410000C100.246923,443.467586,100.875682,447.108780,103.270000,449.502000L127.920000,474.150000C130.313277,476.543528,133.953883,477.171854,137.011000,475.719000L163.728000,463.019000L182.528000,470.809000L192.441000,498.681000C193.575858,501.871554,196.596625,504.001951,199.983000,504L234.849000,504C238.233907,504.000258,241.252633,501.870171,242.387000,498.681000L252.298000,470.809000L271.104000,463.019000L297.820000,475.719000C300.877117,477.171854,304.517723,476.543528,306.911000,474.150000L331.565000,449.500000C333.959318,447.106780,334.588077,443.465586,333.135000,440.408000L320.435000,413.691000L329.585000,391.600000Z" transform="matrix(1 0 0 1 0.00526023999998 253.96825400000006)" fill="rgb(255,255,255)" stroke="none" stroke-width="1"/>
<path id="edtjjbmnz7ea8" d="M331.565000,270.500000L306.911000,245.850000C304.517723,243.456472,300.877117,242.828146,297.820000,244.281000L267.893000,258.508000L274.762000,272.959000L299.591000,261.159000L316.260000,277.828000L304.460000,302.657000C303.487284,304.702605,303.427323,307.064678,304.295000,309.157000L313.371000,331.069000L328.152000,324.945000L320.438000,306.319000L333.138000,279.602000C334.595088,276.541166,333.964836,272.894284,331.565000,270.500000Z" transform="matrix(1 0 0 1 7.93650800000000 283.18392380999921)" fill="rgb(255,255,255)" stroke="none" stroke-width="1"/>
<path id="edtjjbmnz7ea9" d="M217.416000,432C257.180502,432,289.416000,399.764502,289.416000,360C289.416000,320.235498,257.180502,288,217.416000,288C177.651498,288,145.416000,320.235498,145.416000,360C145.460639,399.745997,177.670003,431.955361,217.416000,432ZM217.416000,304C248.343946,304,273.416000,329.072054,273.416000,360C273.416000,390.927946,248.343946,416,217.416000,416C186.488054,416,161.416000,390.927946,161.416000,360C161.450719,329.086447,186.502447,304.034719,217.416000,304Z" transform="matrix(1 0 0 1 0.00526023999998 253.96825400000006)" fill="rgb(255,255,255)" stroke="none" stroke-width="1"/>
<path id="edtjjbmnz7ea10" d="M490.681000,143.030000L462.809000,133.118000L455.019000,114.312000L467.719000,87.595000C469.173761,84.536830,468.545325,80.893983,466.150000,78.500000L441.500000,53.850000C439.106547,51.456023,435.465380,50.827670,432.408000,52.281000L405.691000,64.981000L386.885000,57.191000L376.974000,29.319000C375.839264,26.128792,372.819008,23.998472,369.433000,24L334.567000,24C331.182093,23.999742,328.163367,26.129829,327.029000,29.319000L317.118000,57.191000L295.027000,66.343000L301.150000,81.124000L326.526000,70.612000C328.616758,69.744961,330.242391,68.032851,331,65.900000L340.210000,40L363.784000,40L373,65.900000C373.757881,68.032895,375.384458,69.744508,377.476000,70.610000L402.850000,81.124000C404.942322,81.991677,407.304395,81.931716,409.350000,80.959000L434.179000,69.159000L450.848000,85.828000L439.048000,110.657000C438.075284,112.702605,438.015323,115.064678,438.883000,117.157000L449.395000,142.533000C450.262089,144.619654,451.971185,146.242296,454.100000,147L480,156.210000L480,179.784000L454.100000,189C451.967310,189.758764,450.255897,191.385515,449.390000,193.477000L438.876000,218.850000C438.008323,220.942322,438.068284,223.304395,439.041000,225.350000L450.841000,250.179000L430.180000,270.840000L441.500000,282.150000L466.150000,257.500000C468.543977,255.106547,469.172330,251.465380,467.719000,248.408000L455.019000,221.691000L462.809000,202.885000L490.681000,192.974000C493.871208,191.839264,496.001528,188.819008,496,185.433000L496,150.567000C495.999835,147.182459,493.869825,144.164244,490.681000,143.030000Z" transform="matrix(1 0 0 1 251.32275099999998 -66.13756600000001)" fill="rgb(255,255,255)" stroke="none" stroke-width="1"/>
<path id="edtjjbmnz7ea11" d="M352,224C329.156472,224.065078,308.581037,210.198094,300.068000,189L285.236000,195C296.500067,222.841921,323.863413,240.767031,353.887059,239.971757C383.910705,239.176483,410.286736,219.827911,420.061075,191.428719C429.835413,163.029527,420.954487,131.546335,397.779991,112.441504C374.605496,93.336673,342.006352,90.624095,315.993000,105.636000L324.007000,119.485000C344.396422,107.730236,369.959860,109.978434,387.984603,125.111565C406.009346,140.244696,412.648597,165.033082,404.600653,187.149447C396.552708,209.265812,375.535142,223.990134,352,224Z" transform="matrix(1 0 0 1 251.32275099999998 -66.13756600000001)" fill="rgb(255,255,255)" stroke="none" stroke-width="1"/>
<path id="edtjjbmnz7ea12" d="M442.745000,304L416,304L416,272C416,258.745166,405.254834,248,392,248C378.745166,248,368,258.745166,368,272L368,340.687000L362.628000,335.313000C356.319583,329.004583,347.124864,326.540865,338.507406,328.849906C329.889948,331.158947,323.158947,337.889949,320.849906,346.507407C318.540866,355.124865,321.004583,364.319583,327.313000,370.628000L368,411.313000L368,424L360,424C355.581722,424,352,427.581722,352,432L352,504L368,504L368,440L464,440L464,504L480,504L480,432C480,427.581722,476.418278,424,472,424L464,424L464,411.313000L480.400000,394.913000C495.631305,379.682527,500.188170,356.776602,491.945720,336.876301C483.703270,316.976000,464.284730,304.000382,442.745000,304ZM469.088000,383.600000L450.343000,402.345000C448.843217,403.844861,448.000453,405.878932,448,408L448,424L384,424L384,408C384.000077,405.878238,383.157273,403.843351,381.657000,402.343000L338.628000,359.313000C336.328534,357.053833,335.418131,353.734536,336.243273,350.618365C337.068414,347.502194,339.502194,345.068414,342.618365,344.243273C345.734536,343.418131,349.053833,344.328534,351.313000,346.628000L370.343000,365.657000C372.630989,367.945107,376.072035,368.629610,379.061507,367.391311C382.050979,366.153013,384.000118,363.235789,384,360L384,272C384,267.581722,387.581722,264,392,264C396.418278,264,400,267.581722,400,272L400,312C400,316.418278,403.581722,320,408,320L442.745000,320C457.813956,319.999404,471.399338,329.076606,477.165794,342.998583C482.932250,356.920559,479.744064,372.945341,469.088000,383.600000Z" transform="matrix(1 0 0 1 32.00046550000076 317.46031800000003)" fill="rgb(255,255,255)" stroke="none" stroke-width="1"/>
</g>
</g>
<script>
<![CDATA[!function(t,n){"object"==typeof exports&&"undefined"!=typeof module?module.exports=n():"function"==typeof define&&define.amd?define(n):(t=t||self).__SVGATOR_PLAYER__=n()}(this,(function(){"use strict";function t(n){return(t="function"==typeof Symbol&&"symbol"==typeof Symbol.iterator?function(t){return typeof t}:function(t){return t&&"function"==typeof Symbol&&t.constructor===Symbol&&t!==Symbol.prototype?"symbol":typeof t})(n)}function n(t,n){if(!(t instanceof n))throw new TypeError("Cannot call a class as a function")}function r(t,n){for(var r=0;r<n.length;r++){var e=n[r];e.enumerable=e.enumerable||!1,e.configurable=!0,"value"in e&&(e.writable=!0),Object.defineProperty(t,e.key,e)}}function e(t,n,e){return n&&r(t.prototype,n),e&&r(t,e),t}var i=1e-5,u=Math.abs;function o(t){return t}function a(t,n,r){var e=1-r;return 3*r*e*(t*e+n*r)+r*r*r}function l(){var t=arguments.length>0&&void 0!==arguments[0]?arguments[0]:0,n=arguments.length>
1&&void 0!==arguments[1]?arguments[1]:0,r=arguments.length>2&&void 0!==arguments[2]?arguments[2]:1,e=arguments.length>3&&void 0!==arguments[3]?arguments[3]:1;return t<0||t>1||r<0||r>1?null:u(t-n)<=i&&u(r-e)<=i?o:function(o){if(o<=0)return t>0?o*n/t:0===n&&r>0?o*e/r:0;if(o>=1)return r<1?1+(o-1)*(e-1)/(r-1):1===r&&t<1?1+(o-1)*(n-1)/(t-1):1;for(var l,f=0,s=1;f<s;){var c=a(t,r,l=(f+s)/2);if(u(o-c)<i)break;c<o?f=l:s=l}return a(n,e,l)}}function f(){return 1}function s(t){return 1===t?1:0}function c(){var t=arguments.length>0&&void 0!==arguments[0]?arguments[0]:1,n=arguments.length>1&&void 0!==arguments[1]?arguments[1]:0;if(1===t){if(0===n)return s;if(1===n)return f}var r=1/t;return function(t){return t>=1?1:(t+=n*r)-t%r}}function v(t){var n=arguments.length>1&&void 0!==arguments[1]?arguments[1]:2;if(Number.isInteger(t))return t;var r=Math.pow(10,n);return Math.round(t*r)/r}var h=Math.PI/180;function y(t,n,r){return t>=.5?r:n}function d(t,n,r){return 0===t||n===r?n:t*(r-n)+n}function g(t,n,r){var e=d(t,n,r);return e<=0?0:e}function m(t,n,r){return 0===t?n:1===t?r:{x:d(t,n.x,r.x),y:d(t,n.y,r.y)}}function p(t,n,r){return 0===t?n:1===t?r:{x:g(t,n.x,r.x),y:g(t,n.y,r.y)}}function b(t,n,r){var e=function(t,n,r){return Math.round(d(t,n,r))}(t,n,r);return e<=0?0:e>=255?255:e}function w(t,n,r){return 0===t?n:1===t?r:{r:b(t,n.r,r.r),g:b(t,n.g,r.g),b:b(t,n.b,r.b),a:d(t,null==n.a?1:n.a,null==r.a?1:r.a)}}function A(t,n,r){if(0===t)return n;if(1===t)return r;var e=n.length;if(e!==r.length)return y(t,n,r);for(var i=[],u=0;u<e;u++)i.push(w(t,n[u],r[u]));return i}function x(t,n,r){var e=n.length;if(e!==r.length)return y(t,n,r);for(var i=new Array(e),u=0;u<e;u++)i[u]=d(t,n[u],r[u]);return i}function k(t,n){for(var r=[],e=0;e<t;e++)r.push(n);return r}function S(t,n){if(--n<=0)return t;var r=(t=Object.assign([],t)).length;do{for(var e=0;e<r;e++)t.push(t[e])}while(--n>0);return t}var _=6,M=/\.0+$/g;function I(t){return Number.isInteger(t)?t+"":t.toFixed(_).replace(M,"")}function E(t){var n=arguments.length>1&&void 0!==arguments[1]?arguments[1]:" ";return t&&t.length?t.map(I).join(n):""}function F(t){return I(t.x)+","+I(t.y)}function B(t){return t?null==t.a||t.a>=1?"rgb("+t.r+","+t.g+","+t.b+")":"rgba("+t.r+","+t.g+","+t.b+","+t.a+")":"transparent"}var j={f:null,i:p,u:function(t,n){return function(r){var e=n(r);t.setAttribute("rx",I(e.x)),t.setAttribute("ry",I(e.y))}}},q={f:null,i:function(t,n,r){return 0===t?n:1===t?r:{width:g(t,n.width,r.width),height:g(t,n.height,r.height)}},u:function(t,n){return function(r){var e=n(r);t.setAttribute("width",I(e.width)),t.setAttribute("height",I(e.height))}}},P=Math.sin,O=Math.cos,z=Math.acos,L=Math.asin,C=Math.tan,R=Math.atan2,T=Math.PI/180,V=180/Math.PI,D=Math.sqrt,N=function(){function t(){var r=arguments.length>0&&void 0!==arguments[0]?arguments[0]:1,e=arguments.length>1&&void 0!==arguments[1]?arguments[1]:0,i=arguments.length>2&&void 0!==arguments[2]?arguments[2]:0,u=arguments.length>3&&void 0!==arguments[3]?arguments[3]:1,o=arguments.length>4&&void 0!==arguments[4]?arguments[4]:0,a=arguments.length>5&&void 0!==arguments[5]?arguments[5]:0;n(this,t),this.m=[r,e,i,u,o,a],this.i=null,this.w=null,this.s=null}return e(t,[{key:"point",value:function(t,n){var r=this.m;return{x:r[0]*t+r[2]*n+r[4],y:r[1]*t+r[3]*n+r[5]}}},{key:"translateSelf",value:function(){var t=arguments.length>0&&void 0!==arguments[0]?arguments[0]:0,n=arguments.length>1&&void 0!==arguments[1]?arguments[1]:0;if(!t&&!n)return this;var r=this.m;return r[4]+=r[0]*t+r[2]*n,r[5]+=r[1]*t+r[3]*n,this.w=this.s=this.i=null,this}},{key:"rotateSelf",value:function(){var t=arguments.length>0&&void 0!==arguments[0]?arguments[0]:0;if(t%=360){var n=P(t*=T),r=O(t),e=this.m,i=e[0],u=e[1];e[0]=i*r+e[2]*n,e[1]=u*r+e[3]*n,e[2]=e[2]*r-i*n,e[3]=e[3]*r-u*n,this.w=this.s=this.i=null}return this}},{key:"scaleSelf",value:function(){var t=arguments.length>0&&void 0!==arguments[0]?arguments[0]:1,n=arguments.length>1&&void 0!==arguments[1]?arguments[1]:1;if(1!==t||1!==n){var r=this.m;r[0]*=t,r[1]*=t,r[2]*=n,r[3]*=n,this.w=this.s=this.i=null}return this}},{key:"skewSelf",value:function(t,n){if(n%=360,(t%=360)||n){var r=this.m,e=r[0],i=r[1],u=r[2],o=r[3];t&&(t=C(t*T),r[2]+=e*t,r[3]+=i*t),n&&(n=C(n*T),r[0]+=u*n,r[1]+=o*n),this.w=this.s=this.i=null}return this}},{key:"resetSelf",value:function(){var t=arguments.length>0&&void 0!==arguments[0]?arguments[0]:1,n=arguments.length>1&&void 0!==arguments[1]?arguments[1]:0,r=arguments.length>2&&void 0!==arguments[2]?arguments[2]:0,e=arguments.length>3&&void 0!==arguments[3]?arguments[3]:1,i=arguments.length>4&&void 0!==arguments[4]?arguments[4]:0,u=arguments.length>5&&void 0!==arguments[5]?arguments[5]:0,o=this.m;return o[0]=t,o[1]=n,o[2]=r,o[3]=e,o[4]=i,o[5]=u,this.w=this.s=this.i=null,this}},{key:"recomposeSelf",value:function(){var t=arguments.length>0&&void 0!==arguments[0]?arguments[0]:null,n=arguments.length>1&&void 0!==arguments[1]?arguments[1]:null,r=arguments.length>2&&void 0!==arguments[2]?arguments[2]:null,e=arguments.length>3&&void 0!==arguments[3]?arguments[3]:null,i=arguments.length>4&&void 0!==arguments[4]?arguments[4]:null;return this.isIdentity||this.resetSelf(),t&&(t.x||t.y)&&this.translateSelf(t.x,t.y),n&&this.rotateSelf(n),r&&(r.x&&this.skewSelf(r.x,0),r.y&&this.skewSelf(0,r.y)),!e||1===e.x&&1===e.y||this.scaleSelf(e.x,e.y),i&&(i.x||i.y)&&this.translateSelf(i.x,i.y),this}},{key:"decompose",value:function(){var t=arguments.length>0&&void 0!==arguments[0]?arguments[0]:0,n=arguments.length>1&&void 0!==arguments[1]?arguments[1]:0,r=this.m,e=r[0]*r[0]+r[1]*r[1],i=[[r[0],r[1]],[r[2],r[3]]],u=D(e);if(0===u)return{origin:{x:r[4],y:r[5]},translate:{x:t,y:n},scale:{x:0,y:0},skew:{x:0,y:0},rotate:0};i[0][0]/=u,i[0][1]/=u;var o=r[0]*r[3]-r[1]*r[2]<0;o&&(u=-u);var a=i[0][0]*i[1][0]+i[0][1]*i[1][1];i[1][0]-=i[0][0]*a,i[1][1]-=i[0][1]*a;var l=D(i[1][0]*i[1][0]+i[1][1]*i[1][1]);if(0===l)return{origin:{x:r[4],y:r[5]},translate:{x:t,y:n},scale:{x:u,y:0},skew:{x:0,y:0},rotate:0};i[1][0]/=l,i[1][1]/=l,a/=l;var f=0;return i[1][1]<0?(f=z(i[1][1])*V,i[0][1]<0&&(f=360-f)):f=L(i[0][1])*V,o&&(f=-f),a=R(a,D(i[0][0]*i[0][0]+i[0][1]*i[0][1]))*V,{origin:{x:r[4],y:r[5]},translate:{x:t,y:n},scale:{x:u,y:l},skew:{x:a,y:0},rotate:f}}},{key:"toString",value:function(){return null===this.s&&(this.s="matrix("+this.m.map($).join(" ")+")"),this.s}},{key:"determinant",get:function(){var t=this.m;return t[0]*t[3]-t[1]*t[2]}},{key:"isIdentity",get:function(){if(null===this.i){var t=this.m;this.i=1===t[0]&&0===t[1]&&0===t[2]&&1===t[3]&&0===t[4]&&0===t[5]}return this.i}}]),t}(),G=/\.0+$/;function $(t){return Number.isInteger(t)?t:t.toFixed(14).replace(G,"")}Object.freeze({M:2,L:2,Z:0,H:1,V:1,C:6,Q:4,T:2,S:4,A:7});function H(t,n,r){return t+(n-t)*r}function Q(t,n,r){var e=arguments.length>3&&void 0!==arguments[3]&&arguments[3],i={x:H(t.x,n.x,r),y:H(t.y,n.y,r)};return e&&(i.a=function(t,n){return Math.atan2(n.y-t.y,n.x-t.x)}(t,n)),i}function U(t,n,r,e){var i=1-e;return i*i*t+2*i*e*n+e*e*r}function Y(t,n,r,e){return 2*(1-e)*(n-t)+2*e*(r-n)}function Z(t,n,r,e){var i=arguments.length>4&&void 0!==arguments[4]&&arguments[4],u={x:U(t.x,n.x,r.x,e),y:U(t.y,n.y,r.y,e)};return i&&(u.a=function(t,n,r,e){return Math.atan2(Y(t.y,n.y,r.y,e),Y(t.x,n.x,r.x,e))}(t,n,r,e)),u}function J(t,n,r,e,i){var u=i*i;return i*u*(e-t+3*(n-r))+3*u*(t+r-2*n)+3*i*(n-t)+t}function K(t,n,r,e,i){var u=1-i;return 3*(u*u*(n-t)+2*u*i*(r-n)+i*i*(e-r))}function W(t,n,r,e,i){var u=arguments.length>5&&void 0!==arguments[5]&&arguments[5],o={x:J(t.x,n.x,r.x,e.x,i),y:J(t.y,n.y,r.y,e.y,i)};return u&&(o.a=function(t,n,r,e,i){return Math.atan2(K(t.y,n.y,r.y,e.y,i),K(t.x,n.x,r.x,e.x,i))}(t,n,r,e,i)),o}function X(t,n,r){var e,i=arguments.length>3&&void 0!==arguments[3]&&arguments[3];if(nt(n)){if(null!=(e=r).start&&!nt(e))return Z(n,r.start,r,t,i)}else if(nt(r)){if(n.end)return Z(n,n.end,r,t,i)}else{if(n.end)return r.start?W(n,n.end,r.start,r,t,i):Z(n,n.end,r,t,i);if(r.start)return Z(n,r.start,r,t,i)}return Q(n,r,t,i)}function tt(t,n,r){var e=X(t,n,r,!0);return e.a=function(t){return arguments.length>1&&void 0!==arguments[1]&&arguments[1]?t+Math.PI:t}(e.a)/h,e}function nt(t){return!t.type||"corner"===t.type}var rt=new N;var et={f:function(t){return t?t.join(" "):""},i:function(n,r,e){if(0===n)return r;if(1===n)return e;var i=r.length;if(i!==e.length)return y(n,r,e);for(var u,o=new Array(i),a=0;a<i;a++){if((u=t(r[a]))!==t(e[a]))return y(n,r,e);if("number"===u)o[a]=d(n,r[a],e[a]);else{if(r[a]!==e[a])return y(n,r,e);o[a]=r[a]}}return o}},it={f:null,i:x,u:function(t,n){return function(r){var e=n(r);t.setAttribute("x1",I(e[0])),t.setAttribute("y1",I(e[1])),t.setAttribute("x2",I(e[2])),t.setAttribute("y2",I(e[3]))}}},ut={f:I,i:d},ot={f:I,i:function(t,n,r){var e=d(t,n,r);return e<=0?0:e>=1?1:e}},at={f:E,i:function(t,n,r){var e,i,u,o=n.length,a=r.length;if(o!==a)if(0===o)n=k(o=a,0);else if(0===a)a=o,r=k(o,0);else{var l=(u=(e=o)*(i=a)/function(t,n){for(var r;n;)r=n,n=t%n,t=r;return t||1}(e,i))<0?-u:u;n=S(n,Math.floor(l/o)),r=S(r,Math.floor(l/a)),o=a=l}for(var f=[],s=0;s<o;s++)f.push(v(g(t,n[s],r[s]),6));return f}};function lt(t,n,r,e,i,u,o,a){return n=function(t,n,r){for(var e,i,u,o=t.length-1,a={},l=0;l<=o;l++)(e=t[l]).e&&(e.e=n(e.e)),e.v&&"g"===(i=e.v).t&&i.r&&(u=r.getElementById(i.r))&&(a[i.r]=u.querySelectorAll("stop"));return a}(t,e,a),function(e){var i,u=r(e,t,ft);return u?"c"===u.t?B(u.v):"g"===u.t?(n[u.r]&&function(t,n){for(var r=0,e=t.length;r<e;r++)t[r].setAttribute("stop-color",B(n[r]))}(n[u.r],u.v),(i=u.r)?"url(#"+i+")":"none"):"none":"none"}}function ft(t,n,r){if(0===t)return n;if(1===t)return r;if(n&&r){var e=n.t;if(e===r.t)switch(n.t){case"c":return{t:e,v:w(t,n.v,r.v)};case"g":if(n.r===r.r)return{t:e,v:A(t,n.v,r.v),r:n.r}}}return y(t,n,r)}var st={blur:p,brightness:g,contrast:g,"drop-shadow":function(t,n,r){return 0===t?n:1===t?r:{blur:p(t,n.blur,r.blur),offset:m(t,n.offset,r.offset),color:w(t,n.color,r.color)}},grayscale:g,"hue-rotate":d,invert:g,opacity:g,saturate:g,sepia:g};function ct(t,n,r){if(0===t)return n;if(1===t)return r;var e=n.length;if(e!==r.length)return y(t,n,r);for(var i,u=[],o=0;o<e;o++){if(n[o].type!==r[o].type)return n;if(!(i=st[n[o].type]))return y(t,n,r);u.push({type:n.type,value:i(t,n[o].value,r[o].value)})}return u}var vt={blur:function(t){return t?function(n){t.setAttribute("stdDeviation",F(n))}:null},brightness:function(t,n,r){return(t=yt(r,n))?function(n){n=I(n),t.map((function(t){return t.setAttribute("slope",n)}))}:null},contrast:function(t,n,r){return(t=yt(r,n))?function(n){var r=I((1-n)/2);n=I(n),t.map((function(t){t.setAttribute("slope",n),t.setAttribute("intercept",r)}))}:null},"drop-shadow":function(t,n,r){var e=r.getElementById(n+"-blur");if(!e)return null;var i=r.getElementById(n+"-offset");if(!i)return null;var u=r.getElementById(n+"-flood");return u?function(t){e.setAttribute("stdDeviation",F(t.blur)),i.setAttribute("dx",I(t.offset.x)),i.setAttribute("dy",I(t.offset.y)),u.setAttribute("flood-color",B(t.color))}:null},grayscale:function(t){return t?function(n){t.setAttribute("values",E(function(t){return[.2126+.7874*(t=1-t),.7152-.7152*t,.0722-.0722*t,0,0,.2126-.2126*t,.7152+.2848*t,.0722-.0722*t,0,0,.2126-.2126*t,.7152-.7152*t,.0722+.9278*t,0,0,0,0,0,1,0]}(n)))}:null},"hue-rotate":function(t){return t?function(n){return t.setAttribute("values",I(n))}:null},invert:function(t,n,r){return(t=yt(r,n))?function(n){n=I(n)+" "+I(1-n),t.map((function(t){return t.setAttribute("tableValues",n)}))}:null},opacity:function(t,n,r){return(t=r.getElementById(n+"-A"))?function(n){return t.setAttribute("tableValues","0 "+I(n))}:null},saturate:function(t){return t?function(n){return t.setAttribute("values",I(n))}:null},sepia:function(t){return t?function(n){return t.setAttribute("values",E(function(t){return[.393+.607*(t=1-t),.769-.769*t,.189-.189*t,0,0,.349-.349*t,.686+.314*t,.168-.168*t,0,0,.272-.272*t,.534-.534*t,.131+.869*t,0,0,0,0,0,1,0]}(n)))}:null}};var ht=["R","G","B"];function yt(t,n){var r=ht.map((function(r){return t.getElementById(n+"-"+r)||null}));return-1!==r.indexOf(null)?null:r}var dt={fill:lt,"fill-opacity":ot,stroke:lt,"stroke-opacity":ot,"stroke-width":ut,"stroke-dashoffset":{f:I,i:d},"stroke-dasharray":at,opacity:ot,transform:function(n,r,e,i){if(!(n=function(n,r){if(!n||"object"!==t(n))return null;var e=!1;for(var i in n)n.hasOwnProperty(i)&&(n[i]&&n[i].length?(n[i].forEach((function(t){t.e&&(t.e=r(t.e))})),e=!0):delete n[i]);return e?n:null}(n,i)))return null;var u=function(t,i,u){var o=arguments.length>3&&void 0!==arguments[3]?arguments[3]:null;return n[t]?e(i,n[t],u):r&&r[t]?r[t]:o};return r&&r.a&&n.o?function(t){var r=e(t,n.o,tt);return rt.recomposeSelf(r,u("r",t,d,0)+r.a,u("k",t,m),u("s",t,m),u("t",t,m)).toString()}:function(t){return rt.recomposeSelf(u("o",t,X,null),u("r",t,d,0),u("k",t,m),u("s",t,m),u("t",t,m)).toString()}},"#filter":function(t,n,r,e,i,u,o,a){if(!n.items||!t||!t.length)return null;var l=function(t,n){var r=(t=t.map((function(t){return t&&vt[t[0]]?(n.getElementById(t[1]),vt[t[0]](n.getElementById(t[1]),t[1],n)):null}))).length;return function(n){for(var e=0;e<r;e++)t[e]&&t[e](n[e].value)}}(n.items,a);return l?(t=function(t,n){return t.map((function(t){return t.e=n(t.e),t}))}(t,e),function(n){l(r(n,t,ct))}):null},"#line":it,points:{f:E,i:x},d:et,r:ut,"#size":q,"#radius":j,_:function(t,n){if(Array.isArray(t))for(var r=0;r<t.length;r++)this[t[r]]=n;else this[t]=n}},gt=function(){function t(r){n(this,t),this.list=r,this.length=r.length}return e(t,[{key:"setAttribute",value:function(t,n){for(var r=this.list,e=0;e<this.length;e++)r[e].setAttribute(t,n)}},{key:"removeAttribute",value:function(t){for(var n=this.list,r=0;r<this.length;r++)n[r].removeAttribute(t)}},{key:"style",value:function(t,n){for(var r=this.list,e=0;e<this.length;e++)r[e].style[t]=n}}]),t}(),mt=/-./g,pt=function(t,n){return n.toUpperCase()};function bt(t){return"function"==typeof t?t:y}function wt(t){return t?"function"==typeof t?t:Array.isArray(t)?function(t){var n=arguments.length>1&&void 0!==arguments[1]?arguments[1]:o;if(!Array.isArray(t))return n;switch(t.length){case 1:return c(t[0])||n;case 2:return c(t[0],t[1])||n;case 4:return l(t[0],t[1],t[2],t[3])||n}return n}(t,null):function(t,n){var r=arguments.length>2&&void 0!==arguments[2]?arguments[2]:o;switch(t){case"linear":return o;case"steps":return c(n.steps||1,n.jump||0)||r;case"bezier":case"cubic-bezier":return l(n.x1||0,n.y1||0,n.x2||0,n.y2||0)||r}return r}(t.type,t.value,null):null}function At(t,n,r){var e=arguments.length>3&&void 0!==arguments[3]&&arguments[3],i=n.length-1;if(t<=n[0].t)return e?[0,0,n[0].v]:n[0].v;if(t>=n[i].t)return e?[i,1,n[i].v]:n[i].v;var u,o=n[0],a=null;for(u=1;u<=i;u++){if(!(t>n[u].t)){a=n[u];break}o=n[u]}return null==a?e?[i,1,n[i].v]:n[i].v:o.t===a.t?e?[u,1,a.v]:a.v:(t=(t-o.t)/(a.t-o.t),o.e&&(t=o.e(t)),e?[u,t,r(t,o.v,a.v)]:r(t,o.v,a.v))}function xt(t,n){var r=arguments.length>2&&void 0!==arguments[2]?arguments[2]:null;return t&&t.length?"function"!=typeof n?null:("function"!=typeof r&&(r=null),function(e){var i=At(e,t,n);return null!=i&&r&&(i=r(i)),i}):null}function kt(t,n){return t.t-n.t}function St(n,r,e,i,u){var o,a="@"===e[0],l="#"===e[0],f=dt[e],s=y;switch(a?(o=e.substr(1),e=o.replace(mt,pt)):l&&(e=e.substr(1)),t(f)){case"function":if(s=f(i,u,At,wt,e,a,r,n),l)return s;break;case"string":s=xt(i,bt(f));break;case"object":if((s=xt(i,bt(f.i),f.f))&&"function"==typeof f.u)return f.u(r,s,e,a,n)}return s?function(t,n,r){if(arguments.length>3&&void 0!==arguments[3]&&arguments[3])return t instanceof gt?function(e){return t.style(n,r(e))}:function(e){return t.style[n]=r(e)};if(Array.isArray(n)){var e=n.length;return function(i){var u=r(i);if(null==u)for(var o=0;o<e;o++)t[o].removeAttribute(n);else for(var a=0;a<e;a++)t[a].setAttribute(n,u)}}return function(e){var i=r(e);null==i?t.removeAttribute(n):t.setAttribute(n,i)}}(r,e,s,a):null}function _t(n,r,e,i){if(!i||"object"!==t(i))return null;var u=null,o=null;return Array.isArray(i)?o=function(t){if(!t||!t.length)return null;for(var n=0;n<t.length;n++)t[n].e&&(t[n].e=wt(t[n].e));return t.sort(kt)}(i):(o=i.keys,u=i.data||null),o?St(n,r,e,o,u):null}function Mt(t,n,r){if(!r)return null;var e=[];for(var i in r)if(r.hasOwnProperty(i)){var u=_t(t,n,i,r[i]);u&&e.push(u)}return e.length?e:null}function It(t,n){if(!n.duration||n.duration<0)return null;var r=function(t,n){if(!n)return null;var r=[];if(Array.isArray(n))for(var e=n.length,i=0;i<e;i++){var u=n[i];if(2===u.length){var o=null;if("string"==typeof u[0])o=t.getElementById(u[0]);else if(Array.isArray(u[0])){o=[];for(var a=0;a<u[0].length;a++)if("string"==typeof u[0][a]){var l=t.getElementById(u[0][a]);l&&o.push(l)}o=o.length?1===o.length?o[0]:new gt(o):null}if(o){var f=Mt(t,o,u[1]);f&&(r=r.concat(f))}}}else for(var s in n)if(n.hasOwnProperty(s)){var c=t.getElementById(s);if(c){var v=Mt(t,c,n[s]);v&&(r=r.concat(v))}}return r.length?r:null}(t,n.elements);return r?function(t,n){var r=arguments.length>2&&void 0!==arguments[2]?arguments[2]:1/0,e=arguments.length>3&&void 0!==arguments[3]?arguments[3]:1,i=arguments.length>4&&void 0!==arguments[4]&&arguments[4],u=arguments.length>5&&void 0!==arguments[5]?arguments[5]:1,o=t.length,a=e>0?n:0;i&&r%2==0&&(a=n-a);var l=null;return function(f,s){var c=f%n,v=1+(f-c)/n;s*=e,i&&v%2==0&&(s=-s);var h=!1;if(v>r)c=a,h=!0,-1===u&&(c=e>0?0:n);else if(s<0&&(c=n-c),c===l)return!1;l=c;for(var y=0;y<o;y++)t[y](c);return h}}(r,n.duration,n.iterations||1/0,n.direction||1,!!n.alternate,n.fill||1):null}var Et=function(){function t(r){var e=arguments.length>1&&void 0!==arguments[1]?arguments[1]:{};n(this,t),this._id=0,this._running=!1,this._animations=r,this.direction=e.direction||1,this.speed=e.speed||1,this.fps=e.fps||100,this.offset=e.offset||0}return e(t,[{key:"_start",value:function(){var t=this,n=arguments.length>0&&void 0!==arguments[0]?arguments[0]:0,r=-1/0,e=null,i={},u=function u(o){t._running=!0,null==e&&(e=o);var a=Math.round((o-e+n)*t.speed),l=t.fps?1e3/t.fps:0;if(a>r+l){t.offset=a,r=a;for(var f=t._animations,s=f.length,c=0,v=0;v<s;v++)i[v]?c++:(i[v]=f[v](a,t.direction),i[v]&&c++);if(c===s)return void t._stop()}t._id=window.requestAnimationFrame(u)};this._id=window.requestAnimationFrame(u)}},{key:"_stop",value:function(){this._id&&window.cancelAnimationFrame(this._id),this._running=!1}},{key:"play",value:function(){this._running||this._start(this.offset)}},{key:"stop",value:function(){this._stop(),this.offset=0;var t=this.direction,n=this._animations;requestAnimationFrame((function(){for(var r=0;r<n.length;r++)n[r](0,t)}))}},{key:"restart",value:function(){this._stop(),this.offset=0,this._start()}},{key:"pause",value:function(){this._stop()}},{key:"reverse",value:function(){this.direction=-this.direction}}],[{key:"build",value:function(n){if(!(n=function(t){if(!t||!t.root||!Array.isArray(t.animations))return null;var n=window.document.getElementById(t.root);if(!n)return null;var r=t.animations.map((function(t){return It(n,t)})).filter((function(t){return!!t}));return r.length?{element:n,animations:r,options:t.options||void 0}:null}(n)))return null;var r=n.element,e=n.options||{},i=new t(n.animations,n.options);return function(t,n,r){var e=arguments.length>3&&void 0!==arguments[3]?arguments[3]:null;if("click"===r){return void n.addEventListener("click",(function r(){n.removeEventListener("click",r),t.play()}))}if("hover"===r)return n.addEventListener("mouseenter",(function(){return t.play()})),void n.addEventListener("mouseleave","freeze"===e?function(){return t.pause()}:function(){return t.stop()});t.play()}(i,r,e.start,e.hover),i}}]),t}();return function(){for(var t=0,n=["ms","moz","webkit","o"],r=0;r
<n.length&&!window.requestAnimationFrame;++r)window.requestAnimationFrame=window[n[r]+"RequestAnimationFrame"],window.cancelAnimationFrame=window[n[r]+"CancelAnimationFrame"]||window[n[r]+"CancelRequestAnimationFrame"];window.requestAnimationFrame||(window.requestAnimationFrame=function(n){var r=Date.now(),e=Math.max(0,16-(r-t)),i=window.setTimeout((function(){n(r+e)}),e);return t=r+e,i},window.cancelAnimationFrame=window.clearTimeout)}(),Et}));
__SVGATOR_PLAYER__.build({"root":"edtjjbmnz7ea1","animations":[{"duration":2000,"direction":1,"iterations":1,"fill":1,"alternate":false,"elements":{"edtjjbmnz7ea5":{"transform":{"keys":{"o":[{"t":0,"v":{"x":-328.0423279999999,"y":-120.00000082000003,"type":"corner"}},{"t":1000,"v":{"x":-3.096035190000066,"y":-0.7123349099999086,"type":"corner"}}]}}},"edtjjbmnz7ea6":{"transform":{"keys":{"o":[{"t":0,"v":{"x":-328.0423279999999,"y":-120.00000082000003,"type":"corner"}},{"t":1000,"v":{"x":-3.096035190000066,"y":-0.7123349099999086,"type":"corner"}}]}}},"edtjjbmnz7ea7":{"transform":{"keys":{"o":[{"t":0,"v":{"x":0.005260239999984151,"y":253.96825400000006,"type":"corner"}},{"t":1000,"v":{"x":0,"y":0,"type":"corner"}}]}}},"edtjjbmnz7ea8":{"transform":{"keys":{"o":[{"t":0,"v":{"x":7.9365080000000034,"y":283.1839238099992,"type":"corner"}},{"t":1000,"v":{"x":0,"y":0,"type":"corner"}}]}}},"edtjjbmnz7ea9":{"transform":{"keys":{"o":[{"t":0,"v":{"x":0.005260239999984151,"y":253.96825400000006,"type":"corner"}},{"t":1000,"v":{"x":0,"y":0,"type":"corner"}}]}}},"edtjjbmnz7ea10":{"transform":{"keys":{"o":[{"t":0,"v":{"x":251.32275099999998,"y":-66.137566,"type":"corner"}},{"t":1000,"v":{"x":0,"y":0,"type":"corner"}}]}}},"edtjjbmnz7ea11":{"transform":{"keys":{"o":[{"t":0,"v":{"x":251.32275099999998,"y":-66.137566,"type":"corner"}},{"t":1000,"v":{"x":0,"y":0,"type":"corner"}}]}}},"edtjjbmnz7ea12":{"transform":{"keys":{"o":[{"t":1000,"v":{"x":32.00046550000076,"y":317.46031800000003,"type":"corner"}},{"t":1600,"v":{"x":0,"y":0,"type":"corner"}}]}}}}}],"options":{"start":"load","hover":"freeze"}})]]>
</script>
</svg>
