<?xml version="1.0" encoding="utf-8"?>
<!-- Generator: Adobe Illustrator 23.0.2, SVG Export Plug-In . SVG Version: 6.00 Build 0)  -->
<svg version="1.1" id="Layer_1" xmlns="http://www.w3.org/2000/svg" xmlns:xlink="http://www.w3.org/1999/xlink" x="0px" y="0px"
	 viewBox="0 0 512 512" style="enable-background:new 0 0 512 512;" xml:space="preserve">
<style type="text/css">
	.st0{fill:#66CCFF;}
	.st1{fill:#00699E;}
	.st2{fill:#D36B26;}
	.st3{fill:#00A551;}
	.st4{fill:#16ABE2;}
	.st5{fill:#FDBF0F;}
	.st6{fill:#A5CD39;}
	.st7{fill-rule:evenodd;clip-rule:evenodd;fill:url(#SVGID_1_);}
	.st8{fill-rule:evenodd;clip-rule:evenodd;fill:url(#SVGID_2_);}
	.st9{fill-rule:evenodd;clip-rule:evenodd;fill:url(#SVGID_3_);}
	.st10{fill-rule:evenodd;clip-rule:evenodd;fill:#00537D;}
	.st11{fill-rule:evenodd;clip-rule:evenodd;fill:url(#SVGID_4_);}
	.st12{fill-rule:evenodd;clip-rule:evenodd;fill:url(#SVGID_5_);}
	.st13{fill-rule:evenodd;clip-rule:evenodd;fill:url(#SVGID_6_);}
	.st14{fill-rule:evenodd;clip-rule:evenodd;fill:url(#SVGID_7_);}
	.st15{fill-rule:evenodd;clip-rule:evenodd;fill:url(#SVGID_8_);}
	.st16{fill-rule:evenodd;clip-rule:evenodd;fill:url(#SVGID_9_);}
	.st17{fill-rule:evenodd;clip-rule:evenodd;fill:#A65F1D;}
	.st18{fill-rule:evenodd;clip-rule:evenodd;fill:#008241;}
	.st19{fill-rule:evenodd;clip-rule:evenodd;fill:url(#SVGID_10_);}
	.st20{fill-rule:evenodd;clip-rule:evenodd;fill:url(#SVGID_11_);}
	.st21{fill-rule:evenodd;clip-rule:evenodd;fill:url(#SVGID_12_);}
	.st22{fill:#DBD9DC;}
	.st23{fill:#C9C6CA;}
	.st24{fill:#CCF4EF;}
	.st25{fill:#00537D;}
	.st26{fill:#FFFFFF;}
</style>
<path class="st0" d="M810.5,164.4c56.4-31.2,56.8-97.1-0.1-129.8c7.9-0.2,15.8-0.9,23.7-0.5c22,1,41.8,8,58.2,23
	c28.3,26,26.7,63.9-3.7,89.1c-2.9,2.4-4.5,4.6-3.6,8.4c2.8,11.9,5.4,23.8,8.2,35.7c0.8,3.3,2.3,6.6-1.2,9.1c-3.5,2.5-6.2,0.5-9-1.6
	c-13.8-10.1-27.6-20.1-41.5-30.1c-1.3-1-3.3-1.3-5-1.3c-8.7-0.1-17.3-0.1-26-0.1C810.5,165.6,810.5,165,810.5,164.4z"/>
<title>001 - Thinking</title>
<desc>Created with Sketch.</desc>
<rect x="0.5" y="-194.6" class="st1" width="86" height="59"/>
<rect x="142.3" y="-194.6" class="st2" width="86" height="59"/>
<rect x="298.9" y="-194.6" class="st3" width="86" height="59"/>
<rect x="0.5" y="-122.6" class="st4" width="86" height="59"/>
<rect x="142.3" y="-122.6" class="st5" width="86" height="59"/>
<rect x="298.9" y="-122.6" class="st6" width="86" height="59"/>
<g>
	<linearGradient id="SVGID_1_" gradientUnits="userSpaceOnUse" x1="34.3012" y1="-284.9843" x2="24.3077" y2="-307.4302">
		<stop  offset="0" style="stop-color:#00699E"/>
		<stop  offset="1" style="stop-color:#16ABE2"/>
	</linearGradient>
	<path class="st7" d="M26.5-280.4c-3.3-5.3,10.9-15.6,2.6-27c7.9,2.4,11.5,10.2,8.5,19.3C34.8-284,30.9-281.2,26.5-280.4z"/>
	<radialGradient id="SVGID_2_" cx="28.4914" cy="-293.5223" r="12.5961" gradientUnits="userSpaceOnUse">
		<stop  offset="0" style="stop-color:#16ABE2"/>
		<stop  offset="1" style="stop-color:#00699E"/>
	</radialGradient>
	<path class="st8" d="M26.5-280.4c-3.3-5.3,10.9-15.6,2.6-27c3.9,3.1,6.3,7.9,6.3,13.2c0,5.2-2.4,9.9-6.1,13
		C28.4-280.8,27.4-280.6,26.5-280.4z"/>
	<linearGradient id="SVGID_3_" gradientUnits="userSpaceOnUse" x1="61.1621" y1="-297.7993" x2="27.2755" y2="-310.133">
		<stop  offset="0" style="stop-color:#00699E"/>
		<stop  offset="1" style="stop-color:#16ABE2"/>
	</linearGradient>
	<path class="st9" d="M40.8-320.5c-1.7-2-3.5-3.7-5.5-5c-0.4,0.5-0.8,1-1.2,1.5c-1.4,1.9-1.2,4.5,0.5,6.2c4,3.9,6.6,9.9,6.6,16.6
		c0,5-1.4,9.5-3.7,13.1c-0.6,1,6-6.6,6-18.7C43.5-311.9,42.5-316.6,40.8-320.5z"/>
	<path class="st10" d="M41-304.6c0.1,1.1,0.2,2.2,0.2,3.3c0,5-1.4,9.5-3.7,13.1c-0.6,1,6-6.6,6-18.7c0-5-1-9.7-2.7-13.7
		c0.7,2.7,1,5.7,1,8.8C41.8-309.2,41.5-306.7,41-304.6L41-304.6z M26.5-280.4c-0.5-0.8-0.6-1.8-0.4-2.8c1.6,1,4.5,0.1,6.1-1.1
		c2.7-2,4.9-4.9,6.3-8.3c-0.1,1.5-0.5,3-1,4.6C34.8-284,30.9-281.2,26.5-280.4z"/>
	<linearGradient id="SVGID_4_" gradientUnits="userSpaceOnUse" x1="91.1008" y1="-292.5025" x2="72.2578" y2="-266.5673">
		<stop  offset="0" style="stop-color:#00A551"/>
		<stop  offset="1" style="stop-color:#A5CD39"/>
	</linearGradient>
	<path class="st11" d="M94.3-281.6c-2.9,5.5-18.9-1.6-24.7,11.3c-1.9-8.1,3.1-15.1,12.5-17C87-287,91.4-285.1,94.3-281.6z"/>
	<radialGradient id="SVGID_5_" cx="82.2288" cy="-275.3789" r="12.4956" gradientUnits="userSpaceOnUse">
		<stop  offset="0" style="stop-color:#A5CD39"/>
		<stop  offset="1" style="stop-color:#00A551"/>
	</radialGradient>
	<path class="st12" d="M94.3-281.6c-2.9,5.5-18.9-1.6-24.7,11.3c0.8-4.9,3.7-9.4,8.3-12.1c4.5-2.6,9.8-2.9,14.3-1.2
		C93-283,93.7-282.3,94.3-281.6z"/>
	<linearGradient id="SVGID_6_" gradientUnits="userSpaceOnUse" x1="61.4563" y1="-305.4302" x2="69.1802" y2="-261.6255">
		<stop  offset="0" style="stop-color:#00A551"/>
		<stop  offset="1" style="stop-color:#A5CD39"/>
	</linearGradient>
	<path class="st13" d="M52.4-273.9c-0.9,2.4-1.4,4.9-1.6,7.3c0.6,0.1,1.3,0.2,1.9,0.3c2.4,0.3,4.5-1.2,5.1-3.6
		c1.3-5.4,5.2-10.6,11.1-14c4.3-2.5,9-3.6,13.2-3.3c1.2,0.1-8.7-1.8-19.2,4.2C58.5-280.5,55-277.4,52.4-273.9z"/>
	<linearGradient id="SVGID_7_" gradientUnits="userSpaceOnUse" x1="55.519" y1="-330.8992" x2="77.55" y2="-328.9718">
		<stop  offset="0" style="stop-color:#D56B25"/>
		<stop  offset="1" style="stop-color:#FDBD10"/>
	</linearGradient>
	<path class="st14" d="M59.4-339.7c6.2-0.2,8,17.2,22.1,15.7c-6,5.7-14.6,4.8-21-2.3C58.3-330.7,57.8-335.5,59.4-339.7z"/>
	<radialGradient id="SVGID_8_" cx="71.2694" cy="-331.5902" r="11.2264" gradientUnits="userSpaceOnUse">
		<stop  offset="0" style="stop-color:#FFC30C"/>
		<stop  offset="1" style="stop-color:#D16926"/>
	</radialGradient>
	<path class="st15" d="M59.4-339.7c6.2-0.2,8,17.2,22.1,15.7c-4.6,1.8-10,1.5-14.6-1.1c-4.5-2.6-7.4-7-8.2-11.8
		C58.8-337.9,59.1-338.8,59.4-339.7z"/>
	<linearGradient id="SVGID_9_" gradientUnits="userSpaceOnUse" x1="58.3289" y1="-302.0285" x2="82.9651" y2="-322.7007">
		<stop  offset="0" style="stop-color:#D36B26"/>
		<stop  offset="1" style="stop-color:#FDBF0F"/>
	</linearGradient>
	<path class="st16" d="M87-307.3c2.6-0.4,4.9-1.2,7.1-2.2c-0.2-0.6-0.5-1.2-0.7-1.8c-1-2.2-3.3-3.3-5.6-2.6
		c-5.3,1.5-11.8,0.8-17.7-2.6c-4.3-2.5-7.6-6-9.5-9.8c-0.5-1.1,2.8,8.5,13.3,14.5C78.2-309.3,82.7-307.8,87-307.3z"/>
	<path class="st17" d="M59.4-339.7c1,0,1.8,0.4,2.7,1c-1.7,0.9-2.3,3.9-2.1,5.9c0.4,3.3,1.8,6.7,4.1,9.7c-1.2-0.9-2.4-1.9-3.5-3.1
		C58.3-330.7,57.8-335.5,59.4-339.7L59.4-339.7z M73-315c-1-0.4-2-0.9-2.9-1.5c-4.3-2.5-7.6-6-9.5-9.8c-0.5-1.1,2.8,8.5,13.3,14.5
		c4.3,2.5,8.9,4,13.2,4.5c-2.7-0.8-5.4-1.9-8.1-3.5C76.6-312.1,74.6-313.5,73-315z"/>
	<path class="st18" d="M94.3-281.6c-0.4,0.9-1.2,1.4-2.2,1.8c0.1-1.9-2.2-3.9-4-4.7c-3.1-1.3-6.7-1.8-10.4-1.3
		c1.3-0.6,2.8-1.1,4.5-1.4C87-287,91.4-285.1,94.3-281.6L94.3-281.6z M66.1-282.1c0.9-0.7,1.8-1.3,2.7-1.8c4.3-2.5,9-3.6,13.2-3.3
		c1.2,0.1-8.7-1.8-19.2,4.2c-4.3,2.5-7.9,5.7-10.5,9.1c2-1.9,4.4-3.7,7.1-5.3C61.7-280.5,64-281.4,66.1-282.1z"/>
	<linearGradient id="SVGID_10_" gradientUnits="userSpaceOnUse" x1="108.2616" y1="-307.367" x2="57.3518" y2="-269.0037">
		<stop  offset="0" style="stop-color:#00A551"/>
		<stop  offset="1" style="stop-color:#A5CD39"/>
	</linearGradient>
	<path class="st19" d="M97.1-299.3c-8.1-1.5-17.9,0.2-26.8,5.3c-8.8,5.1-15,12.5-17.9,20.1c2.6-3.4,6.2-6.6,10.5-9.1
		c10.3-6,20.1-4.2,19.3-4.2c2.3,0.1,4.4,0.6,6.4,1.5c2.2,1,5.2,3.9,3.5,6C97.8-281.7,98.3-294.6,97.1-299.3z"/>
	<linearGradient id="SVGID_11_" gradientUnits="userSpaceOnUse" x1="29.943" y1="-338.2918" x2="73.8436" y2="-320.5548">
		<stop  offset="0" style="stop-color:#D36B26"/>
		<stop  offset="1" style="stop-color:#FDBF0F"/>
	</linearGradient>
	<path class="st20" d="M42.6-333.3c2.7,7.8,9.1,15.4,18,20.6c8.8,5.1,18.3,6.8,26.3,5.4c-4.3-0.5-8.8-2-13.2-4.5
		c-10.3-6-13.7-15.3-13.3-14.6c-1-2-1.7-4.2-1.9-6.3c-0.3-2.4,0.7-6.5,3.4-6.1C57.5-342.7,46.1-336.7,42.6-333.3z"/>
	<linearGradient id="SVGID_12_" gradientUnits="userSpaceOnUse" x1="40.2955" y1="-267.9403" x2="36.3499" y2="-300.0743">
		<stop  offset="0" style="stop-color:#00699E"/>
		<stop  offset="1" style="stop-color:#16ABE2"/>
	</linearGradient>
	<path class="st21" d="M40.4-269.1c5.4-6.2,8.8-15.5,8.8-25.9c0-10.1-3.3-19.3-8.4-25.5c1.7,4,2.7,8.6,2.7,13.7
		c0,11.9-6.4,19.5-6,18.8c-1.2,1.9-2.8,3.5-4.5,4.8c-2,1.5-6,2.6-7,0C24.8-277.3,35.8-270.4,40.4-269.1z"/>
</g>
<rect x="142.3" y="-253.2" class="st17" width="86" height="47.2"/>
<rect x="0" y="-249.3" class="st10" width="86" height="42"/>
<rect x="294.8" y="-259.8" class="st18" width="90.1" height="49.9"/>
<g>
	<path class="st22" d="M29.7,400.4l-11.3-11.3l65-65c6-6,14.2-9.4,22.6-9.4H152v16h-46.1c-4.2,0-8.3,1.7-11.3,4.7L29.7,400.4z"/>
	<path class="st22" d="M406.1,202.7H360v-16h46.1c4.2,0,8.3-1.7,11.3-4.7l65-65l11.3,11.3l-65,65
		C422.7,199.3,414.5,202.7,406.1,202.7z"/>
	<path class="st22" d="M200,154.7h-16v-46.1c0-4.3-1.7-8.3-4.7-11.3l-65-65l11.3-11.3l65,65c6,6.1,9.4,14.1,9.4,22.6V154.7z"/>
	<path class="st22" d="M386.3,496.4l-65-65c-6-6.1-9.4-14.1-9.4-22.6v-46.1h16v46.1c0,4.3,1.7,8.3,4.7,11.3l65,65L386.3,496.4z"/>
</g>
<g>
	<rect x="312" y="42.7" class="st23" width="16" height="112"/>
	<rect x="184" y="362.7" class="st23" width="16" height="112"/>
	<rect x="40" y="186.7" class="st23" width="112" height="16"/>
	<rect x="360" y="314.7" class="st23" width="112" height="16"/>
</g>
<g>
	<path class="st22" d="M280,418.7v-320c0-4.4,3.6-8,8-8l0,0c4.4,0,8,3.6,8,8v320c0,4.4-3.6,8-8,8l0,0
		C283.6,426.7,280,423.1,280,418.7z"/>
	<path class="st22" d="M216,418.7v-320c0-4.4,3.6-8,8-8l0,0c4.4,0,8,3.6,8,8v320c0,4.4-3.6,8-8,8l0,0
		C219.6,426.7,216,423.1,216,418.7z"/>
</g>
<path class="st23" d="M248,506.7v-496c0-4.4,3.6-8,8-8s8,3.6,8,8v496c0,4.4-3.6,8-8,8S248,511.1,248,506.7z"/>
<g>
	<path class="st22" d="M416,234.7H96c-4.4,0-8-3.6-8-8l0,0c0-4.4,3.6-8,8-8h320c4.4,0,8,3.6,8,8l0,0
		C424,231.1,420.4,234.7,416,234.7z"/>
	<path class="st22" d="M416,298.7H96c-4.4,0-8-3.6-8-8l0,0c0-4.4,3.6-8,8-8h320c4.4,0,8,3.6,8,8l0,0
		C424,295.1,420.4,298.7,416,298.7z"/>
</g>
<path class="st23" d="M504,266.7H8c-4.4,0-8-3.6-8-8s3.6-8,8-8h496c4.4,0,8,3.6,8,8S508.4,266.7,504,266.7z"/>
<path class="st1" d="M344,378.7H168c-17.7,0-32-14.3-32-32v-176c0-17.7,14.3-32,32-32h176c17.7,0,32,14.3,32,32v176
	C376,364.4,361.7,378.7,344,378.7z"/>
<path class="st4" d="M348.4,368H163.6c-9.3,0-16.8-7.5-16.8-16.8V166.3c0-9.3,7.5-16.8,16.8-16.8h184.9c9.3,0,16.8,7.5,16.8,16.8
	v184.9C365.2,360.4,357.7,368,348.4,368z"/>
<path class="st24" d="M336,238.7c0-16.1-11.7-29.6-27.7-34.2c0.4-1.9,0.7-3.8,0.7-5.8c0-15.4-13.7-28-30.5-28
	c-8.9,0-16.9,3.5-22.5,9.1c-5.6-5.6-13.6-9.1-22.5-9.1c-16.8,0-30.5,12.6-30.5,28c0,1.9,0.2,3.8,0.6,5.7
	c-16,4.6-27.6,18.3-27.6,34.3c0,7.8,2.8,15.2,7.9,21.3c-4.9,6.5-7.9,14.3-7.9,22.7c0,12.8,6.8,24.8,18,32.3
	c0.2,17.5,15.8,31.8,35,31.8c10.9,0,20.6-4.7,27-11.9c6.4,7.2,16.1,11.9,27,11.9c18.4,0,33.4-13.1,34.7-29.7
	c11.2-6.5,18.3-18,18.3-30.3c0-8.9-3.7-17.5-10.2-24C332.3,256.2,336,247.7,336,238.7z M308.8,269.8c7,3.7,11.2,10,11.2,16.9
	c0,4.9-2.2,9.6-6,13.2c-4.1-7.1-10.9-12.8-19.6-15.5c-4.2-1.3-8.7,1-10,5.2c-1.3,4.2,1,8.7,5.2,10c7.4,2.3,12.4,8.4,12.4,15
	c0,8.8-8.5,16-19,16s-19-7.2-19-16v-48c0-8.8,8.5-16,19-16c4.4,0,8-3.6,8-8s-3.6-8-8-8c-7,0-13.5,1.9-19,5.2v-8.7c0-4.4-3.6-8-8-8
	s-8,3.6-8,8v40.7c-2.4-1.4-4.9-2.6-7.6-3.5c-4.2-1.3-8.7,1-10,5.2c-1.3,4.2,1,8.7,5.2,10c7.4,2.3,12.4,8.4,12.4,15v16
	c0,8.8-8.5,16-19,16s-19-7.2-19-16c0-3.8,1.6-7.4,4.5-10.3c3.1-3.1,3.1-8.2,0-11.3c-3.1-3.1-8.2-3.2-11.3,0
	c-1.7,1.7-3.1,3.5-4.3,5.4c-4.4-4.3-6.9-9.9-6.9-15.7c0-10.8,8.5-20.4,20.8-23.2c4.3-1,7-5.3,6-9.6c-1-4.3-5.3-7-9.6-6
	c-4.9,1.1-9.4,3-13.5,5.4c-2.4-3.2-3.7-6.8-3.7-10.6c0-10.9,10.3-19.8,23.1-20c1.6,0.1,3.3-0.4,4.8-1.3c3.4-2.2,4.6-6.6,2.8-10.3
	c-0.3-0.6-0.7-1.2-1.2-1.7c-1.2-1.4-2.5-3.7-2.5-6.7c0-6.6,6.5-12,14.5-12s14.5,5.4,14.5,12c0,4.4,3.6,8,8,8s8-3.6,8-8
	c0-6.6,6.5-12,14.5-12s14.5,5.4,14.5,12c0,1.7-0.5,3.2-1.1,4.4c-4.1,0.4-8.2,1.3-12,2.9c-4.1,1.7-6,6.4-4.3,10.5
	c1.7,4.1,6.4,6,10.5,4.3c3.2-1.4,6.7-2.1,10.4-2.1c13,0,23.5,9,23.5,20c0,6.9-4.2,13.2-11.2,16.9c-2.6,1.4-4.3,4.1-4.3,7.1
	S306.1,268.4,308.8,269.8z"/>
<g>
	<circle class="st4" cx="40" cy="194.7" r="16"/>
	<circle class="st4" cx="472" cy="322.7" r="16"/>
</g>
<g>
	<circle class="st4" cx="24" cy="394.7" r="16"/>
	<circle class="st4" cx="488" cy="122.7" r="16"/>
</g>
<g>
	<circle class="st4" cx="320" cy="42.7" r="16"/>
	<circle class="st4" cx="192" cy="474.7" r="16"/>
</g>
<g>
	<circle class="st4" cx="120" cy="26.7" r="16"/>
	<circle class="st4" cx="392" cy="490.7" r="16"/>
</g>
<path d="M829.9,554.1c-1.1-0.1-1.6-0.1-2.2-0.1c0.3-0.2,0.6-0.5,1-0.5C828.9,553.5,829.2,553.8,829.9,554.1z"/>
<path class="st4" d="M917.6,270.3c-14.4-8.6-28.7-12.5-43.8-12.6c-28.7-0.2-57.3,0.1-86,0.2c-26.4,0-52.8-0.5-79.1,0.1
	c-12.2,0.3-24.1,3.9-34.8,10.2c-0.8,0.5-1.7,0.9-3,1.5c17-37.8,59.7-73.5,115.3-76.8C840.2,189.6,894.2,220.7,917.6,270.3z"/>
<path class="st4" d="M671.2,419.8c19.9,12.1,41.4,12.4,63.1,12.2c43.2-0.3,86.5-0.3,129.7,0c18.2,0.1,35.6-2.5,51.7-11.8
	C910,452.3,852,492.8,807.4,496C748.7,500.4,686.6,465.9,671.2,419.8z"/>
<path class="st25" d="M750.4,15.6c29.6,0.5,56.7,8.1,79.3,28.1c35.5,31.4,34.8,79.7-1.6,110.1C804,174,775.4,181.3,744.5,180
	c-6.6-0.3-11.5,1.4-16.9,5.5c-15.7,12-32,23.1-48,34.7c-3.2,2.3-6.9,3.5-9.5,0.5c-1.7-2.1-2.5-6.1-1.9-8.8c3.3-16,7.2-31.9,10.4-48
	c0.5-2.3-1.3-6-3.3-7.6c-15-12.5-26.3-27.4-29.3-47.1c-4.7-30.1,7.9-53,31.3-70.7C698.9,22.3,723.7,15.9,750.4,15.6z M684.7,202.6
	c14.6-10.8,29.1-21.7,43.7-32.2c2.1-1.5,5.2-2.4,7.7-2.2c29.5,2.3,57.3-2.4,81.4-20.9c35.2-26.9,36-68.9,2.1-97.2
	c-36.7-30.6-101.2-30.8-138-0.2c-19.3,16-29.5,36-23.2,61.6c4.1,16.7,15,28.9,28.8,38.6c2.9,2,4.2,4,3.6,7.6
	C688.6,172.3,686.8,186.9,684.7,202.6z"/>
<path class="st25" d="M793.7,424.4c-26.2,0-52.4,0.1-78.6,0c-34.3-0.1-63.9-21.1-75.3-53.4c-11.2-31.7-1.2-67,25-88.3
	c15.8-12.8,34-18.2,54.2-17.9c21.6,0.3,43.2-0.2,64.8-0.2c30.1,0,60.3-0.2,90.4,0.3c43.8,0.8,78.6,37,78.2,80.7
	c-0.4,43.7-36.1,78.8-80.1,78.9C846.1,424.4,819.9,424.4,793.7,424.4C793.7,424.4,793.7,424.4,793.7,424.4z M792.3,273.9
	C792.3,273.8,792.3,273.8,792.3,273.9c-23.1-0.1-46.1-0.2-69.2,0c-11,0.1-21.8,0.7-32.4,4.7c-33.9,12.7-53.1,48.5-44.1,83.5
	c7.9,30.9,35.5,53.1,67.3,53.3c53.3,0.3,106.5,0.2,159.8,0c6.9,0,14.1-1.4,20.8-3.6c32.7-10.5,53.4-44.4,47.9-78.8
	c-5-31.4-34.8-58.5-67.2-59C847.6,273.5,819.9,273.9,792.3,273.9z"/>
<path class="st22" d="M948.7,387c14.4-28.5,14.4-56.3,0.1-84.4c10.9-1.4,20.1,2.3,29.4,7.8c0.3-1.2,0.6-1.9,0.6-2.6
	c0-26.2,0.1-52.3-0.1-78.5c0-2.1-1.6-4.5-3.1-6.1c-4.6-5.2-4.9-12.4-0.4-16.8c4.2-4.2,12-4.2,16.4,0.1c4.6,4.5,4.3,11.4-0.3,16.8
	c-1.7,2-3.1,4.9-3.1,7.4c-0.3,28.8-0.3,57.6-0.1,86.4c0,2.7,1.2,5.6,2.4,8.2c7.1,15,6.4,29.6-2.7,43.2
	C978.8,381.7,965.7,387.5,948.7,387z"/>
<path class="st22" d="M608.7,308.9c9.9-2.8,19.3-5.5,28.7-8.2c0.4,0.6,0.8,1.3,1.3,1.9c-6.7,13.1-10.6,27-10.6,41.7
	c0,14.8,3.7,28.7,10.6,41.9c-18.2,3.8-44.4-11.3-45.7-38.8c-0.3-7,2.5-14.1,3.9-21.2c0.9-4.4,2.6-8.7,2.7-13.1
	c0.2-16.3-0.2-32.7-0.3-49c0-11.2,0.4-22.3,0.2-33.5c0-2.5-1.4-5.4-3.1-7.4c-4.6-5.3-5.1-12.2-0.4-16.8c4.4-4.4,12.1-4.5,16.4-0.3
	c4.5,4.5,4.8,12.3-0.4,16.7c-6,5.2-3.1,11.8-3.2,17.5c-0.6,21.1-0.1,42.2,0,63.4C608.7,305.7,608.7,307.5,608.7,308.9z"/>
<path class="st4" d="M684.7,202.6c2.1-15.7,3.9-30.3,6.1-44.8c0.5-3.7-0.8-5.6-3.6-7.6c-13.8-9.7-24.7-21.8-28.8-38.6
	C652,85.9,662.3,66,681.5,50c36.8-30.6,101.3-30.4,138,0.2c33.9,28.3,33.1,70.2-2.1,97.2c-24.1,18.5-51.8,23.2-81.4,20.9
	c-2.5-0.2-5.6,0.7-7.7,2.2C713.8,181,699.4,191.8,684.7,202.6z M817.6,98.2c0.1-8-6.1-14.4-13.9-14.5c-8,0-14.3,6-14.5,14
	c-0.3,7.8,6.2,14.4,14,14.5C811,112.3,817.5,106,817.6,98.2z M736.2,97.9c-0.1,8,6.3,14.4,14.1,14.3c8.2-0.1,14.1-5.9,14.3-14.2
	c0.2-7.6-6.5-14.3-14.2-14.3C742.3,83.7,736.3,89.8,736.2,97.9z M711.6,98.2c0-8.1-6-14.4-13.9-14.5c-8.2-0.1-14.4,6.3-14.3,14.7
	c0.1,7.8,6.1,13.8,13.8,13.8C705.3,112.3,711.6,106.1,711.6,98.2z"/>
<path class="st0" d="M792.3,273.9c27.6,0,55.3-0.4,82.9,0.1c32.4,0.5,62.2,27.6,67.2,59c5.5,34.4-15.2,68.3-47.9,78.8
	c-6.6,2.1-13.8,3.5-20.8,3.6c-53.3,0.3-106.5,0.4-159.8,0c-31.8-0.2-59.4-22.4-67.3-53.3c-9-35,10.2-70.8,44.1-83.5
	c10.6-4,21.4-4.6,32.4-4.7C746.1,273.7,769.2,273.8,792.3,273.9C792.3,273.8,792.3,273.8,792.3,273.9z M728,299.7
	c-11.9-0.1-21.5,9.1-21.7,21c-0.2,11.6,9.4,21.4,21.1,21.6c11.8,0.2,21.4-9.2,21.6-21.1C749.2,309.4,739.8,299.8,728,299.7z
	 M859.8,299.7c-11.9,0.1-21.3,9.5-21.3,21.3c0,11.8,9.7,21.5,21.4,21.3c11.9-0.1,21.4-9.7,21.4-21.4
	C881.2,309.2,871.5,299.6,859.8,299.7z M793.4,399.9c15.7-0.5,29.4-5.3,41-16c3.8-3.5,5.1-7.5,1.4-11.4c-3.5-3.7-7.4-2-11,1
	c-19.7,16.6-42.7,16.6-62.2-0.1c-3.7-3.1-7.5-4.6-11-0.8c-3.7,3.9-2.1,7.9,1.6,11.4C764.7,394.5,778.3,399.2,793.4,399.9z"/>
<path class="st26" d="M817.6,98.2c-0.1,7.8-6.5,14-14.5,14c-7.8,0-14.3-6.7-14-14.5c0.3-8,6.6-14.1,14.5-14
	C811.5,83.8,817.7,90.2,817.6,98.2z"/>
<path class="st26" d="M736.2,97.9c0.1-8.2,6.1-14.2,14.2-14.2c7.7,0,14.4,6.7,14.2,14.3c-0.2,8.2-6.1,14.1-14.3,14.2
	C742.5,112.3,736.1,105.9,736.2,97.9z"/>
<path class="st26" d="M711.6,98.2c0,7.9-6.3,14.1-14.4,14c-7.8,0-13.8-6-13.8-13.8c-0.1-8.5,6.1-14.9,14.3-14.7
	C705.6,83.8,711.6,90.1,711.6,98.2z"/>
<path class="st26" d="M728,299.7c11.8,0.1,21.2,9.8,21,21.6c-0.2,11.9-9.8,21.3-21.6,21.1c-11.8-0.2-21.3-10-21.1-21.6
	C706.6,308.8,716.1,299.6,728,299.7z"/>
<path class="st26" d="M859.8,299.7c11.7-0.1,21.4,9.5,21.4,21.3c0.1,11.7-9.5,21.3-21.4,21.4c-11.7,0.1-21.4-9.6-21.4-21.3
	C838.5,309.1,847.9,299.7,859.8,299.7z"/>
<path class="st26" d="M793.4,399.9c-15.1-0.7-28.7-5.4-40.1-15.9c-3.7-3.4-5.3-7.4-1.6-11.4c3.5-3.7,7.3-2.3,11,0.8
	c19.5,16.7,42.5,16.7,62.2,0.1c3.6-3.1,7.4-4.7,11-1c3.7,3.8,2.4,7.9-1.4,11.4C822.8,394.6,809.1,399.4,793.4,399.9z"/>
</svg>
