<svg xmlns="http://www.w3.org/2000/svg" width="100" height="100">
  <rect width="100%" height="100%" fill="none"/>
  <g class="currentLayer">
    <path d="M95.938 54.09c0-4.537-2.052-8.844-5.537-11.725a15.16 15.16 0 003.262-9.39c0-7.214-5.177-13.471-12.177-14.897-.355-8.08-7.04-14.543-15.206-14.543-6.206 0-13.633.005-16.28 6.886-2.647-6.881-10.073-6.886-16.278-6.886-8.166 0-14.85 6.463-15.206 14.543-7 1.426-12.177 7.684-12.177 14.897 0 3.415 1.151 6.709 3.261 9.39A15.249 15.249 0 004.063 54.09c0 6.189 3.766 11.745 9.453 14.075a14.073 14.073 0 00-.096 1.594c0 5.263 2.755 10.172 7.226 12.938.736 7.764 7.283 13.769 15.134 13.769 6.497 0 12.04-4.1 14.22-9.842 2.18 5.742 7.724 9.842 14.221 9.842 7.851 0 14.396-6.006 15.133-13.769 4.471-2.769 7.227-7.678 7.227-12.94 0-.506-.031-1.032-.096-1.594 5.687-2.329 9.453-7.885 9.453-14.073zM85.056 66.566l-.79.275.132.827c.123.77.183 1.452.183 2.088 0 4.726-2.56 9.124-6.68 11.479l-.47.269-.032.54c-.416 6.966-6.205 12.422-13.178 12.422-7.29 0-13.221-5.931-13.221-13.221h-2c0 7.29-5.93 13.221-13.22 13.221-6.974 0-12.762-5.456-13.179-12.422l-.032-.54-.47-.269c-4.12-2.354-6.679-6.751-6.679-11.477 0-.634.06-1.317.182-2.091l.131-.826-.79-.274a13.229 13.229 0 01-8.88-12.478c0-4.253 2.077-8.274 5.557-10.757l.915-.653-.755-.833a13.184 13.184 0 01-3.441-8.873c0-6.516 4.864-12.133 11.313-13.066l.857-.124v-.866c0-.052-.003-.103-.008-.165 0-7.29 5.931-13.22 13.22-13.22 7.857 0 15.278 0 15.278 11.135h2c0-11.135 7.422-11.135 15.28-11.135 7.29 0 13.221 5.931 13.22 13.231l-.007 1.02.856.124c6.45.933 11.313 6.55 11.313 13.066 0 3.277-1.223 6.428-3.441 8.872l-.756.833.915.653a13.249 13.249 0 015.558 10.757 13.226 13.226 0 01-8.881 12.478z" fill="#ff4500"/>
    <path d="M62.75 40.25c0-1.654-1.346-3-3-3H58V30h-2v7.25h-5V30h-2v7.25h-5V30h-2v7.25h-1.75c-1.654 0-3 1.346-3 3V42H30v2h7.25v5H30v2h7.25v5H30v2h7.25v1.75c0 1.654 1.346 3 3 3H42V70h2v-7.25h5V70h2v-7.25h5V70h2v-7.25h1.75c1.654 0 3-1.346 3-3V58H70v-2h-7.25v-5H70v-2h-7.25v-5H70v-2h-7.25v-1.75zm-2 19.5a1 1 0 01-1 1h-19.5c-.551 0-1-.448-1-1v-19.5c0-.551.449-1 1-1h19.5c.552 0 1 .449 1 1v19.5z" fill="#ff4500"/>
  </g>
</svg>