<svg xmlns="http://www.w3.org/2000/svg" width="100" height="100">
  <rect width="100%" height="100%" fill="none"/>
  <g class="currentLayer">
    <path d="M25.777 33.26a1 1 0 00-1.468.235 30.179 30.179 0 00-4.184 10.087 1 1 0 00.873 1.204c2.673.281 4.689 2.523 4.689 5.214s-2.016 4.933-4.689 5.214a1.001 1.001 0 00-.873 1.204 30.179 30.179 0 004.184 10.087.998.998 0 001.468.235 5.23 5.23 0 016.998.374 5.23 5.23 0 01.375 6.999 1 1 0 00.235 1.468 30.173 30.173 0 0010.087 4.183 1 1 0 001.205-.873 5.228 5.228 0 015.213-4.687 5.228 5.228 0 015.214 4.687 1 1 0 001.204.873 30.173 30.173 0 0010.087-4.183.999.999 0 00.235-1.468 5.23 5.23 0 01.374-6.999 5.226 5.226 0 016.998-.374.999.999 0 001.469-.235 30.179 30.179 0 004.183-10.087 1 1 0 00-.872-1.204c-2.673-.281-4.688-2.523-4.688-5.214s2.015-4.933 4.688-5.214a1.001 1.001 0 00.872-1.204 30.179 30.179 0 00-4.183-10.087.998.998 0 00-1.469-.235 5.227 5.227 0 01-6.998-.374 5.23 5.23 0 01-.374-6.999 1 1 0 00-.235-1.468 30.173 30.173 0 00-10.087-4.183 1 1 0 00-1.205.873 5.228 5.228 0 01-5.213 4.687 5.228 5.228 0 01-5.214-4.687 1 1 0 00-1.204-.873 30.173 30.173 0 00-10.087 4.183.999.999 0 00-.235 1.468 5.23 5.23 0 01-.375 6.999 5.229 5.229 0 01-6.998.374zm9.566-7.704a28.156 28.156 0 017.547-3.131c.828 3.13 3.664 5.371 7 5.371s6.172-2.242 7-5.37a28.14 28.14 0 017.547 3.13A7.226 7.226 0 0065.59 34.3a7.227 7.227 0 008.743 1.153A28.174 28.174 0 0177.465 43c-3.13.829-5.371 3.665-5.371 7s2.242 6.171 5.371 7a28.174 28.174 0 01-3.132 7.547A7.225 7.225 0 0065.59 65.7a7.226 7.226 0 00-1.153 8.744 28.14 28.14 0 01-7.547 3.13c-.828-3.128-3.664-5.37-7-5.37s-6.172 2.242-7 5.371a28.156 28.156 0 01-7.547-3.131A7.226 7.226 0 0034.19 65.7a7.224 7.224 0 00-8.743-1.153A28.168 28.168 0 0122.314 57c3.13-.829 5.373-3.665 5.373-7s-2.243-6.171-5.373-7a28.168 28.168 0 013.132-7.547A7.224 7.224 0 0034.19 34.3a7.226 7.226 0 001.154-8.744zM50.89 18.162V10.96a1 1 0 00-2 0v7.202a1 1 0 002 0zM20.992 19.688a1 1 0 10-1.414 1.414l5.091 5.092a.997.997 0 001.414 0 1 1 0 000-1.414l-5.091-5.093zM18.051 49h-7.2a1 1 0 000 2h7.2a1 1 0 000-2zM19.578 80.313a.997.997 0 001.414 0l5.091-5.093a1 1 0 10-1.414-1.414l-5.091 5.092a1 1 0 000 1.415zM50.89 89.04v-7.202a1 1 0 00-2 0v7.202a1 1 0 002 0zM80.203 78.898l-5.093-5.092a1 1 0 10-1.414 1.414l5.093 5.093a.997.997 0 001.414 0 1 1 0 000-1.415zM88.93 49H81.73a1 1 0 000 2h7.201a1 1 0 000-2zM78.789 19.688l-5.093 5.092a1 1 0 101.414 1.414l5.093-5.092a1 1 0 10-1.414-1.415z" fill="#ff4500"/>
    <path d="M50.033 66.974c9.377 0 17.007-7.63 17.007-17.007S59.41 32.96 50.033 32.96s-17.007 7.63-17.007 17.007 7.63 17.007 17.007 17.007zm-9.108-5.107a9.057 9.057 0 016.455-8.483 1 1 0 00.188-1.835 5.585 5.585 0 01-2.918-4.907c0-3.079 2.504-5.584 5.583-5.584s5.583 2.505 5.583 5.584a5.56 5.56 0 01-3.057 4.974 1 1 0 00.14 1.84 9.095 9.095 0 016.24 8.411 14.912 14.912 0 01-9.106 3.107 14.913 14.913 0 01-9.108-3.107zm9.108-26.907c8.275 0 15.007 6.732 15.007 15.007 0 3.962-1.555 7.56-4.071 10.244a11.079 11.079 0 00-5.696-7.906 7.54 7.54 0 002.543-5.663c0-4.182-3.401-7.584-7.583-7.584-4.181 0-7.583 3.402-7.583 7.584a7.58 7.58 0 002.39 5.527 11.011 11.011 0 00-5.947 8.038c-2.514-2.684-4.067-6.28-4.067-10.24 0-8.275 6.732-15.007 15.007-15.007z" fill="#ff4500"/>
  </g>
</svg>