<?xml version="1.0" encoding="utf-8"?>
<!-- Generator: Adobe Illustrator 23.0.2, SVG Export Plug-In . SVG Version: 6.00 Build 0)  -->
<svg version="1.1" id="Layer_1" xmlns="http://www.w3.org/2000/svg" xmlns:xlink="http://www.w3.org/1999/xlink" x="0px" y="0px"
	 viewBox="0 0 510.3 510.3" style="enable-background:new 0 0 510.3 510.3;" xml:space="preserve">
<style type="text/css">
	.st0{fill:none;}
	.st1{fill:#007BFF;}
	.st2{fill:#FF4500;}
</style>
<rect id="backgroundrect" y="0" class="st0" width="510.3" height="510.3"/>
<g>
	<title>Layer 1</title>
	<path id="svg_1" class="st1" d="M429.7,132.9h-86.9l25.4-46.6c23.7,0.2,43.5-19,43.5-43.2c0-23.8-19.4-43.2-43.2-43.2
		c-38.3,0-57.6,46.5-30.6,73.6l-32.3,59.3h-101l-32.3-59.3c27-27.1,7.7-73.6-30.6-73.6C118,0,98.6,19.4,98.6,43.2
		s19.4,43.2,43.2,43.2c0.5,0-1.6-3.6,25.7,46.6H80.6c-30,0-54.3,24.4-54.3,54.3V395c0,29.9,24.4,54.3,54.3,54.3h219.2v29.1
		c0,29.6,36.7,43,55.9,20.8l43-49.9h31c30,0,54.3-24.4,54.3-54.3V187.2C484,157.3,459.7,132.9,429.7,132.9z M368.5,32.6
		c5.8,0,10.5,4.7,10.5,10.5s-4.7,10.5-10.5,10.5S358,49,358,43.2S362.7,32.6,368.5,32.6z M131.3,43.2c0-5.8,4.7-10.5,10.5-10.5
		s10.5,4.7,10.5,10.5s-4.7,10.5-10.5,10.5S131.3,49,131.3,43.2z M451.4,395c0,11.9-9.7,21.7-21.7,21.7h-38.5
		c-4.8,0-9.3,2.1-12.4,5.7l-46.4,53.9V433c0-9-7.3-16.3-16.3-16.3H80.6c-11.9,0-21.7-9.7-21.7-21.7V187.2c0-11.9,9.7-21.7,21.7-21.7
		h349.1c11.9,0,21.7,9.7,21.7,21.7L451.4,395z"/>
	<path id="svg_2" class="st2" d="M386.8,276.3c-30.2,0-231.3,0-263.3,0c-9,0-16.3,7.3-16.3,16.3v67.3c0,9,7.3,16.3,16.3,16.3h263.3
		c9,0,16.3-7.3,16.3-16.3v-67.3C403.1,283.6,395.8,276.3,386.8,276.3z M139.8,308.9h52v34.6h-52V308.9z M224.5,343.6v-34.6h61.3
		v34.6H224.5z M370.5,343.6h-52v-34.6h52L370.5,343.6z"/>
	<path id="svg_3" class="st2" d="M158.8,237.5h45.9c9,0,16.3-7.3,16.3-16.3s-7.3-16.3-16.3-16.3h-45.9c-9,0-16.3,7.3-16.3,16.3
		S149.8,237.5,158.8,237.5L158.8,237.5z"/>
	<path id="svg_4" class="st2" d="M305.6,237.5h45.9c9,0,16.3-7.3,16.3-16.3s-7.3-16.3-16.3-16.3h-45.9c-9,0-16.3,7.3-16.3,16.3
		S296.6,237.5,305.6,237.5z"/>
</g>
</svg>
