<svg xmlns="http://www.w3.org/2000/svg" width="100" height="100">
  <rect width="100%" height="100%" fill="none"/>
  <g class="currentLayer">
    <path d="M95.704 35.004v-2H77.847v-5.287c0-3.072-2.497-5.572-5.565-5.572h-5.283V4.297h-2v17.848H51V4.297h-2v17.848H35.002V4.297h-2v17.848h-5.283a5.578 5.578 0 00-5.571 5.572v5.287H4.296v2h17.852v13.998H4.296v2h17.852v13.994H4.296v2h17.852v5.281c0 3.071 2.5 5.57 5.571 5.57h5.283v17.855h2V77.848H49v17.855h2V77.848h13.998v17.855h2V77.848h5.283a5.574 5.574 0 005.565-5.57v-5.281h17.857v-2H77.847V51.002h17.857v-2H77.847V35.004h17.857zM75.847 72.277c0 1.969-1.6 3.57-3.565 3.57H27.719a3.575 3.575 0 01-3.571-3.57v-44.56a3.575 3.575 0 013.571-3.572h44.563a3.572 3.572 0 013.565 3.572v44.56z" fill="#ff4500"/>
    <path d="M63.625 50.75H51.75v-7.085c3.179-.485 5.625-3.229 5.625-6.541 0-3.653-2.973-6.625-6.625-6.625s-6.625 2.972-6.625 6.625c0 3.312 2.446 6.057 5.625 6.541v7.085H35.375v5.749h-4.5v11h11v-11h-4.5V52.75h24.25v4.333l-5.916 5.918 6.914 6.914 6.916-6.914-5.914-5.914V50.75zm-23.75 14.749h-7v-7h7v7zm6.25-28.375c0-2.55 2.075-4.625 4.625-4.625s4.625 2.075 4.625 4.625-2.075 4.625-4.625 4.625-4.625-2.075-4.625-4.625zm16.498 29.963l-4.086-4.086 4.086-4.088 4.088 4.088-4.088 4.086z" fill="#ff4500"/>
  </g>
</svg>