<?xml version="1.0" encoding="utf-8"?>
<!-- Generator: Adobe Illustrator 23.0.2, SVG Export Plug-In . SVG Version: 6.00 Build 0)  -->
<svg version="1.1" id="Layer_1" xmlns="http://www.w3.org/2000/svg" xmlns:xlink="http://www.w3.org/1999/xlink" x="0px" y="0px"
	 viewBox="0 0 512 512" style="enable-background:new 0 0 512 512;" xml:space="preserve">
<style type="text/css">
	.st0{fill:none;}
	.st1{fill:#007BFF;}
	.st2{fill:#FF4500;}
</style>
<rect id="backgroundrect" y="0" class="st0" width="512" height="512"/>
<g>
	<title>Layer 1</title>
	<g id="svg_1">
		<g id="svg_2">
			<path id="svg_3" class="st1" d="M504.5,248.5H383.7v-17.1h32.6c4.1,0,7.5-3.4,7.5-7.5s-3.4-7.5-7.5-7.5h-32.6v-17.1h22.6
				c8.4,0,16.4-3.3,22.3-9.2l49.3-49.3c3.2,1.6,6.8,2.5,10.5,2.5c6.3,0,12.2-2.4,16.6-6.9c4.4-4.4,6.9-10.4,6.9-16.6
				c0-6.3-2.4-12.2-6.9-16.6c-4.4-4.4-10.4-6.9-16.6-6.9s-12.2,2.4-16.6,6.9c-4.4,4.4-6.9,10.4-6.9,16.6c0,3.7,0.9,7.3,2.5,10.5
				l-49.3,49.3c-3.1,3.1-7.3,4.8-11.7,4.8h-22.6v-16.5c0-21.8-17.7-39.6-39.6-39.6h-16.5V61.9c9.3-3.1,16-11.9,16-22.3
				c0-13-10.6-23.5-23.5-23.5s-23.5,10.6-23.5,23.5c0,10.4,6.7,19.2,16,22.3v66.4h-17.1V95.7c0-4.1-3.4-7.5-7.5-7.5
				s-7.5,3.4-7.5,7.5v32.6h-17.1V7.5c0-4.1-3.4-7.5-7.5-7.5s-7.5,3.4-7.5,7.5v120.8h-17.1V95.7c0-4.1-3.4-7.5-7.5-7.5
				s-7.5,3.4-7.5,7.5v32.6h-17.1v-22.6c0-8.4-3.3-16.3-9.2-22.3L140.8,34c4.4-8.8,2.9-19.8-4.4-27.1c-9.2-9.2-24.1-9.2-33.3,0
				c-9.2,9.2-9.2,24.1,0,33.3c4.6,4.6,10.6,6.9,16.6,6.9c3.6,0,7.2-0.8,10.5-2.5l49.3,49.3c3.1,3.1,4.8,7.3,4.8,11.7v22.6h-16.5
				c-3.3,0-6.7,0.4-9.9,1.2c-4,1-6.4,5.1-5.4,9.1s5.1,6.4,9.1,5.4c2-0.5,4.1-0.8,6.1-0.8h176.4c13.5,0,24.6,11,24.6,24.6v176.4
				c0,2.1-0.3,4.1-0.8,6.1c-1,4,1.4,8.1,5.4,9.1c0.6,0.2,1.3,0.2,1.9,0.2c3.3,0,6.4-2.2,7.3-5.6c0.8-3.2,1.2-6.5,1.2-9.9v-16.5h66.4
				c3.1,9.3,11.9,16,22.3,16c13,0,23.5-10.6,23.5-23.5s-10.6-23.5-23.5-23.5c-10.4,0-19.2,6.7-22.3,16h-66.4v-17.1h32.6
				c4.1,0,7.5-3.4,7.5-7.5s-3.4-7.5-7.5-7.5h-32.6v-17.1h120.8c4.1,0,7.5-3.4,7.5-7.5C512,251.9,508.6,248.5,504.5,248.5z
				 M482.4,113.7c1.6-1.6,3.8-2.5,6-2.5s4.4,0.9,6,2.5s2.5,3.8,2.5,6s-0.9,4.4-2.5,6s-3.8,2.5-6,2.5s-4.4-0.9-6-2.5s-2.5-3.8-2.5-6
				S480.8,115.3,482.4,113.7z M125.8,29.6c-3.3,3.3-8.7,3.3-12.1,0c-3.3-3.3-3.3-8.7,0-12.1c1.7-1.7,3.8-2.5,6-2.5
				c2.2,0,4.4,0.8,6,2.5C129.1,20.8,129.1,26.2,125.8,29.6z M320.1,48.1c-4.7,0-8.5-3.8-8.5-8.5s3.8-8.5,8.5-8.5
				c4.7,0,8.5,3.8,8.5,8.5S324.8,48.1,320.1,48.1z M472.4,311.6c4.7,0,8.5,3.8,8.5,8.5c0,4.7-3.8,8.5-8.5,8.5s-8.5-3.8-8.5-8.5
				C463.9,315.4,467.7,311.6,472.4,311.6z"/>
		</g>
	</g>
	<g id="svg_4">
		<g id="svg_5">
			<path id="svg_6" class="st1" d="M408.9,471.8c-7.3-7.3-18.3-8.8-27.1-4.4l-49.3-49.3c-3.1-3.1-4.8-7.3-4.8-11.7v-22.6h16.5
				c3.3,0,6.7-0.4,9.9-1.2c4-1,6.4-5.1,5.4-9.1c-1-4-5.1-6.4-9.1-5.4c-2,0.5-4.1,0.8-6.1,0.8H167.8c-13.5,0-24.6-11-24.6-24.6V167.8
				c0-2.1,0.3-4.2,0.8-6.1c1-4-1.4-8.1-5.4-9.1c-4-1-8.1,1.4-9.1,5.4c-0.8,3.2-1.2,6.5-1.2,9.9v16.5H61.9c-3.1-9.3-11.9-16-22.3-16
				c-13,0-23.5,10.6-23.5,23.5s10.6,23.5,23.5,23.5c10.4,0,19.2-6.7,22.3-16h66.4v17.1H95.7c-4.1,0-7.5,3.4-7.5,7.5s3.4,7.5,7.5,7.5
				h32.6v17.1H7.5c-4.1,0-7.5,3.4-7.5,7.5c0,4.1,3.4,7.5,7.5,7.5h120.8v17.1H95.7c-4.1,0-7.5,3.4-7.5,7.5s3.4,7.5,7.5,7.5h32.6v17.1
				h-22.6c-8.4,0-16.3,3.3-22.3,9.2L34,371.2c-3.2-1.6-6.8-2.5-10.5-2.5c-6.3,0-12.2,2.4-16.6,6.9C2.4,380.1,0,386,0,392.3
				s2.4,12.2,6.9,16.6c4.4,4.4,10.4,6.9,16.6,6.9s12.2-2.4,16.6-6.9c4.4-4.4,6.9-10.4,6.9-16.6c0-3.7-0.9-7.3-2.5-10.5l49.3-49.3
				c3.1-3.1,7.3-4.8,11.7-4.8h22.6v16.5c0,21.8,17.7,39.6,39.6,39.6h16.5v66.4c-9.3,3.1-16,11.9-16,22.3c0,13,10.6,23.5,23.5,23.5
				s23.5-10.6,23.5-23.5c0-10.4-6.7-19.2-16-22.3v-66.4h17.1v32.6c0,4.1,3.4,7.5,7.5,7.5s7.5-3.4,7.5-7.5v-32.6h17.1v120.8
				c0,4.1,3.4,7.5,7.5,7.5s7.5-3.4,7.5-7.5V383.7h17.1v32.6c0,4.1,3.4,7.5,7.5,7.5s7.5-3.4,7.5-7.5v-32.6h17.1v22.6
				c0,8.4,3.3,16.4,9.2,22.3l49.3,49.3c-4.4,8.8-2.9,19.8,4.4,27.1c4.6,4.6,10.6,6.9,16.6,6.9s12.1-2.3,16.6-6.9
				C418.1,495.9,418.1,481,408.9,471.8z M39.6,200.4c-4.7,0-8.5-3.8-8.5-8.5c0-4.7,3.8-8.5,8.5-8.5s8.5,3.8,8.5,8.5
				C48.1,196.6,44.3,200.4,39.6,200.4z M29.6,398.3c-1.6,1.6-3.8,2.5-6,2.5s-4.4-0.9-6-2.5s-2.5-3.8-2.5-6s0.9-4.4,2.5-6
				s3.8-2.5,6-2.5s4.4,0.9,6,2.5s2.5,3.8,2.5,6S31.2,396.7,29.6,398.3z M200.4,472.4c0,4.7-3.8,8.5-8.5,8.5s-8.5-3.8-8.5-8.5
				s3.8-8.5,8.5-8.5S200.4,467.7,200.4,472.4z M398.3,494.5c-3.3,3.3-8.7,3.3-12.1,0c-3.3-3.3-3.3-8.7,0-12.1c1.7-1.7,3.8-2.5,6-2.5
				s4.4,0.8,6,2.5C401.6,485.8,401.6,491.2,398.3,494.5z"/>
		</g>
	</g>
	<g id="svg_7">
		<g id="svg_8">
			<path id="svg_9" class="st2" d="M335.6,236c0-16-11.7-29.6-27.8-34c0.5-2,0.7-4,0.7-6c0-15.2-13.5-27.5-30-27.5
				c-9,0-17,3.6-22.5,9.4c-5.5-5.7-13.6-9.4-22.5-9.4c-16.6,0-30,12.4-30,27.5c0,2.1,0.3,4.1,0.7,6c-16.1,4.4-27.8,18-27.8,34
				c0,7.8,2.8,15.2,7.9,21.3c-5,6.5-7.9,14.4-7.9,22.7c0,12.8,6.8,24.7,18,32c0,0,0,0,0,0c0,17.4,15.5,31.5,34.6,31.5
				c10.9,0,20.7-4.7,27.1-12c6.3,7.3,16.1,12,27.1,12c18.3,0,33.4-13.1,34.5-29.6c11.1-6.5,18.1-17.8,18.1-30c0-9-3.8-17.6-10.4-24
				C331.8,253.5,335.6,245,335.6,236z M309.1,266.6c7.2,3.8,11.5,10.3,11.5,17.4c0,5.3-2.5,10.3-6.6,14.1
				c-3.9-7.3-10.9-13.1-19.7-15.9c-4-1.2-8.2,1-9.4,4.9c-1.2,4,1,8.2,4.9,9.4c7.6,2.4,12.8,8.6,12.8,15.5c0,9.1-8.8,16.5-19.6,16.5
				c-10.8,0-19.6-7.4-19.6-16.5V264c0-9.1,8.8-16.5,19.6-16.5c4.1,0,7.5-3.4,7.5-7.5s-3.4-7.5-7.5-7.5c-7.3,0-14,2.1-19.6,5.6v-9.6
				c0-4.1-3.4-7.5-7.5-7.5s-7.5,3.4-7.5,7.5v41.6c-2.5-1.6-5.3-2.9-8.3-3.8c-4-1.2-8.2,1-9.4,4.9c-1.2,4,1,8.2,4.9,9.4
				c7.6,2.4,12.8,8.6,12.8,15.5v16c0,9.1-8.8,16.5-19.6,16.5c-10.8,0-19.6-7.4-19.6-16.5c0-3.9,1.7-7.7,4.7-10.7
				c2.9-2.9,3-7.7,0-10.6s-7.7-3-10.6,0c-1.8,1.8-3.3,3.7-4.6,5.8c-4.7-4.5-7.5-10.4-7.5-16.5c0-11.1,8.7-20.9,21.2-23.7
				c4-0.9,6.6-4.9,5.6-9c-0.9-4-5-6.6-9-5.6c-5,1.2-9.7,3.1-13.8,5.6c-2.7-3.3-4.1-7.3-4.1-11.3c0-11.3,10.7-20.5,23.9-20.6
				c0.1,0,0.1,0,0.2,0c1.7,0,3.4-0.6,4.8-1.8c2.9-2.4,3.5-6.6,1.5-9.7c-0.1-0.1-0.1-0.2-0.2-0.3c0,0-0.1-0.1-0.1-0.1
				c-0.1-0.2-0.2-0.3-0.4-0.5c0,0,0,0,0,0c-1.3-1.5-2.7-3.9-2.7-7.2c0-6.9,6.8-12.5,15-12.5s15,5.6,15,12.5c0,4.1,3.4,7.5,7.5,7.5
				c4.1,0,7.5-3.4,7.5-7.5c0-6.9,6.8-12.5,15-12.5s15,5.6,15,12.5c0,1.8-0.5,3.4-1.1,4.7c-4.3,0.4-8.4,1.4-12.3,3.1
				c-3.8,1.6-5.6,6-4,9.8c1.6,3.8,6,5.6,9.8,4c3.2-1.4,6.7-2.1,10.4-2.1c0.1,0,0.1,0,0.2,0c0.1,0,0.1,0,0.2,0
				c13.2,0.1,23.9,9.3,23.9,20.6c0,7.1-4.3,13.6-11.5,17.4c-2.5,1.3-4,3.9-4,6.6C305.1,262.8,306.6,265.3,309.1,266.6z"/>
		</g>
	</g>
	<g id="svg_10">
	</g>
	<g id="svg_11">
	</g>
	<g id="svg_12">
	</g>
	<g id="svg_13">
	</g>
	<g id="svg_14">
	</g>
	<g id="svg_15">
	</g>
	<g id="svg_16">
	</g>
	<g id="svg_17">
	</g>
	<g id="svg_18">
	</g>
	<g id="svg_19">
	</g>
	<g id="svg_20">
	</g>
	<g id="svg_21">
	</g>
	<g id="svg_22">
	</g>
	<g id="svg_23">
	</g>
	<g id="svg_24">
	</g>
</g>
</svg>
