<?xml version="1.0" encoding="utf-8"?>
<!-- Generator: Adobe Illustrator 23.0.2, SVG Export Plug-In . SVG Version: 6.00 Build 0)  -->
<svg version="1.1" id="Layer_1" xmlns="http://www.w3.org/2000/svg" xmlns:xlink="http://www.w3.org/1999/xlink" x="0px" y="0px"
	 viewBox="0 0 435.6 435.6" style="enable-background:new 0 0 435.6 435.6;" xml:space="preserve">
<style type="text/css">
	.st0{fill:none;}
	.st1{fill:#007BFF;}
	.st2{fill:#FF4500;}
</style>
<rect id="backgroundrect" y="0" class="st0" width="435.6" height="435.6"/>
<g>
	<title>Layer 1</title>
	<path id="svg_1" class="st1" d="M297.8,112h-160c-14.4,0-26,11.6-26,26v160c0,14.4,11.6,26,26,26h160c14.4,0,26-11.6,26-26V138
		C323.8,123.6,312.2,112,297.8,112z M311.8,298c0,7.7-6.3,14-14,14h-160c-7.7,0-14-6.3-14-14V138c0-7.7,6.3-14,14-14h160
		c7.7,0,14,6.3,14,14V298z"/>
	<path id="svg_2" class="st1" d="M317.8,82h-200c-19.9,0-36,16.1-36,36v200c0,19.9,16.1,36,36,36h200c19.9,0,36-16.1,36-36V118
		C353.8,98.1,337.7,82,317.8,82z M341.8,318c0,13.3-10.8,24-24,24h-200c-13.3,0-24-10.8-24-24V118c0-13.3,10.8-24,24-24h200
		c13.2,0,24,10.8,24,24V318z"/>
	<path id="svg_3" class="st1" d="M239.4,373.6c-3.3,0-6,2.7-6,6v50c0,3.3,2.7,6,6,6c3.3,0,6-2.7,6-6v-50
		C245.4,376.3,242.8,373.6,239.4,373.6z"/>
	<path id="svg_4" class="st1" d="M196.2,373.6c-3.3,0-6,2.7-6,6v50c0,3.3,2.7,6,6,6c3.3,0,6-2.7,6-6v-50
		C202.2,376.3,199.5,373.6,196.2,373.6z"/>
	<path id="svg_5" class="st1" d="M153,373.6c-3.3,0-6,2.7-6,6v50c0,3.3,2.7,6,6,6s6-2.7,6-6v-50C159,376.3,156.3,373.6,153,373.6z"
		/>
	<path id="svg_6" class="st1" d="M282.7,373.6c-3.3,0-6,2.7-6,6v50c0,3.3,2.7,6,6,6c3.3,0,6-2.7,6-6v-50
		C288.7,376.3,286,373.6,282.7,373.6z"/>
	<path id="svg_21" class="st1" d="M282.7,373.6c-3.3,0-6,2.7-6,6v50c0,3.3,2.7,6,6,6c3.3,0,6-2.7,6-6v-50
		C288.7,376.3,286,373.6,282.7,373.6z"/>
	<path id="svg_7" class="st1" d="M202.2,56V6c0-3.3-2.7-6-6-6c-3.3,0-6,2.7-6,6v50c0,3.3,2.7,6,6,6C199.5,62,202.2,59.3,202.2,56z"
		/>
	<path id="svg_8" class="st1" d="M245.4,56V6c0-3.3-2.7-6-6-6c-3.3,0-6,2.7-6,6v50c0,3.3,2.7,6,6,6C242.8,62,245.4,59.3,245.4,56z"
		/>
	<path id="svg_9" class="st1" d="M288.7,56V6c0-3.3-2.7-6-6-6c-3.3,0-6,2.7-6,6v50c0,3.3,2.7,6,6,6C286,62,288.7,59.3,288.7,56z"/>
	<path id="svg_10" class="st1" d="M159,56V6c0-3.3-2.7-6-6-6s-6,2.7-6,6v50c0,3.3,2.7,6,6,6S159,59.3,159,56z"/>
	<path id="svg_11" class="st1" d="M429.6,190.2h-50c-3.3,0-6,2.7-6,6c0,3.3,2.7,6,6,6h50c3.3,0,6-2.7,6-6
		C435.6,192.9,433,190.2,429.6,190.2z"/>
	<path id="svg_12" class="st1" d="M429.6,233.4h-50c-3.3,0-6,2.7-6,6c0,3.3,2.7,6,6,6h50c3.3,0,6-2.7,6-6
		C435.6,236.1,433,233.4,429.6,233.4z"/>
	<path id="svg_13" class="st1" d="M428.8,276.7h-50c-3.3,0-6,2.7-6,6c0,3.3,2.7,6,6,6h50c3.3,0,6-2.7,6-6
		C434.8,279.4,432.1,276.7,428.8,276.7z"/>
	<path id="svg_14" class="st1" d="M429.6,147h-50c-3.3,0-6,2.7-6,6s2.7,6,6,6h50c3.3,0,6-2.7,6-6S433,147,429.6,147z"/>
	<path id="svg_15" class="st1" d="M56,233.4H6c-3.3,0-6,2.7-6,6c0,3.3,2.7,6,6,6h50c3.3,0,6-2.7,6-6C62,236.1,59.3,233.4,56,233.4z"
		/>
	<path id="svg_16" class="st1" d="M56,190.2H6c-3.3,0-6,2.7-6,6c0,3.3,2.7,6,6,6h50c3.3,0,6-2.7,6-6C62,192.9,59.3,190.2,56,190.2z"
		/>
	<path id="svg_17" class="st1" d="M56,147H6c-3.3,0-6,2.7-6,6s2.7,6,6,6h50c3.3,0,6-2.7,6-6S59.3,147,56,147z"/>
	<path id="svg_18" class="st1" d="M56,276.7H6c-3.3,0-6,2.7-6,6c0,3.3,2.7,6,6,6h50c3.3,0,6-2.7,6-6C62,279.4,59.3,276.7,56,276.7z"
		/>
	<path id="svg_19" class="st2" d="M212.2,175.3c-0.9-2.6-4.2-4-7.5-4s-6.5,1.3-7.4,4l-21.9,71.3c-0.1,0.3-0.1,0.7-0.1,1
		c0,2.9,4.1,4.8,7.3,4.8c2,0,3.5-0.7,4.1-2.4l4.5-15.6h27.2l4.5,15.6c0.6,1.8,2.1,2.4,4,2.4c3.3,0,7.4-2.1,7.4-4.8
		c0-0.3-0.1-0.7-0.2-1L212.2,175.3z M193.7,225l11-37.7l11,37.7H193.7z"/>
	<path id="svg_20" class="st2" d="M248.7,172c-2.9,0-5.8,1.1-5.8,3.7v72.8c0,2.5,3,3.9,5.8,3.9c3,0,5.8-1.3,5.8-3.9v-72.8
		C254.6,173.1,251.7,172,248.7,172z"/>
</g>
</svg>
