<svg xmlns="http://www.w3.org/2000/svg" height="496" width="496"><rect id="backgroundrect" width="100%" height="100%" x="0" y="0" fill="none" stroke="none"/><g class="currentLayer" style=""><title>Layer 1</title><path d="m0 0v416h48v13.769531l19.640625 6.550781-9.257813 18.511719 30.785157 30.785157 18.519531-9.265626 6.542969 19.648438h43.53125l6.542969-19.648438 18.519531 9.265626 30.785156-30.785157-9.257813-18.511719 19.648438-6.550781v-43.53125l-19.640625-6.550781 9.257813-18.511719-30.785157-30.785156-18.519531 9.265625-6.542969-19.65625h-43.53125l-6.542969 19.648438-18.519531-9.265626-30.785156 30.785157 9.257813 18.511719-19.648438 6.550781v13.769531h-32v-320h464v260.894531l-3.671875-1.222656c-2.574219-9.878906-6.503906-19.335937-11.726563-28.207031l9.292969-18.585938-30.78125-30.78125-18.585937 9.292969c-8.871094-5.207031-18.328125-9.144531-28.199219-11.726563l-6.558594-19.664062h-43.53125l-6.558593 19.664062c-9.871094 2.582032-19.328126 6.511719-28.199219 11.726563l-18.585938-9.292969-30.78125 30.78125 9.292969 18.585938c-5.214844 8.871094-9.148438 18.328125-11.726562 28.207031l-19.679688 6.558594v43.53125l19.671875 6.558593c2.574219 9.878907 6.503906 19.335938 11.726563 28.207032l-9.292969 18.585937 30.78125 30.78125 18.585937-9.292969c8.871094 5.207032 18.328125 9.140626 28.199219 11.726563l6.558594 19.671875h43.53125l6.558593-19.664062c9.871094-2.582032 19.328126-6.511719 28.199219-11.726563l18.585938 9.292969 30.78125-30.78125-9.292969-18.585938c5.214844-8.871094 9.148438-18.328125 11.726562-28.207031l19.679688-6.558594v-389.769531zm64 397.769531 18.351562-6.121093 1.351563-3.527344c.402344-1.023438.800781-2.042969 1.242187-3.03125l1.550782-3.464844-8.648438-17.296875 14.472656-14.472656 17.296876 8.648437 3.460937-1.550781c.984375-.441406 1.984375-.839844 3-1.226563l3.5625-1.34375 6.128906-18.382812h20.46875l6.128907 18.382812 3.5625 1.34375c1.015624.386719 2.015624.785157 3 1.226563l3.460937 1.550781 17.296875-8.648437 14.472656 14.472656-8.648437 17.296875 1.550781 3.464844c.449219 1 .839844 2.007812 1.242188 3.03125l1.351562 3.527344 18.34375 6.121093v20.46875l-18.351562 6.121094-1.351563 3.527344c-.402344 1.023437-.800781 2.042969-1.242187 3.035156l-1.550782 3.460937 8.648438 17.296876-14.472656 14.472656-17.296876-8.648438-3.460937 1.550782c-.984375.441406-1.984375.839843-3 1.226562l-3.5625 1.34375-6.128906 18.375h-20.46875l-6.128907-18.382812-3.5625-1.34375c-1.015624-.386719-2.015624-.785157-3-1.226563l-3.460937-1.550781-17.296875 8.648437-14.472656-14.472656 8.648437-17.296875-1.550781-3.464844c-.449219-1-.839844-2.007812-1.242188-3.03125l-1.351562-3.527344-18.34375-6.121093zm416-19.539062-17.265625 5.761719-.964844 4.449218c-2.417969 11.125-6.808593 21.671875-13.035156 31.359375l-2.46875 3.832031 8.167969 16.328126-14.472656 14.472656-16.320313-8.167969-3.832031 2.460937c-9.6875 6.234376-20.242188 10.617188-31.367188 13.035157l-4.449218.964843-5.761719 17.273438h-20.46875l-5.761719-17.265625-4.449219-.964844c-11.125-2.417969-21.679687-6.808593-31.367187-13.035156l-3.832032-2.460937-16.320312 8.167968-14.472656-14.472656 8.167968-16.328125-2.46875-3.832031c-6.226562-9.6875-10.617187-20.242188-13.035156-31.359375l-.964844-4.449219-17.257812-5.769531v-20.46875l17.265625-5.761719.964844-4.449219c2.417969-11.125 6.808593-21.671875 13.035156-31.359375l2.46875-3.832031-8.167969-16.328125 14.472656-14.472656 16.320313 8.167968 3.832031-2.460937c9.6875-6.234375 20.242188-10.617187 31.367188-13.035156l4.449218-.964844 5.761719-17.265625h20.46875l5.761719 17.265625 4.449219.964844c11.125 2.417969 21.679687 6.808593 31.367187 13.035156l3.832032 2.460937 16.320312-8.167968 14.472656 14.472656-8.167968 16.328125 2.46875 3.832031c6.226562 9.6875 10.617187 20.242188 13.035156 31.359375l.964844 4.449219 17.257812 5.769531zm-464-314.230469v-48h464v48zm0 0" id="svg_1" class="" fill="#ffffff" fill-opacity="1"/><path d="m32 32h16v16h-16zm0 0" id="svg_2" class="" fill="#ffffff" fill-opacity="1"/><path d="m64 32h16v16h-16zm0 0" id="svg_3" class="" fill="#ffffff" fill-opacity="1"/><path d="m96 32h16v16h-16zm0 0" id="svg_4" class="" fill="#ffffff" fill-opacity="1"/><path d="m136 448c22.054688 0 40-17.945312 40-40s-17.945312-40-40-40-40 17.945312-40 40 17.945312 40 40 40zm0-64c13.230469 0 24 10.769531 24 24s-10.769531 24-24 24-24-10.769531-24-24 10.769531-24 24-24zm0 0" id="svg_5" class="" fill="#ffffff" fill-opacity="1"/><path d="m368 288c-44.113281 0-80 35.886719-80 80s35.886719 80 80 80 80-35.886719 80-80-35.886719-80-80-80zm0 144c-35.289062 0-64-28.710938-64-64s28.710938-64 64-64 64 28.710938 64 64-28.710938 64-64 64zm0 0" id="svg_6" class="" fill="#ffffff" fill-opacity="1"/><path d="m368 336c-17.648438 0-32 14.351562-32 32s14.351562 32 32 32 32-14.351562 32-32-14.351562-32-32-32zm0 48c-8.824219 0-16-7.175781-16-16s7.175781-16 16-16 16 7.175781 16 16-7.175781 16-16 16zm0 0" id="svg_7" class="" fill="#ffffff" fill-opacity="1"/><path d="m69 254.246094 87.808594-70.246094-87.808594-70.246094-10 12.492188 72.191406 57.753906-72.191406 57.753906zm0 0" id="svg_8" class="" fill="#ffffff" fill-opacity="1"/><path d="m104 240h176v16h-176zm0 0" id="svg_9" class="" fill="#ffffff" fill-opacity="1"/><path d="m288 96h176v16h-176zm0 0" id="svg_10" class=""/><path d="m288,96 h176 v16 h-176 zm0,0 " class="" id="svg_14" fill="#ffffff" fill-opacity="1"/><path d="m288 128h176v16h-176zm0 0" id="svg_11" class="" fill="#ffffff" fill-opacity="1"/><path d="m288 160h176v16h-176zm0 0" id="svg_12" class="" fill="#ffffff" fill-opacity="1"/><path d="m288 192h176v16h-176zm0 0" id="svg_13" class="" fill="#ffffff" fill-opacity="1"/></g></svg>