<svg xmlns="http://www.w3.org/2000/svg" width="50" height="50" viewBox="0 0 172 172">
  <g fill="none" stroke-miterlimit="10" font-family="none" font-weight="none" font-size="none" text-anchor="none" style="mix-blend-mode:normal">
    <path d="M0 172V0h172v172z"/>
    <path d="M.013 10.32V120.4H6.88V17.2H154.8v-6.88zM13.76 24.08v110.08h79.12v-6.88H20.64v-6.947l44.062-34.844c3.56 3.118 10.145 8.842 10.978 9.568 5.24 4.569 10.804 5.724 14.365 5.724 3.56 0 9.124-1.155 14.378-5.724 4.071-3.548 44.115-38.458 53.817-46.91v58.493l6.88 6.88V24.08zm6.88 6.88h137.6v8.063c-3.56 3.104-53.965 47.044-58.332 50.847-3.857 3.36-7.78 4.031-9.863 4.031-2.083 0-5.993-.685-9.85-4.031-4.488-3.91-58.037-50.579-59.555-51.91zm0 16.125c5.832 5.093 23.113 20.156 38.78 33.809l-38.78 30.664zm116.92 56.075a3.486 3.486 0 00-3.185 2.15 3.442 3.442 0 00.793 3.762l18.208 18.208H106.64v6.88h46.736l-18.208 18.208c-.9.86-1.263 2.15-.94 3.346a3.405 3.405 0 002.458 2.459 3.413 3.413 0 003.346-.94l26.512-26.513-26.512-26.512c-.645-.672-1.532-1.035-2.472-1.048z" fill="#2138c9"/>
  </g>
</svg>