<svg xmlns="http://www.w3.org/2000/svg" x="0px" y="0px" width="55" height="55"
                                viewBox="0 0 172 172" style=" fill:#000000;">
                                <g fill="none" fill-rule="nonzero" stroke="none" stroke-width="1" stroke-linecap="butt"
                                    stroke-linejoin="miter" stroke-miterlimit="10" stroke-dasharray=""
                                    stroke-dashoffset="0" font-family="none" font-weight="none" font-size="none"
                                    text-anchor="none" style="mix-blend-mode: normal">
                                    <path d="M0,172v-172h172v172z" fill="none"></path>
                                    <g fill="#3396ff">
                                        <path
                                            d="M61.92,6.88c-9.48408,0 -17.2,7.71592 -17.2,17.2c0,9.48408 7.71592,17.2 17.2,17.2c1.39997,0 2.7409,-0.21366 4.04469,-0.53078l2.86891,6.10063c-12.3354,7.1463 -20.6736,20.45703 -20.6736,35.71015c0,3.93674 0.59201,7.73229 1.62594,11.34125l-11.2539,3.48031c-3.06205,-4.76234 -8.38175,-7.94156 -14.45203,-7.94156c-9.48408,0 -17.2,7.71592 -17.2,17.2c0,9.48408 7.71592,17.2 17.2,17.2c9.48408,0 17.2,-7.71592 17.2,-17.2c0,-0.96366 -0.09551,-1.90096 -0.2486,-2.82187l11.22031,-3.46688c5.25364,10.93507 15.15738,19.19336 27.15719,22.20547l-1.02797,8.19688c-9.13962,0.39168 -16.46094,7.93209 -16.46094,17.1664c0,9.48408 7.71592,17.2 17.2,17.2c9.48408,0 17.2,-7.71592 17.2,-17.2c0,-7.34466 -4.64719,-13.58291 -11.13969,-16.04437l1.02797,-8.2036c1.07034,0.08357 2.14028,0.16797 3.23172,0.16797c11.53152,0 21.95806,-4.76704 29.455,-12.41625l13.84735,11.37485c-1.24913,2.38193 -2.02235,5.05043 -2.02235,7.9214c0,9.48408 7.71592,17.2 17.2,17.2c9.48408,0 17.2,-7.71592 17.2,-17.2c0,-9.48408 -7.71592,-17.2 -17.2,-17.2c-4.1235,0 -7.85773,1.52232 -10.8239,3.95063l-13.81375,-11.34125c4.67285,-6.68968 7.43765,-14.80805 7.43765,-23.56937c0,-10.14474 -3.69646,-19.43149 -9.78922,-26.6264l10.6425,-10.6425c2.71932,1.80245 5.96701,2.8689 9.46672,2.8689c9.48408,0 17.2,-7.71592 17.2,-17.2c0,-9.48408 -7.71592,-17.2 -17.2,-17.2c-9.48408,0 -17.2,7.71592 -17.2,17.2c0,3.4997 1.06645,6.7474 2.8689,9.46672l-10.6425,10.6425c-7.19492,-6.09276 -16.48167,-9.78922 -26.6264,-9.78922c-5.06285,0 -9.89233,0.96535 -14.37813,2.64047l-2.88234,-6.12078c4.18662,-3.14022 6.94047,-8.09539 6.94047,-13.71969c0,-9.48408 -7.71592,-17.2 -17.2,-17.2zM89.44,58.48c3.18544,0 5.79468,0.86952 6.665,2.6136c5.26664,0.66048 7.0606,5.2296 7.095,9.4264c0.02752,3.19232 -0.23392,5.9856 -0.86,7.74c0.57792,0.28896 1.14896,1.69936 0.86,3.44c-0.57792,3.19232 -2.56968,4.3 -3.44,4.3c-0.28896,2.90336 -2.28072,7.15864 -3.44,7.74v6.02c1.8576,4.46168 10.7837,4.42927 16.22578,8.23047c-6.10944,5.55216 -14.19962,8.96953 -23.10578,8.96953c-8.90616,0 -16.99634,-3.41737 -23.10578,-8.96953c5.44208,-3.8012 14.36818,-3.76879 16.22578,-8.23047v-6.02c-1.15928,-0.58136 -3.15104,-4.83664 -3.44,-7.74c-0.87032,0 -3.15104,-1.10768 -3.44,-4.3c-0.28896,-1.74064 0.28208,-3.15104 0.86,-3.44c-0.69144,-2.56624 -0.8428,-5.03616 -0.86,-7.31c-0.0516,-7.23776 4.26904,-12.47 13.76,-12.47z">
                                        </path>
                                    </g>
                                </g>
                            </svg>