                            <svg xmlns="http://www.w3.org/2000/svg" x="0px" y="0px" width="55" height="55"
                                viewBox="0 0 172 172" style=" fill:#000000;">
                                <g fill="none" fill-rule="nonzero" stroke="none" stroke-width="1" stroke-linecap="butt"
                                    stroke-linejoin="miter" stroke-miterlimit="10" stroke-dasharray=""
                                    stroke-dashoffset="0" font-family="none" font-weight="none" font-size="none"
                                    text-anchor="none" style="mix-blend-mode: normal">
                                    <path d="M0,172v-172h172v172z" fill="none"></path>
                                    <g fill="#3396ff">
                                        <path
                                            d="M10.32,10.32c-5.68406,0 -10.32,4.63594 -10.32,10.32v10.32h172v-10.32c0,-5.68406 -4.63594,-10.32 -10.32,-10.32zM0,37.84v123.84h172v-123.84zM99.76,51.6c0.44344,0 0.84656,0.04031 1.29,0.215c1.76031,0.72563 2.66063,2.75469 1.935,4.515l-30.96,75.68c-0.55094,1.33031 -1.86781,2.15 -3.225,2.15c-0.43,0 -0.86,-0.04031 -1.29,-0.215c-1.76031,-0.72562 -2.66062,-2.75469 -1.935,-4.515l30.96,-75.68c0.5375,-1.31687 1.88125,-2.13656 3.225,-2.15zM54.61,72.24c1.33031,-0.16125 2.72781,0.48375 3.44,1.72c0.94063,1.65281 0.36281,3.78938 -1.29,4.73l-18.8125,10.75l18.8125,10.75c1.65281,0.94063 2.23063,3.07719 1.29,4.73c-0.63156,1.11531 -1.81406,1.72 -3.01,1.72c-0.57781,0 -1.1825,-0.12094 -1.72,-0.43l-24.08,-13.76c-1.075,-0.61812 -1.72,-1.77375 -1.72,-3.01c0,-1.23625 0.645,-2.39187 1.72,-3.01l24.08,-13.76c0.41656,-0.22844 0.84656,-0.37625 1.29,-0.43zM117.39,72.24c0.44344,0.05375 0.87344,0.18813 1.29,0.43l24.08,13.76c1.075,0.61813 1.72,1.77375 1.72,3.01c0,1.23625 -0.645,2.39188 -1.72,3.01l-24.08,13.76c-0.5375,0.30906 -1.14219,0.43 -1.72,0.43c-1.19594,0 -2.37844,-0.60469 -3.01,-1.72c-0.94062,-1.65281 -0.36281,-3.78937 1.29,-4.73l18.8125,-10.75l-18.8125,-10.75c-1.65281,-0.94062 -2.23062,-3.07719 -1.29,-4.73c0.69875,-1.23625 2.10969,-1.88125 3.44,-1.72z">
                                        </path>
                                    </g>
                                </g>
                            </svg>