<svg xmlns="http://www.w3.org/2000/svg" x="0px" y="0px" width="55" height="55"
                                viewBox="0 0 172 172" style=" fill:#000000;">
                                <g fill="none" fill-rule="nonzero" stroke="none" stroke-width="1" stroke-linecap="butt"
                                    stroke-linejoin="miter" stroke-miterlimit="10" stroke-dasharray=""
                                    stroke-dashoffset="0" font-family="none" font-weight="none" font-size="none"
                                    text-anchor="none" style="mix-blend-mode: normal">
                                    <path d="M0,172v-172h172v172z" fill="none"></path>
                                    <g fill="#3396ff">
                                        <path
                                            d="M81.1625,6.88c-1.65281,0 -3.07719,1.1825 -3.38625,2.82188l-1.8275,9.9975c-1.72,0.5375 -3.38625,1.20937 -4.99875,2.02906l-8.21031,-5.92594c-1.35719,-0.98094 -3.225,-0.84656 -4.42094,0.34938l-7.35031,7.24281c-1.1825,1.16906 -1.35719,3.02344 -0.40312,4.39406l5.76469,8.34469c-0.83312,1.6125 -1.53187,3.27875 -2.09625,4.98531l-9.9975,1.6125c-1.65281,0.26875 -2.87562,1.69313 -2.88906,3.37281l-0.06719,10.32c-0.01344,1.66625 1.1825,3.10406 2.82188,3.39969l10.02437,1.8275c0.5375,1.70656 1.22281,3.35938 2.02906,4.95844l-5.95281,8.25063c-0.98094,1.35719 -0.84656,3.23844 0.33594,4.43437l7.25625,7.33688c1.16906,1.1825 3.02344,1.35719 4.39406,0.40312l8.43875,-5.81844c1.6125,0.81969 3.26531,1.505 4.95844,2.05594l1.70656,10.11844c0.28219,1.65281 1.70656,2.86219 3.37281,2.87562l10.32,0.05375h0.01344c1.67969,0 3.1175,-1.20937 3.39969,-2.86219l1.70656,-10.105c1.67969,-0.5375 3.31906,-1.20938 4.89125,-2.01563l8.39844,5.96625c1.35719,0.9675 3.21156,0.81969 4.4075,-0.34937l7.33688,-7.25625c1.19594,-1.1825 1.35719,-3.06375 0.38969,-4.43438l-5.95281,-8.35812c0.81969,-1.57219 1.505,-3.19813 2.05594,-4.87781l10.15875,-1.72c1.65281,-0.28219 2.86219,-1.70656 2.87562,-3.37281l0.05375,-10.32c0.01344,-1.67969 -1.19594,-3.1175 -2.86219,-3.39969l-10.07813,-1.70656c-0.52406,-1.69312 -1.20937,-3.34594 -2.00219,-4.945l5.92594,-8.35812c0.9675,-1.35719 0.81969,-3.225 -0.34937,-4.4075l-7.24281,-7.33688c-1.19594,-1.20937 -3.07719,-1.35719 -4.44781,-0.38969l-8.26406,5.88563c-1.58563,-0.83313 -3.225,-1.53188 -4.91813,-2.08281l-1.6125,-10.03781c-0.26875,-1.65281 -1.69312,-2.87562 -3.37281,-2.88906l-10.32,-0.06719zM85.86563,37.9475c3.56094,0 7.12187,1.35719 9.82281,4.09844c5.36156,5.42875 5.32125,14.17656 -0.1075,19.53813c-2.6875,2.66062 -6.19469,3.99094 -9.70187,3.99094c-3.57438,0 -7.13531,-1.37062 -9.83625,-4.09844c-5.36156,-5.42875 -5.30781,-14.17656 0.12094,-19.55156c2.6875,-2.66062 6.19469,-3.9775 9.70188,-3.9775zM49.61125,96.32c-7.99531,0 -11.77125,1.53188 -15.76219,3.15781l-1.81406,0.72562c-8.30437,3.225 -22.60187,9.95719 -23.20656,10.25281c-1.72,0.80625 -2.45906,2.84875 -1.65281,4.56875c0.81969,1.72 16.125,35.67656 16.91781,36.91281c1.02125,1.59906 3.14438,2.05594 4.74344,1.03469l8.4925,-5.42875c3.5475,-2.23062 4.93156,-2.80844 10.02437,-0.215l6.85313,3.49375c7.75344,3.95063 18.3825,9.36594 21.74187,10.965c5.0525,2.41875 9.25844,3.3325 12.85969,3.3325c6.235,0 10.62906,-2.72781 14.44531,-5.07937c0.81969,-0.51063 1.63938,-1.02125 2.4725,-1.49156c5.83188,-3.31906 46.60125,-29.93875 50.87438,-32.90844c5.01219,-3.48031 7.8475,-7.16219 8.41187,-10.92469c0.38969,-2.56656 -0.01344,-5.09281 -3.01,-7.10844c-3.92375,-2.63375 -10.26625,1.33031 -10.26625,1.33031l-31.98125,20.98937c-1.72,5.79156 -7.10844,11.11281 -18.275,11.11281h-18.06c-7.16219,0 -16.77,-2.09625 -21.05656,-3.1175c-0.09406,-0.02687 -1.31687,-0.3225 -1.31687,-0.3225c-1.47813,-0.38969 -2.56656,-1.73344 -2.56656,-3.3325c0,-1.89469 1.54531,-3.44 3.44,-3.44c0.33594,0 0.95406,0.13438 0.95406,0.13438c3.14437,0.77937 13.42406,3.19812 20.54594,3.19812h18.06c7.90125,0 12.04,-3.225 12.04,-8.6c0,-4.93156 -3.92375,-8.6 -12.04,-8.6c-6.70531,0 -14.62,-1.23625 -22.30625,-3.31906c-5.07937,-1.37062 -9.31219,-12.05344 -18.54375,-15.78906c-0.76594,-0.30906 -4.25969,-1.53188 -11.01875,-1.53188zM118.895,96.38719c-4.36719,0 -8.76125,1.67969 -11.22031,3.1175c-0.5375,0.33594 -9.41969,5.85875 -15.95031,9.93031c3.03687,0.38969 6.235,0.645 9.75562,0.645c2.09625,0 3.92375,0.25531 5.65719,0.63156l18.26156,-11.32781c0.40313,-0.26875 0.95406,-0.56437 1.57219,-0.87344c-2.01562,-1.1825 -4.67625,-2.12313 -8.07594,-2.12313zM139.34688,101.06344c-0.51063,0 -1.04813,0.02688 -1.62594,0.08063c-2.19031,0.20156 -4.70312,1.62594 -4.70312,1.62594l-18.275,11.32781c2.62031,2.05594 4.28656,4.70312 5.06594,7.55187l20.86844,-13.67937l5.95281,-3.91031c-0.30906,-0.34937 -0.65844,-0.68531 -1.04812,-1.00781c-0.05375,-0.05375 -0.1075,-0.09406 -0.17469,-0.13437c-0.37625,-0.30906 -0.83312,-0.59125 -1.31687,-0.84656c-0.09406,-0.04031 -0.18813,-0.08062 -0.29563,-0.12094c-0.51062,-0.24188 -1.08844,-0.44344 -1.73344,-0.59125c-0.1075,-0.02688 -0.22844,-0.04031 -0.33594,-0.06719c-0.69875,-0.13438 -1.46469,-0.22844 -2.33813,-0.22844c-0.01344,0 -0.02687,0 -0.04031,0z">
                                        </path>
                                    </g>
                                </g>
                            </svg>