                            <svg xmlns="http://www.w3.org/2000/svg" x="0px" y="0px" width="55" height="55"
                                viewBox="0 0 172 172" style=" fill:#000000;">
                                <g fill="none" fill-rule="nonzero" stroke="none" stroke-width="1" stroke-linecap="butt"
                                    stroke-linejoin="miter" stroke-miterlimit="10" stroke-dasharray=""
                                    stroke-dashoffset="0" font-family="none" font-weight="none" font-size="none"
                                    text-anchor="none" style="mix-blend-mode: normal">
                                    <path d="M0,172v-172h172v172z" fill="none"></path>
                                    <g fill="#3396ff">
                                        <path
                                            d="M58.48,0c-1.89469,0 -3.44,1.54531 -3.44,3.44v27.52c0,1.89469 1.54531,3.44 3.44,3.44h55.04c1.90813,0 3.44,-1.54531 3.44,-3.44v-27.52c0,-1.89469 -1.53187,-3.44 -3.44,-3.44zM27.52,6.88c-5.68406,0 -10.32,4.63594 -10.32,10.32v144.48c0,5.68406 4.63594,10.32 10.32,10.32h116.96c5.68406,0 10.32,-4.63594 10.32,-10.32v-144.48c0,-5.68406 -4.63594,-10.32 -10.32,-10.32h-20.64v13.76h17.2v137.6h-110.08v-137.6h17.2v-13.76zM37.84,27.52v123.84h96.32v-123.84h-10.32v3.44c0,5.68406 -4.63594,10.32 -10.32,10.32h-55.04c-5.68406,0 -10.32,-4.63594 -10.32,-10.32v-3.44zM112.5525,64.07l5.6975,3.655l-34.2925,53.105l-26.875,-24.295l4.6225,-5.0525l20.855,18.8125z">
                                        </path>
                                    </g>
                                </g>
                            </svg>