                            <svg xmlns="http://www.w3.org/2000/svg" x="0px" y="0px" width="55" height="55"
                                viewBox="0 0 172 172" style=" fill:#000000;">
                                <g fill="none" fill-rule="nonzero" stroke="none" stroke-width="1" stroke-linecap="butt"
                                    stroke-linejoin="miter" stroke-miterlimit="10" stroke-dasharray=""
                                    stroke-dashoffset="0" font-family="none" font-weight="none" font-size="none"
                                    text-anchor="none" style="mix-blend-mode: normal">
                                    <path d="M0,172v-172h172v172z" fill="none"></path>
                                    <g fill="#3396ff">
                                        <path
                                            d="M34.185,1.8275l-32.3575,32.3575l51.385,51.17l32.25,-32.25l-4.945,-4.945l-12.685,12.7925l-4.945,-4.945l12.7925,-12.685l-5.4825,-5.4825l-9.245,9.3525l-4.945,-4.945l9.3525,-9.245l-5.4825,-5.4825l-12.685,12.7925l-4.945,-4.945l12.7925,-12.685l-5.4825,-5.4825l-9.245,9.3525l-4.945,-4.945l9.3525,-9.245zM148.35,6.88c-4.28656,0 -8.55969,1.67969 -11.825,4.945l-6.1275,6.02l-72.3475,72.3475l-42.785,42.8925c-0.68531,0.45688 -1.1825,1.14219 -1.3975,1.935l-6.88,25.8c-0.30906,1.1825 0.04031,2.43219 0.90031,3.29219c0.86,0.86 2.10969,1.20938 3.29219,0.90031l25.8,-6.88c0.57781,-0.18812 1.10188,-0.52406 1.505,-0.9675l0.215,-0.1075c0.16125,-0.16125 0.30906,-0.34937 0.43,-0.5375l115.025,-114.9175v-0.1075l2.2575,-2.2575c1.77375,-1.77375 3.7625,-3.7625 3.7625,-3.7625c6.53063,-6.54406 6.53063,-17.11937 0,-23.65c-3.27875,-3.26531 -7.53844,-4.945 -11.825,-4.945zM148.35,13.76c2.63375,0 5.13313,1.04813 6.9875,2.9025c3.84313,3.84313 3.84313,10.13188 0,13.975c-0.44344,0.44344 -0.80625,0.80625 -1.1825,1.1825l-13.975,-13.975l1.1825,-1.1825c1.86781,-1.86781 4.35375,-2.9025 6.9875,-2.9025zM121.7975,88.6875l-9.245,9.245l-2.9025,-2.9025l-23.1125,23.1125l51.2775,51.2775l32.3575,-32.3575l-7.095,-7.095l-9.245,9.245l-4.945,-4.8375l9.3525,-9.3525l-5.4825,-5.375l-12.685,12.685l-4.945,-4.8375l12.7925,-12.7925l-5.4825,-5.375l-9.245,9.245l-4.945,-4.8375l9.3525,-9.3525l-5.4825,-5.375l-12.685,12.685l-4.945,-4.8375l12.7925,-12.7925zM19.0275,142.545l10.4275,10.4275l-14.2975,3.87z">
                                        </path>
                                    </g>
                                </g>
                            </svg>